<svg xmlns="http://www.w3.org/2000/svg" viewBox="0 0 908.36 909.54"><defs><style>.cls-1{fill:#ce242b;}</style></defs><title>1_1</title><g id="Layer_2" data-name="Layer 2"><g id="Layer_1-2" data-name="Layer 1"><path class="cls-1" d="M0,909.54V2.61c4.28-.19,7.53-.44,10.77-.45,17,0,34,.13,51-.1C68,2,74.28,1,80.54.46c2-.17,4.15-.77,5.95-.24C98.25,3.72,110.28,2,122.18,2c49.66.21,99.32.05,149,.1q311.95.27,623.9.57h12.06V15.47q0,134.48.05,269c0,15.62,1.09,31.25,1,46.87-.19,46.53-.82,93.05-1,139.58-.05,14.62,1.21,29.24,1.16,43.85q-.46,150.42-1.23,300.84c-.11,27.25,0,54.49,0,81.74,0,3.62,0,7.24,0,12.22H0Zm459.64-896c-13.76,0-27.14,1.1-40.27-.28-15.6-1.64-23.9,7.95-31.35,18.26-5.53,7.66-9.18,16.81-12.86,25.63-7.62,18.28-11.36,37.4-8.19,57.14,2.15,13.38,5.74,26.53,8.75,39.77,2.77,12.16,3.11,24.61-1.07,36.14-5.38,14.84-10.72,29.79-19.8,43.17-7.51,11.07-17.27,16-30.05,14.6-11-1.2-19.75-6.6-24.86-17a121.06,121.06,0,0,1-11.15-32.81,72.33,72.33,0,0,0-5-16.15c-6.8-15.75-19.42-24.49-35.73-28.42-14.54-3.5-26.33,4-35.31,12.82C205,174,197.51,254.56,197.49,263a184.45,184.45,0,0,0,2.65,31.58c1.27,7.47,2.39,15.18,2,22.7-1,18.06-2.1,36.18-4.68,54.06A160.57,160.57,0,0,1,188,406.5c-5.24,13.39-12.49,26-18.69,39-3.59,7.53-13.81,15.1-20.9,14.47-11.47-1-20.9-6-27.49-15.69-7.85-11.56-8.76-24.51-8.61-38.08.21-19.18-.87-38.37-1.37-57.55-.2-7.54-4-13-10.86-15.15-7.1-2.25-15,.92-19.21,5.15a51.16,51.16,0,0,0-14.92,34.69c-.36,15.67.76,31.4,1.71,47.08.61,10.1,2.34,20.14,3,30.24a139.79,139.79,0,0,1-.13,19.72c-.68,9.5-1.15,19.11-3.12,28.38-1.69,7.94-4.23,16.14-8.38,23-6.92,11.49-16.21,21-30.14,24.33a31.29,31.29,0,0,0-5.5,2.3C11.11,554,11.11,554,11.11,567.92c0,9.57,0,19.13,0,28.76A59.7,59.7,0,0,0,18,598.45c17.81,2,30.5,11.89,40.05,26.3C71.6,645.14,76.34,668.86,83,691.84c4.22,14.66,8.1,29.43,12.23,44.12,3.78,13.46,12.54,24.48,18.43,36.92,6,12.7,15.51,22.51,27.14,30.53,11.47,7.91,22.48,16.5,33.53,25,9.71,7.48,18.6,16.22,28.92,22.7,16,10.07,29.73,21.71,36.84,39.8a69.31,69.31,0,0,0,3.61,6.89H407.79c1.74-4.18,2.86-8.36,5.07-11.86,3.28-5.22,6.69-10.64,11.16-14.76,9-8.27,19.11-15.29,28.05-23.6,14.06-13.07,48-79.16,49.34-80.33,10.29-9,46.53-37.92,56.54-39.24,7.2-1,7.51-2,4.88-10-5.12.93-11.08.56-15.31,3.09-8.86,5.3-31,20.76-33.59,20.59-3.2-.22-4-3.46-4.62-6.71-1.6-8.45-2.45-17.46-6.14-25-6.67-13.65-15.22-26.37-22.88-39.54-1.55-2.67,6.3-10.29,9.91-14.73,5.75-7.08,11.2-14.34,17.82-20.74,7.54-7.29,14.31-15.4,21.3-23.24a55.15,55.15,0,0,0,5.3-7.17q10-15.82,19.91-31.76c4.66-7.55,9.32-15.12,13.64-22.86,1.4-2.51,2.52-6.3-1.26-7.6-1.58-.54-4.49,1.67-6.3,3.2-4.23,3.58-3.94,9.82-8.87,13.7-5.69,4.47-9.53,11.26-14.31,16.94s-9.61,10.89-14.29,16.44c-10.73,12.74-22.34,24.88-31.77,38.52-8.17,11.82-17.74,22.05-27.82,32-3,3-6.47,5.57-9.56,8.5-7.84,7.43-15.09,15.61-23.51,22.3C417.06,704.62,403,714.46,389,724.36c-4.85,3.43-10.27,6.07-15.5,8.94-12.4,6.8-24.65,13.89-37.32,20.15C325,759,313.61,764.38,301.8,768.22a204.44,204.44,0,0,1-35.51,7.69c-6,.81-12.51-.69-18.49-2.27-5.05-1.33-9.47-5.28-14.53-6.32-9.71-2-16-8.53-22.74-14.69-8.22-7.49-13.93-16.64-19.06-26.45a132.23,132.23,0,0,1-13-40.28,235.14,235.14,0,0,1-3.13-25.63c-.53-9.91-1.27-20.05.19-29.77,2.59-17.25,6.53-34.33,10.39-51.36a108.55,108.55,0,0,1,13-32.46c4.25-7,8.4-14.1,12.86-21,9.12-14.07,17.8-28.49,27.83-41.89,9.27-12.37,20-23.65,30.23-35.3,6.05-6.91,6-8.93-1.47-14-2.92-2-7.38-2.58-9.13-5.16-5.3-7.87-11.5-15.88-13.92-24.77-5.52-20.28-2.62-40.11,9-58.12,10.76-16.66,27.36-25.46,45.22-31.79a112.2,112.2,0,0,1,27.82-5.62c10.1-.85,20.55-1,30.48.68,7.11,1.22,13.62,6,21.13,9.55,1.63-3,3.52-6.69,5.6-10.27,14.84-25.6,29.54-51.27,44.64-76.71,10.23-17.25,18.24-35.79,30.36-52,4.58-6.11,26.45-35.7,31-42,5.13-7.19,8.84-15.39,13.95-22.6,3.37-4.76,3.11-8.33-.53-12.26-18.45,1.54-32.87-5.93-44.31-19.64C452.35,75,449.54,64.3,446.86,53.38,444.92,45.47,455.17,20.11,459.64,13.54ZM856.23,897.6c-3.46-10.8-5.9-21.49-10.23-31.35-10.32-23.53-29.37-38.77-51.19-51-6.9-3.87-14.41-6.95-20.56-11.77-8.46-6.63-18.87-12-21.74-23.74a151.1,151.1,0,0,1-2.5-15.65c-2.26-16.78,4.07-30.44,17.61-39.52,7.47-5,16-8.9,26.9-4.94a93.34,93.34,0,0,1,22.41,12c5.66,4,12.55,6.88,18.52,3.15,6.26-3.91,11.19-10.1,16.22-15.73a8.94,8.94,0,0,0,1.52-7.1,159.61,159.61,0,0,0-24.72-52.73c-10.51-14.8-21.32-29.4-31.25-44.57-8.53-13-15.54-26.95-16.05-43.09-.27-8.3-1.07-17.58,5.1-23.55,9.52-9.21,24.25-17,39.23-9.37,6.5,3.32,13.65,4.78,20.84,3,8.53-16.1,10.18-21,7.51-31.33-1.8-7-4.09-14.36-8.22-20.06-9.85-13.58-20.67-26.48-31.58-39.25-8.17-9.55-16.9-18.64-25.72-27.61-12.06-12.26-24.81-23.86-36.57-36.39-10.37-11-20.07-22.64-24-38.1-1.9-7.55-1.19-14.24,1.08-21.39,2.6-8.19,8.34-14,15-18.09,16.32-10,30.94-11.26,46.48,2.46a48.84,48.84,0,0,0,34.51,12.57c8.72-.21,15-5.75,15.2-14.58a35.39,35.39,0,0,0-3.15-15.3c-6.5-13.94-18.4-22.34-32.28-27.71-13.22-5.12-26.7-9.7-40.29-13.74-11.32-3.36-18.82-10.17-23.3-20.9-5-12.09-5.06-25.15,1.52-35.31a43.56,43.56,0,0,1,31.42-20c8.73-1.15,17.51-1.87,26.13-3.13,11.56-1.68,22.92-1.77,34.44-1.41,12.18.38,21.34-6.35,26.07-17.61,6.8-16.21,3.89-30.42-7-43.73-15.14-18.58-20.36-40.15-17.55-63.59,1.46-12.21,2-25.31,16-32.37-12-2.3-206.71-1.84-214.32.41a96.84,96.84,0,0,1,8.2,5.81c4.72,4.12,9.85,8,13.68,12.89C670.54,47.93,675.54,64.57,678,81.54c1.75,11.91,1.06,24.35.11,36.44-1.13,14.37-3.36,28.68-5.79,42.9-1.81,10.56-4.43,21-7.18,31.37-2.6,9.8-6.81,19.25-8.6,29.16-4.05,22.34-16.75,40.42-27.92,59.22-7.05,11.87-15.32,23-23.24,34.36-5.3,7.58-7.16,17.4-15.41,23.2-1.1.78.13,4.87.19,5.87,12.65,1.52,53.43,15.64,60.95,19.61A186.48,186.48,0,0,1,701.56,403c10.26,11.14,25.58,40.16,26.06,41.76,2.33,7.79,4.7,15.57,7,23.37,1.19,4.09,1.46,8.66,3.47,12.27,3.89,7,2.51,32.36,2.79,37.52.92,16.76-.38,33.33-2.52,49.93-.91,7.09-10.17,55.81-11,62.15a211.08,211.08,0,0,1-4,21.19c-2.2,9.57-6.21,18.49-8.63,28-3.34,13.17-8.84,25.79-13.46,38.78a4.08,4.08,0,0,1-1.65.56c-9.39-.82-34-12.19-37.5-11.91-7.71.62-15.37,1.81-23.1,2.77,1.41,8.48,1.38,8.71,7.27,9.49,4.17.55,8.44.28,12.66.49A115.16,115.16,0,0,1,691,725.8c7.24,2.49,8.51,4.78,6.62,11.94-2.78,10.51-5.67,21.16-6.73,31.92-2.15,21.83,3,42.89,9.71,63.46,6.81,21,16.15,41.3,16.31,64.47ZM11.59,305l2.14.34c4.13-9,3.24-18.73,3-28.22C16.33,264,21.44,252.83,29,243c7.66-10,16.66-19,25.59-27.87,6.41-6.4,12.63-6.82,18.86-3.33S84,219.93,85.78,226.72A130.5,130.5,0,0,1,89,241.33c1.16,7.76,5.78,12.44,12.6,15.45,7.84,3.46,20.55,2.14,23.71-3.6,4.93-9,9.78-18.25,12.63-28,3.73-12.76,4.64-26.16,4.05-39.57a90.86,90.86,0,0,1,.78-11.94c1.12-12.54,2.57-25.06,3.37-37.62,1.25-19.61,8.87-36.44,23.7-48.88,14.36-12.06,30.63-20.36,50.45-21.45,20.1-1.11,34.79,5.68,44.46,23.16,2.72,4.92,4.57,10.33,7.28,15.26,4,7.23,8.13,14.39,12.7,21.26a15.54,15.54,0,0,0,14.74,6.9c5.22-.49,10.3-2.52,15.43-3.91,4.17-1.13,6.09-3.93,5.55-8.18-.89-6.9-1.31-14-3-20.65a110,110,0,0,0-23.83-45.37c-9.71-11.1-10.43-22.18-3.15-34.55a34.86,34.86,0,0,0,2-5.19,11.94,11.94,0,0,0-2.52-.72q-52-.1-104-.08a15,15,0,0,0-6.65,1.57c-9.11,4.74-18.11,9.69-27.11,14.64-13.09,7.2-26.07,14.58-39.22,21.67C96.09,60.63,78.86,69.2,64.18,81.79c-16.35,14-34.7,26.09-45.68,45.53a4.41,4.41,0,0,1-1.4,1.42c-5.37,3.54-6.12,8.67-6.1,14.72.19,50.65.1,101.3.13,152C11.14,298.59,11.43,301.78,11.59,305Zm88.05,592.5h67.58c-6.09-5.1-10.71-8.69-15-12.62-10.21-9.35-20.49-18.64-30.29-28.41a185.12,185.12,0,0,1-17.53-20.21A242.86,242.86,0,0,1,89.3,812.91C81.68,799.8,72.9,787.06,67.49,773,59.57,752.5,46.26,736.43,31,721.54a45.72,45.72,0,0,0-19.82-11.59c1.67,15.92-3.49,30.39,7.17,45.24,14.9,20.76,23.92,45.24,32.27,69.37,6.74,19.49,16,36.91,30,51.94C87.09,883.45,93.4,890.57,99.65,897.47ZM397.4,370.17c5.36,9.23,7.39,18.5,3.6,28.19-4.63,11.81-7.32,24.55-16.67,34.15-1.73,1.77-5.46,12.44-7.11,14.66-4.12,5.55-56.19,56.18-62.82,68.05-7.62,13.64-16.48,26.6-24.16,40.21-3.85,6.81-6.27,14.42-9.38,21.66-1.4,3.25-3,6.44-4.29,9.72-2,4.87-3,10.3-5.85,14.59A56.18,56.18,0,0,0,261,631.56l11.84,7.18c3.45-11.08,5.68-21.16,9.71-30.47,6.47-15,13.8-29.6,21.4-44,7.21-13.71,14.45-27.53,23.13-40.31,9.25-13.61,22.41-24,32.14-37.63,7.85-11,19.54-19.51,30.37-28.07C411.33,441,434,425,455.57,407.68c16.87-13.55,36.21-22.57,55.06-32.55,3.91-2.07,8.85-2.47,13.4-3s9.09-.11,14.47-.11l2.17-20.82c-4.55.62-8.42.25-11.39,1.71-7.74,3.8-16.57,4.18-23.89,10-6.38,5.1-15.15,7.13-22.7,10.83-17.79,8.73-35.43,17.77-53.27,26.39-3.88,1.87-8.36,2.5-14.07,4.13,11.57-16.07,8.32-39-5.5-48.19ZM895.7,726.43l-1.94-1.32c-2.71,3.52-5.51,7-8.12,10.57-4,5.54-15.9,16.36-16.89,17.14-2.46,1.93-25.14,20.32-33,22.08-6.91,1.56-7.15,8.1-1,12.54,5.49,4,10.71,8.2,16.93,11.3,14.15,7,27.85,15,41.77,22.54.41.22,1.19-.24,2.21-.47ZM817,370.41a30.66,30.66,0,0,0,4.5,18c8.61,14.8,23.06,22,36.78,30.34,9.26,5.63,18.56,11.23,27.47,17.38,3.54,2.45,6.07,6.36,9.67,10.27V373.15c-2.22,1.75-3.46,2.72-4.67,3.7-11.27,9.15-24,9.55-36.2,1.63-8.14-5.26-17.6-7.1-27-8.74C824.51,369.2,821.15,370.11,817,370.41Zm78.59-155.14c-12.14-3.07-38.1-5.52-48.8-3.15-5.91,1.31-11.6,4.82-16.64,8.39-3,2.13-3.48,6.5-.71,9.85a30.39,30.39,0,0,0,6.52,6.07c10.22,6.73,20.72,13.05,30.87,19.89a186,186,0,0,1,15.56,12.22c4.34,3.65,8.4,7.63,13.21,12Zm-52.5,363.29c2.34,7,36.12,49.14,51.45,65.17,2.51-10.48,2.1-85.54-.48-91.88C880.61,566.33,862,571.42,843.12,578.56ZM62,14.28H11.37c-.35,13.1-.46,25.45.07,39.22Zm583.4,775c-1.56-5.52-2.43-9.74-4-13.71-1.65-4.3-5.41-5.69-9.73-5-4.06.63-7.58,2.26-9,6.69-2.33,7.27,3.66,19.77,10.93,22.16,1.32.43,3.67.09,4.52-.84C640.92,795.55,643.21,792.12,645.38,789.27ZM38.3,897.74l.58-2.31c-10.58-5.12-16.54-16-27.22-22.5v25.22c7.06,0,13.61,0,20.17,0C34,898.1,36.14,897.87,38.3,897.74ZM535.75,783.92c3.52,4.89,8,5.15,13.85,1.19,6.08-4.13,8.25-9.51,5.42-14.14-1.76-2.88-3.89-4.57-8.08-4.06C540.44,767.7,534.23,781.82,535.75,783.92Z"/></g></g></svg>