<svg xmlns="http://www.w3.org/2000/svg" viewBox="0 0 885.24 885.08"><defs><style>.cls-1{fill:#fff;}</style></defs><title>1_1_inv</title><g id="Layer_2" data-name="Layer 2"><g id="Layer_1-2" data-name="Layer 1"><path d="M448.63.47c-13.76,0-27.14,1.1-40.27-.28-15.6-1.64-23.9,7.95-31.35,18.26-5.53,7.66-9.18,16.81-12.86,25.63-7.62,18.28-11.36,37.4-8.19,57.14,2.15,13.38,5.74,26.53,8.75,39.77,2.77,12.16,3.11,24.61-1.07,36.14-5.38,14.84-10.72,29.79-19.8,43.17-7.51,11.07-17.27,16-30.05,14.6-11-1.2-19.75-6.6-24.86-17a121.06,121.06,0,0,1-11.15-32.81,72.33,72.33,0,0,0-5-16.15c-6.8-15.75-19.42-24.49-35.73-28.42-14.54-3.5-26.33,4-35.31,12.82C194,161,187.49,171.41,187.71,184a31.1,31.1,0,0,1-2.56,13.61c-4.31,9-1.74,18.1-1.61,27.06.12,8.41,3,16.8,2.95,25.19a184.45,184.45,0,0,0,2.65,31.58c1.27,7.47,2.39,15.18,2,22.7-1,18.06-2.1,36.18-4.68,54.06A160.57,160.57,0,0,1,177,393.43c-5.24,13.39-12.49,26-18.69,39-3.59,7.53-13.81,15.1-20.9,14.47-11.47-1-20.9-6-27.49-15.69-7.85-11.56-8.76-24.51-8.61-38.08.21-19.18-.87-38.37-1.37-57.55-.2-7.54-4-13-10.86-15.15-7.1-2.25-15,.92-19.21,5.15a51.16,51.16,0,0,0-14.92,34.69c-.36,15.67.76,31.4,1.71,47.08.61,10.1,2.34,20.14,3,30.24a139.79,139.79,0,0,1-.13,19.72c-.68,9.5-1.15,19.11-3.12,28.38-1.69,7.94-4.23,16.14-8.38,23-6.92,11.49-16.21,21-30.14,24.33a31.29,31.29,0,0,0-5.5,2.3C.11,541,.11,541,.11,554.85c0,9.57,0,19.13,0,28.76A59.7,59.7,0,0,0,7,585.38c17.81,2,30.5,11.89,40.05,26.3,13.52,20.39,18.25,44.11,24.87,67.09,4.22,14.66,8.1,29.43,12.23,44.12,3.78,13.46,12.54,24.48,18.43,36.92,6,12.7,15.51,22.51,27.14,30.53,11.47,7.91,22.48,16.5,33.53,25,9.71,7.48,18.6,16.22,28.92,22.7,16,10.07,29.73,21.71,36.84,39.8a69.31,69.31,0,0,0,3.61,6.89H396.78c1.74-4.18,2.86-8.36,5.07-11.86,3.28-5.22,6.69-10.64,11.16-14.76,9-8.27,19.11-15.29,28.05-23.6,14.06-13.07,25.15-28.74,36.54-44.09a9.39,9.39,0,0,0,1.31-2.68c3-9.39,6-18.8,9.05-28.18.61-1.88,1.09-4.19,2.44-5.37,10.29-9,15.13-23.71,29.76-28,7.08-8.17,16.78-9.89,26.78-11.21,7.2-1,7.51-2,4.88-10-5.12.93-11.08.56-15.31,3.09-8.86,5.3-19.77,7.7-25.87,17.43-1.24,2-5.16,3.33-7.72,3.16-3.2-.22-4-3.46-4.62-6.71-1.6-8.45-2.45-17.46-6.14-25-6.67-13.65-15.22-26.37-22.88-39.54-1.55-2.67-4.86-4.88-3-8.74,9.23-1.62,9.32-1.55,12.92-6,5.75-7.08,11.2-14.34,17.82-20.74,7.54-7.29,14.31-15.4,21.3-23.24a55.15,55.15,0,0,0,5.3-7.17q10-15.82,19.91-31.76c4.66-7.55,9.32-15.12,13.64-22.86,1.4-2.51,2.52-6.3-1.26-7.6-1.58-.54-4.49,1.67-6.3,3.2-4.23,3.58-3.94,9.82-8.87,13.7-5.69,4.47-9.53,11.26-14.31,16.94s-9.61,10.89-14.29,16.44c-10.73,12.74-22.34,24.88-31.77,38.52-8.17,11.82-17.74,22.05-27.82,32-3,3-6.47,5.57-9.56,8.5-7.84,7.43-15.09,15.61-23.51,22.3C406,691.55,392,701.39,377.95,711.29c-4.85,3.43-10.27,6.07-15.5,8.94-12.4,6.8-24.65,13.89-37.32,20.15-11.17,5.52-22.53,10.94-34.34,14.78a204.44,204.44,0,0,1-35.51,7.69c-6,.81-12.51-.69-18.49-2.27-5.05-1.33-9.47-5.28-14.53-6.32-9.71-2-16-8.53-22.74-14.69-8.22-7.49-13.93-16.64-19.06-26.45a132.23,132.23,0,0,1-13-40.28,235.14,235.14,0,0,1-3.13-25.63c-.53-9.91-1.27-20.05.19-29.77,2.59-17.25,6.53-34.33,10.39-51.36a108.55,108.55,0,0,1,13-32.46c4.25-7,8.4-14.1,12.86-21,9.12-14.07,17.8-28.49,27.83-41.89,9.27-12.37,20-23.65,30.23-35.3,6.05-6.91,6-8.93-1.47-14-2.92-2-7.38-2.58-9.13-5.16-5.3-7.87-11.5-15.88-13.92-24.77-5.52-20.28-2.62-40.11,9-58.12,10.76-16.66,27.36-25.46,45.22-31.79A112.2,112.2,0,0,1,316.4,296c10.1-.85,20.55-1,30.48.68,7.11,1.22,13.62,6,21.13,9.55,1.63-3,3.52-6.69,5.6-10.27,14.84-25.6,29.54-51.27,44.64-76.71,10.23-17.25,18.24-35.79,30.36-52,4.58-6.11,9.44-12.11,12.19-19.45.67-1.8,2.2-3.33,3.5-4.84,5.1-5.91,10.76-11.41,15.27-17.73,5.13-7.19,8.84-15.39,13.95-22.6,3.37-4.76,3.11-8.33-.53-12.26-18.45,1.54-32.87-5.93-44.31-19.64-7.32-8.78-10.13-19.52-12.81-30.44C433.91,32.4,432.14,25,437,17.64,440.53,12.3,444.17,7,448.63.47ZM845.22,884.53c-3.46-10.8-5.9-21.49-10.23-31.35-10.32-23.53-29.37-38.77-51.19-51-6.9-3.87-14.41-6.95-20.56-11.77-8.46-6.63-18.87-12-21.74-23.74A151.1,151.1,0,0,1,739,751c-2.26-16.78,4.07-30.44,17.61-39.52,7.47-5,16-8.9,26.9-4.94a93.34,93.34,0,0,1,22.41,12c5.66,4,12.55,6.88,18.52,3.15,6.26-3.91,11.19-10.1,16.22-15.73a8.94,8.94,0,0,0,1.52-7.1,159.61,159.61,0,0,0-24.72-52.73c-10.51-14.8-21.32-29.4-31.25-44.57-8.53-13-15.54-26.95-16.05-43.09-.27-8.3-1.07-17.58,5.1-23.55,9.52-9.21,24.25-17,39.23-9.37,6.5,3.32,13.65,4.78,20.84,3,8.53-16.1,10.18-21,7.51-31.33-1.8-7-4.09-14.36-8.22-20.06C824.78,463.53,814,450.62,803,437.86c-8.17-9.55-16.9-18.64-25.72-27.61-12.06-12.26-24.81-23.86-36.57-36.39-10.37-11-20.07-22.64-24-38.1-1.9-7.55-1.19-14.24,1.08-21.39,2.6-8.19,8.34-14,15-18.09,16.32-10,30.94-11.26,46.48,2.46a48.84,48.84,0,0,0,34.51,12.57c8.72-.21,15-5.75,15.2-14.58a35.39,35.39,0,0,0-3.15-15.3c-6.5-13.94-18.4-22.34-32.28-27.71-13.22-5.12-26.7-9.7-40.29-13.74-11.32-3.36-18.82-10.17-23.3-20.9-5-12.09-5.06-25.15,1.52-35.31a43.56,43.56,0,0,1,31.42-20c8.73-1.15,17.51-1.87,26.13-3.13,11.56-1.68,22.92-1.77,34.44-1.41,12.18.38,21.34-6.35,26.07-17.61,6.8-16.21,3.89-30.42-7-43.73-15.14-18.58-20.36-40.15-17.55-63.59,1.46-12.21,2-25.31,16-32.37-12-2.3-206.71-1.84-214.32.41A96.84,96.84,0,0,1,635,8.1c4.72,4.12,9.85,8,13.68,12.89C659.53,34.86,664.53,51.5,667,68.47c1.75,11.91,1.06,24.35.11,36.44-1.13,14.37-3.36,28.68-5.79,42.9-1.81,10.56-4.43,21-7.18,31.37-2.6,9.8-6.81,19.25-8.6,29.16-4.05,22.34-16.75,40.42-27.92,59.22-7.05,11.87-15.32,23-23.24,34.36-5.3,7.58-7.16,17.4-15.41,23.2-1.1.78.13,4.87.19,5.87,12.65,1.52,23.67,2.78,34.66,4.25,1.53.2,3,1.34,4.38,2.18,7.3,4.39,14.38,9.21,21.91,13.19a186.48,186.48,0,0,1,50.43,39.28c10.26,11.14,15.57,25.24,24.6,37,.94,1.23,1,3.15,1.47,4.74,2.33,7.79,4.7,15.57,7,23.37,1.19,4.09,1.46,8.66,3.47,12.27,3.89,7,4.84,14.29,4.53,21.89-.21,5.23-2,10.47-1.74,15.63.92,16.76-.38,33.33-2.52,49.93-.91,7.09-.17,14.38-1,21.49a171.25,171.25,0,0,1-4.18,22.06c-1.58,6.3-5,12.27-5.8,18.61a211.08,211.08,0,0,1-4,21.19c-2.2,9.57-6.21,18.49-8.63,28-3.34,13.17-8.84,25.79-13.46,38.78a4.08,4.08,0,0,1-1.65.56c-9.39-.82-16.89-9.83-27.33-6.38-.23.07-.92-.83-1.19-1.39-1.85-3.89-5.53-4.43-9-4.15-7.71.62-15.37,1.81-23.1,2.77,1.41,8.48,1.38,8.71,7.27,9.49,4.17.55,8.44.28,12.66.49A115.16,115.16,0,0,1,680,712.73c7.24,2.49,8.51,4.78,6.62,11.94-2.78,10.51-5.67,21.16-6.73,31.92-2.15,21.83,3,42.89,9.71,63.46,6.81,21,16.15,41.3,16.31,64.47ZM.59,291.91l2.14.34c4.13-9,3.24-18.73,3-28.22C5.33,251,10.43,239.76,18,230c7.66-10,16.66-19,25.59-27.87,6.41-6.4,12.63-6.82,18.86-3.33s10.55,8.08,12.38,14.87A130.5,130.5,0,0,1,78,228.26c1.16,7.76,5.78,12.44,12.6,15.45,7.84,3.46,20.55,2.14,23.71-3.6,4.93-9,9.78-18.25,12.63-28,3.73-12.76,4.64-26.16,4.05-39.57a90.86,90.86,0,0,1,.78-11.94c1.12-12.54,2.57-25.06,3.37-37.62,1.25-19.61,8.87-36.44,23.7-48.88C173.18,62,189.44,53.74,209.26,52.65c20.1-1.11,34.79,5.68,44.46,23.16,2.72,4.92,4.57,10.33,7.28,15.26,4,7.23,8.13,14.39,12.7,21.26a15.54,15.54,0,0,0,14.74,6.9c5.22-.49,10.3-2.52,15.43-3.91,4.17-1.13,6.09-3.93,5.55-8.18-.89-6.9-1.31-14-3-20.65a110,110,0,0,0-23.83-45.37c-9.71-11.1-10.43-22.18-3.15-34.55a34.86,34.86,0,0,0,2-5.19,11.94,11.94,0,0,0-2.52-.72q-52-.1-104-.08a15,15,0,0,0-6.65,1.57c-9.11,4.74-18.11,9.69-27.11,14.64C128.1,24,115.11,31.36,102,38.46,85.09,47.56,67.85,56.14,53.17,68.72c-16.35,14-34.7,26.09-45.68,45.53a4.41,4.41,0,0,1-1.4,1.42C.73,119.21,0,124.33,0,130.38c.19,50.65.1,101.3.13,152C.13,285.52.43,288.72.59,291.91ZM88.64,884.4h67.58c-6.09-5.1-10.71-8.69-15-12.62-10.21-9.35-20.49-18.64-30.29-28.41A185.12,185.12,0,0,1,93.4,823.16,242.86,242.86,0,0,1,78.3,799.84C70.67,786.73,61.89,774,56.49,760,48.56,739.43,35.25,723.36,20,708.47A45.72,45.72,0,0,0,.17,696.88c1.67,15.92-3.49,30.39,7.17,45.24,14.9,20.76,23.92,45.24,32.27,69.37,6.74,19.49,16,36.91,30,51.94C76.08,870.38,82.39,877.5,88.64,884.4ZM386.4,357.1c5.36,9.23,7.39,18.5,3.6,28.19-4.63,11.81-7.32,24.55-16.67,34.15-1.73,1.77-2.24,4.71-3.36,7.09-1.2,2.55-2.1,5.34-3.75,7.57-4.12,5.55-8.55,10.87-12.95,16.21a35.34,35.34,0,0,1-4.76,4.81c-6.59,5.42-13.68,10.32-19.82,16.2-9.63,9.22-18.66,19-25.3,30.84-7.62,13.64-16.48,26.6-24.16,40.21-3.85,6.81-6.27,14.42-9.38,21.66-1.4,3.25-3,6.44-4.29,9.72-2,4.87-3,10.3-5.85,14.59A56.18,56.18,0,0,0,250,618.49l11.84,7.18c3.45-11.08,5.68-21.16,9.71-30.47,6.47-15,13.8-29.6,21.4-44,7.21-13.71,14.45-27.53,23.13-40.31,9.25-13.61,22.41-24,32.14-37.63,7.85-11,19.54-19.51,30.37-28.07,21.72-17.18,44.36-33.21,66-50.54,16.87-13.55,36.21-22.57,55.06-32.55,3.91-2.07,8.85-2.47,13.4-3s9.09-.11,14.47-.11l2.17-20.82c-4.55.62-8.42.25-11.39,1.71-7.74,3.8-16.57,4.18-23.89,10-6.38,5.1-15.15,7.13-22.7,10.83-17.79,8.73-35.43,17.77-53.27,26.39-3.88,1.87-8.36,2.5-14.07,4.13,11.57-16.07,8.32-39-5.5-48.19ZM884.69,713.36,882.75,712c-2.71,3.52-5.51,7-8.12,10.57-4,5.54-6.67,12.32-14.16,14.54-1.07.32-1.74,1.82-2.73,2.6-2.46,1.93-5,3.8-7.53,5.63-2.39,1.71-4.86,3.31-7.27,5-5.85,4.08-10.35,9.71-18.16,11.47-6.91,1.56-7.15,8.1-1,12.54,5.49,4,10.71,8.2,16.93,11.3,14.15,7,27.85,15,41.77,22.54.41.22,1.19-.24,2.21-.47ZM806,357.35a30.66,30.66,0,0,0,4.5,18c8.61,14.8,23.06,22,36.78,30.34,9.26,5.63,18.56,11.23,27.47,17.38,3.54,2.45,6.07,6.36,9.67,10.27V360.08c-2.22,1.75-3.46,2.72-4.67,3.7-11.27,9.15-24,9.55-36.2,1.63-8.14-5.26-17.6-7.1-27-8.74C813.51,356.14,810.15,357,806,357.35Zm78.59-155.14c-12.14-3.07-38.1-5.52-48.8-3.15-5.91,1.31-11.6,4.82-16.64,8.39-3,2.13-3.48,6.5-.71,9.85a30.39,30.39,0,0,0,6.52,6.07c10.22,6.73,20.72,13.05,30.87,19.89a186,186,0,0,1,15.56,12.22c4.34,3.65,8.4,7.63,13.21,12Zm-52.5,363.29c2.34,7,2.71,13.47,6.09,17.26,14.57,16.33,30,31.88,45.35,47.91,2.51-10.48,2.1-85.54-.48-91.88C869.6,553.26,851,558.35,832.11,565.49ZM51,1.21H.36C0,14.31-.1,26.66.43,40.43Zm583.4,775c-1.56-5.52-2.43-9.74-4-13.71-1.65-4.3-5.41-5.69-9.73-5-4.06.63-7.58,2.26-9,6.69-2.33,7.27,3.66,19.77,10.93,22.16,1.32.43,3.67.09,4.52-.84C629.91,782.48,632.21,779,634.37,776.2ZM27.29,884.67l.58-2.31c-10.58-5.12-16.54-16-27.22-22.5v25.22c7.06,0,13.61,0,20.17,0C23,885,25.13,884.8,27.29,884.67ZM520.94,763.26c1.43,2.91,2.29,5.49,3.8,7.59,3.52,4.89,8,5.15,13.85,1.19,6.08-4.13,8.25-9.51,5.42-14.14-1.76-2.88-3.89-4.57-8.08-4.06C529.43,754.63,525.06,757.95,520.94,763.26Z"/><path class="cls-1" d="M448.63.47C444.17,7,440.53,12.3,437,17.64c-4.86,7.33-3.08,14.76-1.14,22.68,2.68,10.92,5.49,21.67,12.81,30.44C460.11,84.46,474.52,91.94,493,90.4c3.64,3.93,3.9,7.5.53,12.26-5.11,7.21-8.82,15.41-13.95,22.6-4.51,6.32-10.17,11.82-15.27,17.73-1.3,1.51-2.82,3-3.5,4.84-2.75,7.34-7.6,13.34-12.19,19.45-12.12,16.17-20.13,34.71-30.36,52-15.09,25.44-29.8,51.12-44.64,76.71-2.08,3.58-4,7.27-5.6,10.27-7.51-3.54-14-8.33-21.13-9.55-9.93-1.7-20.38-1.53-30.48-.68a112.2,112.2,0,0,0-27.82,5.62c-17.87,6.33-34.46,15.13-45.22,31.79-11.63,18-14.53,37.84-9,58.12,2.42,8.89,8.62,16.91,13.92,24.77,1.74,2.59,6.21,3.2,9.13,5.16,7.49,5,7.53,7.07,1.47,14-10.21,11.65-21,22.93-30.23,35.3-10,13.4-18.71,27.82-27.83,41.89-4.46,6.88-8.61,14-12.86,21a108.55,108.55,0,0,0-13,32.46c-3.86,17-7.8,34.11-10.39,51.36-1.46,9.72-.71,19.86-.19,29.77a235.14,235.14,0,0,0,3.13,25.63,132.23,132.23,0,0,0,13,40.28c5.13,9.81,10.84,19,19.06,26.45,6.76,6.16,13,12.71,22.74,14.69,5.06,1,9.48,5,14.53,6.32,6,1.58,12.52,3.08,18.49,2.27a204.44,204.44,0,0,0,35.51-7.69c11.81-3.84,23.17-9.26,34.34-14.78C337.8,734.12,350,727,362.45,720.22c5.23-2.87,10.65-5.51,15.5-8.94,14-9.9,28.1-19.74,41.53-30.41,8.42-6.69,15.67-14.87,23.51-22.3,3.09-2.93,6.53-5.51,9.56-8.5,10.08-10,19.65-20.19,27.82-32,9.43-13.64,21-25.79,31.77-38.52,4.68-5.55,9.61-10.89,14.29-16.44s8.62-12.46,14.31-16.94c4.93-3.88,4.64-10.12,8.87-13.7,1.82-1.54,4.72-3.74,6.3-3.2,3.78,1.29,2.66,5.09,1.26,7.6-4.32,7.75-9,15.31-13.64,22.86q-9.85,15.95-19.91,31.76a55.15,55.15,0,0,1-5.3,7.17c-7,7.85-13.76,15.95-21.3,23.24-6.62,6.4-12.07,13.66-17.82,20.74-3.61,4.44-3.69,4.37-12.92,6-1.85,3.85,1.46,6.07,3,8.74,7.66,13.17,16.22,25.89,22.88,39.54,3.69,7.55,4.54,16.56,6.14,25,.62,3.25,1.42,6.5,4.62,6.71,2.56.17,6.48-1.18,7.72-3.16,6.1-9.74,17-12.13,25.87-17.43,4.23-2.53,10.18-2.15,15.31-3.09,2.63,8,2.31,9-4.88,10-10,1.32-19.71,3-26.78,11.21-14.62,4.32-19.47,19.07-29.76,28-1.35,1.18-1.83,3.49-2.44,5.37-3.06,9.38-6,18.79-9.05,28.18a9.39,9.39,0,0,1-1.31,2.68c-11.39,15.36-22.47,31-36.54,44.09-8.94,8.31-19.07,15.33-28.05,23.6-4.47,4.12-7.88,9.54-11.16,14.76-2.2,3.5-3.33,7.68-5.07,11.86H232.65a69.31,69.31,0,0,1-3.61-6.89c-7.11-18.09-20.8-29.73-36.84-39.8-10.32-6.48-19.21-15.22-28.92-22.7-11-8.51-22.06-17.1-33.53-25-11.63-8-21.12-17.83-27.14-30.53-5.9-12.44-14.65-23.45-18.43-36.92-4.13-14.69-8-29.45-12.23-44.12-6.62-23-11.35-46.7-24.87-67.09-9.55-14.41-22.24-24.3-40.05-26.3a59.7,59.7,0,0,1-6.92-1.76c0-9.63,0-19.2,0-28.76,0-13.89,0-13.89,12.31-19.51a31.29,31.29,0,0,1,5.5-2.3c13.93-3.32,23.22-12.84,30.14-24.33,4.15-6.89,6.7-15.08,8.38-23,2-9.27,2.44-18.88,3.12-28.38a139.79,139.79,0,0,0,.13-19.72c-.71-10.1-2.44-20.13-3-30.24-.95-15.68-2.07-31.4-1.71-47.08a51.16,51.16,0,0,1,14.92-34.69c4.16-4.23,12.1-7.4,19.21-5.15,6.9,2.19,10.67,7.61,10.86,15.15.5,19.19,1.58,38.38,1.37,57.55-.15,13.57.76,26.52,8.61,38.08,6.59,9.7,16,14.66,27.49,15.69,7.09.64,17.31-6.93,20.9-14.47,6.2-13,13.45-25.63,18.69-39a160.57,160.57,0,0,0,9.47-35.21c2.58-17.88,3.71-36,4.68-54.06.4-7.52-.71-15.22-2-22.7a184.45,184.45,0,0,1-2.65-31.58c0-8.39-2.83-16.78-2.95-25.19-.13-9-2.7-18.1,1.61-27.06A31.1,31.1,0,0,0,187.71,184c-.22-12.62,6.32-23,14.09-30.7,9-8.85,20.78-16.31,35.31-12.82,16.31,3.93,28.93,12.67,35.73,28.42a72.33,72.33,0,0,1,5,16.15,121.06,121.06,0,0,0,11.15,32.81c5.11,10.41,13.82,15.81,24.86,17,12.78,1.39,22.54-3.53,30.05-14.6,9.08-13.38,14.42-28.33,19.8-43.17,4.18-11.53,3.84-24,1.07-36.14-3-13.24-6.6-26.39-8.75-39.77-3.18-19.74.57-38.86,8.19-57.14,3.68-8.82,7.33-18,12.86-25.63C384.46,8.13,392.76-1.46,408.36.18,421.49,1.57,434.87.47,448.63.47Z"/><path class="cls-1" d="M845.22,884.53H705.91c-.16-23.17-9.5-43.46-16.31-64.47-6.67-20.57-11.86-41.63-9.71-63.46,1.06-10.76,4-21.41,6.73-31.92,1.89-7.17.62-9.45-6.62-11.94a115.16,115.16,0,0,0-32.07-6.46c-4.22-.21-8.49.06-12.66-.49-5.89-.77-5.86-1-7.27-9.49,7.73-1,15.39-2.15,23.1-2.77,3.46-.28,7.14.26,9,4.15.26.55,1,1.46,1.19,1.39,10.44-3.46,17.93,5.56,27.33,6.38a4.08,4.08,0,0,0,1.65-.56c4.62-13,10.11-25.61,13.46-38.78,2.42-9.52,6.43-18.44,8.63-28a211.08,211.08,0,0,0,4-21.19c.79-6.34,4.21-12.31,5.8-18.61a171.25,171.25,0,0,0,4.18-22.06c.82-7.11.08-14.4,1-21.49,2.14-16.6,3.43-33.17,2.52-49.93-.28-5.16,1.53-10.4,1.74-15.63.31-7.6-.64-14.94-4.53-21.89-2-3.61-2.28-8.18-3.47-12.27-2.27-7.81-4.64-15.58-7-23.37-.48-1.59-.52-3.51-1.47-4.74-9-11.78-14.34-25.88-24.6-37a186.48,186.48,0,0,0-50.43-39.28c-7.52-4-14.6-8.79-21.91-13.19-1.4-.84-2.85-2-4.38-2.18-11-1.47-22-2.73-34.66-4.25-.06-1-1.29-5.09-.19-5.87,8.25-5.81,10.11-15.62,15.41-23.2,7.92-11.34,16.19-22.49,23.24-34.36,11.17-18.79,23.86-36.87,27.92-59.22,1.8-9.91,6-19.36,8.6-29.16,2.75-10.36,5.38-20.81,7.18-31.37,2.43-14.22,4.66-28.54,5.79-42.9,1-12.1,1.64-24.53-.11-36.44-2.49-17-7.49-33.6-18.38-47.47-3.83-4.88-9-8.77-13.68-12.89a96.84,96.84,0,0,0-8.2-5.81C634.38,0,829.13-.41,841.08,1.89c-14,7.06-14.56,20.16-16,32.37-2.81,23.44,2.41,45,17.55,63.59,10.85,13.31,13.76,27.52,7,43.73-4.73,11.26-13.89,18-26.07,17.61-11.52-.36-22.88-.27-34.44,1.41-8.63,1.26-17.4,2-26.13,3.13a43.56,43.56,0,0,0-31.42,20c-6.59,10.16-6.56,23.22-1.52,35.31,4.48,10.73,12,17.53,23.3,20.9,13.59,4,27.06,8.62,40.29,13.74,13.88,5.37,25.78,13.77,32.28,27.71a35.39,35.39,0,0,1,3.15,15.3c-.21,8.83-6.48,14.37-15.2,14.58a48.84,48.84,0,0,1-34.51-12.57c-15.54-13.72-30.16-12.45-46.48-2.46-6.63,4.06-12.36,9.9-15,18.09-2.27,7.15-3,13.84-1.08,21.39,3.9,15.46,13.6,27.06,24,38.1,11.77,12.53,24.51,24.13,36.57,36.39,8.82,9,17.55,18.05,25.72,27.61,10.91,12.76,21.73,25.67,31.58,39.25,4.13,5.7,6.42,13.09,8.22,20.06,2.67,10.34,1,15.23-7.51,31.33-7.19,1.82-14.35.36-20.84-3-15-7.66-29.71.15-39.23,9.37-6.16,6-5.36,15.25-5.1,23.55.52,16.14,7.53,30.06,16.05,43.09,9.93,15.18,20.74,29.78,31.25,44.57a159.61,159.61,0,0,1,24.72,52.73,8.94,8.94,0,0,1-1.52,7.1c-5,5.63-10,11.81-16.22,15.73-6,3.73-12.86.87-18.52-3.15a93.34,93.34,0,0,0-22.41-12c-10.86-4-19.43-.07-26.9,4.94C743.08,720.57,736.74,734.22,739,751a151.1,151.1,0,0,0,2.5,15.65c2.87,11.76,13.28,17.11,21.74,23.74,6.15,4.82,13.67,7.9,20.56,11.77,21.81,12.24,40.86,27.48,51.19,51C839.32,863,841.76,873.73,845.22,884.53Z"/><path class="cls-1" d="M.59,291.91c-.16-3.19-.46-6.38-.46-9.57,0-50.65.06-101.3-.13-152,0-6,.73-11.17,6.1-14.72a4.41,4.41,0,0,0,1.4-1.42c11-19.43,29.33-31.51,45.68-45.53C67.85,56.14,85.09,47.56,102,38.46,115.11,31.36,128.1,24,141.18,16.79c9-5,18-9.91,27.11-14.64A15,15,0,0,1,175,.57q52-.08,104,.08a11.94,11.94,0,0,1,2.52.72,34.86,34.86,0,0,1-2,5.19c-7.28,12.37-6.56,23.45,3.15,34.55a110,110,0,0,1,23.83,45.37c1.74,6.69,2.16,13.74,3,20.65.55,4.25-1.37,7.05-5.55,8.18-5.13,1.39-10.21,3.43-15.43,3.91a15.54,15.54,0,0,1-14.74-6.9c-4.57-6.87-8.72-14-12.7-21.26-2.72-4.93-4.56-10.34-7.28-15.26-9.68-17.48-24.36-24.27-44.46-23.16C189.44,53.74,173.18,62,158.81,74.1,144,86.54,136.36,103.38,135.11,123c-.8,12.56-2.25,25.08-3.37,37.62a90.86,90.86,0,0,0-.78,11.94c.59,13.41-.32,26.81-4.05,39.57-2.85,9.74-7.7,19-12.63,28-3.16,5.74-15.87,7.06-23.71,3.6-6.82-3-11.44-7.69-12.6-15.45a130.5,130.5,0,0,0-3.19-14.61c-1.83-6.79-6.17-11.39-12.38-14.87S50,195.71,43.54,202.11C34.61,211,25.61,220,18,230c-7.52,9.78-12.63,21-12.25,34,.27,9.5,1.16,19.2-3,28.22Z"/><path class="cls-1" d="M88.64,884.4c-6.25-6.9-12.56-14-19-21-14-15-23.24-32.45-30-51.94-8.35-24.14-17.37-48.61-32.27-69.37C-3.32,727.27,1.84,712.8.17,696.88A45.72,45.72,0,0,1,20,708.47c15.26,14.9,28.57,31,36.49,51.51,5.41,14,14.19,26.75,21.81,39.86A242.86,242.86,0,0,0,93.4,823.16a185.12,185.12,0,0,0,17.53,20.21c9.8,9.77,20.08,19.06,30.29,28.41,4.3,3.94,8.91,7.52,15,12.62Z"/><path class="cls-1" d="M386.4,357.1l12.44-14c13.82,9.15,17.07,32.12,5.5,48.19,5.71-1.63,10.19-2.26,14.07-4.13,17.84-8.62,35.48-17.66,53.27-26.39,7.55-3.71,16.33-5.74,22.7-10.83,7.31-5.84,16.15-6.23,23.89-10,3-1.46,6.84-1.1,11.39-1.71L527.48,359c-5.38,0-10-.38-14.47.11s-9.49.89-13.4,3c-18.84,10-38.18,19-55.06,32.55-21.59,17.33-44.24,33.36-66,50.54-10.82,8.56-22.52,17.07-30.37,28.07-9.73,13.62-22.89,24-32.14,37.63-8.68,12.78-15.92,26.6-23.13,40.31-7.6,14.44-14.92,29.07-21.4,44-4,9.31-6.25,19.39-9.71,30.47L250,618.49a56.18,56.18,0,0,1,9.69-30.17c2.81-4.3,3.88-9.73,5.85-14.59,1.33-3.28,2.89-6.46,4.29-9.72,3.1-7.23,5.53-14.85,9.38-21.66,7.69-13.61,16.54-26.57,24.16-40.21,6.64-11.88,15.66-21.62,25.3-30.84,6.14-5.88,13.23-10.77,19.82-16.2a35.34,35.34,0,0,0,4.76-4.81c4.4-5.34,8.83-10.66,12.95-16.21,1.65-2.23,2.55-5,3.75-7.57,1.12-2.38,1.63-5.32,3.36-7.09,9.34-9.59,12-22.34,16.67-34.15C393.79,375.59,391.75,366.33,386.4,357.1Z"/><path class="cls-1" d="M884.69,713.36v94.38c-1,.24-1.79.69-2.21.47-13.92-7.53-27.61-15.49-41.77-22.54-6.22-3.1-11.44-7.34-16.93-11.3-6.15-4.44-5.91-11,1-12.54,7.81-1.76,12.3-7.39,18.16-11.47,2.41-1.68,4.88-3.28,7.27-5,2.55-1.82,5.06-3.69,7.53-5.63,1-.78,1.66-2.28,2.73-2.6,7.5-2.22,10.15-9,14.16-14.54,2.6-3.6,5.4-7.05,8.12-10.57Z"/><path class="cls-1" d="M806,357.35c4.12-.31,7.48-1.21,10.59-.67,9.36,1.64,18.82,3.48,27,8.74,12.24,7.91,24.93,7.52,36.2-1.63,1.22-1,2.46-1.95,4.67-3.7V433.3c-3.59-3.9-6.12-7.82-9.67-10.27-8.91-6.16-18.21-11.75-27.47-17.38-13.72-8.34-28.18-15.53-36.78-30.34A30.66,30.66,0,0,1,806,357.35Z"/><path class="cls-1" d="M884.62,202.21v65.3c-4.8-4.4-8.87-8.38-13.21-12a186,186,0,0,0-15.56-12.22c-10.15-6.84-20.64-13.16-30.87-19.89a30.39,30.39,0,0,1-6.52-6.07c-2.77-3.35-2.3-7.73.71-9.85,5-3.57,10.73-7.08,16.64-8.39C846.52,196.69,872.48,199.13,884.62,202.21Z"/><path class="cls-1" d="M832.11,565.49c18.91-7.14,37.49-12.23,51-26.71,2.58,6.34,3,81.41.48,91.88-15.33-16-30.78-31.58-45.35-47.91C834.82,579,834.45,572.48,832.11,565.49Z"/><path class="cls-1" d="M51,1.21.43,40.43C-.1,26.66,0,14.31.36,1.21Z"/><path class="cls-1" d="M634.37,776.2c-2.16,2.85-4.46,6.28-7.24,9.28-.86.93-3.2,1.27-4.52.84-7.27-2.38-13.26-14.89-10.93-22.16,1.42-4.43,4.94-6.06,9-6.69,4.32-.67,8.08.73,9.73,5C631.94,766.46,632.81,770.68,634.37,776.2Z"/><path class="cls-1" d="M27.29,884.67c-2.16.13-4.31.36-6.47.38-6.56.05-13.11,0-20.17,0V859.85c10.67,6.46,16.63,17.38,27.22,22.5Z"/><path class="cls-1" d="M520.94,763.26c4.12-5.31,8.49-8.63,15-9.42,4.19-.51,6.32,1.19,8.08,4.06,2.83,4.63.65,10-5.42,14.14-5.83,4-10.33,3.7-13.85-1.19C523.23,768.75,522.37,766.17,520.94,763.26Z"/></g></g></svg>