<svg xmlns="http://www.w3.org/2000/svg" viewBox="0 0 906.16 907.02"><defs><style>.cls-1{fill:#ce242b;}</style></defs><title>1_2</title><g id="Layer_2" data-name="Layer 2"><g id="Layer_1-2" data-name="Layer 1"><path class="cls-1" d="M0,907V.74C3.43.55,6.62.24,9.8.23q70-.16,140-.23Q520.55.07,891.33.21h12.72c2.19,7.45,3,891.33.83,906.81ZM645.27,438.21c-13.65-2.26-25.27-7.75-32.38-21-2.94-5.48-8.19-9.15-14.45-11.59a161,161,0,0,1-22.9-11.45c-8.53-5-16.64-10.77-24.9-16.27-13.19-8.78-27-16.78-36.11-30.48-2.35-3.53-6.24-6-8.88-9.37-3.19-4.1-7.21-8.3-8.39-13.07A112.63,112.63,0,0,0,481,289c-6.55-9.79-14.09-18.45-23.76-25.06-11.17-7.64-22.4-15.27-34.07-22.12-14.72-8.64-23.25-21.34-26.44-37.7-2.91-15-5.41-30-7.62-45.07-2.17-14.77-3.11-29.75-5.79-44.42-2.62-14.34-6.26-28.58-16.05-40.23-9.53-11.35-18-23.8-28.71-33.89C328.51,31,318.36,20.31,303.33,17.87c-1.86-.3-4.41-1.1-5.19-2.48-2.76-4.92-7.19-4-11.41-4q-133,0-266,0c-3.25,0-6.49.29-10.18.46v131.9A136.77,136.77,0,0,1,56.09,112.4c20.45-8.59,42.48-10.18,64.55-6.53,9.78,1.62,19.4,4.26,29.19,5.84,21,3.4,40,11.54,57.44,23.45,12.57,8.57,24.92,17.47,37.68,25.75,7.72,5,15.94,9.3,24.12,13.54C279.8,180,291,183.57,303.4,182c13.95-1.77,27.29-4.89,38.84-13.57a24.78,24.78,0,0,1,9-4.11c4.22-1,7.87,3.76,6,7.62-.79,1.61-2.63,2.85-4.24,3.89-5.85,3.78-12,7.09-17.67,11.16-10.44,7.54-13.44,20.12-19.53,30.55a52.7,52.7,0,0,0-6.26,17.76c-2.92,17.9-3.63,36.14-10.19,53.43-1.83,4.81-3.82,9-7.46,12.6C281,312.08,270.4,323,259.72,333.93c-1.62,1.65-3.09,3.46-4.89,5.5,2,2.78,4,5.4,5.85,8.13,7.38,11,15.41,21.6,21.89,33.09,8.26,14.65,15.7,29.81,22.68,45.13,8.59,18.85,19.71,35.77,34.65,50.12a18.5,18.5,0,0,0,4.06,2.5c4,2.21,8.32,4.07,12.14,6.61,11.07,7.37,22.25,14.45,35.17,18.26,10.15,3,20.37,5.4,31.31,4.09.56,2.15,1.07,3.7,1.33,5.3.09.52-.46,1.14-1.15,2.71-2.67.28-5.9.48-9.08,1-2.19.36-4.68.61-6.39,1.83-14.31,10.18-29.11,19.8-42.5,31.09-14.83,12.51-31.17,22.65-47.79,32.15-11.1,6.34-23.66,11.77-36.16,13.63-20.58,3.05-41.5,5.45-62.51,3.73-4.64-.38-9.33-1-14-.71-12.15.74-23.35-3.51-34.73-6.43-6.56-1.68-12.46-6.25-19-7.5A66.28,66.28,0,0,1,126.08,574c-15.17-10-31.84-17.76-44.73-31.06-8.77-9-17.7-17.92-26.63-26.82-14.24-14.2-27-29.63-39.48-45.4-1-1.33-2.77-2.13-4.6-3.49C8.36,490.31,9.38,687.33,11.9,694.85c2.1-.8,4.2-1.55,6.27-2.38,4.28-1.71,8.41-4,12.84-5.1,16.79-4,34-6.59,50.43-11.8,15.15-4.81,29.44-2.39,44.3-.23,24.34,3.54,47,14.67,71.9,15.41a3.3,3.3,0,0,1,1,.2c11.88,4.17,24.16,6.22,36.59,8.16a487.61,487.61,0,0,0,64.35,5.4c7.52.17,14.91.82,22.24,4.93-2.78,3.35-4.56,6.08-9,6.28-26.27,1.15-46.75,13.4-62.83,33.64-3.71,4.68-6.86,9.8-10.35,14.65-12.54,17.4-22.29,36.13-27.61,57-3.36,13.22-7,26.38-10.16,39.64-2.34,9.66-6.45,18.14-14.21,24.62-3.19,2.66-5.34,5.82-4.1,10.45h63.55c8.24-9.59,14.36-19,22.65-25.72,8.85-7.18,12.53-14.63,10.33-25.69a13.53,13.53,0,0,1,2.07-9.28c4.5-6.58,11-10.94,19.18-10.95A88.12,88.12,0,0,1,321,826.37c21.38,4.93,41,.9,58.68-11.56,15-10.61,30.39-10.15,46-2.8,6.83,3.21,12.68,8.46,19.24,12.31,8,4.71,11.18,12,12,20.68a55.1,55.1,0,0,1-.07,10c-.55,6.1,1.2,10.91,6.19,14.84,5.67,4.47,9.4,10.16,9.12,17.94-.1,2.76,1,5.55,1.4,7.71h25.08c-1-7.88-2.74-15.07-2.67-22.24.19-18.17-6.33-33.43-17.35-47.51-4.15-5.31-6.46-12.1-9.37-18.33-3.44-7.35.54-14.23,1.69-21.29,2.2-13.39,1.77-25.6-10.7-34.89-8.49-6.32-16.18-13.83-23.66-21.38-8.36-8.45-8.25-12.72-1.38-22.57,8.34-12,16.82-23.84,24.81-36,13.64-20.8,32.87-29.9,57.46-28.84,10.63.46,21.32.75,31.94.17,5.48-.3,11-2.22,16.19-4.29,4.57-1.84,8.67-4.88,12.95-7.43,12.08-7.19,24.6-9.48,37.87-3.47,11.81,5.34,23.21,3.68,34.62-1.54,3.81-1.74,8.07-2.62,12.21-3.51,14.61-3.15,18.52-5.72,18.77-22.89,0-2.66-.71-5.41-.22-8,1-5.11,1.16-11.28,4.17-14.94,8.76-10.65,17.83-21.45,28.57-29.94,8.83-7,19.81-11.84,30.54-15.7,21.41-7.7,37.3-22.14,51.64-38.85a14.94,14.94,0,0,0,1.79-17.73c-4.62-8-10.38-15.33-16-22.67-3.16-4.1-7.64-6.08-13.07-6.19s-11.34-.14-16.66-1.56c-10.7-2.86-21-.07-31.5.82a14.32,14.32,0,0,0-7.32,2.87c-4.63,3.7-8.81,8-13.22,11.95-2.94,2.66-5.65,6.88-9,7.49-5.05.92-7.19,4.31-10.16,7.27-2.58,2.57-5,5.45-7.9,7.53-9.16,6.48-18.63,12.51-27.82,19-11.34,7.94-23.71,12.89-37.61,13.47-6.62.27-13.29-.29-19.9.11-8.1.48-13.82-3.4-19.33-8.66-7.42-7.08-14.79-14.35-23-20.43-8.51-6.3-17.69-11.33-29.4-9.73-8.48,1.15-17.25.61-25.87.26-6.09-.24-13.77-2.44-14.61-8-1-6.84-5.39-12-6.31-18.42-1.22-8.54-2.45-17.09-3.12-25.68-.49-6.32-2.55-11.47-7.38-15.68Q448.49,398.6,438,388.8c-6.41-6-13-11.22-22.45-11.22-2.18,0-4.37-1.22-6.53-2-13.35-4.55-26.67-9.2-40-13.66-4.65-1.55-6.2-3.8-3.89-8.12,1.27-2.39,3.68-5,6.12-5.76,5.64-1.67,11.29-2.28,17.39.17,12.17,4.9,24.69,7,37.58,1.56,11.47-4.86,23.58-4.74,35.26-1.33,7.51,2.19,15.94,4.91,21.19,10.15,5.53,5.52,8.37,14.11,11.25,21.78,2.75,7.34,4,15.23,6,22.88,2.6,10.31,11.8,19.07,21.4,18.89a94.47,94.47,0,0,1,35,5.75c11.15,4.1,20.55,9.14,22.82,22.12.61,3.52,1.91,6.92,2.78,10.4,1.73,6.95,6.83,11.37,12.44,14.71,2.24,1.33,6.83.73,9.3-.75A111.27,111.27,0,0,0,620.31,462C628.85,454.34,636.94,446.19,645.27,438.21ZM500.16,12.07c3.28,12.1,5.82,23.31,9.43,34.17,2.38,7.16,5,15,9.8,20.44C531.52,80.26,543.79,93.9,559,104.41c8.21,5.68,16.36,11.49,24.14,17.74,15.18,12.18,28.79,25.65,35.31,44.8,1.59,4.67,3.63,9.71,6.91,13.2,11.08,11.77,14.11,25.72,13.64,41.23-.29,9.59,1.41,19.3.48,28.79-.89,9.12-3.38,18.25-6.33,27-4.13,12.2-.6,22,7,31.41,2.74,3.41,5.8,4.63,9.51,3.64,14.06-3.76,28-7.87,42.07-11.75,3.72-1,5-3.22,5.65-7.07a47.66,47.66,0,0,1,4.73-13.94,87.16,87.16,0,0,1,21-26.24c5.46-4.66,8.52-10.63,10.2-17.76,2.5-10.57,2.26-21,1.36-31.68-2-23.79.82-47.73-3.4-71.59-2.07-11.67-4.5-23.25-10.39-33-12.3-20.3-9.41-40.75-3-61.25,2.64-8.5,2.71-16.7,3.32-25.89Zm48,883.6H713.21c0-7.4-1-14.46.21-21.13,2.12-11.93-2.61-21.5-9.38-30-7.64-9.63-12.73-19.35-8.11-31.74,2.42-6.49.82-12.11-1.88-18.16-2.8-6.27-5.47-13-6.15-19.73-1.32-13-6.45-24.29-12.72-35.31-4.28-7.53-9.93-12.12-19.43-9.53-3.08.84-6.57.13-9.87.25-11,.39-19.44,4-24.53,15-3.9,8.43-3.87,16.78-3,25.31,1.31,12.77-3.55,22.61-13,30.51-5.3,4.41-11.83,7.62-16.28,12.71-9.3,10.64-16.38,22.65-13.37,37.82,1,4.9-.84,7.5-5.12,8.72-3.4-6.27-6.67-12.2-9.85-18.19a15.72,15.72,0,0,1-1.27-3.76c-3.52-14.92-4.35-29.5,3.93-43.46a71.33,71.33,0,0,0,6.77-15.52c3.38-11.12,6-22.17,1.17-33.94-2.58-6.3-3-13.55-4-20.43-.77-5.69,3.3-9.32,7.07-12.51,5.32-4.49,11.09-8.46,16.71-12.59a11.79,11.79,0,0,1,3.51-1.73c9.44-2.84,18.91-5.59,28.37-8.39,12.07-3.58,24.14-7.15,37-5.61,3.47.42,6.94.75,10,1.09l4.53-25.37c-4.79,1.15-9.69,3.74-14.06,3-6.16-1-10.94,1.53-16.23,3.05s-10.7,3.83-16.18,4.37c-9.45.92-19.09.1-28.52,1.17-13.14,1.49-26.15,4.12-39.23,6.14-9.87,1.52-15.07,6.84-16.78,16.79A55.5,55.5,0,0,1,540,706.86c-3.48,8.15-7.46,16.09-11.3,24.25,1.26,2.57,2,5.83,4,7.79,7.27,7.14,7.28,16,6.47,25-.94,10.38-4.72,19.94-9.88,28.94-3.38,5.91-5.54,11.95-3.63,18.93.77,2.82.84,5.84,1.24,8.77,1.62,11.81,2.92,23.68,5,35.41C534.33,870.06,541,882.61,548.12,895.67ZM315.29,533.37c-4.78-1.31-9.27-1.16-11.27-3.32a284.17,284.17,0,0,1-22-26.49c-13.59-18.81-27.78-37.25-36.73-59-5.53-13.45-11.9-26.56-18.27-39.64-7.5-15.4-18.58-28.1-30.63-40.15a111.66,111.66,0,0,0-43.3-26.94c-15-5.16-29.94-10.57-45.2-14.84-13.69-3.83-27.88-3.87-43.45-2.58,2.5,2.7,3.95,4.38,5.52,5.94,5.79,5.75,11.92,11.19,17.36,17.25,7.9,8.79,15.2,18.12,23,27,2.59,3,6.65,4.78,8.74,8,7.72,11.83,14.89,24,22.28,36.06,2.58,4.2,5.17,8.39,7.82,12.55,4.79,7.5,10.37,14.61,14.21,22.57,3.19,6.61,7,11.84,13.63,14.93,9.26,4.34,18.49,8.75,27.87,12.79,5.44,2.34,10.17,4.8,9.71,12.93-2.73.27-5.35,1.21-7.56.61-7-1.9-13.94-4.17-20.76-6.67-10.56-3.87-21.42-7.25-31.4-12.32s-19.13-11.78-28.42-18.11c-5.73-3.9-11.52-7.94-16.4-12.81-8.21-8.19-15.81-17-23.51-25.7-10.31-11.63-19.35-24.47-32.95-32.86a152.51,152.51,0,0,1-16-11.63c-8-6.54-17.44-10-27.69-14.76,0,6.66.63,11.74-.14,16.59-1.37,8.59,3.4,14.67,9.09,18.6,12.69,8.77,22.18,20.58,32.9,31.23C56.18,427,61,431,65.21,435.61c5.09,5.67,9.2,12.27,14.56,17.63,9.81,9.82,21,18.37,30.2,28.68,10.1,11.28,22.66,19,34.9,27.14,19.38,12.89,41.72,19,64.15,23.5,20.47,4.15,41.39,6.09,62.13,8.89a38.07,38.07,0,0,0,9.91.37c10.44-1.37,20.84-3.06,31.22-4.83C313.15,536.85,313.78,535.24,315.29,533.37ZM440.71,17.18c-7.71-4.6-15.2-3.38-22.6-3.25-7.83.14-15.67,0-24.16,0,1.54,6.56,5.88,10,11.81,11.94,12.52,4.09,19.78,13.8,25.54,24.69,3.86,7.3,6.79,15.12,9.8,22.83,2.49,6.39,4.41,13,6.72,19.48s4.53,13.09,7.32,19.41c4.75,10.75,14.86,17,24.39,21.05,8.34,3.53,14.56,8.58,21,13.92l9.22-2.11c2.43,3.63,3.84,7.38,6.54,9.39,4.43,3.3,9.43,6.4,14.67,8,12.52,3.7,21.76,11.48,31.29,20C576,194.88,580.51,220,575.45,234.47c-2.5,7.16-5,14.32-7.34,21.53-1.23,3.77-1.66,7.88-3.31,11.43a114.32,114.32,0,0,0-9.1,31.89c-2.56,17.24,1.76,32.28,11.22,46.12a24.87,24.87,0,0,0,10.66,8.28c7.23,3,15.13,4.27,22.44,7.09a264.07,264.07,0,0,1,24.23,11.12c3.17,1.61,5.45,5.05,8.66,6.47,10.58,4.67,21.35,8.93,32.17,13,4.3,1.63,9.36,1.61,13.29,3.77,18.69,10.29,38.24,9.36,56.79,2a100.05,100.05,0,0,1,63.32-4c5.9,1.5,12.13,4.34,16.57,8.36,6.81,6.16,12.43,13.71,18.09,21,2.58,3.34,4.33,7.42,6,11.37,1.87,4.55,3.28,9.29,4.72,14,1.22,4,2.39,8,3.23,12.08,1,4.61,3,6.3,7.57,5.23,2.9-.68,5.67-1.89,8.54-2.73,10.33-3,20.67-6,31.42-9.18V442.75a103,103,0,0,0-10.07-2.16c-13.83-1.55-22.6-9.23-28.93-21.38s-13.8-23.45-21-35c-8-12.72-19.78-16.68-34.57-17-13.08-.3-26.64.52-39.3-4.81-3-1.26-6.63-2.48-9.62-1.91-12.91,2.46-26.19,3.11-38.21,9.9-7.46,4.21-16.09,5.09-25.07,3.72-11.7-1.79-22-6.92-32.42-11.71C650,359.94,644,357.82,639.74,354c-8.79-7.91-16.61-16.9-24.88-25.4a75.09,75.09,0,0,0-7.88-7.49c-19.45-14.88-19.63-44.64-6.41-59.59,8.12-9.18,8-17.8,2.19-28.14-5.3-9.46-10.57-19.46-12.95-29.89a98.41,98.41,0,0,0-15.76-35.07c-4.83-6.89-10.21-13-19.64-15.5-7.28-1.92-14.49-7.07-19.88-12.6-11.33-11.62-24.43-20.37-38.72-27.48-15.36-7.64-28.25-17.44-34.71-34.05A39.81,39.81,0,0,0,456.43,70c-4.77-6.63-6.56-14.16-8.14-22C446.16,37.38,443.16,26.95,440.71,17.18ZM10,833.32l2.13,1.35c3.08-2.38,6.28-4.62,9.21-7.17,11.5-10,22.73-20.39,34.4-30.23,24.49-20.63,53.41-33.18,82.91-44.52A104,104,0,0,1,155,748.39c1.92-.39,4.11.54,6.22.88-.69,5.67-3.12,9-7.8,10.18-13.84,3.47-24.79,12.4-36.74,19.37a50.8,50.8,0,0,0-12.91,10.5c-7.86,9.18-15.24,18.8-22.36,28.57a132.75,132.75,0,0,0-11.14,18.38c-2.93,5.82-4.63,12.24-7.33,18.19-6,13.22-12,26.35-7.65,41.76,12,0,23.65.47,35.26-.18A68.6,68.6,0,0,0,110.9,892c21.37-8.16,37.72-22.44,46.6-43.71a500.89,500.89,0,0,0,18-50.71c6.51-22,11.75-44.35,28.07-63.46-10.38-1.85-19.35-2.73-27.9-5.13-18.87-5.28-38.08-5.2-57.32-4.7a142.39,142.39,0,0,0-26.73,2.86c-24.38,5.36-46.29,16.25-65.89,31.7-8.11,6.39-14.62,14.78-15.43,24.78C9,800.07,10,816.73,10,833.32ZM848.62,12a125.74,125.74,0,0,0-11.2,49.43c-.08,4.58.86,9.16.9,13.75.07,7.21-1.18,14.56-.17,21.61,2.1,14.7,5,29.28,10.85,43.13,2.18,5.12,4,10.81,4.15,16.28.32,14.15.73,28.47-1,42.45-1.72,13.7-1.69,28-8.15,40.83a17.24,17.24,0,0,0-1.59,6.67c-.72,13.63-8.56,24.69-13.46,36.76A35.14,35.14,0,0,0,826.17,293c-1,10.54,2.54,19.66,7.76,28.37a31.75,31.75,0,0,0,23.87,15.53c11.32,1.14,18.08,6.28,24.13,14.9,3.38,4.82,6.21,10.58,12.6,14.23V12Zm-652,291.31c2.81-5.06,4.4-8.75,6.7-11.92A55.41,55.41,0,0,0,213.74,251c-.23-2,0-4-.35-6a15.75,15.75,0,0,1,5.48-15.27c5.59-4.83,11.7-9.07,17.85-13.77-4.6-4.3-10.61-4.93-16.42-5.9-12.65-2.12-22.7-7.58-29.24-19.36-8.35-15-22.86-23.62-38.29-28.12-24.24-7.06-49.41-10.08-74.84-6.53-5.89.82-11.67,2.52-17.58,3.2-16,1.83-28.7,8.6-36.78,23.1a75.77,75.77,0,0,1-9.12,13.07,17.67,17.67,0,0,0-4.62,12.69c.16,12.65,0,25.31.09,38a71.87,71.87,0,0,0,.84,7.26c15.73-9.27,30.53-17.8,45.13-26.65,13.47-8.16,28.85-11,43.35-16.35,8.59-3.15,17.55-2.18,26.33-3.13,18.11-2,35.75-.06,52.09,8.57,2.48,1.31,5.31,4.9,5.25,7.36-.09,3.68-3.63,4.37-7.55,4-4.84-.48-10.11-.67-14.65.77-10.8,3.42-21.41,6.7-31.65,12.64-12.32,7.14-23.56,15.8-37.2,22.95,18.82,5.71,36.79,10.14,54,16.67S179.38,295.37,196.59,303.31ZM795.81,895.76c0-11.53-1.08-22.27.3-32.7,1.44-10.93-3-19.68-7.94-28.05-4.46-7.59-10.64-14.35-16.86-20.68-10.27-10.46-16-22.64-16.64-37.24-.34-7.6-1.11-15.23-.83-22.81.56-15.36-6.83-26.34-18.24-35.38-3.64-2.88-7.34-5.68-11-8.58-10.6-8.49-13-19.24-10-32.69,2.8-12.26,10.24-22.18,14.93-33.44,7.2-17.3,18-33.11,27.41-49.49,5-8.74,12.63-13,22.83-13.46,12.59-.52,25.22-1.16,37.71-2.75,4.93-.63,11.63-2.66,13.85-6.29,5-8.2,12.82-11,20.42-14.76,14.44-7.2,29-14.11,39.18-27.53,3.2-4.23,5.88-16.88,3.45-21.29-.43-.78-1.84-1.93-2-1.8-4.2,2.91-5.37-4.32-8.45-2.94-7.4,7.09-14.15,13.91-21.31,20.28A38.54,38.54,0,0,1,851.85,531c-10,4.09-17.81,11.22-26.33,17.51-12.42,9.15-25.84,15.71-42.45,12.61-12.51-2.33-25.3-2.7-35.37,7.67-5.47,5.62-11,11.23-16.34,16.93-7,7.45-10.45,16.66-12.61,26.46-2.5,11.36-5.19,22.69-7.53,34.09-1,4.85-2.32,10-1.74,14.73.89,7.32-.82,13.78-3.38,20.37a57.88,57.88,0,0,0-3.72,12.4c-1.73,11.91.83,22.83,11,30.15s15.89,16.83,17.39,28.91a50.34,50.34,0,0,0,9,22.87c5.42,7.88,8,16.7,4.41,26.4-4.47,12.23-1.79,23.64,4.78,34.3,6.36,10.32,11.13,21.05,11.54,33.42.28,8.51.94,17,1.45,25.93ZM771.89,11.91c-1.74,10.09-3.6,19.7-5,29.39-.82,5.8-.95,11.71-1.25,17.57-.73,14.15-1.93,28.31,1.48,42.33,1.33,5.49,3.41,11.13,3.14,16.61-.67,13.77,7.38,24.11,12.32,35.72,3,7,7.13,14,7.64,21.27.88,12.45,0,25.16-1.37,37.62a86.63,86.63,0,0,1-18.43,45.32c-7.74,9.64-13.48,19.68-14.58,32.43-1.15,13.46,5.45,22.84,18.56,23.94,2.6.22,5.23,0,9.26,0,0-4.52,0-8.74,0-13-.12-11.9,5-21.69,12.58-30.32,5.36-6.1,9.26-12.46,10.36-20.89,2-15.12,5-30.09,7.56-45.14.87-5.23,2-10.5,2-15.77.18-14.69-3.06-28.92-6.65-43.07-4-15.62-13.42-28.59-20.51-42.7C783.32,91.88,780.25,79.51,783,67c2.53-11.56,7-22.73,10.93-34,2.52-7.18,2.84-14-.56-21.12ZM894.42,747.61c-3.81,3.11-6.79,5.12-9.23,7.64-5.63,5.81-11.62,10.42-19.95,12.21-4.65,1-9.29,3.89-13,7-6.92,5.84-11.39,13-7.3,22.7,3,7.16,1.21,14.37-.52,21.46A69.85,69.85,0,0,1,840.66,831c-4.33,9.57-.52,15.6,7.43,20.92,12.3,8.24,17.17,20.68,18.16,35,.2,2.91.43,5.81.65,8.71h27.52ZM314.08,895.55h94c0-10.15.37-19.66-.12-29.12-.38-7.41-8.11-14.14-15.71-13.14-9.45,1.24-18.73,3.84-28.08,5.87-4.5,1-9,2.64-13.49,2.87-9.13.46-15.87,4-19.64,12.54-2.51,5.72-6.24,10-12.8,11.34C313,887,312.69,890.86,314.08,895.55ZM792.14,635.47c-9.94,5.59-18.29,10.08-26.38,15-2,1.23-4.5,3.85-4.51,5.85-.07,8.82-1.33,17.88,5.62,25.47,11.83,12.91,23.06,26.36,34.84,39.32,3.27,3.6,7.83,2.4,10.66-.69,6.08-6.65,11.56-13.92,12.19-23.44.39-6-1.12-11.82-7.38-13.84-7.77-2.51-12.54-8.45-18.26-13.44-3.84-3.35-5.28-7.26-5.34-12.26C793.47,650.86,792.75,644.28,792.14,635.47ZM894.39,681v-88.9c-7,.78-12.37,1.64-17.39,6.74-8.66,8.8-13.92,19.35-18.38,30.38-2.69,6.65-4.34,13.87-2.8,21.52C870.55,658.47,884.3,667.35,894.39,681Z"/></g></g></svg>