<svg xmlns="http://www.w3.org/2000/svg" viewBox="0 0 906.18 902.46"><defs><style>.cls-1{fill:#ce242b;}</style></defs><title>1_3</title><g id="Layer_2" data-name="Layer 2"><g id="Layer_1-2" data-name="Layer 1"><path class="cls-1" d="M905.38,845.2c-1,5.14-2.06,8.47-2.14,11.82-.29,12.49-.21,25-.34,37.48,0,2.24-.35,4.47-.64,8H1.22C.79,892.85.07,884.11.06,875.37Q-.07,754,0,632.7V0H903.14V12q0,94.2.08,188.41c0,4.82,1.16,9.63,1.74,14.45a18.44,18.44,0,0,1,.21,3.86c-.63,6.78-1.93,13.55-1.94,20.32q-.17,233.29-.08,466.58c0,17.37,0,34.75.29,52.12.05,3,2,5.9,2.43,8.94a23,23,0,0,1-.33,9.29c-1.51,5-3.15,9.56-1,15,.93,2.42-1.19,5.86-1.23,8.84-.18,12.49-.26,25,0,37.48C903.34,840.38,904.88,843.42,905.38,845.2ZM199.85,814.54c8.12-4.68,15.62-9.31,23.4-13.4,7.47-3.92,15.27-7.21,22.86-10.93a32.86,32.86,0,0,0,5.62-3.85c7.59-6,10.48-14.84,13.64-23.29,5.06-13.55,15.08-23.64,23.26-35a30.64,30.64,0,0,1,11.15-9.49c17.37-8.24,35.05-16.29,54.31-18.45,7.34-.82,13.88-3.36,20.82-4.9,15.74-3.49,23.51-14,26.48-29.34,2.81-14.44,9.15-27.18,20-37.55a58.28,58.28,0,0,0,16.13-26.5,29.78,29.78,0,0,1,2.23-5.32c6.11-11.94,12.47-23.77,18.37-35.82,8.55-17.46,23.67-24.74,41.59-29.08,12.79-3.09,25.32-2.35,38.08-1.34,4.51.36,9.43-1,13.53.32C567.7,536,583.85,542.12,600.06,548c7.25,2.63,14.26,6.22,21.71,7.93,13.43,3.09,26.77-.46,39.79-3.28,11.72-2.54,23-7.2,34.52-10.67,20.58-6.19,41.51-11,61.59-19.1,16.75-6.8,34.66-9.71,52.93-4.74a106.8,106.8,0,0,0,45.76,2.4c5.61-.91,12.21-.59,17.33,1.58,6.25,2.64,11.93,2.11,18,1.63a13.17,13.17,0,0,0,.93-3.14c.08-16.44.18-32.89,0-49.33,0-2.09-.72-4.89-2.16-6.14-8.57-7.41-18.28-13.3-29.82-13.51-11.77-.22-23.8-.05-35.33,2.07-30,5.52-59.74,12.23-89.59,18.42-25.36,5.26-50.44,12.15-76.81,10.45-12.45-.8-62.71-7.65-64.51-10.26,38.77-3.21,71.62-18.9,104.68-33.92,27.11-12.32,77.26-53.27,83.9-68.13-11.9-4.86-24.8-8.19-33.71-18.17-6.55-7.33-11.22-15.74-8.56-26.66,3.15-12.93,12.48-20.35,22.63-27,8.17-5.39,17.07-3.93,26.23-2.32,4.58.8,9.32,5.37,15.52.65-5.62-15.87-11.17-31.86-17-47.74-1-2.67-3.06-5.05-5-7.21-7.4-8.16-14.82-16.31-22.53-24.18-5-5.07-9.74-11-15.82-14.19-12.83-6.84-21.42-18.1-31.15-28a193,193,0,0,0-26-21.9c-10.07-7.15-21.14-12.9-31.89-19.08-7.55-4.33-50.26-11.77-52.8-14.09,6.17-1.83,10.9-3.77,15.81-4.54,5.33-.84,10.84-.54,16.26-.86,6.21-.36,43.22,2,55.57,3.17,11.21,1.06,40,12.61,43.65,15.05,5.62,3.79,43.87,24.85,53.9,30.9,2.49,1.5,39.93,31.83,49.46,51.56,1.53,3.17,22.44,22.33,30.85,28.61,5.49,4.1,11.69,7.31,17.79,10.5,4.78,2.5,7.67.79,7.85-4.66.16-4.9-.69-9.82-.74-14.74-.24-26.63-.38-53.26-.54-79.89,0-3.17,0-6.34,0-8.89-11.25-2.62-21.07-4.86-30.87-7.22-3.5-.84-7.14-1.54-10.36-3.07-11.72-5.55-23.23-11.53-34.93-17.13-10.9-5.21-22-10.54-34-11.85a86.7,86.7,0,0,1-27.21-7.64A12.13,12.13,0,0,1,751,96.41c-5-6.28-10-12.51-14.47-19.16-4-6-8.94-11.26-15.19-14-14.62-6.41-29.9-9.38-45.89-4.55-3.6,1.09-8.12,1.95-11.4.73-9.85-3.66-20-7-28.43-13.65-4.4-3.48-8.31-7.06-10.09-12.89-2.29-7.46-5.63-14.59-8.44-21.65C603.48,9.47,474.37,10.1,466,12.3c4.54,5.36,8.73,10.17,12.77,15.12,3.26,4,7.44,7.69,9.27,12.29,5.05,12.71,25.15,45.65,21.8,51.21C505,92.5,478,69.13,467,60.53c-7.67-6-16.22-10.82-24.26-16.34-11.22-7.7-22.13-15.87-35.58-19.57-4.64-1.28-9.07-3.35-13.58-5.09-14.1-5.44-28.39-9.44-43.79-9.26-29.26.33-58.54,0-87.8,0a74.39,74.39,0,0,0-25.05,4c-12.21,4.26-24.82,7.37-37.17,11.25-1.8.57-3.13,2.64-4.43,3.79,2.8,5.15,5.51,9.28,7.33,13.77,1.44,3.54,2.66,7.56,2.49,11.31a71.54,71.54,0,0,1-9.47,32.84c-4.53,7.88-11.68,12.86-20.47,13.91a69.18,69.18,0,0,1-33-3.85c-13.22-5-17.62-34.1-17.18-37.67.36-2.93,1.08-5.89.86-8.78-.12-1.55-1.68-3.93-3-4.2s-3.56,1.14-4.66,2.43c-1.87,2.21-2.9,5.13-4.76,7.36-18.7,22.39-22.31,49.36-21.19,76.77,1,24.13,10.93,46.44,21.45,67.84,8.93,18.15,19.74,35.43,30.4,52.67,13.94,22.54,31.36,41.81,55,54.81,3.37,1.85,6.3,4.56,9.26,7.08s-78.42-6.5-89.22-16.09c-7.79-6.91-15.75-13.63-23.71-20.34-13-10.95-26.58-21.28-38.94-32.9-9-8.47-17.57-17.88-24.32-28.18s-10.93-22.25-16.3-33.44c-1.12-2.34-2.5-4.55-4.74-8.58V403.54c4.62,2.49,9.55,4.48,13.68,7.55,5.78,4.31,11.69,5,18.54,3.69,12.52-2.34,25.14-4.14,39.32-6.42,1.53-5.25,4-11.65,5.22-18.28,2.66-14.66,10.85-26,21.9-34.85,7.29-5.83,12.75-11.08,10.65-21.14-.3-1.42,1-4.12,2.26-4.67s3.89.12,5.27,1.13,2,3.31,3.29,4.8c6.68,8,12.86,16.57,20.32,23.8,12.85,12.47,28.1,22.43,38.9,37.1.58.78,2.16.82,3.76,1.37,1.43-9.89,5.93-17.62,11.55-25.09a128.12,128.12,0,0,0,12.34-21c2.69-5.52,4.34-11.59,6.06-17.53.9-3.13,1.73-5.69,5.66-5.3,4.88.48,4.61,4,4.06,7.32-1.62,9.51,1.65,18.11,4.73,26.73,2.11,5.91,4.54,11.72,6.75,17.37l20.65-18.39c-.46-3.16-1-7.61-1.77-12-2.71-15.14-6.61-30.16-8-45.42-2.37-25.24,3.43-49.14,14.07-72.24a176.45,176.45,0,0,1,31.14-46.76c12.19-13.07,27.2-23.17,43.46-31,1.66-.81,3.1-2.08,4.73-3,13.14-7.14,25.08-16.78,40.48-19.21a61.91,61.91,0,0,0,12.39-2.92,115.7,115.7,0,0,1,44.24-7.29c9.41.21,18.73.89,28.1-1.48,3.49-.88,7.79.58,11.53,1.63,12.22,3.46,24.2,8,36.57,10.67,14,3.07,24.81,11.26,35.22,20.08,6.63,5.61,12.13,12.53,18.46,18.52,20.12,19,31.28,43,38.13,69.28,5.4,20.65,8.24,41.64,6,63.12-1.06,10.41-1,20.93-2.16,31.32-1.87,17-7.72,33.06-13.66,49-1.66,4.44-6,8-7.29,12.45-2.64,8.92-9.92,14.38-15.3,20.8-9.15,10.92-20.92,19.47-33.3,27-13.64,8.32-27.2,16.54-42.73,21-6.88,2-14.36,3.15-20.28,6.78-5.16,3.17-10,3.94-15.59,4.28-19.08,1.15-37.8-1.83-55.64-4.81-2.59,3.74-4.75,6.6-6.63,9.63-2.89,4.66-6.68,9.13-8.1,14.24a72.69,72.69,0,0,0-2.24,20.42c.24,15.79-5.21,29.61-13.91,42.22-9.4,13.63-21.55,24.56-35.42,33.63-3.49,2.28-6.55,5.22-10,8.05,9.29,6.12,17.85,12.13,20.62,23.08,2.16,8.56,4.55,17.11,6,25.81,1.2,7.44,1.32,15,6.87,21,2.51,2.72,1.18,5.34-1.52,7.86-2.4-.62-5.58-.51-7.26-2-10-9.13-21.7-5.63-32.86-4.4-17,1.87-33.85,2.9-50.41-2.55-3.67-1.21-7.2-2.85-11.2-4.45-3.68,8.79-6.24,17.77-10.93,25.44C251,700.53,242.59,710.66,235,721.28c-6.39,8.89-12.09,17.93-9.15,29.84.68,2.75-.47,5.95-.81,9.26-6.11-.89-8.92-2.92-10.21-7.93s-3-10.49-6.27-14.16c-7.38-8.23-14.67-16.6-24.06-23-11-7.53-21.32-16.21-31.61-24.77-3.71-3.09-6.48-7.3-10-11.39-16,13-32.22,22.78-50.7,27.53,4.43,9.11,8.32,17,12.11,25,2.11,4.44,5.07,7,10.33,7.79,8.37,1.22,16.89,2.64,24.81,5.46,11.91,4.24,24.53,8,32.27,19.21,4,5.83,7.21,12.29,10.5,18.61C187.56,793.09,190.93,804.59,199.85,814.54Zm107.47-469c3.61,12.63,12.93,21.38,22.65,29.63a47.11,47.11,0,0,1,5.86,6.39c6.91,8.51,10.82,18.54,14.44,28.73,2.67,7.5,3.77,8,11.61,6.31,14.93-3.22,28.71-1,42.52,6.06,9.73,5,20.92,7.14,31.5,10.43a8.75,8.75,0,0,0,3.9-.18c10.23-1.83,32.37-9.58,33.62-9.56,9.16.15,16.64-5.11,24.8-8,10.15-3.54,17.68-10.82,25.24-18.91,10.75-11.5,21-23,28.8-36.7,6-10.55,16.14-19,16.16-32.52,8.64-22,7-43.85.09-66.1C563.49,245,554.72,231,546,217c-9.56-15.37-24.86-25-39.86-34.44-12-7.56-25.72-6.19-38.91-6.95-11.87-.69-23.93-1.21-35.68.11-10.23,1.15-20.91-.44-30.78,4.59-4.56,2.32-43,17.21-55,27.7-21.27,18.59-33.1,42.05-37.59,69.22C305.72,292.37,305.28,338.48,307.31,345.59Zm73.15,547H788.75c-8.84-12.6-21.44-18-32.14-25.22-.64-2.6-.41-6.43-2.13-7.8-8.83-7-13.09-17.5-20.31-25.74-3.5-4-6.89-7.68-11.4-10.17-7.11-3.91-14.76-6.93-21.62-11.22-7.72-4.82-16.2-9.5-21.83-16.32-6.74-8.16-10.75-18.56-16.08-27.91-3.91-6.85-9-11.51-17.27-14-9.59-2.84-17.91.37-25.72,3.4a414.61,414.61,0,0,1-44.37,14.46c-15.91,4.19-30.62,13-45.81,19.87a16.36,16.36,0,0,0-3.84,3c-14.63,13.16-28.85,26.81-44,39.37-10.88,9-22.88,16.2-38.28,15.64-8.39-.31-16.92,1.39-25.27,2.87A28.07,28.07,0,0,0,408,857.55,73,73,0,0,0,380.46,892.58ZM890.53,575.63c-2.65.87-4.7,1.15-6.33,2.13-10.08,6.1-21.22,4.52-31.62,2.87a77.93,77.93,0,0,0-22.32-.41c-13.65,1.7-27.26,3.8-41,4.9-18.82,1.51-37.61,3.08-55.82,8.28-8.15,2.33-15.76,6.83-24,8.56-12.89,2.71-22.86,9.3-31.34,18.9-6.29,7.12-12.06,14.84-19.16,21a366.06,366.06,0,0,1-32.64,25.21c-16.53,11.43-35.55,17.69-54.29,24.39-7.76,2.77-15.34,4.9-23.59.45-4.75-2.56-10.51-3.26-15.82-4.8-7.87-2.28-15.58-3.61-24.08-2.42-9.25,1.29-17.46,4.91-26.16,7.46-13.49,4-23.8,13-35.77,19.33s-21.76,16.35-31.73,25.81c-8,7.55-16.87,14.5-29.25,14a47.75,47.75,0,0,0-14.54,2.12c-5.62,1.57-11.93,2.89-16.25,6.39-8.34,6.75-15.64,14.82-23.09,22.61-9,9.37-15.79,20.76-28.58,26.27-18.34,7.91-29.65,22.87-38.54,40.23-7,13.77-11.24,28.34-14.64,43.77H291c8.88-9,15.35-19.26,18.79-30.86,4.2-14.15,13.3-24.71,23.29-34.62,4-4,9.52-6.75,14.76-9.22,12.67-6,25.62-11.33,38.35-17.15a134.1,134.1,0,0,0,14.58-7.8c11.34-7,22.73-13.92,33.71-21.44,10.55-7.22,21.3-13.9,33.42-18.15,9-3.16,17.89-6.26,22.52-15.8,1.09-2.24,3.5-3.84,5.33-5.71,10.15-10.38,23.93-14.4,36.44-20.59,11.6-5.74,24.36-4.1,36.69-3.86a70.44,70.44,0,0,0,30.34-6.37,323.46,323.46,0,0,0,65.36-39.74c3.35-2.61,7.09-4.71,10.56-7.17,15.77-11.16,32-21.73,47-33.86,6.62-5.35,13-6.66,20.62-6.32,1.62.07,3.24.71,4.83.59,21.49-1.67,42.93-3.85,64.56-2.49a57,57,0,0,0,17.6-1.45c16.49-4.27,32.92-8.86,49.12-14.1C892,592.34,892.92,590,890.53,575.63Zm1.7,192.95V648.73c-6.51,1.56-12.41,3.31-18.45,4.3-3.14.52-6.71-1.13-9.72-.37-14.21,3.63-28,.75-41.36-3.2-20.92-6.21-39.45-2-54.67,12.36-14,13.18-30.88,20.2-48.25,25.3-12.94,3.8-22.3,9.65-29.37,20.79-6.32,9.95-3.8,19.7,7.43,23.16,6.2,1.91,12.73,2.81,19.16,3.87,12,2,23.34,5.8,33.48,12.77,4.21,2.9,7,6.42,7.6,11.77a147.64,147.64,0,0,0,3.15,18.37c.41,1.71,3.08,4.33,4.37,4.15,9-1.27,17.46,2,26,3.54,11.44,2,20.56-1.19,29.13-8,4.1-3.28,8.15-6.64,12.46-9.63,6.68-4.64,14-6.71,22.28-5.25C867.26,764.71,879.14,766.48,892.23,768.58ZM165.15,891.41c-1-7.47-6-13.67-9.8-20.43-5.72-10.28-12.75-20.07-12.55-32.58.24-15.19-5.89-27.94-15.06-39.46-3.49-4.39-8-6.92-13.68-8.82-10.11-3.41-21.51-2.66-30.54-9.49-4.4-3.34-8.75-6.88-13.57-9.51-5.8-3.16-7.44-7.67-6.64-13.76,1.33-10-2.56-18.58-10.32-24-10.46-7.27-12.37-17.53-11.64-28.32,1.33-19.57-1-37.75-14.45-53.06-4.6-5.21-9.4-10.25-15.5-16.88v258Zm47.39-451c-2.16,4-4.18,7.95-6.4,11.79-3.93,6.81-7.81,13.66-12,20.28-2.8,4.39-6.16,8.41-9.27,12.6-2.91,3.92-5.33,8.36-8.84,11.63-3.89,3.62-4,8.71-6.48,12.89-5.6,9.58-9.61,20.09-10.11,31.44-.72,16.17,1.66,32,6.1,47.53,3.48,12.18,10.87,20.53,22.52,25.53,6.7,2.88,6.78,3.05,11.46-2.53,6.53-7.8,13.26-15.44,19.94-23.11,16.41-18.83,21.93-41.41,22.53-65.64a18.11,18.11,0,0,0-1.49-6.67c-5.88-15.32-12-30.53-17.78-45.9C219.15,460.83,216.16,451.16,212.54,440.45ZM379.39,454.9c-5,.41-8.11.48-11.17.94-15.42,2.28-30.85,4.53-46.23,7-15.81,2.58-31,7.13-44.38,16.28-9,6.14-9.47,10.48-6,20.74,4.09,11.95,8.36,24.33,9.21,36.76,1.09,15.82-3.24,31.36-11.38,46.68,4.54-.95,8.57-1,11.89-2.61,18.32-8.69,36.76-17.21,54.58-26.86,13.87-7.51,25.16-18.23,27.71-34.83a111.38,111.38,0,0,0,.51-24.52c-.69-9.85.7-18.73,7-26.68C373.87,464.36,376,460.34,379.39,454.9ZM35.28,457c5.14,12.91,10.82,24.76,14.53,37.2,3.61,12.09,10,21.69,18.89,30.33,10.75,10.5,21,21.56,31.42,32.36,3.32,3.42,6.68,6.8,10,10.2-6.73-38.24,4.28-70.5,30.88-99.16-7.16-3.26-13.1-5.49-18.58-8.56-15.45-8.66-31.85-9.78-48.94-7.27C61.31,454,49.05,455.3,35.28,457Zm510.5,123c-10.52,2.72-20.7,5-30.63,8a133.39,133.39,0,0,0-19.51,8,14.44,14.44,0,0,0-8.16,12.59c-.36,5.49,2.12,9.87,7,12,7.15,3.08,14.47,6.65,22,7.71a171.16,171.16,0,0,0,60.44-2c12.48-2.74,20.56-12.55,12.66-24.56C586,596.3,580.85,590.51,575,588,566,584,555.7,582.6,545.78,580.09ZM892.4,72.14c-11.88-4.1-23.38-8.5-35.15-12-15.68-4.7-31.17-9.74-45.48-17.82a22.93,22.93,0,0,1-11.11-13.24c-.88-2.72-2.11-6-4.24-7.53C787.91,15.26,779.81,8,767.62,10.19c-6.05,1.07-12.45.11-18.68.23-2.47,0-4.94.53-7.37.81.94,15,8.06,24.88,20.4,28,4.24,1.07,8.87.53,13.32.81,10.94.68,21.5,2.2,27.37,13.31,2.51,4.75,5,9.5,7.35,14,3.29.7,6.35.83,8.92,2A43.38,43.38,0,0,0,837,73c11.41.14,22.64,1.71,33.2,6.85,6.9,3.36,14.27,5.74,22.23,8.87ZM77.33,604.23a57.38,57.38,0,0,0-17.8-23.82,139.34,139.34,0,0,1-25.79-27.91c-7.09-10-14.57-19.65-22.65-30.48,0,18.94-.08,36.85.1,54.77,0,2.14,1.19,4.41,2.28,6.37,5.93,10.71,13.91,18.45,26.76,20.74,7.41,1.33,15.7,2.17,19.59,9.94Zm98.36,39.54c-.09,18.47,5,29,18,36,4.72,2.54,10.52,6.37,14.86,5.38s7.41-7.29,11.05-11.25a19.72,19.72,0,0,0,2.72-2.81c8.1-13.6,11.1-27.85,6.05-43.63-11.54,6.4-17.52,16.41-23.06,27.62Zm-49-260c-14.68,16.16-12.49,33.49,4.53,44.37,5.74,3.67,11.32,7.59,17,11.33,6.23,4.1,10.54,3.15,14.54-3.15,1.4-2.2,2.62-4.52,4.13-6.64,4.81-6.78,3.47-11.53-4-15.69a77,77,0,0,1-12.71-8.72C142.38,398.45,134.85,391.21,126.74,383.75Zm145,236.89c6.94,5.65,13.86,9.21,17.59,14.88,4.25,6.46,9.77,8.72,16.25,11.16,11.89,4.48,24.48,3.5,36.66,5.56,5.22.88,7.44-2.24,5-7.07a38.84,38.84,0,0,0-6.73-9.59c-5-5.1-10.69-9.57-15.83-14.58-3.27-3.18-6.86-5.06-11.41-4.55-6.43.72-12.83,1.77-19.27,2.42C286.91,619.58,279.83,620,271.72,620.64Zm573,209.29c4.06,7.57,9.91,12.24,19.18,12,4.24-.09,8.5.73,12.75.77,5.12.05,10.24-.29,15.15-.45,1.74-12.81,1.37-25.21-.75-31.9C870.82,808.18,855.62,813.94,844.73,829.92ZM293.7,400c-17.09,4-28.53,14.16-39.61,24.75a8.8,8.8,0,0,0-2.05,7.07c1.32,5.9,3.56,11.6,5.43,17.33,2.3-.51,3.48-.43,4.15-1,8-6.61,15.91-13.31,25.86-17.17,3.45-1.34,7.28-3.58,7.12-8.46C294.36,415.22,294,407.85,293.7,400ZM91.13,668.44c9.37-2.48,17.94-4.25,26.12-7.15a17,17,0,0,0,8.77-7.42c3.07-5.95,4.72-12.62,6.91-18.84L114.32,624C101.09,635.85,88.86,647.72,91.13,668.44Zm764.61-278c-8.16.11-10.24,2-10.23,9.38,0,7,3.19,10.44,9.79,10.49S866.37,405.14,866,398C865.72,392.76,862.48,390.36,855.75,390.45Zm29-70.3c4.75.2,8.9-4.24,9-9.6.05-4.36-2.92-7.31-7.32-7.28a8.88,8.88,0,0,0-9,8.51C877,316.68,879.85,319.95,884.74,320.15Z"/></g></g></svg>