<svg xmlns="http://www.w3.org/2000/svg" viewBox="0 0 909.22 908.73"><defs><style>.cls-1{fill:#ce242b;}</style></defs><title>1_4</title><g id="Layer_2" data-name="Layer 2"><g id="Layer_8" data-name="Layer 8"><path class="cls-1" d="M.74,0V40.42l0,.31c.33,3.47,1.07,7.32,0,10.43,0,0,0,0,0,0V306.91c.07,3.05.11,6.11.08,9.16,0,1.47,0,2.94-.08,4.4V539.05c-1.18,1.31-.76,2.74,0,4.24V908.73H909.22V742c-.11-1.7-.18-3.4-.23-5.1-.11-3.71,0-7.41.23-11.13V0ZM871.16,26.35A95.24,95.24,0,0,1,874.83,16c.55-1.48,1.14-2.94,1.73-4.41h20.38V35.85a14.68,14.68,0,0,1-6.81,2.69c-1.86.29-3.74.53-5.56,1C875.95,41.73,869,35,871.16,26.35ZM740.27,247.74a64.14,64.14,0,0,1,7.16-11c2.38-2.78,5.79-4.62,8.55-7.1,10-9,19.94-18.24,25.39-30.92,2.05-4.77,2.9-10.17,3.7-15.37s-1.11-9.91-3.89-14.66c-5.29-9-9.83-18.51-14.21-28-1.32-2.86-1.4-6.42-1.48-9.68-.25-10.27.25-20.58-.47-30.81-.49-7-2.87-13.87-3.8-20.87-1.84-13.83-3.78-27.87-.51-41.57,2-8.25,6-16.08,9.74-23.79a7.64,7.64,0,0,1,1.73-2.34c2.22-2,5.48-2.49,8.77-1.93,2.58.43,5.09,1.3,7.42,1.93.31,2.45,1.06,4.8.78,7-.46,3.68-.69,7.87-2.6,10.8-6.95,10.68-6.84,22.41-5.6,34.16,1.07,10.17,3.33,20.21,5,30.32.36,2.23.27,4.55.61,6.79.6,3.92,1.54,7.8,2,11.73a64.73,64.73,0,0,1,.47,9.65c-.07,2.89-1.06,5.82-.74,8.63.17,1.42,2.26,3.59,3.64,3.73,6.43.65,9.68-.92,10.34-8.28,1.16-12.76,6.7-23.55,13.05-34.12,1.91-3.18,4.49-6,6.81-8.89,2.57-3.23,2.12-7,1.63-10.58A56.63,56.63,0,0,0,821,61.61c-1.37-4-.16-7.49,1.25-11,3.16-7.81,7.94-14,16.32-17.08,3-1.09,5.22-4.08,7.8-6.2l.63.55c-.56,2.69-.8,5.5-1.73,8.06-2.65,7.31-1.64,14.66-1,22.11.32,3.5-.75,7.14-1.33,10.67-.5,3-1.32,6-1.74,9.09a2.92,2.92,0,0,0,1.25,2.46,46.41,46.41,0,0,0,6.4,1.66c2.79.63,4-1.06,5.12-3.28,3.37-6.7,9.38-10.24,16.18-12.19,3.93-1.14,8.22-1.22,12.37-1.41,3.81-.18,7.68.25,10.33-4.53.5,5,.8,8.94,1.35,12.85A36.27,36.27,0,0,0,895.76,78c.37,1.31.91,2.66,1.18,4a7,7,0,0,1,.16,1.87c0,.65-.1,1.31-.16,2a114.34,114.34,0,0,1-1.71,11.94,11.88,11.88,0,0,1-2.72,5.74c-3.54,3.71-5.43,8.12-7.3,12.79-3,7.5-6.55,14.78-10,22.08-4.33,9-9.24,17.75-13.13,26.94a105.88,105.88,0,0,0-6.41,21c-2.24,11.52-3.32,23.27-5.33,34.84-2.79,16.1-6.75,31.79-14.19,46.59-5.42,10.78-9.22,22.37-13.8,33.58-5.94,14.53-11.83,29.08-18,43.52-4,9.53-8.49,18.87-12.74,28.3a22,22,0,0,0-.7,2.76c5.81-4,11-7.21,15.8-11,5.42-4.26,11-8.51,15.56-13.64a223.62,223.62,0,0,0,18-23.23c5.91-8.73,11-18,16.44-27.07,4.2-6.94,8.75-13.69,12.65-20.8,5-9.12,9.49-18.53,14.24-27.8,3.72-7.25,7.5-14.47,11.75-22.67.56,6,1.21,11.31,1.61,16.47.13,1.6.23,3.18.3,4.77.29,6.9,0,13.83-.07,20.73a3.19,3.19,0,0,1-.16,1.5l-.07.11c-2.85,4.46-5.86,8.82-8.58,13.37a50.38,50.38,0,0,0-3.13,7.24c-.68,1.71-1.09,3.53-1.81,5.22-2.9,6.8-5.62,13.71-8.94,20.3-1.7,3.38-4.54,6.2-6.86,9.26a6.1,6.1,0,0,0-1.13,1.51c-1.91,6-7.13,9.69-10,15a64.61,64.61,0,0,1-6.16,9.77c-4,5-8.57,9.47-12.74,14.31-2.35,2.72-4.27,5.81-6.6,8.55-3.17,3.74-6,8.12-10,10.7-5.71,3.73-12.18,6.39-18.56,8.91-6,2.38-12.25.85-18.48-.09a153.81,153.81,0,0,0-21.85-1.51c-3.5,0-7,1.45-10.51,2.24l-.71-.88c3.22-4.51,6.48-9,9.63-13.53,4.45-6.44,10.14-12.07,11.35-20.53.61-4.25,3.32-8.16,4.64-12.36,3.3-10.52,5.3-21.3,3.88-32.36-1-7.57-6.38-12.39-11.84-16.94-6-5-11.85-9.65-15.75-17.08-5.37-10.21-8.49-21.18-13-31.64A6.58,6.58,0,0,1,740.27,247.74ZM13,11.58H718.22c-2.36,5.9-4.55,11.31-6.61,16.76A79,79,0,0,0,709.46,36c-2.84,10.75-3.2,21.75-2.48,32.73.26,4,2,7.93,3.19,11.84,1.9,6.12,3.73,12.28,6,18.25.87,2.23,3.09,3.9,4.48,6,2.77,4.16,5.29,8.49,8.11,12.6,4.68,6.82,6.15,14.66,7.1,22.58.5,4.17,0,8.51-.36,12.75-.42,5.16-.55,10.45-1.85,15.41-2.47,9.43-5.56,18.7-8.67,27.94a19.53,19.53,0,0,1-4,6.22c-4.28,5-8.75,9.75-13.18,14.59a7.21,7.21,0,0,1-2.08,1.6A38.93,38.93,0,0,0,689,233.58c-2.81,4.52-6.51,8.45-9.68,12.74-4.72,6.42-4.37,13.76-4.21,21.31.21,10.55,8.17,16.15,13.39,23.55,2.94,4.16,5.45,8.61,8.42,12.74,2.77,3.84,6.16,7.24,8.78,11.17,4.06,6.07,8.39,12.12,8.64,19.9.34,10.65-2,20.79-5.09,30.94a114.69,114.69,0,0,1-11.65,26.35c-3.4,5.61-7.1,11-10.6,16.59-.91,1.44-1.58,3-2.4,4.65-3.23-7.4-6.32-14.6-9.49-21.75-3.67-8.3-7.47-16.55-11.09-24.87-2.25-5.15-3.86-10.61-6.5-15.53C652,341.06,646,331,640.14,320.9c-7.09-12.16-14.3-24.24-21.4-36.39-3.11-5.33-6.1-10.72-8.86-15.57,8-2.28,16-3.38,22.76-6.8,8.15-4.09,14.17-11,15-21,1-11.31,1.1-22.73-3.49-33.23A239.89,239.89,0,0,0,629,179.73a201.09,201.09,0,0,0-15-20.83c-2.55-3.18-6.06-5.66-9.35-8.18-9.26-7.1-18.25-14.66-28.08-20.88a133,133,0,0,0-32.78-14.88,114.63,114.63,0,0,0-42.93-4.63c-4.36.38-8.56,2.38-12.86,3.52-2.16.56-4.66.37-6.55,1.36a54.74,54.74,0,0,0-11,7.1c-4.86,4.32-9.84,8.81-13.51,14.09-3.79,5.47-6.06,12-9,18.05-1.28,2.6-3,5-4,7.72-3.66,9.61-6.62,19.5-4.14,29.8a92.44,92.44,0,0,0,6.58,17.28c5.29,11.33,10.4,22.8,16.6,33.63,10.79,18.86,22.66,37.11,33.46,56,7.78,13.58,14.57,27.73,21.76,41.64,3.23,6.25,6.73,12.4,9.44,18.87,3.44,8.24,6.17,16.78,9.26,25.17q8.07,21.92,16.21,43.82,3.55,9.56,7.09,19.13c1.5,4.09-3.29,9.22-7.66,9.15-5.38-14.19-10.35-28.2-16-41.93s-11.76-27.46-18.16-41c-5.7-12-11.91-23.82-18.21-35.54-5.35-10-11.29-19.63-16.68-29.58-4.55-8.39-8.51-17.1-13.05-25.49-10.45-19.33-21.22-38.49-31.62-57.84-4.12-7.68-7.33-15.85-11.45-23.53-1.93-3.59-21.49-38.38-50.7-50.53-34.88-14.51-96.28-7-127,8.31-34.87,17.39-27.83,21.32-56,41.75-18.93,13.73-15.12,5.6-34.67,15.51-2.31,1.17-30.38,10.22-33.23,11.33-6.79,2.65-26.72,13.47-27.33,13.59-6.1,1.26-39,12.3-48.18,13.59-3,.41-31.62,6-34,5.29,0-4.22,1.67-103,1.77-108.07,0-.8,49.6,5.91,53.53-13.76,3.73-18.65,66.1-62.44,88.48-74.72,41.86-23,81.72-46.88,83.4-55.25C245.61-1.91,202,6.42,202,5.42c0-5.57-78,3-87.82,33.76-13.92,43.6-95.83,61.13-95.92,56.7-.1-5.16-.82-10.31-1.34-15.46-.66-6.64,85.61-62.22,84.81-68.84C101.15,6.79,13,11.58,13,11.58Zm229.32,544.8a29.87,29.87,0,0,1-2.84-1.88c-4.83-3.68-9.64-7.36-15-11.47,5.78-.84,11.69-1.76,17.62-2.46.89-.11,2.53.6,2.73,1.26a60.56,60.56,0,0,1,2.82,11.69C248,557,245.36,558.15,242.33,556.38Zm6.56,42.55c3.75,2.47,7.33,5.22,11.21,7.46,4.95,2.86,5.34,7.95,6.78,12.57,1.26,4,2.41,8.09,3.86,13-7.72-2.89-14.43-5.83-21.41-7.85-4.9-1.42-10.15-1.7-15.27-2.25-4.11-.45-8.35-1.22-12.37-.68-5.28.71-10.34,3.07-15.62,3.77-7.11.95-11.79,6.32-18,8.8-10.36,4.1-20.28,9.42-30.78,13.09s-21.53,5.36-32.77,1.32-21.09-9.85-30.89-16.35c-11.88-7.89-21.34-18.91-34-25.7a17,17,0,0,1-5-4.57c-4.1-5.2-10-7.43-15.72-9.83-6.71-2.79-13.55-5.3-20.25-8.13a4.2,4.2,0,0,1-2.19-3c-.22-5.39-.1-10.8-.1-16.62,4.32-.48,8.76-1.08,13.21-1.46,5-.43,10-.77,15-1a9.89,9.89,0,0,1,4.61.86c7.38,3.67,15.4,6.08,21.7,11.85,5,4.6,10.05,9.3,15.7,13A196.88,196.88,0,0,0,112.4,602.1c12,5.47,24.71,3.27,37.2,1.27a50.08,50.08,0,0,1,6.66-1.12c8.9-.2,16.25-4.94,24.24-7.87,3.13-1.15,6.53-1.56,9.83-2.21,3.67-.73,7.61-.76,11-2.15,5.73-2.37,11.4-2,17-.58,9.36,2.43,18.57,5.44,27.83,8.23A10.27,10.27,0,0,1,248.89,598.94Zm-24.68-96.57c-8.54-.3-17.08-.49-25.62-.89-15.93-.74-29.71,5.12-42.79,13.52-5.4,3.48-10.94,7-16.9,9.27-6.44,2.41-13.38,3.61-20.2,4.79-8.38,1.47-16.87,3.35-25.3,3.27s-16.86-2.2-25.24-3.75c-9.46-1.74-18.86-3.83-28.29-5.78-1.09-.23-2.18-.51-3.27-.73-3.8-.77-7.6-1.51-11.39-2.26L13.79,517.6V465.26c5.37-3.92,10.62-3.56,16.2-2.72,10.66,1.59,21.41,2.59,32.1,4,3.7.49,7.3,1.68,11,2.3,5.81,1,11.65,1.77,17.48,2.59a36.4,36.4,0,0,0,4.16.26c11.82.32,23.67.16,35.44,1.07,9.47.74,18.84,2.8,28.26,4.2,3,.44,6,.49,9,1,11.28,1.93,22.53,3.84,34.06,2.89,1.69-.14,3.56,1.09,5.17.76,4.52-.91,8.94-2.29,13.7-3.56,2.24,5.93,4.8,12.73,7.37,19.53C229.41,502.16,229.14,502.54,224.21,502.37ZM82.69,325.86c3.62-2,7.73-3,11.64-4.47,3.63,1.26,6.93,1.81,9.43,3.53,1.43,1,2.48,4.17,2,5.86s-3,3-4.86,3.94a119.07,119.07,0,0,1-11.06,4.49c-3.3,1.2-9.72-1.63-11.18-4.74C77.66,332.35,79.38,327.64,82.69,325.86Zm-48.93,535c-3.37,3.16-7.18,5.5-12.2,4.94a5.32,5.32,0,0,0-3.85,1,6.9,6.9,0,0,1-4.7,2.11V835.49c.32.2.64.4.95.6,4.19,2.78,7.65,6.68,11.9,9.34,4.47,2.8,6.78,7,9,11.34C35.31,857.74,34.66,860,33.76,860.83Zm268.58-95.89c-4.58,1.19-9.07,2.44-12.82,5.77s-8,5.74-11.7,9a38.68,38.68,0,0,0-6.73,8.28c-3.18,5.13-6.6,10.23-7.19,16.53-.17,1.75-.78,3.47-.83,5.21-.21,7.3-.44,14.62-.35,21.92.09,8.57,3.29,16.23,7.89,23.25,2.67,4.07,5.91,7.76,8.85,11.65.66.87,1.16,1.86,2,3.31-11.11,1.9-21.71,3.86-32.36,5.47a106,106,0,0,0-29,8.94c-4.25,2-7.34,6.36-11.24,9.27a20.89,20.89,0,0,1-6,3.41,7.07,7.07,0,0,1-1.72.31c-9.67.44-19.36.18-29.05.18-7,0-14.08.08-21.12-.06a52,52,0,0,1-6.32-.43c-1-.14-2-.32-3-.54a7.21,7.21,0,0,1-3.72-3c-4-6.08-8.29-11.58-16-13.56-3.9-1-7.43-3.46-11.13-5.26-8.41-4.11-16.93-8-25.15-12.49-2-1.07-3.22-3.88-4.27-6.15-2.35-5.1-4.12-10.48-6.57-15.52-3.34-6.87-7-13.6-10.72-20.25-4.94-8.8-11.22-16.42-19.67-22.14-3.38-2.29-6.38-5.14-9.76-7.42-1.6-1.08-3.74-1.29-5.53-2.14-5.41-2.57-10.76-5.28-16.16-7.89V653.13c5.12-.57,9.52-.15,13.76,4.12,3.85,3.87,9.5,5.87,14,9.22,5,3.77,9.44,8.27,14.32,12.2,5.67,4.57,11.36,9.23,18.71,10.89,7.13,1.61,14.25,3.36,21.45,4.54,3.93.64,8,.26,12.05.26,7.71,0,15.44.32,23.12-.15,10.28-.62,20.52-1.89,30.78-2.84,12.8-1.19,23.79-7.66,35.56-11.9,7.34-2.65,15.32-3.57,23-5.13,7.05-1.42,14.06-.51,21,.89,2.2.44,4.25,1.52,6.41,2.19a119.74,119.74,0,0,1,29,13.24c7.42,4.7,14.57,9.86,22.14,14.31,3.79,2.22,7.2,6.18,12.61,4.37,6.35,16.29,12.59,32.27,19,48.66C320.9,760.27,311.6,762.55,302.34,764.95Zm213.09,93.68a8,8,0,0,1-1.77,1.95c-3.42,2.9-7,5.59-10.29,8.68-5.3,5-12.25,5.64-18.74,6.76-6.86,1.19-6.83.49-8.08-6.56a7.65,7.65,0,0,0-3-4.43c-1.82-1.27-4.17-1.79-7-2.9,3.28-3,6.26-5.28,8.69-8a100.86,100.86,0,0,0,8.14-10.74A111,111,0,0,0,499.23,805c2.13-9.88,2-20.45,1.56-30.64-.38-9.52-2.05-19.05-3.88-28.43-3.08-15.8-6.59-31.52-10.22-47.21-1.59-6.86-3.95-13.52-5.92-20.29-1.43-4.93-2.61-10-4.23-14.83-3.17-9.51-6.67-18.9-9.84-28.4-2.87-8.59-5.2-17.35-8.3-25.85-2.55-7-5.93-13.71-8.83-20.59-1.58-3.76-2.75-7.7-4.42-11.41-5.25-11.66-11.28-22.92-22.37-30.07-9.59-6.19-19.63-11.68-29.4-17.59-6.45-3.89-12.79-8-19.17-12-9.53-6-19-12-28.58-18-7.65-4.79-15.29-9.64-23.05-14.26s-15.74-9-23.62-13.52c-2.94-1.69-6-3.22-8.77-5.15-6.18-4.29-12.3-8.68-18.29-13.23-5.16-3.92-9.92-8.39-15.19-12.14-3.48-2.47-7.51-4.17-11.35-6.1-3.55-1.79-7.19-3.4-10.77-5.12-7.85-3.77-15.93-3.92-24.34-2.2-4.39.9-9,.8-13.36,1.15-2.41-5.66-4.64-10.93-6.85-16.13,10.69-2.82,20.83-2.58,30.81,2,2.75,1.27,6.23.84,9.2,1.76a133.53,133.53,0,0,1,41.07,21.44c10.87,8.17,22.34,15.56,33,24,7.91,6.26,17.27,9.45,25.8,14.33,8.77,5,17.26,10.55,26,15.58,5.31,3.05,10.93,5.55,16.37,8.36s11,6.1,16.68,8.73c11.93,5.53,24,10.77,36,16.16,10.54,4.72,21.14,9.31,31.56,14.3,4.73,2.26,9,5.53,13.6,8,7.06,3.8,14.14,7.57,21.44,10.86,9.85,4.44,19.7,9.07,30,12.34,7.21,2.29,15.11,2.4,22.69,3.61,6.69,1.07,13.36,2.29,20,3.45a11.66,11.66,0,0,0,2.23.38c14.08-.18,28.17-.14,42.24-.73,4.35-.18,8.62-2.13,13-3.19,1.57-.39,3.28-.3,4.81-.79,5-1.61,9.93-3.4,14.9-5.08a5.14,5.14,0,0,1,3.44,0c-2.6,3.77-5.45,7.4-7.74,11.36a163.94,163.94,0,0,0-8.93,17.37c-.78,1.83.12,4.67.87,6.83,2.6,7.44,7.68,13.22,13.44,18.3s7.56,11.8,9,19c1.85,9.32,6,17.4,14.78,22.5,4,2.31,7.14,6.06,11.21,8.05a13,13,0,0,0,11.76.2c4.27-2,9.23-3.56,13.86-3.51,3,0,6,3.24,8.82,5.24.35.26,0,1.95-.43,2.81-3.78,8-10.13,13-18.15,16.63-4.71,2.11-8.94,5.42-13.1,8.55a50.86,50.86,0,0,0-6.79,6.85,28.94,28.94,0,0,0-7.79,22c.26,4.88-1.12,10-2.67,14.75-.75,2.28-3.44,4.08-5.56,5.69-2.44,1.85-5.27,3.18-7.85,4.86-1.44.95-2.65,2.23-4.06,3.24-5.27,3.76-10.58,7.46-15.85,11.22a2.94,2.94,0,0,0-1.12,1.49c-1,3.79-4.14,5.74-6.78,8.12s-5.39,4.91-8.19,7.23a8.06,8.06,0,0,1-3,1.24c-1.92.53-4.13.51-5.77,1.49-4.4,2.63-9,2-13.78,2-7,0-13.94,1.12-20.91,1.8a28.19,28.19,0,0,1-3.31.62c-7.65-.18-12.62,4.53-17,9.79a173.18,173.18,0,0,0-11.64,15.88c-4.4,6.71-8.43,13.65-12.51,20.55C522.2,846.67,518.87,852.68,515.43,858.63ZM896.94,897h-3.43c-8.5.71-17,1.27-25.67,1.88V902h-4.41l2.71-2.11L866,899c-6.77,0-13.53.07-20.3,0q-27.17-.33-54.33-.79a13.2,13.2,0,0,1-5.45-1.18,15.23,15.23,0,0,1-3.9-2.67c-5.82-5.36-11-11-14.52-18.13-.39-.79-1.48-1.27-2.3-1.81s-2.13-.8-2.55-1.56c-3.12-5.73-9.23-8-13.84-12-3.74-3.23-8.38-5.43-12.62-8.07a67.93,67.93,0,0,0-7.66-4.66,7,7,0,0,0-5.07-.19c-1,.43-2,2.46-2,3.8-.21,7.33.36,14.71-.29,22-.48,5.41-2.42,10.68-3.66,16-.55,2.4-1,4.8-1.56,7.25H656c2.31-1.87,4.05-4.52,5.88-7.12,1.14-1.63,3.28-2.55,5-3.76.88-.63,1.9-1.09,2.74-1.76,3.79-3,7.74-5.84,11.23-9.16,4.07-3.88,7.79-8.14,11.54-12.35,4.72-5.29,9.18-10.83,14-16,5.9-6.3,12-12.46,18.22-18.4a20.37,20.37,0,0,1,7.44-4.34c12.59-4.16,25.32-6.63,38.4-1.82a22.15,22.15,0,0,0,6.69.9c5.18.2,9.63,2.23,14.22,4.49,2.75,1.34,6.39.6,8.79,3.47,2.57,3.05,5.84,5.58,8,8.87,2,3.06,2.93,6.9,4.63,10.24a4.74,4.74,0,0,0,3.1,2.22c7,1,14,1.88,21,2.44,1.82.14,3.72-1.11,5.62-1.6a69.53,69.53,0,0,1,19.56-2.38A80.93,80.93,0,0,0,879,849.59c4.86-.87,8.23-4.39,11.26-8.31,1.75-2.28,4.29-4,6.64-5.75ZM826.61,784.47c3.19-8.73,10.1-13.08,17.93-16.63,2.73-1.24,5.26-2.94,8-4.11,1.37-.58,3.59-1.15,4.52-.47a163,163,0,0,1,14.86,12c1,.93.77,3.74.39,5.52-1.79,8.38-8.43,12.91-14.68,17.54-1.67,1.24-4.24,1.27-6.27,1.83-7.69-2.55-15.4-4.39-22.42-7.69C824.84,790.54,824.94,789,826.61,784.47Zm70.76-326.21a9.2,9.2,0,0,1-.43,7.16c-1.62,3.07-5.08,5-8.25,6.65-5.5,2.93-11.7,4.53-17.65,6.53a9.57,9.57,0,0,1-4.11.08c-5.61-.67-11.19-1.84-16.81-2.07a172.38,172.38,0,0,0-18.49.56c-7.77.51-15.3,2.26-22.86,4.2-10,2.55-18.57,7.84-27.43,12.65-9.75,5.3-19.65,10.39-29,16.3a20.84,20.84,0,0,0-7.87,9.71c-5.34,14.39-7.36,29.61-8.89,44.8-1.15,11.42,5.21,19.87,12.77,27.39,1.51,1.49,3.87,2.25,6,3,3.31,1.18,6.81,1.85,10.08,3.12a20.18,20.18,0,0,1,11,9.79c4.07,7.68,10.27,13.31,19.14,14.67,8.66,1.32,18.67,0,23.25-8.41,4-7.44,4.2-15.37,1.83-23.06-1-3.13-4.64-5.39-6.94-8.15-4.43-5.33-8.75-10.73-13.11-16.1-.24-.3-.4-.65-.63-1-5.51-7.37-4.59-12.87,3.1-18.63,1.86-1.39,3.5-3.16,5.51-4.29,5.88-3.29,12-3.77,18.78-2.61,11.22,1.89,22.66,2.25,33.45-2.64a28.35,28.35,0,0,0,8.12-5.26c4.83-4.77,10.36-5.52,16.67-4.45,3.84.66,7.74.86,12.45,1.3l.94.09v20.47a7.49,7.49,0,0,0-.94,0c-5.2.15-7.35,4.73-10.42,7.58-5.24,4.85-9.85,10.43-14.56,15.84-3,3.49-3.56,7.89-4.16,12.35a165.6,165.6,0,0,1-4.14,22.64c-1.07,3.81-4.17,7.13-6.61,10.47-5,6.8-9.06,14.55-16.78,18.78-6.67,3.65-13.33,7.82-20.52,9.9-10.8,3.13-18.54,9.7-24.37,18.6-6.7,10.21-12.59,21-18.66,31.56-2,3.56-3.64,7.39-5.33,11.15a4.84,4.84,0,0,0,0,3.76c1.88-1.66,3.73-3.37,5.65-5,9-7.55,18.52-13.58,30.87-14,5.6-.17,11.13-2.06,16.74-2.65,9.48-1,18.84-2.36,28.57-1,8.46,1.21,16.73-.69,22.52-8.48A108,108,0,0,1,886.6,669.6c3.22-3.17,6.7-6.08,10.34-9.2v51.9a25.37,25.37,0,0,1-3.18,2.61c-8.23,6-17.63,8.17-27.38,9.86a55.16,55.16,0,0,1-20.88-.64c-2.77-.57-5.72-.24-8.56-.53-1.65-.18-3.24-.92-4.89-1.19-3.82-.63-8.16-.2-11.38-1.91-4.8-2.55-9.57-1.61-14.38-1.91-6.5-.41-11.91,1.48-16.42,6.59-7.95,9-18.48,14.36-29.17,19.28-7.05,3.24-14.74,5.32-21.29,9.33a141.46,141.46,0,0,0-21.07,16.42c-5.23,4.77-9.62,10.51-14.16,16-5.88,7.14-11.34,14.64-17.4,21.61-1.94,2.24-5.07,3.64-7.89,4.88-5.34,2.34-11.74,3.16-16.1,6.64-10.36,8.22-22.44,14.28-31.15,24.61a88.53,88.53,0,0,1-8.72,8.77c-.9.81-2.59.74-3.92,1-6.37,1.44-12.68,3.27-19.12,4.22a27.25,27.25,0,0,0-20.48,13.74c-2.08,3.46-3.93,7.09-6.28,10.34-1.83,2.52-4.41,4.48-6.42,6.87-1.33,1.58-2,3.71-3.42,5.23-.81.89-1.7,2-2.64,2.82a5.23,5.23,0,0,1-2.76,1.53A36.88,36.88,0,0,1,541.81,897a27.4,27.4,0,0,1-2.92-1.2c-1.52-2,1.29-5.35-3.29-6.49,4.34-5.86,8.33-11.59,12.68-17,5.78-7.22,11.8-14.26,17.78-21.32a34,34,0,0,1,14.26-10c7.27-2.81,14.53-3.46,22.12-3.81,3.55-.16,7-2.52,10.5-4,7-3,14.33-5.45,20.86-9.28,5.59-3.27,10.43-7.74,12.67-14.64,1.47-4.52,4.35-8.73,7.24-12.59a42.09,42.09,0,0,1,9.18-9.08c4-2.85,8.73-4.77,13.15-7.09.22-.12.57-.07.71-.23,6-7.12,15.67-8.44,22.21-14.6a15.86,15.86,0,0,0,2.88-4.54c4.32-8.59,11.17-14.29,19.79-18.26a31.52,31.52,0,0,0,8.9-6.09c4.62-4.58,9.34-9.26,12.89-14.66,4.05-6.15,7.34-12.92,7.26-20.74-.07-6.67-.07-13.34.2-20,.22-5.31.7-10.61,1.39-15.87.77-5.92-2.69-9.86-5.84-14.05-4.06-5.4-7.93-10.92-12.08-16.24-3.39-4.35-7.08-8.45-10.63-12.67-4.86-5.78-9.56-11.71-14.63-17.3a46.25,46.25,0,0,1-7.41-10.11c-2.86-5.56-3-11.51-3.49-17.29a78,78,0,0,1,2.28-28.57c4.12-14.52,8.34-29,11.74-43.73,2.35-10.19,7.73-17.46,15.1-24.82,6.79-6.77,15.07-10.62,22.42-16.07,8.39-6.23,18.66-7.64,28.75-4.07,5.47,1.94,10.56,5.09,15.61,8,5.8,3.37,11.9,3,18,1.94,6.34-1.11,12.31-3.17,17.5-7.4,1.73-1.41,4.73-1.16,7.06-2,6.77-2.33,9.83-8.39,13.08-14,2.29-4,3.75-8.39,5.43-12.29,8.16,2.85,16.5,3.46,24.59.65,8.39-2.9,12.11-10.84,17.17-18.31.07-.12.15-.23.23-.35a41.34,41.34,0,0,1,.78,5.71c-.14,11.27-.39,22.54-.6,33.82A6.34,6.34,0,0,0,897.37,458.26Z"/></g></g></svg>