<svg xmlns="http://www.w3.org/2000/svg" viewBox="0 0 909.83 909.84"><defs><style>.cls-1{fill:#ce242b;}.cls-2{fill:#fed6af;}</style></defs><title>1_4_frame2</title><g id="Layer_2" data-name="Layer 2"><g id="Layer_8" data-name="Layer 8"><path class="cls-1" d="M38.25,32.5V70.08l0,.28c.3,3.22,1,6.81,0,9.69V317.83c.06,2.84.1,5.68.07,8.52,0,1.37,0,2.73-.07,4.09V533.65c-1.08,1.22-.7,2.54,0,3.94V877.34h833v-155c-.1-1.58-.17-3.16-.21-4.74-.1-3.45,0-6.89.21-10.34V32.5ZM836.34,57a89.37,89.37,0,0,1,3.36-9.63c.5-1.38,1-2.74,1.59-4.1H860V65.83a13.35,13.35,0,0,1-6.24,2.5c-1.71.27-3.43.5-5.1.93C840.73,71.3,834.36,65.06,836.34,57Zm-120,205.82a59.73,59.73,0,0,1,6.57-10.24c2.18-2.58,5.31-4.3,7.84-6.61,9.19-8.38,18.28-17,23.28-28.75,1.88-4.44,2.66-9.45,3.39-14.29s-1-9.21-3.57-13.62c-4.85-8.38-9-17.21-13-26-1.21-2.65-1.28-6-1.36-9-.23-9.55.23-19.14-.43-28.65-.45-6.52-2.63-12.9-3.48-19.4-1.69-12.85-3.47-25.91-.47-38.65,1.81-7.67,5.5-14.95,8.93-22.11a7.1,7.1,0,0,1,1.59-2.18c2-1.87,5-2.32,8-1.79,2.37.4,4.67,1.21,6.8,1.79.28,2.28,1,4.46.72,6.54-.42,3.42-.63,7.31-2.38,10-6.37,9.93-6.27,20.84-5.13,31.76,1,9.45,3.05,18.79,4.58,28.19.33,2.08.25,4.23.56,6.31.55,3.65,1.41,7.25,1.86,10.91a61,61,0,0,1,.43,9c-.06,2.68-1,5.41-.68,8,.16,1.32,2.07,3.33,3.34,3.46,5.9.61,8.88-.85,9.48-7.7,1.06-11.86,6.14-21.89,12-31.72a80.65,80.65,0,0,1,6.24-8.27c2.36-3,1.94-6.51,1.49-9.84a53.25,53.25,0,0,0-2.5-10.16c-1.26-3.68-.15-7,1.15-10.19,2.9-7.26,7.28-13,15-15.88,2.71-1,4.79-3.79,7.15-5.76l.58.51a55,55,0,0,1-1.59,7.5c-2.43,6.8-1.5,13.62-.9,20.55.29,3.25-.69,6.63-1.22,9.92-.46,2.83-1.21,5.61-1.6,8.45a2.73,2.73,0,0,0,1.15,2.29,42.08,42.08,0,0,0,5.87,1.54c2.56.59,3.67-1,4.69-3.05,3.09-6.23,8.6-9.52,14.84-11.34,3.6-1.06,7.54-1.13,11.34-1.31,3.49-.17,7,.23,9.47-4.21.46,4.66.73,8.31,1.24,11.94A34.06,34.06,0,0,0,858.9,105c.34,1.22.83,2.47,1.08,3.7a6.6,6.6,0,0,1,.15,1.74c0,.61-.09,1.22-.15,1.83a107.69,107.69,0,0,1-1.57,11.1,11.11,11.11,0,0,1-2.49,5.34c-3.25,3.45-5,7.55-6.69,11.89-2.75,7-6,13.74-9.21,20.52-4,8.37-8.47,16.5-12,25a99.46,99.46,0,0,0-5.88,19.49c-2.05,10.71-3,21.64-4.89,32.39-2.56,15-6.19,29.56-13,43.32-5,10-8.45,20.8-12.65,31.22-5.45,13.51-10.85,27-16.47,40.46-3.7,8.86-7.78,17.55-11.68,26.31a20.69,20.69,0,0,0-.64,2.56c5.33-3.72,10.1-6.71,14.49-10.19,5-4,10.09-7.91,14.27-12.68a207.56,207.56,0,0,0,16.5-21.6c5.42-8.11,10-16.77,15.07-25.16,3.85-6.45,8-12.72,11.6-19.34,4.59-8.48,8.7-17.23,13.06-25.84,3.41-6.74,6.88-13.45,10.77-21.08.51,5.57,1.11,10.51,1.48,15.32.12,1.49.21,3,.28,4.44.27,6.41,0,12.85-.06,19.27a3,3,0,0,1-.15,1.4l-.06.1c-2.61,4.14-5.37,8.2-7.87,12.43a47.18,47.18,0,0,0-2.87,6.73c-.62,1.59-1,3.28-1.66,4.85-2.66,6.32-5.15,12.74-8.2,18.87-1.56,3.14-4.16,5.76-6.29,8.61a5.67,5.67,0,0,0-1,1.41c-1.75,5.55-6.54,9-9.21,13.95a60.2,60.2,0,0,1-5.65,9.09c-3.7,4.6-7.86,8.8-11.68,13.3-2.15,2.53-3.92,5.4-6.05,7.95-2.91,3.47-5.51,7.55-9.15,9.95-5.24,3.46-11.17,5.94-17,8.29-5.53,2.21-11.23.79-16.94-.08a139.12,139.12,0,0,0-20-1.41c-3.21,0-6.42,1.35-9.64,2.09l-.65-.82c3-4.19,5.94-8.34,8.83-12.58,4.08-6,9.3-11.22,10.41-19.09.56-4,3-7.59,4.25-11.49,3-9.78,4.86-19.8,3.56-30.09-.89-7-5.85-11.52-10.86-15.75-5.5-4.65-10.87-9-14.44-15.88-4.92-9.49-7.78-19.69-11.9-29.42A6.2,6.2,0,0,1,716.33,262.82ZM49.51,43.27H696.11c-2.16,5.49-4.17,10.51-6.06,15.58-.84,2.29-1.36,4.71-2,7.08-2.6,10-2.93,20.22-2.27,30.43.24,3.72,1.82,7.37,2.93,11,1.74,5.69,3.42,11.42,5.53,17,.8,2.08,2.83,3.63,4.11,5.55,2.54,3.87,4.85,7.89,7.44,11.71,4.29,6.34,5.64,13.63,6.51,21,.46,3.88,0,7.91-.33,11.85-.39,4.8-.5,9.71-1.7,14.32-2.26,8.76-5.1,17.38-7.95,26a18.19,18.19,0,0,1-3.64,5.78c-3.92,4.61-8,9.07-12.08,13.56a6.62,6.62,0,0,1-1.91,1.49,35.88,35.88,0,0,0-15.38,14.09c-2.58,4.2-6,7.86-8.88,11.84-4.33,6-4,12.79-3.86,19.81.19,9.81,7.49,15,12.28,21.89,2.7,3.87,5,8,7.72,11.84,2.54,3.57,5.65,6.73,8.05,10.38,3.72,5.64,7.69,11.26,7.92,18.5.31,9.9-1.85,19.33-4.67,28.77a107.38,107.38,0,0,1-10.68,24.49c-3.12,5.22-6.51,10.26-9.72,15.43-.83,1.34-1.45,2.83-2.2,4.33-3-6.88-5.79-13.57-8.7-20.22-3.36-7.72-6.85-15.39-10.17-23.12-2.06-4.79-3.54-9.87-6-14.44-5.07-9.57-10.54-18.93-15.94-28.32C618,319.53,611.41,308.3,604.9,297c-2.85-5-5.59-10-8.12-14.48,7.34-2.12,14.63-3.14,20.87-6.32,7.47-3.8,13-10.22,13.78-19.48.9-10.51,1-21.13-3.2-30.9a224.06,224.06,0,0,0-13.87-26.25,186.91,186.91,0,0,0-13.76-19.37c-2.34-3-5.56-5.26-8.57-7.61-8.49-6.6-16.73-13.63-25.75-19.41a121.14,121.14,0,0,0-30.06-13.84,103.74,103.74,0,0,0-39.36-4.3c-4,.35-7.85,2.21-11.79,3.27-2,.52-4.27.34-6,1.27a50.12,50.12,0,0,0-10,6.6c-4.46,4-9,8.19-12.39,13.1-3.48,5.09-5.56,11.16-8.3,16.78-1.17,2.42-2.73,4.68-3.67,7.18-3.36,8.93-6.07,18.13-3.8,27.71a86.68,86.68,0,0,0,6,16.07c4.85,10.54,9.54,21.19,15.22,31.26,9.89,17.54,20.78,34.5,30.68,52,7.13,12.62,13.36,25.78,20,38.72,3,5.81,6.17,11.53,8.66,17.55,3.15,7.66,5.66,15.6,8.49,23.4q7.4,20.38,14.86,40.74,3.26,8.89,6.5,17.79c1.38,3.8-3,8.57-7,8.51-4.93-13.19-9.49-26.22-14.66-39S518.78,392.52,512.92,380c-5.23-11.18-10.92-22.14-16.7-33-4.91-9.28-10.35-18.25-15.29-27.5-4.17-7.8-7.8-15.89-12-23.69-9.58-18-19.46-35.78-29-53.77-3.78-7.14-6.72-14.74-10.5-21.88-1.77-3.34-19.7-35.68-46.48-47-32-13.49-88.28-6.53-116.48,7.73-32,16.16-25.51,19.82-51.35,38.81-17.36,12.76-13.87,5.21-31.79,14.42-2.12,1.09-27.85,9.5-30.46,10.53-6.23,2.46-24.5,12.53-25.06,12.64-5.59,1.18-35.79,11.43-44.18,12.64-2.71.39-29,5.58-31.16,4.91,0-3.92,1.53-95.77,1.62-100.47,0-.74,45.47,5.49,49.08-12.79,3.42-17.34,60.61-58,81.13-69.46,38.39-21.35,74.93-43.59,76.47-51.36,2-10-38-2.25-38-3.18,0-5.18-71.51,2.75-80.53,31.39-12.76,40.53-87.87,56.83-87.95,52.71-.09-4.8-.75-9.58-1.23-14.37-.61-6.17,78.49-57.84,77.76-64C130.33,38.81,49.51,43.27,49.51,43.27Zm210.26,506.5a27.36,27.36,0,0,1-2.6-1.75c-4.43-3.42-8.84-6.84-13.76-10.67,5.3-.78,10.72-1.64,16.16-2.29.82-.1,2.32.56,2.5,1.18a57,57,0,0,1,2.59,10.87C264.95,550.33,262.55,551.41,259.77,549.77Zm6,39.56c3.44,2.3,6.72,4.85,10.28,6.94,4.54,2.66,4.9,7.39,6.22,11.69,1.16,3.75,2.21,7.52,3.54,12.08-7.08-2.68-13.23-5.42-19.63-7.29-4.49-1.32-9.31-1.58-14-2.09-3.77-.42-7.66-1.13-11.34-.63-4.84.66-9.48,2.86-14.32,3.51-6.52.88-10.81,5.88-16.54,8.18-9.5,3.81-18.59,8.76-28.22,12.17s-19.74,5-30,1.23-19.34-9.16-28.32-15.2c-10.89-7.33-19.57-17.58-31.19-23.9a15.71,15.71,0,0,1-4.58-4.24c-3.76-4.83-9.13-6.91-14.41-9.14C67.05,580,60.78,577.69,54.64,575a3.9,3.9,0,0,1-2-2.77c-.2-5-.09-10-.09-15.45,4-.45,8-1,12.11-1.36,4.58-.4,9.18-.72,13.77-.89a9,9,0,0,1,4.23.8c6.77,3.41,14.12,5.65,19.9,11,4.59,4.27,9.21,8.65,14.4,12.09a179.9,179.9,0,0,0,23.69,13.79c11,5.09,22.66,3,34.11,1.18a45.34,45.34,0,0,1,6.11-1c8.16-.18,14.9-4.59,22.23-7.31a59.13,59.13,0,0,1,9-2.06c3.36-.68,7-.71,10.1-2,5.25-2.2,10.45-1.88,15.58-.54,8.58,2.26,17,5.05,25.52,7.65A9.36,9.36,0,0,1,265.78,589.33Zm-22.63-89.78c-7.83-.28-15.66-.46-23.49-.83-14.61-.69-27.24,4.76-39.23,12.57-5,3.23-10,6.54-15.5,8.62-5.91,2.24-12.27,3.35-18.52,4.46-7.68,1.37-15.47,3.11-23.2,3s-15.46-2-23.14-3.48c-8.67-1.62-17.29-3.56-25.94-5.37-1-.21-2-.48-3-.68-3.48-.72-7-1.41-10.44-2.1l-10.47-2.06V465.05c4.92-3.65,9.74-3.31,14.85-2.53,9.77,1.48,19.63,2.41,29.43,3.73,3.39.46,6.69,1.56,10.07,2.14,5.33.91,10.68,1.64,16,2.41a32.93,32.93,0,0,0,3.81.24c10.84.29,21.7.15,32.5,1,8.68.69,17.27,2.6,25.91,3.9,2.72.4,5.51.46,8.22.93,10.34,1.79,20.66,3.57,31.23,2.68,1.55-.13,3.26,1,4.74.71,4.14-.85,8.2-2.13,12.56-3.31l6.76,18.15C247.92,499.36,247.67,499.7,243.15,499.55ZM113.39,335.45c3.32-1.82,7.09-2.8,10.67-4.15,3.33,1.18,6.35,1.68,8.65,3.28a6.22,6.22,0,0,1,1.82,5.45c-.44,1.55-2.72,2.82-4.46,3.67a108.32,108.32,0,0,1-10.14,4.17c-3,1.11-8.91-1.52-10.25-4.41C108.78,341.48,110.36,337.11,113.39,335.45ZM68.53,832.81c-3.09,2.94-6.58,5.12-11.19,4.59a4.82,4.82,0,0,0-3.53,1,6.29,6.29,0,0,1-4.31,2V809.24c.29.18.59.37.87.56,3.84,2.58,7,6.21,10.91,8.68,4.1,2.6,6.22,6.5,8.22,10.55C70,829.93,69.36,832,68.53,832.81Zm246.26-89.14c-4.2,1.1-8.32,2.27-11.75,5.37s-7.37,5.34-10.73,8.4a35.87,35.87,0,0,0-6.17,7.7c-2.92,4.77-6.05,9.51-6.59,15.37-.16,1.63-.72,3.22-.76,4.84-.19,6.79-.4,13.59-.32,20.38.08,8,3,15.09,7.23,21.62,2.45,3.79,5.42,7.21,8.11,10.83.61.81,1.06,1.73,1.87,3.08-10.19,1.76-19.91,3.59-29.67,5.09a96.24,96.24,0,0,0-26.58,8.31c-3.9,1.85-6.73,5.92-10.31,8.62a19.09,19.09,0,0,1-5.49,3.17,6.4,6.4,0,0,1-1.58.28c-8.87.41-17.75.17-26.64.17-6.46,0-12.91.07-19.37-.06a47.07,47.07,0,0,1-5.79-.4c-.94-.13-1.86-.29-2.78-.51a6.63,6.63,0,0,1-3.41-2.83c-3.7-5.65-7.6-10.77-14.66-12.6-3.58-.94-6.81-3.22-10.21-4.89-7.71-3.82-15.52-7.45-23.06-11.61-1.8-1-3-3.61-3.91-5.71-2.15-4.74-3.78-9.74-6-14.42-3.06-6.38-6.39-12.64-9.83-18.82-4.53-8.18-10.29-15.27-18-20.58-3.1-2.13-5.85-4.78-8.95-6.9-1.47-1-3.43-1.2-5.07-2-5-2.39-9.87-4.91-14.82-7.33V639.71c4.69-.53,8.73-.14,12.62,3.83,3.53,3.6,8.71,5.46,12.8,8.57,4.58,3.51,8.66,7.69,13.13,11.35,5.2,4.24,10.42,8.58,17.16,10.12,6.54,1.5,13.07,3.12,19.67,4.22,3.6.6,7.36.24,11,.24,7.07,0,14.16.29,21.2-.14,9.43-.58,18.81-1.75,28.22-2.64,11.74-1.1,21.81-7.12,32.6-11.06,6.73-2.46,14-3.32,21.13-4.77,6.46-1.32,12.89-.48,19.25.83a61,61,0,0,1,5.88,2,109.08,109.08,0,0,1,26.61,12.31c6.8,4.37,13.36,9.17,20.3,13.3,3.48,2.07,6.6,5.74,11.56,4.06,5.82,15.14,11.54,30,17.41,45.24C331.81,739.32,323.28,741.43,314.79,743.66Zm195.38,87.1a7.42,7.42,0,0,1-1.62,1.81c-3.14,2.69-6.46,5.2-9.43,8.07-4.86,4.67-11.23,5.25-17.18,6.28-6.29,1.1-6.26.46-7.41-6.1a7.11,7.11,0,0,0-2.74-4.12c-1.67-1.19-3.82-1.66-6.4-2.69,3-2.78,5.74-4.91,8-7.48a93.66,93.66,0,0,0,7.46-10,104,104,0,0,0,14.51-35.67c2-9.19,1.82-19,1.43-28.49A177.89,177.89,0,0,0,493.19,726c-2.82-14.69-6-29.31-9.37-43.89-1.46-6.38-3.62-12.57-5.43-18.86-1.31-4.58-2.39-9.25-3.88-13.79-2.91-8.84-6.12-17.58-9-26.4-2.63-8-4.77-16.13-7.61-24-2.34-6.51-5.44-12.74-8.1-19.15-1.45-3.49-2.52-7.16-4.05-10.61-4.81-10.84-10.34-21.31-20.51-28-8.79-5.75-18-10.86-27-16.35-5.91-3.62-11.73-7.41-17.58-11.14-8.74-5.58-17.46-11.2-26.2-16.76-7-4.46-14-9-21.13-13.26s-14.43-8.38-21.66-12.57c-2.7-1.57-5.49-3-8-4.79-5.67-4-11.28-8.07-16.77-12.3-4.73-3.65-9.1-7.8-13.93-11.28-3.19-2.3-6.89-3.88-10.41-5.67-3.26-1.66-6.59-3.16-9.88-4.76-7.2-3.5-14.61-3.65-22.32-2-4,.84-8.24.74-12.25,1.07-2.21-5.26-4.25-10.16-6.28-15,9.8-2.62,19.1-2.4,28.25,1.86,2.52,1.18,5.71.78,8.44,1.64a121.86,121.86,0,0,1,37.66,19.94c10,7.6,20.48,14.47,30.26,22.31,7.25,5.82,15.83,8.78,23.66,13.32,8,4.68,15.83,9.81,23.86,14.49,4.87,2.84,10,5.16,15,7.77s10.08,5.67,15.29,8.11c10.94,5.14,22,10,33,15,9.66,4.39,19.38,8.65,28.94,13.29,4.34,2.1,8.22,5.14,12.47,7.45,6.47,3.53,13,7,19.66,10.1,9,4.12,18.06,8.43,27.47,11.47,6.61,2.13,13.85,2.23,20.8,3.35,6.13,1,12.25,2.13,18.37,3.21a10.55,10.55,0,0,0,2,.35c12.91-.17,25.83-.13,38.73-.68,4-.17,7.9-2,11.87-3,1.44-.36,3-.28,4.41-.74,4.58-1.5,9.1-3.16,13.66-4.72a4.65,4.65,0,0,1,3.15,0c-2.38,3.51-5,6.88-7.1,10.57a153.22,153.22,0,0,0-8.19,16.15c-.72,1.7.11,4.35.8,6.35,2.38,6.92,7,12.29,12.32,17s6.93,11,8.25,17.7c1.7,8.66,5.54,16.18,13.55,20.92,3.63,2.15,6.55,5.63,10.28,7.49a11.73,11.73,0,0,0,10.78.18,29.91,29.91,0,0,1,12.71-3.26c2.73,0,5.48,3,8.09,4.87.32.24,0,1.81-.39,2.61-3.47,7.46-9.29,12.13-16.64,15.46-4.32,2-8.2,5-12,7.95a47,47,0,0,0-6.23,6.37,27.13,27.13,0,0,0-7.14,20.49c.24,4.54-1,9.33-2.45,13.72-.69,2.12-3.15,3.79-5.1,5.29-2.24,1.72-4.83,3-7.2,4.52-1.32.88-2.43,2.08-3.72,3-4.83,3.5-9.7,6.94-14.53,10.43a2.73,2.73,0,0,0-1,1.39c-.91,3.53-3.8,5.34-6.22,7.55s-4.94,4.57-7.51,6.73a7.34,7.34,0,0,1-2.71,1.15c-1.76.5-3.79.48-5.29,1.39-4,2.44-8.25,1.85-12.63,1.87-6.39,0-12.78,1-19.17,1.67a25.53,25.53,0,0,1-3,.58c-7-.17-11.57,4.21-15.59,9.1A160.92,160.92,0,0,0,531.06,795c-4,6.24-7.73,12.69-11.47,19.11C516.38,819.64,513.33,825.23,510.17,830.76ZM860,866.43h-3.14c-7.79.66-15.61,1.18-23.54,1.75V871h-4l2.48-2-.17-.81c-6.21,0-12.41.06-18.61,0q-24.91-.3-49.82-.74a12,12,0,0,1-5-1.09,14,14,0,0,1-3.58-2.48c-5.34-5-10.09-10.23-13.31-16.86-.36-.73-1.36-1.18-2.11-1.68s-2-.74-2.34-1.45c-2.86-5.33-8.46-7.44-12.69-11.13-3.43-3-7.68-5-11.57-7.51a62.13,62.13,0,0,0-7-4.34,6.36,6.36,0,0,0-4.65-.17c-1,.4-1.8,2.29-1.83,3.54-.19,6.82.33,13.68-.27,20.44-.44,5-2.22,9.93-3.36,14.89-.5,2.23-1,4.46-1.43,6.74h-54.9c2.12-1.74,3.71-4.2,5.39-6.62,1-1.52,3-2.37,4.58-3.49.81-.59,1.74-1,2.51-1.64,3.48-2.8,7.1-5.43,10.3-8.52,3.73-3.61,7.14-7.57,10.58-11.48,4.33-4.92,8.42-10.07,12.85-14.87,5.41-5.85,11-11.59,16.71-17.11a18.62,18.62,0,0,1,6.82-4C720.37,794.8,732,792.5,744,797a20,20,0,0,0,6.13.84c4.75.18,8.83,2.08,13,4.17,2.52,1.25,5.86.56,8.06,3.22,2.36,2.84,5.35,5.19,7.36,8.25,1.88,2.85,2.69,6.41,4.25,9.52a4.35,4.35,0,0,0,2.84,2.07c6.4.92,12.82,1.75,19.25,2.27,1.67.13,3.41-1,5.15-1.49a62.92,62.92,0,0,1,17.93-2.21,73.2,73.2,0,0,0,15.5-1.26c4.46-.81,7.55-4.08,10.32-7.73,1.6-2.12,3.93-3.71,6.09-5.35ZM795.49,761.82c2.92-8.11,9.26-12.16,16.44-15.46,2.5-1.15,4.82-2.74,7.35-3.82,1.26-.54,3.29-1.07,4.14-.44a149.86,149.86,0,0,1,13.62,11.17c.92.86.71,3.47.36,5.14-1.64,7.79-7.73,12-13.46,16.31-1.53,1.16-3.89,1.19-5.75,1.7-7.05-2.37-14.12-4.08-20.56-7.15C793.87,767.46,794,766.07,795.49,761.82Zm64.88-303.27a8.66,8.66,0,0,1-.39,6.66c-1.49,2.86-4.66,4.61-7.56,6.18-5,2.72-10.73,4.21-16.18,6.07a8.66,8.66,0,0,1-3.77.07c-5.14-.62-10.26-1.71-15.41-1.92a155.89,155.89,0,0,0-17,.52,113.69,113.69,0,0,0-21,3.9c-9.18,2.37-17,7.29-25.15,11.76-8.94,4.92-18,9.66-26.62,15.15a19.33,19.33,0,0,0-7.22,9c-4.9,13.38-6.75,27.53-8.15,41.65-1.05,10.62,4.78,18.48,11.71,25.47,1.38,1.39,3.55,2.09,5.46,2.79,3,1.09,6.24,1.72,9.24,2.9a18.59,18.59,0,0,1,10,9.1c3.73,7.14,9.42,12.38,17.55,13.63,7.94,1.23,17.12,0,21.32-7.82,3.7-6.92,3.85-14.29,1.68-21.44-.88-2.91-4.25-5-6.36-7.58-4.06-5-8-10-12-15-.22-.28-.37-.61-.58-.89-5.05-6.85-4.21-12,2.84-17.32,1.71-1.3,3.21-2.94,5.05-4,5.39-3.06,11-3.5,17.22-2.43,10.29,1.75,20.78,2.09,30.67-2.45a26,26,0,0,0,7.45-4.89c4.43-4.44,9.5-5.14,15.28-4.13,3.52.62,7.1.8,11.42,1.21l.86.08v19a6.78,6.78,0,0,0-.86,0c-4.77.14-6.74,4.4-9.55,7-4.8,4.51-9,9.69-13.35,14.73-2.78,3.24-3.26,7.33-3.81,11.48a155.89,155.89,0,0,1-3.8,21c-1,3.55-3.82,6.62-6.06,9.73-4.57,6.32-8.31,13.52-15.39,17.46-6.12,3.39-12.22,7.27-18.81,9.21-9.9,2.91-17,9-22.34,17.29-6.14,9.49-11.54,19.48-17.11,29.34-1.87,3.31-3.34,6.87-4.89,10.36a4.56,4.56,0,0,0,0,3.49c1.72-1.54,3.42-3.13,5.18-4.63,8.23-7,17-12.62,28.3-13,5.13-.16,10.2-1.91,15.35-2.46,8.69-.95,17.27-2.2,26.2-.9,7.76,1.12,15.34-.64,20.65-7.88a99.91,99.91,0,0,1,10-11.25c3-2.95,6.14-5.65,9.48-8.55v48.25a23.33,23.33,0,0,1-2.92,2.43c-7.55,5.59-16.16,7.6-25.1,9.17a49.89,49.89,0,0,1-19.14-.6c-2.54-.53-5.24-.22-7.85-.5-1.51-.17-3-.85-4.48-1.1-3.5-.59-7.48-.18-10.43-1.77-4.4-2.37-8.77-1.5-13.19-1.77-6-.38-10.92,1.38-15.06,6.13-7.29,8.38-16.94,13.35-26.75,17.92-6.46,3-13.52,4.94-19.52,8.67a130,130,0,0,0-19.32,15.27c-4.8,4.44-8.82,9.78-13,14.89-5.39,6.63-10.4,13.61-16,20.09-1.78,2.09-4.65,3.38-7.23,4.54-4.9,2.18-10.76,2.94-14.76,6.17-9.5,7.64-20.58,13.28-28.56,22.88a81.76,81.76,0,0,1-8,8.15c-.83.75-2.37.69-3.59,1-5.84,1.34-11.63,3-17.53,3.92-8.39,1.25-14.5,5.51-18.78,12.77-1.91,3.22-3.6,6.59-5.76,9.61-1.68,2.34-4,4.16-5.89,6.39-1.22,1.47-1.87,3.45-3.14,4.86-.74.83-1.56,1.83-2.42,2.62a4.78,4.78,0,0,1-2.53,1.42,33.38,33.38,0,0,1-14.73-1.42,24.92,24.92,0,0,1-2.68-1.11c-1.39-1.82,1.18-5-3-6,4-5.45,7.64-10.78,11.63-15.84,5.3-6.72,10.82-13.26,16.3-19.82a31.22,31.22,0,0,1,13.07-9.33c6.67-2.61,13.32-3.22,20.28-3.55,3.26-.15,6.45-2.34,9.63-3.72,6.43-2.77,13.14-5.07,19.13-8.63,5.13-3,9.56-7.19,11.62-13.61,1.35-4.2,4-8.11,6.64-11.7a38.86,38.86,0,0,1,8.42-8.44c3.7-2.65,8-4.44,12.06-6.59.2-.11.52-.06.65-.21,5.46-6.62,14.37-7.85,20.36-13.57a14.78,14.78,0,0,0,2.64-4.22c4-8,10.24-13.28,18.15-17a28.89,28.89,0,0,0,8.16-5.66c4.24-4.25,8.56-8.61,11.82-13.62,3.71-5.71,6.73-12,6.66-19.28-.06-6.2-.06-12.4.18-18.59.2-4.93.64-9.87,1.27-14.75.71-5.5-2.47-9.17-5.35-13.06-3.72-5-7.27-10.15-11.08-15.09-3.11-4-6.49-7.86-9.75-11.78-4.46-5.37-8.77-10.89-13.41-16.09a43,43,0,0,1-6.79-9.4c-2.62-5.17-2.72-10.7-3.2-16.08a73.5,73.5,0,0,1,2.09-26.56c3.78-13.5,7.65-27,10.76-40.65,2.15-9.47,7.09-16.23,13.85-23.08,6.23-6.29,13.82-9.88,20.56-14.94a27.33,27.33,0,0,1,26.36-3.79c5,1.8,9.68,4.73,14.31,7.47,5.32,3.13,10.91,2.78,16.52,1.8,5.81-1,11.29-2.95,16-6.88,1.59-1.31,4.34-1.07,6.47-1.83,6.21-2.17,9-7.8,12-13,2.1-3.67,3.44-7.8,5-11.43,7.48,2.65,15.13,3.22,22.55.61,7.69-2.69,11.1-10.08,15.74-17,.06-.11.14-.21.21-.32a38.94,38.94,0,0,1,.72,5.31c-.13,10.47-.36,21-.55,31.44A6,6,0,0,0,860.37,458.55Z"/></g><g id="newGrid"><path class="cls-2" d="M0,0V909.84H909.83V0ZM871.1,790.06c-.1,25.31,0,50.61,0,75.92v11.36H37.58V34.93c3.94-.17,6.92-.41,9.9-.42,15.62,0,31.24.12,46.86-.09,5.76-.08,11.49-1,17.25-1.49,1.82-.16,3.81-.72,5.46-.23,10.82,3.26,21.87,1.66,32.8,1.7,45.63.2,91.26,0,136.89.1Q573.37,34.74,860,35h11.08V46.87q0,124.92,0,249.84c0,14.51,1,29,.94,43.54-.16,43.21-.75,86.43-.91,129.64,0,13.58,1.11,27.16,1.07,40.74Q871.8,650.34,871.1,790.06Z"/></g></g></svg>