<svg xmlns="http://www.w3.org/2000/svg" viewBox="0 0 909.83 909.84"><defs><style>.cls-1{fill:#ce242b;}.cls-2{fill:#fed6af;}</style></defs><title>1_5_frame2</title><g id="Layer_2" data-name="Layer 2"><g id="Layer_8" data-name="Layer 8"><path class="cls-1" d="M37.58,34.19V877.34h551.3a69.74,69.74,0,0,1,18.72-1q5.92.6,11.85,1H871.09V34.19Zm662.75,61q4.64-6.49,9.18-13a22,22,0,0,0,2-3.34,61,61,0,0,0,3.41-7.93c1.29-4.27,2.17-8.68,3.3-13,.62-2.37,1-4.59-2-6.15,2.06.68,3.58,1.23,4.06-1.61a4.1,4.1,0,0,1,2.94-2.61c5.39-.27,10.81-.13,15.64-.13-.46,10-1,20.17-1.37,30.32-.53,15.4-.66,30.84-3.79,46-.77,3.74-2.39,7.31-3.3,11a30.62,30.62,0,0,0-.71,7c-.06,10.19,0,20.38,2.72,30.31a47.37,47.37,0,0,0,1.82,4.7l1-.17c.16-.71.38-1.41.47-2.13.94-7.63,1.27-15.4,3-22.85,1.25-5.37,4.06-10.47,6.68-15.41,7-13.08,14.73-25.78,21.21-39.12,3.64-7.49,5.91-15.82,7.79-24,1.83-7.94,2.39-16.17,3.57-24.87H794.8A60.6,60.6,0,0,1,799,52.79c6.31,8.46,13.78,16.29,17.18,26.53a75.79,75.79,0,0,1,3.83,20.09c.35,7.6-7.51,15.5-16.3,17.48-6.47,1.45-13.14,2-19.61,3.47-8.64,1.94-16.87,5.1-22.64,12.38A44.44,44.44,0,0,0,755,143.51c-3.38,8.38-6,17-4.33,26.36.65,3.56-.11,7.37.27,11,.3,2.88.79,6,2.19,8.44,3.69,6.36,7.72,12.56,12,18.53,4.08,5.69,8.59,11.1,13.07,16.49,2.9,3.48,7,6.25,9,10.16,3.17,6.26,7.46,12.21,7.38,19.93-.06,6-2.08,11.3-4.54,16.73-4.37-.69-8.06-1.84-10.55-6a121.73,121.73,0,0,0-8.95-12.56c-2.06-2.6-4.51-1-6.5.44-6,4.37-9.52,10.64-12.56,17.21-1.75,3.78-3.22,7.7-4.76,11.59-.92,2.3-3.47,15-4.22,19.92-1.62,10.62-2.88,21.3-4.23,32-1,7.95-2,15.91-2.83,23.89-.63,6.08-.83,12.2-1.5,18.28q-1.64,15-3.62,29.93c-2,15.08-7.48,29.11-13,43.1-.76,1.93-2.24,3.55-3.45,5.4-4.61-2.38-5.26-7.12-5.64-10.91-.72-7.11-.21-14.39.18-21.58.15-2.62,1.35-5.22,2.2-7.78A28.41,28.41,0,0,0,712,400.95c-.39-2.77-1.76-4.27-4.82-4.58-8.66-.86-15.47,2.93-22.21,7.81-3.41,2.46-7.67,3.87-11.72,5.23a3.45,3.45,0,0,1-4.52-4.09,25.6,25.6,0,0,1,3.66-9.25,93.13,93.13,0,0,1,10.37-11.5c1.58-1.57,3.89-2.35,5.73-3.66,4.08-2.9,8.84-5.28,11.87-9.06A27,27,0,0,0,705.58,359a94.29,94.29,0,0,1,8.62-28.26c3.66-7.77,5.79-16.31,8.45-24.55,3.53-11,7.42-21.91,10.17-33.12,1.44-5.85,1.31-12.27.87-18.36-.26-3.54-2.45-7-3.94-10.38a3.19,3.19,0,0,0-2-1.28c-10.86-2.57-20.79-1.78-29.64,6.43-6.5,6-13.82,11.21-21,16.45-4,2.91-8.89,2.61-13.53,2.22-1-.09-2.37-2-2.64-3.31a86.22,86.22,0,0,1-1.59-11.57A41.34,41.34,0,0,1,669.8,222.6c3.3-3.83,7.41-7,11.29-10.29,4.61-3.93,9.56-7.46,14-11.62s8.46-8.95,12.57-13.54a47.9,47.9,0,0,0,4-5.3c5.06-7.52,4.6-13.74-2.73-19-5.21-3.73-11.43-7.08-17.61-8.11-7.78-1.31-16-.16-24,0-3.39.08-6.76.56-10.15.64-5,.12-8.44-4-7-8.86,2.55-8.66,7.5-15.84,13.75-22.64l-3.52,1.56-.43-.81c1.56-.63,3.14-1.82,4.69-1.77,3.35.09,4.58-.61,4.83-3.26a26,26,0,0,0,4.48-1.34c8.4-4.26,15.06-10.89,21.92-17.18C697.6,99.48,698.87,97.2,700.33,95.16Zm-73-54.39M467.88,81.28a66.67,66.67,0,0,1,22.38-20.58c4.17-2.31,5.92-1.42,7.06,3.25a15.91,15.91,0,0,1-2.09,13.23c-3.39,5-6.43,10.47-10.56,14.81-2.84,3-7.07,5-11.06,6.28-5,1.57-8.74-3.12-9-9.87C465.67,86,466.41,83.38,467.88,81.28ZM240.41,44.94c1.32,1,2.67,2,3.88,3.09,1.88,1.73,33.3,20.89,39.67,22.51,6.1,1.56,12.29,2.7,18.43,4.07,1.5.34,3.06,1.44,4.4,1.19,3.53-.66,7.21-1.37,10.36-3,2.82-1.46,4.93-4.28,7.51-6.27,2.74-2.1,8.51-1.89,11.08.43.83.75,2.28,4.25,2.51,4.76.51,1.16,2.55,6.23,3.59,7a74.78,74.78,0,0,0,8,4.92,13.16,13.16,0,0,0,12.55.52c6.12-2.85,11.86-6,15.34-12.29,2.2-4,4.3-8.25,7.33-11.56a66.22,66.22,0,0,1,12.08-10c2.85-1.9,5.78-3.68,8.74-5.39h30.31c-2.83,1.26-5.53,2.8-8.31,4.16a61.39,61.39,0,0,1-6,2.73C412,55.43,405.61,63,401.19,72.18c-2.67,5.57-4.12,11.72-6.53,17.42-1,2.26-2.62,4.91-4.66,5.89-6.48,3.09-9.63,8.44-12,14.84a44.13,44.13,0,0,1-5.52,10.08,68.47,68.47,0,0,1-8,8.91c-3.28,3.21-7.19,2.93-11.08,1.15-5-2.3-10.12-4.37-14.84-7.15a18.2,18.2,0,0,1-6.1-6.39c-3.75-6.43-8.28-10.53-16.16-11.92-8.36-1.48-16.64-1.78-25-2.43-5.5-.43-10.83-2.86-16.33-3.78q-17.23-2.89-34.57-5.07c-5.61-.71-10.11-3.46-14.51-6.6a8.15,8.15,0,0,1-1.78-2.59,122.66,122.66,0,0,1-11.93-29,18,18,0,0,0-4-7q-1.72-1.87-3.52-3.66ZM48.84,60.76A19.25,19.25,0,0,0,56.1,63.4a4.78,4.78,0,0,1,1.38.27c5.45,2.67,10.5.27,15.51-1.4,2.89-1,4.73-.91,6,2.43a47.65,47.65,0,0,0,4,7.45C88.13,81,93.25,89.77,98.54,98.5A247.91,247.91,0,0,0,125.14,135c3.72,4.19,8.26,7.13,12.18,10.87,4.87,4.66,10.58,7.74,16.35,10.92,4.62,2.54,8.85,5.79,13.33,8.61.94.6,7.22,5.85,10.74,6.14.72.06,5.8,4.34,8.17,5.44.82.38,7.18,4.33,9.47,4.14,7.91-.61,13.88,3.31,19.82,7.54,2.55,1.82,4.84,4,7.88,5.66a37.25,37.25,0,0,0-2.12-4.82c-2.83-4.59-5.25-9.65-8.89-13.5-5.11-5.38-11.14-9.87-16.84-14.67-3.59-3-7.61-5.57-10.89-8.88-5.58-5.61-10.78-11.62-16-17.55-3.69-4.17-7.08-8.6-10.82-12.73-5.21-5.77-8.55-12.62-11.7-19.61-3-6.71-6.15-13.37-9-20.14-3.24-7.62-6.28-15.32-9.34-23a15.53,15.53,0,0,1-.48-3.5c5.58,0,9.13,3.17,12.89,6a36.66,36.66,0,0,0,5.21,3.49c5.85,3,8.37,9,12.27,13.74,1.93,2.32,1.89,6.32,2.73,9.56.11.42,0,1,.25,1.28,2.2,3,4.47,5.93,6.68,8.91s4.21,5.79,8,6.63c.36.07.94.7.88.94-.74,3.22,1.83,3.43,3.67,4A103.26,103.26,0,0,0,189.67,113c5.18,1,10.29,1.94,13.94,6.49,1.29,1.61,3.28,2.63,4.82,4.07,1.84,1.74,3.51,3.67,5.31,5.46,1.24,1.25,2,4.14,4.49,1,.3,4.06,1.89,5.53,6,5.35,3.87-.17,7.74-.63,11.59-1.15,2.86-.39,3.88,1,4.55,3.59,1.42,5.43,3.59,10.7,4.62,16.19,1.83,9.76,5,19.38,3.73,29.61-.39,3.24,0,6.59.25,9.89.93,14.75-1.76,29.2-3.46,43.75-.86,7.38-1,14.85-1.5,22.29-.06.89-.17,1.79-.36,3.63-1.17-1.72-1.9-2.69-2.5-3.72-6.74-11.63-16.21-20.64-26.47-29-8.83-7.19-19.21-11.26-29.72-14.46-8.06-2.46-16.75-3-25.22-3.71a190.94,190.94,0,0,0-20.88-.24c-8.81.2-16.39-4.85-24.82-5.76-7.94-.85-10-6-12.23-12.6A257.8,257.8,0,0,0,89,163.13c-2.53-5.12-6.7-9.53-10.61-13.8-5.84-6.36-12-12.46-18.21-18.41a36.79,36.79,0,0,0-11.37-7.66Zm0,112.57c1.26,2,2.42,4.11,3.75,6.06,5.1,7.45,7.11,16,9.76,24.36,1.55,4.85,2,10.15,2.39,15.28.72,8.71,1.25,17.45,1.46,26.19.38,15.39-2.75,29.93-11,43.07a14.72,14.72,0,0,1-1.76,2.64c-1.51,1.49-3,3-4.56,4.47Zm79.78,646.38q-8.26,12.76-16.73,25.39c-1.71,2.54-3.74,4.84-5.6,7.28-3.55,4.69-7.06,9.42-10.64,14.07H70c7.52-5.18,13-12.4,18.43-19.58,4.38-5.81,7.73-12.41,11.64-18.59a11.79,11.79,0,0,1,3.36-3.45c3-2,4.58-6.57,2.92-9.82-2.88-5.64-6.06-11.12-8.74-16.85-3.32-7.11-9.64-11-15.33-15.58-1.6-1.3-3-2.86-4.65-4.07s-3.83-2.11-5.49-3.48c-1.17-1-1.88-2.51-3-3.31-2.09-1.29-4.29-2.42-6.26-3.89a38.5,38.5,0,0,0-14.06-6.92V749.77c3.2,0,6.39.21,9.06,1.44,11.55,5.31,23,11,33.74,17.86,6.14,3.94,10.35,10.84,16,15.7,8.95,7.67,14.27,18,21.09,27.28C130.64,814.6,130.2,817.28,128.62,819.71Zm11.91-52.9c-18.4-.27-30.07-10.95-37.39-26.49a27.22,27.22,0,0,1,.95-25.36c2.67-4.72,5.35-9.46,8.39-13.94a23.58,23.58,0,0,1,6.28-6.5c3.51-2.29,6-6.25,10.61-6.87s9-1.52,13.57-2.29c.78-.14,1.58-.18,3.17-.36-.7-5.42-1-10.74-2.14-15.83-2.23-9.77-4.68-19.52-7.62-29.09-1.49-4.82.17-7.92,3.43-10.72,2.22-1.91,4.68-3.52,7.09-5.32-.25,10.55,2.86,20.48,5.18,30.6,2,8.49,2.75,17.26,4.19,25.87.94,5.62.23,11.57,3.73,16.73.75,1.1.3,4-.67,5.1a6.5,6.5,0,0,1-5.21,1.63c-8.57-1.68-16.84-1.51-25.09,1.79-8.61,3.45-13.29,9.79-13.46,19.18-.06,3.68.21,7.37-.06,11-.35,4.57,1.35,7.92,4.72,10.83,6.16,5.3,12.35,10,21.2,9.3,4.07-.35,6.5,2.25,6.39,5.46S144.74,766.86,140.53,766.81ZM247,831c-3.49,4-7.32,7.16-13.06,7.24-3.45,0-5.24-.83-4.49-4.79l-.89-.34c1.14-1.59,2-3.44,3.45-4.72,3.43-3.13,7.1-6,10.66-9a7.39,7.39,0,0,0,1.38-1.6c4.2-6.5,10.29-7.4,17.19-6.06a76.31,76.31,0,0,0,7.62,1.07,21.76,21.76,0,0,0,10.89-1.56c5.07-2.17,10.48-1.54,15.73.09,1.28.39,2.84.81,4,.39a14.24,14.24,0,0,1,12.36,1c.91.5,2.07,1.88,1.94,2.65a3.76,3.76,0,0,1-2.52,2.2c-1.29.32-2.75-.17-4.15-.19-3.95-.07-7.94-.5-11.82,0-9.51,1.12-18.92,2.57-28.45,0-5.51-1.48-9.12,2.81-12.89,5.66C251.26,825.12,249.38,828.35,247,831Zm15.81,35.45a99,99,0,0,0,13.63-14.18c4.14-5.11,9.84-6,16-5.1A29.61,29.61,0,0,1,311,857.37c2.83,3.19,6.76,5.38,10.2,8l1.39,1.09Zm597-94.2a123.3,123.3,0,0,1-15-6.16,113.06,113.06,0,0,1-21.25-14c-4.87-4.13-8.37-10-12.25-15.23-3.24-4.38-6.24-9-9.17-13.56a30.79,30.79,0,0,1-3.57-7.23c-2.7-8.74-5.79-17.44-7.43-26.4-1.29-7-1.21-14.47-.75-21.66.56-8.85,3.47-17.24,6.88-25.43,1.48-3.54,2.07-7.46,3.66-10.94,2.61-5.73,5.56-11.31,8.6-16.82,4.49-8.12,12.06-13.3,18.79-19.15,8.87-7.72,18.57-14.37,29.9-18,.51-.17,1-.32,1.57-.45Zm0-328.09q-6.4,5.06-12.87,10.07c-10.08,7.86-20.47,15.37-30.18,23.68-5.49,4.69-10,10.64-14.74,16.16-5.75,6.64-11.54,13.27-16.93,20.21A93.41,93.41,0,0,0,777,527.34c-.83,1.53-.56,3.67-.79,5.53l1,.34c2.94-2.62,5.76-5.38,8.83-7.84a75,75,0,0,1,25.77-13.24c4.38-1.32,8.35-3.94,12.68-5.47,6.8-2.4,13.62-5,20.65-6.37a108.81,108.81,0,0,1,14.62-1.54v18.53c-6.07.91-11.23,4.24-16.41,7.7-2.71,1.81-6,2.71-9,4.1-1.75.82-3.44,1.76-5.14,2.67-6.46,3.44-13,6.71-19.33,10.42-3.27,1.93-5.8,5.3-9.19,6.8-4.85,2.15-7,7.1-11.61,9.67-4.94,2.74-8.67,7.83-12.68,12.14a89,89,0,0,0-9.6,11.66c-4.76,7.34-9.25,14.9-13.36,22.65a141,141,0,0,0-8.26,18.6,150.58,150.58,0,0,0-4.77,18c-3.13,14-2.76,28.41-2.11,42.58.53,11.43,3,22.76,5.87,34,3.58,14.11,10.88,26,19.24,37.4,4.39,6,9.07,11.78,13.85,17.47,2.47,2.93,5.46,5.4,8.16,8.14,4.28,4.35,8.19,9.13,12.84,13s10.11,7,15.23,10.46c3,2,6.08,3.85,9,5.94,6.64,4.74,13.34,9.28,21.35,11.48,5.32,1.47,10.6,3.07,15.88,4.66v39.61H777.16A43.13,43.13,0,0,1,774,863c-5.66-6.79-12.24-12.12-20.79-14.56a16.75,16.75,0,0,0-5.51-.62c-8,.45-15.93-1-24.06.36-7.25,1.22-15,1.12-22.16-1.49a28.23,28.23,0,0,1-8.47-4.81c-6.06-5.1-13-7.45-20.63-9.1-9.84-2.13-18.69,0-27.53,3.86a59.4,59.4,0,0,1-9.42,3.54,20.7,20.7,0,0,0-12.62,8.94c-4.3,6.3-10.28,10-17.29,12.52a8.77,8.77,0,0,0-4.61,3.36,7.85,7.85,0,0,1-1,1.46H523.53c-1.46-.94-3.28-1.55-4.89-2.48-3.08-1.78-6.33-2.9-9.06-5.87a91.87,91.87,0,0,0-18.34-15.62c-3-1.87-9-1.82-12,0a37.49,37.49,0,0,0-17.72,23.93H434.66a29,29,0,0,0,3.39-2.64c3.56-3,7.2-5.85,10.48-9.11,2.5-2.48,5.07-5.22,6.54-8.36,2.42-5.19,6.74-8.4,10.77-11.81a139.86,139.86,0,0,1,16.33-11.77c6.93-4.32,14.62-3.23,22.08-1.72,4.52.92,8.66,2.49,12,6.5,2.83,3.4,7.49,5.21,10.47,8.52,6,6.68,14,9.95,21.93,12.62,7.36,2.49,15.42,2.76,23.12-.83,9.75-4.54,19.71-8.63,29.59-12.88,4.16-1.79,8.46-3.27,12.47-5.35a36.22,36.22,0,0,0,7.56-5.52q8.2-7.51,16.09-15.38c8.64-8.62,17-17.49,25.8-26,2.18-2.12,5.31-3.29,8.11-4.7,8.23-4.14,16.27-8.81,24.83-12.08,9.28-3.55,19.07-4.4,28.77-.8,2.16.8,4.37,1.47,6.69,2.25.86-3,.24-5-2.13-6.35-4.21-2.4-8.46-4.74-12.7-7.11-.2-.11-.48-.17-.61-.34-4.73-6.19-11.72-6.79-18.53-7.33-8.73-.67-17.51-1-26.27-1.21-6.93-.21-13,3-19.26,5.4-7.8,3-15.65,5.91-23.43,9a50.49,50.49,0,0,0-7,3.54c-11.17,6.54-22.32,13.09-33.41,19.78-2,1.19-3.53,3.07-5.37,4.53-6.14,4.87-13.4,7.41-20.62,10a35.17,35.17,0,0,1-7.39,2.13c-2.93.35-5.94,0-8.91,0-8.1.11-13.56-5.3-19-10-5.19-4.49-10.84-7.45-17.4-8.26-9.9-1.23-19.85-2.39-29.79-2.66-5.57-.15-11.25,1.31-16.76,2.55a70.36,70.36,0,0,0-14.18,4.49c-4.34,2-8,5.57-12.29,7.67-3.93,1.91-8.34,2.83-12.57,4.08-5.78,1.71-11.28,3.63-14,9.88-.39.89-2.54.84-3.7,1.54-8.34,5-16.36,2.69-24.14-1.26-6.1-3.09-12.62-5.86-17.73-10.24-4.56-3.92-9.29-5.5-14.78-6.22-3.6-.47-7.23-.78-10.77-1.54-11.42-2.46-22.94-2.6-34.53-2-11.76.61-23.54.84-35.31,1.37a30.54,30.54,0,0,0-6.08,1.16c-6.18,1.55-12.27,3.76-18.54,4.63-8.18,1.13-15.42,4.66-22,8.91-4.92,3.16-8.6,8.47-12.42,13.17-6.37,7.83-12.59,15.78-18.51,23.95-3.77,5.21-6.88,10.91-10.3,16.39a7.79,7.79,0,0,1-1.43,1.93,26.7,26.7,0,0,0-6,7.52H149.91c.69-2.63,1.39-5.27,2.18-7.88,1.06-3.46,2.27-6.88,3.61-10.22,1.69-4.24,3.5-8.42,5.39-12.55s4-8.22,6-12.35c5-10.45,13.16-18.31,21.17-26.2,3.91-3.86,8.62-6.88,12.93-10.32,3.37-2.68,6.5-5.72,10.07-8.06,5.84-3.8,11.73-7.67,18-10.51,4.28-1.93,9.28-2.21,14-3.14a32.35,32.35,0,0,1,20.68,3c5.95,3,12.06,1.88,18,3.27a18.32,18.32,0,0,0,6.82,0,7.3,7.3,0,0,0,6.07-4.66c1.51-3.76,4-6,8.39-6.36a36.5,36.5,0,0,1,21.93,5c4,2.24,7.67,4.91,11.57,7.23,4.45,2.67,9.15.69,13.75.52,8.43-.3,15.63-3.78,22.24-8.79,3.22-2.44,6.64-1.34,9,.67,5.17,4.4,9.76,9.49,14.6,14.29.5.49,1,1.27,1.55,1.36,12.12,1.69,24.07,2.39,34.39-6.26,6.56-5.5,13-11.2,19.85-16.29,2.59-1.93,6.17-2.65,9.41-3.43,5.75-1.38,11.57-3,17.41-3.32,4.35-.25,8.86,1.11,13.17,2.28,4.91,1.33,9.55,4,14.5,4.7,4.64.71,9.55-.13,14.31-.6,4.51-.45,9-1.18,13.48-2.05a10.34,10.34,0,0,0,3.91-2.12c6.45-4.86,12.68-9.78,15.29-18.15a108.33,108.33,0,0,1,6.71-16.31,62.2,62.2,0,0,1,7.08-10.43c3.91-4.92,7.65-10.13,12.29-14.28,5-4.46,11.09-7.67,16.44-11.78,2.36-1.81,5-4,4.43-8-10-.52-19.72-.43-29.1,3.24-7.49,2.93-14.82,6-20.53,12.13-5.53,6-10.92,12.24-17.3,17.11-6.06,4.62-13.29,7.74-20.15,11.2-2.39,1.21-4.67.9-7.57-.82-7.33-4.33-15-8.64-24.11-7.54a13.67,13.67,0,0,1-2.88-.22c1.94-4.05,5.81-6.05,8.48-9.46,4.24-5.42,5.41-11.9,8.84-17.39,1.76-2.83,4.28-5.2,5.92-8.09,5.59-9.87,9.19-20.24,8.82-32-.35-10.71.56-21.46.24-32.18-.36-12-2.52-23.71-7.67-34.81-2.73-5.89-3.84-12.52-6.29-18.57-2.72-6.74-6.26-13.13-9.18-19.79-2.23-5.07-4.11-10.31-6-15.51-1-2.64-1.83-5.35-2.58-8.08s-1.14-5.52-1.87-8.23c-.54-2-1.79-3.86-2-5.86-.66-6.63-.24-13.47-1.62-19.92-1.72-7.95-.88-15.84-1.32-23.76-.17-3-3.56-5-5.84-2.89-5.79,5.4-13.94,5.23-20.09,9.57-2.73,1.93-5.79,3.35-9.37,5.37-.73-5.45-1.51-10.44-2-15.48a3.6,3.6,0,0,1,2-2.68c5.67-2,11.6-3.44,17.09-5.84,3.86-1.7,7.14-4.73,10.76-7,8.17-5.2,12.58-12.94,15.21-22.12a15.46,15.46,0,0,1,6.77-9.08A7.54,7.54,0,0,0,488.8,405c5.5-6,10.94-12.11,16.48-18.1,1.18-1.27,2.94-2,4.06-3.33,6.3-7.32,12.15-14.87,14.66-24.6.91-3.53,3.2-6.68,4.38-10.17,2.86-8.45,5.64-16.94,8.06-25.54a246.76,246.76,0,0,0,6.21-25.58A176.72,176.72,0,0,0,544.57,274c.23-6.82-.11-13.67-.47-20.49-.45-8.48-.64-17-1.94-25.4-1-6.69-3.5-13.16-5.39-19.7-2.69-9.24-5.48-18.46-8.15-27.7-1.4-4.84-2.5-9.76-4-14.57a64.74,64.74,0,0,0-3.25-7.43,88,88,0,0,0-6-11.4,18.81,18.81,0,0,0-.63,4.27c2,25.77,2.34,51.35-5.35,76.49-2,6.57-1.92,13.79-3,20.67-.95,5.93-1.44,12.13-3.55,17.65-3.3,8.63-7.65,16.86-11.84,25.12a149.91,149.91,0,0,1-9.28,16.23c-4.06,6-9,11.32-15.62,14.67a46.16,46.16,0,0,0-8,4.85c-6.39,5.07-13.41,8-21.07,7.55,6.7-7,14.65-23,7.58-39.3-8.12-18.72-20.27-21.21-27.35-24.17-6.47-2.7-22.18-1.94-28.84,1.49C378,278.19,372,284,365,293.45c-5.84,7.91-4.65,16.92-4.93,27-.11,3.94,2.05,8,3.3,11.93.52,1.67,5.84,13,7.95,16.92,1.34,2.51.92,3.6-1.83,4.63-7.64,2.85-15.27,5.79-22.64,9.26-3.24,1.52-5.82,4.49-8.78,6.68-5.94,4.37-11.64,9.2-18,12.83-5.24,3-8.48,7.69-12.07,12-11.62,13.79-22.71,28-34,42.12-.8,1-1.4,2.16-2.13,3.23-1.12,1.63-1.59,3.58-4,4.42-1.42.5-3.59,2.38-1.72,4.24-1.79,1.93-3.42,3.73-5.09,5.49-3,3.18-8.25,2.66-11.73.07-2.82-2.1-6.5-3.25-10-4.13a123.5,123.5,0,0,0-15.3-2.71c-2.26-.27-4.61.48-6.94.61-6.34.35-12.49,1.37-18,4.81-7.6,4.73-15.64,8.85-22.63,14.36-5.12,4-8.85,9.89-13.18,15-10.39,12.13-14.08,27.55-19.6,42-2.27,5.93-2.59,12.63-3.73,19-.83,4.61-1.94,9.21-2.22,13.85-.35,5.74-.9,11.74.35,17.23,1.65,7.24-.38,12.63-4.62,18.07-6,7.77-11.64,15.88-17.52,23.78-6.2,8.33-12.61,16.51-18.73,24.92-2.25,3.09-3.89,6.63-5.88,9.93-4,6.73-8.18,13.41-12.2,20.15-2.52,4.25-4.75,8.68-7.38,12.86-2.74,4.35-5.83,8.46-8.72,12.72-.59.86-.86,2-1.5,2.79-1,1.32-2.2,2.49-3.82,4.29,1.12,2-.84,3.53-2.68,5.66a99.34,99.34,0,0,0-6.3,8.8V353.12c.78-.83,1.53-1.67,2.29-2.48,9-9.43,18-18.82,26.46-28.76,5.72-6.75,10.39-14.42,15.6-21.62,1.65-2.28,3.5-4.45,5.35-6.57,5.48-6.25,6.83-14,8.41-21.86,1-4.84,1.91-9.34,8-12.14,5-2.32,10.45-3.75,15.38-6.38,1.82-1,4.69-.85,6.79-.23,4.77,1.41,9.36,3.46,14,5.21.7.27,1.78.73,2.17.43,2.57-2,26.63,11.66,36.12,17.83,8.51,5.53,16.51,11.91,24.53,18.19s23.74,20.42,23.86,21c.9-.24,18.92,16,24.61,20.05,6.22,4.43,8.62,11.23,11.17,17.78,2.66,6.88,4.27,14.16,6.44,21.6,2.25-1.28,3-3.54,2.72-6.36-.95-9-2.06-17.9-2.82-26.87a143,143,0,0,1-.69-18c.4-9.67,1.64-19.3,2.06-29,.43-9.87,2.51-19.37,5-28.85.71-2.66.43-5.58,1.13-8.25,3.11-12,6.5-23.88,9.57-35.86.78-3,.72-6.3,1.12-9.44.48-3.72,1.47-7.43,1.45-11.14,0-6.23-.86-12.44-1.06-18.68-.17-5.52-.9-10.78-3.83-15.6-1-1.66-1.53-3.62-2.64-6.33,2.78,0,43.25,10.91,48.31,12,5.84,1.24,11.8,2.84,17.95,1.45,12.53-2.85,25.21-5.18,37.58-8.62,4.49-1.25,8.19-5.21,12.4-7.67,6.39-3.77,12.88-7.39,19.4-10.94,8.57-4.67,17.87-2,26.85-2.48,1.74-.08,3.58.93,5.29,1.62,10.59,4.28,20.42,3.38,28.53-5.19,6.24-6.6,12.52-13.57,14.94-22.6,2.09-7.81,6.95-12.52,13.21-16.7,2.93-2,5.09-5.09,7.6-7.69,2.67-2.8,12.52-12.86,13.36-13.8C543.14,73.8,558,57.7,559.87,56s10.41-8,12.78-11h103.4c1.65.37,1.91,1.38,1.29,4-.7,2.94-1.93,5.75-2.89,8.63a8.13,8.13,0,0,0-.3,1.7c-.28,2.29.08,4.91-.91,6.82-2.4,4.63-5.41,8.95-8.21,13.37a76.39,76.39,0,0,0-4.39,6.79c-1.1,2.21-5.45,6.54-6.1,8.36-.45-.12-9.14,7.34-13.39,11.32-5.29,5-10.65,9.91-16.22,14.59-2.47,2.07-5.73,3.17-8.24,5.2-8.3,6.67-16.65,13.3-24.52,20.46a25.52,25.52,0,0,0-8.34,17.41c-.06,1-.65,5.64-.4,6.74,1.68,7.39,3.75,14.84,9.13,20.34,6.37,6.52,14.92,9.11,23.3,12.06a21.1,21.1,0,0,1,9.41,7.36c4.68,6.49,7.21,14,4.11,22-.94,2.45-7.23,7-7.7,7.69-5.54,8-11,16-16.5,24-2.84,4.11-5.95,8-8.62,12.23-1.33,2.09-1.82,4.7-2.94,7-2.59,5.15-5.63,10.09-7.88,15.39-1.49,3.48-2,7.42-2.8,11.17-.53,2.37,1.66,23.78,4.07,28.5a20.83,20.83,0,0,0,5.06,6.3,29.56,29.56,0,0,0,7.61,4.4c8.54,3.49,14.54-1.82,20.06-6.94,6.16-5.7,11.59-12.22,17.38-18.33,3-3.13,5.7-6.67,9.17-9,2.35-1.6,5.81-1.6,8.8-2.11,2-.32,4-.16,5.95-.4,4.86-.63,7.07.62,9.66,4.83,6.15,10,6.43,19.89,1,30.51-3.26,6.42-5.47,13.32-11,18.31-5.28,4.77-10.69,8.77-18.14,9.94-5.45.85-10.7,3.11-16.4,2.91a5.47,5.47,0,0,0-2.7.67c-11,6-23.24,9.48-33.81,16.78-7.83,5.41-15.8,10.51-22.07,17.69-5.87,6.69-11.9,13.51-16.31,21.18-4,6.9-6.81,14.77-6.57,23.22,0,.7-2.39,14.09,5.2,19.33,8.51,5.88,17.84,10.36,28.41,10.32,4.65,0,9.28-2,14-2.42,5.46-.53,9.54-3.93,14.28-6,7.17-3.12,12-9.25,18-13.87,4.67-3.62,8.31-8.57,12.69-12.63a47.38,47.38,0,0,1,19.95-11.14,18.76,18.76,0,0,1,18.29,4.18c5.28,4.67,7.74,10.17,6.23,17-1.84,8.28-4,16.43-10.24,22.9-9.49,9.88-53.09,45.18-59.2,53.37-3.37,4.51-5.6,10.1-7.5,15.5A165.13,165.13,0,0,0,599.26,575c-1,4.52.47,20.19,2.2,22.06a139.51,139.51,0,0,0,12,11c2.51,2.16,5.24,4.08,7.85,6.13,4.68,3.66,10.15,5,15.88,5.46a53.93,53.93,0,0,0,6.65.35c1.15-.06,2.27-.81,3.77-1.39,1.17,1.36,6.47,1.34,9.94-.39,4.81-2.4,9.76-4.5,14.6-6.85,6-2.9,11.35-6.59,15.42-12.1,1.39-1.89,3.72-3,5.36-4.76,3.74-4,7.4-8,10.93-12.19,6-7.09,11.83-14.29,17.73-21.44,8.51-10.32,17.73-20.14,25.33-31.11,6.88-9.93,12.11-21.05,17.87-31.76,8.22-15.27,9.83-32,9.67-48.94-.26-27.42-1.06-54.83-1.2-82.25,0-8,1.3-16.06,2.21-24.08a6.88,6.88,0,0,1,6.66-6.07c4.82-.12,9.71-1.39,14.4,1.36a16.27,16.27,0,0,1,7.5,9.38c1.41,4.22,3.93,8.11,5,12.39a121.77,121.77,0,0,1,2.63,17.52,65.63,65.63,0,0,0,6.14,22.39c2.1,4.42,11.68,11.15,18,10.47a8,8,0,0,0,2.57-1c6.62-3.25,11.52-8.67,16.62-13.8,1.39-1.39,1.83-3.76,2.68-5.69.62-1.44,1.18-2.92,1.77-4.37l.37,0Zm-589,219.48c-.95-6.3-2.94-12.42-4.21-18.68-.94-4.59-1.2-9.33-2.23-13.9-.79-3.54-2.32-6.91-3.47-10.38a31.37,31.37,0,0,1-1.83-8.66c1.72,2,3.86,3.82,5,6.13.67,1.32.81,2.11,2.4,1.87.39-.06,1.06.48,1.33.92,2.84,4.46,5.59,9,8.44,13.41,1.37,2.14,3.06,4.06,4.32,6.25s2,4.33,3.31,7.18c3.73.32,4.17,4.76,6.14,7.49,4.44,6.12,8.38,12.6,12.52,18.93,2.09,3.2,4.15,6.42,6.27,9.61a14.75,14.75,0,0,0,2.34,3c2.44,2.14,5.16,4,7.5,6.2,5.93,5.61,12.84,10.61,17.2,17.29,4,6.13,10.55,7.77,15.09,12.45,1.35,1.39,2.81,2.67,4.38,4.16a9,9,0,0,1-1.71,1.43C346.52,732,339.52,736,332.15,739c-2.92,1.18-6.72.47-10.08.13-12.08-1.24-21.88-7.88-31.94-14-3.94-2.39-8.33-4-12.53-5.92-6.18-2.83-12.81-2.63-19.89-2.66,2.5-5,4.62-9.76,7.22-14.24a47.35,47.35,0,0,0,6.53-22.76A90.4,90.4,0,0,0,270.81,663.64ZM344.93,509c9.72,9.2,19,18.89,28.37,28.43,6.53,6.64,13,13.39,19.39,20.12,2.06,2.15,3,5,1.1,7.34a6.6,6.6,0,0,1-5.46,1.85c-1.83-.36-3.55-2.16-5-3.65-13.37-13.76-26.43-27.83-40.07-41.31-7.34-7.25-15.67-13.47-23.44-20.28-3.61-3.16-7-6.65-10.48-9.94-1-.94-2.14-1.75-4.07-3.32,5.41-3.56,10.43-7.07,15.65-10.25,4.87-3,9.85-5.79,15-8.32,5.71-2.83,9.84-.26,9.19,6.14a57.43,57.43,0,0,1-3.87,15.71C337,501.85,337,501.46,344.93,509Zm31.78-81.46c2.53-2.37,6.83-1.31,8.33,2.28a46.9,46.9,0,0,1,1.69,6.17,98,98,0,0,1-1.6,10.12,5.23,5.23,0,0,1-5.29,3.82c-2.15,0-4.24,0-5.67-2.73C371.6,442.22,372.66,431.34,376.71,427.53Zm58.65-14.39c.22-7,3.88-11.46,9.33-11.37s8.54,3.58,8.4,9.12c-.17,6.48-4.39,10.69-10.61,10.55C438.13,421.35,435.21,417.94,435.36,413.14ZM859.82,184.65c-.44,13.62-.88,27.18-1.32,41-3.26-3.72-5.88-6.9-8.7-9.89-2.42-2.56-4.8-5.32-7.67-7.25-6.93-4.66-14.42-8.49-21.15-13.42-5.1-3.74-9.4-8.62-14-13.08a7.46,7.46,0,0,1-1.26-2.82,17,17,0,0,0-2.4-5c.6-4.58.95-9.21,1.86-13.72a93.4,93.4,0,0,1,3.39-11.11,3.29,3.29,0,0,1,1.66-1.7c6-2.64,11.76-5.52,18.19-.41,5.28,4.19,11.17,7.56,16.77,11.33a6.86,6.86,0,0,1,2,1.92c2.83,4.64,5.92,8.87,12.55,9.32l.48,0Q860.07,177.27,859.82,184.65Z"/></g><g id="newGrid"><path class="cls-2" d="M0,0V909.84H909.83V0ZM871.1,790.06c-.1,25.31,0,50.61,0,75.92v11.36H37.58V34.93c3.94-.17,6.92-.41,9.9-.42,15.62,0,31.24.12,46.86-.09,5.76-.08,11.49-1,17.25-1.49,1.82-.16,3.81-.72,5.46-.23,10.82,3.26,21.87,1.66,32.8,1.7,45.63.2,91.26,0,136.89.1Q573.37,34.74,860,35h11.08V46.87q0,124.92,0,249.84c0,14.51,1,29,.94,43.54-.16,43.21-.75,86.43-.91,129.64,0,13.58,1.11,27.16,1.07,40.74Q871.8,650.34,871.1,790.06Z"/></g></g></svg>