<svg xmlns="http://www.w3.org/2000/svg" viewBox="0 0 910.35 911.56"><defs><style>.cls-1{fill:#ce242b;}</style></defs><title>2_1_5</title><g id="Layer_2" data-name="Layer 2"><g id="hongcun"><path class="cls-1" d="M910.35,911.56H14.07C0,911.56,0,911.55,0,897.32Q0,456.37,0,15.43C0,11.48,0,7.54,0,2.17H349.45q255.44,0,510.89-.09c13,0,25.93-1.08,38.88-1.94,9-.6,10.57.45,10.88,9.57.24,7,.24,14,.24,20.93q0,433.46,0,866.93C910.35,901.83,910.35,906.09,910.35,911.56ZM808.16,408.06c-9.21-11.36-6.94-23.14-4-32.45,4.69-15.12,20.55-29.29,36.06-29.18,7.94.06,15.91,1.25,23.79,2.46a22.61,22.61,0,0,1,9,3.75C893,366.47,899.85,396,887.89,417.27c-3.53,6.27-10.35,15.67-18.48,15.13,6.19,7.52,19.74,17.32,28.74,20.82.68-1.08,1.32-1.61,1.32-2.15q.2-104.25.28-208.49a41.86,41.86,0,0,0-.44-4.94c0-.26-.37-.51-.62-.7a11.07,11.07,0,0,0-1.39-.67c-.92,1.09-1.94,2.29-3,3.51-5.87,7.07-11.09,14.82-17.74,21.06-12.71,11.91-26.36,22.81-39.39,34.38a294.28,294.28,0,0,1-34.59,26.32c-18.16,11.86-37.9,20-58.55,25.53-10.41,2.81-21.66,2.91-32.57,3.41-17,.78-33.63-2.62-50.29-6a194.23,194.23,0,0,1-32.27-10c-3.1-1.21-5-3.06-5-6.59s1.78-5.54,5-6.59a17.08,17.08,0,0,0,2.82-.91c20.11-10.94,36.33-25.56,43.86-47.85,4.86-14.39,9.54-28.89,13.28-43.6,3.82-15,8.37-30.31,9-45.64a299.47,299.47,0,0,1,8.42-57.93c7.94-32.84,22.32-62.25,45.63-87.05,6.49-6.9,12.77-14,20.2-22.17H705.67c-1.18,9.91-1.89,19.43-3.52,28.8-3.18,18.24-5.76,36.7-10.72,54.48-4.32,15.49-8.7,31.17-16.11,45.74-3.57,7-5.92,14.64-8.8,22-3.14,8-5.63,16.35-9.47,24-14.4,28.76-34,53.88-56,77.18-6.91,7.33-57.28,47.45-61,44.94-3.4-2.28,33.39-65.73,43.49-93.73,3.44-9.55,7-18.9,7.5-29.23.25-5.58,1.78-11.1,2.57-16.67,1.57-11.09,3.18-22.18,4.49-33.31.89-7.56,2-15.2,1.74-22.76-.37-10.83-2.25-21.6-2.84-32.43-1.32-24.3-9.5-46.41-21-68.11l-13.92-1c-.17,3.32-.19,6.21-.49,9.07-1.83,17.55-12,30.76-24,42.3-12.87,12.4-32.19,14-47.83,5.65-18.4-9.77-24.37-32.76-13.31-51,.77-1.27,1-2.88,2-6.27-4.49.9-7.81.77-10.18,2.2-5.07,3.07-9.51,7.17-14.47,10.45-7.72,5.1-10.16,13.63-10.94,21.31-2.18,21.5.65,42.94,4.35,64.19,5.91,34,39.85,110.39,33.57,108.15-4.63-1.65-8.82-4.54-13.24-6.8-17.83-9.14-34.89-19.32-48-34.88q-8-9.46-16.06-18.85c-13.55-15.77-24-33.72-28.86-53.59-5.89-24.32-12.85-48.8-10.89-74.44.24-3.13-1.28-15-2.4-17.46H252.62c1.07,4.7,1.1,9.4,3.19,12.88a25,25,0,0,1,3.53,16.13c-1.17,10.51-1.56,21.42-4.86,31.31C248.66,93.81,244,111.78,234,127.71c-6.3,10.06-10.63,21.35-17.07,31.3-6.9,10.67-13.47,21.64-22.83,30.68-11.32,10.93-22.92,21.52-34.56,32.09-11,10-26.58,12.34-36.38,24-1.5,1.78-7.29,1.45-10.22.15-3.83-1.7-1.47-5.83-.93-9a11.46,11.46,0,0,1,.66-1.87c3.62-10.1,7.36-20.16,10.84-30.3,7.25-21.17,2.13-39.74-12.75-55.78-4.72-5.09-10.51-9.18-17.85-10.16-8.54-1.13-17.08-2.23-25.6-3.49-16-2.36-32.54-2.66-46.74-12.12-1.69-1.13-4.12-1.16-6.83-1.85V234.93c15.15,7.89,30.09,15.66,45,23.46,14.12,7.37,29.23,13.28,40.59,24.94,14.59,15,28.73,30.39,43.06,45.61,1.26,1.34,2.49,2.71,4.41,4.8,1-2.11,1.59-3.19,2-4.35.78-2.18,1.46-4.39,2.15-6.6,6.68-21.08,17.33-39.78,33-55.54,5.81-5.83,11.64-11.65,17-17.85,34.67-39.77,78.55-53.51,129.92-45.77,11.88,1.79,23.53,3.52,35.38-.1,2.74-.84,6-.45,8.92,0a5.65,5.65,0,0,1,3.59,2.83c2.68,5.49.22,12.84-5.62,14.58-10.89,3.26-17.85,12.12-27,17.79-1.31.81-1.92,3.34-2.14,5.16A11.72,11.72,0,0,0,349,255.36c2.82-.89,5.64-1.76,8.44-2.67,11.76-3.82,23.81-6.93,36.17-5.53,8.11.92,17.06,2.21,23.71,6.39,11,6.87,19.6,16.79,22.69,30.18,2,8.73,8.08,12.47,16.43,13.42,10,1.14-3.68,19.12-10.5,22.94.53,5.11,1.32,10,1.48,14.91.33,10.61,3.74,20.8-1.75,31.9-3.8,7.68-7.83,13.36-15.13,17.11-3.39,1.74-6.79,3.45-10,5.07,2.85,6.36,5.69,11.66,7.63,17.27a31.24,31.24,0,0,0,13.36,16.76,51.15,51.15,0,0,1,8.09,5.84c14.78,14.11,34,18.95,52.58,24.69,11.36,3.5,23.29,5.16,34.73,8.45,19.22,5.51,38.66,8.88,58.6,6.36,27.39-3.47,54-10.58,80.44-18.38a103,103,0,0,0,21.67-9.76c7.45-4.27,14.25-9.67,21.34-14.56s13.85-10.41,21.38-14.53C758.8,401.11,786,400.7,808.16,408.06ZM490,837.12c-.81-3.3-14.5-7.41-20.69-19.34a158.13,158.13,0,0,1-10.19-69.4c1.27-16.45,5.37-31.85,17-45.3,17.88-20.61,41.92-30.82,65.38-42.1,5.93-2.85,9.21-6,12.17-11.61,10-18.87,20.51-31.08,42.92-48.28,29.65-18.6,62.64-19.19,67.57-18.93A93.11,93.11,0,0,1,692.62,588c23.56,9.08,44.15,23.49,59.95,43.34,16.5,20.74,33.19,41.46,45.78,65,.84,1.57,3.54,2.15,5.37,3.18.82-1.94,2.79-4.27,2.28-5.76a246.39,246.39,0,0,0-9.46-24c-3.21-6.91-7.58-13.29-10.91-20.15a108.11,108.11,0,0,0-26.69-34.45c-14.55-12.71-29.45-24.89-48.21-33.37L724,563.49c4.83,3.25,8.57,7.32,13.07,8.5,14.12,3.7,26.9-1.11,38.8-8.49,1.07-.66,2.07-3.38,1.57-4.21-.86-1.42-2.84-2.42-4.56-3-1.1-.36-2.57.35-3.85.66-20.68,5-31.88,0-44.53-20.06-4.68-7.42-9-9.65-17.18-6.67-9,3.29-17.9,7.25-27.17,9.63C659,545.3,637.52,542.52,617,537.7c-31.35-7.36-61.47-19-88.72-36.64-10.57-6.85-20.16-15.19-30.44-22.53-12.67-9-26.19-15.77-42.53-14.2-8.19.79-9.49,2.84-8.48,10.64,1.09,8.46,2.22,17.26,1,25.57-1.38,9.43,8.83,37.78,5.35,45.4-3.42-.55-7.3-.78-10.93-1.84-9.36-2.74-16.37-.45-21.92,8-9.93,15-24.58,21.42-41.87,23.4-11.15,1.27-22.25,3-32.62,4.47a16.79,16.79,0,0,0-1.21,1.63c-7.35,15.71-11.48,31.36.85,46.71.2.25.5.58.48.85-.31,4.47.9,10.1-1.37,13.13-3.23,4.3-37-14.4-49.21-21.07-6.11-3.33-11.77-8-18.27-10-17.11-5.3-34.47-9.89-51.91-14-21.69-5.13-41-13.91-53.59-33.19-6.17-9.42-11.48-19.39-17.23-29.09-.89-1.5-2-2.86-4.59-6.42.44,11.91-9.26,17.79-8.36,27.58-8.18,14.72-14.32,30.57-25.26,43.77S95.6,627.76,80.67,637.16C69.74,644,58.52,650.54,47,656.32,37.69,661,28.33,666,17.54,666.86c-1.41.11-2.71,1.58-3.73,2.21-2,30.1-1.07,85.89,1.84,93.34,5.66-7.46,11.36-14.3,16.3-21.65,7.85-11.68,18.13-20.87,29.11-29.34,5.19-4,10.72-8,16.74-10.38a57.76,57.76,0,0,0,17.57-11,38.15,38.15,0,0,1,9.23-5.6c4.76-2.25,9.87-3.8,14.58-6.15,16.59-8.3,34.28-11.11,52.46-9.28,12.47,1.26,24.71,4.7,37.15,6.53,11.7,1.72,21.36,7.28,29.93,14.76,15,13.12,24.33,30.43,32.76,48,8.3,17.3,15.7,35.05,22.81,52.88,3,7.56,4.53,15.77,6.25,23.78a203.67,203.67,0,0,1,3.67,30.34c1.06,17.13,5.84,34,5,51.36,0,.87.7,1.78,1,2.59,14.21,1.83,128.3,1.16,135.37-.8-2.93-3.06-6.23-5.81-8.67-9.19-6.53-9-7.48-19.74-7.17-30.34.39-13,7.2-21.86,20-25.36C457.07,831.58,484.06,831,490,837.12ZM14,312.91V603.73c11.32-1.12,22.65-7.2,32-16.92,15-15.48,29.47-31.29,41.7-49.13,12-17.54,20.83-36.28,22.49-57.56,1-12.19.28-24.54-.17-36.8-.27-7.24-.63-14.69-2.58-21.59-2.57-9.13-5-18.34-10.67-26.57a65.86,65.86,0,0,1-10.09-22.37c-3.2-14.31-13-22.55-23.9-30.38-4-2.88-8.33-5.38-11.95-8.68C40.42,324.18,28.22,317.93,14,312.91Zm710.67-13.39c3.82-1,7.07-1.46,10-2.69,25.22-10.58,49.12-23.43,69.54-41.9,14.23-12.86,28.78-25.46,42.11-39.21,14.77-15.24,28.47-31.53,42.32-47.64,7.5-8.72,12.71-18.35,11.31-30.77-1-8.54-.12-17.27-.22-25.92,0-2.5-.52-5-.8-7.5l-2.21-1.31A32,32,0,0,1,894.4,107c-7.64,10.27-14.27,21.11-22.79,31-14.1,16.31-30,30.58-45.18,45.7-11,11-23.92,20-32.82,33a8.91,8.91,0,0,1-1.26,1.54c-3.36,3.1-10,3.47-12.73.28-3-3.48-2.59-7.19.43-10.77a79,79,0,0,0,6.49-8.78c11.31-17.93,22-36.19,30.56-55.66,2.52-5.74,5.24-11.41,8.17-16.95,6.2-11.7,13-23.12,18.83-35q12.76-25.82,24.48-52.15c3.27-7.31,5.38-15.14,8.3-23.57-9.4,0-17.48.79-25.34-.18-12.33-1.52-20.12,4.74-27.14,13.33-5.25,6.42-10.21,13.13-16,19.06C796.28,60.35,787,74.63,779.13,90.15s-12.86,31.92-16.46,48.72c-3.33,15.52-5.22,31.34-8.19,46.95-3.22,17-7.58,33.72-10.29,50.74-3.3,20.74-6.3,41.39-18.71,59.19C725,296.44,725.08,297.5,724.66,299.52ZM377.44,429.28c-5.16-11.39-10.06-21.42-14.23-31.74a29,29,0,0,0-10.95-13.78c-9.36-6.26-18.89-12.28-28.21-18.6-13.14-8.91-27.25-8.52-41.94-5.16-11.17,2.56-22.12,5.29-32.61,10.29-11.73,5.58-23.78,10.61-32.68,20.27-8.41,9.12-15.81,19.16-24,29.19,13.05,9.88,25.23,19,40,24,9.09,3.05,18,6.61,27.25,9.23,11.81,3.36,23.81,5.62,36.3,4.31,17.57-1.85,33.35-9.1,48.53-17.07C354.81,435,365,431.86,377.44,429.28Zm522,347.12c-10.56,9.83-20.57,19.36-32.89,26.13-21.54,11.85-44.54,16.68-69.12,15-15.48-1-29.18-5.7-40.76-16.19-12.06-10.93-24.41-21.55-36.25-32.71A195.5,195.5,0,0,1,700,747c-10.34-13.26-19.89-27.14-26.34-43.44L661.3,705.9a276.29,276.29,0,0,0,31.78,47.35,342.61,342.61,0,0,0,48.34,48.67c6.64,5.43,12.33,12.1,18,18.56,2.07,2.34,3.32,5.61,4.3,8.66,3.82,12,2.93,24.29,1.82,36.55-1.13,12.52-5.36,23.15-17.94,28.61-2.22,1-4.18,2.5-7.87,4.76,14,2.52,24.63.8,33.94-7.87,5.32-5,11.45-9.05,17.12-13.65,6.35-5.15,13.85-8.37,20.7-12.56,11.59-7.08,22.88-14.39,35.67-19.23,4.56-1.72,8.79-4.43,12.94-7,4.7-3,9.34-4.88,14.4-2.56l22,63.85c1.36-1.06,2.73-1.62,2.73-2.19Q899.47,837.1,899.41,776.4ZM167.84,113.84c1.09-.61,2-.8,2.13-1.23C175.37,96,186.93,82.1,191.19,65c1.42-5.72,3.39-11.3,4.82-17,1.66-6.62-.09-10.39-5.89-14.29-2.57-1.73-4.94-3.76-7.9-6l6.16-5.8c-5.31-6.08-5.3-6.14-11.82-6.18-10.32-.05-20.64,0-31,0H129.87c1.78,5.28,2.43,9.33,4.39,12.6,4.41,7.33,9.26,14.44,14.35,21.32,3.68,5,6.09,10,4.92,16.24-6.07,3.55-11.67,2.22-16-1.7C121.14,49.3,101.93,37.71,87.68,20.58c-3.4-4.09-7-5.09-12-5-17.31.21-34.62.07-51.93.11-2.48,0-5,.3-8.72.54,2.07,2.71,3,4.48,4.41,5.66,5.7,4.77,7.21,11.44,8.86,18.15a21,21,0,0,0,3,7.14C44,65,62.21,73.55,83.39,76.25c11.85,1.51,23.79,2.63,35.72,3,14,.46,24.58,7,33.54,17C157.87,102,162.84,108,167.84,113.84ZM186.24,471l-2.4,1.93c1.44,9.39,2.78,18.79,4.34,28.16,1.7,10.27,5.39,19.67,12.8,27.31,1.59,1.64,2.93,3.54,4.58,5.13,5.17,5,9.83,10.87,15.81,14.63,8.35,5.26,17.79,8.78,26.63,13.3,15.92,8.15,32.43,14.6,50.14,18,2.46-6.82,4.52-13.75,7.42-20.31,3.84-8.68,8.46-17,12.49-25.61,4.2-9,4-17.86-1-26.7-22.86-2.23-46.15.4-68.07-7.38C227.34,491.75,205.48,484.37,186.24,471Zm3.06-127.1a2.2,2.2,0,0,0,.83-.08,17.17,17.17,0,0,0,2.55-1.53c22.37-17.8,47.52-27.09,76.45-25.65a155,155,0,0,0,23.89-1c10-1.06,14.84-5.61,15.68-15.6a35.43,35.43,0,0,0-2.46-15.36c-3.65-9.29-8.17-18.17-7.13-28.63.41-4.18.07-8.43.07-12.6C263.5,242.57,196.88,302.46,189.3,343.89Zm215-36.21c-3.78-3.15-7.63-5.46-10.26-8.74-6.45-8.08-15.14-11.35-24.82-12.93-8.33-1.36-12.5.7-14.8,8.86-2.74,9.69-7.34,18.28-12.89,26.54-2.53,3.75-4.5,7.88-7,12.28,3.18,1.13,5.82,2.59,8.61,3,17.65,2.53,32.51,10.94,46.48,21.39,1.47,1.1,3.3,1.7,5.6,2.86,2.41-7,8-12.43,5.4-19.81C396.48,329.54,399.74,319,404.27,307.68ZM398,470c-3.92,1-7.67,2.42-11.52,2.85-9.81,1.1-15.38,8.28-21.43,14.61-1.48,1.54-2.34,5.18-1.58,7.09a60.1,60.1,0,0,1,3.32,32.11c-.26,1.71.83,3.62,1.37,5.71,8.47,0,16.26,0,22.13-6.91,4.83-5.68,9.93-11.13,15.11-16.89-5.31-10.9-5.27-10.9-4.49-24C401.16,479.7,401.28,474.74,398,470ZM637.44,842.77c-10.92-7.69-32.05-20.78-42.78-28.33,0,13.85.07,26.4,0,39-.06,7.73-1.72,15-6.25,21.55-5.52,8-10.73,16.17-16.19,24.44,10.1,0,46-.66,54.9-.66-22-5.3-26.23-23.15-24.44-34.35C604.68,851.72,626.83,842.77,637.44,842.77ZM849.79,590.25c-1,.81-3.21,1.76-3.24,2.76-.05,2,.41,5,1.81,6,7.43,5.52,14.9,11.1,25,10.67,7.75-.33,11,2.69,13.37,9.93a213.78,213.78,0,0,0,9.13,23c.77,1.65,4.49,3.28,6.29,2.8,3.14-.84,2.84-4.06,1.56-6.65A38.1,38.1,0,0,1,900,618.51c.25-3.38-13-20.72-16-21.58a3.3,3.3,0,0,0-1.94-.12c-5.54,2.26-10.35-.67-15.38-2C861.22,593.29,855.78,591.85,849.79,590.25ZM161.9,854.33l-1.25-.25-24.42,45.2H161.9ZM874.74,541.24c-.1-6.68-4-9.73-12.29-9.52-6.27.15-9.83,3.31-9.87,8.73,0,5,8.53,12.07,14.17,11.68C871.48,551.81,874.84,547.22,874.74,541.24Zm-88.31-19.45c.27-6.18,6.09-12.19-.87-17.53-3.48-2.67-7.74-4.21-12-1.42-3.15,2.06-5.18,10.12-3.73,13.65C771.82,521.38,776.16,522.92,786.44,521.79Z"/></g></g></svg>