<svg xmlns="http://www.w3.org/2000/svg" viewBox="0 0 909.83 909.84"><defs><style>.cls-1{fill:#ce242b;}.cls-2{fill:#fed6af;}</style></defs><title>2_1_frame2</title><g id="Layer_2" data-name="Layer 2"><g id="Layer_8" data-name="Layer 8"><path class="cls-1" d="M872.12,879.95H50.49c-12.89,0-12.9,0-12.9-13.21q0-409.12,0-818.23V36.2H357.94q234.17,0,468.34-.08c11.88,0,23.77-1,35.64-1.8,8.27-.56,9.69.42,10,8.88.22,6.47.22,12.95.22,19.42q0,402.17,0,804.35C872.12,870.92,872.12,874.88,872.12,879.95ZM778.44,412.8c-8.45-10.54-6.36-21.47-3.71-30.11,4.3-14,18.84-27.17,33.06-27.07a149.75,149.75,0,0,1,21.81,2.28,20.59,20.59,0,0,1,8.27,3.48c18.39,12.82,24.64,40.21,13.67,60-3.23,5.82-9.49,14.54-16.94,14,5.67,7,18.09,16.07,26.35,19.32.63-1,1.21-1.5,1.21-2q.18-96.72.26-193.44a39.29,39.29,0,0,0-.4-4.58c0-.24-.34-.47-.57-.65a10.1,10.1,0,0,0-1.27-.62c-.84,1-1.78,2.13-2.7,3.25-5.38,6.56-10.16,13.75-16.26,19.54-11.65,11-24.16,21.16-36.11,31.9a270.12,270.12,0,0,1-31.71,24.42c-16.65,11-34.74,18.52-53.68,23.69-9.54,2.61-19.85,2.7-29.85,3.17-15.63.73-30.83-2.43-46.1-5.56a176.5,176.5,0,0,1-29.58-9.28c-2.84-1.13-4.57-2.84-4.59-6.11s1.63-5.14,4.54-6.11a15.52,15.52,0,0,0,2.59-.84c18.44-10.15,33.31-23.72,40.2-44.4,4.45-13.35,8.75-26.8,12.18-40.45,3.5-14,7.67-28.13,8.27-42.34a281,281,0,0,1,7.72-53.75c7.28-30.47,20.46-57.75,41.83-80.77,5.95-6.41,11.7-13,18.52-20.57H684.49c-1.08,9.19-1.73,18-3.23,26.72-2.92,16.92-5.28,34.05-9.82,50.55-4,14.37-8,28.92-14.77,42.43-3.27,6.5-5.43,13.58-8.07,20.41-2.87,7.44-5.16,15.17-8.68,22.28-13.2,26.68-31.19,50-51.32,71.61-6.34,6.8-52.51,44-55.94,41.7-3.12-2.11,30.61-61,39.87-87,3.16-8.86,6.44-17.53,6.87-27.12.23-5.18,1.63-10.3,2.36-15.47,1.44-10.29,2.92-20.58,4.12-30.9.81-7,1.83-14.1,1.59-21.12-.34-10-2.06-20-2.6-30.09-1.21-22.55-8.71-43.06-19.22-63.19l-12.76-1c-.16,3.08-.17,5.76-.45,8.41-1.68,16.28-11,28.54-22,39.25-11.8,11.51-29.51,12.94-43.85,5.24-16.87-9.06-22.34-30.39-12.2-47.3.7-1.17.88-2.67,1.85-5.82-4.12.84-7.16.72-9.33,2-4.65,2.85-8.72,6.65-13.27,9.69-7.08,4.73-9.31,12.65-10,19.78-2,19.95.6,39.84,4,59.56,5.41,31.53,36.53,102.42,30.78,100.34-4.25-1.53-8.08-4.21-12.13-6.31-16.35-8.48-32-17.92-44-32.37q-7.32-8.78-14.72-17.48c-12.43-14.63-22-31.29-26.46-49.72-5.4-22.56-11.78-45.28-10-69.06.22-2.9-1.17-13.93-2.2-16.2H269.17c1,4.36,1,8.72,2.92,12a23.46,23.46,0,0,1,3.24,15c-1.07,9.75-1.43,19.88-4.46,29-5.33,16.18-9.61,32.85-18.76,47.63-5.77,9.33-9.75,19.8-15.65,29-6.33,9.9-12.35,20.08-20.93,28.47-10.38,10.14-21,20-31.69,29.78-10.07,9.25-24.36,11.45-33.35,22.25-1.37,1.65-6.68,1.35-9.37.14-3.51-1.58-1.34-5.41-.85-8.33a10.72,10.72,0,0,1,.6-1.73c3.32-9.37,6.75-18.7,9.94-28.12,6.65-19.64,2-36.87-11.69-51.76-4.33-4.72-9.64-8.52-16.36-9.42-7.83-1.05-15.66-2.07-23.47-3.24-14.67-2.19-29.83-2.47-42.85-11.24-1.55-1-3.78-1.07-6.26-1.72V252.16c13.89,7.32,27.58,14.53,41.27,21.76,12.94,6.84,26.8,12.32,37.21,23.14,13.37,13.9,26.34,28.19,39.48,42.32,1.15,1.24,2.28,2.51,4,4.46.9-2,1.45-3,1.83-4,.71-2,1.33-4.07,2-6.12,6.12-19.55,15.88-36.91,30.28-51.53,5.32-5.4,10.67-10.81,15.62-16.56,31.78-36.9,72-49.65,119.1-42.47,10.89,1.66,21.57,3.27,32.43-.09,2.51-.78,5.49-.42,8.18,0a5.19,5.19,0,0,1,3.29,2.63c2.46,5.09.2,11.91-5.15,13.53-10,3-16.36,11.24-24.76,16.51-1.2.75-1.76,3.1-2,4.79a10.93,10.93,0,0,0,4.48,10.66c2.59-.83,5.17-1.64,7.74-2.48,10.78-3.55,21.82-6.43,33.16-5.13,7.43.85,15.64,2.05,21.74,5.93,10.05,6.38,18,15.57,20.8,28,1.84,8.1,7.41,11.57,15.06,12.45,9.15,1.06-3.37,17.74-9.63,21.28.48,4.74,1.21,9.27,1.35,13.83.31,9.84,3.43,19.3-1.61,29.6-3.48,7.12-7.18,12.4-13.87,15.88-3.11,1.62-6.23,3.2-9.16,4.7,2.62,5.9,5.22,10.82,7,16a28.93,28.93,0,0,0,12.25,15.55,46.91,46.91,0,0,1,7.41,5.41c13.55,13.09,31.13,17.58,48.21,22.9,10.42,3.25,21.35,4.79,31.84,7.84,17.62,5.11,35.44,8.24,53.72,5.9,25.11-3.22,49.53-9.81,73.74-17.05a93.83,93.83,0,0,0,19.87-9.05c6.83-4,13.06-9,19.56-13.51s12.7-9.66,19.6-13.48C733.2,406.35,758.09,406,778.44,412.8ZM486.79,810.88c-.74-3.06-13.29-6.87-19-17.94a148.34,148.34,0,0,1-9.34-64.39c1.16-15.27,4.92-29.56,15.61-42,16.39-19.12,38.43-28.6,59.93-39.06a22.25,22.25,0,0,0,11.16-10.78c9.16-17.51,18.8-28.84,39.35-44.79,27.18-17.26,57.42-17.81,61.94-17.56a84.47,84.47,0,0,1,26.06,5.39c21.6,8.42,40.48,21.8,55,40.21,15.13,19.24,30.43,38.47,42,60.33.77,1.45,3.24,2,4.92,3,.75-1.8,2.56-4,2.09-5.34a230.26,230.26,0,0,0-8.68-22.26c-2.95-6.41-6.95-12.33-10-18.7a100.16,100.16,0,0,0-24.47-32c-13.34-11.8-27-23.09-44.19-31l12.2-17c4.43,3,7.85,6.79,12,7.89,12.94,3.43,24.66-1,35.57-7.88,1-.62,1.9-3.14,1.44-3.91a7.82,7.82,0,0,0-4.18-2.76c-1-.33-2.35.32-3.53.61-19,4.62-29.22,0-40.82-18.61-4.29-6.88-8.26-8.95-15.75-6.18-8.28,3.05-16.41,6.73-24.9,8.93-19.39,5-39.1,2.45-57.92-2-28.74-6.83-56.35-17.61-81.34-34-9.69-6.36-18.48-14.09-27.9-20.9-11.61-8.39-24-14.63-39-13.17-7.51.73-8.7,2.63-7.78,9.87,1,7.85,2,16,.93,23.72-1.26,8.75,8.1,35.05,4.91,42.12-3.13-.51-6.69-.72-10-1.71-8.58-2.55-15-.42-20.1,7.39-9.1,14-22.53,19.88-38.39,21.71-10.22,1.18-20.4,2.81-29.9,4.14a15.57,15.57,0,0,0-1.11,1.51c-6.74,14.57-10.52,29.1.78,43.34.19.24.46.53.44.79-.28,4.15.82,9.37-1.26,12.18-3,4-33.9-13.36-45.11-19.55-5.6-3.09-10.79-7.4-16.75-9.27-15.68-4.92-31.6-9.18-47.59-13-19.89-4.76-37.55-12.91-49.13-30.79-5.66-8.74-10.53-18-15.8-27-.82-1.39-1.86-2.65-4.21-6,.4,11-8.49,16.51-7.66,25.59-7.5,13.66-13.13,28.36-23.15,40.61s-18.85,25.92-32.53,34.64c-10,6.38-20.3,12.42-30.88,17.78-8.52,4.33-17.1,9-27,9.78-1.29.1-2.49,1.46-3.42,2.05-1.83,27.93-1,79.69,1.69,86.6,5.19-6.92,10.41-13.27,14.94-20.08,7.19-10.84,16.62-19.37,26.68-27.22,4.76-3.71,9.83-7.41,15.35-9.63A52.86,52.86,0,0,0,125,674.42a34.89,34.89,0,0,1,8.47-5.19c4.37-2.09,9-3.52,13.36-5.71a85.37,85.37,0,0,1,48.09-8.61c11.44,1.17,22.65,4.36,34.05,6.06,10.72,1.6,19.58,6.75,27.44,13.69,13.78,12.17,22.3,28.23,30,44.54,7.61,16,14.39,32.52,20.91,49.07,2.76,7,4.15,14.63,5.73,22.06a191.15,191.15,0,0,1,3.37,28.15c1,15.9,5.36,31.52,4.59,47.66,0,.81.64,1.65.95,2.4,13,1.7,117.61,1.07,124.1-.74-2.69-2.84-5.72-5.39-7.95-8.52-6-8.4-6.86-18.32-6.57-28.15.35-12.07,6.6-20.28,18.33-23.53C456.59,805.74,481.33,805.19,486.79,810.88ZM50.41,324.51V594.34c10.38-1,20.76-6.68,29.37-15.7,13.72-14.36,27-29,38.23-45.58,11-16.27,19.09-33.66,20.62-53.41.87-11.31.26-22.77-.16-34.14-.25-6.71-.58-13.63-2.36-20-2.36-8.47-4.58-17-9.78-24.65a61.46,61.46,0,0,1-9.25-20.76c-2.93-13.28-11.95-20.92-21.91-28.19-3.66-2.67-7.64-5-11-8.06C74.64,335,63.45,329.17,50.41,324.51ZM701.9,312.09c3.5-.93,6.48-1.36,9.17-2.5,23.12-9.81,45-21.74,63.75-38.87,13-11.93,26.38-23.62,38.6-36.38,13.54-14.14,26.1-29.26,38.8-44.2,6.88-8.09,11.65-17,10.37-28.55-.88-7.92-.11-16-.2-24,0-2.32-.48-4.64-.73-7l-2-1.21a29.82,29.82,0,0,1-2.13,4.06c-7,9.53-13.08,19.58-20.89,28.72-12.93,15.13-27.53,28.37-41.42,42.4-10.07,10.17-21.93,18.55-30.08,30.64a8.24,8.24,0,0,1-1.16,1.43c-3.08,2.87-9.18,3.22-11.67.26-2.72-3.23-2.38-6.68.4-10a73.25,73.25,0,0,0,6-8.15c10.37-16.64,20.19-33.58,28-51.64,2.31-5.33,4.8-10.58,7.49-15.72,5.68-10.86,11.89-21.45,17.27-32.46q11.7-24,22.45-48.38c3-6.78,4.93-14,7.61-21.86-8.62,0-16,.73-23.23-.17-11.3-1.41-18.45,4.4-24.88,12.36-4.81,6-9.36,12.18-14.64,17.68-11.15,11.62-19.68,24.87-26.87,39.27S740,147.45,736.74,163c-3.05,14.4-4.79,29.08-7.5,43.56-3,15.73-7,31.28-9.43,47.08-3,19.25-5.78,38.4-17.15,54.92C702.22,309.23,702.29,310.21,701.9,312.09ZM383.6,432.49c-4.73-10.57-9.22-19.87-13-29.45a26.84,26.84,0,0,0-10-12.79c-8.58-5.81-17.32-11.4-25.86-17.26-12-8.27-25-7.91-38.45-4.79-10.24,2.37-20.27,4.91-29.9,9.54-10.75,5.18-21.8,9.85-30,18.8-7.71,8.46-14.49,17.78-22,27.08,12,9.16,23.13,17.63,36.65,22.22,8.34,2.83,16.53,6.13,25,8.56,10.83,3.11,21.83,5.22,33.28,4,16.11-1.72,30.58-8.44,44.49-15.84C362.85,437.75,372.15,434.87,383.6,432.49ZM862.09,754.54c-9.68,9.12-18.86,18-30.15,24.25a111.81,111.81,0,0,1-63.36,13.95c-14.19-1-26.75-5.29-37.36-15-11.06-10.14-22.38-20-33.23-30.35a180.51,180.51,0,0,1-18.73-20.13c-9.48-12.31-18.24-25.19-24.15-40.31l-11.28,2.2A256.57,256.57,0,0,0,673,733.06a316,316,0,0,0,44.32,45.15c6.09,5,11.3,11.23,16.54,17.22,1.9,2.17,3,5.21,3.94,8,3.51,11.12,2.69,22.53,1.67,33.91-1,11.62-4.92,21.48-16.45,26.55-2,.89-3.83,2.32-7.21,4.42,12.8,2.34,22.58.74,31.11-7.3,4.88-4.6,10.49-8.4,15.69-12.66,5.83-4.78,12.7-7.76,19-11.65,10.62-6.57,21-13.35,32.7-17.84a67.46,67.46,0,0,0,11.86-6.54c4.31-2.75,8.56-4.53,13.2-2.38l20.2,59.24c1.25-1,2.5-1.51,2.5-2Q862.15,810.87,862.09,754.54ZM191.45,139.81c1-.56,1.82-.74,2-1.14,5-15.42,15.55-28.3,19.45-44.21,1.3-5.31,3.11-10.49,4.42-15.79,1.52-6.14-.09-9.64-5.4-13.26-2.36-1.61-4.53-3.49-7.24-5.6l5.65-5.38c-4.86-5.64-4.86-5.7-10.83-5.73-9.46,0-18.92,0-28.38,0H156.64c1.63,4.9,2.22,8.66,4,11.69,4,6.8,8.49,13.39,13.16,19.78,3.37,4.62,5.58,9.29,4.51,15.06-5.56,3.3-10.7,2.06-14.68-1.58C148.64,79.93,131,69.18,118,53.28c-3.12-3.79-6.45-4.72-11-4.67-15.87.2-31.73.06-47.6.1-2.28,0-4.55.27-8,.5,1.9,2.51,2.74,4.16,4,5.25,5.22,4.43,6.61,10.61,8.12,16.84a19.58,19.58,0,0,0,2.72,6.62c11.69,16.56,28.33,24.5,47.75,27,10.86,1.4,21.81,2.44,32.75,2.8,12.87.43,22.54,6.51,30.75,15.73C182.31,128.84,186.87,134.42,191.45,139.81Zm16.88,331.37-2.2,1.79c1.32,8.71,2.55,17.43,4,26.13,1.56,9.53,4.94,18.25,11.73,25.34,1.46,1.53,2.69,3.28,4.2,4.76,4.74,4.64,9,10.08,14.49,13.57,7.66,4.88,16.31,8.14,24.41,12.34,14.6,7.56,29.73,13.54,46,16.69,2.25-6.33,4.15-12.75,6.8-18.84,3.52-8.05,7.75-15.78,11.45-23.76a26,26,0,0,0-.9-24.77c-21-2.07-42.31.37-62.41-6.85C246,490.44,226,483.6,208.32,471.19Zm2.8-117.93a2,2,0,0,0,.76-.07,15.7,15.7,0,0,0,2.34-1.42c20.51-16.52,43.56-25.13,70.08-23.8a140.4,140.4,0,0,0,21.9-1c9.17-1,13.61-5.2,14.37-14.47a33.23,33.23,0,0,0-2.25-14.25c-3.34-8.62-7.49-16.86-6.54-26.56.38-3.88.06-7.82.06-11.69C279.15,259.25,218.07,314.82,211.13,353.26Zm197.07-33.6c-3.46-2.93-7-5.06-9.4-8.11-5.92-7.5-13.88-10.53-22.76-12-7.64-1.26-11.45.65-13.57,8.22-2.51,9-6.73,17-11.82,24.62-2.32,3.48-4.12,7.31-6.39,11.4,2.91,1.05,5.33,2.4,7.89,2.77,16.18,2.34,29.8,10.15,42.61,19.84a36.39,36.39,0,0,0,5.13,2.65c2.21-6.48,7.37-11.53,5-18.38C401,339.94,404,330.13,408.19,319.66Zm-5.8,150.65c-3.6.93-7,2.25-10.56,2.65-9,1-14.1,7.69-19.64,13.55-1.35,1.43-2.15,4.8-1.45,6.58a56.39,56.39,0,0,1,3,29.79c-.24,1.58.76,3.36,1.25,5.3,7.76,0,14.9,0,20.28-6.42,4.43-5.27,9.11-10.32,13.85-15.67-4.87-10.12-4.83-10.11-4.12-22.24C405.34,479.26,405.45,474.66,402.4,470.31ZM621.94,816.12c-10-7.13-29.38-19.28-39.22-26.28,0,12.85.06,24.5,0,36.14-.05,7.17-1.57,13.92-5.73,20-5.06,7.4-9.84,15-14.84,22.67,9.26,0,42.21-.61,50.33-.61-20.17-4.92-24-21.47-22.41-31.87C591.91,824.42,612.22,816.12,621.94,816.12ZM816.61,581.83c-.93.75-2.94,1.63-3,2.56-.05,1.89.38,4.62,1.66,5.58,6.81,5.12,13.66,10.3,22.94,9.9,7.11-.3,10.06,2.49,12.26,9.21a199.77,199.77,0,0,0,8.37,21.33c.7,1.53,4.12,3,5.77,2.6,2.87-.78,2.61-3.77,1.43-6.17a35.72,35.72,0,0,1-3.42-18.8c.23-3.14-11.88-19.22-14.7-20a3,3,0,0,0-1.78-.11c-5.08,2.09-9.49-.62-14.1-1.89C827.08,584.65,822.1,583.32,816.61,581.83ZM186,826.85l-1.15-.23-22.39,41.93H186ZM839.48,536.36c-.1-6.2-3.7-9-11.26-8.84-5.74.14-9,3.07-9,8.1,0,4.65,7.82,11.2,13,10.84C836.49,546.16,839.57,541.91,839.48,536.36Zm-81-18c.25-5.73,5.58-11.31-.8-16.27-3.19-2.48-7.1-3.91-11-1.32-2.89,1.91-4.75,9.39-3.42,12.66C745.13,517.93,749.11,519.36,758.53,518.32Z"/></g><g id="newGrid"><path class="cls-2" d="M0,0V909.84H909.83V0ZM871.1,790.06c-.1,25.31,0,50.61,0,75.92v11.36H37.58V34.93c3.94-.17,6.92-.41,9.9-.42,15.62,0,31.24.12,46.86-.09,5.76-.08,11.49-1,17.25-1.49,1.82-.16,3.81-.72,5.46-.23,10.82,3.26,21.87,1.66,32.8,1.7,45.63.2,91.26,0,136.89.1Q573.37,34.74,860,35h11.08V46.87q0,124.92,0,249.84c0,14.51,1,29,.94,43.54-.16,43.21-.75,86.43-.91,129.64,0,13.58,1.11,27.16,1.07,40.74Q871.8,650.34,871.1,790.06Z"/></g></g></svg>