<svg xmlns="http://www.w3.org/2000/svg" viewBox="0 0 910.35 897.63"><defs><style>.cls-1{fill:#ce242b;}</style></defs><title>2_1_4</title><g id="Layer_2" data-name="Layer 2"><g id="hongcun"><path class="cls-1" d="M910.35,897.63H14.07c-14.06,0-14.07,0-14.07-14Q0,449.4,0,15.19C0,11.31,0,7.42,0,2.13H349.45q255.44,0,510.89-.08C873.3,2,886.27,1,899.22.14c9-.6,10.57.44,10.88,9.43.24,6.87.24,13.74.24,20.61q0,426.84,0,853.69C910.35,888.06,910.35,892.25,910.35,897.63ZM808.16,401.83c-9.21-11.18-6.94-22.79-4-32,4.69-14.89,20.55-28.84,36.06-28.73,7.94.06,15.91,1.23,23.79,2.42a22.8,22.8,0,0,1,9,3.7c20.06,13.61,26.87,42.68,14.91,63.63-3.53,6.18-10.35,15.43-18.48,14.9,6.19,7.4,19.74,17.06,28.74,20.5.68-1.06,1.32-1.59,1.32-2.12q.2-102.65.28-205.31a40.6,40.6,0,0,0-.44-4.86c0-.25-.37-.5-.62-.69a11.14,11.14,0,0,0-1.39-.66c-.92,1.07-1.94,2.26-3,3.45-5.87,7-11.09,14.6-17.74,20.73-12.71,11.72-26.36,22.46-39.39,33.85a293.87,293.87,0,0,1-34.59,25.92c-18.16,11.68-37.9,19.65-58.55,25.14-10.41,2.77-21.66,2.87-32.57,3.36-17,.77-33.63-2.58-50.29-5.91A196.45,196.45,0,0,1,629,329.37c-3.1-1.19-5-3-5-6.49s1.78-5.45,5-6.49a17.27,17.27,0,0,0,2.82-.9c20.11-10.77,36.33-25.17,43.86-47.12,4.86-14.17,9.54-28.45,13.28-42.93,3.82-14.81,8.37-29.85,9-44.94a290.69,290.69,0,0,1,8.42-57c7.94-32.34,22.32-61.3,45.63-85.72,6.49-6.8,12.77-13.79,20.2-21.83H705.67c-1.18,9.75-1.89,19.14-3.52,28.36-3.18,18-5.76,36.14-10.72,53.65-4.32,15.25-8.7,30.69-16.11,45-3.57,6.9-5.92,14.41-8.8,21.66-3.14,7.89-5.63,16.1-9.47,23.65-14.4,28.32-34,53.05-56,76-6.91,7.22-57.28,46.72-61,44.25-3.4-2.24,33.39-64.73,43.49-92.3,3.44-9.4,7-18.61,7.5-28.78.25-5.5,1.78-10.93,2.57-16.41,1.57-10.92,3.18-21.84,4.49-32.8.89-7.44,2-15,1.74-22.42-.37-10.66-2.25-21.27-2.84-31.93-1.32-23.93-9.5-45.7-21-67.07l-13.92-1c-.17,3.27-.19,6.11-.49,8.93-1.83,17.28-12,30.29-24,41.65-12.87,12.21-32.19,13.74-47.83,5.56-18.4-9.62-24.37-32.26-13.31-50.2.77-1.25,1-2.84,2-6.17-4.49.89-7.81.76-10.18,2.17-5.07,3-9.51,7.06-14.47,10.29-7.72,5-10.16,13.42-10.94,21-2.18,21.17.65,42.29,4.35,63.21,5.91,33.46,39.85,108.7,33.57,106.5-4.63-1.63-8.82-4.47-13.24-6.7-17.83-9-34.89-19-48-34.35q-8-9.31-16.06-18.56c-13.55-15.53-24-33.21-28.86-52.77-5.89-23.95-12.85-48.06-10.89-73.3.24-3.08-1.28-14.78-2.4-17.2H252.62c1.07,4.62,1.1,9.26,3.19,12.68a24.35,24.35,0,0,1,3.53,15.88c-1.17,10.35-1.56,21.09-4.86,30.83C248.66,92.37,244,110.07,234,125.76c-6.3,9.9-10.63,21-17.07,30.82-6.9,10.51-13.47,21.31-22.83,30.21-11.32,10.77-22.92,21.19-34.56,31.6-11,9.82-26.58,12.15-36.38,23.61-1.5,1.75-7.29,1.43-10.22.15-3.83-1.68-1.47-5.74-.93-8.84a11.17,11.17,0,0,1,.66-1.84c3.62-9.94,7.36-19.85,10.84-29.84,7.25-20.85,2.13-39.13-12.75-54.93-4.72-5-10.51-9-17.85-10-8.54-1.11-17.08-2.2-25.6-3.43-16-2.32-32.54-2.62-46.74-11.93-1.69-1.11-4.12-1.14-6.83-1.83V231.34c15.15,7.77,30.09,15.43,45,23.1C72.89,261.69,88,267.51,99.37,279c14.59,14.75,28.73,29.92,43.06,44.92,1.26,1.32,2.49,2.67,4.41,4.73,1-2.07,1.59-3.14,2-4.28.78-2.14,1.46-4.32,2.15-6.5,6.68-20.75,17.33-39.18,33-54.69,5.81-5.74,11.64-11.47,17-17.57,34.67-39.16,78.55-52.7,129.92-45.07,11.88,1.76,23.53,3.47,35.38-.1,2.74-.82,6-.45,8.92,0a5.64,5.64,0,0,1,3.59,2.79c2.68,5.41.22,12.64-5.62,14.36-10.89,3.21-17.85,11.93-27,17.52-1.31.8-1.92,3.29-2.14,5.08A11.47,11.47,0,0,0,349,251.46c2.82-.88,5.64-1.74,8.44-2.63,11.76-3.77,23.81-6.82,36.17-5.44,8.11.91,17.06,2.18,23.71,6.29,11,6.77,19.6,16.53,22.69,29.71,2,8.6,8.08,12.28,16.43,13.21,10,1.12-3.68,18.83-10.5,22.59.53,5,1.32,9.84,1.48,14.68.33,10.44,3.74,20.48-1.75,31.42-3.8,7.56-7.83,13.16-15.13,16.85-3.39,1.72-6.79,3.4-10,5,2.85,6.27,5.69,11.48,7.63,17a30.86,30.86,0,0,0,13.36,16.5,51.14,51.14,0,0,1,8.09,5.75c14.78,13.89,34,18.66,52.58,24.31,11.36,3.45,23.29,5.08,34.73,8.32,19.22,5.43,38.66,8.75,58.6,6.26,27.39-3.42,54-10.41,80.44-18.1a103.74,103.74,0,0,0,21.67-9.61c7.45-4.21,14.25-9.52,21.34-14.34s13.85-10.25,21.38-14.31C758.8,395,786,394.58,808.16,401.83ZM490,824.33c-.81-3.25-14.5-7.3-20.69-19A153.55,153.55,0,0,1,459.13,737c1.27-16.2,5.37-31.37,17-44.61C494,672.05,518.08,662,541.53,650.89c5.93-2.81,9.21-5.92,12.17-11.44,10-18.58,20.51-30.61,42.92-47.54,29.65-18.31,62.64-18.9,67.57-18.64A94.37,94.37,0,0,1,692.62,579c23.56,8.94,44.15,23.13,59.95,42.67,16.5,20.42,33.19,40.83,45.78,64,.84,1.54,3.54,2.11,5.37,3.13.82-1.91,2.79-4.21,2.28-5.67a240.43,240.43,0,0,0-9.46-23.62c-3.21-6.81-7.58-13.08-10.91-19.84a106.69,106.69,0,0,0-26.69-33.92c-14.55-12.52-29.45-24.51-48.21-32.86l13.3-18c4.83,3.2,8.57,7.21,13.07,8.37,14.12,3.64,26.9-1.09,38.8-8.36,1.07-.65,2.07-3.33,1.57-4.15-.86-1.4-2.84-2.38-4.56-2.93-1.1-.35-2.57.34-3.85.65-20.68,4.9-31.88,0-44.53-19.75-4.68-7.31-9-9.5-17.18-6.56-9,3.24-17.9,7.14-27.17,9.48C659,537,637.52,534.23,617,529.48c-31.35-7.25-61.47-18.69-88.72-36.08-10.57-6.75-20.16-15-30.44-22.18-12.67-8.91-26.19-15.53-42.53-14-8.19.77-9.49,2.79-8.48,10.48,1.09,8.33,2.22,17,1,25.18-1.38,9.29,8.83,37.2,5.35,44.71-3.42-.54-7.3-.77-10.93-1.81-9.36-2.7-16.37-.45-21.92,7.84-9.93,14.82-24.58,21.1-41.87,23-11.15,1.25-22.25,3-32.62,4.4a16.55,16.55,0,0,0-1.21,1.6c-7.35,15.47-11.48,30.88.85,46,.2.25.5.57.48.83-.31,4.4.9,9.95-1.37,12.92-3.23,4.23-37-14.18-49.21-20.75-6.11-3.28-11.77-7.86-18.27-9.84-17.11-5.22-34.47-9.74-51.91-13.8-21.69-5.05-41-13.7-53.59-32.68-6.17-9.27-11.48-19.1-17.23-28.65-.89-1.48-2-2.81-4.59-6.32.44,11.73-9.26,17.52-8.36,27.16-8.18,14.5-14.32,30.1-25.26,43.1S95.6,618.17,80.67,627.42C69.74,634.19,58.52,640.6,47,646.3c-9.3,4.59-18.65,9.53-29.45,10.38-1.41.11-2.71,1.55-3.73,2.18-2,29.64-1.07,84.58,1.84,91.91,5.66-7.35,11.36-14.08,16.3-21.32,7.85-11.51,18.13-20.55,29.11-28.89,5.19-3.94,10.72-7.87,16.74-10.22A57.9,57.9,0,0,0,95.36,679.5a38.26,38.26,0,0,1,9.23-5.51c4.76-2.22,9.87-3.74,14.58-6.06,16.59-8.18,34.28-10.94,52.46-9.14,12.47,1.24,24.71,4.63,37.15,6.43,11.7,1.69,21.36,7.17,29.93,14.53,15,12.92,24.33,30,32.76,47.27,8.3,17,15.7,34.52,22.81,52.07,3,7.45,4.53,15.52,6.25,23.42a197.64,197.64,0,0,1,3.67,29.88c1.06,16.87,5.84,33.45,5,50.58,0,.86.7,1.76,1,2.55,14.21,1.8,128.3,1.14,135.37-.79-2.93-3-6.23-5.72-8.67-9-6.53-8.91-7.48-19.44-7.17-29.88.39-12.81,7.2-21.53,20-25C457.07,818.87,484.06,818.29,490,824.33ZM14,308.13V594.51c11.32-1.1,22.65-7.09,32-16.66C61,562.61,75.5,547,87.74,529.47c12-17.27,20.83-35.72,22.49-56.68,1-12,.28-24.16-.17-36.24-.27-7.13-.63-14.47-2.58-21.26-2.57-9-5-18.06-10.67-26.16a64.38,64.38,0,0,1-10.09-22c-3.2-14.1-13-22.21-23.9-29.92-4-2.84-8.33-5.3-11.95-8.55C40.42,319.23,28.22,313.07,14,308.13Zm710.67-13.18c3.82-1,7.07-1.44,10-2.65,25.22-10.42,49.12-23.08,69.54-41.26C818.44,238.37,833,226,846.32,212.43c14.77-15,28.47-31.05,42.32-46.91,7.5-8.59,12.71-18.07,11.31-30.3-1-8.41-.12-17-.22-25.52a73.9,73.9,0,0,0-.8-7.39L896.72,101a31.36,31.36,0,0,1-2.33,4.31c-7.64,10.12-14.27,20.79-22.79,30.49-14.1,16.06-30,30.11-45.18,45-11,10.79-23.92,19.68-32.82,32.52a8.8,8.8,0,0,1-1.26,1.52c-3.36,3-10,3.42-12.73.28-3-3.42-2.59-7.08.43-10.61a77.88,77.88,0,0,0,6.49-8.65c11.31-17.66,22-35.64,30.56-54.8,2.52-5.65,5.24-11.23,8.17-16.69,6.2-11.52,13-22.76,18.83-34.45q12.76-25.43,24.48-51.35c3.27-7.2,5.38-14.91,8.3-23.21-9.4,0-17.48.78-25.34-.18-12.33-1.5-20.12,4.67-27.14,13.12-5.25,6.32-10.21,12.93-16,18.77C796.28,59.43,787,73.49,779.13,88.78s-12.86,31.43-16.46,48c-3.33,15.28-5.22,30.86-8.19,46.23-3.22,16.7-7.58,33.2-10.29,50-3.3,20.43-6.3,40.76-18.71,58.29C725,291.91,725.08,293,724.66,294.95ZM377.44,422.73c-5.16-11.21-10.06-21.09-14.23-31.26a28.63,28.63,0,0,0-10.95-13.57c-9.36-6.17-18.89-12.09-28.21-18.32-13.14-8.78-27.25-8.39-41.94-5.08-11.17,2.52-22.12,5.21-32.61,10.13-11.73,5.49-23.78,10.45-32.68,20-8.41,9-15.81,18.87-24,28.74,13.05,9.73,25.23,18.71,40,23.58,9.09,3,18,6.51,27.25,9.09,11.81,3.31,23.81,5.54,36.3,4.24,17.57-1.83,33.35-9,48.53-16.81C354.81,428.31,365,425.26,377.44,422.73Zm522,341.81c-10.56,9.68-20.57,19.06-32.89,25.73C845,801.94,822,806.69,797.4,805.07c-15.48-1-29.18-5.61-40.76-15.94-12.06-10.76-24.41-21.22-36.25-32.21A193.77,193.77,0,0,1,700,735.56c-10.34-13.06-19.89-26.73-26.34-42.78l-12.31,2.33a271.85,271.85,0,0,0,31.78,46.63,340,340,0,0,0,48.34,47.92c6.64,5.35,12.33,11.91,18,18.28,2.07,2.3,3.32,5.52,4.3,8.53,3.82,11.81,2.93,23.92,1.82,36-1.13,12.33-5.36,22.8-17.94,28.17-2.22.95-4.18,2.47-7.87,4.69,14,2.48,24.63.79,33.94-7.75,5.32-4.88,11.45-8.91,17.12-13.44,6.35-5.07,13.85-8.24,20.7-12.36,11.59-7,22.88-14.17,35.67-18.94,4.56-1.7,8.79-4.36,12.94-6.94,4.7-2.92,9.34-4.81,14.4-2.53l22,62.88c1.36-1,2.73-1.6,2.73-2.16Q899.47,824.31,899.41,764.54ZM167.84,112.1c1.09-.6,2-.78,2.13-1.21,5.41-16.37,17-30,21.22-46.92,1.42-5.63,3.39-11.13,4.82-16.76,1.66-6.52-.09-10.23-5.89-14.07-2.57-1.7-4.94-3.7-7.9-5.94l6.16-5.71c-5.31-6-5.3-6-11.82-6.08-10.32-.05-20.64,0-31,0H129.87c1.78,5.2,2.43,9.19,4.39,12.41,4.41,7.22,9.26,14.21,14.35,21,3.68,4.91,6.09,9.86,4.92,16-6.07,3.5-11.67,2.18-16-1.68-16.38-14.56-35.59-26-49.84-42.85-3.4-4-7-5-12-5-17.31.21-34.62.06-51.93.1-2.48,0-5,.29-8.72.53,2.07,2.67,3,4.41,4.41,5.58,5.7,4.7,7.21,11.26,8.86,17.88a20.47,20.47,0,0,0,3,7C44,64,62.21,72.42,83.39,75.08c11.85,1.49,23.79,2.59,35.72,3,14,.45,24.58,6.91,33.54,16.7C157.87,100.45,162.84,106.38,167.84,112.1Zm18.41,351.7-2.4,1.9c1.44,9.24,2.78,18.5,4.34,27.73,1.7,10.11,5.39,19.37,12.8,26.9,1.59,1.62,2.93,3.48,4.58,5,5.17,4.93,9.83,10.7,15.81,14.41,8.35,5.18,17.79,8.64,26.63,13.1,15.92,8,32.43,14.37,50.14,17.71,2.46-6.72,4.52-13.54,7.42-20,3.84-8.55,8.46-16.75,12.49-25.22,4.2-8.82,4-17.59-1-26.29-22.86-2.2-46.15.4-68.07-7.27C227.34,484.24,205.48,477,186.24,463.8Zm3.06-125.16a2.24,2.24,0,0,0,.83-.07,17.22,17.22,0,0,0,2.55-1.51c22.37-17.53,47.52-26.68,76.45-25.25a157.37,157.37,0,0,0,23.89-1c10-1,14.84-5.52,15.68-15.36a34.41,34.41,0,0,0-2.46-15.12c-3.65-9.15-8.17-17.89-7.13-28.19.41-4.11.07-8.3.07-12.4C263.5,238.87,196.88,297.84,189.3,338.64Zm215-35.66c-3.78-3.1-7.63-5.37-10.26-8.61-6.45-8-15.14-11.18-24.82-12.73-8.33-1.33-12.5.69-14.8,8.73-2.74,9.55-7.34,18-12.89,26.13-2.53,3.7-4.5,7.76-7,12.1,3.18,1.12,5.82,2.55,8.61,2.94,17.65,2.49,32.51,10.78,46.48,21.06,1.47,1.08,3.3,1.68,5.6,2.81,2.41-6.88,8-12.24,5.4-19.5C396.48,324.5,399.74,314.09,404.27,303ZM398,462.86c-3.92,1-7.67,2.38-11.52,2.81-9.81,1.08-15.38,8.16-21.43,14.39-1.48,1.52-2.34,5.1-1.58,7a58.34,58.34,0,0,1,3.32,31.62c-.26,1.68.83,3.56,1.37,5.62,8.47,0,16.26,0,22.13-6.81,4.83-5.59,9.93-11,15.11-16.64-5.31-10.74-5.27-10.73-4.49-23.61C401.16,472.37,401.28,467.49,398,462.86Zm239.49,367c-10.92-7.57-32.05-20.46-42.78-27.89,0,13.64.07,26,0,38.36-.06,7.61-1.72,14.77-6.25,21.22-5.52,7.86-10.73,15.93-16.19,24.07,10.1,0,46-.65,54.9-.65-22-5.22-26.23-22.79-24.44-33.82C604.68,838.7,626.83,829.89,637.44,829.89ZM849.79,581.23c-1,.8-3.21,1.73-3.24,2.72-.05,2,.41,4.9,1.81,5.92,7.43,5.43,14.9,10.93,25,10.51,7.75-.32,11,2.65,13.37,9.78a208.63,208.63,0,0,0,9.13,22.64c.77,1.62,4.49,3.23,6.29,2.76,3.14-.82,2.84-4,1.56-6.55a37,37,0,0,1-3.73-20c.25-3.33-13-20.4-16-21.25a3.35,3.35,0,0,0-1.94-.12c-5.54,2.22-10.35-.66-15.38-2C861.22,584.23,855.78,582.81,849.79,581.23Zm-687.89,260-1.25-.25-24.42,44.51H161.9ZM874.74,533c-.1-6.58-4-9.58-12.29-9.38-6.27.15-9.83,3.26-9.87,8.6,0,4.94,8.53,11.89,14.17,11.5C871.48,543.37,874.84,538.86,874.74,533Zm-88.31-19.15c.27-6.09,6.09-12-.87-17.26-3.48-2.63-7.74-4.15-12-1.4-3.15,2-5.18,10-3.73,13.44C771.82,513.41,776.16,514.93,786.44,513.82Z"/></g></g></svg>