<svg xmlns="http://www.w3.org/2000/svg" viewBox="0 0 894.4 895.12"><defs><style>.cls-1{fill:#ce242b;}</style></defs><title>2_2</title><g id="Layer_2" data-name="Layer 2"><g id="Layer_1-2" data-name="Layer 1"><path class="cls-1" d="M1.18,0H894.4V893.32c-6.81,1.92-879.58,2.55-892.66.62C-.09,887-.78,15.07,1.18,0ZM885.52,485c-2.85-2.55-5.31-4.11-6.9-6.3a168.13,168.13,0,0,1-10.74-16.2c-7.08-12.52-16.45-21.72-31.52-23.07-9.33-.84-18.69-1.51-28.05-1.84-18.67-.65-35.68-4.58-49.37-19-6-6.31-6.4-12.18-3.74-19.34,3.77-10.19,8.68-19.86,10.77-30.79,1.82-9.54,1.9-17.84-5-25.34-1.71-1.85-3.65-4.35-3.77-6.64-.54-11.15-3.2-22.14,1.19-33.52,3.41-8.85,4.41-18.77,5.58-28.32,1.68-13.82,2.67-27.73,3.71-41.63a175.7,175.7,0,0,0,.69-21.43c-.51-10.67-4.08-13.84-14.62-13.44a55.58,55.58,0,0,0-12.31,2.27c-7.14,1.95-14.14,4.39-21.27,6.37-6.42,1.78-12.06.6-16.79-4.62-2.14-2.37-5.32-3.77-7.63-6-5.38-5.21-11.25-5.2-17.89-2.86-11,3.86-19.57,11-27.15,19.4-7,7.81-15.57,11-25.94,10.86-14.35-.19-26.5-5.54-37-14.86-9.16-8.11-20.24-11.1-31.89-12.89-20.14-3.1-40.39-5.67-60.36-9.61-15-2.95-21.18-11.53-22-26.59-.67-11.87.55-13.81,10.93-19,2.83-1.41,6.55-3,7.68-5.52,4-8.82,7.81-18.11,1.31-27.51-3.47-5-6.45-11-11.18-14.37-11-7.85-21.57-16.58-34.88-20.64-7.27-2.22-14.31-5.22-21.6-7.35a24.76,24.76,0,0,1-17.47-19.05c-2.37-12.3-5.17-24.49-2.62-37.56h-10c-30.92,0-61.85-.33-92.76.28-10.2.2-21.69.54-24.83,14.29-.24,1-1.83,1.74-2.75,2.64C257.44,43.51,235.46,53.21,211.5,59c-14,3.4-27.5,2.6-40.58-4.3-7.81-4.12-12.8-9.55-13.7-18.62-.26-2.66-1.93-5.23-3.2-7.72-1.59-3.11-3.65-6-5.12-9.13-3.27-7-7.49-11.54-16.33-10.75C120.3,9.62,108,9.9,95.64,10.05c-19.2.23-38.41,0-57.61.09-2.83,0-5.67.34-6.89.42-5.13,10.67,1.92,18,5.6,25.32,5.15,10.3,13.63,18.88,19.82,28.73,9.17,14.61,23.64,21,38.94,25.49s30.86,7.24,46.39,10.43A150.13,150.13,0,0,0,161,103c17.07,1.25,34.46-3.07,51.27,3,.79.29,1.9-.5,2.85-.45,11.73.6,23.47,1.18,31.7,11.53.76,1,2.26,1.27,3.29,2,10.43,7.77,20.56,15.47,23.72,29.46,2.48,10.95,2,21.64,0,32.33-.69,3.54-2.6,7.94-5.38,9.77-11.27,7.42-22.59,15.12-34.85,20.59-15.67,7-32.41,5.36-48.73,1.06A26.34,26.34,0,0,0,165,214.44c-13.64,7.5-14.68,20.31-2.44,30.66,7.44,6.29,16.83,9.57,26.88,10.2,6.13.39,12.29,1.84,18.35,1.45,4.93-.32,9.82-2.08,14.61-3.71a143.59,143.59,0,0,0,14.31-5.73c6.91-3.21,14.39-5.67,20.57-10,12.86-8.94,26.19-15.17,42.34-13.34,9.35,1.06,18.48,2.16,27,7,7.81,4.48,16.46,7.35,23.44,13.48,11.58,10.17,17.57,22.58,18.21,38.09.49,12-4,22.72-9,32.51-6.11,12-13,24.53-25.91,31.47a9.16,9.16,0,0,0-3.62,4.16c-2,4.45-5.59,6.65-9.72,8.84-8.19,4.34-16.51,4.61-25.44,3.18-16.75-2.68-31.29,1.55-42.68,15.26,2,3.18,3.23,7.39,5.92,8.84a236.63,236.63,0,0,0,30.48,14.29c6.88,2.53,14.93,1.85,21.85,4.32,11.52,4.11,23.38,7.45,34,14.15,6.84,4.32,12.33,9.41,16.08,16.46,2,3.73,3.57,7.69,5.79,11.26a41.32,41.32,0,0,1,6.39,24.14c-.77,16-3.75,31.78-12.21,45.66a54.21,54.21,0,0,1-27,22.79c-17.88,6.95-35.67,4.72-51.71-4.15-18.64-10.31-36.5-22.23-53.83-34.68-16.93-12.16-39.92-12.57-56.74,1.34,1.41,11.31,5.47,21.1,16.77,26.83A96.25,96.25,0,0,1,200,537c5.62,4,8.13,9.48,7.71,16.61-.52,8.82-6.41,13.79-12.28,18.91-3.17,2.77-6.77,5.11-9.65,8.15-11.9,12.51-23.51,14.84-39.14,7.84-16.81-7.52-27.76-21.51-37-36.18C92,524.11,96.07,494,105.8,464.16c3.89-12,8.52-23.71,11.84-35.82a59.48,59.48,0,0,0-2.5-39.95c-3.06-7.13-6.5-8.47-13.9-6.5C91.6,384.46,84.59,394,83.33,406.14c-.74,7.08-2.32,14.15-2.34,21.22,0,7.91-3.84,13.25-10.11,16.45A207.64,207.64,0,0,1,44.12,455c-2.55.88-6.78-.26-9.06-2-7.17-5.48-13.77-11.7-20.6-17.63-1.31-1.14-2.66-2.25-5.37-4.53,0,4.94,0,8.09,0,11.24,0,27,.59,54-.25,81-.42,13.41,5.17,23.74,12.34,33.81,10.25,14.4,23,26,37.68,36.15,19.84,13.71,39.48,27.1,63.77,31.66,5.57,1,6.59,3.4,6.66,11.6-4.8,1-9.76,2.49-14.81,3.08Q93.77,641.83,73,643.6c-20.26,1.7-40.59,4.19-60.63-1.92-.7-.21-1.7.56-2.46.83-1.49,12.45.48,52.76,2.9,57.64,3.17-3.32,5.86-7.14,9.44-9.73,17.67-12.75,37.48-18.47,59.29-16.73A118.79,118.79,0,0,1,94,675.35c11.13,2.1,22.28,4.35,31.12,12.21,3.61,3.2,6.62,7.1,10.35,10.13A49.38,49.38,0,0,1,149,714.09c6.12,12.17,16.6,17.3,29.85,17.88a24.48,24.48,0,0,0,19.27-7.64c11.3-11.27,13.3-20.29,5.47-33.93-7.32-12.76-9.15-26.14-7.56-40.32,1.91-17,6.15-33.09,18-46.26,9.21-10.2,20-17.36,34-18.78,9.4-1,17.82.51,25.33,7.26,5.89,5.3,10.61,10.94,13.8,18.23,10.61,24.29,15,49.34,11.67,75.84-1.08,8.55-.46,17.44.38,26.08.69,7,2.92,13.87,4.4,20.81a90.27,90.27,0,0,0,23.54,44,124.33,124.33,0,0,0,11.68,11.43c9.07,7.32,19.55,8,29.07,2.13,9.23-5.7,9.93-15.64,9.39-26a229.89,229.89,0,0,1,.54-36.53c1.76-16.31,18.05-30,34.41-30.05,9.12,0,18,1.35,25.43,7.71,5.16,4.41,11.13,7.88,16.26,12.32a30.48,30.48,0,0,1,6.89,9.16c5.92,11.67,8.71,24.4,10.78,37.15,2.59,16,4.27,32.07,6.08,48.15a63.35,63.35,0,0,0,17.74,37.76c4,4.16,7,9.25,10.48,13.86a79.82,79.82,0,0,0,5.91,7.12c3.06,3.17,6.32,6.16,9.56,9.14,1.86,1.71,3.81,4.6,5.8,4.68,11.46.44,23,1,35.67-.36-2.71-2.87-4.36-4.8-6.2-6.53-9.16-8.6-14.38-18.93-14.74-31.58a83.38,83.38,0,0,0-1.14-12.55c-2.51-13.78-.89-27.19,1.87-40.78,2.47-12.17,8.76-22.24,15.48-32,5.46-7.94,12.14-15.15,18.93-22,4.89-5,10.86-8.88,16.52-13.4-4.29-7.76-8.6-15-12.37-22.48-7.74-15.38-6.34-32.1-3.31-47.76,2.81-14.56,2-28.27-.91-42.21-2.92-14.16-9.8-25.8-22.94-33.22-4.5-2.54-8.42-4.1-13.67-2.23-8.81,3.13-18,5.24-26.78,8.4-19.75,7.09-39.37,14.55-59,21.88-5.43,2-10.69,4.63-16.26,6.09Q417.28,620,396,624.76c-24.1,5.37-80.68.39-82.08-7.32,16.54-6.21,34.45-9.1,49.32-19.6.76-.54,1.9-.51,2.75-1,12.82-6.77,25.67-13.47,38.41-20.39,11.55-6.27,23-12.75,34.44-19.21a71.6,71.6,0,0,0,9.08-5.66c9.59-7.5,52.16-41.43,62.73-52.22,3.57-3.64,8-6.62,11-10.65,5.91-7.9,14.68-21,20-29-11,.79-20.55-3.24-28.14-9.73-2.68-2.29-9.47-7.89-10.26-25.51.32-10.08-.25-14.25,3.42-22.35,7.63-16.83,15.73-20.87,22.88-23.67,15.1-5.9,27-1.32,41.13,5.45,10.25,4.9,17.08,12.75,18.23,24.64a24.13,24.13,0,0,0,1.44,4.56,18.37,18.37,0,0,0,3.08-1.75q14.86-13.9,29.66-27.88c9.64-9.07,19.53-17.89,28.81-27.3,6.3-6.39,11.73-13.71,17.11-20.9,4.62-6.17,9.06-12.48,13.39-18.86,7.78-11.44,16.2-22.49,23.51-34.24,8.54-13.73,16.41-27.88,24.61-41.83,1.09-1.85,2.48-3.52,3.75-5.3-.2,10.46-.5,47.66-2.35,55.38-5.21,21.67-9.71,43.49-15.41,65.07a516.18,516.18,0,0,1-25.29,74.11c-6.07,14-8.94,28.48-4,43.52,4.3,13.14,8.8,26.21,13.27,39.48-5.19,5.58-11.26,11.09-16.08,17.55-6,8.05-11,16.88-16.42,25.36-11.1,17.33-17.56,36.06-16.83,56.86.07,1.94,1,4.89,2.43,5.53,2.81,1.28,4.81-.7,5.55-3.67,1.08-4.37,2.26-8.72,3.26-13.11,2.66-11.66,10.22-20.86,15.56-31.18a271.73,271.73,0,0,1,40.89-58,62.89,62.89,0,0,1,24.95-16.44c19.1-7.15,38.64-13.11,58.93-16.19,3.8-.58,7.47-2.83,11.2-2.83,15.63,0,30.77,2.16,44.46,10.83,8.54,5.41,17.63,10,27.14,15.26ZM36.61,367c2.5,0,4.53-.4,6.34.07,8.71,2.28,14.32-2.41,18.74-8.68a95.84,95.84,0,0,0,9-16.11A28.05,28.05,0,0,1,85.49,327.9c11.17-4.64,22.92-5.17,34.73,0a95.78,95.78,0,0,1,31.48,22.32c8.19,8.75,14.66,18.91,15,31.79.36,12.32,1.24,24.62,1.79,36.94.57,12.92,10.41,26,21.89,29.39,14.81,4.4,30.15,4.11,45.3,5.12,9.79.65,14.37-7.81,9.87-16.43-4.15-7.94-10.32-13.7-18.87-16.58a118.84,118.84,0,0,0-13.07-3.58c-7.78-1.66-13.49-6.13-17.77-12.59s-8.58-12.93-12.57-19.57c-5.09-8.47-7.18-18.26-3.43-27.07,6.55-15.39,17.51-27.4,35-30.5,9.5-1.69,19.3-1.63,29-2.45,9.21-.79,17.92-3.05,24.81-9.68,5.28-5.08,5.45-20.66-.28-22.7-8-2.86-16-7.74-25.17-5.6-7.85,1.83-15.49,4.74-23.4,6.13-8.59,1.52-15.87,5.29-22.89,10.08a22.63,22.63,0,0,1-7.76,3.8c-9.19,1.87-18.43,3.74-27.74,4.73-12.47,1.33-24.5-.11-34.36-9.11-6-5.46-11.85-11.06-18-16.38-18.53-16.13-32-34.57-35.62-60.17-3.92-27.6,17.32-49.12,40.14-52.27,12.81-1.77,25.84-2,38.78-2.67,6-.31,11.53-1.11,15.38-5.94C166.41,154,160.1,148,150,147c-10.91-1.13-22.07-2.35-32.89-1.26-13.19,1.32-25.73-.87-38.43-3.1C63.52,140,50,133.28,36.46,126.23,28.33,122,20.91,117.15,15,110.11c-1.3-1.54-3.23-2.54-5-3.88-4.12,21.61,3.19,40.53,10.32,59.27C25,177.85,31,189.72,36.72,201.67c10.1,21.06,20.08,42.19,30.85,62.91A116.51,116.51,0,0,0,84,288.38c4.79,5.34,6.14,10.14,3.83,17-2-.46-4-.55-5.61-1.33-5.84-2.83-11.74-5.61-17.3-8.94C55.53,289.5,46,283.9,38.45,275.67s-15.59-16.35-23.53-24.38c-1.15-1.16-3-1.62-5.83-3.06,0,15.67,0,29.91,0,44.15-.05,18.83,6.42,36.25,11.58,54,.51,1.77,1.95,3.33,3.14,4.84C28,356.43,32.24,361.63,36.61,367ZM212.27,820.56c3,1.22,5.12,1.76,6.89,2.81,3.34,2,6.34,4.55,9.77,6.31,13.8,7.1,27.73,13.94,41.55,21,6.33,3.23,12.32,7.22,18.84,10,10.12,4.31,20.55,7.9,30.87,11.75,8.75,3.27,17.77,5.94,26.16,10,3.92,1.88,7.38,3.37,11.77,3.35,29.95-.12,59.89-.06,89.84-.09,2.12,0,4.23-.28,6.9-.47-2.2-5.9-4.15-11-6-16.17-4.1-11.28-8.28-22.53-12.2-33.87-2.87-8.3-8.82-14.33-14.72-20.31-4.42-4.49-6.89-4.77-11.79-.37a72,72,0,0,0-12.36,14.69c-6,9.39-14,16.73-22.36,23.8a8.24,8.24,0,0,1-3.6,1.32c-13.7,2.82-27.49,4.59-41.54,4.09A50.54,50.54,0,0,1,309.73,853c-29.54-14.27-40.22-40.3-42.85-70.52-1-11.39-1.89-22.18-6.17-33.1-3.37-8.6-8.11-13.47-17.23-16-1.63,2.13-3.86,4.17-5,6.7-3.26,7.29-6.17,14.74-9,22.2-3.73,9.76-7.33,19.55-17.43,24.82-.86.45-2.21.77-2.47,1.47-3.79,10.38-11.66,6.44-18.7,5.47l-19.51-2.68c0,6.5,1,12.11-.18,17.26-3.33,15-9.85,28.17-24.11,36.06-3.12,1.72-5.79,4.28-9,5.89a56.15,56.15,0,0,1-10.69,4c-6.24,1.7-12.69,2.69-18.87,4.55-5.77,1.73-7.71,6.33-7.73,12.14,0,5.65,2.53,9.51,7.7,11.1,4.87,1.5,10,3.06,15,3.09,42.32.24,84.63.14,126.95.14h9.34C240.9,865,219.59,848.91,212.27,820.56ZM885.43,259.51c-14.62-3.42-17.63-14.23-18-26.72-.06-2,0-3.9,0-5.86.11-5.85.54-11.72.26-17.55-.16-3.47-.29-8.07-2.41-10.08a76.71,76.71,0,0,0-17.73-12.94c-10.2-5.17-18.83-10.63-21.42-23.14-2.44-11.76-10.18-20-21.42-24.72-7.46-3.11-14.77-6.64-22.38-9.3-8.76-3.05-17.72-5.58-26.71-7.86-3.6-.91-7.6-.18-11.3-.85-15.36-2.77-30.7-3.83-46.22-1.28-10.86,1.78-21.77,3.38-32.71,4.48-8.7.87-14.1-2.74-17.69-10.69-1.46-3.23-2.73-6.54-4.53-10.89-3.39-.1-7.1-.4-10.81-.29-7.37.21-14.5,3.51-22.13.86-5.79-2-12.09-2.6-17.82-4.74-7-2.61-13.25-6.06-16.84-13.72-3-6.32-7.87-11.78-12.21-17.4-5-6.41-11.24-12-15.14-19-5-9-12.26-14.61-20.52-20s-15.54-12-24.07-18.73H469.94c-1.52,6.57,1.28,11.7,3.92,16.87,2.2,4.33,5,8.47,6.47,13,5,15.3,17.3,21.7,31.38,24a53.86,53.86,0,0,1,23.12,9.15c15.6,10.92,27.68,25.23,39.53,39.91,3.93,4.87,9.68,8.34,14.81,12.16,4.37,3.26,9.41,5.68,13.49,9.23,5.71,5,11.46,5.41,17.91,2.15,2.29-1.16,4.54-2.42,6.87-3.5,8.67-4,17.41-4.92,26.07,0,4.22,2.37,8.34,4.94,12.4,7.57,12.85,8.35,14.05,8.49,26.64-.29,4.69-3.27,9.15-4.35,14.37-1.62,4.28,2.24,8.79,4.05,13,6.39,6.72,3.71,13.62,5.45,21.34,3.89a145.31,145.31,0,0,1,15.45-2c2.22-.2,5.55-.72,6.56.46,4.42,5.15,9.76,1.71,14.58,2.19,3.49.34,7.09-.36,10.63-.75,6.15-.68,10,2.36,12,7.76s4.2,11,5.25,16.67c2.23,12.1,3.9,24.31,5.54,36.5,1,7.67,2.19,15.4,2.26,23.11.11,10.9-4.14,20.89-8.21,30.82-4.32,10.55-4.26,21.49-2.14,32.44,1.08,5.56,4.41,8.29,10,8.86,2.58.26,5.2,0,7.8.1,12.5.35,23.51,5.6,32.77,13,16.48,13.22,18.68,31.49,13.83,50.85-3.48,13.88,3.67,27.19,17.64,31.11a9.15,9.15,0,0,0,.41-1.89q.07-28.79.09-57.59c0-12.78.56-13.19-6.77-23.14-7.12-9.67-15.76-17.53-29.42-17.14-12.53.35-19.43-5.31-21.71-17.59-1.1-5.94-.62-12.24-.3-18.35.6-11.26,1.67-22.49,2.4-33.74a8.88,8.88,0,0,0-1-4.73c-3.38-5.93-2.8-12.19-2.53-19.65,6.83,2.5,10,6.77,12.06,12.5,2.37,6.61,3.75,13.81,10.37,18.16,1.38.9,2,3.27,2.52,5.1,3.33,12.81,11.41,22.22,21,30.84,3.92,3.52,7.75,5.19,13.09,4.13ZM763.3,803.78c-10.05-.69-16.55,5.5-23.79,10.28-10.49,6.93-21.42,12.81-34.58,13-12.62.21-25.24.8-37.83,1.62-2.09.14-4,2.33-6.07,3.58,1.4,1.95,2.41,4.53,4.29,5.71,3.82,2.39,8.19,3.89,12.21,6a20.82,20.82,0,0,1,8.09,29.76c-2.44,3.89-5.43,7.44-8.4,11.45,32.09,1.95,200.58,1,208.1-1.1,1.74-27,.92-78.33-1.37-84.86-3.28,3.82-6.76,7.48-9.8,11.47-15.68,20.54-35.4,33.15-62.19,31.3-8.31-.58-17-.59-24.08-6.31-8.1-6.58-15.87-13.43-19.8-23.6C766.94,809.17,764.92,806.56,763.3,803.78ZM9.71,885H33.16c-.54-8-1.19-15.37-1.47-22.75-.17-4.42,1.87-7.73,5.31-10.86,13.1-12,28.77-17.28,46-18C93,833,100.2,829,105.71,821s5-13.65-1.85-20.71c-14.91-15.38-33.82-19.88-54-18-13.49,1.26-26.61,3.74-40.13-3.6ZM682.78,9.36H582.2c2,2.8,3.13,4.66,4.54,6.27,6.7,7.67,14,14.87,20.06,23,4.57,6.15,7.62,13.44,11.24,20.27,2.08,3.93,5,5.52,9.53,4.72,7-1.21,14.41-.89,21-3.16,11.11-3.86,20.85-.51,29.08,5.44,6.8,4.91,14.11,6,21.48,7.5,10.44,2.1,14.71-3.15,11.41-13.35a50.93,50.93,0,0,0-4.67-9.56c-2.91-5-7.06-9.6-8.86-15C694.6,28.4,689.92,23,685,18.3,681.79,15.29,683.06,12.77,682.78,9.36ZM760.55,759c-1.44-5.87-2.84-10.51-3.69-15.24-2.81-15.7-5-31.3,7.15-44.73,2.34-2.6,3.76-6,5.58-9.11,9.91-16.75,20.41-33.19,29.57-50.35,10.53-19.73,20.11-40,29.63-60.22,3.75-8,8.9-15.73,8.4-25.93-5.18.82-10.93-2.08-13.68,4.75-4.2,10.43-8,21.06-12.68,31.26-6.89,15-13.15,30.46-22,44.23-13.29,20.65-28.21,40.31-43.23,59.77a181,181,0,0,1-24.23,25.09c-5.74,5-12.66,9.56-19.83,12-18.15,6.06-36.74,10.45-56.27,7.47-6.88-1-9,1.05-11,8.69,39.07,8.31,74.28.53,106.08-26.33-.12,17.12-2.95,33.23,8.9,47.42ZM885.33,628.86l-2.54-.52c-1.08,3.16-2.81,6.26-3.1,9.48a53.65,53.65,0,0,1-3.46,13.8c-11.53,31.8-30,59.81-47.23,88.51-.33.55-1.14,1-1.14,1.53,0,2.08-.3,4.43.59,6.11.39.75,3.55.64,5.1,0,2.38-.94,4.42-2.7,6.66-4,10.39-6.06,21.3-4.16,32.22-2,7,1.36,7.45,8.43,11.24,12.59.25.28,1.07,0,1.68,0Zm0-620.72-41.24,2.52c0,8.18-.12,15.28,0,22.37.1,4.42-.47,9.32,1.2,13.16,3.2,7.37,7.61,14.24,11.82,21.13,6.39,10.46,15.79,18.91,20.3,30.68,1.21,3.16,3.27,6.29,7.88,6.69Zm-75.6,80.39c-14.26-24.87-17-51.63-17.19-79.43h-45c2.35,2.58,4.7,3.81,3.51,7.89-1.13,3.86.45,8.91,1.94,13a133,133,0,0,0,8.75,19.42,194.49,194.49,0,0,0,14,22C783.95,82.5,796.42,86,809.72,88.52Zm-692,658.22c0-1.91.45-3.4-.07-4.38-5.23-9.85-11.6-18.93-21.32-24.77-12.28-7.37-25.48-7-38.46-2.17-3.37,1.25-6.47,4.46-8.61,7.53-4.4,6.29-2.77,13,3,18.13a23.89,23.89,0,0,0,21.81,5.6c8.82-2,17.32-1.09,26-.07C105.8,747.29,111.59,746.75,117.71,746.75ZM552.09,162.42c-2.88-9.29-11-13.59-17.22-19.3-2-1.8-6.48-1-9.83-1-1.71,0-4.06,1.7-5,1-4.76-3.24-6.65.57-8.2,3.38-4.11,7.44-1.13,17.68,6,22.25C529,176,542.53,173.71,552.09,162.42ZM811.6,347.57c-5.75,6.61-10.81,23.61-9.33,33.73.75,5.11.85,11.09,6.57,14.12,9.91-10.25,13.89-27.45,10.69-45.56Zm-226.76,197c-2.77,5-.34,9.34,4.34,10.93,7,2.36,15.8-.38,19.31-6C614.49,539.81,588.92,537.09,584.83,544.53Zm64.93-53c-.19,8.82,3,13.86,8.6,13.72,4.43-.11,7.78-5.46,7.83-12.5,0-5.54-3.59-9.38-8.84-9.35C652.63,483.44,649.87,486.41,649.76,491.55Z"/></g></g></svg>