<svg xmlns="http://www.w3.org/2000/svg" viewBox="0 0 897.5 898.82"><defs><style>.cls-1{fill:#ce242b;}</style></defs><title>2_3</title><g id="Layer_2" data-name="Layer 2"><g id="Layer_1-2" data-name="Layer 1"><path class="cls-1" d="M897.5,0V898.57c-99.94,0-199.59.67-299.22-.19-99.07-.86-198.12.34-297.18.22q-149.63-.19-299.1,0C-.12,891.1-.82,14.38,1.2,0ZM591.78,377.84c-5.86-1.7-8.85,2.47-12,6.19,5.17.25,9.35-1.45,11.88-6.38,5.69.4,8.74-3.9,13-6l-1.34-2.18ZM17.53,202.43c-.39,4.39,2.54,6.44,5.81,8.94l.79-3.35c1.8,2.69,4.44,5.15,5.23,8.11,2.11,7.91,7.32,13.42,13.28,18.16,8.42,6.7,17,13.33,26.15,18.94,12.49,7.65,25.58,14.34,38.43,21.39,5.95,3.26,12,6.41,17.93,9.63,2,1.07,4.4,1.79,5.83,3.37,7.24,8,14.47,16,21.2,24.44,4.26,5.33,8.19,10.66,14.75,13.43,13.74,5.81,27.71,10.51,42.69,12.15,7.32.81,16,1.12,21.36,5.19,8.25,6.24,17.93,4.63,26.16,9a7.25,7.25,0,0,0-2.28-3.58A39.05,39.05,0,0,0,251,345.4c-13-8.63-27.86-13-42.31-18.27a120,120,0,0,1-11.61-4.65c-14.81-7.27-24.62-20-33.23-33.19-8.06-12.34-19-19.42-32-25.36a539.63,539.63,0,0,1-51.29-26.67C54,221.45,34.72,197.79,16,173.71c-1.59-2-3.62-3.76-6.65-6.86v24.58C12.75,194.57,17.16,197,17.53,202.43ZM662.1,266.7c-4.19-3.78-4.35-8.43-4.31-13.43a79.2,79.2,0,0,0-1.3-15.32c-3-15.6-10.2-29.48-20-41.59-14.24-17.55-23.22-37.9-33.23-57.75a76.62,76.62,0,0,1-5.77-14.23c-4.2-15.49-2.47-30.78,3-45.66,3.33-9.14,7.44-18,10.88-27.09,4.36-11.52,11.41-21,20.52-29.18,4.2-3.77,8-8,12-12a21.94,21.94,0,0,0-10.26-1.82c-23.4.16-46.79.49-70.19.47-35.75,0-71.5-.37-107.24-.39-4.37,0-10.49-.43-12.72,2.08-3.87,4.34-6.1,10.63-7.54,16.47-1,4.19-.24,9.12.77,13.48,2.1,9.15,4.82,18.16,7.39,27.2,3.32,11.71,10.56,20.69,19.91,28.16,8.37,6.69,16.56,13.63,25.17,20,6,4.41,12.07,9.47,18.94,11.69,17,5.5,28.9,18.41,42.31,28.67,20.86,16,36.84,36.73,48.57,60.48,2,4,4.71,7.76,6.11,12,4.91,14.72,10.09,29.41,13.81,44.45,3.18,12.86,4.12,26.09,1.13,39.44-2,9.12-3.91,18.54-3.89,27.82,0,21.62,8.41,40,24.31,54.83,15.93-4,31.39-9.21,47.94-7.86,5.17.42,10.44,1,15.55.47,16.46-1.74,31.08,3.89,45.53,10.49,3.83,1.75,8.4,2.88,11.18,5.72,10.1,10.27,21.85,18.57,31.16,30,13.28,16.29,23.2,33.86,25.58,54.37a363,363,0,0,1,1.81,60.78c-.65,12.25-5.8,24.28-9.1,36.36a36.86,36.86,0,0,1-3.83,9.93c-7.71,12.25-3.48,22.54,4.16,32.92,6.8,9.23,13.17,18.81,19.12,28.61,8.82,14.52,16.75,29.58,25.71,44,10.21,16.45,21.14,32.45,32.81,50.24.22-4.3.42-6.51.43-8.73q0-161.38.14-322.77c0-6.1-1.86-10.49-6.23-14.46-16.69-15.17-33.57-30.09-51.42-43.9-11.41-8.83-23.94-15.91-33.91-27-12-13.32-17.66-29.16-23.13-45.35-1.4-4.15.32-9.43-1.3-13.43-3.18-7.86-3.79-15.88-3-23.92,2.12-21.43,1.53-43.17,10.93-63.65,3.17-6.9,5.79-13.17,11.8-17.9,2.29-1.8,4-4.43,1.56-6.92-8.25,1.79-16.05,3.65-23.92,5.17-15.23,3-30.39,6.27-46.1,6a31.6,31.6,0,0,0-14.12,2.91c-21.68,10.84-35,28.14-38.08,52.52-1,8.33-1,16.79-1.37,25.2C670,260.95,668.21,265.28,662.1,266.7Zm-452-255.18c0,4.89-.06,8.86,0,12.84a43.21,43.21,0,0,0,.54,5.76c3,19.17,6.14,38.31,9,57.5,2.07,13.72,3.54,27.54,5.83,41.22a110.12,110.12,0,0,0,5.39,19.58c5.07,13.81,6.28,28.41,9.49,42.57,5.11,22.57,5.29,45.57,7.68,68.35,1.51,14.36,4.33,26.87,18.48,33.8a21.43,21.43,0,0,1,2.54,1.42c12.22,8.21,22.16,18.17,24,33.65,1.47,12.33,8.24,20.07,19.55,24.23,11.12,4.09,19.59,12.29,29.18,18.73a36.93,36.93,0,0,1,15,22c3.12,13.66,6.71,27.9,3.92,42.08-2.2,11.16,2.38,19.31,9.75,25.79,10.36,9.1,15.83,20.49,20.25,33.1,4.84,13.79,3,26.65-2.6,39.53-1.16,2.67-1.92,5.51-2.85,8.28-4.81,14.4-12.33,26.87-24.78,36.11-9.62,7.14-18.94,14.69-28.41,22-12.18,9.47-15.45,24.28-22.09,37.06-.6,1.16.42,3.11.55,4.71.7,8.76,6.35,15.32,9.89,22.85,7.73,16.45,19.74,28.37,35.16,37.72,10.21,6.19,19.64,13.75,29,21.18a19.85,19.85,0,0,1,7.94,16.08c-.13,9,1.07,18.11-2.57,26.94-1.42,3.44-1.06,7.65-1.27,11.53-.37,6.79-.11,13.64-1,20.36-.67,5.38,1.11,8.75,4.66,12.79a295.77,295.77,0,0,1,24.48,31.34c6.78,10.22,12,21.48,17.85,32.31,2.12,3.93,4.1,7.94,6.45,12.51,8.42,0,17.17.07,25.92,0,8.49-.09,17,.45,25.78-1.59a61.51,61.51,0,0,0-14.32-9.59,29.37,29.37,0,0,1-13-11.17c-3.22-5.17-7.11-9.93-10.64-14.91-1.47-2.07-3.44-4.09-4-6.43-3.31-13.07-9.09-25.61-8-39.64,1.3-17-6.62-31.47-13.7-45.91-5.12-10.44-11.64-20.24-18.14-29.92-3.73-5.55-8.06-11.07-13.25-15.18-6.45-5.11-12.68-9.82-15.07-18.2a12.71,12.71,0,0,0-3.94-5.43c-7.42-6.58-14.54-13.65-22.64-19.28-15.72-10.93-21.88-28.93-14.47-44.8,3.95-8.45,9.48-15.37,17.54-20.26,5-3,9.45-7,14.65-9.58,15.07-7.35,19.35-21.76,24.31-35.77,2.37-6.7,4.5-13.5,6.42-20.34,3.13-11.16,5.72-22.42,1.94-34-.4-1.22-1.35-2.51-1.18-3.63,1.62-10.61-5-17.33-10.91-24.67a102.54,102.54,0,0,1-18.68-34.56c-1.48-4.83-1.09-10.22-2.42-15.12-1.42-5.25-.72-9.82,2.23-16.29,2.31,2.81,4.54,4.34,5,6.31a50.36,50.36,0,0,0,17,27.12c1.94,1.63,3.18,4.08,4.77,6.13,3.17,4.07,5.87,8.66,9.65,12.06,5.72,5.14,9.6,11.28,12.75,18.09,2,4.41,4,8.86,6.22,13.18,12.75,24.87,8.32,49.67-.77,74.18C424,585.19,416.46,601.67,410,618.56a23.76,23.76,0,0,0-.91,13.21,112.81,112.81,0,0,0,8.16,23.79c4.36,8.79,11.28,15.9,21,18.85s19.78,2.87,29.91,1.75a90.66,90.66,0,0,1,19.21-.15,213.56,213.56,0,0,1,23.81,4.22c17.59,3.89,31.86,12.85,39.78,29.45,6.52,13.66,11.74,27.94,17.75,41.86,4.15,9.6,9.48,18.18,19.9,22.45,8.62,3.54,17.16,7.32,25.45,11.56A73.78,73.78,0,0,0,641,793.12a129.91,129.91,0,0,1,16.19,3.13c6.6,1.52,13.22,3,19.66,5.07,2.51.8,5.65,2.56,6.62,4.72A84.45,84.45,0,0,1,689,823.26c1.25,6,4.22,10.53,8.38,14.84,9.42,9.76,21.42,15.44,33.09,21.61,8.85,4.68,18.07,8.67,27,13.25,6.29,3.24,12.1,7.22,15.43,13.79,14.95,1.68,32,1.13,38.61-1.46-7.2-7.68-14.09-15.32-21.3-22.64-6.78-6.88-14.42-13-20.73-20.22a169.94,169.94,0,0,1-17.64-24.15c-4.76-7.95-8.17-16.73-11.89-25.27-1.61-3.7-2.38-7.77-3.77-11.58a10.56,10.56,0,0,0-2-2.87C726,782.36,718.81,787,711,789.11c-23.66,6.5-45-1.56-64.35-14.06-12-7.76-22.35-18.06-31.42-29.72-11.83-15.2-18.06-31.9-17.93-50.76.1-13.74,1.84-27.47,2.85-41.26-.4-.14-1-.63-1.55-.52-11.95,2.79-23.82,5.91-35.83,8.42-9.13,1.91-18.38,3.38-27.74.92-3.74-1-7.8-.94-11.39-2.26-8.75-3.23-18.24-5.63-25.69-10.86-9.14-6.41-16.8-15.07-24.57-23.26-11-11.58-15-26.54-16.35-41.68-1.21-13.11-.11-26.5.69-39.72a109.62,109.62,0,0,1,3.71-21.83c3.44-12.75,7.43-25.37,11.53-37.93,9.45-28.93,6.15-57.42-3-85.59-2.54-7.77-5.08-15.74-10.41-22.37a77.12,77.12,0,0,1-6.21-9.8c-4.88-8.4-10.5-16.23-17.76-22.72-8.58-7.67-18.11-14.43-25.86-22.85a411.65,411.65,0,0,1-29.31-36.2,113.73,113.73,0,0,1-13.61-24.34c-7-17.4-12.86-35.25-15.79-53.89-2.15-13.69-5-27.34-6-41.12-.85-12.43,1.17-25,.69-37.52-.72-19,1.83-37.55,6-55.87,3.19-14.09,5.86-28.51,14.52-40.82,2.16-3.06,2.59-7.29,4.09-10.87s3.44-7.25,5.71-12c-15.79,0-30.06-.12-44.33.06-5.71.07-7.21,1.83-7.15,7.92,0,3.54.57,6.63-2.14,9.92-12.22,14.88-21.06,31.87-29.61,49-3.66,7.33-6.94,15.09-5.17,23.36,2.36,11,5.75,21.75,8.73,32.6,3.33,12.12,7,24.15,9.91,36.38,1.08,4.58.1,9.62.51,14.41,1.24,14.51,2.74,29,4.06,43.51.79,8.71.12,17.79,2.37,26.09,6,22.19,10.18,45.1,23.55,64.76,3.32,4.89,4.49,11.28,6.43,17.06,1.24,3.7.6,7.88-3,9.19-2.3.84-6.58-.55-8.46-2.45A97.8,97.8,0,0,1,319,324.83c-9.32-14.39-17.48-29.66-32.56-39.26-7.23-4.6-10.36-12.29-14.23-19.4,1.75-13.25-4.87-24.95-6.8-37.47s-1.8-25.18-3.25-37.71c-1-8.33-3.58-16.46-4.62-24.79-1.89-15.1-3.38-30.26-4.6-45.43-.77-9.62-4.49-18.07-8.41-26.67A105,105,0,0,1,235.21,48c.33-14.76,6.73-26.78,19.92-34.52,1.51-.89,2.91-2,4.37-3C242.36,8.33,225.75,8.2,210.07,11.52ZM9.56,94.15a31.62,31.62,0,0,1,17.59,12.92c5.19,8,9.94,16.37,14.46,24.8,2.88,5.37,4.79,11.26,7.51,16.73,6.26,12.59,15.79,22.62,25,33.11,20.56,23.38,45.19,39.54,75.22,47.5,2.12.56,4.8,1.32,6.56.52,4.21-1.91,8.07-1.36,12.28-.39,1.48.34,3.36-1,5.48-1.76-.61-2.38-.72-4.42-1.62-6-7.11-12.66-9.31-26.87-12.24-40.7-2.17-10.22-3.74-20.59.32-31.39,2.86-7.61,7.64-15.22,5.9-24.21-.74-3.79-.81-7.71-1.25-11.56-2-17.36-4.09-34.7-9.61-51.42-3.61-10.94-4.35-22.16-3.33-33.63.56-6.33.1-12.76.1-20.64-47.78,7.18-95-2.84-142.37,4.62ZM9.09,322.55c0,10.42-.23,19.84.13,29.23a18.54,18.54,0,0,0,2.89,8.91c8.25,12.75,16.82,25.3,25.31,37.9a8.73,8.73,0,0,0,2.51,2.91c7.5,4.14,8.51,11.48,9.78,18.85s2.13,14.83,4.55,21.79a61.45,61.45,0,0,1,3.29,19.94c.06,7.13.06,14.28-.39,21.39-.7,11.2,1.24,21.85,4.88,32.43A219.69,219.69,0,0,1,69,542c.7,3.29-.32,7-.71,10.47-1.14,10.24-3.68,20.54-3.2,30.7.56,11.83,5.2,22.39,16.36,29.28,12.07,7.45,25,12.1,38.74,15,3.45.73,7.17,1.33,10.11,3.09,16.05,9.57,33.59,16.93,46.77,30.85,3.76,4,7.22,8.22,11.11,12C210.24,695.17,210.68,722,206,749.84c-1.68,10.07-5,19.86-7.74,29.75-1,3.68-2.28,7.29-3.56,10.88-2.41,6.74-4.94,13.65-1.46,20.57,4.75,9.44,9.93,18.68,15.32,27.77a32.2,32.2,0,0,0,7.63,8.53c11.87,9.4,26.22,15.79,35.36,28.45,7.48,10.36,17.33,12.53,29.54,12.06,8.55-.33,14-3.42,20.13-8.85,10.61-9.42,10.35-18.67,2.75-28.72-6.42-8.49-12.85-17-18.88-25.76-7-10.15-16.3-17.53-26.69-23.72-5.29-3.15-10.69-6.16-16.25-8.79-6.57-3.12-9.68-8.54-10.54-15.25a106.71,106.71,0,0,1-.48-15.55c.3-15.84,1.06-31.69,1-47.53a40.45,40.45,0,0,0-3.08-16.06c-9.32-20.76-17.75-41.82-34.37-58.73-11.91-12.12-24.59-21.67-40.62-27-20.36-6.81-37.65-17.09-50.59-35.6-8.89-12.71-14.93-25.5-17.28-40.48-.94-6-2.53-11.92-3.16-17.95-.47-4.45.08-9,.28-13.53.5-11,.86-22,1.73-32.94.25-3.08,2.2-6,3.13-9.07,1.58-5.19,3.42-10.36,4.36-15.67,1.5-8.54,2.57-17.18,3.39-25.82.36-3.79.52-8-.7-11.48A181.9,181.9,0,0,0,86.34,389C80,376.25,73,363.87,63,353.58,48.4,338.43,30.4,328.83,9.09,322.55ZM457,285.75l1.5-1.22c-.39-2.21-.71-4.44-1.19-6.63-3.31-15,3.59-32.86,16.73-40.06,15-8.23,37-5.13,44.77,9.54a30.75,30.75,0,0,0,3.41,4.52,32.78,32.78,0,0,1,7.52,24.43c-.36,3.89-.06,7.85-.06,13.1,9.59-11.73,9.16-23.28,5.16-35.07-2.67-7.88-6.09-15.5-9-23.29-5.13-13.65-13.73-24.64-24.84-34-6.38-5.36-12.14-11.46-18.19-17.22-10-9.56-19.53-19.79-30.26-28.49-9.49-7.69-15.31-17.24-19.69-28.17-7.4-18.49-11.08-37.93-13.58-57.5-2.33-18.28-4-36.77,2.51-54.76.15-.4-.44-1.06-.76-1.77h-40.2c-2.48,15.75-4,31.09-3,46.62,1.63,24.18,3.24,48.36,5,72.53.52,7.08.93,14.26,2.43,21.17,4.39,20.19,12.26,39.3,18.73,58.85,6.15,18.61,17.56,33.68,27.77,49.51C438.46,268.25,448.45,276.53,457,285.75ZM846.77,80.07c-9.39-4.42-14.86-11.36-18.51-20.46-2-5-6.49-7.84-13-8.26-13.83-.9-26.88,2.13-39.86,5.87a152.25,152.25,0,0,0-48.35,24.26c-13.65,10.11-27.18,21.05-34.42,37.5-1.18,2.69-4,4.64-5.92,6.73-6-2.49-6-6.56-5-10.92,1.08-4.71,2-9.49,3.48-14.05a69.93,69.93,0,0,1,5.7-13.29c5.81-9.92,11.83-19.74,18.19-29.32,9.87-14.86,21-28.7,35.45-39.47,1.68-1.25,3.1-2.86,5.53-5.14-4.72-.74-8.75-2.41-12.07-2.1a21.52,21.52,0,0,1-3.44.12c-9.71-.66-10.37-.58-20.95.64-5.49,1.47-29.16,15.88-34.7,20.11C664.81,43,654.74,57,645.53,72.18,635,89.44,634.7,107.27,637.66,126c2.69,17.1,13.92,29.65,22.48,44.4,1.09-1.73,1.51-2.58,2.1-3.3,6.08-7.51,11.08-16.76,20.59-20,17.75-6.05,35.63-13,54-15.55,17.7-2.5,34.74-6.94,52.06-10.63A96.74,96.74,0,0,0,816,111.22C829.14,104,839.89,95,846.77,80.07ZM259,409.66c3.2,6,6.12,11.39,8.88,16.82,1.92,3.78,5,4.38,8.88,4.19,10.9-.51,19.61,2.84,26.63,12.22,10.75,14.36,9.54,43.39-3.93,55.2-6.07,5.32-12.47,10.82-19.69,14.15-16.62,7.65-25.86,8.94-37.19-2.93-.89-.93-2.09-1.55-3-2.43-15.1-14.2-16.62-37.13-4.67-49.86a21.78,21.78,0,0,0,4.83-7.24c3.17-9,6.77-14.36-4.71-22.59-2.62-1.88-4.65-5.35-5.7-8.51-5.52-16.65-8.33-17.83-25.52-12.18-10.57,3.48-18,10-22.43,19.88-7.41,16.74-11.69,34.15-11,52.68.58,15.37,6.12,29,14.41,41.48,6.66,10,17.56,15.32,28.07,19.84a250,250,0,0,0,61.26,17.51c6,.91,11.28,1.83,15.34-4.44,1.37-2.12,4.89-2.91,7.5-4.17,12.36-6,22.44-14.15,27.54-27.43,2.68-7,5.28-14,8.45-20.72,2.8-6,2.89-11.51,1-17.83-2.67-8.95-4.34-18.2-6.2-27.37-1.68-8.23-3-16.54-4.57-24.79-3.49-18-15.6-26.94-32.68-29.54C279.43,399.92,268.45,400.7,259,409.66Zm629.47-301c-5,9.33-8.08,17.12-12.87,23.68-12.91,17.71-26.72,34.77-39.8,52.37A162.27,162.27,0,0,0,822.47,206a95.9,95.9,0,0,0-10.92,45.72c0,9.93-1.28,19.79,4.76,28.67s11.13,18.13,17.73,26.36c5.56,6.95,12.8,12.53,19.07,18.94,11.35,11.62,22.53,23.41,35.28,36.69,0-14,.18-25.91-.16-37.79-.06-2.21-1.89-4.7-3.53-6.48-10.41-11.25-16.08-25.5-20.9-39.23-6-17-6.53-35.61-3.23-53.61,2.6-14.17,5.36-28.4,11.21-41.82,2.6-6,5.2-11.48,9.84-16.31,2.73-2.84,6.93-5.25,6.87-10.46C888.3,141.46,888.42,126.21,888.42,108.62ZM9.57,763.49c9.9-6.1,18.16-11.45,26.66-16.35,6.42-3.69,12.84-8.6,19.82-9.84,15.41-2.73,27.76-8.76,37.28-21.69,5.35-7.26,6.38-13.69,2.84-21.48-6.12-13.5-17.11-22.65-28.83-30.63a158.74,158.74,0,0,1-35.82-33.72c-3.6-4.61-5.45-10.77-7.36-16.48-2.86-8.52-4.88-17.32-7.62-25.88-1.46-4.57-3.65-8.9-5.51-13.34l-1.47.48Zm649.05,124.3c-6.47-8.95-13.2-15.23-16.09-22.94-4.84-12.93-13.15-20.12-26.15-23a219.21,219.21,0,0,1-38.63-12.55c-5.25-2.21-9.49-4.75-12.87-9.45a185,185,0,0,0-16.27-20.21c-12.94-13.5-30.4-16.61-47.81-18.43-11.59-1.21-16.64-1.61-12.43,14.23,1,3.63,1.74,8.54,4.33,10.29a200.87,200.87,0,0,0,26.81,15.07c7.21,3.39,15.2,5.1,22.6,8.14,4.36,1.79,9,4,12.19,7.3,8.34,8.67,16.11,17.9,23.74,27.21,2.53,3.08,4.8,5.39,8.89,6.74,7.3,2.4,14.8,5.22,21,9.58a28.73,28.73,0,0,0,13.17,5.23C632.93,886.48,644.87,886.87,658.62,887.79Zm-529.16-148-1.85-1.29c-3,2.79-6,5.56-9,8.39-1.86,1.77-3.44,3.93-5.5,5.41A141.54,141.54,0,0,1,56.7,776.68c-15,2.86-27.81,9.56-41.22,15.57C10.75,794.37,8.9,797.85,9,803c.24,11.35,0,22.71.09,34.07,0,2.42.3,4.85.47,7.45,9.8-3.43,9.71-3.46,12.42-11.16,1-2.72,1.93-5.7,3.76-7.81,7.17-8.3,14.31-16.69,22.18-24.32,9.21-8.94,21.21-13.35,32.94-17.93,6.82-2.66,14-4.47,20.58-7.64,7.82-3.78,14.33-9.37,20.32-15.94C127.27,753.71,129.19,747.28,129.46,739.81ZM67.06,887.48c32.76-.08,64.32.13,96.05-.15-1.43-10.33-3.27-15.17-9.77-23.1-5.19-6.33-12.06-8.81-20.39-7.62a209.14,209.14,0,0,1-23.09,2.15c-5.73.18-11.52-1.31-17.25-1.12-12.72.42-21.25,8.52-23.24,21.1C69,881.26,68.08,883.69,67.06,887.48ZM777.9,629.82c-5.41,4.43-10,7.91-14.29,11.76-10.1,9.09-20,18.34-30,27.55-3.56,3.28-7.34,6.4-10.52,10-2.65,3-3.86,6.85-1.72,10.82,1.92,3.56,5.22,4.34,9.05,4.45,6.1.17,12.28,1.6,18.24.92,6.19-.7,9.35,3.12,11.72,6.8,2.64,4.12,5.38,9.91,4.49,14.24-2.68,13.09-4.17,27-15.32,36.89l6.22,7.47c3.91-5.65,6.19-12.4,10.7-14.66,7.07-3.53,9.09-9.63,12.41-15.33,6.84-11.72,5.66-23.45-.23-35.08-4.35-8.59-8.7-16.94-21.05-13.79-3.68.94-6.69-1.69-8.56-5.15-2-3.75-.72-7.11,1.6-9.9a112.36,112.36,0,0,1,8.95-8.88c7.17-6.89,14.35-13.76,21.59-20.7Zm-161.65-3.67c5.34,2.75,7.54,1.44,10-1.49,12.93-15.21,27.31-29.35,38.94-45.47,15.67-21.71,29.49-44.78,43.72-67.51,6.27-10,11.58-20.63,17.32-31L724.91,479c-2.23.66-5,.72-6.59,2.12a51.88,51.88,0,0,0-8.3,9.43c-7.33,10.55-12.07,22.79-21.09,32.28a47.57,47.57,0,0,0-4.43,6.12c-9.28,13.58-18.39,27.28-27.86,40.73C643.49,588.38,630.05,606.89,616.25,626.15Zm9.92-223.31c-2,.26-3.46,0-4.4.64-10.29,6.61-21.53,11.92-29.69,21.49a40.69,40.69,0,0,1-6.1,6.23c-14.1,10.67-24.82,24.44-35.4,38.33-1,1.33-1.19,3.29-2.34,6.66Zm-137.31,25c6.47,2.22,12.67.37,19-.9,7.35-1.49,11.69-4.5,10.8-14.27l-31.39,4.82Zm14.41-73.53-8,12.66c1.68,2.38,2.82,3.59,3.49,5,1.6,3.42,4.16,5,7.79,4,3.3-.94,5.26-3.13,6-6.84C513.79,362.14,512.16,358.79,503.27,354.33Zm382-324.87c3.63-6.68,2.59-12.19,1.6-17.66-12-1.29-12-1.29-18.12,1.79C870.19,22.73,878.87,24,885.26,29.46ZM572.38,341.64c-1,4.88.31,9.47,5.42,10.44,2.67.51,7.19-1.75,8.8-4.15,3.32-5-1.44-7.76-4.17-10.84Z"/></g></g></svg>