<svg xmlns="http://www.w3.org/2000/svg" viewBox="0 0 909.83 909.84"><defs><style>.cls-1{fill:#ce242b;}.cls-2{fill:#fed6af;}</style></defs><title>2_3_frame2</title><g id="Layer_2" data-name="Layer 2"><g id="Layer_8" data-name="Layer 8"><path class="cls-1" d="M871.16,34.19V877.72c-92.82,0-185.37.63-277.91-.18-92-.8-184,.32-276,.2q-139-.18-277.8,0c-2-7-2.62-830-.74-843.53ZM587.22,388.89c-5.44-1.59-8.22,2.31-11.19,5.81,4.8.23,8.68-1.36,11-6,5.29.37,8.11-3.66,12.11-5.6l-1.24-2ZM53.86,224.22c-.36,4.12,2.36,6,5.4,8.39l.74-3.14c1.67,2.52,4.12,4.84,4.85,7.61,2,7.42,6.8,12.59,12.34,17a246.71,246.71,0,0,0,24.29,17.78c11.6,7.18,23.76,13.46,35.7,20.08,5.52,3.06,11.11,6,16.65,9,1.84,1,4.08,1.68,5.42,3.16,6.72,7.5,13.44,15,19.69,22.94,4,5,7.61,10,13.7,12.61,12.76,5.46,25.74,9.86,39.65,11.41,6.8.76,14.84,1.05,19.84,4.87,7.67,5.86,16.65,4.34,24.29,8.46a6.82,6.82,0,0,0-2.12-3.36,36.29,36.29,0,0,0-3.61-2.68c-12.08-8.1-25.88-12.18-39.3-17.16a110.74,110.74,0,0,1-10.78-4.37c-13.76-6.82-22.86-18.78-30.87-31.16-7.49-11.59-17.63-18.23-29.68-23.8a499.3,499.3,0,0,1-47.63-25c-24.7-14.84-42.59-37.05-59.94-59.65-1.48-1.92-3.36-3.53-6.18-6.44V213.9C49.42,216.84,53.51,219.15,53.86,224.22Zm598.67,60.34c-3.89-3.55-4-7.92-4-12.61a75.12,75.12,0,0,0-1.21-14.38c-2.76-14.64-9.47-27.68-18.59-39-13.22-16.47-21.57-35.58-30.87-54.21A72.37,72.37,0,0,1,592.49,151c-3.9-14.54-2.29-28.9,2.75-42.87,3.1-8.58,6.91-16.89,10.11-25.43a69.54,69.54,0,0,1,19.06-27.39c3.9-3.54,7.43-7.5,11.12-11.27A20.18,20.18,0,0,0,626,42.3c-21.73.15-43.46.46-65.19.44-33.2,0-66.4-.35-99.61-.37-4.06,0-9.74-.4-11.82,1.95-3.59,4.07-5.67,10-7,15.46-1,3.94-.22,8.56.71,12.65C445,81,447.57,89.49,450,98c3.08,11,9.81,19.42,18.49,26.44,7.77,6.28,15.38,12.79,23.38,18.76,5.55,4.14,11.21,8.89,17.59,11,15.83,5.16,26.84,17.28,39.3,26.91,19.37,15,34.22,34.48,45.11,56.78,1.84,3.77,4.37,7.28,5.67,11.22,4.56,13.82,9.37,27.61,12.83,41.73,3,12.07,3.82,24.49,1,37-1.9,8.57-3.63,17.41-3.62,26.12,0,20.3,7.81,37.56,22.58,51.47,14.8-3.73,29.15-8.65,44.53-7.38,4.8.4,9.7.94,14.45.44,15.28-1.63,28.87,3.65,42.29,9.85,3.56,1.64,7.8,2.71,10.39,5.37,9.38,9.64,20.29,17.44,28.94,28.16,12.33,15.29,21.55,31.79,23.76,51a344.37,344.37,0,0,1,1.68,57.06c-.61,11.5-5.39,22.79-8.45,34.13a34.82,34.82,0,0,1-3.56,9.32c-7.16,11.5-3.23,21.16,3.87,30.9,6.31,8.66,12.23,17.66,17.76,26.86,8.19,13.63,15.56,27.77,23.88,41.32,9.49,15.44,19.63,30.46,30.47,47.16.2-4,.39-6.11.39-8.19q0-151.5.13-303c0-5.72-1.72-9.85-5.78-13.58-15.5-14.24-31.18-28.24-47.76-41.21-10.6-8.29-22.23-14.93-31.49-25.34-11.13-12.5-16.4-27.38-21.49-42.57-1.3-3.9.3-8.86-1.21-12.6a47,47,0,0,1-2.78-22.45c2-20.11,1.42-40.53,10.15-59.75,2.94-6.47,5.38-12.37,11-16.8,2.13-1.69,3.74-4.16,1.45-6.49-7.66,1.68-14.91,3.42-22.21,4.85-14.15,2.77-28.23,5.88-42.81,5.67a29.08,29.08,0,0,0-13.11,2.73c-20.13,10.18-32.55,26.41-35.37,49.31-1,7.82-.94,15.76-1.27,23.66C659.91,279.15,658.2,283.22,652.53,284.56ZM232.69,45c0,4.59-.05,8.32,0,12a41,41,0,0,0,.5,5.41c2.79,18,5.7,36,8.38,54,1.92,12.88,3.29,25.85,5.41,38.69a104.24,104.24,0,0,0,5,18.38c4.71,13,5.83,26.67,8.81,40,4.75,21.19,4.91,42.78,7.13,64.16,1.4,13.48,4,25.23,17.17,31.73a19.85,19.85,0,0,1,2.36,1.33c11.35,7.71,20.58,17.06,22.3,31.59,1.37,11.57,7.65,18.84,18.16,22.75,10.33,3.84,18.2,11.54,27.1,17.59A34.68,34.68,0,0,1,369,403.26c2.9,12.82,6.23,26.19,3.64,39.5-2,10.48,2.21,18.13,9.06,24.21,9.62,8.54,14.7,19.23,18.81,31.07,4.49,12.94,2.78,25-2.41,37.11-1.08,2.5-1.78,5.17-2.64,7.77-4.47,13.52-11.46,25.23-23,33.9-8.94,6.7-17.6,13.79-26.39,20.7-11.31,8.89-14.35,22.8-20.51,34.79-.56,1.09.39,2.92.51,4.42.65,8.23,5.9,14.38,9.19,21.45,7.18,15.44,18.33,26.63,32.66,35.41,9.48,5.81,18.24,12.91,27,19.89a18.71,18.71,0,0,1,7.37,15.1c-.12,8.47,1,17-2.38,25.29-1.32,3.23-1,7.19-1.18,10.82-.34,6.37-.1,12.8-.88,19.11-.62,5.05,1,8.21,4.33,12a277.27,277.27,0,0,1,22.73,29.42c6.3,9.59,11.14,20.16,16.58,30.33,2,3.69,3.81,7.45,6,11.75,7.82,0,15.95.07,24.07,0,7.89-.09,15.83.42,23.94-1.49a57.09,57.09,0,0,0-13.3-9,27.36,27.36,0,0,1-12-10.49c-3-4.86-6.6-9.32-9.88-14-1.36-1.94-3.2-3.84-3.75-6-3.08-12.27-8.44-24-7.45-37.21,1.2-15.93-6.15-29.55-12.73-43.1-4.76-9.8-10.81-19-16.85-28.09-3.47-5.21-7.49-10.39-12.31-14.25-6-4.8-11.78-9.22-14-17.08a11.92,11.92,0,0,0-3.66-5.1c-6.9-6.17-13.51-12.81-21-18.1-14.6-10.26-20.32-27.16-13.44-42.06,3.67-7.94,8.8-14.43,16.29-19,4.63-2.84,8.78-6.61,13.61-9,14-6.9,18-20.42,22.58-33.58,2.2-6.29,4.18-12.67,6-19.1,2.91-10.48,5.31-21,1.81-31.92-.37-1.15-1.25-2.35-1.09-3.41,1.5-10-4.62-16.26-10.13-23.16a96.58,96.58,0,0,1-17.35-32.44c-1.37-4.54-1-9.59-2.25-14.19-1.32-4.93-.67-9.22,2.07-15.29,2.14,2.63,4.21,4.07,4.66,5.92a47.35,47.35,0,0,0,15.81,25.46c1.8,1.53,3,3.83,4.43,5.75,2.94,3.82,5.45,8.13,9,11.32a50.47,50.47,0,0,1,11.84,17c1.89,4.14,3.72,8.32,5.77,12.38,11.84,23.35,7.73,46.63-.71,69.64-5.84,15.9-12.83,31.37-18.79,47.23a22.53,22.53,0,0,0-.84,12.4,106.67,106.67,0,0,0,7.58,22.33c4.05,8.25,10.48,14.93,19.54,17.7s18.37,2.69,27.78,1.64a83.31,83.31,0,0,1,17.84-.14,196.44,196.44,0,0,1,22.12,4c16.33,3.65,29.59,12.06,36.95,27.65,6.06,12.83,10.9,26.23,16.49,39.29,3.85,9,8.81,17.06,18.48,21.07,8,3.32,15.94,6.87,23.64,10.85a68,68,0,0,0,24.92,7.11,119.52,119.52,0,0,1,15,2.94c6.13,1.42,12.28,2.84,18.26,4.76,2.34.75,5.25,2.4,6.15,4.43A79.88,79.88,0,0,1,677.47,807c1.16,5.63,3.92,9.89,7.78,13.93,8.75,9.16,19.89,14.49,30.74,20.29,8.22,4.4,16.79,8.14,25.06,12.44,5.85,3,11.24,6.77,14.33,12.94,13.88,1.57,29.75,1.06,35.86-1.37-6.69-7.21-13.08-14.38-19.78-21.25-6.3-6.45-13.39-12.17-19.26-19a159.47,159.47,0,0,1-16.39-22.67c-4.42-7.46-7.59-15.7-11-23.72-1.5-3.48-2.21-7.29-3.5-10.87a9.91,9.91,0,0,0-1.86-2.7c-7.57,3.56-14.22,7.87-21.5,9.89-22,6.1-41.83-1.46-59.77-13.2-11.14-7.29-20.75-17-29.18-27.9-11-14.27-16.77-29.95-16.65-47.65.09-12.9,1.71-25.79,2.65-38.73-.37-.13-1-.6-1.44-.48-11.1,2.62-22.13,5.55-33.28,7.9-8.48,1.79-17.07,3.17-25.77.86-3.47-.92-7.25-.88-10.57-2.12-8.12-3-16.94-5.29-23.86-10.19-8.49-6-15.6-14.14-22.82-21.83C467,610.74,463.32,596.71,462,582.49c-1.12-12.31-.1-24.87.64-37.28a103.91,103.91,0,0,1,3.45-20.5c3.2-12,6.9-23.81,10.71-35.6,8.78-27.16,5.71-53.91-2.82-80.35-2.35-7.3-4.71-14.77-9.67-21a72.5,72.5,0,0,1-5.77-9.2c-4.53-7.88-9.75-15.24-16.49-21.33-8-7.2-16.82-13.55-24-21.45a385.69,385.69,0,0,1-27.22-34,107.09,107.09,0,0,1-12.64-22.85c-6.5-16.33-11.95-33.09-14.66-50.59-2-12.85-4.68-25.67-5.56-38.6-.79-11.67,1.09-23.51.64-35.22-.67-17.82,1.7-35.25,5.55-52.45,3-13.22,5.44-26.76,13.49-38.32,2-2.87,2.4-6.85,3.79-10.21s3.19-6.81,5.31-11.25c-14.66,0-27.92-.12-41.17.06-5.3.07-6.7,1.72-6.64,7.44,0,3.32.53,6.23-2,9.32-11.35,14-19.56,29.92-27.5,46-3.4,6.88-6.45,14.16-4.8,21.92,2.19,10.31,5.34,20.42,8.11,30.6,3.1,11.38,6.52,22.67,9.21,34.15,1,4.3.09,9,.47,13.53,1.15,13.62,2.55,27.23,3.77,40.84.73,8.18.11,16.7,2.2,24.49,5.58,20.83,9.45,42.34,21.87,60.8,3.09,4.59,4.17,10.59,6,16,1.15,3.48.56,7.4-2.77,8.63-2.13.78-6.11-.52-7.85-2.3a91.63,91.63,0,0,1-11.73-14.67c-8.66-13.51-16.23-27.84-30.24-36.85-6.72-4.32-9.63-11.54-13.22-18.21,1.63-12.43-4.52-23.42-6.32-35.18s-1.67-23.64-3-35.4c-.89-7.82-3.32-15.45-4.29-23.27-1.75-14.18-3.14-28.41-4.27-42.65-.72-9-4.17-17-7.81-25a99.5,99.5,0,0,1-8.7-43.3c.3-13.86,6.25-25.14,18.5-32.41,1.4-.83,2.71-1.84,4.06-2.77C262.68,42,247.25,41.89,232.69,45ZM46.46,122.58A29.39,29.39,0,0,1,62.8,134.71C67.62,142.25,72,150.07,76.23,158c2.68,5,4.45,10.57,7,15.71,5.82,11.82,14.66,21.23,23.23,31.08,19.09,21.95,42,37.12,69.87,44.59,2,.53,4.46,1.24,6.09.49,3.91-1.79,7.5-1.28,11.4-.37,1.37.32,3.12-1,5.09-1.66-.57-2.23-.67-4.15-1.5-5.65C190.77,230.3,188.73,217,186,204c-2-9.59-3.47-19.33.3-29.47,2.66-7.15,7.1-14.29,5.48-22.73-.68-3.56-.75-7.24-1.16-10.85-1.86-16.3-3.8-32.58-8.93-48.27-3.36-10.27-4-20.8-3.1-31.57.52-5.95.09-12,.09-19.37C134.31,48.45,90.45,39,46.46,46ZM46,337c0,9.78-.22,18.62.12,27.44a17.54,17.54,0,0,0,2.69,8.36c7.66,12,15.62,23.75,23.51,35.58a8.17,8.17,0,0,0,2.33,2.73c7,3.88,7.9,10.78,9.08,17.69s2,13.93,4.22,20.45A58.25,58.25,0,0,1,91,468c.06,6.69.05,13.4-.36,20.08a78.29,78.29,0,0,0,4.53,30.45A208,208,0,0,1,101.65,543c.65,3.09-.3,6.55-.66,9.83-1.06,9.62-3.41,19.28-3,28.82.52,11.11,4.83,21,15.2,27.49a110.74,110.74,0,0,0,36,14.1c3.2.69,6.66,1.25,9.39,2.9,14.91,9,31.2,15.9,43.44,29,3.49,3.72,6.71,7.72,10.32,11.31,20.5,20.38,20.91,45.6,16.6,71.69-1.56,9.45-4.68,18.64-7.19,27.92-.94,3.45-2.11,6.84-3.31,10.22-2.24,6.33-4.59,12.82-1.35,19.31,4.41,8.86,9.22,17.54,14.23,26.07a30.12,30.12,0,0,0,7.08,8c11,8.82,24.35,14.82,32.84,26.71,6.94,9.73,16.1,11.76,27.44,11.32,7.94-.31,13-3.21,18.7-8.31,9.86-8.84,9.61-17.52,2.55-27-6-8-11.93-16-17.54-24.19-6.48-9.53-15.13-16.46-24.79-22.26-4.91-3-9.93-5.78-15.1-8.25-6.1-2.93-9-8-9.79-14.32a101.24,101.24,0,0,1-.44-14.6c.28-14.87,1-29.75.95-44.62a38.33,38.33,0,0,0-2.86-15.08c-8.66-19.49-16.48-39.26-31.93-55.14-11.06-11.37-22.84-20.34-37.73-25.38-18.91-6.4-35-16-47-33.42-8.25-11.93-13.86-23.94-16-38-.87-5.63-2.35-11.19-2.93-16.85-.43-4.18.07-8.47.26-12.7.46-10.31.8-20.64,1.61-30.93.23-2.9,2-5.63,2.91-8.51,1.47-4.87,3.18-9.72,4-14.71,1.4-8,2.38-16.13,3.15-24.24.34-3.56.48-7.49-.65-10.77a171.7,171.7,0,0,0-8.3-19c-5.84-12-12.4-23.6-21.64-33.26C82.54,351.89,65.81,342.88,46,337Zm416-34.54,1.39-1.14c-.36-2.07-.65-4.17-1.1-6.22-3.08-14.06,3.34-30.84,15.54-37.61,13.93-7.72,34.33-4.82,41.58,9a28.84,28.84,0,0,0,3.17,4.25,31,31,0,0,1,7,22.93c-.33,3.65-.06,7.37-.06,12.3,8.91-11,8.51-21.85,4.79-32.92-2.48-7.39-5.66-14.55-8.38-21.86-4.77-12.81-12.75-23.13-23.07-31.9-5.92-5-11.28-10.75-16.89-16.16-9.32-9-18.14-18.58-28.1-26.75-8.81-7.22-14.22-16.18-18.28-26.45-6.87-17.36-10.29-35.6-12.61-54-2.16-17.16-3.76-34.52,2.33-51.41.13-.37-.4-1-.7-1.66H391.25c-2.31,14.79-3.73,29.18-2.76,43.76,1.52,22.7,3,45.4,4.65,68.09.48,6.65.87,13.39,2.26,19.88,4.08,19,11.39,36.89,17.39,55.24,5.72,17.47,16.31,31.62,25.8,46.48C444.81,286,454.09,293.78,462,302.43ZM824,109.36c-8.72-4.15-13.8-10.66-17.19-19.21-1.87-4.69-6-7.36-12.07-7.76-12.85-.85-25,2-37,5.51a140.83,140.83,0,0,0-44.9,22.77c-12.67,9.49-25.25,19.76-32,35.2-1.1,2.52-3.75,4.36-5.5,6.32-5.6-2.34-5.56-6.15-4.63-10.25,1-4.42,1.82-8.91,3.23-13.19a66,66,0,0,1,5.29-12.47c5.39-9.32,11-18.53,16.9-27.52,9.17-14,19.48-26.94,32.92-37.05,1.56-1.17,2.88-2.68,5.14-4.82-4.38-.7-8.13-2.26-11.21-2a19.78,19.78,0,0,1-3.2.11c-9-.62-9.63-.55-19.46.6-5.1,1.38-27.08,14.91-32.23,18.88-13.1,10.1-22.45,23.24-31,37.47-9.75,16.2-10.05,32.94-7.31,50.56,2.5,16.05,12.93,27.84,20.88,41.68,1-1.62,1.41-2.42,1.95-3.1,5.65-7.05,10.29-15.74,19.13-18.78,16.48-5.68,33.09-12.17,50.16-14.6,16.44-2.34,32.26-6.51,48.36-10a89.23,89.23,0,0,0,25.18-9.14C807.67,131.82,817.65,123.34,824,109.36Zm-546,309.4c3,5.67,5.69,10.69,8.25,15.79,1.78,3.55,4.63,4.11,8.25,3.94,10.13-.48,18.22,2.67,24.74,11.47,10,13.48,8.86,40.73-3.65,51.82-5.64,5-11.59,10.16-18.29,13.28-15.44,7.19-24,8.39-34.55-2.75-.82-.87-1.94-1.45-2.82-2.28-14-13.33-15.43-34.85-4.34-46.81a20.46,20.46,0,0,0,4.49-6.8c2.94-8.47,6.28-13.48-4.37-21.2-2.43-1.76-4.32-5-5.29-8-5.13-15.63-7.74-16.74-23.7-11.43-9.82,3.27-16.75,9.35-20.83,18.67-6.88,15.71-10.85,32.06-10.21,49.45.54,14.43,5.69,27.21,13.38,38.94,6.19,9.43,16.31,14.39,26.07,18.63a230.32,230.32,0,0,0,56.9,16.43c5.58.86,10.48,1.72,14.25-4.17,1.27-2,4.54-2.74,7-3.91,11.48-5.59,20.84-13.29,25.58-25.75,2.49-6.54,4.9-13.12,7.85-19.45,2.6-5.59,2.68-10.8.92-16.74-2.48-8.4-4-17.09-5.76-25.7-1.56-7.73-2.76-15.53-4.25-23.27-3.24-16.9-14.49-25.29-30.35-27.73C297.11,409.61,286.91,410.35,278.09,418.76Zm584.64-282.6c-4.63,8.76-7.51,16.07-11.95,22.23-12,16.63-24.82,32.64-37,49.16a152.6,152.6,0,0,0-12.34,20,90.81,90.81,0,0,0-10.15,42.92c0,9.32-1.19,18.57,4.42,26.92s10.34,17,16.47,24.75c5.17,6.52,11.89,11.76,17.71,17.78,10.54,10.91,20.92,22,32.76,34.45,0-13.16.17-24.32-.15-35.48-.06-2.07-1.75-4.41-3.28-6.08-9.67-10.56-14.94-23.94-19.41-36.83-5.53-15.94-6.06-33.43-3-50.33,2.41-13.31,5-26.66,10.41-39.26,2.41-5.6,4.83-10.77,9.14-15.31,2.54-2.67,6.44-4.93,6.38-9.82C862.62,167,862.73,152.67,862.73,136.16ZM46.47,750.91c9.2-5.73,16.86-10.75,24.76-15.35,6-3.47,11.93-8.07,18.41-9.23,14.31-2.56,25.79-8.23,34.63-20.36,5-6.81,5.92-12.85,2.64-20.16-5.69-12.67-15.89-21.26-26.78-28.75A148.09,148.09,0,0,1,66.86,625.4c-3.35-4.32-5.06-10.11-6.84-15.47-2.65-8-4.54-16.26-7.07-24.3-1.35-4.29-3.39-8.36-5.12-12.52l-1.36.45ZM649.29,867.6c-6-8.4-12.26-14.3-14.94-21.54-4.5-12.14-12.22-18.89-24.29-21.55a202.07,202.07,0,0,1-35.88-11.78c-4.88-2.08-8.81-4.46-12-8.87a173.33,173.33,0,0,0-15.11-19c-12-12.68-28.23-15.59-44.41-17.3-10.76-1.13-15.46-1.51-11.55,13.35.9,3.41,1.61,8,4,9.66a186,186,0,0,0,24.9,14.15c6.7,3.18,14.12,4.78,21,7.64,4,1.68,8.37,3.75,11.32,6.85,7.74,8.14,15,16.81,22,25.54,2.35,2.9,4.45,5.06,8.25,6.32,6.78,2.25,13.75,4.9,19.51,9A26.52,26.52,0,0,0,614.45,865C625.43,866.37,636.52,866.73,649.29,867.6ZM157.82,728.68l-1.72-1.21c-2.79,2.62-5.6,5.22-8.36,7.88-1.73,1.67-3.19,3.69-5.11,5.08a130.75,130.75,0,0,1-52.4,22.86c-14,2.69-25.83,9-38.29,14.62-4.38,2-6.1,5.26-6,10.13.22,10.66,0,21.32.08,32,0,2.28.28,4.55.43,7,9.1-3.22,9-3.24,11.54-10.48.89-2.56,1.79-5.35,3.49-7.33,6.66-7.79,13.29-15.67,20.6-22.83,8.55-8.39,19.7-12.53,30.6-16.83,6.33-2.5,13-4.2,19.12-7.17,7.26-3.55,13.31-8.8,18.87-15C155.79,741.73,157.57,735.7,157.82,728.68Zm-58,138.62c30.43-.07,59.74.13,89.21-.14-1.32-9.7-3-14.25-9.07-21.69-4.82-5.94-11.2-8.27-18.94-7.16a192.23,192.23,0,0,1-21.44,2c-5.33.16-10.7-1.23-16-1.05-11.81.4-19.74,8-21.59,19.81C101.64,861.46,100.81,863.75,99.87,867.31ZM760.08,625.43c-5,4.16-9.3,7.43-13.28,11-9.38,8.53-18.62,17.22-27.9,25.86a128.05,128.05,0,0,0-9.77,9.41c-2.46,2.84-3.58,6.43-1.6,10.16,1.79,3.35,4.85,4.07,8.41,4.18,5.66.16,11.4,1.5,16.95.87,5.75-.66,8.69,2.93,10.88,6.38,2.46,3.87,5,9.3,4.17,13.36-2.49,12.29-3.87,25.36-14.23,34.63l5.78,7c3.64-5.31,5.74-11.64,9.94-13.76,6.57-3.31,8.44-9,11.53-14.39,6.36-11,5.26-22-.21-32.93-4-8.06-8.08-15.9-19.55-12.95-3.42.88-6.21-1.59-7.95-4.83-1.88-3.52-.66-6.68,1.48-9.29a104.91,104.91,0,0,1,8.31-8.34c6.66-6.47,13.33-12.92,20.05-19.43ZM609.94,622c5,2.59,7,1.35,9.31-1.4,12-14.28,25.36-27.55,36.17-42.69,14.55-20.38,27.39-42,40.6-63.37,5.82-9.4,10.75-19.36,16.09-29.07l-1.25-1.61c-2.07.62-4.64.68-6.12,2a48.54,48.54,0,0,0-7.71,8.85c-6.81,9.91-11.21,21.4-19.58,30.3a44.64,44.64,0,0,0-4.11,5.75c-8.62,12.75-17.08,25.61-25.87,38.24C635.24,586.53,622.76,603.9,609.94,622Zm9.21-209.63c-1.84.24-3.21,0-4.09.6-9.56,6.21-20,11.19-27.58,20.17a38,38,0,0,1-5.67,5.85c-13.1,10-23.05,22.94-32.88,36-.94,1.25-1.11,3.08-2.17,6.25ZM491.62,435.84c6,2.09,11.77.35,17.61-.85,6.82-1.4,10.86-4.22,10-13.4l-29.16,4.52Zm13.38-69-7.45,11.88a39.79,39.79,0,0,1,3.24,4.72c1.49,3.21,3.87,4.73,7.23,3.75,3.06-.89,4.89-2.94,5.53-6.42C514.77,374.15,513.26,371,505,366.81Zm354.79-305c3.37-6.27,2.4-11.44,1.49-16.58-11.11-1.21-11.11-1.21-16.83,1.68C845.79,55.53,853.85,56.76,859.79,61.85ZM569.19,354.9c-.92,4.59.29,8.89,5,9.8,2.48.47,6.68-1.64,8.17-3.9,3.08-4.66-1.34-7.28-3.87-10.17Z"/></g><g id="newGrid"><path class="cls-2" d="M0,0V909.84H909.83V0ZM871.1,790.06c-.1,25.31,0,50.61,0,75.92v11.36H37.58V34.93c3.94-.17,6.92-.41,9.9-.42,15.62,0,31.24.12,46.86-.09,5.76-.08,11.49-1,17.25-1.49,1.82-.16,3.81-.72,5.46-.23,10.82,3.26,21.87,1.66,32.8,1.7,45.63.2,91.26,0,136.89.1Q573.37,34.74,860,35h11.08V46.87q0,124.92,0,249.84c0,14.51,1,29,.94,43.54-.16,43.21-.75,86.43-.91,129.64,0,13.58,1.11,27.16,1.07,40.74Q871.8,650.34,871.1,790.06Z"/></g></g></svg>