<svg xmlns="http://www.w3.org/2000/svg" viewBox="0 0 919.03 917.46"><defs><style>.cls-1{fill:#ce242b;}</style></defs><title>2_4_2</title><g id="Layer_2" data-name="Layer 2"><g id="Layer_8" data-name="Layer 8"><path class="cls-1" d="M0,0V917.46H607.87c6.81-1.11,13.6-1.86,20.64-1.14q6.52.66,13.07,1.14H919V0ZM730.75,66.34q5.11-7.06,10.13-14.19a23.91,23.91,0,0,0,2.21-3.63,65.9,65.9,0,0,0,3.76-8.63c1.43-4.65,2.4-9.45,3.64-14.15.69-2.58,1.15-5-2.16-6.69,2.28.74,3.95,1.34,4.48-1.76A4.5,4.5,0,0,1,756,14.45c5.95-.3,11.92-.14,17.25-.14-.51,10.91-1.12,21.95-1.51,33-.59,16.76-.73,33.55-4.18,50.06-.85,4.07-2.63,8-3.64,12a32.89,32.89,0,0,0-.78,7.6c-.07,11.08,0,22.18,3,33a51.14,51.14,0,0,0,2,5.12l1.05-.19c.17-.77.41-1.54.52-2.31,1-8.3,1.4-16.76,3.3-24.86,1.38-5.85,4.47-11.39,7.36-16.77,7.7-14.24,16.25-28.06,23.39-42.57,4-8.15,6.51-17.21,8.59-26.12,2-8.64,2.63-17.6,3.94-27.06h18.58a66.27,66.27,0,0,1,4.68,5.06c7,9.21,15.19,17.73,18.95,28.86A81.51,81.51,0,0,1,862.77,71c.38,8.27-8.29,16.87-18,19-7.13,1.58-14.49,2.18-21.62,3.77-9.53,2.12-18.6,5.55-25,13.47A48.24,48.24,0,0,0,791,119c-3.72,9.12-6.67,18.46-4.77,28.68.72,3.87-.12,8,.29,12,.33,3.13.87,6.55,2.42,9.19,4.07,6.92,8.51,13.67,13.24,20.16,4.5,6.2,9.47,12.08,14.42,17.94,3.2,3.79,7.7,6.8,9.87,11.05,3.49,6.81,8.22,13.29,8.13,21.69-.07,6.57-2.3,12.29-5,18.21-4.82-.75-8.89-2-11.63-6.5a132.49,132.49,0,0,0-9.86-13.67c-2.28-2.83-5-1.11-7.17.48-6.57,4.76-10.5,11.57-13.85,18.73-1.93,4.11-3.55,8.38-5.25,12.61-1,2.5-3.82,16.29-4.65,21.68-1.79,11.55-3.18,23.18-4.66,34.79-1.1,8.65-2.21,17.31-3.12,26-.7,6.61-.92,13.28-1.65,19.89q-1.81,16.3-4,32.56c-2.22,16.41-8.24,31.68-14.34,46.9-.84,2.1-2.47,3.86-3.8,5.88-5.09-2.59-5.8-7.75-6.22-11.87-.79-7.74-.23-15.66.2-23.49.16-2.85,1.49-5.68,2.43-8.46a30.53,30.53,0,0,0,1.58-14.32c-.44-3-1.94-4.65-5.31-5-9.55-.94-17.06,3.19-24.49,8.5-3.76,2.67-8.46,4.21-12.92,5.69a3.78,3.78,0,0,1-5-4.45c.81-3.5,2-7.23,4-10.07a101.82,101.82,0,0,1,11.43-12.51c1.74-1.71,4.29-2.55,6.32-4,4.5-3.15,9.74-5.75,13.09-9.86a29.19,29.19,0,0,0,5.76-14A101.61,101.61,0,0,1,746,322.67c4-8.46,6.38-17.75,9.32-26.72,3.89-12,8.18-23.85,11.22-36,1.59-6.37,1.45-13.35,1-20-.28-3.85-2.7-7.58-4.34-11.29a3.52,3.52,0,0,0-2.25-1.4c-12-2.79-22.92-1.94-32.69,7-7.17,6.56-15.23,12.2-23.16,17.9-4.38,3.16-9.8,2.84-14.92,2.41-1.09-.1-2.61-2.2-2.91-3.6a92.66,92.66,0,0,1-1.75-12.59c-.86-12.71,3.28-23.89,11.56-33.35,3.64-4.17,8.17-7.59,12.44-11.19,5.08-4.28,10.54-8.12,15.39-12.64s9.33-9.74,13.86-14.74a52.18,52.18,0,0,0,4.36-5.77c5.58-8.18,5.07-14.95-3-20.66-5.75-4.06-12.6-7.7-19.41-8.83-8.58-1.43-17.61-.17-26.43,0-3.73.09-7.46.61-11.19.7-5.55.13-9.31-4.39-7.75-9.64,2.81-9.43,8.27-17.24,15.16-24.63l-3.88,1.7-.48-.88c1.72-.69,3.46-2,5.17-1.93,3.69.1,5-.67,5.32-3.54a28.9,28.9,0,0,0,4.94-1.46c9.27-4.64,16.6-11.85,24.17-18.7C727.73,71,729.14,68.56,730.75,66.34ZM650.26,7.15,474.45,51.24a73.15,73.15,0,0,1,24.67-22.39c4.6-2.51,6.52-1.55,7.79,3.53a17.12,17.12,0,0,1-2.31,14.4c-3.74,5.49-7.09,11.39-11.64,16.11-3.13,3.23-7.8,5.48-12.19,6.83-5.49,1.71-9.64-3.39-9.94-10.74C472,56.4,472.83,53.53,474.45,51.24ZM223.64,11.69c1.46,1.09,2.94,2.14,4.28,3.36,2.07,1.89,36.72,22.73,43.74,24.49,6.73,1.7,13.56,2.94,20.32,4.43,1.65.37,3.37,1.57,4.86,1.3,3.89-.72,8-1.49,11.42-3.25,3.11-1.59,5.43-4.66,8.29-6.82,3-2.28,9.38-2.06,12.22.47.92.82,2.51,4.62,2.77,5.18.57,1.26,2.81,6.78,4,7.6a82.66,82.66,0,0,0,8.83,5.36,14.68,14.68,0,0,0,13.84.57c6.75-3.1,13.08-6.53,16.91-13.37,2.43-4.36,4.74-9,8.08-12.58a72.81,72.81,0,0,1,13.32-10.86c3.15-2.07,6.37-4,9.64-5.87h33.42c-3.12,1.37-6.1,3-9.17,4.53a68.12,68.12,0,0,1-6.6,3c-11,3.91-18,12.1-22.86,22.14-2.94,6.06-4.54,12.75-7.2,19-1.05,2.46-2.89,5.34-5.14,6.41-7.14,3.36-10.62,9.19-13.27,16.15a47.84,47.84,0,0,1-6.09,11,74.84,74.84,0,0,1-8.77,9.7c-3.62,3.49-7.93,3.19-12.22,1.25-5.5-2.5-11.16-4.76-16.36-7.78a19.92,19.92,0,0,1-6.73-7c-4.14-7-9.13-11.45-17.81-13-9.22-1.61-18.35-1.94-27.57-2.64-6.07-.47-11.94-3.11-18-4.11q-19-3.14-38.12-5.52c-6.18-.77-11.15-3.76-16-7.18a8.86,8.86,0,0,1-2-2.81c-5.91-9.87-10-20.5-13.15-31.53a19.53,19.53,0,0,0-4.36-7.58q-1.9-2-3.88-4ZM12.41,28.91a21.4,21.4,0,0,0,8,2.86,5.33,5.33,0,0,1,1.52.3c6,2.9,11.57.3,17.11-1.53,3.19-1.06,5.22-1,6.57,2.64a51.64,51.64,0,0,0,4.44,8.11C55.74,50.88,61.38,60.48,67.21,70a269.94,269.94,0,0,0,29.34,39.75c4.1,4.56,9.1,7.76,13.43,11.83,5.37,5.07,11.66,8.42,18,11.88,5.1,2.76,9.76,6.3,14.7,9.37,1,.65,8,6.37,11.85,6.68.79.07,6.39,4.72,9,5.92.9.41,7.92,4.71,10.44,4.51,8.72-.67,15.31,3.6,21.85,8.2,2.81,2,5.34,4.38,8.69,6.16a40.27,40.27,0,0,0-2.34-5.25c-3.13-5-5.79-10.51-9.8-14.69-5.63-5.86-12.28-10.74-18.56-16-4-3.27-8.39-6.06-12-9.66-6.15-6.11-11.89-12.64-17.68-19.1-4.07-4.54-7.81-9.36-11.93-13.85-5.75-6.28-9.43-13.73-12.9-21.34-3.33-7.3-6.78-14.55-10-21.92-3.57-8.29-6.93-16.67-10.3-25.05a16.69,16.69,0,0,1-.53-3.81c6.15-.05,10.07,3.45,14.21,6.51a40.46,40.46,0,0,0,5.75,3.8c6.45,3.23,9.23,9.84,13.53,15,2.12,2.52,2.08,6.87,3,10.41.12.46,0,1.06.27,1.4,2.43,3.25,4.93,6.46,7.36,9.7s4.64,6.31,8.83,7.21c.39.08,1,.76,1,1-.82,3.5,2,3.73,4,4.35,3.66,1.1,7.39,2,11.16,2.75,5.72,1.11,11.35,2.12,15.37,7.06,1.43,1.76,3.62,2.86,5.31,4.43,2,1.9,3.87,4,5.86,5.95,1.37,1.36,2.21,4.51,4.95,1.14.33,4.42,2.08,6,6.64,5.82,4.27-.19,8.54-.69,12.78-1.25,3.16-.42,4.28,1.13,5,3.91,1.57,5.91,4,11.64,5.09,17.62,2,10.63,5.46,21.09,4.12,32.22-.42,3.52.05,7.17.27,10.77,1,16.05-1.94,31.78-3.81,47.61-1,8-1.12,16.16-1.65,24.25-.07,1-.19,1.95-.39,4-1.28-1.88-2.09-2.92-2.76-4.05-7.44-12.65-17.88-22.46-29.19-31.56-9.73-7.82-21.18-12.25-32.77-15.73-8.88-2.67-18.47-3.24-27.81-4a213.32,213.32,0,0,0-23-.26c-9.71.22-18.07-5.28-27.36-6.27-8.75-.93-11-6.56-13.48-13.71a278.5,278.5,0,0,0-14.11-33.32c-2.79-5.57-7.38-10.37-11.69-15-6.43-6.92-13.19-13.56-20.08-20a40.6,40.6,0,0,0-12.53-8.33Zm0,122.49c1.39,2.2,2.67,4.47,4.14,6.59,5.62,8.1,7.84,17.46,10.76,26.51,1.71,5.28,2.16,11,2.63,16.63.79,9.48,1.38,19,1.61,28.49.41,16.74-3,32.57-12.17,46.86a16,16,0,0,1-1.94,2.87c-1.67,1.63-3.35,3.25-5,4.86Zm88,703.35q-9.1,13.89-18.44,27.63c-1.88,2.76-4.13,5.27-6.17,7.92C71.85,895.4,68,900.55,64,905.62H35.79c8.3-5.64,14.37-13.49,20.32-21.3C60.94,878,64.63,870.81,69,864.08a12.91,12.91,0,0,1,3.7-3.75c3.33-2.14,5-7.14,3.22-10.69-3.18-6.14-6.69-12.1-9.64-18.34-3.66-7.73-10.63-11.94-16.9-17-1.76-1.42-3.31-3.11-5.13-4.43s-4.22-2.3-6-3.78c-1.29-1.06-2.07-2.73-3.33-3.6-2.31-1.41-4.73-2.63-6.9-4.23a42.68,42.68,0,0,0-15.51-7.53V778.65c3.53,0,7,.23,10,1.57,12.74,5.78,25.41,12,37.21,19.44,6.77,4.29,11.41,11.79,17.67,17.08,9.86,8.34,15.73,19.62,23.26,29.68C102.61,849.19,102.12,852.11,100.38,854.76Zm13.13-57.57c-20.28-.29-33.15-11.91-41.22-28.82a29.28,29.28,0,0,1,1-27.6c2.94-5.14,5.9-10.3,9.26-15.16a25.82,25.82,0,0,1,6.93-7.07c3.87-2.49,6.58-6.8,11.69-7.47s10-1.66,15-2.49c.86-.15,1.74-.2,3.5-.39-.77-5.9-1.07-11.68-2.36-17.23-2.46-10.64-5.16-21.24-8.4-31.66-1.64-5.25.19-8.62,3.78-11.66,2.45-2.08,5.16-3.83,7.82-5.79-.27,11.48,3.16,22.29,5.72,33.29,2.15,9.24,3,18.78,4.62,28.16,1,6.12.25,12.59,4.12,18.21.83,1.2.33,4.4-.74,5.55a7.23,7.23,0,0,1-5.75,1.78c-9.45-1.83-18.57-1.65-27.67,1.95-9.49,3.75-14.66,10.66-14.84,20.87-.07,4,.23,8-.07,12-.38,5,1.49,8.62,5.2,11.78,6.79,5.77,13.62,10.93,23.38,10.12,4.49-.38,7.16,2.44,7.05,5.95C121.42,795.14,118.16,797.25,113.51,797.19ZM231,867c-3.84,4.34-8.07,7.79-14.41,7.88-3.8,0-5.78-.91-4.95-5.21l-1-.37c1.25-1.73,2.25-3.74,3.8-5.14,3.78-3.4,7.83-6.51,11.75-9.77a8.07,8.07,0,0,0,1.52-1.74c4.63-7.07,11.34-8.05,19-6.59,2.77.53,5.59.92,8.41,1.17a24.29,24.29,0,0,0,12-1.7c5.59-2.36,11.55-1.68,17.35.1,1.41.42,3.14.88,4.4.43a15.88,15.88,0,0,1,13.63,1.1c1,.55,2.29,2,2.13,2.88s-1.67,2.13-2.78,2.39c-1.43.35-3-.19-4.57-.21-4.35-.08-8.75-.55-13,0-10.48,1.22-20.86,2.79-31.37,0-6.08-1.61-10.06,3.05-14.21,6.16C235.6,860.64,233.53,864.15,231,867Zm17.43,38.57a108.32,108.32,0,0,0,15-15.42c4.56-5.56,10.85-6.53,17.65-5.55a32.77,32.77,0,0,1,20.43,11.08c3.13,3.47,7.46,5.86,11.25,8.7l1.54,1.19Zm658.22-102.5a137,137,0,0,1-16.52-6.7,124.81,124.81,0,0,1-23.43-15.26c-5.37-4.49-9.23-10.85-13.51-16.57-3.57-4.77-6.88-9.75-10.11-14.76a33.33,33.33,0,0,1-3.94-7.86c-3-9.51-6.38-19-8.19-28.72-1.43-7.65-1.34-15.74-.83-23.57.62-9.63,3.82-18.76,7.59-27.67,1.63-3.85,2.29-8.12,4-11.9,2.87-6.24,6.13-12.3,9.48-18.3,4.95-8.84,13.3-14.48,20.72-20.84,9.78-8.4,20.48-15.63,33-19.63.57-.18,1.15-.35,1.73-.49Zm0-357q-7.06,5.51-14.19,11c-11.12,8.55-22.57,16.72-33.27,25.77-6,5.11-11,11.57-16.26,17.58-6.34,7.22-12.73,14.44-18.66,22a101.43,101.43,0,0,0-8.92,14.22c-.92,1.67-.62,4-.87,6l1.15.37c3.24-2.85,6.35-5.86,9.73-8.53a83,83,0,0,1,28.42-14.41c4.83-1.44,9.21-4.29,14-6,7.5-2.61,15-5.41,22.77-6.93a121.51,121.51,0,0,1,16.13-1.68v20.16c-6.7,1-12.38,4.61-18.1,8.38-3,2-6.61,3-9.9,4.46-1.93.89-3.79,1.92-5.67,2.9-7.12,3.74-14.35,7.3-21.31,11.33-3.6,2.1-6.39,5.77-10.14,7.4-5.35,2.33-7.69,7.72-12.8,10.53-5.44,3-9.56,8.52-14,13.21a97.1,97.1,0,0,0-10.58,12.69c-5.25,8-10.2,16.21-14.73,24.64a152.36,152.36,0,0,0-9.1,20.24A162.13,162.13,0,0,0,775,661.07c-3.45,15.28-3,30.91-2.33,46.33.59,12.44,3.33,24.76,6.47,37,3.95,15.35,12,28.28,21.21,40.7,4.84,6.53,10,12.82,15.28,19,2.72,3.19,6,5.88,9,8.86,4.72,4.73,9,9.94,14.16,14.17s11.15,7.65,16.79,11.38c3.3,2.18,6.71,4.19,9.93,6.47,7.32,5.16,14.71,10.1,23.54,12.49,5.87,1.6,11.68,3.34,17.51,5.07v43.1H815.46a47.16,47.16,0,0,1-3.49-3.76c-6.24-7.39-13.49-13.19-22.92-15.84a18.7,18.7,0,0,0-6.08-.68c-8.82.49-17.56-1.11-26.52.39-8,1.33-16.51,1.22-24.43-1.62a31.23,31.23,0,0,1-9.34-5.24c-6.69-5.55-14.33-8.11-22.75-9.9-10.85-2.31-20.61,0-30.36,4.2A66,66,0,0,1,659.18,877a22.82,22.82,0,0,0-13.91,9.73c-4.74,6.85-11.34,10.91-19.06,13.62-1.92.67-4.15,2-5.08,3.66a8.54,8.54,0,0,1-1.12,1.59h-84.2c-1.61-1-3.62-1.69-5.39-2.69-3.4-1.94-7-3.15-10-6.39a101,101,0,0,0-20.22-17c-3.28-2-9.88-2-13.25,0-9.79,5.85-16.75,14.51-19.53,26H437.82a32,32,0,0,0,3.74-2.87c3.92-3.22,7.94-6.37,11.55-9.92,2.75-2.7,5.59-5.68,7.21-9.1,2.67-5.65,7.44-9.14,11.88-12.85a154.17,154.17,0,0,1,18-12.81c7.64-4.7,16.12-3.51,24.35-1.88,5,1,9.55,2.71,13.2,7.07,3.12,3.7,8.25,5.67,11.54,9.27,6.66,7.27,15.48,10.83,24.18,13.73,8.11,2.71,17,3,25.49-.9,10.75-4.94,21.73-9.39,32.62-14,4.58-1.95,9.33-3.56,13.75-5.82a39.91,39.91,0,0,0,8.34-6q9-8.17,17.74-16.73c9.53-9.38,18.79-19,28.45-28.27,2.41-2.3,5.86-3.58,8.94-5.12,9.07-4.5,17.94-9.59,27.37-13.15,10.23-3.86,21-4.79,31.72-.87,2.38.87,4.82,1.6,7.37,2.44,1-3.21.26-5.45-2.35-6.91-4.64-2.61-9.33-5.16-14-7.73-.22-.12-.53-.19-.67-.37-5.22-6.73-12.92-7.39-20.43-8-9.63-.73-19.3-1-29-1.32-7.64-.23-14.33,3.22-21.23,5.88-8.6,3.3-17.26,6.44-25.84,9.78A56,56,0,0,0,644,793c-12.31,7.11-24.61,14.25-36.83,21.52-2.18,1.3-3.89,3.34-5.92,4.93-6.77,5.3-14.77,8.06-22.74,10.86a39.18,39.18,0,0,1-8.15,2.31c-3.23.38-6.55,0-9.82,0-8.93.12-15-5.77-21-10.89-5.73-4.89-11.95-8.1-19.19-9-10.92-1.34-21.88-2.6-32.85-2.89-6.14-.16-12.4,1.43-18.48,2.77a78.32,78.32,0,0,0-15.64,4.89c-4.78,2.2-8.79,6.07-13.55,8.35-4.33,2.08-9.2,3.08-13.86,4.44-6.37,1.86-12.43,4-15.47,10.76-.43,1-2.8.92-4.08,1.68-9.2,5.39-18,2.92-26.62-1.37C373.15,838,366,835,360.33,830.24c-5-4.26-10.25-6-16.3-6.76-4-.51-8-.85-11.88-1.68-12.59-2.67-25.29-2.83-38.08-2.18-13,.66-26,.92-38.94,1.49a34.07,34.07,0,0,0-6.71,1.27c-6.82,1.69-13.53,4.09-20.44,5-9,1.23-17,5.07-24.29,9.7-5.42,3.44-9.48,9.22-13.7,14.33-7,8.52-13.88,17.17-20.41,26.06-4.16,5.67-7.59,11.87-11.36,17.83a8.49,8.49,0,0,1-1.58,2.11,29.12,29.12,0,0,0-6.66,8.18H123.85c.76-2.86,1.53-5.74,2.41-8.57,1.17-3.76,2.5-7.48,4-11.12,1.86-4.61,3.86-9.16,5.95-13.66s4.39-8.95,6.57-13.44c5.49-11.37,14.51-19.92,23.34-28.51,4.31-4.2,9.5-7.48,14.25-11.22,3.71-2.91,7.16-6.23,11.11-8.77,6.43-4.13,12.94-8.34,19.89-11.43,4.71-2.1,10.23-2.4,15.41-3.41a36.09,36.09,0,0,1,22.8,3.3c6.56,3.21,13.29,2,19.82,3.56a20.47,20.47,0,0,0,7.52,0,8,8,0,0,0,6.7-5.07c1.67-4.09,4.45-6.49,9.26-6.92A40.68,40.68,0,0,1,317,795.79c4.36,2.43,8.46,5.34,12.76,7.87,4.91,2.9,10.09.75,15.16.57,9.3-.33,17.24-4.11,24.52-9.57,3.55-2.65,7.32-1.46,9.93.73,5.7,4.79,10.76,10.33,16.09,15.55.55.53,1.08,1.39,1.71,1.48,13.36,1.84,26.54,2.6,37.92-6.81,7.23-6,14.32-12.19,21.89-17.73,2.85-2.1,6.8-2.88,10.38-3.73,6.34-1.5,12.76-3.26,19.2-3.61,4.8-.27,9.77,1.21,14.52,2.48,5.41,1.45,10.53,4.3,16,5.12,5.12.77,10.53-.14,15.78-.65,5-.49,9.94-1.29,14.86-2.23A11.45,11.45,0,0,0,552,783c7.11-5.29,14-10.65,16.85-19.74a117,117,0,0,1,7.39-17.75,67.64,67.64,0,0,1,7.81-11.35c4.31-5.36,8.44-11,13.55-15.53,5.52-4.86,12.23-8.35,18.13-12.82,2.6-2,5.46-4.33,4.89-8.7-11-.57-21.74-.47-32.09,3.52-8.25,3.19-16.34,6.51-22.64,13.2-6.1,6.48-12,13.32-19.08,18.62-6.69,5-14.65,8.42-22.21,12.19-2.64,1.32-5.15,1-8.35-.89-8.08-4.71-16.52-9.4-26.58-8.2a15.27,15.27,0,0,1-3.18-.24c2.13-4.41,6.4-6.58,9.35-10.3,4.67-5.9,6-12.95,9.74-18.93,1.94-3.08,4.71-5.66,6.52-8.8,6.16-10.74,10.14-22,9.72-34.77-.38-11.65.62-23.36.26-35-.39-13.09-2.78-25.8-8.46-37.88-3-6.41-4.24-13.62-6.94-20.2-3-7.33-6.9-14.29-10.13-21.53-2.46-5.52-4.53-11.21-6.67-16.88-1.08-2.87-2-5.82-2.84-8.79s-1.25-6-2.06-9c-.6-2.16-2-4.2-2.2-6.38-.73-7.21-.26-14.66-1.79-21.67-1.89-8.65-1-17.24-1.46-25.85-.19-3.29-3.93-5.46-6.44-3.14-6.38,5.88-15.37,5.69-22.15,10.42-3,2.09-6.38,3.64-10.33,5.85-.81-5.93-1.67-11.36-2.16-16.84-.08-.93,1.21-2.55,2.22-2.91,6.25-2.21,12.79-3.74,18.85-6.36,4.26-1.85,7.87-5.15,11.87-7.65,9-5.66,13.87-14.08,16.77-24.06a16.84,16.84,0,0,1,7.47-9.88,8.32,8.32,0,0,0,1.86-1.26c6.07-6.55,12.06-13.18,18.17-19.69,1.31-1.39,3.24-2.2,4.48-3.62,6.95-8,13.39-16.18,16.17-26.77,1-3.84,3.53-7.27,4.83-11.06,3.16-9.2,6.22-18.44,8.88-27.79a265.58,265.58,0,0,0,6.85-27.84A189.83,189.83,0,0,0,559,261c.25-7.42-.12-14.88-.52-22.3-.5-9.23-.71-18.54-2.13-27.64-1.13-7.28-3.85-14.32-5.95-21.44-3-10.06-6-20.08-9-30.14-1.55-5.27-2.76-10.63-4.41-15.85a70,70,0,0,0-3.58-8.08,95.34,95.34,0,0,0-6.57-12.4,20.22,20.22,0,0,0-.7,4.65c2.24,28,2.58,55.87-5.9,83.23-2.23,7.15-2.11,15-3.33,22.49-1,6.45-1.59,13.2-3.92,19.21-3.64,9.39-8.44,18.35-13,27.34a162.58,162.58,0,0,1-10.24,17.66c-4.48,6.55-9.89,12.32-17.23,16a51,51,0,0,0-8.84,5.28c-7,5.52-14.79,8.72-23.23,8.21,7.39-7.62,16.16-25,8.35-42.76-9-20.37-22.35-23.08-30.15-26.3-7.13-2.93-24.45-2.11-31.8,1.62-11.46,5.83-18.09,12.16-25.78,22.44-6.43,8.61-5.13,18.42-5.44,29.38-.12,4.29,2.27,8.68,3.64,13,.58,1.82,6.44,14.11,8.76,18.41,1.48,2.73,1,3.92-2,5-8.43,3.1-16.83,6.3-25,10.08-3.57,1.66-6.41,4.89-9.68,7.26-6.55,4.76-12.84,10-19.86,14-5.78,3.25-9.35,8.37-13.31,13-12.81,15-25,30.5-37.47,45.83-.88,1.09-1.55,2.35-2.35,3.51-1.23,1.78-1.75,3.9-4.36,4.81-1.57.54-4,2.59-1.9,4.61-2,2.1-3.77,4.06-5.61,6-3.34,3.46-9.09,2.89-12.94.08-3.11-2.28-7.16-3.54-11-4.49a137.82,137.82,0,0,0-16.87-2.94c-2.49-.3-5.09.52-7.65.66-7,.38-13.77,1.49-19.87,5.24-8.38,5.15-17.25,9.63-25,15.62-5.64,4.4-9.76,10.77-14.54,16.27-11.45,13.2-15.53,30-21.61,45.71-2.5,6.45-2.85,13.74-4.11,20.66-.91,5-2.14,10-2.45,15.08-.38,6.25-1,12.77.38,18.75,1.82,7.88-.41,13.74-5.1,19.66C99.16,615.73,93,624.55,86.5,633.15c-6.84,9.07-13.9,18-20.65,27.12-2.48,3.36-4.29,7.21-6.48,10.81-4.46,7.32-9,14.59-13.45,21.93-2.78,4.62-5.24,9.45-8.13,14-3,4.73-6.42,9.21-9.61,13.84-.65.94-1,2.14-1.65,3-1.11,1.44-2.43,2.71-4.21,4.67,1.23,2.14-.93,3.84-3,6.16a108.13,108.13,0,0,0-6.95,9.58V347c.86-.9,1.69-1.82,2.53-2.69,9.9-10.26,19.89-20.48,29.17-31.3,6.3-7.34,11.45-15.69,17.2-23.53,1.82-2.48,3.85-4.84,5.9-7.15,6-6.8,7.53-15.25,9.28-23.79,1.08-5.27,2.1-10.17,8.79-13.21,5.54-2.52,11.52-4.08,17-6.94,2-1.07,5.17-.93,7.49-.25,5.26,1.54,10.32,3.76,15.48,5.67.77.29,2,.8,2.39.47,2.83-2.22,29.36,12.69,39.83,19.41,9.39,6,18.21,13,27.05,19.79s26.17,22.22,26.31,22.83c1-.26,20.86,17.43,27.13,21.82,6.86,4.82,9.51,12.22,12.31,19.35,2.93,7.48,4.7,15.4,7.1,23.51,2.48-1.4,3.34-3.85,3-6.92-1-9.75-2.27-19.48-3.11-29.23a153.54,153.54,0,0,1-.76-19.64c.45-10.53,1.81-21,2.28-31.53.48-10.75,2.77-21.08,5.55-31.39.78-2.89.48-6.08,1.24-9,3.43-13,7.16-26,10.55-39,.86-3.31.8-6.85,1.23-10.28.53-4.05,1.62-8.08,1.6-12.12,0-6.77-1-13.54-1.16-20.32-.18-6-1-11.73-4.23-17-1.11-1.81-1.69-3.94-2.91-6.88,3.07,0,47.69,11.87,53.27,13.05,6.43,1.35,13,3.09,19.79,1.58,13.82-3.1,27.8-5.64,41.44-9.38,4.95-1.36,9-5.67,13.68-8.35,7.05-4.1,14.2-8,21.39-11.9,9.45-5.08,19.71-2.21,29.61-2.7,1.92-.09,3.95,1,5.84,1.77,11.67,4.66,22.52,3.68,31.46-5.65,6.88-7.18,13.81-14.77,16.47-24.59,2.31-8.5,7.66-13.62,14.57-18.17,3.23-2.13,5.61-5.54,8.38-8.37,2.94-3,13.81-14,14.73-15,6.21-6.89,22.64-24.41,24.66-26.28C577.75,22,587.36,15,590,11.69H704c1.82.4,2.1,1.5,1.43,4.33-.77,3.2-2.12,6.26-3.19,9.39a8.74,8.74,0,0,0-.33,1.85c-.3,2.49.09,5.35-1,7.42-2.65,5-6,9.74-9.05,14.55-1.6,2.47-3.52,4.78-4.84,7.39-1.21,2.4-6,7.11-6.73,9.1-.5-.13-10.08,8-14.76,12.32-5.84,5.43-11.74,10.79-17.89,15.87-2.72,2.26-6.31,3.45-9.08,5.66-9.16,7.25-18.36,14.48-27,22.27a27.63,27.63,0,0,0-9.2,18.95c-.07,1.06-.72,6.14-.45,7.33,1.85,8,4.14,16.14,10.07,22.13,7,7.09,16.45,9.92,25.7,13.12a23.22,23.22,0,0,1,10.38,8c5.16,7.06,8,15.25,4.53,24-1,2.66-8,7.64-8.49,8.37-6.11,8.69-12.11,17.46-18.19,26.16-3.13,4.47-6.56,8.73-9.51,13.31-1.47,2.27-2,5.12-3.24,7.56-2.85,5.61-6.21,11-8.69,16.75-1.64,3.79-2.15,8.07-3.09,12.15-.59,2.57,1.83,25.88,4.49,31a22.72,22.72,0,0,0,5.57,6.85,32.7,32.7,0,0,0,8.39,4.79c9.42,3.8,16-2,22.11-7.55,6.79-6.21,12.78-13.3,19.16-19.94,3.27-3.4,6.28-7.25,10.12-9.84,2.59-1.75,6.4-1.75,9.7-2.29,2.15-.35,4.38-.17,6.56-.44,5.36-.69,7.8.68,10.65,5.26,6.78,10.91,7.09,21.64,1.15,33.2-3.59,7-6,14.5-12.12,19.92-5.82,5.19-11.79,9.54-20,10.82-6,.93-11.8,3.38-18.08,3.16a6.1,6.1,0,0,0-3,.73c-12.18,6.55-25.62,10.32-37.28,18.26-8.63,5.89-17.42,11.43-24.34,19.25-6.47,7.28-13.12,14.7-18,23-4.37,7.51-7.51,16.07-7.24,25.26,0,.76-2.64,15.33,5.74,21,9.38,6.4,19.68,11.27,31.33,11.22,5.13,0,10.23-2.13,15.4-2.63,6-.58,10.52-4.28,15.74-6.51,7.9-3.39,13.22-10.07,19.82-15.1,5.15-3.94,9.17-9.33,14-13.74a52.44,52.44,0,0,1,22-12.12c7.19-1.92,14.08-.76,20.16,4.55,5.82,5.08,8.54,11.06,6.87,18.47-2,9-4.43,17.88-11.29,24.92-10.46,10.76-58.53,49.17-65.28,58.08-3.71,4.91-6.17,11-8.26,16.86a177.82,177.82,0,0,0-6.11,22.3c-1.06,4.92.52,22,2.43,24a153.1,153.1,0,0,0,13.27,12c2.77,2.35,5.78,4.44,8.66,6.66,5.16,4,11.19,5.4,17.51,5.94a60.24,60.24,0,0,0,7.33.38c1.26-.06,2.5-.88,4.16-1.52,1.29,1.48,7.13,1.46,11-.42,5.3-2.61,10.76-4.9,16.09-7.45,6.61-3.15,12.51-7.17,17-13.17,1.54-2.06,4.11-3.28,5.91-5.18,4.13-4.32,8.16-8.73,12-13.27,6.59-7.71,13-15.54,19.54-23.33,9.39-11.23,19.54-21.92,27.93-33.85,7.59-10.81,13.35-22.91,19.71-34.56,9.06-16.61,10.83-34.81,10.66-53.26-.28-29.83-1.17-59.66-1.33-89.49,0-8.73,1.44-17.48,2.44-26.2a7.55,7.55,0,0,1,7.34-6.6c5.31-.13,10.7-1.52,15.87,1.48a17.74,17.74,0,0,1,8.26,10.21c1.56,4.59,4.33,8.82,5.48,13.48a130.89,130.89,0,0,1,2.9,19.07,70.69,70.69,0,0,0,6.77,24.36c2.32,4.81,12.88,12.13,19.87,11.39a8.91,8.91,0,0,0,2.83-1c7.3-3.53,12.71-9.44,18.32-15,1.53-1.52,2-4.09,3-6.2.69-1.57,1.31-3.17,2-4.76l.4,0ZM257.16,684.93c-1-6.85-3.24-13.52-4.64-20.32-1-5-1.33-10.16-2.46-15.13-.87-3.85-2.56-7.52-3.82-11.29a33.75,33.75,0,0,1-2-9.43c1.9,2.2,4.26,4.16,5.54,6.68.74,1.44.89,2.29,2.65,2,.43-.06,1.16.52,1.47,1,3.13,4.85,6.16,9.76,9.31,14.6,1.51,2.32,3.37,4.42,4.76,6.8,1.32,2.23,2.23,4.71,3.65,7.81,4.12.35,4.59,5.18,6.77,8.15,4.9,6.65,9.24,13.71,13.81,20.6,2.31,3.48,4.57,7,6.91,10.46a16.08,16.08,0,0,0,2.58,3.31c2.69,2.32,5.69,4.32,8.27,6.74,6.53,6.11,14.15,11.54,19,18.82,4.42,6.68,11.63,8.45,16.64,13.55,1.49,1.52,3.1,2.9,4.83,4.53a9.88,9.88,0,0,1-1.88,1.56c-7.85,4-15.57,8.28-23.7,11.55-3.22,1.29-7.41.51-11.12.14-13.32-1.35-24.13-8.57-35.21-15.24-4.34-2.6-9.19-4.35-13.82-6.45-6.82-3.08-14.12-2.86-21.93-2.89,2.76-5.44,5.1-10.63,8-15.49a51,51,0,0,0,7.2-24.76A97.09,97.09,0,0,0,257.16,684.93Zm81.72-168.28c10.71,10,20.93,20.55,31.28,30.94,7.2,7.22,14.28,14.57,21.38,21.89,2.27,2.34,3.33,5.42,1.21,8a7.34,7.34,0,0,1-6,2c-2-.39-3.91-2.35-5.51-4-14.74-15-29.14-30.28-44.18-44.95-8.09-7.89-17.28-14.66-25.85-22.07-4-3.44-7.68-7.23-11.55-10.81-1.1-1-2.36-1.91-4.49-3.61,6-3.87,11.5-7.69,17.26-11.15,5.37-3.23,10.86-6.3,16.5-9,6.29-3.08,10.85-.28,10.14,6.68a61.82,61.82,0,0,1-4.27,17.09C330.12,508.88,330.1,508.45,338.88,516.64Zm35-88.64c2.79-2.58,7.53-1.43,9.19,2.48a50.5,50.5,0,0,1,1.86,6.71c-.6,3.92-.84,7.56-1.76,11a5.76,5.76,0,0,1-5.84,4.16c-2.37,0-4.67,0-6.25-3C368.29,444,369.46,432.15,373.92,428Zm64.67-15.65c.24-7.61,4.28-12.47,10.29-12.37s9.42,3.89,9.27,9.93c-.18,7.05-4.85,11.63-11.69,11.48C441.65,421.28,438.42,417.57,438.59,412.35Zm468-248.63c-.49,14.82-1,29.57-1.46,44.64-3.59-4.05-6.48-7.51-9.59-10.77-2.67-2.78-5.29-5.79-8.46-7.89-7.64-5.07-15.9-9.24-23.32-14.61-5.62-4.07-10.37-9.38-15.4-14.24-.75-.72-1-2-1.39-3.06a18.39,18.39,0,0,0-2.65-5.47c.66-5,1-10,2.05-14.93a100.64,100.64,0,0,1,3.74-12.09,3.6,3.6,0,0,1,1.83-1.85c6.6-2.87,13-6,20.06-.45,5.82,4.56,12.32,8.22,18.49,12.33a7.53,7.53,0,0,1,2.24,2.09c3.12,5,6.52,9.65,13.84,10.15l.53,0Q906.87,155.69,906.61,163.72Z"/></g></g></svg>