<svg xmlns="http://www.w3.org/2000/svg" viewBox="0 0 923.13 923.13"><defs><style>.cls-1{fill:#ce242b;}.cls-2,.cls-4{fill:#fed6af;}.cls-2{opacity:0.41;}.cls-3,.cls-5{fill:#fff;}.cls-5,.cls-7{font-size:122px;}.cls-5{font-family:Georgia, Georgia;}.cls-6{font-size:60px;}</style></defs><title>bodyArmour_3</title><g id="Layer_2" data-name="Layer 2"><g id="bodyArmour"><rect class="cls-1" width="923.13" height="923.13"/><path class="cls-2" d="M0,1.78V921.35H610.58c6.84-1.11,13.66-1.86,20.73-1.14q6.55.66,13.13,1.14H923.13V1.78ZM734,68.27q5.14-7.08,10.17-14.22a24,24,0,0,0,2.22-3.64,66,66,0,0,0,3.78-8.65c1.43-4.66,2.41-9.47,3.66-14.18.69-2.59,1.16-5-2.17-6.71,2.29.74,4,1.34,4.5-1.76a4.51,4.51,0,0,1,3.25-2.85c6-.3,12-.14,17.33-.14-.51,10.94-1.13,22-1.51,33.07-.59,16.8-.73,33.63-4.2,50.17-.85,4.08-2.64,8-3.66,12a32.9,32.9,0,0,0-.78,7.62c-.07,11.11,0,22.23,3,33.06a51.19,51.19,0,0,0,2,5.13l1.06-.19c.17-.77.42-1.54.52-2.32,1-8.32,1.4-16.8,3.31-24.92,1.38-5.86,4.49-11.42,7.4-16.81,7.73-14.27,16.32-28.12,23.49-42.67,4-8.17,6.54-17.25,8.63-26.18,2-8.66,2.64-17.64,4-27.12h18.67a66.47,66.47,0,0,1,4.7,5.07c7,9.23,15.26,17.77,19,28.93a81.54,81.54,0,0,1,4.25,21.91C867,81.19,858.3,89.81,848.57,92c-7.16,1.58-14.55,2.19-21.71,3.78-9.57,2.12-18.69,5.56-25.08,13.5A48.33,48.33,0,0,0,794.55,121c-3.74,9.14-6.7,18.5-4.8,28.75.72,3.88-.12,8,.29,12,.34,3.14.87,6.56,2.43,9.21,4.08,6.94,8.55,13.7,13.3,20.21,4.52,6.21,9.51,12.11,14.48,18,3.21,3.8,7.73,6.82,9.92,11.08,3.51,6.83,8.26,13.32,8.17,21.74-.07,6.59-2.31,12.32-5,18.25-4.84-.75-8.93-2-11.69-6.51a132.8,132.8,0,0,0-9.91-13.7c-2.29-2.84-5-1.11-7.2.48-6.59,4.77-10.55,11.6-13.91,18.77-1.94,4.12-3.57,8.4-5.27,12.64-1,2.51-3.84,16.33-4.67,21.73-1.8,11.58-3.19,23.23-4.68,34.87-1.11,8.67-2.22,17.35-3.13,26.05-.7,6.63-.92,13.31-1.66,19.94q-1.81,16.33-4,32.64c-2.23,16.45-8.28,31.75-14.41,47-.84,2.1-2.48,3.87-3.82,5.89-5.11-2.6-5.82-7.77-6.25-11.9-.79-7.76-.23-15.7.2-23.54.16-2.86,1.49-5.69,2.44-8.48a30.54,30.54,0,0,0,1.59-14.35c-.44-3-2-4.66-5.33-5-9.59-.94-17.13,3.2-24.6,8.52-3.78,2.68-8.49,4.22-13,5.7a3.79,3.79,0,0,1-5-4.46c.81-3.51,2-7.25,4.05-10.09a102.13,102.13,0,0,1,11.48-12.54c1.75-1.71,4.31-2.56,6.35-4,4.52-3.16,9.79-5.76,13.15-9.88a29.22,29.22,0,0,0,5.78-14,101.69,101.69,0,0,1,9.55-30.82c4.05-8.48,6.41-17.79,9.36-26.78,3.91-12,8.22-23.9,11.27-36.12,1.6-6.38,1.45-13.38,1-20-.28-3.86-2.71-7.6-4.36-11.32a3.54,3.54,0,0,0-2.26-1.4c-12-2.8-23-1.94-32.83,7-7.2,6.58-15.3,12.23-23.26,17.94-4.4,3.17-9.85,2.85-15,2.42-1.1-.1-2.62-2.21-2.93-3.61a92.69,92.69,0,0,1-1.76-12.62c-.86-12.74,3.29-23.95,11.61-33.43,3.66-4.18,8.21-7.61,12.5-11.22,5.1-4.29,10.59-8.14,15.46-12.67s9.37-9.76,13.92-14.77a52.31,52.31,0,0,0,4.38-5.78c5.61-8.2,5.09-15-3-20.71-5.77-4.07-12.66-7.72-19.5-8.85-8.62-1.43-17.69-.17-26.55,0-3.75.09-7.49.61-11.24.7-5.58.13-9.35-4.4-7.78-9.66,2.82-9.45,8.3-17.28,15.23-24.69l-3.9,1.7-.48-.88c1.73-.69,3.48-2,5.19-1.93,3.71.1,5.07-.67,5.34-3.55a29.08,29.08,0,0,0,5-1.46C714,88.89,721.38,81.66,729,74.8,731,73,732.4,70.5,734,68.27ZM653.17,9,476.56,53.14A73.42,73.42,0,0,1,501.35,30.7c4.62-2.52,6.55-1.55,7.82,3.54a17.13,17.13,0,0,1-2.32,14.43c-3.76,5.5-7.12,11.42-11.7,16.15-3.14,3.24-7.83,5.49-12.24,6.85-5.52,1.71-9.68-3.4-10-10.76C474.12,58.31,474.94,55.43,476.56,53.14ZM224.64,13.5c1.46,1.09,3,2.15,4.3,3.37,2.08,1.89,36.89,22.78,43.94,24.55,6.76,1.7,13.62,2.95,20.41,4.44,1.66.37,3.38,1.57,4.88,1.3,3.91-.72,8-1.49,11.47-3.26,3.12-1.59,5.46-4.67,8.32-6.84,3-2.29,9.42-2.06,12.27.47.92.82,2.52,4.63,2.78,5.19.57,1.26,2.82,6.8,4,7.62a83.06,83.06,0,0,0,8.87,5.37,14.78,14.78,0,0,0,13.9.57c6.78-3.11,13.14-6.54,17-13.4,2.44-4.37,4.77-9,8.12-12.61a73.1,73.1,0,0,1,13.38-10.89c3.16-2.07,6.4-4,9.68-5.88h33.57c-3.13,1.37-6.13,3.05-9.21,4.54a68.5,68.5,0,0,1-6.63,3c-11,3.92-18.08,12.13-23,22.19-3,6.07-4.56,12.78-7.23,19-1.06,2.47-2.91,5.35-5.16,6.42C383.14,72,379.65,77.84,377,84.82a47.92,47.92,0,0,1-6.12,11,75.07,75.07,0,0,1-8.81,9.72c-3.64,3.5-8,3.2-12.27,1.25-5.53-2.51-11.21-4.77-16.43-7.8a20,20,0,0,1-6.76-7c-4.16-7-9.18-11.48-17.89-13-9.26-1.61-18.43-1.94-27.69-2.65-6.1-.47-12-3.12-18.09-4.12q-19.08-3.15-38.29-5.53c-6.21-.77-11.2-3.77-16.07-7.2a8.88,8.88,0,0,1-2-2.82c-5.93-9.89-10-20.55-13.21-31.6a19.56,19.56,0,0,0-4.38-7.6q-1.91-2-3.9-4ZM12.47,30.76a21.53,21.53,0,0,0,8,2.87,5.36,5.36,0,0,1,1.52.3c6,2.91,11.62.3,17.18-1.53,3.2-1.06,5.24-1,6.59,2.65a51.72,51.72,0,0,0,4.46,8.13C56,52.78,61.66,62.4,67.51,71.92A270.59,270.59,0,0,0,97,111.76c4.12,4.57,9.15,7.78,13.49,11.86,5.4,5.08,11.72,8.44,18.11,11.91,5.12,2.77,9.81,6.31,14.76,9.39,1,.65,8,6.38,11.9,6.7.79.07,6.42,4.73,9.05,5.93.9.41,8,4.72,10.49,4.52,8.76-.67,15.37,3.61,21.95,8.22,2.82,2,5.37,4.39,8.73,6.17a40.31,40.31,0,0,0-2.35-5.26c-3.14-5-5.81-10.53-9.85-14.72-5.66-5.87-12.34-10.77-18.65-16-4-3.28-8.42-6.07-12.06-9.68-6.18-6.12-11.94-12.67-17.76-19.14-4.08-4.55-7.84-9.38-12-13.88-5.77-6.29-9.47-13.76-13-21.39-3.34-7.32-6.81-14.58-10-22-3.59-8.31-7-16.71-10.34-25.11A16.7,16.7,0,0,1,99,25.49c6.18-.05,10.11,3.46,14.28,6.53A40.65,40.65,0,0,0,119,35.83c6.48,3.24,9.27,9.86,13.59,15,2.13,2.53,2.09,6.89,3,10.43.12.46,0,1.06.27,1.4,2.44,3.26,4.95,6.47,7.4,9.72s4.66,6.32,8.87,7.23c.4.08,1,.76,1,1-.82,3.51,2,3.74,4.06,4.36,3.68,1.1,7.43,2,11.21,2.76,5.74,1.11,11.4,2.12,15.43,7.08,1.43,1.76,3.64,2.87,5.33,4.44,2,1.9,3.89,4,5.88,6,1.37,1.36,2.22,4.52,5,1.14.34,4.43,2.09,6,6.67,5.83,4.29-.19,8.58-.69,12.83-1.25,3.17-.42,4.3,1.13,5,3.92,1.58,5.92,4,11.67,5.11,17.66,2,10.65,5.49,21.14,4.14,32.29-.43,3.53.05,7.19.27,10.79,1,16.09-2,31.85-3.83,47.72-1,8.05-1.13,16.2-1.66,24.31-.07,1-.19,2-.4,4-1.29-1.88-2.1-2.93-2.77-4.06-7.47-12.68-18-22.51-29.32-31.63-9.78-7.84-21.28-12.28-32.91-15.77-8.92-2.68-18.55-3.25-27.93-4a214.74,214.74,0,0,0-23.13-.26c-9.75.22-18.15-5.29-27.49-6.28-8.79-.93-11.07-6.58-13.54-13.74A278.82,278.82,0,0,0,57,142.41c-2.8-5.58-7.42-10.39-11.75-15-6.46-6.94-13.25-13.59-20.17-20.08a40.79,40.79,0,0,0-12.59-8.35Zm0,122.77c1.39,2.21,2.68,4.48,4.16,6.61,5.65,8.12,7.87,17.5,10.81,26.57,1.72,5.29,2.17,11.07,2.64,16.67.79,9.5,1.38,19,1.62,28.56.42,16.78-3,32.64-12.22,47a16,16,0,0,1-2,2.88c-1.68,1.63-3.36,3.26-5.05,4.87Zm88.36,705q-9.15,13.92-18.52,27.69c-1.89,2.77-4.15,5.28-6.2,7.94-3.93,5.11-7.81,10.27-11.79,15.35H36c8.33-5.65,14.44-13.52,20.41-21.35,4.85-6.34,8.56-13.54,12.89-20.28A13,13,0,0,1,73,864.09c3.34-2.14,5.07-7.16,3.23-10.71C73,847.23,69.49,841.25,66.53,835c-3.68-7.75-10.68-12-17-17-1.77-1.42-3.32-3.12-5.15-4.44s-4.24-2.3-6.08-3.79C37,808.72,36.24,807,35,806.17c-2.32-1.41-4.76-2.64-6.93-4.24a42.91,42.91,0,0,0-15.58-7.55V782.22c3.55,0,7.07.23,10,1.57,12.79,5.79,25.53,12,37.37,19.48,6.8,4.3,11.46,11.82,17.75,17.12,9.91,8.36,15.8,19.67,23.36,29.75C103.07,852.92,102.58,855.85,100.83,858.5ZM114,800.8c-20.37-.29-33.3-11.94-41.41-28.89a29.29,29.29,0,0,1,1-27.66c3-5.15,5.92-10.32,9.3-15.2a25.91,25.91,0,0,1,7-7.09c3.89-2.5,6.6-6.82,11.75-7.49s10-1.66,15-2.5c.86-.15,1.75-.2,3.52-.39-.77-5.91-1.08-11.71-2.37-17.27-2.47-10.66-5.18-21.29-8.43-31.73-1.65-5.26.19-8.64,3.8-11.69,2.46-2.08,5.18-3.84,7.85-5.8-.27,11.51,3.17,22.34,5.74,33.37,2.16,9.26,3,18.82,4.64,28.22,1,6.13.25,12.62,4.14,18.25.83,1.2.34,4.41-.74,5.56a7.27,7.27,0,0,1-5.77,1.78c-9.49-1.83-18.66-1.65-27.79,2C91.75,738,86.55,744.9,86.37,755.14c-.07,4,.23,8-.07,12-.39,5,1.49,8.64,5.22,11.81,6.82,5.78,13.68,11,23.48,10.14,4.51-.38,7.19,2.45,7.08,6C122,798.75,118.68,800.86,114,800.8Zm118,70c-3.86,4.35-8.11,7.81-14.47,7.9-3.82,0-5.8-.91-5-5.22l-1-.37c1.26-1.73,2.26-3.75,3.82-5.15,3.8-3.41,7.86-6.53,11.81-9.79a8.09,8.09,0,0,0,1.52-1.74c4.65-7.09,11.39-8.07,19-6.61,2.78.53,5.62.92,8.44,1.17a24.44,24.44,0,0,0,12.06-1.7c5.62-2.37,11.6-1.68,17.43.1,1.41.42,3.15.88,4.42.43a16,16,0,0,1,13.69,1.1c1,.55,2.3,2.05,2.14,2.89s-1.68,2.13-2.79,2.4c-1.43.35-3-.19-4.59-.21-4.37-.08-8.79-.55-13.09,0-10.53,1.22-21,2.8-31.51,0-6.11-1.61-10.1,3.06-14.28,6.17C236.66,864.4,234.57,867.92,232,870.82Zm17.51,38.66A108.68,108.68,0,0,0,264.6,894c4.58-5.57,10.9-6.55,17.73-5.56a32.94,32.94,0,0,1,20.53,11.11c3.14,3.48,7.49,5.87,11.3,8.72l1.54,1.19ZM910.65,806.74A137.76,137.76,0,0,1,894.06,800a125.4,125.4,0,0,1-23.53-15.3c-5.4-4.5-9.27-10.88-13.57-16.61-3.59-4.78-6.91-9.77-10.15-14.79a33.37,33.37,0,0,1-4-7.88c-3-9.53-6.41-19-8.23-28.79-1.43-7.67-1.34-15.78-.83-23.62.62-9.65,3.84-18.8,7.62-27.73,1.64-3.86,2.3-8.14,4.05-11.93,2.89-6.25,6.16-12.33,9.52-18.34,5-8.86,13.36-14.51,20.81-20.89,9.83-8.42,20.57-15.67,33.12-19.68.57-.18,1.16-.35,1.74-.49Zm0-357.83q-7.09,5.52-14.26,11c-11.17,8.57-22.67,16.76-33.42,25.83-6.08,5.12-11,11.6-16.33,17.62-6.37,7.24-12.78,14.47-18.75,22a101.63,101.63,0,0,0-9,14.25c-.92,1.67-.62,4-.87,6l1.16.37c3.25-2.86,6.38-5.87,9.78-8.55A83.48,83.48,0,0,1,857.54,523c4.85-1.44,9.25-4.3,14-6,7.53-2.62,15.09-5.42,22.87-7a122.31,122.31,0,0,1,16.2-1.68v20.21c-6.73,1-12.44,4.62-18.18,8.4-3,2-6.64,3-9.95,4.47-1.94.89-3.81,1.92-5.69,2.91-7.15,3.75-14.42,7.32-21.41,11.36-3.62,2.1-6.42,5.78-10.18,7.42-5.38,2.34-7.72,7.74-12.85,10.55-5.47,3-9.6,8.54-14,13.24a97.37,97.37,0,0,0-10.63,12.72c-5.27,8-10.24,16.25-14.79,24.7a152.55,152.55,0,0,0-9.15,20.29,162.22,162.22,0,0,0-5.28,19.66c-3.46,15.32-3.06,31-2.34,46.44.59,12.47,3.34,24.82,6.5,37.06,4,15.39,12.05,28.34,21.31,40.79,4.86,6.54,10,12.85,15.34,19.05,2.73,3.2,6,5.89,9,8.88,4.75,4.74,9.07,10,14.23,14.2s11.2,7.67,16.87,11.41c3.31,2.19,6.74,4.2,10,6.48,7.36,5.17,14.77,10.12,23.65,12.52,5.89,1.6,11.74,3.35,17.59,5.08v43.2H819.1a47.31,47.31,0,0,1-3.51-3.77c-6.27-7.41-13.56-13.22-23-15.88a18.82,18.82,0,0,0-6.11-.68c-8.86.49-17.64-1.11-26.64.39-8,1.33-16.58,1.22-24.54-1.62a31.39,31.39,0,0,1-9.38-5.25c-6.72-5.56-14.4-8.13-22.85-9.92-10.9-2.32-20.7,0-30.49,4.21a66.42,66.42,0,0,1-10.44,3.86,22.92,22.92,0,0,0-14,9.75c-4.77,6.87-11.39,10.94-19.14,13.65-1.93.67-4.17,2-5.1,3.67a8.56,8.56,0,0,1-1.13,1.59H538.2c-1.62-1-3.64-1.69-5.42-2.7-3.41-1.94-7-3.16-10-6.4a101.36,101.36,0,0,0-20.31-17c-3.29-2-9.93-2-13.31,0-9.84,5.86-16.83,14.54-19.62,26.1H439.77a32.11,32.11,0,0,0,3.76-2.88c3.94-3.23,8-6.38,11.6-9.94,2.76-2.71,5.62-5.69,7.24-9.12,2.68-5.66,7.47-9.16,11.93-12.88a154.85,154.85,0,0,1,18.09-12.84c7.67-4.71,16.19-3.52,24.46-1.88,5,1,9.59,2.72,13.26,7.09,3.13,3.71,8.29,5.68,11.59,9.29,6.69,7.29,15.55,10.85,24.29,13.76,8.15,2.72,17.08,3,25.61-.9,10.8-5,21.83-9.41,32.77-14,4.6-2,9.37-3.57,13.81-5.83a40.09,40.09,0,0,0,8.37-6q9.08-8.19,17.82-16.77c9.57-9.4,18.87-19.07,28.57-28.33,2.42-2.31,5.88-3.59,9-5.13,9.11-4.51,18-9.61,27.5-13.18,10.27-3.87,21.13-4.8,31.87-.87,2.39.87,4.84,1.6,7.41,2.45,1-3.22.26-5.46-2.36-6.93-4.66-2.62-9.37-5.17-14.06-7.75-.22-.12-.53-.19-.67-.37-5.24-6.75-13-7.41-20.53-8-9.67-.73-19.39-1-29.09-1.32-7.67-.23-14.4,3.23-21.33,5.89-8.64,3.31-17.33,6.45-26,9.8a56.27,56.27,0,0,0-7.79,3.86c-12.37,7.13-24.72,14.28-37,21.57-2.18,1.3-3.91,3.35-5.94,4.94-6.8,5.31-14.84,8.08-22.84,10.88a39.42,39.42,0,0,1-8.19,2.32c-3.24.38-6.57,0-9.87,0-9,.12-15-5.78-21.06-10.92-5.75-4.9-12-8.12-19.28-9-11-1.34-22-2.61-33-2.9-6.17-.16-12.46,1.43-18.56,2.78a78.8,78.8,0,0,0-15.71,4.9c-4.81,2.21-8.83,6.08-13.61,8.37-4.35,2.08-9.24,3.09-13.92,4.45-6.4,1.86-12.49,4-15.54,10.78-.44,1-2.81.92-4.1,1.68-9.24,5.4-18.12,2.93-26.73-1.37-6.76-3.37-14-6.39-19.64-11.17-5.05-4.27-10.29-6-16.37-6.78-4-.51-8-.85-11.93-1.68-12.65-2.68-25.4-2.84-38.25-2.18-13,.66-26.07.92-39.11,1.49a34.29,34.29,0,0,0-6.74,1.27c-6.85,1.69-13.59,4.1-20.54,5-9.06,1.23-17.08,5.08-24.4,9.72-5.45,3.45-9.52,9.24-13.76,14.36-7.05,8.54-13.94,17.21-20.51,26.12-4.18,5.68-7.62,11.9-11.41,17.87a8.51,8.51,0,0,1-1.59,2.11,29.2,29.2,0,0,0-6.69,8.2H124.4c.76-2.87,1.53-5.75,2.42-8.59,1.18-3.77,2.51-7.5,4-11.15,1.87-4.62,3.88-9.18,6-13.69s4.41-9,6.59-13.47c5.52-11.4,14.57-20,23.44-28.58,4.33-4.21,9.54-7.5,14.32-11.25,3.73-2.92,7.19-6.24,11.16-8.79,6.46-4.14,13-8.36,20-11.46,4.74-2.1,10.27-2.41,15.48-3.42a36.32,36.32,0,0,1,22.9,3.31c6.58,3.22,13.35,2,19.91,3.57a20.6,20.6,0,0,0,7.55,0,8.06,8.06,0,0,0,6.73-5.08c1.68-4.1,4.47-6.5,9.3-6.94a40.93,40.93,0,0,1,24.29,5.42c4.38,2.44,8.49,5.35,12.81,7.89,4.93,2.91,10.13.75,15.23.57,9.34-.33,17.31-4.12,24.63-9.59,3.57-2.66,7.36-1.46,10,.73,5.72,4.8,10.81,10.35,16.17,15.59.55.53,1.09,1.39,1.72,1.48,13.42,1.84,26.66,2.61,38.08-6.83,7.27-6,14.39-12.22,22-17.77,2.87-2.1,6.83-2.89,10.43-3.74,6.37-1.5,12.81-3.27,19.29-3.62,4.82-.27,9.82,1.21,14.58,2.49,5.44,1.45,10.58,4.31,16.05,5.13,5.14.77,10.58-.14,15.85-.65,5-.49,10-1.29,14.93-2.24a11.51,11.51,0,0,0,4.33-2.31c7.14-5.3,14-10.67,16.93-19.79A117.14,117.14,0,0,1,578.85,749a67.79,67.79,0,0,1,7.84-11.38c4.33-5.37,8.47-11.05,13.61-15.57,5.55-4.87,12.28-8.37,18.21-12.85,2.61-2,5.49-4.34,4.91-8.72-11.06-.57-21.84-.47-32.23,3.53-8.29,3.2-16.41,6.53-22.74,13.23-6.13,6.49-12.09,13.35-19.16,18.66-6.72,5-14.71,8.44-22.31,12.22-2.65,1.32-5.17,1-8.38-.89-8.12-4.72-16.59-9.42-26.7-8.22a15.37,15.37,0,0,1-3.19-.24c2.14-4.42,6.43-6.6,9.39-10.32,4.69-5.91,6-13,9.79-19,2-3.09,4.74-5.67,6.55-8.82,6.19-10.76,10.18-22.07,9.76-34.85-.39-11.68.62-23.41.26-35.1-.4-13.12-2.79-25.86-8.49-38-3-6.42-4.26-13.65-7-20.25-3-7.35-6.93-14.32-10.17-21.58-2.47-5.53-4.55-11.24-6.7-16.92-1.09-2.88-2-5.83-2.86-8.81s-1.26-6-2.07-9c-.6-2.17-2-4.21-2.2-6.39-.73-7.23-.26-14.69-1.8-21.72-1.9-8.67-1-17.28-1.46-25.91-.19-3.3-3.94-5.47-6.47-3.15-6.41,5.89-15.43,5.7-22.25,10.44-3,2.1-6.41,3.65-10.37,5.86-.81-5.94-1.68-11.39-2.17-16.88-.08-.93,1.22-2.56,2.23-2.92,6.28-2.22,12.84-3.75,18.93-6.37,4.28-1.85,7.91-5.16,11.92-7.67,9.05-5.67,13.93-14.11,16.85-24.12a16.89,16.89,0,0,1,7.5-9.9,8.36,8.36,0,0,0,1.87-1.26c6.1-6.57,12.11-13.21,18.25-19.74,1.31-1.39,3.25-2.2,4.5-3.63,7-8,13.45-16.22,16.24-26.83,1-3.85,3.55-7.29,4.85-11.09,3.17-9.22,6.25-18.48,8.92-27.85a265.72,265.72,0,0,0,6.88-27.9c1.46-8.47,1.84-17.17,2.13-25.79.25-7.44-.12-14.91-.52-22.35-.5-9.25-.71-18.58-2.14-27.7-1.14-7.3-3.87-14.35-6-21.49-3-10.08-6.07-20.13-9-30.21-1.55-5.28-2.77-10.65-4.43-15.89a70.05,70.05,0,0,0-3.6-8.1,95.49,95.49,0,0,0-6.59-12.43,20.23,20.23,0,0,0-.7,4.66c2.25,28.11,2.59,56-5.92,83.42-2.24,7.17-2.12,15-3.34,22.54-1,6.47-1.6,13.23-3.93,19.25-3.66,9.41-8.47,18.39-13.11,27.4a162.87,162.87,0,0,1-10.28,17.7c-4.5,6.57-9.94,12.35-17.3,16a51.28,51.28,0,0,0-8.88,5.29c-7.07,5.53-14.86,8.74-23.33,8.23,7.42-7.63,16.23-25.06,8.39-42.86-9-20.42-22.44-23.13-30.29-26.36-7.16-2.94-24.56-2.12-31.94,1.62-11.51,5.84-18.17,12.19-25.9,22.49-6.46,8.63-5.15,18.46-5.46,29.45-.12,4.3,2.28,8.7,3.66,13,.58,1.82,6.47,14.14,8.8,18.45,1.48,2.74,1,3.93-2,5-8.46,3.11-16.91,6.31-25.08,10.1-3.59,1.66-6.44,4.9-9.72,7.28-6.57,4.77-12.89,10-19.95,14-5.8,3.26-9.39,8.39-13.37,13.05-12.86,15-25.15,30.57-37.64,45.94-.88,1.09-1.55,2.36-2.36,3.52-1.24,1.78-1.76,3.91-4.38,4.82-1.58.54-4,2.6-1.91,4.62-2,2.1-3.79,4.07-5.64,6-3.35,3.47-9.13,2.9-13,.08-3.12-2.29-7.19-3.55-11-4.5a138.71,138.71,0,0,0-16.95-3c-2.5-.3-5.11.52-7.68.66-7,.38-13.83,1.49-20,5.25-8.41,5.16-17.33,9.65-25.07,15.66-5.67,4.41-9.81,10.79-14.6,16.31-11.5,13.23-15.6,30-21.7,45.81-2.51,6.47-2.87,13.77-4.13,20.71-.91,5-2.15,10-2.46,15.11-.39,6.26-1,12.8.39,18.79,1.83,7.9-.42,13.77-5.12,19.71-6.7,8.47-12.89,17.32-19.41,25.93-6.87,9.09-14,18-20.74,27.18-2.49,3.37-4.31,7.23-6.51,10.83-4.48,7.34-9.06,14.62-13.51,22-2.79,4.63-5.26,9.47-8.17,14-3,4.74-6.45,9.23-9.65,13.87-.65.94-1,2.14-1.66,3-1.12,1.44-2.44,2.72-4.23,4.68,1.24,2.15-.93,3.85-3,6.17a108.39,108.39,0,0,0-7,9.6V349.62c.86-.9,1.7-1.82,2.54-2.7,9.95-10.28,20-20.53,29.31-31.37,6.33-7.36,11.5-15.73,17.27-23.58,1.83-2.49,3.87-4.85,5.92-7.17,6.07-6.82,7.56-15.29,9.32-23.84,1.09-5.28,2.11-10.19,8.83-13.24,5.57-2.53,11.57-4.09,17-7,2-1.07,5.19-.93,7.52-.25,5.28,1.54,10.36,3.77,15.55,5.68.77.29,2,.8,2.4.47,2.85-2.22,29.49,12.72,40,19.45,9.43,6,18.29,13,27.17,19.84s26.29,22.27,26.43,22.88c1-.26,21,17.47,27.25,21.87,6.89,4.83,9.55,12.25,12.37,19.39,2.95,7.5,4.72,15.44,7.13,23.56,2.49-1.4,3.35-3.86,3-6.94-1-9.77-2.28-19.52-3.12-29.3a153.56,153.56,0,0,1-.76-19.68c.45-10.55,1.82-21,2.29-31.6.48-10.77,2.78-21.13,5.58-31.46.78-2.9.48-6.09,1.25-9,3.44-13.06,7.19-26,10.6-39.11.86-3.32.8-6.87,1.24-10.3.53-4.06,1.63-8.1,1.61-12.15,0-6.79-1-13.57-1.17-20.37-.18-6-1-11.76-4.25-17-1.12-1.81-1.7-3.95-2.93-6.9,3.08,0,47.9,11.9,53.51,13.08,6.46,1.35,13.07,3.1,19.88,1.58,13.88-3.11,27.92-5.65,41.62-9.4,5-1.36,9.07-5.68,13.74-8.37,7.08-4.11,14.27-8.06,21.48-11.93,9.49-5.09,19.79-2.22,29.74-2.71,1.93-.09,4,1,5.86,1.77,11.73,4.67,22.62,3.69,31.6-5.66,6.91-7.2,13.87-14.8,16.54-24.65,2.32-8.52,7.69-13.65,14.63-18.21,3.24-2.13,5.64-5.55,8.41-8.39,3-3,13.87-14,14.79-15,6.24-6.91,22.74-24.47,24.77-26.34,1.88-1.72,11.53-8.69,14.15-12.05H707.12c1.83.4,2.11,1.5,1.43,4.34-.77,3.21-2.13,6.27-3.2,9.41A8.74,8.74,0,0,0,705,29.1c-.3,2.5.09,5.36-1,7.44-2.66,5.05-6,9.76-9.09,14.58-1.61,2.48-3.54,4.79-4.86,7.41-1.22,2.41-6,7.13-6.76,9.12-.5-.13-10.12,8-14.83,12.35-5.86,5.44-11.8,10.81-18,15.91-2.73,2.26-6.34,3.46-9.12,5.67-9.2,7.27-18.44,14.51-27.16,22.32a27.67,27.67,0,0,0-9.24,19c-.07,1.06-.72,6.15-.45,7.35,1.86,8.06,4.16,16.18,10.11,22.18,7.05,7.11,16.52,9.94,25.81,13.15a23.32,23.32,0,0,1,10.43,8c5.18,7.08,8,15.28,4.55,24-1,2.67-8,7.66-8.53,8.39-6.14,8.71-12.16,17.5-18.27,26.22-3.14,4.48-6.58,8.75-9.55,13.34-1.47,2.28-2,5.13-3.25,7.58-2.87,5.62-6.24,11-8.73,16.79-1.65,3.8-2.16,8.09-3.1,12.18-.59,2.58,1.84,25.94,4.51,31.08a22.78,22.78,0,0,0,5.6,6.87,32.86,32.86,0,0,0,8.42,4.8c9.46,3.81,16.11-2,22.21-7.57,6.82-6.22,12.83-13.33,19.25-20,3.28-3.41,6.31-7.27,10.16-9.86,2.6-1.75,6.43-1.75,9.74-2.3,2.16-.35,4.4-.17,6.58-.44,5.39-.69,7.83.68,10.7,5.27,6.81,10.93,7.12,21.69,1.16,33.28-3.61,7-6.06,14.53-12.17,20-5.84,5.2-11.84,9.56-20.09,10.84-6,.93-11.85,3.39-18.16,3.17a6.13,6.13,0,0,0-3,.73c-12.23,6.57-25.74,10.34-37.44,18.3-8.67,5.9-17.5,11.46-24.45,19.29-6.5,7.3-13.18,14.73-18.07,23.1-4.39,7.53-7.54,16.11-7.28,25.32,0,.76-2.65,15.37,5.76,21.08,9.42,6.41,19.76,11.3,31.47,11.25,5.15,0,10.27-2.13,15.47-2.64,6-.58,10.57-4.29,15.81-6.53,7.94-3.4,13.28-10.09,19.91-15.13,5.17-4,9.21-9.35,14.05-13.77a52.71,52.71,0,0,1,22.09-12.15c7.22-1.92,14.14-.76,20.25,4.56,5.84,5.09,8.58,11.09,6.9,18.51-2,9-4.45,17.92-11.34,25-10.51,10.78-58.79,49.28-65.57,58.21-3.73,4.92-6.2,11-8.3,16.9a177.92,177.92,0,0,0-6.14,22.35c-1.07,4.93.52,22,2.44,24.06a153.67,153.67,0,0,0,13.33,12c2.78,2.36,5.8,4.45,8.7,6.68,5.18,4,11.24,5.41,17.59,5.95a60.64,60.64,0,0,0,7.37.38c1.27-.06,2.51-.88,4.18-1.52,1.3,1.48,7.16,1.46,11-.42,5.32-2.62,10.81-4.91,16.17-7.47,6.64-3.16,12.57-7.19,17.08-13.2,1.54-2.06,4.13-3.29,5.93-5.19,4.15-4.33,8.2-8.75,12.1-13.3,6.62-7.73,13.1-15.58,19.63-23.38,9.43-11.26,19.63-22,28.06-33.93,7.62-10.83,13.41-23,19.79-34.64,9.1-16.65,10.88-34.89,10.71-53.38-.28-29.9-1.18-59.8-1.33-89.7,0-8.75,1.44-17.52,2.45-26.26a7.58,7.58,0,0,1,7.38-6.62c5.33-.13,10.75-1.52,15.94,1.48a17.79,17.79,0,0,1,8.3,10.23c1.56,4.6,4.35,8.84,5.51,13.51A130.92,130.92,0,0,1,857.32,376a70.74,70.74,0,0,0,6.8,24.42c2.33,4.82,12.94,12.16,20,11.42a9,9,0,0,0,2.85-1c7.34-3.54,12.76-9.46,18.4-15,1.53-1.52,2-4.1,3-6.21.69-1.57,1.31-3.18,2-4.77l.41,0ZM258.31,688.28c-1-6.87-3.25-13.55-4.66-20.37-1-5-1.33-10.18-2.47-15.16-.87-3.86-2.57-7.54-3.84-11.32a33.77,33.77,0,0,1-2-9.45c1.91,2.2,4.28,4.17,5.57,6.69.74,1.44.89,2.3,2.66,2,.44-.06,1.17.52,1.47,1,3.14,4.86,6.19,9.78,9.35,14.63,1.51,2.33,3.38,4.43,4.79,6.82,1.32,2.24,2.24,4.72,3.67,7.83,4.14.35,4.61,5.19,6.8,8.17,4.92,6.67,9.28,13.74,13.87,20.65,2.32,3.49,4.59,7,6.94,10.48a16.12,16.12,0,0,0,2.59,3.32c2.7,2.33,5.71,4.33,8.31,6.76,6.56,6.12,14.22,11.57,19.05,18.86,4.44,6.69,11.69,8.47,16.72,13.58,1.49,1.52,3.11,2.91,4.85,4.54a9.92,9.92,0,0,1-1.89,1.56c-7.89,4-15.64,8.3-23.81,11.58-3.23,1.29-7.45.51-11.17.14-13.38-1.35-24.23-8.59-35.37-15.27-4.36-2.61-9.23-4.36-13.88-6.46-6.85-3.09-14.19-2.87-22-2.9,2.77-5.45,5.12-10.65,8-15.53A51.06,51.06,0,0,0,259,705.65,97.1,97.1,0,0,0,258.31,688.28Zm82.08-168.67c10.76,10,21,20.6,31.42,31,7.23,7.24,14.35,14.6,21.47,21.94,2.28,2.35,3.34,5.43,1.22,8a7.38,7.38,0,0,1-6,2c-2-.39-3.93-2.36-5.54-4-14.8-15-29.27-30.35-44.37-45.05-8.13-7.91-17.36-14.69-26-22.12-4-3.45-7.71-7.25-11.6-10.84-1.11-1-2.37-1.91-4.51-3.62,6-3.88,11.55-7.71,17.34-11.18,5.4-3.24,10.91-6.31,16.57-9.07,6.32-3.09,10.9-.28,10.18,6.7a61.86,61.86,0,0,1-4.29,17.13C331.59,511.83,331.57,511.4,340.39,519.61Zm35.2-88.84c2.8-2.59,7.56-1.43,9.23,2.49a50.53,50.53,0,0,1,1.87,6.73c-.6,3.93-.84,7.58-1.77,11a5.78,5.78,0,0,1-5.86,4.17c-2.38,0-4.69,0-6.28-3C369.93,446.79,371.11,434.92,375.59,430.77Zm65-15.69c.24-7.63,4.3-12.5,10.33-12.4s9.46,3.9,9.31,10c-.18,7.07-4.87,11.66-11.75,11.51C443.62,424,440.38,420.31,440.55,415.08Zm470.1-249.2c-.49,14.85-1,29.64-1.46,44.74-3.61-4.06-6.51-7.53-9.63-10.79-2.68-2.79-5.31-5.8-8.49-7.91-7.67-5.08-16-9.26-23.42-14.64-5.65-4.08-10.42-9.4-15.47-14.27-.75-.72-1-2-1.39-3.07a18.42,18.42,0,0,0-2.66-5.48c.66-5,1-10,2.06-15a100.72,100.72,0,0,1,3.76-12.12,3.62,3.62,0,0,1,1.84-1.85c6.63-2.88,13-6,20.15-.45,5.84,4.57,12.38,8.24,18.57,12.36a7.55,7.55,0,0,1,2.25,2.09c3.13,5.06,6.55,9.67,13.9,10.17l.53,0Q910.92,157.83,910.65,165.88Z"/><path class="cls-3" d="M349.87,677.86a85.23,85.23,0,0,1-13.65-26.21c-1-3.06-5.79-1.75-4.82,1.33a89.07,89.07,0,0,0,14.16,27.41c1.93,2.53,6.27,0,4.32-2.52Z"/><path class="cls-3" d="M310.57,658a34.53,34.53,0,0,0-20.36-27.79c-2.92-1.28-5.47,3-2.52,4.32A29.63,29.63,0,0,1,305.57,658c.39,3.15,5.39,3.19,5,0Z"/><path class="cls-3" d="M374,618.88,372,604c-.41-3.15-5.41-3.19-5,0l1.92,14.9c.41,3.15,5.41,3.19,5,0Z"/><path class="cls-3" d="M311.82,531.93a20.11,20.11,0,0,0-10.07-21.78c-2.83-1.52-5.36,2.79-2.52,4.32A15,15,0,0,1,307,530.61c-.63,3.14,4.19,4.49,4.82,1.33Z"/><path class="cls-3" d="M261.16,510.18H238.8c-3.22,0-3.22,5,0,5h22.37c3.22,0,3.22-5,0-5Z"/><path class="cls-3" d="M281,579.57a93.76,93.76,0,0,0-26.62-7.87c-3.15-.43-4.51,4.38-1.33,4.82a89.51,89.51,0,0,1,25.43,7.36c2.9,1.34,5.45-3,2.52-4.32Z"/><path class="cls-3" d="M232.85,524.87a90.39,90.39,0,0,1-32.37-10.81c-2.81-1.57-5.34,2.75-2.52,4.32a96.91,96.91,0,0,0,34.89,11.49c3.18.42,3.15-4.59,0-5Z"/><path class="cls-3" d="M204.49,487.44l-20.45,4c-3.15.62-1.82,5.44,1.33,4.82l20.45-4c3.15-.62,1.82-5.44-1.33-4.82Z"/><path class="cls-3" d="M163.6,525.73v31.69c0,3.22,5,3.22,5,0V525.73c0-3.22-5-3.22-5,0Z"/><path class="cls-3" d="M133.89,579.79a94.84,94.84,0,0,1-8.83,36.14c-1.35,2.9,3,5.44,4.32,2.52a101.27,101.27,0,0,0,9.51-38.66c.14-3.22-4.86-3.21-5,0Z"/><path class="cls-3" d="M156.15,600.29v9.32c0,3.22,5,3.22,5,0v-9.32c0-3.22-5-3.22-5,0Z"/><path class="cls-3" d="M189.7,559.28v18.64c0,3.22,5,3.22,5,0V559.28c0-3.22-5-3.22-5,0Z"/><path class="cls-3" d="M201.33,620.23a27.1,27.1,0,0,0,10,29c2.56,1.95,5.05-2.39,2.52-4.32a21.92,21.92,0,0,1-7.71-23.31c.85-3.11-4-4.43-4.82-1.33Z"/><path class="cls-3" d="M174.79,635.7v41c0,3.22,5,3.22,5,0v-41c0-3.22-5-3.22-5,0Z"/><path class="cls-3" d="M148.71,667.9c1.76,2.27-.35,6.46-3.1,6.66-3.19.23-3.22,5.23,0,5,7.38-.54,11.1-9.45,6.63-15.2-2-2.54-5.49,1-3.54,3.54Z"/><path class="cls-3" d="M198.3,716.32l3.72,1.87a2.5,2.5,0,1,0,2.52-4.32L200.83,712a2.5,2.5,0,0,0-2.52,4.32Z"/><path class="cls-3" d="M210.69,678a23.73,23.73,0,0,0,3.19,20.72c1.83,2.62,6.16.12,4.32-2.52a18.9,18.9,0,0,1-2.68-16.87c1-3.08-3.87-4.4-4.82-1.33Z"/><path class="cls-3" d="M159.7,715.87a62.43,62.43,0,0,1-1,21.81c-.71,3.13,4.1,4.47,4.82,1.33a66.31,66.31,0,0,0,1.22-23.14c-.39-3.15-5.4-3.19-5,0Z"/><path class="cls-3" d="M197.16,741.94v3.73a2.5,2.5,0,0,0,5,0v-3.73a2.5,2.5,0,0,0-5,0Z"/><path class="cls-3" d="M314,468.58l19.61-18.78L329.3,448a39.41,39.41,0,0,0,2.16,17.42c.65,1.83,3.57,2.7,4.57.6,2.71-5.72,10.7-4.91,11,1.86.16,3.2,5.16,3.22,5,0-.56-11.28-15.35-15-20.36-4.38l4.57.6a36.23,36.23,0,0,1-2-16.09c.22-2.26-2.82-3.15-4.27-1.77L310.42,465c-2.33,2.23,1.21,5.76,3.54,3.54Z"/><path class="cls-3" d="M499.75,694.71h-20.5c-3.22,0-3.22,5,0,5h20.5c3.22,0,3.22-5,0-5Z"/><path class="cls-3" d="M460.12,724.89c-6.61,1.38-12.64-3.18-15.53-8.87-3.23-6.37-3.17-13.92-3.25-20.89,0-3.22-5-3.22-5,0,.09,9.23.34,19.39,6.25,27,4.54,5.85,11.5,9.1,18.85,7.57,3.15-.66,1.82-5.48-1.33-4.82Z"/><path class="cls-3" d="M452.29,674.92a39.72,39.72,0,0,0-27.75-6.16c-3.17.43-1.82,5.25,1.33,4.82a34.44,34.44,0,0,1,23.9,5.65c2.69,1.78,5.2-2.55,2.52-4.32Z"/><path class="cls-3" d="M390.41,687.89v-28c0-3.22-5-3.22-5,0v28c0,3.22,5,3.22,5,0Z"/><path class="cls-3" d="M371.74,712l-39.15-5.52c-3.15-.44-4.51,4.37-1.33,4.82l39.15,5.52c3.15.44,4.51-4.37,1.33-4.82Z"/><path class="cls-3" d="M401.42,728.37a25,25,0,0,0,1.86-15c-.57-3.16-5.39-1.82-4.82,1.33a19,19,0,0,1-1.36,11.18c-1.31,2.91,3,5.46,4.32,2.52Z"/><path class="cls-3" d="M449,649.63a10.67,10.67,0,0,0-2.34-9.92c-2.11-2.44-5.63,1.11-3.54,3.54a5.44,5.44,0,0,1,1.06,5.05c-.84,3.11,4,4.44,4.82,1.33Z"/><path class="cls-3" d="M501.73,640.12l-1.87-3.72a2.52,2.52,0,0,0-3.42-.9,2.56,2.56,0,0,0-.9,3.42l1.87,3.72a2.52,2.52,0,0,0,3.42.9,2.56,2.56,0,0,0,.9-3.42Z"/><path class="cls-4" d="M493.25,594.77c.66-8.3.11-16.78-3.66-24.35-3.88-7.78-10.75-13.57-15.1-21.07a58.55,58.55,0,0,1-3.46-50.7c1.19-3-3.65-4.29-4.82-1.33a63.28,63.28,0,0,0,.52,47.57c3.27,7.77,8.27,13.89,13.46,20.41,7,8.84,8.94,18.39,8.06,29.47-.25,3.21,4.75,3.19,5,0Z"/><path class="cls-4" d="M443.31,510.22a113.3,113.3,0,0,0-5.94,38.32c.1,10.4,1.1,24-8.12,31.15-2.51,1.94,0,6.28,2.52,4.32,8.93-6.88,10.47-17.69,10.62-28.34.21-15.26.71-29.49,5.74-44.11,1-3-3.78-4.36-4.82-1.33Z"/><text class="cls-5" transform="translate(227.33 331.16)">Body <tspan class="cls-6" x="305.06" y="0">Armour</tspan><tspan class="cls-6"><tspan x="30.89" y="146.4">Dancing </tspan><tspan class="cls-7" x="266.81" y="146.4">Suit</tspan></tspan><tspan x="-16.84" y="292.8">Living </tspan><tspan class="cls-6" x="352.5" y="292.8">Quilt </tspan><tspan x="501.59" y="292.8"> </tspan></text><path class="cls-4" d="M25.35,867.13a79,79,0,0,1-6.83,36.34c-1.31,2.91,3,5.46,4.32,2.52a84.38,84.38,0,0,0,7.51-38.87c-.15-3.2-5.15-3.22-5,0Z"/><path class="cls-4" d="M39.81,870v36.13c0,3.22,5,3.22,5,0V870c0-3.22-5-3.22-5,0Z"/><path class="cls-4" d="M64.38,868.57v39c0,3.22,5,3.22,5,0v-39c0-3.22-5-3.22-5,0Z"/><path class="cls-4" d="M88.95,872.91v28.91c0,3.22,5,3.22,5,0V872.91c0-3.22-5-3.22-5,0Z"/><path class="cls-4" d="M106.29,872.91v28.91c0,3.22,5,3.22,5,0V872.91c0-3.22-5-3.22-5,0Z"/><path class="cls-4" d="M128,868.57v43.36c0,3.22,5,3.22,5,0V868.57c0-3.22-5-3.22-5,0Z"/><path class="cls-4" d="M152.54,870V904.7c0,3.22,5,3.22,5,0V870c0-3.22-5-3.22-5,0Z"/><path class="cls-4" d="M182,874.62A92.61,92.61,0,0,0,174,904.69c-.29,3.2,4.71,3.18,5,0a85.15,85.15,0,0,1,7.25-27.55c1.32-2.91-3-5.45-4.32-2.52Z"/><path class="cls-4" d="M195.59,872.93a238.62,238.62,0,0,0,5,30.92c.72,3.13,5.55,1.81,4.82-1.33a228.25,228.25,0,0,1-4.83-29.59c-.3-3.17-5.31-3.21-5,0Z"/><path class="cls-4" d="M210.3,875.8a79.91,79.91,0,0,0,4.52,28.11c1.06,3,5.89,1.72,4.82-1.33a75.8,75.8,0,0,1-4.34-26.78c.06-3.22-4.94-3.22-5,0Z"/><path class="cls-4" d="M226.25,883v26c0,3.22,5,3.22,5,0V883c0-3.22-5-3.22-5,0Z"/><path class="cls-4" d="M255.15,878.69v24.57c0,3.22,5,3.22,5,0V878.69c0-3.22-5-3.22-5,0Z"/><path class="cls-4" d="M236.31,874.35l1.75,24.55c.23,3.19,5.23,3.22,5,0l-1.75-24.55c-.23-3.19-5.23-3.22-5,0Z"/><path class="cls-4" d="M272.15,872.91l.38,23.12c.05,3.21,5.05,3.22,5,0l-.38-23.12c-.05-3.21-5.05-3.22-5,0Z"/><path class="cls-4" d="M284.06,872.91v24.57c0,3.22,5,3.22,5,0V872.91c0-3.22-5-3.22-5,0Z"/><path class="cls-4" d="M301.16,876.55a103.62,103.62,0,0,1,3.1,32.48c-.2,3.21,4.8,3.2,5,0A108.07,108.07,0,0,0,306,875.22c-.8-3.11-5.63-1.79-4.82,1.33Z"/><path class="cls-4" d="M290.5,907.59V893.14c0-3.22-5-3.22-5,0v14.45c0,3.22,5,3.22,5,0Z"/><path class="cls-4" d="M329.45,867.85a79,79,0,0,1-6.83,36.34c-1.31,2.91,3,5.46,4.32,2.52a84.38,84.38,0,0,0,7.51-38.87c-.15-3.2-5.15-3.22-5,0Z"/><path class="cls-4" d="M343.9,870.74v36.13c0,3.22,5,3.22,5,0V870.74c0-3.22-5-3.22-5,0Z"/><path class="cls-4" d="M368.47,869.29v39c0,3.22,5,3.22,5,0v-39c0-3.22-5-3.22-5,0Z"/><path class="cls-4" d="M393,873.63v28.91c0,3.22,5,3.22,5,0V873.63c0-3.22-5-3.22-5,0Z"/><path class="cls-4" d="M410.38,873.63v28.91c0,3.22,5,3.22,5,0V873.63c0-3.22-5-3.22-5,0Z"/><path class="cls-4" d="M432.06,869.29v43.36c0,3.22,5,3.22,5,0V869.29c0-3.22-5-3.22-5,0Z"/><path class="cls-4" d="M456.63,870.74v34.69c0,3.22,5,3.22,5,0V870.74c0-3.22-5-3.22-5,0Z"/><path class="cls-4" d="M486.05,875.34a92.61,92.61,0,0,0-7.93,30.07c-.29,3.2,4.71,3.18,5,0a85.15,85.15,0,0,1,7.25-27.55c1.32-2.91-3-5.45-4.32-2.52Z"/><path class="cls-4" d="M499.69,873.66a238.62,238.62,0,0,0,5,30.92c.72,3.13,5.55,1.81,4.82-1.33a228.25,228.25,0,0,1-4.83-29.59c-.3-3.17-5.31-3.21-5,0Z"/><path class="cls-4" d="M514.39,876.52a79.91,79.91,0,0,0,4.52,28.11c1.06,3,5.89,1.72,4.82-1.33a75.8,75.8,0,0,1-4.34-26.78c.06-3.22-4.94-3.22-5,0Z"/><path class="cls-4" d="M530.34,883.75v26c0,3.22,5,3.22,5,0v-26c0-3.22-5-3.22-5,0Z"/><path class="cls-4" d="M559.24,879.41V904c0,3.22,5,3.22,5,0V879.41c0-3.22-5-3.22-5,0Z"/><path class="cls-4" d="M540.41,875.08l1.75,24.55c.23,3.19,5.23,3.22,5,0l-1.75-24.55c-.23-3.19-5.23-3.22-5,0Z"/><path class="cls-4" d="M576.25,873.63l.38,23.12c.05,3.21,5.05,3.22,5,0l-.38-23.12c-.05-3.21-5.05-3.22-5,0Z"/><path class="cls-4" d="M588.15,873.63V898.2c0,3.22,5,3.22,5,0V873.63c0-3.22-5-3.22-5,0Z"/><path class="cls-4" d="M605.25,877.27a103.62,103.62,0,0,1,3.1,32.48c-.2,3.21,4.8,3.2,5,0a108.07,108.07,0,0,0-3.28-33.81c-.8-3.11-5.63-1.79-4.82,1.33Z"/><path class="cls-4" d="M594.6,908.32V893.86c0-3.22-5-3.22-5,0v14.45c0,3.22,5,3.22,5,0Z"/><path class="cls-4" d="M629.43,871.46a79,79,0,0,1-6.83,36.34c-1.31,2.91,3,5.46,4.32,2.52a84.38,84.38,0,0,0,7.51-38.87c-.15-3.2-5.15-3.22-5,0Z"/><path class="cls-4" d="M643.89,874.35v36.13c0,3.22,5,3.22,5,0V874.35c0-3.22-5-3.22-5,0Z"/><path class="cls-4" d="M668.46,872.91v39c0,3.22,5,3.22,5,0v-39c0-3.22-5-3.22-5,0Z"/><path class="cls-4" d="M693,877.24v28.91c0,3.22,5,3.22,5,0V877.24c0-3.22-5-3.22-5,0Z"/><path class="cls-4" d="M710.37,877.24v28.91c0,3.22,5,3.22,5,0V877.24c0-3.22-5-3.22-5,0Z"/><path class="cls-4" d="M732,872.91v43.36c0,3.22,5,3.22,5,0V872.91c0-3.22-5-3.22-5,0Z"/><path class="cls-4" d="M756.62,874.35V909c0,3.22,5,3.22,5,0V874.35c0-3.22-5-3.22-5,0Z"/><path class="cls-4" d="M786,879A92.61,92.61,0,0,0,778.11,909c-.29,3.2,4.71,3.18,5,0a85.15,85.15,0,0,1,7.25-27.55c1.32-2.91-3-5.45-4.32-2.52Z"/><path class="cls-4" d="M799.67,877.27a238.62,238.62,0,0,0,5,30.92c.72,3.13,5.55,1.81,4.82-1.33a228.25,228.25,0,0,1-4.83-29.59c-.3-3.17-5.31-3.21-5,0Z"/><path class="cls-4" d="M814.38,880.13a79.91,79.91,0,0,0,4.52,28.11c1.06,3,5.89,1.72,4.82-1.33a75.8,75.8,0,0,1-4.34-26.78c.06-3.22-4.94-3.22-5,0Z"/><path class="cls-4" d="M830.33,887.36v26c0,3.22,5,3.22,5,0v-26c0-3.22-5-3.22-5,0Z"/><path class="cls-4" d="M859.23,883v24.57c0,3.22,5,3.22,5,0V883c0-3.22-5-3.22-5,0Z"/><path class="cls-4" d="M840.39,878.69l1.75,24.55c.23,3.19,5.23,3.22,5,0l-1.75-24.55c-.23-3.19-5.23-3.22-5,0Z"/><path class="cls-4" d="M876.23,877.25l.38,23.12c.05,3.21,5.05,3.22,5,0l-.38-23.12c-.05-3.21-5.05-3.22-5,0Z"/><path class="cls-4" d="M888.14,877.24v24.57c0,3.22,5,3.22,5,0V877.24c0-3.22-5-3.22-5,0Z"/><path class="cls-4" d="M905.23,880.89a103.62,103.62,0,0,1,3.1,32.48c-.2,3.21,4.8,3.2,5,0a108.07,108.07,0,0,0-3.28-33.81c-.8-3.11-5.63-1.79-4.82,1.33Z"/><path class="cls-4" d="M894.58,911.93V897.48c0-3.22-5-3.22-5,0v14.45c0,3.22,5,3.22,5,0Z"/><path class="cls-4" d="M18.6,11.74a79,79,0,0,1-6.83,36.34c-1.31,2.91,3,5.46,4.32,2.52A84.38,84.38,0,0,0,23.6,11.74c-.15-3.2-5.15-3.22-5,0Z"/><path class="cls-4" d="M33.05,14.63V50.76c0,3.22,5,3.22,5,0V14.63c0-3.22-5-3.22-5,0Z"/><path class="cls-4" d="M57.62,13.18v39c0,3.22,5,3.22,5,0v-39c0-3.22-5-3.22-5,0Z"/><path class="cls-4" d="M82.19,17.52V46.42c0,3.22,5,3.22,5,0V17.52c0-3.22-5-3.22-5,0Z"/><path class="cls-4" d="M99.54,17.52V46.42c0,3.22,5,3.22,5,0V17.52c0-3.22-5-3.22-5,0Z"/><path class="cls-4" d="M121.22,13.18V56.54c0,3.22,5,3.22,5,0V13.18c0-3.22-5-3.22-5,0Z"/><path class="cls-4" d="M145.79,14.63V49.32c0,3.22,5,3.22,5,0V14.63c0-3.22-5-3.22-5,0Z"/><path class="cls-4" d="M175.21,19.23a92.61,92.61,0,0,0-7.93,30.07c-.29,3.2,4.71,3.18,5,0a85.15,85.15,0,0,1,7.25-27.55c1.32-2.91-3-5.45-4.32-2.52Z"/><path class="cls-4" d="M188.84,17.55a238.62,238.62,0,0,0,5,30.92c.72,3.13,5.55,1.81,4.82-1.33a228.25,228.25,0,0,1-4.83-29.59c-.3-3.17-5.31-3.21-5,0Z"/><path class="cls-4" d="M203.55,20.41a79.91,79.91,0,0,0,4.52,28.11c1.06,3,5.89,1.72,4.82-1.33a75.8,75.8,0,0,1-4.34-26.78c.06-3.22-4.94-3.22-5,0Z"/><path class="cls-4" d="M219.49,27.64v26c0,3.22,5,3.22,5,0v-26c0-3.22-5-3.22-5,0Z"/><path class="cls-4" d="M248.4,23.3V47.87c0,3.22,5,3.22,5,0V23.3c0-3.22-5-3.22-5,0Z"/><path class="cls-4" d="M229.56,19l1.75,24.55c.23,3.19,5.23,3.22,5,0L234.56,19c-.23-3.19-5.23-3.22-5,0Z"/><path class="cls-4" d="M265.4,17.52l.38,23.12c.05,3.21,5.05,3.22,5,0l-.38-23.12c-.05-3.21-5.05-3.22-5,0Z"/><path class="cls-4" d="M277.3,17.52V42.09c0,3.22,5,3.22,5,0V17.52c0-3.22-5-3.22-5,0Z"/><path class="cls-4" d="M294.4,21.16a103.62,103.62,0,0,1,3.1,32.48c-.2,3.21,4.8,3.2,5,0a108.07,108.07,0,0,0-3.28-33.81c-.8-3.11-5.63-1.79-4.82,1.33Z"/><path class="cls-4" d="M283.75,52.21V37.75c0-3.22-5-3.22-5,0V52.21c0,3.22,5,3.22,5,0Z"/><path class="cls-4" d="M322.69,12.46a79,79,0,0,1-6.83,36.34c-1.31,2.91,3,5.46,4.32,2.52a84.38,84.38,0,0,0,7.51-38.87c-.15-3.2-5.15-3.22-5,0Z"/><path class="cls-4" d="M337.15,15.35V51.48c0,3.22,5,3.22,5,0V15.35c0-3.22-5-3.22-5,0Z"/><path class="cls-4" d="M361.72,13.91v39c0,3.22,5,3.22,5,0v-39c0-3.22-5-3.22-5,0Z"/><path class="cls-4" d="M386.29,18.24V47.15c0,3.22,5,3.22,5,0V18.24c0-3.22-5-3.22-5,0Z"/><path class="cls-4" d="M403.63,18.24V47.15c0,3.22,5,3.22,5,0V18.24c0-3.22-5-3.22-5,0Z"/><path class="cls-4" d="M425.31,13.91V57.26c0,3.22,5,3.22,5,0V13.91c0-3.22-5-3.22-5,0Z"/><path class="cls-4" d="M449.88,15.35V50c0,3.22,5,3.22,5,0V15.35c0-3.22-5-3.22-5,0Z"/><path class="cls-4" d="M479.3,20A92.61,92.61,0,0,0,471.37,50c-.29,3.2,4.71,3.18,5,0a85.15,85.15,0,0,1,7.25-27.55c1.32-2.91-3-5.45-4.32-2.52Z"/><path class="cls-4" d="M492.93,18.27a238.62,238.62,0,0,0,5,30.92c.72,3.13,5.55,1.81,4.82-1.33a228.25,228.25,0,0,1-4.83-29.59c-.3-3.17-5.31-3.21-5,0Z"/><path class="cls-4" d="M507.64,21.13a79.91,79.91,0,0,0,4.52,28.11c1.06,3,5.89,1.72,4.82-1.33a75.8,75.8,0,0,1-4.34-26.78c.06-3.22-4.94-3.22-5,0Z"/><path class="cls-4" d="M523.59,28.36v26c0,3.22,5,3.22,5,0v-26c0-3.22-5-3.22-5,0Z"/><path class="cls-4" d="M552.49,24V48.59c0,3.22,5,3.22,5,0V24c0-3.22-5-3.22-5,0Z"/><path class="cls-4" d="M533.65,19.69l1.75,24.55c.23,3.19,5.23,3.22,5,0l-1.75-24.55c-.23-3.19-5.23-3.22-5,0Z"/><path class="cls-4" d="M569.49,18.25l.38,23.12c.05,3.21,5.05,3.22,5,0l-.38-23.12c-.05-3.21-5.05-3.22-5,0Z"/><path class="cls-4" d="M581.4,18.24V42.81c0,3.22,5,3.22,5,0V18.24c0-3.22-5-3.22-5,0Z"/><path class="cls-4" d="M598.49,21.89a103.62,103.62,0,0,1,3.1,32.48c-.2,3.21,4.8,3.2,5,0a108.07,108.07,0,0,0-3.28-33.81c-.8-3.11-5.63-1.79-4.82,1.33Z"/><path class="cls-4" d="M587.84,52.93V38.48c0-3.22-5-3.22-5,0V52.93c0,3.22,5,3.22,5,0Z"/><path class="cls-4" d="M622.68,16.07a79,79,0,0,1-6.83,36.34c-1.31,2.91,3,5.46,4.32,2.52a84.38,84.38,0,0,0,7.51-38.87c-.15-3.2-5.15-3.22-5,0Z"/><path class="cls-4" d="M637.13,19V55.1c0,3.22,5,3.22,5,0V19c0-3.22-5-3.22-5,0Z"/><path class="cls-4" d="M661.7,17.52v39c0,3.22,5,3.22,5,0v-39c0-3.22-5-3.22-5,0Z"/><path class="cls-4" d="M686.27,21.85V50.76c0,3.22,5,3.22,5,0V21.85c0-3.22-5-3.22-5,0Z"/><path class="cls-4" d="M703.61,21.85V50.76c0,3.22,5,3.22,5,0V21.85c0-3.22-5-3.22-5,0Z"/><path class="cls-4" d="M725.29,17.52V60.88c0,3.22,5,3.22,5,0V17.52c0-3.22-5-3.22-5,0Z"/><path class="cls-4" d="M749.86,19V53.65c0,3.22,5,3.22,5,0V19c0-3.22-5-3.22-5,0Z"/><path class="cls-4" d="M779.29,23.57a92.61,92.61,0,0,0-7.93,30.07c-.29,3.2,4.71,3.18,5,0a85.15,85.15,0,0,1,7.25-27.55c1.32-2.91-3-5.45-4.32-2.52Z"/><path class="cls-4" d="M792.92,21.88a238.62,238.62,0,0,0,5,30.92c.72,3.13,5.55,1.81,4.82-1.33a228.25,228.25,0,0,1-4.83-29.59c-.3-3.17-5.31-3.21-5,0Z"/><path class="cls-4" d="M807.62,24.74a79.91,79.91,0,0,0,4.52,28.11c1.06,3,5.89,1.72,4.82-1.33a75.8,75.8,0,0,1-4.34-26.78c.06-3.22-4.94-3.22-5,0Z"/><path class="cls-4" d="M823.57,32V58c0,3.22,5,3.22,5,0V32c0-3.22-5-3.22-5,0Z"/><path class="cls-4" d="M852.48,27.64V52.21c0,3.22,5,3.22,5,0V27.64c0-3.22-5-3.22-5,0Z"/><path class="cls-4" d="M833.64,23.3l1.75,24.55c.23,3.19,5.23,3.22,5,0L838.64,23.3c-.23-3.19-5.23-3.22-5,0Z"/><path class="cls-4" d="M869.48,21.86,869.86,45c.05,3.21,5.05,3.22,5,0l-.38-23.12c-.05-3.21-5.05-3.22-5,0Z"/><path class="cls-4" d="M881.38,21.85V46.42c0,3.22,5,3.22,5,0V21.85c0-3.22-5-3.22-5,0Z"/><path class="cls-4" d="M898.48,25.5A103.62,103.62,0,0,1,901.58,58c-.2,3.21,4.8,3.2,5,0a108.07,108.07,0,0,0-3.28-33.81c-.8-3.11-5.63-1.79-4.82,1.33Z"/><path class="cls-4" d="M887.83,56.54V42.09c0-3.22-5-3.22-5,0V56.54c0,3.22,5,3.22,5,0Z"/></g></g></svg>