<svg xmlns="http://www.w3.org/2000/svg" viewBox="0 0 923.13 924.94"><defs><style>.cls-1{fill:#ce242b;}.cls-2{fill:#fed6af;opacity:0.41;}.cls-3{font-size:122px;font-family:Georgia, Georgia;}.cls-3,.cls-4{fill:#fff;}</style></defs><title>burlap</title><g id="Layer_2" data-name="Layer 2"><g id="burlap"><rect class="cls-1" width="923.13" height="923.13"/><path class="cls-2" d="M0,924.94V2.56C3.49,2.37,6.74,2,10,2q71.3-.16,142.6-.23Q530.31,1.88,908,2h13c2.23,7.58,3,907.17.85,922.92ZM657.36,447.8c-13.9-2.3-25.74-7.88-33-21.38-3-5.58-8.34-9.31-14.72-11.8A164,164,0,0,1,586.32,403c-8.69-5.11-17-11-25.37-16.56-13.44-8.93-27.49-17.08-36.79-31-2.4-3.59-6.36-6.1-9-9.54-3.25-4.17-7.35-8.45-8.55-13.3a114.58,114.58,0,0,0-16.52-36.66c-6.67-10-14.35-18.78-24.2-25.5-11.38-7.78-22.82-15.54-34.7-22.51-15-8.8-23.69-21.72-26.93-38.37-3-15.22-5.51-30.53-7.77-45.87-2.21-15-3.17-30.28-5.9-45.2-2.67-14.59-6.38-29.09-16.35-40.95C364.49,66,355.87,53.27,345,43c-10.3-9.69-20.63-20.53-35.94-23-1.9-.31-4.5-1.12-5.29-2.52-2.82-5-7.32-4.09-11.62-4.09q-135.47,0-270.94,0c-3.31,0-6.61.29-10.37.47V148.1a139.34,139.34,0,0,1,46.35-31.9c20.83-8.74,43.27-10.36,65.76-6.65,10,1.65,19.77,4.33,29.74,5.94,21.39,3.46,40.72,11.75,58.52,23.86,12.81,8.72,25.39,17.79,38.39,26.21,7.87,5.1,16.24,9.46,24.57,13.78,10.92,5.65,22.32,9.29,35,7.69,14.21-1.8,27.8-5,39.57-13.81a25.25,25.25,0,0,1,9.16-4.18c4.29-1,8,3.83,6.09,7.76-.8,1.64-2.68,2.9-4.32,4-6,3.85-12.26,7.22-18,11.36-10.63,7.67-13.69,20.48-19.9,31.09a53.6,53.6,0,0,0-6.38,18.07c-3,18.22-3.7,36.79-10.38,54.37-1.86,4.9-3.89,9.13-7.6,12.82-11,11-21.85,22.09-32.73,33.19-1.65,1.68-3.15,3.52-5,5.6,2,2.83,4.08,5.5,6,8.28,7.52,11.17,15.7,22,22.3,33.68,8.42,14.91,16,30.34,23.1,45.93,8.75,19.19,20.07,36.4,35.3,51a18.85,18.85,0,0,0,4.14,2.55c4.12,2.25,8.48,4.14,12.37,6.73,11.28,7.5,22.66,14.71,35.82,18.59,10.34,3,20.75,5.5,31.9,4.16.57,2.19,1.09,3.77,1.35,5.39.09.53-.47,1.17-1.18,2.76-2.72.29-6,.49-9.25,1-2.23.36-4.77.62-6.51,1.86-14.58,10.36-29.66,20.15-43.29,31.64-15.11,12.73-31.75,23.05-48.69,32.72-11.3,6.45-24.1,12-36.84,13.87-21,3.1-42.28,5.54-63.68,3.8-4.73-.39-9.51-1-14.21-.73-12.38.76-23.78-3.57-35.38-6.54-6.68-1.71-12.69-6.37-19.39-7.63a67.55,67.55,0,0,1-25-10.36C113,575.83,96,567.9,82.87,554.37c-8.93-9.2-18-18.24-27.12-27.29-14.51-14.45-27.55-30.16-40.22-46.21-1.07-1.35-2.82-2.17-4.68-3.55-2.32,23.5-1.28,224,1.29,231.69,2.14-.81,4.28-1.58,6.39-2.42,4.36-1.74,8.57-4.11,13.08-5.19,17.11-4.11,34.67-6.71,51.38-12,15.43-4.89,30-2.43,45.13-.23,24.79,3.61,47.88,14.93,73.25,15.68a3.37,3.37,0,0,1,1,.21c12.1,4.25,24.61,6.33,37.28,8.31a497.2,497.2,0,0,0,65.56,5.5c7.66.17,15.19.84,22.65,5-2.83,3.41-4.65,6.19-9.18,6.39-26.76,1.17-47.63,13.64-64,34.23-3.78,4.76-7,10-10.55,14.92-12.78,17.71-22.71,36.77-28.13,58-3.43,13.45-7.09,26.85-10.35,40.34-2.38,9.84-6.57,18.46-14.47,25.06-3.25,2.71-5.44,5.93-4.18,10.64h64.74c8.4-9.76,14.63-19.33,23.08-26.18,9-7.31,12.76-14.89,10.53-26.14a13.77,13.77,0,0,1,2.11-9.44C292,845,298.65,840.57,307,840.57a89.85,89.85,0,0,1,20.05,2.3c21.78,5,41.79.92,59.77-11.77,15.32-10.8,31-10.33,46.87-2.85,7,3.27,12.91,8.61,19.6,12.53,8.18,4.79,11.39,12.22,12.21,21a56,56,0,0,1-.07,10.15c-.56,6.21,1.22,11.1,6.3,15.1,5.78,4.55,9.57,10.34,9.29,18.26-.1,2.8,1,5.65,1.43,7.85H508c-1-8-2.8-15.34-2.72-22.64.19-18.49-6.45-34-17.67-48.36-4.23-5.4-6.58-12.31-9.54-18.65-3.5-7.48.55-14.49,1.73-21.67,2.24-13.62,1.8-26.06-10.9-35.51-8.65-6.43-16.49-14.07-24.1-21.76-8.52-8.6-8.4-12.95-1.4-23,8.5-12.17,17.13-24.26,25.28-36.67,13.9-21.17,33.48-30.43,58.53-29.35,10.83.47,21.72.77,32.53.17,5.58-.31,11.24-2.26,16.5-4.37,4.66-1.87,8.83-5,13.19-7.56,12.3-7.32,25.06-9.64,38.58-3.53,12,5.44,23.64,3.75,35.27-1.56,3.88-1.77,8.22-2.67,12.44-3.57,14.88-3.21,18.87-5.82,19.12-23.3,0-2.7-.72-5.51-.22-8.1,1-5.21,1.18-11.48,4.25-15.21,8.93-10.84,18.17-21.83,29.1-30.47,9-7.11,20.18-12.05,31.11-16,21.81-7.83,38-22.53,52.61-39.54a15.19,15.19,0,0,0,1.82-18c-4.7-8.12-10.58-15.6-16.33-23.07-3.22-4.18-7.78-6.19-13.32-6.3s-11.56-.14-17-1.59c-10.9-2.91-21.44-.07-32.09.84a14.6,14.6,0,0,0-7.46,2.92c-4.72,3.76-9,8.1-13.47,12.16-3,2.71-5.75,7-9.16,7.62-5.15.94-7.32,4.38-10.35,7.4-2.63,2.62-5.05,5.55-8,7.67-9.33,6.59-19,12.74-28.34,19.29-11.55,8.09-24.15,13.12-38.31,13.71-6.75.28-13.53-.29-20.27.11-8.26.49-14.08-3.46-19.69-8.82-7.55-7.21-15.06-14.6-23.43-20.79-8.67-6.41-18-11.53-30-9.9-8.64,1.18-17.57.62-26.35.26-6.2-.25-14-2.48-14.89-8.13-1.06-7-5.49-12.19-6.43-18.75-1.24-8.69-2.5-17.4-3.17-26.14-.5-6.43-2.6-11.68-7.52-16q-11-9.6-21.75-19.58c-6.53-6.06-13.26-11.42-22.87-11.42-2.22,0-4.45-1.24-6.65-2-13.6-4.63-27.17-9.37-40.8-13.9-4.73-1.57-6.32-3.86-4-8.26,1.3-2.43,3.75-5.12,6.23-5.86,5.74-1.7,11.5-2.32,17.72.17,12.39,5,25.16,7.14,38.29,1.58,11.69-4.94,24-4.83,35.92-1.36,7.65,2.23,16.24,5,21.59,10.34,5.63,5.62,8.53,14.36,11.46,22.17,2.81,7.47,4.12,15.5,6.09,23.29,2.64,10.49,12,19.4,21.8,19.22a96.32,96.32,0,0,1,35.67,5.85c11.36,4.18,20.94,9.3,23.24,22.52.63,3.58,1.94,7,2.83,10.58,1.77,7.07,7,11.57,12.68,15,2.28,1.35,7,.74,9.47-.76a113.34,113.34,0,0,0,17-12.65C640.63,464.22,648.87,455.93,657.36,447.8ZM509.53,14.09c3.34,12.31,5.93,23.73,9.61,34.78,2.43,7.28,5,15.27,10,20.8,12.36,13.83,24.86,27.71,40.33,38.41,8.36,5.79,16.66,11.7,24.59,18.05,15.46,12.39,29.33,26.1,36,45.59,1.62,4.76,3.69,9.88,7,13.44,11.28,12,14.38,26.17,13.9,42-.3,9.76,1.44,19.65.49,29.3-.91,9.28-3.44,18.57-6.45,27.45-4.21,12.42-.61,22.36,7.12,32,2.8,3.47,5.91,4.71,9.68,3.7,14.33-3.83,28.56-8,42.86-12,3.79-1,5.1-3.27,5.76-7.19a48.48,48.48,0,0,1,4.82-14.18,88.72,88.72,0,0,1,21.37-26.71c5.56-4.75,8.68-10.82,10.39-18.07,2.55-10.75,2.3-21.39,1.38-32.25-2-24.22.84-48.58-3.47-72.86-2.11-11.88-4.59-23.66-10.58-33.55-12.53-20.66-9.58-41.48-3.1-62.34,2.69-8.65,2.76-17,3.38-26.35Zm48.86,899.3H726.57c0-7.53-1-14.71.22-21.51,2.16-12.14-2.66-21.88-9.56-30.56-7.79-9.8-13-19.7-8.27-32.3,2.47-6.61.84-12.33-1.92-18.48-2.86-6.38-5.57-13.23-6.27-20.08-1.34-13.22-6.57-24.72-13-35.94-4.36-7.66-10.11-12.34-19.8-9.7-3.14.86-6.69.13-10.06.25-11.17.4-19.81,4.06-25,15.25-4,8.58-3.94,17.08-3.05,25.76,1.34,13-3.61,23-13.26,31.05-5.39,4.49-12.05,7.76-16.58,12.94-9.48,10.83-16.68,23.05-13.62,38.49,1,5-.86,7.63-5.21,8.88-3.47-6.38-6.8-12.42-10-18.52a16,16,0,0,1-1.29-3.82c-3.58-15.18-4.43-30,4-44.24a72.57,72.57,0,0,0,6.89-15.8c3.44-11.31,6.11-22.57,1.19-34.54-2.63-6.41-3.1-13.79-4.05-20.79-.79-5.79,3.36-9.49,7.2-12.73,5.42-4.57,11.29-8.61,17-12.81a12,12,0,0,1,3.58-1.76c9.62-2.89,19.27-5.69,28.9-8.54,12.3-3.64,24.59-7.28,37.68-5.71,3.53.42,7.07.77,10.2,1.1l4.62-25.82c-4.88,1.17-9.87,3.8-14.32,3.1-6.27-1-11.14,1.56-16.53,3.11s-10.9,3.9-16.48,4.45c-9.63.94-19.45.1-29.05,1.2-13.39,1.52-26.64,4.19-40,6.25-10.05,1.55-15.36,7-17.09,17.09a56.45,56.45,0,0,1-3.55,12.59c-3.55,8.29-7.6,16.37-11.52,24.69,1.28,2.62,2,5.94,4.06,7.93,7.4,7.26,7.42,16.28,6.59,25.41-1,10.57-4.81,20.29-10.06,29.46-3.45,6-5.65,12.16-3.7,19.26.79,2.87.85,5.94,1.26,8.92,1.65,12,3,24.1,5.05,36C544.34,887.33,551.18,900.1,558.39,913.39ZM321.2,544.66c-4.86-1.33-9.44-1.18-11.49-3.38a289.28,289.28,0,0,1-22.38-27c-13.84-19.14-28.3-37.91-37.42-60.09-5.63-13.69-12.12-27-18.61-40.35-7.64-15.67-18.93-28.6-31.2-40.86A113.76,113.76,0,0,0,156,345.61c-15.28-5.25-30.5-10.76-46-15.1-13.95-3.9-28.4-3.94-44.26-2.63,2.55,2.74,4,4.45,5.62,6,5.9,5.85,12.14,11.39,17.69,17.55,8,8.95,15.48,18.44,23.41,27.49,2.64,3,6.78,4.87,8.9,8.12,7.86,12,15.17,24.45,22.7,36.7,2.63,4.27,5.27,8.54,8,12.77,4.88,7.64,10.57,14.87,14.48,23,3.25,6.73,7.17,12.05,13.88,15.19,9.43,4.41,18.83,8.9,28.4,13,5.54,2.38,10.36,4.89,9.89,13.16-2.78.27-5.45,1.23-7.7.62-7.14-1.93-14.2-4.24-21.15-6.78-10.76-3.94-21.82-7.37-32-12.53s-19.49-12-29-18.43c-5.84-4-11.74-8.08-16.71-13-8.37-8.33-16.1-17.31-23.95-26.16-10.5-11.84-19.71-24.9-33.56-33.45a155.36,155.36,0,0,1-16.33-11.84c-8.18-6.65-17.77-10.17-28.2-15,0,6.78.65,11.94-.14,16.88-1.4,8.74,3.47,14.93,9.26,18.93C32.12,409,41.79,421,52.71,431.87c4.52,4.49,9.47,8.57,13.71,13.29,5.19,5.77,9.37,12.49,14.83,17.95,10,10,21.36,18.7,30.76,29.19,10.29,11.48,23.09,19.34,35.55,27.62,19.75,13.12,42.5,19.29,65.35,23.92,20.85,4.22,42.17,6.19,63.29,9a38.82,38.82,0,0,0,10.09.38c10.64-1.39,21.23-3.12,31.81-4.91C319,548.2,319.66,546.56,321.2,544.66ZM449,19.29c-7.85-4.68-15.49-3.44-23-3.31-8,.14-16,0-24.61,0,1.57,6.67,6,10.18,12,12.15,12.75,4.16,20.15,14,26,25.13,3.93,7.43,6.92,15.39,10,23.24,2.54,6.51,4.49,13.24,6.85,19.82s4.62,13.33,7.46,19.75c4.84,10.94,15.14,17.33,24.85,21.43,8.5,3.59,14.83,8.74,21.37,14.17l9.39-2.15c2.48,3.69,3.91,7.51,6.66,9.55,4.51,3.36,9.61,6.52,14.95,8.09,12.75,3.76,22.17,11.68,31.88,20.39,14,12.56,18.61,38.08,13.46,52.84-2.54,7.29-5.08,14.58-7.47,21.91-1.25,3.84-1.69,8-3.37,11.63a116.27,116.27,0,0,0-9.27,32.46c-2.61,17.55,1.8,32.86,11.43,46.94a25.33,25.33,0,0,0,10.86,8.43c7.36,3,15.42,4.35,22.86,7.22A269.14,269.14,0,0,1,636,380.36c3.23,1.64,5.55,5.14,8.82,6.58,10.78,4.75,21.75,9.09,32.77,13.27,4.38,1.66,9.54,1.63,13.54,3.83,19,10.47,39,9.52,57.85,2.07a102,102,0,0,1,64.5-4c6,1.53,12.35,4.41,16.88,8.51,6.93,6.27,12.66,14,18.43,21.4,2.63,3.4,4.41,7.55,6.07,11.57,1.91,4.63,3.34,9.46,4.81,14.25,1.24,4.06,2.44,8.15,3.29,12.3,1,4.69,3,6.42,7.72,5.33,3-.69,5.78-1.92,8.7-2.78,10.52-3.1,21.05-6.15,32-9.35v-10.9c-3.74-.82-7-1.83-10.26-2.2-14.08-1.58-23-9.39-29.47-21.76s-14.06-23.87-21.42-35.6c-8.13-12.94-20.15-17-35.22-17.32-13.32-.31-27.14.53-40-4.9-3-1.28-6.75-2.52-9.8-1.94-13.16,2.5-26.68,3.17-38.93,10.08-7.6,4.29-16.39,5.18-25.54,3.79-11.91-1.82-22.37-7-33-11.92-5.5-2.51-11.56-4.67-15.92-8.59-9-8.05-16.92-17.2-25.35-25.85a76.47,76.47,0,0,0-8-7.62c-19.81-15.14-20-45.43-6.53-60.65,8.28-9.35,8.13-18.11,2.23-28.64-5.4-9.63-10.77-19.81-13.19-30.42a100.11,100.11,0,0,0-16.06-35.69c-4.92-7-10.4-13.23-20-15.77-7.42-2-14.76-7.2-20.25-12.82-11.54-11.82-24.89-20.73-39.44-28-15.64-7.78-28.78-17.75-35.36-34.66A40.5,40.5,0,0,0,465,73c-4.86-6.75-6.68-14.41-8.29-22.39C454.52,39.85,451.46,29.24,449,19.29ZM10.17,849.93l2.17,1.37c3.13-2.43,6.4-4.7,9.38-7.3,11.72-10.22,23.16-20.76,35-30.77,24.94-21,54.41-33.77,84.46-45.31a106,106,0,0,1,16.66-4.43c2-.4,4.19.55,6.34.89-.7,5.77-3.18,9.17-7.95,10.36-14.1,3.53-25.25,12.62-37.43,19.71a51.74,51.74,0,0,0-13.15,10.68c-8,9.34-15.53,19.13-22.78,29.08a135.09,135.09,0,0,0-11.35,18.7c-3,5.92-4.72,12.46-7.46,18.52-6.1,13.45-12.25,26.81-7.79,42.5,12.19,0,24.09.48,35.92-.18A69.94,69.94,0,0,0,113,909.63c21.77-8.3,38.43-22.84,47.47-44.49a509.47,509.47,0,0,0,18.38-51.61c6.63-22.38,12-45.13,28.6-64.59-10.57-1.88-19.71-2.78-28.42-5.22-19.22-5.38-38.79-5.3-58.39-4.78a145.19,145.19,0,0,0-27.23,2.91c-24.83,5.46-47.16,16.53-67.13,32.26-8.26,6.5-14.9,15-15.72,25.22C9.18,816.09,10.17,833.05,10.17,849.93ZM864.52,14a127.88,127.88,0,0,0-11.41,50.31c-.08,4.66.87,9.32.92,14,.07,7.34-1.2,14.82-.17,22,2.14,15,5.06,29.81,11.06,43.9,2.22,5.21,4.1,11,4.23,16.57.33,14.4.75,29-1,43.21-1.75,13.94-1.73,28.46-8.3,41.56a17.53,17.53,0,0,0-1.62,6.79c-.73,13.87-8.73,25.13-13.71,37.42a35.74,35.74,0,0,0-2.81,10.29c-1.07,10.72,2.59,20,7.91,28.87a32.35,32.35,0,0,0,24.32,15.8c11.53,1.16,18.42,6.39,24.58,15.16,3.44,4.9,6.33,10.77,12.83,14.48V14ZM200.27,310.5c2.86-5.15,4.48-8.9,6.82-12.13a56.36,56.36,0,0,0,10.66-41.08c-.24-2,0-4.09-.36-6.08A16,16,0,0,1,223,235.67c5.7-4.92,11.92-9.23,18.18-14-4.69-4.37-10.81-5-16.73-6-12.89-2.16-23.12-7.72-29.78-19.7-8.5-15.31-23.29-24-39-28.62-24.69-7.19-50.34-10.26-76.24-6.64-6,.84-11.89,2.57-17.91,3.25C45.16,165.8,32.25,172.69,24,187.44a77.11,77.11,0,0,1-9.29,13.31A18,18,0,0,0,10,213.66c.16,12.88,0,25.76.09,38.64a73.08,73.08,0,0,0,.86,7.39c16-9.44,31.1-18.12,46-27.13,13.72-8.31,29.39-11.23,44.16-16.64,8.76-3.2,17.88-2.22,26.82-3.19,18.45-2,36.42-.06,53.06,8.73,2.52,1.33,5.41,5,5.35,7.49-.09,3.74-3.7,4.44-7.69,4.05-4.93-.48-10.3-.68-14.92.78-11,3.48-21.81,6.82-32.25,12.86-12.56,7.27-24,16.08-37.9,23.35,19.18,5.81,37.48,10.32,55,17S182.74,302.42,200.27,310.5Zm610.45,603c0-11.73-1.1-22.67.3-33.28,1.47-11.13-3.07-20-8.09-28.55-4.54-7.72-10.84-14.6-17.18-21-10.47-10.65-16.29-23-17-37.9-.34-7.74-1.13-15.5-.85-23.22.57-15.64-7-26.81-18.58-36-3.71-2.93-7.48-5.78-11.17-8.73-10.8-8.64-13.28-19.58-10.15-33.27,2.85-12.48,10.43-22.58,15.21-34,7.34-17.61,18.34-33.7,27.92-50.37,5.11-8.9,12.87-13.27,23.26-13.7,12.83-.53,25.69-1.18,38.41-2.8,5-.64,11.85-2.71,14.1-6.41,5.1-8.35,13.07-11.17,20.8-15,14.71-7.33,29.57-14.36,39.92-28,3.26-4.31,6-17.18,3.51-21.67-.44-.79-1.88-2-2.07-1.83-4.27,3-5.47-4.4-8.61-3-7.54,7.22-14.42,14.16-21.71,20.64a39.26,39.26,0,0,1-11,7c-10.21,4.16-18.14,11.42-26.82,17.82-12.65,9.31-26.32,16-43.25,12.84-12.75-2.37-25.77-2.74-36,7.81-5.57,5.72-11.16,11.43-16.64,17.23-7.17,7.58-10.64,17-12.85,26.93-2.55,11.57-5.28,23.09-7.67,34.69-1,4.94-2.36,10.13-1.77,15,.9,7.45-.83,14-3.44,20.73a58.86,58.86,0,0,0-3.79,12.62c-1.76,12.12.85,23.23,11.2,30.69s16.19,17.13,17.71,29.42a51.21,51.21,0,0,0,9.16,23.27c5.52,8,8.11,17,4.49,26.87-4.56,12.44-1.83,24.06,4.87,34.91,6.48,10.5,11.34,21.43,11.76,34,.29,8.66,1,17.31,1.48,26.39ZM786.35,13.93c-1.77,10.27-3.67,20.05-5.07,29.91-.84,5.9-1,11.91-1.28,17.88-.75,14.4-2,28.81,1.51,43.09,1.36,5.59,3.47,11.33,3.2,16.91-.68,14,7.52,24.54,12.55,36.36,3,7.08,7.26,14.28,7.78,21.65.9,12.68,0,25.61-1.4,38.29a88.12,88.12,0,0,1-18.78,46.13c-7.89,9.81-13.74,20-14.85,33-1.17,13.7,5.56,23.24,18.9,24.37,2.65.22,5.33,0,9.43,0,0-4.6,0-8.9,0-13.2-.12-12.11,5.1-22.08,12.82-30.86,5.46-6.21,9.43-12.68,10.56-21.26,2-15.39,5.14-30.62,7.7-45.94.89-5.32,2-10.69,2.06-16,.18-14.95-3.11-29.44-6.77-43.84-4-15.9-13.67-29.09-20.89-43.46-5.83-11.61-9-24.2-6.17-36.94,2.57-11.77,7.12-23.13,11.13-34.55,2.57-7.31,2.89-14.28-.57-21.5ZM911.18,762.7c-3.88,3.17-6.91,5.21-9.41,7.78-5.74,5.91-11.84,10.61-20.32,12.43-4.74,1-9.46,4-13.25,7.15-7.05,5.94-11.6,13.19-7.44,23.1,3.06,7.29,1.23,14.62-.53,21.84a71,71,0,0,1-3.82,12.55c-4.41,9.74-.53,15.87,7.57,21.29,12.53,8.39,17.49,21,18.5,35.59.2,3,.44,5.91.67,8.87h28ZM320,913.28h95.75c0-10.33.38-20-.12-29.64-.39-7.55-8.26-14.39-16-13.37-9.63,1.26-19.08,3.91-28.6,6-4.58,1-9.13,2.69-13.75,2.92-9.3.47-16.17,4-20,12.77-2.56,5.82-6.36,10.16-13,11.55C318.81,904.59,318.55,908.49,320,913.28Zm487-264.7c-10.12,5.69-18.63,10.26-26.87,15.27-2.06,1.25-4.58,3.92-4.6,6-.07,9-1.36,18.2,5.72,25.92,12,13.14,23.5,26.83,35.49,40,3.34,3.67,8,2.44,10.86-.7,6.19-6.77,11.78-14.16,12.42-23.86.4-6.13-1.14-12-7.52-14.09-7.91-2.55-12.78-8.6-18.6-13.68C810,680,808.5,676,808.43,670.94,808.34,664.23,807.6,657.54,807,648.57Zm104.17,46.32V604.41c-7.1.79-12.6,1.67-17.72,6.86-8.82,9-14.19,19.69-18.73,30.92-2.74,6.77-4.43,14.11-2.85,21.9C886.86,672,900.87,681,911.15,694.89Z"/><text class="cls-3" transform="translate(271.42 417.19)">Burlap<tspan x="-63.59" y="146.4">Histories</tspan></text><path class="cls-4" d="M578.88,284H344.26a135.47,135.47,0,0,1,234.62,0Z"/><path class="cls-4" d="M578.88,615.9H344.26a135.47,135.47,0,0,0,234.62,0Z"/></g></g></svg>