<svg xmlns="http://www.w3.org/2000/svg" viewBox="0 0 935.1 924.94"><defs><style>.cls-1{fill:#ce242b;}.cls-2{fill:#fed6af;opacity:0.41;}.cls-3{font-size:122px;font-family:Georgia, Georgia;}.cls-3,.cls-4{fill:#fff;}</style></defs><title>dataMappings_1</title><g id="Layer_2" data-name="Layer 2"><g id="Layer_4" data-name="Layer 4"><rect class="cls-1" x="10.47" y="1.81" width="923.13" height="923.13"/><path class="cls-2" d="M934.29,866.25c-1,5.26-2.11,8.68-2.19,12.12-.29,12.8-.22,25.61-.35,38.41,0,2.29-.36,4.58-.65,8.16H10.22C9.78,915.1,9,906.14,9,897.18Q8.89,772.82,9,648.47V0H932V12.3q0,96.55.08,193.1c0,4.94,1.19,9.87,1.78,14.81a19,19,0,0,1,.21,4c-.64,6.95-2,13.89-2,20.83q-.17,239.1-.08,478.21c0,17.81,0,35.62.29,53.42.05,3.07,2.08,6.05,2.48,9.17a23.61,23.61,0,0,1-.34,9.52c-1.54,5.13-3.22,9.8-1.06,15.4,1,2.48-1.21,6-1.26,9.06-.18,12.8-.27,25.61,0,38.41C932.2,861.32,933.78,864.43,934.29,866.25ZM213.22,834.83c8.3-4.8,16-9.55,23.92-13.73,7.64-4,15.61-7.39,23.36-11.2a33.58,33.58,0,0,0,5.74-3.94c7.75-6.11,10.71-15.21,13.94-23.87,5.17-13.89,15.41-24.23,23.77-35.85a31.34,31.34,0,0,1,11.39-9.73c17.75-8.45,35.82-16.7,55.5-18.91,7.5-.84,14.18-3.44,21.28-5,16.08-3.58,24-14.37,27.06-30.07,2.87-14.8,9.35-27.86,20.44-38.48a59.76,59.76,0,0,0,16.48-27.16,30.57,30.57,0,0,1,2.28-5.45c6.25-12.24,12.75-24.36,18.77-36.71,8.74-17.9,24.19-25.36,42.51-29.8,13.07-3.17,25.88-2.41,38.91-1.37,4.61.37,9.64-1.05,13.83.33,16.75,5.51,33.25,11.76,49.82,17.8,7.41,2.7,14.58,6.37,22.19,8.13,13.73,3.17,27.36-.47,40.66-3.37,12-2.61,23.48-7.38,35.28-10.94,21-6.34,42.43-11.23,63-19.58,17.12-7,35.42-9.95,54.1-4.86a108.86,108.86,0,0,0,46.76,2.46c5.73-.93,12.48-.6,17.72,1.62,6.39,2.71,12.19,2.16,18.42,1.67a13.53,13.53,0,0,0,.95-3.22c.08-16.85.18-33.7,0-50.55,0-2.15-.74-5-2.21-6.3-8.75-7.59-18.68-13.63-30.47-13.85-12-.23-24.33-.05-36.11,2.12-30.64,5.66-61.05,12.53-91.57,18.88-25.91,5.39-51.55,12.46-78.51,10.71-12.72-.82-64.09-7.84-65.93-10.52,39.62-3.29,73.19-19.37,107-34.77,27.7-12.62,79-54.6,85.75-69.82-12.17-5-25.34-8.4-34.45-18.63-6.69-7.51-11.47-16.13-8.75-27.32,3.22-13.26,12.75-20.85,23.13-27.72,8.35-5.52,17.44-4,26.81-2.38,4.68.82,9.53,5.5,15.86.67-5.75-16.26-11.42-32.66-17.4-48.93-1-2.73-3.13-5.18-5.13-7.39-7.57-8.36-15.15-16.71-23-24.78-5.07-5.2-10-11.22-16.16-14.54-13.11-7-21.89-18.55-31.83-28.67a197.4,197.4,0,0,0-26.56-22.45c-10.29-7.33-21.61-13.23-32.59-19.55-7.71-4.44-51.36-12.06-54-14.44,6.31-1.88,11.14-3.86,16.16-4.66,5.45-.86,11.08-.55,16.62-.88,6.35-.37,44.17,2,56.79,3.25,11.46,1.09,40.9,12.92,44.61,15.43,5.75,3.88,44.84,25.47,55.09,31.67C817,169.71,855.24,200.8,865,221c1.56,3.25,22.94,22.88,31.53,29.32,5.61,4.2,12,7.49,18.19,10.77,4.88,2.56,7.84.81,8-4.77.16-5-.71-10.07-.75-15.11-.25-27.29-.38-54.59-.55-81.88,0-3.25,0-6.5,0-9.11-11.49-2.69-21.54-5-31.55-7.4-3.58-.87-7.3-1.58-10.59-3.14-12-5.68-23.74-11.82-35.7-17.55-11.14-5.34-22.47-10.8-34.78-12.14A88.41,88.41,0,0,1,781,102.15a12.4,12.4,0,0,1-4.47-3.34c-5.07-6.44-10.27-12.82-14.78-19.64-4.07-6.15-9.13-11.54-15.53-14.35-14.95-6.57-30.56-9.61-46.91-4.67-3.68,1.11-8.3,2-11.66.75-10.06-3.75-20.43-7.14-29.06-14-4.49-3.57-8.49-7.24-10.32-13.21-2.34-7.64-5.76-15-8.62-22.19-13.91-1.82-145.87-1.17-154.4,1.09,4.64,5.49,8.93,10.43,13.06,15.49,3.33,4.09,7.6,7.88,9.47,12.59,5.17,13,25.71,46.79,22.28,52.49-5,1.62-32.59-22.33-43.85-31.14-7.83-6.14-16.58-11.09-24.8-16.75C450,37.4,438.8,29,425.06,25.23c-4.75-1.31-9.27-3.43-13.88-5.22-14.41-5.58-29-9.67-44.76-9.49-29.91.34-59.82,0-89.74,0a75.84,75.84,0,0,0-25.6,4.12c-12.48,4.37-25.36,7.56-38,11.53-1.84.58-3.2,2.7-4.53,3.89,2.86,5.28,5.63,9.51,7.5,14.11,1.48,3.63,2.71,7.75,2.55,11.59a73.48,73.48,0,0,1-9.68,33.66C204.29,97.48,197,102.58,188,103.66a70.51,70.51,0,0,1-33.71-3.95c-13.52-5.13-18-34.95-17.56-38.6.37-3,1.11-6,.88-9-.12-1.59-1.72-4-3-4.3S131,49,129.83,50.3c-1.91,2.26-3,5.26-4.86,7.54-19.11,22.94-22.8,50.59-21.66,78.69,1,24.74,11.17,47.6,21.93,69.53,9.12,18.61,20.17,36.31,31.07,54,14.25,23.1,32,42.85,56.18,56.17,3.44,1.9,6.44,4.67,9.46,7.25S141.8,316.8,130.77,307c-8-7.08-16.09-14-24.23-20.85-13.29-11.22-27.16-21.81-39.8-33.72-9.21-8.68-18-18.32-24.85-28.89s-11.17-22.8-16.66-34.28c-1.14-2.39-2.56-4.66-4.85-8.79V413.6c4.72,2.56,9.76,4.59,14,7.74,5.91,4.42,12,5.09,18.95,3.78,12.79-2.4,25.69-4.24,40.19-6.58,1.57-5.38,4.1-11.94,5.33-18.74,2.72-15,11.09-26.65,22.39-35.72,7.45-6,13-11.35,10.88-21.67-.3-1.46,1-4.22,2.31-4.78s4,.12,5.38,1.16,2.09,3.39,3.36,4.92c6.83,8.22,13.15,17,20.77,24.4,13.14,12.78,28.72,23,39.76,38,.59.8,2.21.84,3.84,1.41,1.46-10.13,6.06-18.06,11.81-25.72a131.39,131.39,0,0,0,12.62-21.51c2.75-5.66,4.44-11.88,6.19-18,.92-3.21,1.77-5.83,5.78-5.44,5,.49,4.71,4.15,4.14,7.51-1.65,9.75,1.68,18.56,4.83,27.39,2.16,6.06,4.64,12,6.9,17.8l21.1-18.85c-.47-3.24-1-7.8-1.81-12.31-2.77-15.52-6.76-30.92-8.23-46.55-2.43-25.87,3.51-50.37,14.38-74a180.89,180.89,0,0,1,31.83-47.92c12.45-13.4,27.8-23.75,44.42-31.82,1.7-.83,3.16-2.13,4.83-3,13.43-7.32,25.63-17.2,41.37-19.69a63.12,63.12,0,0,0,12.66-3,118,118,0,0,1,45.22-7.48c9.62.21,19.14.92,28.72-1.52,3.57-.91,8,.59,11.78,1.67,12.49,3.54,24.73,8.16,37.37,10.93,14.35,3.15,25.35,11.54,36,20.58,6.77,5.75,12.4,12.84,18.87,19,20.57,19.52,32,44.12,39,71,5.51,21.17,8.42,42.68,6.18,64.69-1.08,10.67-1,21.45-2.21,32.1-1.91,17.45-7.89,33.88-14,50.2-1.69,4.55-6.09,8.18-7.45,12.76-2.7,9.14-10.13,14.74-15.63,21.32-9.35,11.19-21.38,20-34,27.7-13.94,8.53-27.8,17-43.67,21.49-7,2-14.68,3.23-20.73,7-5.28,3.25-10.2,4-15.94,4.39-19.5,1.18-38.64-1.88-56.86-4.93-2.64,3.83-4.85,6.76-6.78,9.87-3,4.78-6.83,9.36-8.28,14.59a74.7,74.7,0,0,0-2.28,20.93c.24,16.18-5.32,30.34-14.21,43.27-9.61,14-22,25.17-36.2,34.47-3.57,2.34-6.69,5.35-10.27,8.25,9.5,6.28,18.24,12.43,21.08,23.66,2.21,8.77,4.65,17.53,6.08,26.45,1.22,7.63,1.35,15.33,7,21.5,2.57,2.79,1.2,5.48-1.55,8.05-2.45-.64-5.7-.52-7.42-2.09-10.26-9.36-22.17-5.77-33.58-4.51-17.37,1.92-34.59,3-51.52-2.61-3.75-1.24-7.36-2.92-11.44-4.56-3.76,9-6.37,18.22-11.18,26.08-7,11.39-15.56,21.78-23.36,32.66-6.53,9.11-12.36,18.38-9.36,30.59.69,2.82-.48,6.1-.83,9.49-6.25-.91-9.12-3-10.44-8.13s-3-10.75-6.41-14.52c-7.55-8.44-15-17-24.59-23.58-11.28-7.72-21.79-16.61-32.3-25.39-3.79-3.17-6.63-7.48-10.24-11.67-16.37,13.32-32.93,23.35-51.82,28.22,4.52,9.34,8.5,17.44,12.38,25.6,2.16,4.55,5.19,7.2,10.56,8,8.56,1.25,17.26,2.7,25.36,5.6,12.17,4.35,25.08,8.24,33,19.69,4.13,6,7.37,12.6,10.74,19.08C200.66,812.85,204.1,824.63,213.22,834.83ZM323,354.2c3.69,12.95,13.21,21.91,23.15,30.37a48.23,48.23,0,0,1,6,6.55c7.06,8.73,11.06,19,14.76,29.45,2.72,7.69,3.85,8.2,11.87,6.46,15.26-3.3,29.34-1,43.46,6.21,9.95,5.11,21.39,7.32,32.2,10.69a8.92,8.92,0,0,0,4-.19c10.46-1.88,33.08-9.82,34.36-9.8,9.36.16,17-5.24,25.34-8.16,10.37-3.63,18.07-11.09,25.8-19.38,11-11.79,21.43-23.56,29.43-37.61,6.16-10.82,16.5-19.47,16.52-33.33,8.83-22.58,7.19-44.95.1-67.75-5.15-16.55-14.11-30.95-23-45.3-9.77-15.75-25.41-25.57-40.73-35.3C514,179.35,500,180.76,486.49,180c-12.13-.7-24.45-1.24-36.47.11-10.45,1.18-21.37-.45-31.46,4.7-4.66,2.38-43.91,17.64-56.18,28.39-21.74,19-33.83,43.1-38.42,70.95C321.42,299.66,321,346.91,323,354.2Zm74.76,560.62H815.09c-9-12.91-21.91-18.4-32.85-25.85-.66-2.66-.42-6.59-2.17-8-9-7.19-13.38-17.94-20.76-26.38-3.57-4.09-7-7.87-11.65-10.42-7.27-4-15.08-7.1-22.09-11.5-7.89-4.94-16.55-9.74-22.31-16.72-6.89-8.36-11-19-16.44-28.6-4-7-9.2-11.8-17.65-14.3-9.8-2.91-18.3.38-26.29,3.48a422.89,422.89,0,0,1-45.35,14.82c-16.26,4.3-31.29,13.32-46.82,20.37a16.72,16.72,0,0,0-3.93,3.06c-14.95,13.49-29.49,27.48-44.95,40.35-11.12,9.26-23.39,16.61-39.12,16-8.57-.31-17.29,1.42-25.82,2.94a28.64,28.64,0,0,0-11,4.81A74.81,74.81,0,0,0,397.81,914.81ZM919.11,590c-2.71.89-4.81,1.17-6.47,2.18-10.3,6.26-21.69,4.64-32.31,2.94a79.42,79.42,0,0,0-22.81-.42c-13.95,1.74-27.86,3.9-41.86,5-19.23,1.55-38.44,3.16-57,8.49-8.33,2.39-16.1,7-24.51,8.77-13.17,2.77-23.37,9.54-32,19.37-6.42,7.29-12.33,15.21-19.58,21.57a374.25,374.25,0,0,1-33.35,25.84c-16.89,11.72-36.33,18.13-55.48,25-7.93,2.84-15.68,5-24.11.46-4.86-2.63-10.75-3.34-16.17-4.92-8-2.34-15.92-3.7-24.61-2.48-9.45,1.32-17.85,5-26.74,7.65-13.78,4.06-24.32,13.36-36.55,19.81S443.22,746,433,755.72c-8.13,7.74-17.24,14.86-29.89,14.32a48.67,48.67,0,0,0-14.86,2.17c-5.74,1.61-12.19,3-16.61,6.55-8.52,6.92-16,15.19-23.6,23.17-9.16,9.6-16.14,21.27-29.21,26.93-18.74,8.11-30.3,23.44-39.38,41.23-7.2,14.11-11.49,29-15,44.86h41.81c9.08-9.24,15.69-19.74,19.21-31.63,4.29-14.5,13.59-25.33,23.8-35.48,4.11-4.09,9.73-6.92,15.08-9.45,12.94-6.12,26.18-11.61,39.2-17.57a136.93,136.93,0,0,0,14.9-8c11.59-7.16,23.23-14.27,34.45-22,10.78-7.4,21.77-14.25,34.15-18.6,9.19-3.23,18.29-6.42,23-16.19,1.11-2.3,3.58-3.94,5.45-5.85,10.37-10.64,24.46-14.76,37.24-21.1,11.86-5.88,24.9-4.2,37.5-4a71.81,71.81,0,0,0,31-6.53,330.41,330.41,0,0,0,66.8-40.73c3.42-2.67,7.25-4.83,10.8-7.35,16.12-11.44,32.73-22.28,48.05-34.7,6.76-5.48,13.3-6.82,21.08-6.47,1.65.07,3.32.73,4.93.6,22-1.71,43.87-4,66-2.56a58.09,58.09,0,0,0,18-1.48c16.85-4.38,33.64-9.08,50.2-14.46C920.61,607.09,921.55,604.68,919.11,590Zm1.73,197.75V664.89c-6.65,1.6-12.69,3.39-18.85,4.41-3.21.53-6.86-1.16-9.94-.37-14.53,3.72-28.67.77-42.27-3.28-21.39-6.37-40.32-2-55.87,12.67-14.29,13.51-31.56,20.7-49.31,25.93-13.23,3.89-22.79,9.89-30,21.31-6.46,10.19-3.88,20.19,7.59,23.74,6.33,2,13,2.88,19.58,4,12.31,2,23.85,5.94,34.21,13.09,4.3,3,7.17,6.58,7.77,12.06A151.71,151.71,0,0,0,787,797.22c.42,1.76,3.14,4.44,4.47,4.25,9.24-1.3,17.84,2.08,26.55,3.63,11.69,2.07,21-1.22,29.77-8.23,4.19-3.36,8.33-6.81,12.73-9.87,6.83-4.75,14.32-6.88,22.77-5.38C895.33,783.76,907.47,785.57,920.84,787.73ZM177.76,913.62c-1-7.66-6.18-14-10-20.93-5.84-10.54-13-20.57-12.82-33.39.25-15.57-6-28.63-15.39-40.44-3.57-4.5-8.22-7.1-14-9-10.33-3.49-22-2.72-31.21-9.73-4.5-3.42-8.94-7-13.87-9.74-5.92-3.24-7.61-7.86-6.78-14.1,1.36-10.27-2.61-19-10.55-24.58-10.69-7.45-12.64-18-11.89-29,1.36-20.06-1-38.69-14.77-54.38-4.7-5.34-9.6-10.5-15.84-17.3V915.32Zm48.43-462.2c-2.21,4.09-4.28,8.14-6.54,12.08-4,7-8,14-12.29,20.79-2.86,4.5-6.3,8.62-9.47,12.91-3,4-5.45,8.57-9,11.92-4,3.71-4.12,8.93-6.62,13.21-5.73,9.82-9.82,20.59-10.34,32.23-.73,16.58,1.69,32.77,6.23,48.72,3.55,12.48,11.11,21,23,26.17,6.85,2.95,6.93,3.13,11.71-2.59,6.68-8,13.55-15.82,20.38-23.68,16.77-19.3,22.41-42.44,23-67.27a18.6,18.6,0,0,0-1.53-6.84c-6-15.7-12.29-31.29-18.17-47C232.94,472.31,229.89,462.4,226.19,451.42Zm170.52,14.82c-5.1.42-8.29.5-11.42,1-15.76,2.34-31.53,4.65-47.25,7.22-16.16,2.65-31.63,7.31-45.36,16.69-9.21,6.29-9.68,10.74-6.1,21.26,4.18,12.24,8.54,24.94,9.42,37.67,1.11,16.21-3.31,32.14-11.63,47.84,4.64-1,8.76-1.06,12.15-2.67,18.72-8.91,37.57-17.64,55.78-27.53C366.47,560,378,549,380.62,532c1.26-8.22,1.1-16.79.52-25.13-.71-10.1.72-19.2,7.12-27.34C391.07,475.93,393.2,471.81,396.71,466.24ZM45,468.43c5.25,13.24,11.06,25.38,14.85,38.13,3.69,12.39,10.26,22.23,19.3,31.09,11,10.76,21.43,22.09,32.12,33.16,3.39,3.51,6.82,7,10.24,10.45-6.88-39.19,4.37-72.26,31.56-101.63-7.32-3.34-13.39-5.62-19-8.77-15.79-8.88-32.55-10-50-7.45C71.63,465.26,59.1,466.65,45,468.43Zm521.74,126.1c-10.75,2.78-21.15,5.1-31.3,8.23A136.12,136.12,0,0,0,515.52,611a14.8,14.8,0,0,0-8.34,12.91c-.37,5.63,2.16,10.11,7.13,12.26,7.31,3.16,14.79,6.82,22.52,7.9A174.44,174.44,0,0,0,598.6,642c12.75-2.8,21-12.87,12.94-25.18-3.71-5.65-8.93-11.58-14.86-14.2C587.38,598.51,576.9,597.12,566.76,594.54ZM921,73.94c-12.14-4.2-23.9-8.71-35.92-12.33-16-4.81-31.85-10-46.48-18.26a23.48,23.48,0,0,1-11.35-13.57c-.9-2.79-2.16-6.1-4.33-7.71-8.69-6.43-17-13.82-29.44-11.62-6.18,1.09-12.72.11-19.09.23-2.53,0-5.05.54-7.53.83,1,15.33,8.24,25.5,20.85,28.69,4.33,1.1,9.07.54,13.61.83,11.18.7,22,2.25,28,13.64,2.56,4.86,5.11,9.74,7.51,14.31,3.36.72,6.49.85,9.12,2.06a44.23,44.23,0,0,0,18.44,3.75c11.66.14,23.14,1.75,33.93,7,7,3.44,14.58,5.88,22.72,9.09ZM88,619.29a58.79,58.79,0,0,0-18.2-24.41,142.66,142.66,0,0,1-26.36-28.6C36.2,556.06,28.55,546.13,20.3,535c0,19.41-.08,37.77.11,56.13,0,2.19,1.22,4.52,2.33,6.53,6.06,11,14.21,18.91,27.34,21.26,7.57,1.36,16,2.23,20,10.19Zm100.53,40.52c-.09,18.93,5.12,29.7,18.42,36.87,4.83,2.6,10.75,6.53,15.19,5.51s7.57-7.47,11.3-11.53a20.18,20.18,0,0,0,2.78-2.88c8.28-13.94,11.34-28.54,6.19-44.71-11.79,6.56-17.91,16.82-23.57,28.31Zm-50-266.5c-15,16.57-12.77,34.33,4.63,45.48,5.87,3.76,11.57,7.78,17.38,11.62,6.37,4.2,10.77,3.23,14.86-3.23,1.43-2.26,2.68-4.63,4.22-6.8,4.92-7,3.54-11.82-4-16.08a78.7,78.7,0,0,1-13-8.93C154.48,408.38,146.79,401,138.5,393.31ZM286.67,636.1c7.09,5.79,14.17,9.44,18,15.25,4.35,6.62,10,8.94,16.6,11.44,12.15,4.59,25,3.59,37.47,5.69,5.33.9,7.6-2.29,5.08-7.25a39.8,39.8,0,0,0-6.88-9.83c-5.14-5.23-10.93-9.81-16.18-14.94-3.34-3.26-7-5.19-11.66-4.66-6.57.74-13.11,1.81-19.69,2.48C302.19,635,295,635.45,286.67,636.1ZM872.3,850.6c4.15,7.75,10.12,12.54,19.6,12.34,4.34-.09,8.69.75,13,.79,5.23.05,10.47-.3,15.48-.46,1.78-13.13,1.4-25.84-.77-32.69C899,828.31,883.43,834.22,872.3,850.6ZM309.14,410c-17.47,4.06-29.16,14.51-40.48,25.37a9,9,0,0,0-2.1,7.25c1.35,6,3.64,11.88,5.55,17.76,2.35-.52,3.56-.44,4.24-1,8.21-6.77,16.26-13.64,26.43-17.59,3.53-1.37,7.44-3.67,7.28-8.67C309.81,425.57,309.46,418,309.14,410Zm-207,275.09c9.57-2.54,18.34-4.36,26.7-7.33a17.39,17.39,0,0,0,9-7.6c3.13-6.1,4.83-12.94,7.06-19.31l-19-11.35C112.28,651.69,99.78,663.86,102.1,685.09ZM883.56,400.18c-8.34.11-10.47,2.07-10.45,9.62,0,7.22,3.26,10.7,10,10.75S894.41,415.23,894,408C893.75,402.55,890.44,400.08,883.56,400.18Zm29.63-72c4.86.2,9.1-4.35,9.16-9.84.05-4.47-3-7.49-7.49-7.46-5,0-8.72,3.58-9.17,8.72S908.19,327.92,913.19,328.13Z"/><text class="cls-3" transform="translate(342.31 417.19)">Data<tspan x="-140.11" y="146.4">Mappings</tspan></text><path class="cls-4" d="M7.21,172.82C40.42,208,91.51,223.87,138.46,228.58c25,2.5,49.2.81,73.82-3.56,16.42-2.92,33.84-5.62,50.23-1.06,12.81,3.57,25.32,11.65,30.57,24.32,2.29,5.52,3.14,11.69,7.74,15.93a21.34,21.34,0,0,0,12.95,5.25c13,.91,19-8.46,24.39-18.87,3.21-6.26,6-12.82,10.07-18.58a88.78,88.78,0,0,1,14.69-15.68c10.68-9.14,23.17-16.1,36-21.66s26.56-10.73,40.36-12.94a115.48,115.48,0,0,1,23.49-1.21c6.89.32,14.28.75,20.49,4,11.38,6,20.43,19.67,19.25,32.79-1.07,11.88-9.76,21.71-15.9,31.39-5.8,9.16-10.39,19.41-8.32,30.48s10.17,19.69,19.36,25.42c23.22,14.47,51.52,8.64,77.32,8.52a110.93,110.93,0,0,1,20.1,1.39l-1.49-3.67c-5,9.77-5.77,24.36,4.11,31.53,11.15,8.09,27,.19,35.19-8.52,11.59-12.36,14.19-29.5,14.1-45.83-.11-20.93-1.83-41.94-2.85-62.85l-1.6-32.76c-.44-9.08-1.7-19.27,3.18-27.44,6.84-11.44,22-16.58,34.69-16.9,16.81-.42,29.82,10.19,41.66,21,13.88,12.65,27.58,25.66,41.15,38.65,7.9,7.55,15.67,15.24,23.61,22.74,7.16,6.76,14.63,13.13,20.93,20.74,11.91,14.37,23.55,34.52,18.79,53.84l2.41-1.84c-18.71-2.49-42.82-6.82-56,10.46-9.52,12.48-12,33.72-2,46.67,10.35,13.39,31.31,17.1,47,19.09A217.83,217.83,0,0,0,847.78,381c8.79-.09,17.54-1.19,26.32-1.25,20-.13,46.93,5.22,52.83,27.62.82,3.11,5.64,1.79,4.82-1.33-4.33-16.46-19.27-25.36-35-28.95-16.76-3.83-33.33-1.18-50.26-1.09-18.61.1-38.51-1.17-55.93-8.3-7-2.86-14.33-7-17.8-14-3.89-7.84-3.75-17.61-1.34-25.85,3.13-10.71,10.57-18.66,21.64-21.05,11.74-2.53,24.22-.19,35.93,1.37a2.5,2.5,0,0,0,2.41-1.84c3.65-14.79-1.45-29.91-8.84-42.72-8.85-15.33-21.5-26.57-34.17-38.63-14-13.35-28.06-26.67-42.22-39.88-12.86-12-24.83-25.36-39.87-34.73-11.15-6.95-23.44-8.79-36.3-6.08-11.34,2.38-23.39,8.51-29.1,19.07-3.86,7.14-3.94,15.39-3.61,23.29.45,10.52,1,21,1.54,31.55,1,21.18,2.34,42.38,3.06,63.57.67,19.83-1.31,43.53-20.24,54.83-6.82,4.07-17.74,6.63-23.37-.65-5-6.41-3.79-15.84-.34-22.62.67-1.31.19-3.37-1.49-3.67-13.26-2.37-26.84-1.56-40.22-1-13.14.58-27,1.79-39.89-1.56-12-3.12-24.53-10.18-30.46-21.5-6.25-11.92-1.57-23.92,5.1-34.44,5.83-9.21,13.27-18.1,15.8-29,2.57-11-1.25-22.39-8.13-31.13-8-10.19-18.33-14.19-30.93-15.31a112.53,112.53,0,0,0-42,3.9c-25.28,7.55-50.92,18.22-70.31,36.62A85.66,85.66,0,0,0,343,230.75c-4.12,6.17-6.91,13.11-10.41,19.63-3.2,6-6.43,12.35-13.63,13.8-5.46,1.1-12.15-.28-15.85-4.71-4.35-5.19-4.85-13.22-8.54-19a45.61,45.61,0,0,0-11.45-12.06c-10.36-7.68-23.18-11.19-35.94-11.74-15.81-.68-31.35,2.8-46.83,5.44a213,213,0,0,1-35.8,2.82c-48.89,0-103.21-12.72-141.71-44.28a129.82,129.82,0,0,1-12.14-11.35c-2.21-2.35-5.74,1.19-3.54,3.54Z"/><path class="cls-4" d="M521.46,307.76c-11.81-5.29-25.29-1.29-35.1,6.39-11.79,9.23-15.09,23.81-20,37.22-3,8.17-6.85,16.06-13.26,22.12-5.69,5.38-12.85,9-20.22,11.49-14.21,4.78-29.7,6.16-44.59,7.13C374.1,393,357,393.89,345.6,384c-10.51-9.15-14.37-23.61-20.77-35.51-11.89-22.1-43.44-49.69-69.84-33.8-5,3-7.38,7.52-9.56,12.71a229.27,229.27,0,0,1-13.18,25.77c-10,17.38-21,34.49-27.14,53.74l4.18-1.1c-6.26-5.26-12.21-10.88-18.34-16.29-5.83-5.15-12.05-11.61-19.07-15.15-14.45-7.3-30.75,9.73-37.52,20.73-4.38,7.11-7.38,15-12.3,21.82-6.19,8.52-15,10.3-25.13,10-10.39-.29-20.86-2.39-31.17-.11-10.05,2.23-18.1,9.35-28,11.91-4.67,1.21-10.4,1.41-14.72-1.09-4.12-2.39-5.73-7-7.59-11.12C13,421,9.31,413.23,1.93,416c-3,1.12-1.69,6,1.33,4.82,5.74-2.15,9,11.44,11.22,15.07,3.72,6.09,10.33,8.74,17.3,8.64,8.73-.13,16.18-4.56,23.73-8.41,10.23-5.22,19.92-5.76,31.18-4.9,9.37.72,19.57,1.85,28.47-2,6.14-2.65,10.33-8.08,13.7-13.66,8.29-13.68,15.14-33.39,32.84-37.49,9.25-2.14,17.72,7.91,24,13.44,6.71,5.88,13.19,12,20,17.76a2.54,2.54,0,0,0,4.18-1.1c5.34-16.79,14.61-31.92,23.44-47,4.41-7.55,8.83-15.13,12.7-23,2.57-5.21,4.07-11.87,7.92-16.32,10.24-11.82,29.62-5.92,40.61,1.08,13,8.29,22.43,20.38,29,34.17,5.34,11.23,9.88,23.66,20,31.62s23.26,8.94,35.66,8.76a241.89,241.89,0,0,0,41.19-4.16c13.51-2.57,27.36-7.34,37.25-17.31,12.32-12.41,14.49-30.18,21.79-45.35,6.47-13.45,24.44-25.34,39.51-18.59,2.91,1.3,5.46-3,2.52-4.32Z"/><path class="cls-4" d="M205.93,402.58c-4.5,17.17-18.36,30.55-30.13,43.11-12.2,13-23.11,27-33.58,41.48-10.31,14.22-19.74,29.51-24.19,46.66-4.35,16.76-3.41,34.5,1.16,51.12a108.44,108.44,0,0,0,22.58,42.56,90.58,90.58,0,0,0,18.19,16c6.92,4.57,14.55,7,21.83,10.76,3.36,1.74,7.38,4.26,7.65,8.46.37,5.6-5.79,11.56-9.44,15.2-6.83,6.8-15.05,12-23.5,16.49-14.61,7.85-31.15,16.54-48.16,16.55-9.91,0-18.1-4.06-22.72-13.05-2.36-4.6-4-9.52-7.16-13.67a36.2,36.2,0,0,0-9.66-8.53c-8.74-5.47-19-8.47-28.64-12L3,650c-3-1.11-4.33,3.72-1.33,4.82l33.42,12.32c9.76,3.6,20.18,6.59,29.27,11.74a31.65,31.65,0,0,1,11,9.57c2.8,4.18,4.22,9.09,6.71,13.43a27,27,0,0,0,16.26,12.8c14.94,4.18,31.66-1.92,45.1-8.21,16.73-7.83,34.33-16.57,45.81-31.57,4.41-5.77,7.5-13,2.44-19.36-4.8-6.07-13.23-7.85-19.87-11.06-16.13-7.79-29-21-37.79-36.5a106.23,106.23,0,0,1-13.86-52.23c.08-19.73,7.71-37.83,18.22-54.2a356,356,0,0,1,38.86-50.1c13-13.91,28.52-28.51,33.5-47.54.82-3.12-4-4.44-4.82-1.33Z"/><path class="cls-4" d="M930.23,529.83c-9.46,8.39-23.54,4.43-34.64,2.4a142.88,142.88,0,0,0-16-2.25c-6.62-.45-12.71.93-19.25,1.33-12.43.76-24.77-2.8-36.94-4.81C811,524.43,800.11,524.6,788,528.2c-26.71,7.92-51.22,21.68-77.72,30.17-28.2,9-58.85,8.72-87.68,2.69-26.83-5.61-51.1-19.59-78.8-21.21-12-.7-24.34.7-35.59,5.14-11,4.35-21.3,11.84-31.08,18.49-10.19,6.92-18,16.64-28,23.92a130.61,130.61,0,0,1-34.23,18,118.83,118.83,0,0,1-38.58,6.69c-14.24,0-28-3.27-41.68-6.8-14.59-3.76-29.57-7.92-44.78-7.39-13.62.48-26.37,5.58-37.59,13.15-9.7,6.54-17.83,14.93-26.09,23.12-10.92,10.84-22.48,20.58-35.71,28.51-2.76,1.65-.25,6,2.52,4.32a178.7,178.7,0,0,0,31.74-24.43c7.69-7.36,14.89-15.27,23.13-22,9.83-8.08,21.74-14.83,34.41-16.92,14.2-2.34,28.7.86,42.45,4.29,13.18,3.29,26.29,7.15,39.84,8.58a117.9,117.9,0,0,0,38.06-2.4,134.65,134.65,0,0,0,64-35c4.48-4.37,8.82-8.56,14.07-12s10.59-6.61,15.76-10.13a70.66,70.66,0,0,1,36.35-12.13c13.29-.74,26.59,1.47,39.27,5.35,14.14,4.32,27.5,10.49,41.92,14.06,27.09,6.71,57.21,8.93,84.57,2.58,27.08-6.28,51.7-19.93,77.67-29.44,7.33-2.68,14.91-5.38,22.59-6.85,7.15-1.37,14.61-.57,21.74.54,13.12,2.05,26.4,6,39.8,5.24,7.05-.42,13.65-1.84,20.79-1.21,6.89.61,13.65,2.13,20.46,3.3,11.2,1.92,23,3,32.12-5,2.41-2.14-1.13-5.66-3.54-3.54Z"/><path class="cls-4" d="M186.37,661.07c4.85,7.38-4.65,13.79-9.73,17.95-7,5.77-15.05,11.63-19.14,20-7.51,15.44,23.15,21.8,31.91,26.78C210,737.55,222,761.63,233,781.57c2.68,4.84,4.8,6,9.6,8.44,6,3.05,6.52,10.54,7.41,16.5.76,5.08,1.67,10.26,4.86,14.45,3.55,4.67,9.09,6.64,13.66,10.06,11.91,8.9,10.09,25.86,7.18,38.62-3.81,16.7-9.38,33.12-14.15,49.56-.9,3.1,3.92,4.42,4.82,1.33,4.45-15.34,9.32-30.62,13.31-46.09,2.76-10.72,4.89-22.84,1.46-33.66a27,27,0,0,0-7.93-12.37c-4.77-4.11-11.73-6.08-15.14-11.61-5.57-9-1.22-23.05-10.86-29.95-2-1.42-4.5-1.79-6.51-3.12-2.37-1.58-3.61-5.11-5-7.54C233,771.09,230.12,766,227.11,761c-6.37-10.59-13.5-21-22.44-29.56-7.42-7.14-15.4-11.42-24.77-15.32-5.14-2.14-21.67-7.1-17.83-15,4.74-9.75,15.26-15.63,23-22.7,5.82-5.32,10.59-12.29,5.62-19.85-1.76-2.68-6.09-.18-4.32,2.52Z"/><path class="cls-4" d="M598.28,312.13c.39-9.82.24-19.9-2.69-29.37-2.58-8.34-7.27-15.63-13-22.15-13.25-15.05-33.6-31.73-28.51-54.31,4.24-18.8,21.79-31.63,32.2-47,2.32-3.41,4-7.3,6.74-10.41A62.27,62.27,0,0,1,605,139c7.27-5,14.93-10,22.66-14.23s18.1-4.39,26.72-4.54a284.37,284.37,0,0,1,30,1.52c19,1.69,37.87,4.91,55.94,11.13s35,15.41,51.13,25.63,29.85,22.13,43,35.89c14.76,15.44,28.71,31.77,44.77,45.9,14.15,12.45,30.43,23.55,49.41,26.56,3.15.5,4.5-4.32,1.33-4.82-18.37-2.91-34-13.61-47.7-25.71-14.64-13-27.54-27.73-40.93-41.93-12.89-13.67-26.23-26.46-42-36.76C782.84,146.85,765.63,137,747.14,130c-17.49-6.63-35.82-10.35-54.37-12.44-19.38-2.18-41-4.82-60.18.09-7.91,2-14.66,7.27-21.52,11.5-7.85,4.84-16.39,9.94-22.36,17.12-2.54,3.05-4.18,6.67-6.37,10A136.88,136.88,0,0,1,572.4,169c-6.23,7.31-12.88,14.46-17.74,22.8-5,8.61-7.53,18.3-5.75,28.24,2,11.3,9.18,20.84,16.57,29.28,7.91,9,17.39,17.17,22.69,28.15,5.22,10.8,5.57,22.89,5.11,34.66-.13,3.22,4.87,3.21,5,0Z"/><path class="cls-4" d="M796.21,526c-27.48,10.3-50.76,31.76-69.26,54-18.64,22.41-30.21,49.21-47.27,72.66C662,677,634.56,695,605.43,702.61a125.71,125.71,0,0,1-24.16,3.85,51.93,51.93,0,0,1-23.4-3.71c-7.39-2.88-14.46-5.2-22.46-5.37a71.22,71.22,0,0,0-23,3.6c-17.82,5.68-33.9,16.29-49,27.13a352.12,352.12,0,0,0-42.89,36.41c-2.28,2.27,1.25,5.81,3.54,3.54a344.26,344.26,0,0,1,39-33.51c13.67-10,28.19-20,44-26.32a74.92,74.92,0,0,1,24.88-5.8c8.54-.33,16,1.78,23.85,4.86,7.08,2.77,13.62,4.61,21.28,4.38A135.13,135.13,0,0,0,599,709.21c27.54-5.4,55.23-20.32,74.38-41,19.71-21.25,30.75-48.55,47.35-72a226,226,0,0,1,33.58-37.45c12.76-11.44,27.09-21.91,43.25-28,3-1.12,1.69-6-1.33-4.82Z"/></g></g></svg>