<svg xmlns="http://www.w3.org/2000/svg" viewBox="0 0 923.13 923.21"><defs><style>.cls-1{fill:#ce242b;}.cls-2{fill:#fed6af;opacity:0.41;}.cls-3{font-size:122px;fill:#fff;font-family:Georgia, Georgia;}.cls-4{font-size:60px;}</style></defs><title>embodiment_1</title><g id="Layer_2" data-name="Layer 2"><g id="embodiment"><rect class="cls-1" width="923.13" height="923.13"/><path class="cls-2" d="M1.21,0H922.39V921.29c-7,2-907.11,2.63-920.61.64C-.09,914.72-.8,15.54,1.21,0Zm912,500.23c-2.94-2.63-5.47-4.24-7.12-6.5A173.39,173.39,0,0,1,895,477c-7.3-12.91-17-22.4-32.51-23.8-9.62-.86-19.28-1.56-28.93-1.9-19.25-.68-36.8-4.73-50.91-19.55-6.2-6.51-6.6-12.56-3.86-19.95,3.89-10.51,8.95-20.48,11.1-31.75,1.88-9.84,2-18.4-5.19-26.13-1.76-1.9-3.77-4.49-3.88-6.85-.56-11.5-3.3-22.83,1.23-34.57,3.52-9.13,4.55-19.35,5.75-29.21,1.74-14.25,2.75-28.6,3.83-42.93a181.2,181.2,0,0,0,.71-22.1c-.52-11-4.21-14.27-15.08-13.86a57.32,57.32,0,0,0-12.7,2.34c-7.36,2-14.58,4.52-21.93,6.57-6.62,1.84-12.44.62-17.32-4.76-2.21-2.44-5.48-3.89-7.87-6.2-5.55-5.37-11.6-5.36-18.45-2.95-11.32,4-20.18,11.31-28,20-7.24,8.05-16.06,11.35-26.76,11.2-14.8-.2-27.33-5.72-38.18-15.33-9.45-8.37-20.87-11.44-32.89-13.3-20.77-3.2-41.65-5.85-62.25-9.92-15.42-3-21.84-11.89-22.72-27.43-.69-12.24.57-14.24,11.28-19.59,2.92-1.46,6.75-3.11,7.92-5.7,4.12-9.1,8.06-18.68,1.35-28.37-3.58-5.17-6.65-11.32-11.53-14.82-11.31-8.1-22.24-17.1-36-21.28-7.5-2.28-14.76-5.38-22.28-7.58a25.53,25.53,0,0,1-18-19.65c-2.45-12.69-5.33-25.26-2.7-38.74H408c-31.89,0-63.78-.34-95.66.29-10.52.21-22.37.56-25.6,14.73-.24,1.07-1.89,1.79-2.84,2.73-18.4,18.18-41.08,28.19-65.79,34.2-14.42,3.51-28.36,2.68-41.85-4.43-8.06-4.25-13.2-9.85-14.13-19.21-.27-2.74-2-5.4-3.3-8-1.64-3.2-3.76-6.17-5.28-9.42-3.37-7.22-7.72-11.9-16.84-11.09-12.64,1.13-25.38,1.43-38.08,1.58-19.8.24-39.61,0-59.41.09-2.92,0-5.84.35-7.1.43-5.29,11,2,18.53,5.77,26.12C43.2,47.63,51.94,56.47,58.33,66.64,67.79,81.7,82.71,88.32,98.48,92.92s31.82,7.47,47.84,10.76a154.83,154.83,0,0,0,19.76,2.51c17.6,1.29,35.54-3.16,52.87,3.13.81.29,2-.52,2.93-.47,12.1.62,24.21,1.22,32.69,11.89.78,1,2.33,1.31,3.4,2.11,10.76,8,21.2,16,24.47,30.38,2.55,11.29,2.09,22.31-.05,33.35-.71,3.65-2.68,8.19-5.55,10.08-11.62,7.65-23.3,15.59-35.94,21.23-16.16,7.22-33.43,5.53-50.25,1.1a27.16,27.16,0,0,0-20.5,2.16c-14.07,7.73-15.14,20.95-2.52,31.62,7.67,6.49,17.36,9.87,27.72,10.52,6.32.4,12.67,1.9,18.92,1.5,5.08-.33,10.13-2.15,15.06-3.82a148.08,148.08,0,0,0,14.76-5.91c7.12-3.31,14.84-5.84,21.22-10.28,13.26-9.22,27-15.64,43.66-13.76,9.64,1.09,19.06,2.22,27.82,7.26,8.05,4.62,17,7.58,24.17,13.9,11.94,10.49,18.12,23.28,18.78,39.28.51,12.35-4.17,23.43-9.31,33.53-6.31,12.4-13.36,25.29-26.72,32.45a9.45,9.45,0,0,0-3.74,4.29c-2.06,4.59-5.77,6.86-10,9.12-8.45,4.48-17,4.75-26.23,3.28-17.28-2.77-32.27,1.59-44,15.74,2.1,3.28,3.34,7.62,6.11,9.12a244,244,0,0,0,31.43,14.73c7.09,2.61,15.4,1.91,22.53,4.46,11.88,4.24,24.11,7.68,35,14.59,7,4.46,12.72,9.71,16.59,17,2,3.84,3.68,7.93,6,11.62A42.61,42.61,0,0,1,384,486.23c-.8,16.52-3.87,32.78-12.59,47.09a55.91,55.91,0,0,1-27.82,23.5c-18.44,7.17-36.79,4.86-53.32-4.28-19.23-10.63-37.65-22.93-55.51-35.76-17.46-12.54-41.17-13-58.51,1.38,1.45,11.66,5.64,21.76,17.29,27.67a99.26,99.26,0,0,1,12.75,8c5.79,4.14,8.38,9.77,8,17.13-.54,9.09-6.61,14.22-12.66,19.5-3.27,2.85-7,5.27-10,8.4-12.27,12.91-24.24,15.3-40.37,8.09-17.33-7.75-28.63-22.19-38.12-37.31-18.25-29.08-14-60.1-4-90.91,4-12.33,8.79-24.45,12.21-36.94a61.34,61.34,0,0,0-2.57-41.2c-3.15-7.35-6.7-8.73-14.34-6.7-9.94,2.64-17.17,12.52-18.47,25-.76,7.31-2.39,14.59-2.42,21.89,0,8.16-4,13.66-10.43,17a214.14,214.14,0,0,1-27.6,11.55c-2.63.91-7-.27-9.35-2.07C28.76,461.53,22,455.12,14.91,449c-1.35-1.18-2.74-2.32-5.54-4.67,0,5.09,0,8.34,0,11.6,0,27.86.61,55.74-.26,83.57-.43,13.83,5.34,24.49,12.73,34.87,10.57,14.85,23.74,26.82,38.86,37.28,20.46,14.14,40.71,28,65.77,32.65,5.75,1.08,6.8,3.51,6.87,12-5,1.05-10.06,2.57-15.28,3.17q-21.36,2.48-42.8,4.31c-20.9,1.75-41.86,4.32-62.53-2-.72-.22-1.76.57-2.54.86-1.53,12.84.5,54.42,3,59.44,3.27-3.42,6-7.37,9.74-10C41.15,698.88,61.57,693,84.07,694.77A122.51,122.51,0,0,1,97,696.49c11.48,2.16,23,4.48,32.1,12.59,3.72,3.3,6.83,7.32,10.68,10.44a50.93,50.93,0,0,1,13.89,16.92c6.31,12.55,17.12,17.84,30.78,18.44A25.25,25.25,0,0,0,204.29,747c11.66-11.62,13.72-20.92,5.65-35-7.55-13.16-9.44-27-7.79-41.58,2-17.53,6.34-34.13,18.6-47.71,9.49-10.52,20.62-17.9,35.06-19.37,9.69-1,18.38.53,26.12,7.49,6.08,5.46,10.95,11.28,14.23,18.8,10.94,25,15.49,50.88,12,78.22-1.11,8.82-.48,18,.4,26.9.71,7.23,3,14.31,4.54,21.46,3.73,17.46,12,32.46,24.28,45.34a128.22,128.22,0,0,0,12,11.79c9.36,7.55,20.16,8.25,30,2.19,9.52-5.88,10.24-16.13,9.68-26.77a237.09,237.09,0,0,1,.55-37.67c1.82-16.82,18.62-31,35.49-31,9.4,0,18.55,1.4,26.23,8,5.32,4.54,11.47,8.12,16.76,12.7a31.44,31.44,0,0,1,7.11,9.44c6.11,12,9,25.16,11.12,38.31,2.67,16.46,4.4,33.08,6.28,49.66A65.33,65.33,0,0,0,511,877.12c4.1,4.29,7.18,9.54,10.81,14.29a82.32,82.32,0,0,0,6.09,7.34c3.16,3.27,6.52,6.35,9.86,9.43,1.92,1.76,3.93,4.75,6,4.82,11.82.45,23.7,1,36.79-.37-2.79-3-4.5-5-6.4-6.74-9.45-8.87-14.83-19.52-15.2-32.57a86,86,0,0,0-1.17-12.94c-2.59-14.21-.92-28,1.93-42.06,2.55-12.55,9-22.93,16-33,5.63-8.19,12.52-15.62,19.52-22.73,5-5.12,11.2-9.15,17-13.82-4.43-8-8.86-15.46-12.75-23.18-8-15.86-6.54-33.1-3.42-49.26,2.9-15,2-29.16-.94-43.53-3-14.6-10.11-26.61-23.66-34.26-4.64-2.62-8.68-4.23-14.1-2.3-9.08,3.23-18.54,5.4-27.61,8.66-20.37,7.31-40.6,15-60.88,22.57-5.59,2.09-11,4.77-16.76,6.28q-21.72,5.72-43.66,10.57c-24.86,5.54-83.2.41-84.65-7.55,17.06-6.41,35.53-9.38,50.86-20.22.78-.55,2-.53,2.84-1,13.22-7,26.48-13.9,39.62-21,11.91-6.47,23.71-13.15,35.52-19.81a73.84,73.84,0,0,0,9.37-5.84c9.89-7.73,53.79-42.73,64.7-53.85,3.68-3.76,8.21-6.82,11.32-11,6.09-8.15,15.14-21.68,20.65-29.91-11.39.81-21.19-3.34-29-10-2.77-2.37-9.76-8.14-10.58-26.31.33-10.4-.26-14.7,3.53-23.05,7.86-17.36,16.22-21.53,23.59-24.41,15.58-6.09,27.81-1.36,42.41,5.62,10.57,5.05,17.61,13.15,18.8,25.41a24.88,24.88,0,0,0,1.48,4.7,18.94,18.94,0,0,0,3.17-1.81q15.33-14.34,30.59-28.75c9.94-9.35,20.14-18.45,29.72-28.16,6.5-6.59,12.09-14.14,17.64-21.55,4.77-6.36,9.34-12.87,13.81-19.45,8-11.8,16.71-23.2,24.24-35.31,8.81-14.16,16.92-28.76,25.38-43.14,1.12-1.91,2.56-3.63,3.87-5.47-.21,10.79-.51,49.15-2.43,57.11-5.37,22.35-10,44.85-15.89,67.11a532.33,532.33,0,0,1-26.08,76.43c-6.26,14.42-9.22,29.37-4.13,44.89,4.44,13.55,9.08,27,13.68,40.71-5.35,5.76-11.61,11.44-16.58,18.09-6.2,8.3-11.33,17.41-16.93,26.16-11.44,17.87-18.11,37.19-17.35,58.64.07,2,1.07,5,2.5,5.7,2.9,1.33,5-.72,5.72-3.79,1.11-4.51,2.33-9,3.36-13.52,2.75-12,10.54-21.52,16-32.15A280.24,280.24,0,0,1,741.34,528a64.85,64.85,0,0,1,25.73-17c19.7-7.37,39.85-13.52,60.77-16.69,3.91-.59,7.7-2.92,11.55-2.91,16.12,0,31.74,2.22,45.85,11.17,8.8,5.58,18.18,10.27,28,15.74ZM37.75,378.49c2.58,0,4.68-.42,6.54.07,9,2.35,14.77-2.49,19.33-9A98.84,98.84,0,0,0,72.88,353a28.93,28.93,0,0,1,15.29-14.84c11.51-4.78,23.64-5.33,35.82,0a98.78,98.78,0,0,1,32.47,23c8.45,9,15.12,19.51,15.51,32.78.37,12.71,1.28,25.39,1.85,38.09.59,13.33,10.74,26.79,22.58,30.31,15.27,4.54,31.1,4.24,46.72,5.28,10.09.67,14.82-8.06,10.18-16.94-4.28-8.19-10.64-14.13-19.46-17.1a122.56,122.56,0,0,0-13.48-3.69c-8-1.72-13.91-6.32-18.32-13s-8.84-13.33-13-20.18c-5.25-8.74-7.4-18.84-3.54-27.92,6.76-15.87,18.05-28.25,36.08-31.45,9.79-1.74,19.9-1.68,29.86-2.53,9.49-.81,18.48-3.15,25.59-10,5.44-5.24,5.63-21.31-.29-23.41-8.3-2.95-16.52-8-26-5.78-8.1,1.89-16,4.88-24.13,6.33-8.86,1.56-16.36,5.46-23.61,10.39-2.44,1.66-5.18,3.34-8,3.92-9.48,1.93-19,3.86-28.61,4.88-12.86,1.37-25.26-.11-35.44-9.4-6.17-5.63-12.22-11.41-18.52-16.89-19.11-16.63-33-35.65-36.73-62.05-4-28.47,17.86-50.66,41.4-53.91,13.21-1.82,26.65-2.06,40-2.75,6.17-.32,11.89-1.14,15.86-6.13-1.38-11.29-7.89-17.41-18.28-18.49-11.25-1.16-22.76-2.42-33.92-1.3-13.61,1.36-26.53-.9-39.64-3.19-15.65-2.74-29.62-9.66-43.56-16.92-8.39-4.37-16-9.37-22.18-16.63-1.34-1.58-3.33-2.61-5.16-4C6,131.84,13.55,151.35,20.9,170.68c4.85,12.74,11.05,25,17,37.3,10.42,21.72,20.71,43.51,31.82,64.88a120.15,120.15,0,0,0,17,24.55c4.94,5.51,6.34,10.45,4,17.56-2.1-.47-4.12-.56-5.78-1.37-6-2.92-12.11-5.79-17.84-9.22-9.73-5.82-19.5-11.59-27.34-20.08s-16.08-16.86-24.27-25.15c-1.19-1.2-3.11-1.67-6-3.15,0,16.17,0,30.85,0,45.53C9.31,320.94,16,338.92,21.3,357.17c.53,1.83,2,3.43,3.24,5C28.85,367.59,33.25,372.94,37.75,378.49ZM218.92,846.25c3.15,1.26,5.28,1.82,7.11,2.9,3.44,2,6.54,4.69,10.07,6.51C250.33,863,264.7,870,279,877.3c6.53,3.33,12.71,7.44,19.43,10.3,10.44,4.44,21.2,8.14,31.84,12.12,9,3.37,18.33,6.13,27,10.27,4,1.94,7.61,3.48,12.14,3.46,30.88-.13,61.77-.06,92.65-.09,2.18,0,4.36-.29,7.11-.49-2.27-6.09-4.28-11.37-6.21-16.67-4.23-11.63-8.54-23.24-12.58-34.93-3-8.56-9.1-14.78-15.18-20.95-4.56-4.63-7.11-4.92-12.16-.38a74.23,74.23,0,0,0-12.74,15.15c-6.2,9.69-14.44,17.25-23.06,24.54a8.5,8.5,0,0,1-3.71,1.36c-14.13,2.91-28.35,4.74-42.84,4.22a52.13,52.13,0,0,1-21.19-5.48C289,865,277.94,838.17,275.23,807c-1-11.75-1.95-22.87-6.36-34.13C265.39,764,260.5,759,251.1,756.36c-1.68,2.2-4,4.3-5.15,6.91-3.36,7.52-6.36,15.2-9.31,22.89-3.85,10.06-7.56,20.16-18,25.59-.89.46-2.28.79-2.55,1.51-3.9,10.71-12,6.64-19.29,5.64l-20.12-2.76c0,6.7,1,12.49-.19,17.8-3.43,15.46-10.16,29.05-24.87,37.19-3.21,1.78-6,4.41-9.23,6.07a57.91,57.91,0,0,1-11,4.17c-6.44,1.75-13.08,2.78-19.47,4.69-6,1.78-7.95,6.53-8,12.52,0,5.83,2.61,9.81,7.95,11.45,5,1.55,10.3,3.16,15.48,3.19,43.64.25,87.28.14,130.92.14h9.63C248.44,892.1,226.46,875.48,218.92,846.25ZM913.14,267.63C898.06,264.1,895,253,894.57,240.08c-.06-2,0-4,0-6,.11-6,.56-12.09.27-18.1-.17-3.57-.3-8.32-2.48-10.4a79.11,79.11,0,0,0-18.29-13.34c-10.52-5.33-19.41-11-22.09-23.86-2.52-12.13-10.49-20.65-22.09-25.49-7.69-3.21-15.23-6.85-23.08-9.59-9-3.15-18.27-5.76-27.55-8.11-3.72-.94-7.84-.18-11.65-.87-15.84-2.86-31.66-3.95-47.67-1.32-11.2,1.84-22.45,3.49-33.74,4.62-9,.9-14.54-2.83-18.25-11-1.5-3.33-2.81-6.74-4.67-11.23-3.49-.11-7.32-.41-11.15-.3-7.6.22-15,3.62-22.82.89-6-2.07-12.47-2.69-18.38-4.89-7.2-2.69-13.66-6.25-17.37-14.15-3.06-6.52-8.11-12.15-12.59-17.94-5.11-6.61-11.6-12.39-15.62-19.57-5.17-9.23-12.65-15.07-21.17-20.65s-16-12.38-24.83-19.32H484.65c-1.57,6.78,1.32,12.07,4,17.4,2.27,4.46,5.13,8.74,6.68,13.44C500.53,56,513.21,62.6,527.72,65a55.54,55.54,0,0,1,23.84,9.44c16.09,11.26,28.55,26,40.76,41.16,4.05,5,10,8.6,15.27,12.54,4.51,3.36,9.71,5.85,13.92,9.52,5.89,5.13,11.82,5.58,18.47,2.22,2.37-1.2,4.69-2.49,7.09-3.61,8.94-4.15,18-5.07,26.88,0,4.35,2.45,8.6,5.09,12.79,7.81,13.26,8.61,14.49,8.76,27.47-.29,4.84-3.37,9.43-4.48,14.82-1.67,4.42,2.31,9.07,4.18,13.43,6.59,6.93,3.83,14,5.62,22,4a149.86,149.86,0,0,1,15.93-2c2.29-.21,5.72-.74,6.77.48,4.55,5.31,10.07,1.77,15,2.25,3.6.35,7.31-.37,11-.77,6.35-.7,10.31,2.44,12.39,8s4.34,11.32,5.42,17.19c2.3,12.48,4,25.07,5.72,37.64,1.07,7.91,2.26,15.88,2.34,23.84.11,11.25-4.27,21.54-8.46,31.79-4.45,10.88-4.4,22.16-2.21,33.46,1.11,5.74,4.55,8.55,10.29,9.14,2.66.27,5.37,0,8,.11,12.89.36,24.25,5.78,33.79,13.44,17,13.64,19.27,32.47,14.26,52.44-3.59,14.31,3.79,28,18.19,32.09a9.43,9.43,0,0,0,.42-2q.07-29.7.09-59.39c0-13.18.58-13.6-7-23.87-7.35-10-16.26-18.07-30.34-17.68-12.92.36-20-5.47-22.39-18.14-1.14-6.12-.64-12.63-.31-18.93.62-11.61,1.72-23.19,2.48-34.8a9.16,9.16,0,0,0-1-4.87c-3.49-6.12-2.89-12.57-2.61-20.26,7,2.58,10.31,7,12.44,12.9,2.45,6.81,3.86,14.24,10.7,18.73,1.42.93,2.11,3.37,2.6,5.26,3.43,13.21,11.77,22.91,21.66,31.8,4,3.63,8,5.35,13.5,4.26Zm-126,561.31c-10.37-.71-17.07,5.67-24.53,10.6C751.83,846.69,740.57,852.75,727,853c-13,.22-26,.82-39,1.67-2.16.14-4.18,2.41-6.26,3.69,1.45,2,2.48,4.67,4.43,5.89,3.94,2.47,8.45,4,12.59,6.19a21.47,21.47,0,0,1,8.35,30.7c-2.51,4-5.6,7.67-8.66,11.81,33.09,2,206.86,1.05,214.61-1.13,1.8-27.89,1-80.78-1.41-87.52-3.39,3.94-7,7.71-10.11,11.83C885.35,857.3,865,870.3,837.38,868.39c-8.57-.59-17.58-.61-24.84-6.51-8.36-6.79-16.37-13.85-20.42-24.34C790.95,834.49,788.86,831.8,787.19,828.94ZM10,912.7H34.2c-.56-8.26-1.23-15.85-1.52-23.46-.17-4.56,1.93-8,5.48-11.2,13.51-12.34,29.67-17.82,47.46-18.52,10.33-.41,17.72-4.56,23.4-12.87s5.16-14.08-1.91-21.36c-15.38-15.86-34.88-20.5-55.7-18.56C37.49,808,24,810.59,10,803Zm694.14-903H600.43c2.07,2.88,3.23,4.8,4.68,6.46C612,24,619.55,31.46,625.79,39.86c4.71,6.34,7.86,13.86,11.6,20.91,2.15,4.05,5.12,5.69,9.83,4.87,7.2-1.25,14.86-.91,21.63-3.26,11.46-4,21.5-.52,30,5.62,7,5.07,14.55,6.2,22.15,7.73,10.77,2.17,15.17-3.25,11.77-13.77a52.52,52.52,0,0,0-4.82-9.86c-3-5.19-7.28-9.9-9.14-15.44-2.46-7.36-7.29-12.89-12.42-17.78C703.13,15.77,704.44,13.17,704.16,9.66Zm80.2,773.11c-1.48-6-2.93-10.83-3.81-15.72-2.89-16.19-5.12-32.28,7.37-46.13,2.42-2.68,3.88-6.23,5.75-9.39,10.22-17.28,21-34.23,30.49-51.93,10.86-20.34,20.74-41.23,30.56-62.11,3.87-8.23,9.18-16.22,8.67-26.74-5.35.84-11.27-2.14-14.1,4.9-4.33,10.76-8.23,21.72-13.07,32.24-7.11,15.44-13.56,31.42-22.7,45.62-13.71,21.3-29.09,41.57-44.59,61.64a186.69,186.69,0,0,1-25,25.87c-5.92,5.19-13.05,9.86-20.45,12.33-18.72,6.25-37.89,10.78-58,7.7-7.09-1.08-9.32,1.08-11.3,9,40.3,8.57,76.61.55,109.4-27.16-.13,17.66-3,34.27,9.18,48.91ZM913,648.54l-2.62-.54c-1.12,3.26-2.9,6.45-3.2,9.78A55.33,55.33,0,0,1,903.64,672c-11.9,32.8-30.94,61.68-48.71,91.28-.34.57-1.17,1.05-1.18,1.58,0,2.14-.31,4.57.6,6.31.41.77,3.66.66,5.26,0,2.45-1,4.55-2.79,6.87-4.14,10.72-6.25,22-4.3,33.23-2.1,7.18,1.4,7.69,8.69,11.59,13,.26.29,1.11,0,1.73,0ZM913,8.39,870.49,11c0,8.44-.12,15.76,0,23.08.11,4.56-.48,9.61,1.24,13.57,3.3,7.6,7.85,14.68,12.19,21.79,6.59,10.79,16.28,19.5,20.93,31.64,1.25,3.26,3.37,6.49,8.13,6.9Zm-78,82.9C820.36,65.65,817.56,38,817.33,9.38H770.93c2.42,2.66,4.85,3.93,3.62,8.13-1.16,4,.46,9.19,2,13.45a137.21,137.21,0,0,0,9,20A200.58,200.58,0,0,0,800,73.73C808.49,85.09,821.35,88.64,835.07,91.3ZM121.4,770.12c0-2,.46-3.5-.07-4.51-5.39-10.16-12-19.53-22-25.54-12.67-7.6-26.27-7.19-39.66-2.24-3.48,1.28-6.67,4.6-8.88,7.77-4.54,6.48-2.85,13.41,3.14,18.69a24.63,24.63,0,0,0,22.49,5.78c9.1-2,17.86-1.13,26.86-.07C109.11,770.68,115.08,770.12,121.4,770.12Zm448-602.62c-3-9.58-11.33-14-17.76-19.9-2-1.85-6.68-1-10.14-1-1.77,0-4.19,1.75-5.19,1.07-4.91-3.34-6.86.59-8.45,3.49-4.23,7.67-1.17,18.23,6.19,22.94C545.59,181.48,559.52,179.15,569.37,167.5ZM837,358.44c-5.93,6.82-11.15,24.35-9.62,34.79.77,5.27.88,11.43,6.77,14.57,10.22-10.57,14.32-28.31,11-47ZM603.14,561.58c-2.86,5.21-.35,9.63,4.48,11.27,7.18,2.44,16.29-.4,19.91-6.19C633.73,556.71,607.36,553.9,603.14,561.58Zm67-54.64c-.19,9.1,3.07,14.3,8.86,14.15,4.57-.12,8-5.64,8.07-12.89,0-5.71-3.71-9.67-9.12-9.64C673.06,498.57,670.21,501.63,670.1,506.93Z"/><text class="cls-3" transform="translate(102.57 429.26)">Additions <tspan class="cls-4" x="555.55" y="0">of/in</tspan><tspan x="688.56" y="0"> </tspan><tspan x="5.15" y="146.4">Embodiment</tspan></text><path class="cls-2" d="M919,522.51a8.89,8.89,0,0,1-7.33-5.15c-9-4.94-17.56-9.31-25.67-14.45-14.11-9-29.73-11.16-45.85-11.18-3.84,0-7.63,2.32-11.54,2.92-20.93,3.18-41.08,9.32-60.78,16.69a65,65,0,0,0-25.73,16.95,280.52,280.52,0,0,0-42.17,59.79c-5.5,10.64-13.3,20.13-16,32.16-1,4.52-2.25,9-3.36,13.52-.76,3.07-2.83,5.11-5.72,3.79-1.44-.66-2.43-3.7-2.51-5.7-.75-21.45,5.92-40.77,17.36-58.64,5.6-8.75,10.73-17.86,16.93-26.16,5-6.65,11.23-12.34,16.58-18.1-4.61-13.68-9.25-27.16-13.69-40.71-5.08-15.52-2.12-30.47,4.14-44.88a533.59,533.59,0,0,0,26.08-76.43c5.88-22.26,10.52-44.77,15.88-67.11,1.92-8,2.22-46.33,2.43-57.12-1.31,1.85-2.75,3.57-3.87,5.47-8.46,14.38-16.57,29-25.38,43.14-7.53,12.11-16.22,23.51-24.24,35.31-4.47,6.58-9,13.08-13.81,19.45-5.55,7.41-11.15,15-17.64,21.55-9.58,9.71-19.78,18.8-29.72,28.16Q628,410.17,612.73,424.53a19.42,19.42,0,0,1-3.17,1.8,24.73,24.73,0,0,1-1.48-4.7c-1.19-12.26-8.23-20.36-18.8-25.41-14.61-7-26.84-11.71-42.41-5.62-7.38,2.88-15.73,7.05-23.6,24.41-3.78,8.35-3.19,12.65-3.52,23.05.81,18.17,7.81,23.94,10.57,26.31,7.83,6.69,17.63,10.84,29,10-5.51,8.23-14.55,21.76-20.64,29.91-3.11,4.15-7.64,7.22-11.32,11-10.91,11.12-54.82,46.12-64.7,53.85a74.23,74.23,0,0,1-9.37,5.84c-11.81,6.65-23.6,13.34-35.51,19.81-13.14,7.13-26.4,14.05-39.62,21-.88.46-2,.43-2.84,1C360,627.64,341.54,630.61,324.48,637c1.45,8,59.79,13.09,84.65,7.55q21.93-4.89,43.66-10.57c5.74-1.51,11.17-4.2,16.77-6.28,20.27-7.56,40.5-15.26,60.87-22.57,9.07-3.26,18.53-5.43,27.62-8.66,5.42-1.92,9.46-.32,14.1,2.3,13.55,7.66,20.65,19.67,23.66,34.27,3,14.37,3.84,28.52.93,43.53-3.12,16.15-4.56,33.4,3.42,49.26,3.89,7.72,8.33,15.17,12.75,23.18-5.84,4.66-12,8.7-17,13.82-7,7.1-13.89,14.53-19.53,22.72-6.93,10.08-13.42,20.46-16,33-2.84,14-4.51,27.85-1.93,42.06a86.23,86.23,0,0,1,1.18,12.94c.37,13.05,5.75,23.7,15.2,32.57,1.9,1.79,3.6,3.78,6.4,6.74a58.29,58.29,0,0,1,12.5,10.32c177.43-.28,326.56-.86,329.4-1.66V522.87C921.72,522.77,920.34,522.65,919,522.51ZM628.26,566.92c-3.62,5.79-12.73,8.63-19.91,6.19-4.83-1.64-7.34-6.06-4.48-11.27C608.09,554.16,634.46,557,628.26,566.92ZM904.38,672.28A55.54,55.54,0,0,0,908,658.05c.3-3.33,2.08-6.53,3.2-9.78l2.62.53V778.26c-.62,0-1.47.25-1.73,0-3.9-4.29-4.41-11.58-11.59-13-11.26-2.2-22.51-4.15-33.23,2.1-2.31,1.35-4.41,3.17-6.87,4.14-1.59.63-4.85.74-5.25,0-.92-1.74-.61-4.16-.61-6.31,0-.53.84-1,1.18-1.58C873.44,734,892.48,705.08,904.38,672.28ZM678.65,498.81c5.41,0,9.16,3.93,9.12,9.64-.05,7.25-3.51,12.77-8.08,12.89-5.79.15-9.05-5.05-8.86-14.14C670.94,501.9,673.8,498.83,678.65,498.81ZM666.19,761.32c20.14,3.07,39.31-1.45,58-7.71,7.4-2.47,14.53-7.14,20.46-12.33a186.83,186.83,0,0,0,25-25.87c15.49-20.08,30.88-40.35,44.58-61.64,9.14-14.2,15.59-30.19,22.7-45.62,4.84-10.52,8.74-21.48,13.07-32.24,2.83-7,8.76-4.06,14.1-4.9.52,10.52-4.79,18.51-8.66,26.74-9.82,20.88-19.7,41.76-30.56,62.11-9.45,17.69-20.27,34.65-30.49,51.92-1.88,3.17-3.34,6.72-5.76,9.4-12.49,13.85-10.26,29.94-7.37,46.13.88,4.89,2.32,9.67,3.81,15.72l-11.62,9c-12.22-14.64-9.31-31.24-9.18-48.9-32.79,27.7-69.1,35.73-109.4,27.15C656.86,762.4,659.09,760.24,666.19,761.32ZM913.76,912.06c-7.75,2.19-181.52,3.14-214.61,1.13,3.06-4.14,6.15-7.79,8.66-11.81a21.46,21.46,0,0,0-8.34-30.69c-4.14-2.18-8.65-3.73-12.59-6.2-1.94-1.21-3-3.88-4.43-5.89,2.08-1.28,4.1-3.55,6.26-3.69,13-.85,26-1.45,39-1.67,13.58-.23,24.85-6.29,35.67-13.44,7.46-4.93,14.16-11.31,24.53-10.6,1.68,2.86,3.76,5.56,4.94,8.6,4,10.49,12.06,17.55,20.42,24.34,7.26,5.9,16.27,5.91,24.83,6.51,27.63,1.91,48-11.09,64.14-32.28,3.14-4.11,6.72-7.88,10.11-11.83C914.71,831.29,915.56,884.18,913.76,912.06Z"/></g></g></svg>