<svg xmlns="http://www.w3.org/2000/svg" viewBox="0 0 909.83 909.84"><defs><style>.cls-1{fill:#ce242b;}.cls-2,.cls-5{fill:#fed6af;}.cls-2{opacity:0.41;}.cls-3{font-size:111.52px;fill:#fff;font-family:Georgia, Georgia;}.cls-4{font-size:54.85px;}</style></defs><title>embodimentsCover</title><g id="Layer_2" data-name="Layer 2"><g id="Layer_8" data-name="Layer 8"><rect class="cls-1" x="38.04" y="33.42" width="833.6" height="843.84"/><path class="cls-2" d="M39.13,33.42H871V875.58c-6.34,1.81-819.13,2.4-831.32.58C38,869.57,37.31,47.63,39.13,33.42ZM862.7,490.68c-2.66-2.41-4.94-3.88-6.43-5.94a158.68,158.68,0,0,1-10-15.27c-6.59-11.8-15.32-20.48-29.36-21.75-8.69-.79-17.41-1.43-26.13-1.74-17.38-.62-33.23-4.32-46-17.87-5.6-6-6-11.48-3.49-18.24,3.51-9.6,8.08-18.72,10-29,1.7-9,1.77-16.82-4.68-23.89-1.59-1.74-3.4-4.1-3.51-6.26-.51-10.52-3-20.87,1.11-31.6,3.18-8.35,4.11-17.69,5.19-26.7,1.57-13,2.49-26.15,3.46-39.24a167.66,167.66,0,0,0,.64-20.2c-.47-10.06-3.8-13-13.61-12.67a51.2,51.2,0,0,0-11.47,2.14c-6.65,1.83-13.17,4.14-19.81,6-6,1.68-11.24.57-15.64-4.35-2-2.23-5-3.55-7.11-5.67-5-4.91-10.48-4.9-16.66-2.7C659.05,219.36,651,226.05,644,234c-6.53,7.36-14.5,10.37-24.16,10.24-13.36-.18-24.68-5.23-34.47-14-8.53-7.65-18.85-10.46-29.7-12.15-18.76-2.93-37.61-5.35-56.22-9.06-13.92-2.78-19.72-10.87-20.52-25.07-.63-11.19.51-13,10.18-17.91,2.64-1.33,6.1-2.85,7.15-5.21,3.72-8.32,7.27-17.08,1.22-25.93-3.23-4.72-6-10.35-10.41-13.55-10.21-7.4-20.08-15.63-32.49-19.45C447.81,99.8,441.26,97,434.46,95A23.23,23.23,0,0,1,418.2,77c-2.21-11.6-4.81-23.09-2.44-35.41h-9.29c-28.8,0-57.6-.31-86.38.26-9.5.19-20.2.51-23.12,13.47-.22,1-1.71,1.64-2.56,2.49C277.79,74.44,257.31,83.59,235,89.08c-13,3.2-25.61,2.45-37.79-4.05-7.28-3.89-11.92-9-12.76-17.56-.25-2.5-1.8-4.93-3-7.27-1.48-2.93-3.4-5.64-4.77-8.61-3-6.6-7-10.88-15.21-10.13-11.41,1-22.92,1.3-34.39,1.45-17.88.22-35.77,0-53.65.08-2.64,0-5.28.32-6.41.4-4.77,10.06,1.79,16.94,5.21,23.87C77,77,84.94,85,90.71,94.33c8.54,13.77,22,19.82,36.26,24s28.74,6.83,43.2,9.83a138.2,138.2,0,0,0,17.84,2.3c15.89,1.18,32.09-2.89,47.74,2.86.73.27,1.77-.47,2.65-.43,10.92.57,21.86,1.11,29.52,10.87.7.9,2.1,1.2,3.07,1.93,9.71,7.32,19.15,14.58,22.09,27.77,2.31,10.32,1.89,20.4,0,30.48-.64,3.33-2.42,7.49-5,9.21-10.5,7-21,14.25-32.45,19.41-14.6,6.6-30.19,5.06-45.38,1a24.26,24.26,0,0,0-18.51,2c-12.7,7.07-13.68,19.15-2.27,28.91,6.93,5.93,15.68,9,25,9.61,5.71.36,11.44,1.74,17.09,1.37,4.59-.3,9.15-2,13.6-3.49a132.78,132.78,0,0,0,13.32-5.4c6.43-3,13.4-5.34,19.16-9.4,12-8.43,24.39-14.3,39.43-12.58,8.71,1,17.21,2,25.13,6.63,7.27,4.23,15.33,6.93,21.83,12.71,10.79,9.59,16.37,21.28,17,35.91.46,11.29-3.77,21.41-8.4,30.65-5.69,11.33-12.06,23.12-24.13,29.67a8.61,8.61,0,0,0-3.37,3.92c-1.86,4.19-5.21,6.27-9.06,8.33-7.63,4.1-15.37,4.35-23.69,3-15.6-2.53-29.14,1.46-39.75,14.38,1.9,3,3,7,5.51,8.34a219.15,219.15,0,0,0,28.38,13.47c6.41,2.39,13.91,1.75,20.35,4.08,10.73,3.88,21.77,7,31.64,13.34,6.37,4.08,11.48,8.88,15,15.52,1.85,3.51,3.32,7.25,5.4,10.62a39.32,39.32,0,0,1,5.95,22.75c-.72,15.11-3.49,30-11.37,43a50.65,50.65,0,0,1-25.12,21.48c-16.65,6.55-33.22,4.45-48.15-3.92A507.21,507.21,0,0,1,250,505.81c-15.76-11.46-37.18-11.85-52.84,1.26,1.31,10.66,5.09,19.9,15.62,25.29a89.47,89.47,0,0,1,11.51,7.27c5.23,3.79,7.57,8.93,7.18,15.66-.48,8.31-6,13-11.44,17.83-3,2.61-6.3,4.82-9,7.68-11.08,11.8-21.89,14-36.45,7.39-15.65-7.09-25.85-20.28-34.43-34.1-16.48-26.58-12.65-54.94-3.59-83.1,3.63-11.27,7.93-22.35,11-33.77a56.71,56.71,0,0,0-2.32-37.66c-2.85-6.72-6-8-12.95-6.12-9,2.42-15.51,11.44-16.68,22.86-.69,6.68-2.16,13.34-2.18,20,0,7.46-3.57,12.49-9.41,15.51a192.08,192.08,0,0,1-24.92,10.56c-2.37.83-6.31-.25-8.44-1.89-6.67-5.17-12.82-11-19.18-16.62-1.22-1.07-2.47-2.12-5-4.27,0,4.65,0,7.63,0,10.6,0,25.47.55,51-.23,76.4-.39,12.64,4.82,22.38,11.49,31.87C67.31,572,79.2,583,92.85,592.54c18.47,12.93,36.76,25.55,59.39,29.85,5.19,1,6.14,3.21,6.2,10.94-4.47,1-9.09,2.35-13.8,2.9q-19.29,2.27-38.65,3.94c-18.87,1.6-37.8,4-56.46-1.81-.65-.2-1.59.52-2.29.78-1.38,11.73.45,49.74,2.7,54.34,3-3.13,5.46-6.73,8.8-9.17,16.46-12,34.9-17.41,55.21-15.77a109.36,109.36,0,0,1,11.65,1.57c10.37,2,20.75,4.1,29,11.51,3.36,3,6.16,6.7,9.64,9.55a46.44,46.44,0,0,1,12.54,15.47c5.7,11.47,15.46,16.31,27.8,16.86a22.65,22.65,0,0,0,17.95-7.2c10.53-10.62,12.39-19.13,5.1-32-6.81-12-8.52-24.64-7-38,1.78-16,5.73-31.2,16.8-43.61C246,593,256,586.29,269,585c8.75-.9,16.59.48,23.59,6.85,5.49,5,9.88,10.31,12.85,17.19,9.88,22.9,14,46.51,10.87,71.5-1,8.06-.43,16.44.36,24.59.64,6.61,2.72,13.08,4.1,19.62a85.43,85.43,0,0,0,21.92,41.45,116.46,116.46,0,0,0,10.87,10.78c8.45,6.9,18.21,7.55,27.07,2,8.6-5.37,9.24-14.74,8.74-24.47a219.38,219.38,0,0,1,.5-34.44c1.64-15.38,16.81-28.32,32-28.33,8.49,0,16.75,1.28,23.68,7.27,4.81,4.15,10.36,7.43,15.14,11.61a28.71,28.71,0,0,1,6.42,8.63c5.52,11,8.12,23,10,35,2.41,15,4,30.24,5.67,45.39a60,60,0,0,0,16.52,35.6c3.7,3.92,6.49,8.72,9.76,13.06a75.05,75.05,0,0,0,5.5,6.71c2.85,3,5.88,5.8,8.91,8.62,1.73,1.61,3.55,4.34,5.4,4.41,10.68.41,21.41.93,33.22-.34-2.52-2.7-4.06-4.53-5.78-6.16-8.53-8.11-13.39-17.84-13.73-29.77a79.54,79.54,0,0,0-1.06-11.83c-2.34-13-.83-25.63,1.74-38.45,2.3-11.47,8.16-21,14.42-30.17,5.09-7.48,11.31-14.28,17.63-20.77,4.56-4.68,10.11-8.37,15.39-12.63-4-7.32-8-14.13-11.52-21.19-7.21-14.5-5.91-30.26-3.09-45,2.62-13.72,1.83-26.65-.85-39.79-2.72-13.34-9.13-24.32-21.36-31.32-4.19-2.4-7.84-3.87-12.74-2.11-8.2,2.95-16.74,4.94-24.94,7.92C498,593,479.7,600.07,461.39,607c-5.05,1.91-10,4.36-15.14,5.74q-19.61,5.23-39.43,9.66c-22.45,5.07-75.13.37-76.44-6.9,15.4-5.86,32.09-8.57,45.93-18.48.71-.51,1.77-.48,2.56-.9,11.94-6.38,23.91-12.7,35.77-19.22,10.76-5.91,21.41-12,32.07-18.11a66.56,66.56,0,0,0,8.46-5.34c8.93-7.07,48.58-39.06,58.42-49.22,3.33-3.43,7.41-6.24,10.22-10,5.5-7.45,13.67-19.82,18.64-27.34-10.29.74-19.13-3.05-26.2-9.17-2.5-2.16-8.82-7.44-9.55-24,.3-9.5-.23-13.44,3.18-21.07,7.1-15.87,14.65-19.68,21.31-22.31,14.07-5.56,25.11-1.24,38.3,5.14,9.55,4.62,15.91,12,17,23.23a23,23,0,0,0,1.34,4.3,17.06,17.06,0,0,0,2.87-1.65Q604.52,408.14,618.3,395c9-8.55,18.19-16.86,26.83-25.74,5.87-6,10.92-12.93,15.93-19.7,4.31-5.82,8.43-11.76,12.47-17.78,7.24-10.79,15.09-21.21,21.89-32.28,8-12.94,15.28-26.29,22.92-39.43,1-1.74,2.31-3.32,3.5-5-.19,9.86-.46,44.93-2.19,52.21-4.85,20.43-9,41-14.35,61.35a490.72,490.72,0,0,1-23.55,69.86c-5.65,13.18-8.32,26.85-3.73,41,4,12.39,8.2,24.71,12.36,37.22-4.83,5.26-10.49,10.46-15,16.54-5.6,7.59-10.23,15.91-15.29,23.91-10.33,16.34-16.35,34-15.67,53.6.06,1.83,1,4.61,2.26,5.21,2.62,1.21,4.48-.66,5.17-3.46,1-4.12,2.1-8.22,3-12.36,2.48-11,9.52-19.67,14.49-29.39a256.2,256.2,0,0,1,38.08-54.65,58.51,58.51,0,0,1,23.23-15.5c17.79-6.74,36-12.35,54.88-15.26,3.54-.54,7-2.67,10.43-2.66,14.55,0,28.66,2,41.4,10.21,8,5.1,16.42,9.38,25.28,14.39ZM72.13,379.4c2.33,0,4.22-.38,5.9.06,8.11,2.15,13.34-2.28,17.45-8.18a90.67,90.67,0,0,0,8.36-15.18,26.27,26.27,0,0,1,13.8-13.57c10.4-4.37,21.35-4.87,32.34,0a89.22,89.22,0,0,1,29.32,21c7.63,8.25,13.66,17.83,14,30,.34,11.61,1.16,23.21,1.67,34.82.53,12.18,9.7,24.49,20.39,27.71,13.79,4.15,28.08,3.88,42.18,4.82,9.11.61,13.38-7.37,9.19-15.49-3.86-7.49-9.61-12.91-17.58-15.63A109.62,109.62,0,0,0,237,426.44c-7.25-1.57-12.56-5.78-16.54-11.87s-8-12.18-11.7-18.44c-4.74-8-6.68-17.22-3.19-25.52,6.1-14.51,16.3-25.83,32.58-28.75,8.84-1.59,18-1.53,27-2.31,8.57-.74,16.69-2.88,23.1-9.13,4.91-4.79,5.08-19.48-.26-21.4-7.49-2.7-14.92-7.3-23.44-5.28-7.31,1.73-14.42,4.47-21.79,5.78-8,1.43-14.78,5-21.32,9.5a21,21,0,0,1-7.23,3.58c-8.56,1.77-17.16,3.53-25.83,4.46-11.61,1.25-22.81-.1-32-8.59-5.57-5.15-11-10.43-16.72-15.44-17.26-15.21-29.79-32.59-33.17-56.72-3.65-26,16.13-46.31,37.38-49.28,11.93-1.67,24.06-1.89,36.12-2.51,5.57-.29,10.74-1,14.32-5.6C193,178.58,187.14,173,177.75,172c-10.16-1.06-20.55-2.21-30.63-1.19-12.29,1.25-24-.82-35.79-2.92-14.13-2.5-26.75-8.83-39.33-15.47-7.58-4-14.49-8.56-20-15.2-1.21-1.45-3-2.39-4.66-3.66-3.83,20.38,3,38.21,9.61,55.88,4.38,11.65,10,22.84,15.32,34.1,9.41,19.85,18.7,39.77,28.73,59.3a109.88,109.88,0,0,0,15.33,22.44c4.46,5,5.72,9.55,3.57,16.05-1.89-.43-3.72-.51-5.22-1.25-5.44-2.67-10.93-5.29-16.11-8.43-8.78-5.32-17.61-10.59-24.69-18.36s-14.52-15.41-21.92-23c-1.07-1.1-2.81-1.53-5.43-2.88,0,14.78,0,28.2,0,41.62-.05,17.75,6,34.18,10.78,50.87.48,1.67,1.81,3.14,2.93,4.56C64.09,369.44,68.06,374.33,72.13,379.4ZM235.72,807c2.84,1.15,4.77,1.66,6.42,2.65,3.11,1.86,5.9,4.29,9.1,6,12.85,6.7,25.82,13.14,38.7,19.78,5.9,3,11.48,6.8,17.54,9.42,9.43,4.06,19.14,7.44,28.75,11.08,8.15,3.08,16.55,5.6,24.36,9.39,3.65,1.77,6.87,3.18,11,3.16,27.89-.12,55.78-.05,83.67-.08,2,0,3.94-.27,6.42-.44-2-5.56-3.86-10.39-5.6-15.24-3.82-10.63-7.71-21.24-11.36-31.93-2.67-7.83-8.21-13.51-13.71-19.15-4.12-4.23-6.42-4.5-11-.35a67.66,67.66,0,0,0-11.51,13.85c-5.6,8.85-13,15.77-20.82,22.43a7.62,7.62,0,0,1-3.35,1.25c-12.76,2.66-25.6,4.33-38.68,3.86a46.62,46.62,0,0,1-19.13-5c-27.51-13.46-37.46-38-39.9-66.48-.92-10.74-1.76-20.91-5.74-31.2-3.14-8.11-7.56-12.69-16-15.09-1.51,2-3.59,3.93-4.65,6.32-3,6.87-5.75,13.89-8.4,20.93-3.48,9.2-6.83,18.43-16.23,23.4-.8.42-2.06.72-2.3,1.38-3.53,9.79-10.86,6.07-17.42,5.15l-18.17-2.52c0,6.13.89,11.42-.17,16.27-3.1,14.13-9.17,26.56-22.46,34-2.9,1.63-5.39,4-8.34,5.55a51.9,51.9,0,0,1-10,3.82c-5.81,1.6-11.81,2.54-17.58,4.29-5.37,1.63-7.18,6-7.2,11.45,0,5.33,2.36,9,7.17,10.47,4.54,1.42,9.3,2.88,14,2.91,39.41.23,78.82.13,118.23.13H280C262.38,848.9,242.54,833.71,235.72,807Zm626.9-528.92c-13.62-3.22-16.42-13.41-16.77-25.19-.05-1.84,0-3.68,0-5.52.1-5.52.5-11,.24-16.55-.15-3.27-.27-7.61-2.24-9.5a71.48,71.48,0,0,0-16.51-12.2c-9.5-4.87-17.53-10-19.95-21.81-2.27-11.09-9.48-18.88-20-23.3-6.95-2.93-13.75-6.26-20.85-8.77-8.15-2.88-16.5-5.26-24.87-7.41-3.36-.86-7.08-.17-10.52-.8-14.3-2.62-28.59-3.61-43-1.2C678,147.49,667.87,149,657.68,150c-8.1.82-13.13-2.59-16.48-10.08-1.36-3-2.54-6.17-4.22-10.26-3.15-.1-6.61-.38-10.07-.28-6.86.2-13.51,3.31-20.61.81-5.39-1.89-11.26-2.46-16.59-4.47-6.51-2.46-12.34-5.71-15.68-12.93-2.76-6-7.33-11.11-11.37-16.4-4.62-6-10.47-11.32-14.1-17.89-4.67-8.44-11.42-13.78-19.11-18.88S515,48.33,507,42H475.68c-1.42,6.2,1.19,11,3.65,15.91,2.05,4.08,4.64,8,6,12.29C490,84.61,501.47,90.65,514.58,92.8a49.81,49.81,0,0,1,21.53,8.63c14.53,10.29,25.78,23.79,36.81,37.63,3.66,4.59,9,7.86,13.79,11.47,4.07,3.07,8.77,5.35,12.57,8.7,5.31,4.69,10.67,5.1,16.68,2,2.14-1.09,4.23-2.28,6.4-3.3,8.08-3.79,16.21-4.64,24.27,0,3.93,2.24,7.76,4.65,11.55,7.14,12,7.87,13.08,8,24.8-.27,4.37-3.08,8.52-4.1,13.38-1.53,4,2.11,8.19,3.82,12.13,6,6.26,3.5,12.68,5.13,19.88,3.66a133.77,133.77,0,0,1,14.38-1.85c2.07-.19,5.17-.68,6.11.43,4.11,4.86,9.09,1.62,13.58,2.06,3.25.32,6.6-.34,9.9-.7,5.73-.64,9.31,2.23,11.19,7.32s3.92,10.35,4.89,15.72c2.08,11.41,3.63,22.91,5.16,34.41,1,7.23,2,14.52,2.11,21.79.1,10.28-3.85,19.69-7.64,29.06-4,9.94-4,20.25-2,30.58,1,5.25,4.11,7.82,9.29,8.35,2.4.25,4.85,0,7.27.1,11.64.33,21.9,5.28,30.51,12.28,15.35,12.47,17.4,29.68,12.88,47.94-3.24,13.08,3.42,25.63,16.43,29.33a8.71,8.71,0,0,0,.38-1.78q.07-27.15.08-54.29c0-12,.52-12.43-6.31-21.82-6.63-9.12-14.68-16.52-27.4-16.16-11.67.33-18.09-5-20.22-16.58-1-5.6-.58-11.54-.28-17.3.56-10.61,1.55-21.2,2.24-31.81a8.46,8.46,0,0,0-.93-4.46c-3.15-5.59-2.61-11.49-2.36-18.52,6.36,2.36,9.31,6.39,11.23,11.79,2.21,6.23,3.49,13,9.66,17.12,1.28.85,1.91,3.08,2.35,4.81,3.1,12.08,10.63,20.95,19.56,29.07,3.65,3.32,7.21,4.89,12.19,3.9ZM748.88,791.16c-9.36-.65-15.42,5.18-22.16,9.69-9.77,6.53-19.95,12.08-32.21,12.28-11.75.2-23.5.75-35.23,1.53-1.95.13-3.77,2.2-5.65,3.37,1.31,1.84,2.24,4.27,4,5.39,3.56,2.26,7.63,3.67,11.37,5.66a19.75,19.75,0,0,1,7.54,28.06c-2.27,3.67-5.06,7-7.82,10.8,29.88,1.84,186.8,1,193.8-1,1.62-25.49.86-73.84-1.27-80-3.06,3.6-6.29,7.05-9.13,10.81-14.6,19.37-33,31.25-57.91,29.5-7.74-.54-15.87-.56-22.43-5.95-7.55-6.21-14.78-12.66-18.44-22.25C752.27,796.24,750.39,793.78,748.88,791.16ZM47.08,867.73H68.92c-.5-7.55-1.11-14.49-1.37-21.45-.16-4.17,1.74-7.28,4.95-10.24,12.2-11.28,26.79-16.29,42.85-16.93,9.32-.37,16-4.17,21.13-11.76s4.66-12.87-1.72-19.53c-13.89-14.49-31.5-18.74-50.3-17-12.56,1.19-24.78,3.53-37.38-3.39ZM673.9,42.25H580.23c1.87,2.64,2.92,4.39,4.23,5.91,6.24,7.23,13,14,18.68,21.7,4.25,5.8,7.1,12.67,10.47,19.11,1.94,3.71,4.63,5.2,8.88,4.45,6.5-1.14,13.42-.83,19.54-3,10.35-3.64,19.42-.48,27.08,5.13,6.33,4.63,13.14,5.67,20,7.07,9.73,2,13.7-3,10.63-12.59a48.26,48.26,0,0,0-4.35-9c-2.71-4.75-6.58-9-8.25-14.11-2.22-6.73-6.58-11.78-11.21-16.25C673,47.84,674.16,45.46,673.9,42.25ZM746.32,749c-1.34-5.53-2.65-9.9-3.44-14.37-2.61-14.8-4.62-29.51,6.66-42.17,2.18-2.45,3.5-5.69,5.2-8.59,9.23-15.79,19-31.29,27.54-47.47,9.81-18.6,18.73-37.69,27.59-56.78,3.49-7.52,8.29-14.83,7.83-24.44-4.83.77-10.18-2-12.74,4.48-3.91,9.84-7.43,19.85-11.8,29.47-6.42,14.11-12.24,28.72-20.5,41.7-12.38,19.47-26.27,38-40.26,56.35a169.75,169.75,0,0,1-22.57,23.65c-5.35,4.74-11.79,9-18.47,11.27-16.9,5.71-34.22,9.85-52.41,7-6.4-1-8.42,1-10.2,8.2,36.39,7.84,69.18.5,98.79-24.82-.11,16.14-2.75,31.32,8.29,44.71Zm116.2-122.7-2.37-.49c-1,3-2.62,5.9-2.89,8.94a51.09,51.09,0,0,1-3.23,13c-10.74,30-27.94,56.39-44,83.44-.31.52-1.06,1-1.06,1.45,0,2-.28,4.18.54,5.76.37.7,3.3.6,4.75,0,2.21-.88,4.11-2.55,6.2-3.78,9.68-5.72,19.83-3.93,30-1.92,6.49,1.28,6.94,7.94,10.46,11.87.23.26,1,0,1.57,0Zm0-585.17-38.41,2.38c0,7.71-.11,14.41,0,21.09.09,4.17-.43,8.78,1.12,12.4,3,6.95,7.09,13.42,11,19.92,5.95,9.86,14.7,17.83,18.9,28.92,1.13,3,3,5.93,7.34,6.31Zm-70.4,75.78C778.83,93.43,776.31,68.2,776.1,42H734.2c2.19,2.43,4.38,3.59,3.27,7.43-1.05,3.64.42,8.4,1.81,12.3A126.19,126.19,0,0,0,747.42,80a183.68,183.68,0,0,0,13,20.78C768.11,111.2,779.73,114.45,792.11,116.88ZM147.66,737.4c0-1.8.42-3.2-.06-4.13-4.87-9.29-10.81-17.85-19.85-23.35-11.44-7-23.72-6.57-35.81-2-3.14,1.17-6,4.21-8,7.1-4.1,5.93-2.58,12.26,2.83,17.09A22.05,22.05,0,0,0,107,737.35c8.22-1.85,16.13-1,24.25-.07C136.56,737.9,142,737.4,147.66,737.4ZM552.18,186.54c-2.68-8.75-10.23-12.82-16-18.19-1.83-1.69-6-.93-9.16-.95-1.59,0-3.78,1.6-4.69,1-4.43-3.05-6.19.54-7.63,3.19-3.82,7-1.05,16.67,5.59,21C530.71,199.32,543.29,197.19,552.18,186.54ZM793.86,361.08c-5.36,6.23-10.07,22.26-8.69,31.8.7,4.82.8,10.45,6.12,13.32,9.23-9.66,12.93-25.88,10-43ZM582.68,546.77c-2.58,4.76-.31,8.81,4,10.3,6.49,2.23,14.71-.36,18-5.66C610.3,542.32,586.49,539.75,582.68,546.77Zm60.46-50c-.17,8.31,2.77,13.07,8,12.93,4.12-.11,7.24-5.15,7.29-11.78,0-5.22-3.35-8.84-8.23-8.81C645.82,489.17,643.24,492,643.14,496.81Z"/><text class="cls-3" transform="translate(130.66 425.81) scale(0.99 1)">Additions <tspan class="cls-4" x="507.84" y="0">of/in</tspan><tspan x="629.42" y="0"> </tspan><tspan x="4.7" y="133.83">Embodiment</tspan></text><path class="cls-2" d="M867.88,511.06a8,8,0,0,1-6.62-4.71c-8.1-4.52-15.86-8.51-23.18-13.21-12.74-8.18-26.85-10.2-41.4-10.22-3.47,0-6.89,2.12-10.42,2.67-18.9,2.91-37.1,8.52-54.89,15.26a58.66,58.66,0,0,0-23.23,15.49A256.45,256.45,0,0,0,670.06,571c-5,9.73-12,18.4-14.48,29.4-.94,4.13-2,8.24-3,12.36-.69,2.81-2.56,4.67-5.17,3.46-1.3-.6-2.19-3.38-2.27-5.21-.68-19.61,5.35-37.27,15.68-53.6,5.06-8,9.69-16.33,15.29-23.91,4.49-6.08,10.14-11.28,15-16.55-4.16-12.51-8.35-24.83-12.36-37.21-4.59-14.19-1.91-27.85,3.74-41A491.88,491.88,0,0,0,706,368.84c5.31-20.35,9.5-40.92,14.34-61.35,1.73-7.29,2-42.35,2.19-52.21-1.18,1.69-2.48,3.26-3.49,5-7.64,13.14-15,26.49-22.92,39.43-6.8,11.07-14.65,21.49-21.89,32.28-4,6-8.16,12-12.47,17.78-5,6.77-10.07,13.68-15.93,19.7-8.65,8.88-17.86,17.19-26.84,25.74q-13.8,13.15-27.62,26.28a17.49,17.49,0,0,1-2.86,1.65,22.81,22.81,0,0,1-1.34-4.3c-1.07-11.21-7.43-18.61-17-23.23-13.19-6.38-24.24-10.7-38.3-5.14-6.66,2.63-14.2,6.44-21.31,22.31-3.41,7.63-2.88,11.56-3.18,21.07.73,16.61,7.05,21.88,9.54,24.05,7.07,6.12,15.92,9.91,26.21,9.17-5,7.52-13.14,19.89-18.64,27.34-2.81,3.79-6.9,6.6-10.22,10-9.85,10.17-49.5,42.16-58.43,49.22a66.9,66.9,0,0,1-8.46,5.34c-10.66,6.08-21.31,12.19-32.07,18.11-11.87,6.52-23.84,12.84-35.78,19.22-.79.42-1.85.39-2.56.9-13.83,9.91-30.52,12.62-45.93,18.48,1.31,7.28,54,12,76.44,6.9q19.8-4.47,39.43-9.66c5.18-1.38,10.09-3.84,15.14-5.74,18.3-6.91,36.57-13.95,55-20.63,8.19-3,16.73-5,24.94-7.92,4.89-1.76,8.54-.29,12.73,2.1,12.24,7,18.65,18,21.37,31.33,2.67,13.14,3.47,26.07.84,39.79-2.82,14.76-4.12,30.53,3.09,45,3.51,7.06,7.52,13.87,11.51,21.19-5.27,4.26-10.83,8-15.38,12.63a156.11,156.11,0,0,0-17.64,20.77c-6.26,9.21-12.12,18.7-14.42,30.17-2.56,12.82-4.07,25.46-1.74,38.45A79.77,79.77,0,0,1,543.39,832c.33,11.93,5.19,21.66,13.73,29.77,1.72,1.64,3.25,3.46,5.78,6.16a52.79,52.79,0,0,1,11.29,9.43c160.22-.26,294.89-.79,297.45-1.52V511.39C870.36,511.29,869.12,511.18,867.88,511.06Zm-262.51,40.6c-3.27,5.29-11.5,7.89-18,5.66-4.36-1.5-6.63-5.54-4-10.3C587.15,540,611,542.56,605.37,551.65ZM854.71,648a51.28,51.28,0,0,0,3.22-13c.27-3,1.88-6,2.89-8.94l2.37.48V744.84c-.56,0-1.33.23-1.56,0-3.52-3.92-4-10.59-10.47-11.87-10.17-2-20.33-3.79-30,1.92-2.09,1.23-4,2.9-6.2,3.78-1.44.58-4.38.68-4.74,0-.83-1.59-.55-3.8-.55-5.77,0-.48.76-.92,1.07-1.44C826.77,704.35,844,677.95,854.71,648ZM650.87,489.39c4.89,0,8.27,3.59,8.24,8.81,0,6.63-3.17,11.67-7.3,11.78-5.23.14-8.17-4.62-8-12.93C643.91,492.22,646.49,489.41,650.87,489.39Zm-11.25,240c18.19,2.81,35.5-1.33,52.4-7,6.68-2.26,13.12-6.53,18.48-11.27a169.87,169.87,0,0,0,22.57-23.65C747,669,760.95,650.5,773.32,631c8.25-13,14.08-27.6,20.5-41.7,4.37-9.62,7.89-19.64,11.8-29.47,2.56-6.44,7.91-3.71,12.73-4.48.47,9.62-4.33,16.92-7.82,24.44-8.87,19.09-17.79,38.17-27.6,56.78-8.53,16.17-18.3,31.67-27.53,47.46-1.7,2.9-3,6.14-5.2,8.59-11.28,12.66-9.27,27.37-6.66,42.17.79,4.47,2.1,8.84,3.44,14.37l-10.49,8.23c-11-13.38-8.41-28.56-8.29-44.7-29.61,25.32-62.4,32.66-98.79,24.82C631.19,730.34,633.21,728.37,639.62,729.36ZM863.18,867.15c-7,2-163.91,2.87-193.8,1,2.76-3.78,5.55-7.12,7.82-10.8a19.74,19.74,0,0,0-7.53-28.05c-3.74-2-7.81-3.41-11.37-5.67-1.75-1.11-2.69-3.55-4-5.38,1.88-1.17,3.7-3.25,5.65-3.37,11.73-.78,23.48-1.33,35.23-1.53,12.26-.21,22.44-5.75,32.21-12.29,6.74-4.51,12.79-10.34,22.15-9.69,1.52,2.61,3.4,5.08,4.46,7.86,3.66,9.59,10.89,16,18.44,22.25,6.56,5.39,14.69,5.4,22.42,6,25,1.75,43.32-10.14,57.92-29.51,2.84-3.76,6.07-7.2,9.13-10.81C864,793.32,864.8,841.66,863.18,867.15Z"/></g><g id="newGrid"><path class="cls-5" d="M0,0V909.84H909.83V0ZM871.1,790.06c-.1,25.31,0,50.61,0,75.92v11.36H37.58V34.93c3.94-.17,6.92-.41,9.9-.42,15.62,0,31.24.12,46.86-.09,5.76-.08,11.49-1,17.25-1.49,1.82-.16,3.81-.72,5.46-.23,10.82,3.26,21.87,1.66,32.8,1.7,45.63.2,91.26,0,136.89.1Q573.37,34.74,860,35h11.08V46.87q0,124.92,0,249.84c0,14.51,1,29,.94,43.54-.16,43.21-.75,86.43-.91,129.64,0,13.58,1.11,27.16,1.07,40.74Q871.8,650.34,871.1,790.06Z"/></g></g></svg>