<svg xmlns="http://www.w3.org/2000/svg" viewBox="0 0 923.13 923.3"><defs><style>.cls-1{fill:#ce242b;}.cls-2,.cls-5,.cls-6{fill:#fed6af;}.cls-2{opacity:0.41;}.cls-3{font-size:122px;fill:#fff;font-family:Georgia, Georgia;}.cls-4{font-size:60px;}.cls-5{font-size:140px;font-family:AdobeSongStd-Light-GBpc-EUC-H, Adobe Song Std;}</style></defs><title>fu_1</title><g id="Layer_2" data-name="Layer 2"><g id="fu"><rect class="cls-1" y="0.16" width="923.13" height="923.13"/><path class="cls-2" d="M2.42,0c-.57,4.07-.93,75.55-1.1,177.09,0,18.56-.06,38.12-.08,58.46C1,507.37,1.78,917.87,3.24,923q153.45,0,307.25,0c101.76.13,203.51-1.1,305.27-.22,102.35.89,204.71.2,307.37.2V0ZM913.87,161c.07,5.36-4.24,7.83-7.05,10.75-4.77,5-7.44,10.62-10.11,16.75-6,13.79-8.85,28.4-11.52,43-3.39,18.49-2.8,37.63,3.32,55.07,4.94,14.1,10.77,28.74,21.46,40.3,1.69,1.83,3.57,4.38,3.63,6.65.36,12.21.17,24.43.17,38.83-13.1-13.65-24.58-25.76-36.24-37.7-6.43-6.59-13.87-12.32-19.59-19.46-6.77-8.46-12.09-18.08-18.21-27.08s-4.86-19.25-4.9-29.45a98.58,98.58,0,0,1,11.23-47,165.25,165.25,0,0,1,13.65-21.93c13.43-18.07,27.61-35.6,40.88-53.8,4.91-6.74,8.09-14.74,13.21-24.32C913.8,129.64,913.68,145.31,913.87,161ZM912.2,12.12c1,5.62,2.08,11.28-1.65,18.14-6.56-5.57-15.48-6.92-17-16.3C899.91,10.79,899.91,10.79,912.2,12.12Zm-213.61,21c5.69-4.35,30-19.15,35.65-20.66,10.87-1.25,11.55-1.33,21.52-.65a21.9,21.9,0,0,0,3.53-.13c3.42-.31,7.56,1.4,12.4,2.17-2.5,2.34-3.95,4-5.68,5.27C751.14,30.22,739.74,44.43,729.6,59.7c-6.54,9.84-12.73,19.92-18.69,30.12a71.59,71.59,0,0,0-5.86,13.64c-1.55,4.69-2.46,9.61-3.57,14.44-1,4.48-1.06,8.66,5.13,11.22,1.94-2.14,4.87-4.15,6.08-6.91,7.43-16.9,21.34-28.14,35.36-38.52a156.19,156.19,0,0,1,49.66-24.92c13.33-3.84,26.74-6.95,41-6,6.67.44,11.28,3.35,13.34,8.49,3.76,9.35,9.37,16.48,19,21-7.07,15.3-18.11,24.58-31.6,32a98.84,98.84,0,0,1-27.85,10c-17.79,3.8-35.29,8.36-53.48,10.92-18.88,2.67-37.25,9.76-55.48,16-9.77,3.33-14.91,12.84-21.15,20.55-.6.74-1,1.61-2.16,3.39-8.79-15.15-20.32-28-23.09-45.61-3-19.28-2.7-37.6,8.08-55.33C673.75,58.58,684.1,44.2,698.59,33.15ZM392.35,9.43h41.29c.33.73.92,1.41.77,1.82-6.73,18.48-5,37.47-2.57,56.25,2.56,20.11,6.34,40.07,13.94,59.07,4.5,11.24,10.48,21,20.23,28.94,11,8.94,20.77,19.44,31.08,29.27,6.21,5.92,12.13,12.17,18.68,17.68,11.41,9.6,20.24,20.89,25.51,34.91,3,8,6.53,15.83,9.27,23.92,4.12,12.11,4.56,24-5.29,36,0-5.4-.31-9.47.06-13.47a33.74,33.74,0,0,0-7.72-25.09,31.3,31.3,0,0,1-3.51-4.65c-8-15.07-30.58-18.25-46-9.8-13.49,7.4-20.58,25.77-17.18,41.16.49,2.24.82,4.53,1.22,6.8l-1.54,1.25c-8.75-9.47-19-18-25.89-28.64-10.49-16.26-22.21-31.74-28.54-50.86-6.64-20.08-14.72-39.71-19.23-60.45-1.55-7.1-2-14.47-2.5-21.75C392.62,107,391,82.15,389.3,57.31,388.22,41.36,389.8,25.61,392.35,9.43ZM533.92,423.92c.92,10-3.54,13.12-11.09,14.66-6.46,1.31-12.82,3.21-19.47.92-.57-3.6-1.12-7.06-1.69-10.64Zm-24-46.94,8.24-13c9.13,4.58,10.8,8,9.46,15.25-.71,3.81-2.73,6.06-6.12,7-3.72,1.06-6.35-.6-8-4.11C512.81,380.67,511.64,379.42,509.92,377ZM29.08,110A32.49,32.49,0,0,0,11,96.71V13c48.65-7.67,97.17,2.62,146.24-4.75,0,8.09.48,14.69-.1,21.2-1,11.79-.29,23.31,3.43,34.55,1.39,4.22,2.57,8.48,3.59,12.78,3.13,13.15,4.73,26.59,6.28,40,.45,4,.53,8,1.28,11.88,1.79,9.23-3.12,17-6,24.87-4.17,11.09-2.56,21.75-.33,32.24,3,14.21,5.27,28.81,12.57,41.81.93,1.65,1,3.74,1.67,6.18-1.63.57-3.11,1.49-4.39,1.78a2.76,2.76,0,0,1-1.24,0l-.17,0c-3.89-.89-7.49-1.4-11.34,0-.37.13-.73.27-1.1.44-1.71.77-4.25.12-6.36-.44l-.38-.1c-30.85-8.18-56.15-24.78-77.27-48.79-9.48-10.78-19.26-21.08-25.7-34C48.85,147,46.89,141,43.93,135.46q-3.41-6.36-7-12.62Q33.16,116.32,29.08,110Zm2.26,112c-.81-3-3.52-5.57-5.36-8.33-.22.91-.44,1.82-.82,3.44-3.36-2.58-6.37-4.67-6-9.19-.38-5.54-4.9-8.07-8.36-11.29V171.39c3.12,3.19,5.2,4.94,6.83,7.05,16.2,20.87,32.82,41.43,54,57.11q5.88,4.33,12.27,8.16a553.57,553.57,0,0,0,52.68,27.4c13.33,6.1,24.55,13.37,32.83,26.05,8.86,13.55,18.93,26.63,34.14,34.09A123.23,123.23,0,0,0,215.54,336c14.84,5.44,30.1,9.91,43.46,18.77a39.79,39.79,0,0,1,4,2.94,7.41,7.41,0,0,1,2.34,3.68c-8.45-4.5-18.39-2.85-26.86-9.26-5.53-4.17-14.43-4.5-21.94-5.33-15.39-1.69-29.74-6.51-43.86-12.48-6.73-2.85-10.78-8.33-15.15-13.8-6.91-8.65-14.34-16.89-21.78-25.1-1.47-1.63-4-2.37-6-3.47-6.13-3.3-12.31-6.53-18.42-9.89-13.2-7.24-26.65-14.11-39.48-22-9.4-5.76-18.21-12.58-26.86-19.46a56.48,56.48,0,0,1-5.69-5.11A30.77,30.77,0,0,1,31.34,222ZM312.8,455c-7.22-9.63-16.16-13.07-27.36-12.55-4,.19-7.15-.42-9.12-4.31-2.84-5.58-5.84-11.07-9.13-17.28,9.75-9.2,21-10,32.34-8.28,17.54,2.67,30,11.86,33.56,30.34,1.64,8.48,3,17,4.7,25.47,1.92,9.42,3.63,18.93,6.37,28.12,1.94,6.5,1.86,12.19-1,18.32-3.26,6.92-5.93,14.12-8.68,21.28-5.24,13.63-15.59,22.05-28.29,28.17-2.67,1.29-6.28,2.1-7.69,4.28-4.17,6.45-9.59,5.5-15.76,4.56a256.44,256.44,0,0,1-62.93-18c-10.8-4.64-22-10.07-28.84-20.38-8.51-12.83-14.21-26.82-14.8-42.61-.71-19,3.68-36.92,11.29-54.11,4.51-10.19,12.18-16.85,23-20.43,17.65-5.81,20.54-4.59,26.21,12.51,1.08,3.24,3.16,6.82,5.85,8.75,11.79,8.45,8.09,13.93,4.84,23.2a22.49,22.49,0,0,1-5,7.44c-12.27,13.08-10.71,36.63,4.8,51.22,1,.91,2.2,1.54,3.12,2.5,11.64,12.19,21.13,10.87,38.2,3,7.42-3.42,14-9.07,20.23-14.53C322.6,499.53,323.84,469.71,312.8,455ZM27.64,848.07c-1.88,2.17-2.87,5.22-3.86,8C21,864,21.08,864,11,867.56c-.18-2.68-.47-5.17-.48-7.66-.05-11.67.15-23.34-.09-35-.12-5.33,1.78-8.91,6.63-11.08,13.78-6.18,26.89-13.06,42.35-16a145.34,145.34,0,0,0,57.95-25c2.12-1.53,3.74-3.74,5.65-5.56,3.05-2.9,6.16-5.75,9.25-8.62l1.9,1.32c-.28,7.68-2.26,14.28-7.91,20.48-6.15,6.76-12.83,12.5-20.87,16.38-6.73,3.26-14.13,5.11-21.14,7.85-12.05,4.71-24.38,9.24-33.84,18.42C42.34,830.92,35,839.54,27.64,848.07ZM11,784.28V590.21l1.5-.49c1.92,4.56,4.17,9,5.67,13.7C21,612.22,23.08,621.26,26,630c2,5.86,3.86,12.19,7.56,16.92a162.92,162.92,0,0,0,36.8,34.64c12,8.2,23.33,17.6,29.62,31.46,3.63,8,2.57,14.61-2.92,22.07-9.78,13.28-22.47,19.48-38.3,22.28-7.17,1.27-13.77,6.31-20.36,10.1C29.67,772.52,21.19,778,11,784.28ZM70.08,911.64c1-3.89,2-6.39,2.36-9,2.05-12.91,10.82-21.24,23.88-21.67,5.89-.19,11.83,1.33,17.72,1.15a214.46,214.46,0,0,0,23.72-2.21c8.56-1.22,15.62,1.33,20.95,7.83,6.68,8.15,8.57,13.12,10,23.73C136.14,911.78,103.73,911.56,70.08,911.64Zm240.57-8.72c-6.29,5.59-11.89,8.76-20.68,9.1-12.54.48-22.66-1.74-30.34-12.39-9.39-13-24.14-19.57-36.33-29.23a33,33,0,0,1-7.83-8.76c-5.54-9.34-10.86-18.83-15.74-28.53-3.58-7.1-1-14.2,1.5-21.12,1.32-3.7,2.62-7.41,3.65-11.18,2.79-10.16,6.23-20.22,8-30.56,4.76-28.56,4.32-56.16-18.36-78.45-4-3.93-7.55-8.3-11.41-12.38-13.54-14.29-31.56-21.85-48-31.68-3-1.81-6.84-2.43-10.38-3.18-14.11-3-27.39-7.77-39.79-15.43C73.38,622.06,68.61,611.21,68,599.05c-.49-10.43,2.11-21,3.28-31.53.4-3.58,1.44-7.37.73-10.75a225.16,225.16,0,0,0-7.13-26.84c-3.74-10.87-5.73-21.81-5-33.31.45-7.31.46-14.65.39-22a62.82,62.82,0,0,0-3.38-20.48c-2.48-7.14-3.37-14.86-4.67-22.38s-2.34-15.11-10-19.36a9,9,0,0,1-2.58-3c-8.72-12.94-17.52-25.83-26-38.93a19,19,0,0,1-3-9.15c-.38-9.65-.14-19.32-.14-30,21.89,6.46,40.39,16.32,55.42,31.88,10.22,10.58,17.48,23.29,23.94,36.4a187.92,187.92,0,0,1,9.18,20.83c1.25,3.59,1.09,7.89.72,11.79-.85,8.87-1.94,17.75-3.49,26.52-1,5.46-2.84,10.77-4.47,16.1-1,3.15-3,6.15-3.22,9.32-.9,11.26-1.27,22.55-1.78,33.84-.21,4.63-.77,9.32-.29,13.9.65,6.19,2.28,12.27,3.24,18.44,2.42,15.38,8.62,28.52,17.75,41.58,13.3,19,31,29.57,52,36.57C176,634,189,643.81,201.22,656.26c17.08,17.37,25.73,39,35.31,60.33a41.69,41.69,0,0,1,3.17,16.5c0,16.28-.74,32.55-1.05,48.83a110.51,110.51,0,0,0,.49,16c.88,6.9,4.08,12.47,10.83,15.67,5.71,2.71,11.26,5.8,16.69,9,10.68,6.35,20.25,13.93,27.42,24.36,6.19,9,12.8,17.74,19.39,26.47C321.28,883.75,321.55,893.25,310.65,902.92Zm328.56,6.23a29.57,29.57,0,0,1-13.53-5.38c-6.37-4.48-14.08-7.38-21.58-9.84-4.2-1.38-6.53-3.75-9.13-6.92-7.84-9.56-15.82-19.05-24.38-28-3.27-3.4-8.05-5.66-12.53-7.5-7.6-3.13-15.8-4.88-23.22-8.36a206.6,206.6,0,0,1-27.54-15.48c-2.66-1.8-3.45-6.84-4.45-10.57-4.32-16.27.88-15.86,12.78-14.62,17.89,1.87,35.82,5.06,49.11,18.93a190,190,0,0,1,16.71,20.76c3.47,4.83,7.83,7.43,13.22,9.7a225.36,225.36,0,0,0,39.68,12.9c13.36,2.9,21.89,10.29,26.87,23.57,3,7.93,9.88,14.38,16.53,23.57C663.62,911,651.35,910.61,639.21,909.15Zm155.86,1.75c-3.41-6.75-9.38-10.84-15.85-14.16-9.15-4.71-18.62-8.81-27.71-13.62-12-6.34-24.32-12.17-34-22.2-4.27-4.43-7.32-9.09-8.6-15.25A87.07,87.07,0,0,0,703.24,828c-1-2.22-4.22-4-6.8-4.85-6.62-2.09-13.42-3.64-20.2-5.2a133.68,133.68,0,0,0-16.63-3.21,75.72,75.72,0,0,1-27.55-7.79c-8.52-4.35-17.3-8.24-26.15-11.88-10.7-4.39-16.18-13.2-20.44-23.06-6.17-14.29-11.53-29-18.23-43-8.14-17.05-22.8-26.26-40.87-30.26a221.29,221.29,0,0,0-24.46-4.33,93,93,0,0,0-19.73.16c-10.41,1.14-20.73,1.23-30.72-1.8s-17.14-10.33-21.62-19.37A116.34,116.34,0,0,1,421.46,649a24.45,24.45,0,0,1,.94-13.57c6.59-17.35,14.32-34.28,20.78-51.68,9.34-25.18,13.89-50.66.79-76.21-2.28-4.44-4.3-9-6.39-13.54-3.23-7-7.22-13.3-13.09-18.58-3.88-3.49-6.66-8.2-9.91-12.39-1.64-2.1-2.91-4.61-4.9-6.29a51.75,51.75,0,0,1-17.49-27.86c-.49-2-2.79-3.59-5.16-6.47-3,6.65-3.74,11.34-2.28,16.73,1.36,5,1,10.57,2.48,15.53a105.31,105.31,0,0,0,19.2,35.5c6.1,7.55,12.87,14.44,11.2,25.34-.17,1.16.81,2.48,1.21,3.73,3.88,11.9,1.22,23.46-2,34.93q-3,10.55-6.6,20.9c-5.09,14.39-9.49,29.2-25,36.74-5.34,2.61-9.92,6.73-15,9.84-8.28,5-14,12.13-18,20.81-7.62,16.3-1.29,34.8,14.86,46,8.32,5.79,15.63,13.05,23.26,19.81a13.16,13.16,0,0,1,4,5.57c2.45,8.61,8.86,13.45,15.48,18.7,5.33,4.22,9.78,9.89,13.61,15.59,6.69,9.94,13.38,20,18.64,30.73,7.28,14.83,15.41,29.74,14.07,47.17-1.1,14.4,4.84,27.29,8.24,40.71.61,2.4,2.63,4.48,4.14,6.6,3.63,5.12,7.63,10,10.93,15.32a30.2,30.2,0,0,0,13.31,11.47A63.25,63.25,0,0,1,507.53,910c-9,2.1-17.76,1.55-26.48,1.64-9,.1-18,0-26.63,0-2.42-4.7-4.45-8.82-6.63-12.85-6-11.13-11.36-22.7-18.33-33.19a303.32,303.32,0,0,0-25.14-32.2c-3.65-4.15-5.48-7.61-4.79-13.14.86-6.9.6-13.94,1-20.91.21-4-.15-8.31,1.3-11.85,3.74-9.07,2.51-18.4,2.64-27.67a20.42,20.42,0,0,0-8.15-16.52c-9.65-7.64-19.34-15.4-29.82-21.76-15.85-9.61-28.18-21.85-36.12-38.75-3.64-7.74-9.45-14.46-10.16-23.47-.13-1.64-1.19-3.65-.57-4.84,6.82-13.12,10.18-28.34,22.69-38.07,9.72-7.55,19.3-15.31,29.18-22.65,12.79-9.48,20.52-22.29,25.46-37.09,1-2.84,1.73-5.76,2.92-8.5,5.75-13.23,7.64-26.44,2.67-40.6-4.54-13-10.16-24.66-20.8-34-7.58-6.66-12.28-15-10-26.5,2.86-14.56-.83-29.19-4-43.22a37.91,37.91,0,0,0-15.4-22.57c-9.85-6.61-18.56-15-30-19.24-11.61-4.28-18.57-12.23-20.08-24.89-1.9-15.9-12.11-26.14-24.66-34.57a23.88,23.88,0,0,0-2.61-1.46c-14.54-7.12-17.44-20-19-34.72-1.08-10.26-1.71-20.56-2.54-30.85-1-13.18-2.39-26.34-5.34-39.36-3.3-14.55-4.55-29.54-9.75-43.73a112.74,112.74,0,0,1-5.53-20.12c-2-11.9-3.39-23.89-5.06-35.85-.29-2.16-.61-4.33-.93-6.49-3-19.7-6.19-39.37-9.27-59.06A43.57,43.57,0,0,1,217,25c-.09-4.08,0-8.16,0-13.19,16.11-3.41,33.17-3.28,50.77-1-1.5,1-2.94,2.12-4.49,3-13.55,7.95-20.13,20.31-20.46,35.47a107.83,107.83,0,0,0,9.62,47.38c3.61,7.93,7.06,15.74,8.29,24.41.15,1,.26,2,.34,3,1.26,15.58,2.79,31.16,4.73,46.67,1.07,8.55,3.75,16.9,4.74,25.46,1.49,12.87,1.37,25.95,3.34,38.73,0,.21.07.42.11.63,2.1,12.63,8.65,24.48,6.88,37.87,4,7.3,7.19,15.2,14.62,19.93,15.5,9.86,23.88,25.54,33.45,40.32a101.2,101.2,0,0,0,13,16.06c1.93,1.94,6.33,3.37,8.69,2.51,3.68-1.34,4.34-5.64,3.06-9.44-2-5.93-3.19-12.5-6.6-17.52-13.73-20.2-18-43.74-24.19-66.53-2.3-8.53-1.62-17.85-2.43-26.8-1.35-14.9-2.9-29.78-4.17-44.69-.42-4.92.59-10.09-.52-14.8-3-12.56-6.76-24.92-10.18-37.37-3.07-11.14-6.55-22.2-9-33.48-1.83-8.5,1.55-16.47,5.3-24C310.66,60,319.75,42.56,332.3,27.28c2.77-3.38,2.23-6.56,2.19-10.2-.06-6.25,1.48-8.06,7.35-8.14,14.65-.18,29.32-.06,45.53-.06-2.34,4.86-4.27,8.51-5.87,12.31s-2,8-4.19,11.17C368.4,45,365.66,59.82,362.39,74.29c-4.26,18.82-6.88,37.89-6.14,57.39.49,12.82-1.59,25.77-.71,38.54,1,14.16,3.93,28.18,6.14,42.25,3,19.14,9,37.48,16.22,55.36a116.88,116.88,0,0,0,14,25A421.84,421.84,0,0,0,422,330c8,8.64,17.75,15.59,26.56,23.47,7.46,6.66,13.24,14.71,18.25,23.33a79.26,79.26,0,0,0,6.38,10.07c5.48,6.81,8.09,15,10.7,23,9.44,28.93,12.82,58.2,3.12,87.92-4.22,12.9-8.31,25.86-11.85,39a113.3,113.3,0,0,0-3.82,22.43c-.81,13.58-1.94,27.33-.7,40.8,1.43,15.55,5.51,30.92,16.8,42.81,8,8.41,15.85,17.31,25.23,23.89,7.66,5.37,17.41,7.84,26.4,11.15,3.68,1.36,7.85,1.32,11.69,2.33,9.62,2.53,19.12,1,28.5-.95,12.33-2.58,24.53-5.77,36.8-8.64.52-.13,1.19.38,1.6.53-1,14.16-2.83,28.26-2.93,42.38-.14,19.37,6.26,36.53,18.42,52.14,9.32,12,20,22.56,32.27,30.53,19.84,12.84,41.8,21.12,66.11,14.44,8-2.21,15.41-6.93,23.78-10.82a10.94,10.94,0,0,1,2,2.95c1.43,3.92,2.22,8.09,3.87,11.9,3.82,8.77,7.33,17.79,12.22,26a174,174,0,0,0,18.12,24.81c6.49,7.45,14.33,13.71,21.3,20.77,7.41,7.52,14.48,15.36,21.88,23.25C828,912.06,810.43,912.62,795.07,910.9ZM603.75,357.4c-1.64,2.46-6.29,4.78-9,4.26-5.25-1-6.58-5.71-5.57-10.72l10.32-4.67C602.27,349.43,607.16,352.3,603.75,357.4Zm5.09,30.65.07-.13.43,0c3.87-2.79,7.72-5.59,11.59-8.39l1.38,2.24c-4.31,2.07-7.39,6.32-13,6.15l-.25.18-.25-.07c-2.61,5-6.87,6.68-12.13,6.43C599.94,390.71,603,386.5,608.84,388.05Zm-5.72,54.88a42.2,42.2,0,0,0,6.27-6.4c8.38-9.83,19.93-15.28,30.5-22.07,1-.62,2.48-.39,4.52-.66l-80.06,75.34c1.18-3.46,1.37-5.47,2.4-6.84C577.62,468,588.63,453.89,603.12,442.93ZM770.59,695.15c1.92,3.55,5,6.25,8.8,5.29,12.69-3.23,17.16,5.35,21.62,14.17,6.06,12,7.27,24,.24,36-3.42,5.85-5.49,12.12-12.75,15.74-4.64,2.32-7,9.25-11,15.06l-6.4-7.67c11.46-10.15,13-24.45,15.74-37.9.92-4.44-1.89-10.39-4.61-14.62-2.43-3.78-5.68-7.71-12-7-6.13.7-12.48-.77-18.75-.95-3.93-.11-7.32-.9-9.29-4.57-2.2-4.07-1-8,1.76-11.11,3.27-3.72,7.14-6.92,10.8-10.29,10.27-9.46,20.49-19,30.86-28.3,4.4-4,9.13-7.53,14.68-12.08,1.55,3.54,2.33,5.33,3.34,7.62-7.44,7.13-14.82,14.19-22.18,21.27a114.75,114.75,0,0,0-9.2,9.12C769.86,687.85,768.51,691.3,770.59,695.15ZM729.43,525.61c-14.61,23.35-28.81,47-44.91,69.35-12,16.56-26.72,31.08-40,46.71-2.55,3-4.82,4.36-10.3,1.53,14.18-19.79,28-38.8,41.5-58,9.72-13.82,19.08-27.89,28.61-41.84a48.46,48.46,0,0,1,4.55-6.29c9.26-9.74,14.13-22.32,21.66-33.16a53.2,53.2,0,0,1,8.53-9.68c1.63-1.43,4.47-1.5,6.76-2.18l1.39,1.76C741.32,504.42,735.87,515.33,729.43,525.61ZM913.79,763c0,2.27-.21,4.55-.43,9-12-18.28-23.21-34.72-33.71-51.61-9.2-14.82-17.34-30.29-26.41-45.21-6.11-10.06-12.66-19.9-19.64-29.38-7.85-10.66-12.2-21.24-4.27-33.82a38.14,38.14,0,0,0,3.93-10.2c3.39-12.41,8.68-24.77,9.34-37.35a372.13,372.13,0,0,0-1.86-62.44c-2.44-21.07-12.63-39.12-26.27-55.85-9.57-11.74-21.64-20.27-32-30.82-2.87-2.91-7.56-4.08-11.49-5.88-14.84-6.78-29.87-12.55-46.77-10.77-5.25.55-10.67,0-16-.48-17-1.39-32.88,4-49.25,8.08C642.64,391,634,372.08,634,349.87c0-9.54,1.9-19.21,4-28.59,3.07-13.71,2.11-27.3-1.16-40.51-3.82-15.44-9.14-30.53-14.18-45.66-1.44-4.31-4.24-8.15-6.28-12.28-12-24.4-28.46-45.73-49.88-62.13-13.78-10.54-26-23.8-43.47-29.45-7-2.27-13.31-7.48-19.45-12-8.85-6.53-17.26-13.66-25.85-20.53-9.6-7.68-17-16.9-20.45-28.93-2.64-9.29-5.43-18.54-7.59-27.94-1-4.48-1.85-9.54-.79-13.85,1.48-6,3.77-12.46,7.75-16.92,2.29-2.58,8.58-2.14,13.07-2.13,36.72,0,73.44.36,110.16.4,24,0,48.07-.32,72.1-.49a22.58,22.58,0,0,1,10.54,1.87c-4.08,4.13-8,8.46-12.3,12.33-9.36,8.39-16.6,18.14-21.08,30-3.54,9.35-7.75,18.45-11.18,27.83-5.58,15.29-7.36,31-3,46.91a78.6,78.6,0,0,0,5.93,14.62c10.28,20.38,19.51,41.29,34.13,59.32,10.09,12.43,17.52,26.7,20.57,42.72a81.36,81.36,0,0,1,1.34,15.73c0,5.14.13,9.92,4.43,13.8,6.28-1.46,8.16-5.91,8.41-11.7.36-8.64.34-17.34,1.4-25.89,3.11-25,16.85-42.82,39.11-54a32.68,32.68,0,0,1,14.51-3c16.13.24,31.7-3.17,47.35-6.2,8.08-1.57,16.1-3.47,24.57-5.31,2.53,2.56.75,5.25-1.6,7.1-6.18,4.85-8.87,11.3-12.12,18.39-9.66,21-9.06,43.37-11.23,65.38-.82,8.26-.2,16.49,3.07,24.57,1.66,4.1-.1,9.52,1.34,13.79,5.62,16.63,11.45,32.9,23.76,46.58,10.24,11.39,23.11,18.66,34.83,27.73,18.33,14.18,35.68,29.51,52.82,45.09,4.49,4.08,6.41,8.6,6.4,14.86Q913.67,597.18,913.79,763Z"/><text class="cls-3" transform="translate(200.59 461.73)">Upside<tspan class="cls-4" x="379.46" y="0">down</tspan><tspan x="525.95" y="0"> </tspan><tspan class="cls-5"><tspan x="277.69" y="168">福</tspan></tspan></text><path class="cls-6" d="M179.59,233.77c-1.63.57-3.11,1.49-4.39,1.78h-1.41c-3.89-.89-7.49-1.4-11.34,0H155l-.38-.1c-30.85-8.18-56.15-24.78-77.27-48.79-9.48-10.78-19.26-21.08-25.7-34C48.85,147,46.89,141,43.93,135.46q-3.41-6.36-7-12.62A159,159,0,0,1,149.71,76.1c4.87,0,9.7.22,14.46.65,3.13,13.15,4.73,26.59,6.28,40,.45,4,.53,8,1.28,11.88,1.79,9.23-3.12,17-6,24.87-4.17,11.09-2.56,21.75-.33,32.24,3,14.21,5.27,28.81,12.57,41.81C178.85,229.24,179,231.33,179.59,233.77Z"/><path class="cls-6" d="M173.79,235.55H162.45C166.3,234.15,169.9,234.66,173.79,235.55Z"/></g></g></svg>