<svg xmlns="http://www.w3.org/2000/svg" viewBox="0 0 1436.68 187.13"><defs><style>.cls-1{fill:#ce242b;}</style></defs><title>grass</title><g id="Layer_2" data-name="Layer 2"><g id="Layer_1-2" data-name="Layer 1"><path class="cls-1" d="M169.33,159.88a150.92,150.92,0,0,0-32.25-62.52c-2.1-2.44-5.62,1.11-3.54,3.54a145.49,145.49,0,0,1,31,60.31c.77,3.12,5.59,1.8,4.82-1.33Z"/><path class="cls-1" d="M153.64,174.35A50.82,50.82,0,0,0,131,122.09c-5.46-3.44-10.49,5.21-5,8.63a40.47,40.47,0,0,1,18.08,41c-1.17,6.29,8.46,9,9.64,2.66Z"/><path class="cls-1" d="M182.06,126.52a294.38,294.38,0,0,1,1.25-47.61c.69-6.39-9.32-6.34-10,0a294.38,294.38,0,0,0-1.25,47.61c.35,6.4,10.35,6.44,10,0Z"/><path class="cls-1" d="M206.42,155.27A124.27,124.27,0,0,1,227,84.61c3.55-5.39-5.11-10.41-8.63-5a133.79,133.79,0,0,0-21.93,75.7c.11,6.43,10.11,6.45,10,0Z"/><path class="cls-1" d="M112.34,115.31a41.56,41.56,0,0,0-28.27-26.1c-6.22-1.68-8.88,8-2.66,9.64A31.13,31.13,0,0,1,102.69,118c2.22,6,11.89,3.39,9.64-2.66Z"/><path class="cls-1" d="M87.79,175.08v-31.7c0-6.43-10-6.45-10,0v31.7c0,6.43,10,6.45,10,0Z"/><path class="cls-1" d="M116.52,150.31V138.42c0-6.43-10-6.45-10,0v11.89c0,6.43,10,6.45,10,0Z"/><path class="cls-1" d="M256.2,128.51V86.91c0-6.43-10-6.45-10,0v41.61c0,6.43,10,6.45,10,0Z"/><path class="cls-1" d="M274.11,159.22a52.28,52.28,0,0,1,25.26-51c5.56-3.24.53-11.89-5-8.63-20.57,12-32.92,35.91-30.21,59.66.72,6.32,10.73,6.39,10,0Z"/><path class="cls-1" d="M309.24,131.77a55.86,55.86,0,0,1,25.27-36.34c5.46-3.38.44-12-5-8.63a65.83,65.83,0,0,0-29.87,42.31c-1.32,6.28,8.32,9,9.64,2.66Z"/><path class="cls-1" d="M375,153.29c.05-6.52.75-13.42,0-19.9-.64-5.28-4.24-9.29-9.73-9.32-6.44,0-6.44,10,0,10-.16,0-.22,17.52-.23,19.22-.05,6.44,9.95,6.44,10,0Z"/><path class="cls-1" d="M353.33,146.35l-.08-9.52c0-2.39-.89-6.75,0-9,.61-1.64,2.35-2.16,3.72-3.1a15.76,15.76,0,0,0,4.56-4.56c3.55-5.39-5.11-10.4-8.63-5-1.16,1.75-3.82,2.6-5.43,3.94a11.22,11.22,0,0,0-3.89,6c-1.58,6.5-.26,14.63-.2,21.29.05,6.43,10.05,6.45,10,0Z"/><path class="cls-1" d="M403,130.48c2.05-16,3-34.09-10.14-45.87-4.77-4.29-11.87,2.76-7.07,7.07,11,9.86,8.9,25.62,7.21,38.8-.82,6.37,9.19,6.31,10,0Z"/><path class="cls-1" d="M403.86,159.62c5.45-9.5,10.56-19.34,16.48-28.55,2.46-3.83,4.93-6.08,9.53-6.73,3.77-.53,7.35-1.13,9.89-4.25,4-5-3-12.07-7.07-7.07-2,2.4-7.59,1.71-10.49,3-4.14,1.8-7.15,5.15-9.67,8.8-6.48,9.37-11.63,19.91-17.3,29.79-3.21,5.59,5.43,10.63,8.63,5Z"/><path class="cls-1" d="M465.19,136.44c0-10.92.3-21.85.13-32.77-.11-7.5-1.56-15.65-8.75-19.51-5.67-3-10.73,5.59-5,8.63,5.46,2.93,3.8,13.11,3.78,18.14l-.11,25.5c0,6.44,10,6.44,10,0Z"/><path class="cls-1" d="M475.1,170.12a98.21,98.21,0,0,1,33.22-71.79c4.83-4.27-2.26-11.32-7.07-7.07a108.12,108.12,0,0,0-36.14,78.86c-.1,6.44,9.9,6.44,10,0Z"/><path class="cls-1" d="M537.23,155.95a149.72,149.72,0,0,0,.13-110.4c-2.35-5.91-12-3.33-9.64,2.66a141.37,141.37,0,0,1-.13,105.08c-2.4,6,7.27,8.57,9.64,2.66Z"/><path class="cls-1" d="M360.61,103.69a108.73,108.73,0,0,1,2.84-43.35c1.7-6.22-7.94-8.87-9.64-2.66a116,116,0,0,0-3.2,46c.84,6.29,10.85,6.37,10,0Z"/><path class="cls-1" d="M63,131.48c.21-9.77-.92-19.13-8.9-25.73-8.51-7-18.72-12.47-28-18.43-5.43-3.49-10.45,5.16-5,8.63,7.67,4.94,15.43,9.76,23,14.82,3.5,2.34,6.63,4.77,8,8.93,1.24,3.74,1,7.9.9,11.78-.14,6.44,9.86,6.44,10,0Z"/><path class="cls-1" d="M10,146.36a28.59,28.59,0,0,1,11.57-21.93c5.15-3.76.16-12.44-5-8.63A39.28,39.28,0,0,0,0,146.36c-.27,6.43,9.73,6.42,10,0Z"/><path class="cls-1" d="M597.94,138.41c.76-5.86-.57-11.64-.12-17.49.48-6.28,4.67-9.6,9.74-12.6,5.53-3.28.51-11.93-5-8.63-6.1,3.61-11.61,8.1-13.73,15.14-2.32,7.68.17,15.77-.84,23.59-.82,6.36,9.18,6.3,10,0Z"/><path class="cls-1" d="M571.17,132.47l.17-23.83c0-6,.08-12-4.48-16.49s-11.66,2.54-7.07,7.07c3.13,3.09,1.54,11.18,1.51,15.14l-.13,18.11c0,6.44,10,6.44,10,0Z"/><path class="cls-1" d="M636.46,148.43c.76-18.67,21-26.09,36.22-29.76,6.25-1.51,3.61-11.15-2.66-9.64-20.11,4.85-42.6,15.81-43.56,39.4-.26,6.44,9.74,6.42,10,0Z"/><path class="cls-1" d="M639.36,108.7c.81-12.52.56-26.71-10.21-35.19-5-3.94-12.13,3.09-7.07,7.07,8.67,6.83,7.93,18.14,7.29,28.12-.42,6.43,9.59,6.4,10,0Z"/><path class="cls-1" d="M719.85,154.27A35.56,35.56,0,0,1,724.11,134c3.1-5.65-5.54-10.7-8.63-5a45.21,45.21,0,0,0-5.62,25.31c.48,6.38,10.48,6.43,10,0Z"/><path class="cls-1" d="M749.2,113q-9.72-26-21.4-51.29c-2.7-5.83-11.32-.76-8.63,5q11.13,24.06,20.39,48.9c2.23,6,11.9,3.39,9.64-2.66Z"/><path class="cls-1" d="M765.88,144.34c2.57-19.86-6-46.62,10.79-62.09,4.74-4.38-2.35-11.43-7.07-7.07-19.53,18-10.73,46.07-13.72,69.16-.82,6.36,9.18,6.3,10,0Z"/><path class="cls-1" d="M794.37,135.44a52.83,52.83,0,0,1,29.9-49.36c5.8-2.79.73-11.41-5-8.63-21.76,10.46-35.75,33.9-34.85,58,.24,6.42,10.24,6.45,10,0Z"/><path class="cls-1" d="M852.59,134.46V92.85c0-6.43-10-6.45-10,0v41.61c0,6.43,10,6.45,10,0Z"/><path class="cls-1" d="M903,128.53c.54-18.55-1.91-39.32-19.26-49.88-5.51-3.36-10.54,5.29-5,8.63,14.06,8.56,14.73,26.56,14.31,41.25-.19,6.44,9.81,6.43,10,0Z"/><path class="cls-1" d="M929.86,120.59V81c0-6.43-10-6.45-10,0v39.63c0,6.43,10,6.45,10,0Z"/><path class="cls-1" d="M984.35,161.89A73.62,73.62,0,0,0,958.53,100c-4.9-4.11-12,2.93-7.07,7.07a64.31,64.31,0,0,1,22.89,54.79c-.53,6.41,9.47,6.38,10,0Z"/><path class="cls-1" d="M1001.34,137.57c-1.07-19.65-2-39.71,5.71-58.26,2.46-5.94-7.21-8.53-9.64-2.66-8,19.3-7.18,40.46-6.06,60.92.35,6.4,10.35,6.44,10,0Z"/><path class="cls-1" d="M1019.26,136a29.81,29.81,0,0,1,29.11-14.51c6.4.65,6.35-9.36,0-10a39.61,39.61,0,0,0-37.75,19.46c-3.26,5.57,5.38,10.6,8.63,5Z"/><path class="cls-1" d="M1069.28,162.88c1.72-21.28,2.8-44.06-9-62.88-3.41-5.44-12.07-.42-8.63,5,10.83,17.26,9.23,38.38,7.65,57.83-.52,6.41,9.48,6.38,10,0Z"/><path class="cls-1" d="M1104.88,147.3q.66-27.25-.44-54.49c-.26-6.41-10.26-6.45-10,0q1.1,27.24.44,54.49c-.16,6.44,9.84,6.43,10,0Z"/><path class="cls-1" d="M1123.57,121.57a11.74,11.74,0,0,1,7.79-13.58c6.12-1.92,3.51-11.58-2.66-9.64a22,22,0,0,0-14.77,25.88c1.45,6.27,11.09,3.61,9.64-2.66Z"/><path class="cls-1" d="M1146.42,148.23a26.59,26.59,0,0,1,12.53-18.93c5.46-3.38.45-12-5-8.63a37.28,37.28,0,0,0-17.48,27.56c-.83,6.36,9.18,6.3,10,0Z"/><path class="cls-1" d="M1190.47,131.73a123.47,123.47,0,0,0-8.59-47.15c-2.34-5.92-12-3.34-9.64,2.66a116,116,0,0,1,8.23,44.49c-.09,6.44,9.91,6.44,10,0Z"/><path class="cls-1" d="M1160.89,106.75a82.89,82.89,0,0,0-2-33.9c-1.71-6.2-11.36-3.57-9.64,2.66a70.42,70.42,0,0,1,2,28.58c-.88,6.29,8.76,9,9.64,2.66Z"/><path class="cls-1" d="M1231.54,116.15a52,52,0,0,1,11-39.3c4-4.94-3-12.06-7.07-7.07a61.68,61.68,0,0,0-13.94,46.37c.75,6.31,10.76,6.39,10,0Z"/><path class="cls-1" d="M1244.29,135.81a52,52,0,0,1,31.19-33.13c6-2.23,3.39-11.9-2.66-9.64a62.68,62.68,0,0,0-38.18,40.11c-1.92,6.16,7.73,8.79,9.64,2.66Z"/><path class="cls-1" d="M1297.58,130.76V102.55c0-6.43-10-6.45-10,0v28.21c0,6.43,10,6.45,10,0Z"/><path class="cls-1" d="M1336.47,138.54a134.68,134.68,0,0,0-4.85-45.17c-3.08-10.58-8.8-21.62-20.29-24.56-6.24-1.6-8.9,8-2.66,9.64,9.7,2.48,12.68,14.45,14.7,22.94a128,128,0,0,1,3.09,37.15c-.37,6.43,9.63,6.41,10,0Z"/><path class="cls-1" d="M1358,111.77a68.6,68.6,0,0,1,42-27.59c6.29-1.36,3.63-11-2.66-9.64a78.82,78.82,0,0,0-47.93,32.19c-3.69,5.29,5,10.29,8.63,5Z"/><path class="cls-1" d="M1394.85,144.38V114.22c0-6.43-10-6.45-10,0v30.16c0,6.43,10,6.45,10,0Z"/><path class="cls-1" d="M1415.15,130.76a128.39,128.39,0,0,1,12.77-51.12c2.8-5.77-5.82-10.84-8.63-5a140.73,140.73,0,0,0-14.14,56.17c-.25,6.44,9.75,6.42,10,0Z"/><path class="cls-1" d="M1436.68,143.41V129.79c0-6.43-10-6.45-10,0v13.62c0,6.43,10,6.45,10,0Z"/><path class="cls-1" d="M233,180.32a76.05,76.05,0,0,0-6-41c-1.3-2.94-5.61-.4-4.32,2.52a71.46,71.46,0,0,1,5.35,38.5c-.42,3.18,4.58,3.15,5,0Z"/><path class="cls-1" d="M282.42,99.68a161.12,161.12,0,0,1,29.69-56.16c2-2.47-1.5-6-3.54-3.54a167.34,167.34,0,0,0-31,58.36c-.92,3.09,3.91,4.41,4.82,1.33Z"/><path class="cls-1" d="M156.72,88.21A159,159,0,0,0,135.65,44.6c-8.08-11.65-18-23.55-32.46-26.76-3.14-.7-4.47,4.12-1.33,4.82,14.25,3.16,23.77,15.75,31.39,27.3A154.92,154.92,0,0,1,151.9,89.54c.95,3.06,5.78,1.76,4.82-1.33Z"/><path class="cls-1" d="M118.64,78.51A95.43,95.43,0,0,1,168.38,5.19c2.84-1.51.32-5.83-2.52-4.32a100.56,100.56,0,0,0-52.22,77.64c-.34,3.2,4.66,3.17,5,0Z"/><path class="cls-1" d="M50.69,177.27c5.14-42.06,30-80.58,66.05-102.78,2.74-1.68.23-6-2.52-4.32a147.63,147.63,0,0,0-68.53,107.1c-.39,3.19,4.61,3.16,5,0Z"/><path class="cls-1" d="M59.42,86.48c7.66-20.37-15.38-33.09-25-47.21-1.8-2.65-6.13-.15-4.32,2.52C38.74,54.46,61.4,67.08,54.6,85.15c-1.13,3,3.7,4.32,4.82,1.33Z"/><path class="cls-1" d="M242.37,82.12c8.13-22.11-11-39.81-26.67-52-2.51-2-6.07,1.56-3.54,3.54C226.35,44.71,245,60.51,237.55,80.79c-1.11,3,3.72,4.33,4.82,1.33Z"/><path class="cls-1" d="M377.09,90.42a10.54,10.54,0,0,1-1.21,6.9l4.66,1.26c2.9-24.78,24.35-45.51,49.18-47.68,3.18-.28,3.21-5.28,0-5-27.79,2.43-50.94,25-54.18,52.68-.3,2.52,3.54,3.32,4.66,1.26a15,15,0,0,0,1.89-9.42c-.39-3.15-5.4-3.19-5,0Z"/><path class="cls-1" d="M450.47,134.63a133.41,133.41,0,0,0-34.76-84.68c-2.17-2.38-5.7,1.16-3.54,3.54a128,128,0,0,1,33.3,81.15c.12,3.21,5.13,3.22,5,0Z"/><path class="cls-1" d="M329.38,178.84a123.16,123.16,0,0,1,32.51-97.32c2.21-2.34-1.32-5.88-3.54-3.54a128,128,0,0,0-34,100.85c.34,3.16,5.35,3.2,5,0Z"/><path class="cls-1" d="M482,93.84A110,110,0,0,0,465.4,57.49,108.9,108.9,0,0,0,453,42.83c-3.77-3.72-8.21-8.48-14-6.56-3,1-1.74,5.84,1.33,4.82,4.84-1.61,11.88,8,14.62,11.17a102.59,102.59,0,0,1,9.63,13.14A106,106,0,0,1,477.2,95.17c.79,3.12,5.62,1.8,4.82-1.33Z"/><path class="cls-1" d="M504.09,162.64a83.69,83.69,0,0,1,73.24-77.57c3.16-.38,3.19-5.38,0-5a88.82,88.82,0,0,0-78.24,82.57c-.2,3.21,4.8,3.2,5,0Z"/><path class="cls-1" d="M603.88,91.71a154.75,154.75,0,0,0-35.37-50.07c-2.34-2.21-5.88,1.32-3.54,3.54a151.22,151.22,0,0,1,34.59,49.06c1.3,2.94,5.61.4,4.32-2.52Z"/><path class="cls-1" d="M619.75,149.37c-4.15-38.51,13.56-77.84,45.47-99.92,2.63-1.82.13-6.15-2.52-4.32-33.29,23-52.29,63.92-47.95,104.23.34,3.17,5.34,3.2,5,0Z"/><path class="cls-1" d="M685.3,86.53a52.7,52.7,0,0,0-16.16-51.22c-2.4-2.13-5.95,1.4-3.54,3.54A47.65,47.65,0,0,1,680.48,85.2c-.73,3.13,4.09,4.47,4.82,1.33Z"/><path class="cls-1" d="M697.54,166.43c-4.62-32.29,13.18-65.52,42.21-80.09,2.88-1.44.35-5.76-2.52-4.32-31.22,15.66-49.44,51.29-44.51,85.73.45,3.17,5.27,1.82,4.82-1.33Z"/><path class="cls-1" d="M789.23,133.17a509.61,509.61,0,0,1,.64-51.65c.2-3.21-4.8-3.2-5,0a509.61,509.61,0,0,0-.64,51.65c.12,3.21,5.12,3.22,5,0Z"/><path class="cls-1" d="M685.36,107.64a295.37,295.37,0,0,0-43-41.09c-2.51-2-6.07,1.56-3.54,3.54a295.37,295.37,0,0,1,43,41.09c2.09,2.45,5.62-1.1,3.54-3.54Z"/><path class="cls-1" d="M743.83,132.42a103.87,103.87,0,0,1,19.49-77.88C765.24,52,760.9,49.46,759,52a108.75,108.75,0,0,0-20,81.73c.5,3.17,5.32,1.82,4.82-1.33Z"/><path class="cls-1" d="M802.86,145.93a77.76,77.76,0,0,1,29.34-32.52c2.74-1.68.23-6-2.52-4.32a82.48,82.48,0,0,0-31.13,34.32c-1.4,2.88,2.91,5.42,4.32,2.52Z"/><path class="cls-1" d="M872.92,140.52a99.68,99.68,0,0,0-25.46-77.06c-2.17-2.38-5.7,1.16-3.54,3.54a94.83,94.83,0,0,1,24,73.52c-.33,3.2,4.67,3.17,5,0Z"/><path class="cls-1" d="M836.42,184a210.48,210.48,0,0,1,4.77-131.64c1.12-3-3.71-4.33-4.82-1.33a215.1,215.1,0,0,0-4.77,134.29c.9,3.08,5.72,1.77,4.82-1.33Z"/><path class="cls-1" d="M922,153.82a201.81,201.81,0,0,0-17.7-85.54c-1.31-2.93-5.62-.39-4.32,2.52a196,196,0,0,1,17,83c0,3.22,5,3.22,5,0Z"/><path class="cls-1" d="M937.85,134.64c1.62-35,24.13-67,56.27-80.77,2.95-1.26.41-5.57-2.52-4.32C957.84,64,934.54,98,932.85,134.64c-.15,3.22,4.85,3.21,5,0Z"/><path class="cls-1" d="M958.5,158.23a179.57,179.57,0,0,0-.78-32.49c-.36-3.16-5.37-3.2-5,0a179.57,179.57,0,0,1,.78,32.49c-.21,3.21,4.79,3.2,5,0Z"/><path class="cls-1" d="M867.17,61A143,143,0,0,0,806,.3c-2.86-1.47-5.39,2.84-2.52,4.32a138.43,138.43,0,0,1,59.34,58.9c1.49,2.85,5.81.33,4.32-2.52Z"/><path class="cls-1" d="M809.19,67.35c4.06-14.37-3.83-29.67-17.61-35.1-3-1.18-4.29,3.65-1.33,4.82,11.27,4.45,17.38,17.4,14.12,29-.88,3.1,3.95,4.43,4.82,1.33Z"/><path class="cls-1" d="M1021.84,99.28a56.71,56.71,0,0,1,29.72-52.84c2.84-1.51.32-5.83-2.52-4.32a61.67,61.67,0,0,0-32.2,57.15c.18,3.2,5.18,3.22,5,0Z"/><path class="cls-1" d="M1081.52,111a87.63,87.63,0,0,0-30.31-56.74c-2.44-2.07-6,1.45-3.54,3.54A82.61,82.61,0,0,1,1076.52,111c.38,3.16,5.38,3.19,5,0Z"/><path class="cls-1" d="M1086.69,74.19a63.32,63.32,0,0,1,22.9-47.14c2.47-2.06-1.08-5.58-3.54-3.54a68.17,68.17,0,0,0-24.36,50.67c-.08,3.22,4.92,3.22,5,0Z"/><path class="cls-1" d="M1085.16,159.74c-4.16-44,21.12-88,61.19-106.52,2.92-1.35.38-5.66-2.52-4.32-41.51,19.21-68,65.31-63.67,110.84.3,3.18,5.3,3.21,5,0Z"/><path class="cls-1" d="M1168.33,122.13a160.79,160.79,0,0,0-28-68.88c-1.85-2.6-6.19-.11-4.32,2.52a157.6,157.6,0,0,1,27.45,67.68c.49,3.17,5.31,1.82,4.82-1.33Z"/><path class="cls-1" d="M1204.75,106.65l.28-24.09c0-3.89-1.59-17.87,4.61-18.58,3.16-.36,3.2-5.37,0-5-6.74.78-9,7.11-9.43,13.16-.89,11.4-.34,23.08-.47,34.52,0,3.22,5,3.22,5,0Z"/><path class="cls-1" d="M1215.44,168.55a59.83,59.83,0,0,0-18.34-40.43c-2.32-2.23-5.86,1.3-3.54,3.54a54.66,54.66,0,0,1,16.88,36.9c.16,3.2,5.16,3.22,5,0Z"/><path class="cls-1" d="M1183.23,68.76a56.6,56.6,0,0,1,26.54-36.26c2.77-1.63.26-6-2.52-4.32a61.62,61.62,0,0,0-28.83,39.25c-.72,3.13,4.1,4.47,4.82,1.33Z"/><path class="cls-1" d="M1285.78,81.55A64,64,0,0,0,1262.23,26c-2.49-2-6,1.52-3.54,3.54a59.46,59.46,0,0,1,22.09,52c-.3,3.2,4.7,3.18,5,0Z"/><path class="cls-1" d="M1269.63,150.85a140.56,140.56,0,0,0-10.28-67c-1.22-2.93-6.06-1.64-4.82,1.33a137.37,137.37,0,0,1,10.1,65.68c-.29,3.2,4.71,3.18,5,0Z"/><path class="cls-1" d="M1327.14,112.54a109.86,109.86,0,0,1,23-74.91c2-2.5-1.55-6.07-3.54-3.54a115,115,0,0,0-24.44,78.45c.21,3.19,5.21,3.22,5,0Z"/><path class="cls-1" d="M1354.68,145.55c2.36-14,4.22-28.39,3.82-42.57-.3-10.69-2.66-22-11.4-29-2.49-2-6,1.52-3.54,3.54,8.55,6.86,10,18,10,28.35a236.94,236.94,0,0,1-3.68,38.34c-.53,3.15,4.29,4.5,4.82,1.33Z"/><path class="cls-1" d="M1396.61,77.14l-.09-15.82c0-4.83-1.57-12.09,3.2-14.95,3.79-2.27,8.84-3.35,13-4.63,4.74-1.44,9.53-2.66,14.36-3.75,3.14-.7,1.81-5.53-1.33-4.82-6,1.36-12,2.95-17.9,4.86-4.31,1.4-10,2.65-13.36,5.92s-3.06,8-3,12.43l.12,20.77c0,3.22,5,3.22,5,0Z"/></g></g></svg>