<svg xmlns="http://www.w3.org/2000/svg" viewBox="0 0 909.83 909.84"><defs><style>.cls-1{fill:#ce242b;}.cls-2,.cls-4,.cls-7{fill:#fed6af;}.cls-2{opacity:0.41;}.cls-3{fill:none;stroke:#fed6af;stroke-miterlimit:10;stroke-width:5px;}.cls-4{font-size:36.18px;}.cls-4,.cls-5{font-family:Georgia, Georgia;}.cls-5{font-size:111.41px;fill:#fff;}.cls-6{font-size:54.79px;}</style></defs><title>hongcunCover_1</title><g id="Layer_2" data-name="Layer 2"><g id="Layer_8" data-name="Layer 8"><rect class="cls-1" x="37.58" y="34.34" width="835.03" height="843"/><path class="cls-2" d="M872.61,877.34H51.49c-12.88,0-12.89,0-12.89-13.17q0-407.78,0-815.56V36.35H358.75q234,0,468.05-.08c11.87,0,23.76-1,35.62-1.8,8.27-.56,9.69.41,10,8.85.22,6.45.22,12.91.22,19.36q0,400.86,0,801.73C872.61,868.35,872.61,872.29,872.61,877.34ZM779,411.71c-8.44-10.5-6.35-21.4-3.71-30,4.3-14,18.82-27.09,33-27A150,150,0,0,1,830.11,357a20.61,20.61,0,0,1,8.26,3.47C856.76,373.25,863,400.55,852,420.23c-3.23,5.8-9.48,14.49-16.93,14,5.67,7,18.08,16,26.33,19.26.62-1,1.21-1.49,1.21-2q.18-96.4.26-192.81a39.06,39.06,0,0,0-.4-4.57c0-.24-.34-.47-.57-.64a10.1,10.1,0,0,0-1.27-.62c-.84,1-1.78,2.12-2.7,3.24-5.38,6.53-10.16,13.71-16.25,19.47-11.65,11-24.15,21.1-36.09,31.79a269.87,269.87,0,0,1-31.69,24.34c-16.64,11-34.72,18.46-53.64,23.61-9.54,2.6-19.84,2.69-29.84,3.16-15.62.72-30.81-2.42-46.07-5.55a176.73,176.73,0,0,1-29.56-9.25c-2.84-1.12-4.57-2.83-4.59-6.09s1.63-5.12,4.54-6.09a15.54,15.54,0,0,0,2.59-.84c18.43-10.11,33.29-23.64,40.18-44.25,4.45-13.31,8.74-26.72,12.17-40.32,3.5-13.91,7.67-28,8.27-42.21a279.38,279.38,0,0,1,7.72-53.57c7.27-30.37,20.45-57.57,41.81-80.51,5.94-6.38,11.7-12.95,18.5-20.51h-60.9c-1.08,9.16-1.73,18-3.22,26.63-2.92,16.87-5.27,33.94-9.82,50.39-4,14.33-8,28.83-14.76,42.3-3.27,6.48-5.43,13.54-8.06,20.34-2.87,7.41-5.16,15.12-8.67,22.21-13.19,26.6-31.17,49.82-51.29,71.38-6.33,6.78-52.48,43.88-55.91,41.56-3.12-2.11,30.59-60.79,39.85-86.68,3.15-8.83,6.44-17.48,6.87-27,.23-5.16,1.63-10.27,2.36-15.42,1.44-10.26,2.92-20.51,4.11-30.8.81-7,1.82-14.06,1.59-21.05-.34-10-2.06-20-2.6-30-1.21-22.47-8.7-42.92-19.21-63l-12.75-1c-.16,3.07-.17,5.74-.45,8.39-1.68,16.23-11,28.45-22,39.12-11.79,11.47-29.49,12.9-43.82,5.22-16.86-9-22.33-30.29-12.19-47.15.7-1.17.88-2.67,1.85-5.8-4.12.83-7.16.71-9.33,2C463,53.81,459,57.6,454.41,60.63c-7.07,4.72-9.31,12.61-10,19.71-2,19.88.6,39.71,4,59.37,5.41,31.42,36.51,102.08,30.76,100-4.24-1.53-8.08-4.19-12.13-6.29-16.34-8.45-32-17.87-44-32.26q-7.32-8.75-14.71-17.43c-12.42-14.58-22-31.19-26.44-49.56-5.4-22.49-11.77-45.13-10-68.84.22-2.89-1.17-13.88-2.2-16.15H270c1,4.34,1,8.69,2.92,11.91A23.34,23.34,0,0,1,276.18,76c-1.07,9.72-1.43,19.81-4.46,29-5.33,16.12-9.6,32.74-18.74,47.48-5.77,9.3-9.74,19.74-15.64,28.94-6.32,9.87-12.34,20-20.92,28.37-10.37,10.11-21,19.9-31.67,29.68-10.06,9.22-24.35,11.41-33.33,22.17-1.37,1.64-6.68,1.34-9.36.14-3.51-1.58-1.34-5.39-.85-8.3a10.67,10.67,0,0,1,.6-1.73c3.32-9.34,6.75-18.64,9.93-28,6.65-19.58,2-36.75-11.68-51.59-4.32-4.7-9.63-8.49-16.35-9.39-7.82-1-15.65-2.06-23.46-3.23-14.66-2.18-29.81-2.46-42.82-11.21-1.55-1-3.78-1.07-6.26-1.72v105c13.88,7.3,27.57,14.49,41.25,21.69,12.93,6.81,26.78,12.28,37.19,23.06,13.36,13.85,26.32,28.1,39.45,42.18,1.15,1.24,2.28,2.5,4,4.44.9-1.95,1.45-3,1.83-4,.71-2,1.33-4.06,2-6.1,6.12-19.49,15.87-36.79,30.26-51.36,5.32-5.39,10.66-10.78,15.61-16.5,31.76-36.78,72-49.49,119-42.33,10.88,1.66,21.56,3.26,32.41-.09,2.51-.77,5.49-.42,8.17,0a5.18,5.18,0,0,1,3.29,2.62c2.46,5.08.2,11.87-5.15,13.49-10,3-16.35,11.21-24.75,16.46-1.2.75-1.76,3.09-2,4.78a10.89,10.89,0,0,0,4.48,10.62c2.59-.83,5.17-1.63,7.73-2.47,10.78-3.54,21.81-6.41,33.14-5.11,7.43.85,15.63,2,21.72,5.91,10,6.36,18,15.52,20.78,27.91,1.84,8.07,7.4,11.53,15.05,12.41,9.14,1.05-3.37,17.68-9.62,21.21.48,4.72,1.21,9.24,1.35,13.78.31,9.81,3.43,19.23-1.61,29.5-3.48,7.1-7.18,12.36-13.86,15.83-3.1,1.61-6.22,3.19-9.15,4.69,2.61,5.88,5.22,10.79,7,16a28.85,28.85,0,0,0,12.24,15.5,46.88,46.88,0,0,1,7.41,5.4c13.54,13,31.11,17.52,48.18,22.83,10.41,3.24,21.34,4.77,31.82,7.81,17.61,5.1,35.42,8.22,53.68,5.88,25.09-3.21,49.5-9.78,73.7-17a93.89,93.89,0,0,0,19.85-9c6.82-4,13.05-8.94,19.55-13.46s12.69-9.63,19.58-13.44C733.77,405.29,758.65,404.9,779,411.71ZM487.52,808.5c-.74-3.05-13.28-6.85-19-17.88a147.5,147.5,0,0,1-9.33-64.18c1.16-15.22,4.92-29.46,15.6-41.89,16.38-19.06,38.41-28.5,59.89-38.93a22.21,22.21,0,0,0,11.15-10.74c9.16-17.45,18.79-28.74,39.32-44.65,27.17-17.2,57.38-17.75,61.9-17.5a84.61,84.61,0,0,1,26,5.38c21.59,8.4,40.45,21.73,54.92,40.08,15.12,19.18,30.41,38.35,41.94,60.13.77,1.45,3.24,2,4.92,2.94.75-1.8,2.55-4,2.09-5.33a229.14,229.14,0,0,0-8.67-22.19c-2.94-6.39-6.94-12.29-10-18.63a99.86,99.86,0,0,0-24.45-31.86c-13.33-11.76-27-23-44.17-30.86l12.19-16.95c4.42,3,7.85,6.77,12,7.86,12.93,3.42,24.64-1,35.55-7.85,1-.61,1.9-3.13,1.43-3.9a7.82,7.82,0,0,0-4.18-2.75c-1-.33-2.35.32-3.53.61-18.94,4.61-29.21,0-40.8-18.55-4.29-6.86-8.25-8.92-15.74-6.16-8.27,3-16.4,6.71-24.89,8.91-19.38,5-39.08,2.45-57.89-2-28.72-6.81-56.32-17.55-81.29-33.88-9.69-6.33-18.47-14-27.88-20.83-11.6-8.37-24-14.58-39-13.13-7.51.73-8.7,2.62-7.77,9.84,1,7.82,2,16,.93,23.64-1.26,8.72,8.09,34.94,4.9,42-3.13-.51-6.69-.72-10-1.7-8.57-2.54-15-.42-20.09,7.37-9.1,13.91-22.52,19.81-38.36,21.64-10.22,1.18-20.38,2.8-29.89,4.13a15.52,15.52,0,0,0-1.1,1.5c-6.74,14.53-10.52,29,.78,43.2.19.24.46.53.44.78-.28,4.13.82,9.34-1.26,12.14-3,4-33.88-13.32-45.08-19.48-5.59-3.08-10.78-7.38-16.74-9.24-15.67-4.9-31.58-9.15-47.56-13-19.87-4.75-37.52-12.86-49.1-30.69C190.14,547.2,185.28,538,180,529c-.82-1.39-1.86-2.64-4.2-5.94.4,11-8.48,16.45-7.66,25.51C160.66,562.19,155,576.84,145,589.05s-18.83,25.84-32.51,34.53c-10,6.36-20.29,12.38-30.86,17.73-8.52,4.31-17.09,9-27,9.75-1.29.1-2.49,1.46-3.42,2-1.82,27.83-1,79.43,1.69,86.32,5.18-6.9,10.41-13.22,14.93-20,7.19-10.81,16.61-19.3,26.67-27.13,4.75-3.7,9.82-7.39,15.34-9.6A52.85,52.85,0,0,0,126,672.48a34.89,34.89,0,0,1,8.46-5.18c4.36-2.08,9-3.51,13.35-5.69A85.52,85.52,0,0,1,195.83,653c11.43,1.16,22.64,4.35,34,6,10.72,1.59,19.57,6.73,27.42,13.65,13.77,12.13,22.29,28.14,30,44.39,7.61,16,14.39,32.42,20.89,48.91,2.76,7,4.15,14.58,5.73,22a190,190,0,0,1,3.36,28.06c1,15.85,5.35,31.42,4.59,47.5,0,.81.64,1.65.95,2.4,13,1.69,117.54,1.07,124-.74-2.69-2.83-5.71-5.38-7.94-8.49-6-8.37-6.86-18.26-6.57-28.06.35-12,6.6-20.22,18.31-23.45C457.34,803.37,482.06,802.83,487.52,808.5ZM51.41,323.72V592.67c10.37-1,20.75-6.66,29.36-15.65,13.71-14.31,27-28.93,38.21-45.43,11-16.22,19.08-33.55,20.61-53.23.87-11.27.26-22.69-.16-34-.25-6.69-.58-13.59-2.36-20-2.36-8.44-4.58-17-9.77-24.57A61.18,61.18,0,0,1,118,379.1c-2.93-13.24-11.94-20.85-21.9-28.1-3.66-2.66-7.64-5-10.94-8C75.62,334.14,64.44,328.36,51.41,323.72ZM702.5,311.34c3.5-.93,6.48-1.35,9.17-2.49,23.11-9.78,45-21.67,63.71-38.75,13-11.9,26.37-23.54,38.58-36.26,13.53-14.1,26.08-29.16,38.77-44.05,6.88-8.07,11.64-17,10.37-28.46-.88-7.9-.11-16-.2-24,0-2.31-.48-4.62-.73-6.94l-2-1.21a29.69,29.69,0,0,1-2.13,4c-7,9.5-13.07,19.52-20.88,28.63-12.92,15.09-27.51,28.28-41.39,42.27-10.06,10.14-21.91,18.49-30.06,30.54a8.22,8.22,0,0,1-1.16,1.43c-3.07,2.86-9.17,3.21-11.67.26-2.72-3.22-2.37-6.65.4-10a73,73,0,0,0,5.95-8.12c10.36-16.58,20.18-33.47,28-51.47,2.31-5.31,4.8-10.55,7.49-15.67,5.68-10.82,11.88-21.38,17.26-32.35q11.69-23.88,22.43-48.23c3-6.76,4.93-14,7.6-21.79-8.61,0-16,.73-23.21-.17C807.45,47.22,800.31,53,793.88,61c-4.81,5.94-9.35,12.14-14.63,17.62-11.14,11.58-19.66,24.79-26.86,39.14s-11.78,29.52-15.08,45.06c-3,14.35-4.78,29-7.5,43.42-3,15.68-6.95,31.18-9.42,46.93-3,19.18-5.77,38.27-17.14,54.74C702.81,308.49,702.88,309.46,702.5,311.34Zm-318.11,120c-4.72-10.53-9.21-19.81-13-29.36a26.77,26.77,0,0,0-10-12.74c-8.58-5.79-17.31-11.36-25.85-17.2-12-8.24-25-7.88-38.42-4.77-10.24,2.36-20.26,4.9-29.88,9.51-10.74,5.16-21.79,9.82-29.94,18.74-7.7,8.43-14.48,17.72-22,27,12,9.13,23.12,17.57,36.63,22.15,8.33,2.82,16.52,6.11,25,8.54,10.82,3.1,21.81,5.2,33.26,4,16.1-1.71,30.56-8.42,44.46-15.79C363.66,436.58,372.95,433.72,384.39,431.34Zm478.2,321c-9.67,9.09-18.84,17.9-30.13,24.17a112,112,0,0,1-63.32,13.9c-14.18-1-26.73-5.27-37.34-15-11.05-10.1-22.36-19.93-33.21-30.25a180.11,180.11,0,0,1-18.72-20.06c-9.47-12.27-18.23-25.1-24.13-40.18l-11.28,2.19a255.68,255.68,0,0,0,29.12,43.79,315.41,315.41,0,0,0,44.29,45c6.09,5,11.29,11.19,16.53,17.17,1.9,2.16,3,5.19,3.94,8,3.5,11.09,2.69,22.46,1.67,33.8-1,11.58-4.91,21.41-16.44,26.46-2,.89-3.83,2.32-7.21,4.4,12.8,2.33,22.56.74,31.09-7.28,4.88-4.59,10.49-8.37,15.68-12.62,5.82-4.76,12.69-7.74,19-11.61,10.61-6.55,21-13.31,32.68-17.78A67.47,67.47,0,0,0,826.62,810c4.3-2.74,8.56-4.52,13.19-2.37L860,866.65c1.25-1,2.5-1.5,2.5-2Q862.64,808.48,862.59,752.35ZM192.36,139.62c1-.56,1.82-.74,2-1.14,5-15.37,15.54-28.21,19.44-44.06,1.3-5.29,3.1-10.45,4.42-15.74,1.52-6.12-.09-9.61-5.4-13.21-2.36-1.6-4.53-3.48-7.24-5.58l5.65-5.36c-4.86-5.63-4.86-5.68-10.82-5.71-9.45,0-18.91,0-28.36,0H157.57c1.63,4.88,2.22,8.63,4,11.65,4,6.78,8.49,13.35,13.15,19.72,3.37,4.61,5.58,9.26,4.5,15-5.56,3.29-10.69,2.05-14.67-1.57-15-13.67-32.61-24.4-45.66-40.24-3.12-3.78-6.44-4.71-11-4.65-15.86.2-31.72.06-47.57.1-2.28,0-4.55.27-8,.5,1.9,2.51,2.74,4.14,4,5.24,5.22,4.41,6.61,10.58,8.11,16.79a19.49,19.49,0,0,0,2.71,6.6c11.68,16.5,28.31,24.42,47.72,26.92,10.85,1.4,21.8,2.43,32.73,2.79,12.86.42,22.52,6.49,30.73,15.68C183.23,128.68,187.78,134.24,192.36,139.62Zm16.87,330.29-2.2,1.78c1.32,8.68,2.55,17.38,4,26,1.56,9.5,4.93,18.19,11.72,25.26,1.46,1.52,2.69,3.27,4.19,4.74,4.74,4.63,9,10.05,14.48,13.53,7.65,4.86,16.3,8.12,24.4,12.3,14.59,7.54,29.71,13.5,45.94,16.63,2.25-6.31,4.14-12.71,6.8-18.78,3.51-8,7.75-15.73,11.45-23.68a25.85,25.85,0,0,0-.9-24.69c-20.94-2.06-42.28.37-62.37-6.83C246.87,489.11,226.84,482.29,209.22,469.91ZM212,352.37a2,2,0,0,0,.76-.07,15.7,15.7,0,0,0,2.34-1.41c20.49-16.46,43.53-25.05,70-23.72a140.68,140.68,0,0,0,21.89-1c9.17-1,13.6-5.19,14.36-14.42a33,33,0,0,0-2.25-14.2c-3.34-8.59-7.48-16.8-6.53-26.48.38-3.86.06-7.8.06-11.65C280,258.67,219,314.06,212,352.37ZM409,318.88c-3.46-2.92-7-5-9.4-8.09-5.91-7.48-13.87-10.5-22.74-12-7.63-1.25-11.45.65-13.56,8.2-2.51,9-6.72,16.9-11.81,24.54-2.31,3.47-4.12,7.29-6.39,11.36,2.91,1,5.33,2.39,7.89,2.76,16.17,2.34,29.78,10.12,42.58,19.78a36.4,36.4,0,0,0,5.13,2.64c2.21-6.46,7.36-11.49,4.95-18.32C401.83,339.09,404.82,329.32,409,318.88ZM403.18,469c-3.59.93-7,2.24-10.55,2.64-9,1-14.09,7.66-19.63,13.51-1.35,1.43-2.15,4.79-1.45,6.55a56.07,56.07,0,0,1,3,29.7c-.24,1.58.76,3.35,1.25,5.28,7.76,0,14.89,0,20.27-6.39,4.42-5.25,9.1-10.29,13.84-15.62-4.86-10.08-4.83-10.08-4.11-22.17C406.11,478,406.22,473.38,403.18,469ZM622.58,813.72c-10-7.11-29.37-19.21-39.19-26.2,0,12.81.06,24.42,0,36-.05,7.15-1.57,13.87-5.72,19.93-5.06,7.38-9.83,15-14.83,22.6,9.25,0,42.18-.61,50.3-.61-20.15-4.9-24-21.4-22.39-31.76C592.57,822,612.87,813.72,622.58,813.72ZM817.13,580.2c-.93.75-2.94,1.63-3,2.55-.05,1.88.38,4.6,1.66,5.56,6.8,5.1,13.65,10.27,22.92,9.87,7.1-.3,10.05,2.49,12.25,9.18a198.81,198.81,0,0,0,8.36,21.27c.7,1.53,4.12,3,5.76,2.59,2.87-.77,2.61-3.75,1.43-6.15a35.52,35.52,0,0,1-3.42-18.74c.23-3.13-11.87-19.16-14.69-20a3,3,0,0,0-1.78-.11c-5.07,2.09-9.48-.62-14.09-1.89C827.6,583,822.62,581.68,817.13,580.2ZM186.92,824.41l-1.15-.23L163.39,866h23.53ZM840,534.88c-.1-6.18-3.7-9-11.26-8.81-5.74.14-9,3.06-9,8.08,0,4.64,7.81,11.16,13,10.8C837,544.65,840.08,540.41,840,534.88Zm-80.9-18c.25-5.72,5.58-11.27-.8-16.21-3.19-2.47-7.09-3.89-11-1.31-2.89,1.9-4.75,9.36-3.42,12.62C745.7,516.51,749.67,517.93,759.09,516.89Z"/><rect class="cls-3" x="381.54" y="46.18" width="285.89" height="288.62"/><rect class="cls-3" x="701.04" y="307.35" width="161.68" height="163.22"/><rect class="cls-3" x="160.97" y="418.09" width="285.89" height="442.47"/><text class="cls-4" transform="matrix(0, -1.01, 1, 0, 427.8, 844.01)">HongCun</text><text class="cls-5" transform="translate(167.73 405.65) scale(0.99 1)">Images <tspan class="cls-6" x="383.3" y="0">that</tspan><tspan x="240.31" y="133.69" xml:space="preserve">  Place</tspan></text></g><g id="newGrid"><path class="cls-7" d="M0,0V909.84H909.83V0ZM871.1,790.06c-.1,25.31,0,50.61,0,75.92v11.36H37.58V34.93c3.94-.17,6.92-.41,9.9-.42,15.62,0,31.24.12,46.86-.09,5.76-.08,11.49-1,17.25-1.49,1.82-.16,3.81-.72,5.46-.23,10.82,3.26,21.87,1.66,32.8,1.7,45.63.2,91.26,0,136.89.1Q573.37,34.74,860,35h11.08V46.87q0,124.92,0,249.84c0,14.51,1,29,.94,43.54-.16,43.21-.75,86.43-.91,129.64,0,13.58,1.11,27.16,1.07,40.74Q871.8,650.34,871.1,790.06Z"/></g></g></svg>