<svg xmlns="http://www.w3.org/2000/svg" viewBox="0 0 923.13 923.13"><defs><style>.cls-1{fill:#ce242b;}.cls-2,.cls-4{fill:#fed6af;}.cls-2{opacity:0.41;}.cls-3{fill:none;stroke:#fed6af;stroke-miterlimit:10;stroke-width:5px;}.cls-4{font-size:40px;}.cls-4,.cls-5{font-family:Georgia, Georgia;}.cls-5{font-size:122px;fill:#fff;}.cls-6{font-size:60px;}</style></defs><title>hongcun</title><g id="Layer_2" data-name="Layer 2"><g id="HongCun"><rect class="cls-1" width="923.13" height="923.13"/><path class="cls-2" d="M923.13,923.13H15.37c-14.24,0-14.25,0-14.25-14.42q0-446.55,0-893.09c0-4,0-8,0-13.43H355.05q258.72,0,517.43-.09c13.13,0,26.26-1.09,39.37-2,9.14-.61,10.71.45,11,9.69.24,7.06.24,14.13.24,21.2q0,439,0,877.94C923.13,913.28,923.13,917.6,923.13,923.13ZM819.63,413.24c-9.33-11.5-7-23.44-4.1-32.86,4.75-15.31,20.81-29.66,36.52-29.55,8,.06,16.12,1.26,24.09,2.49a22.9,22.9,0,0,1,9.13,3.8c20.32,14,27.22,43.89,15.1,65.44-3.57,6.35-10.48,15.87-18.72,15.32,6.26,7.61,20,17.54,29.11,21.09.69-1.09,1.34-1.63,1.34-2.18q.2-105.57.29-211.14a42.38,42.38,0,0,0-.45-5c0-.26-.38-.52-.63-.71a11.21,11.21,0,0,0-1.4-.68c-.93,1.1-2,2.32-3,3.55-5.94,7.16-11.23,15-18,21.32-12.87,12.06-26.69,23.1-39.9,34.82a298,298,0,0,1-35,26.65c-18.4,12-38.38,20.21-59.3,25.86-10.54,2.85-21.94,2.95-33,3.46-17.27.79-34.06-2.65-50.94-6.07a196.74,196.74,0,0,1-32.68-10.13c-3.14-1.23-5-3.1-5.07-6.67s1.8-5.61,5-6.67a17.3,17.3,0,0,0,2.86-.92c20.37-11.07,36.8-25.89,44.42-48.46,4.92-14.58,9.67-29.26,13.45-44.15,3.87-15.23,8.48-30.7,9.14-46.22A303.24,303.24,0,0,1,716.48,127c8-33.26,22.61-63,46.22-88.16,6.57-7,12.93-14.18,20.46-22.45H715.83c-1.19,10-1.91,19.68-3.56,29.16C709,64,706.43,82.69,701.41,100.69c-4.38,15.69-8.81,31.57-16.32,46.32-3.61,7.1-6,14.82-8.91,22.27-3.18,8.12-5.7,16.56-9.59,24.32-14.59,29.12-34.46,54.56-56.7,78.16-7,7.43-58,48-61.81,45.51-3.44-2.31,33.82-66.57,44-94.92,3.49-9.67,7.12-19.14,7.59-29.6.26-5.65,1.8-11.24,2.6-16.88,1.59-11.23,3.23-22.46,4.55-33.73.9-7.66,2-15.39,1.76-23.05-.37-11-2.28-21.87-2.87-32.84-1.33-24.61-9.62-47-21.24-69l-14.09-1.06c-.17,3.36-.19,6.29-.49,9.18-1.86,17.77-12.16,31.15-24.28,42.84-13,12.56-32.6,14.13-48.44,5.72-18.64-9.89-24.68-33.17-13.48-51.63.78-1.28,1-2.92,2-6.35-4.55.91-7.91.78-10.31,2.23-5.14,3.11-9.63,7.26-14.66,10.58C453,34,450.52,42.59,449.73,50.37c-2.21,21.77.66,43.49,4.4,65,6,34.41,40.36,111.79,34,109.52-4.69-1.67-8.93-4.59-13.41-6.89-18.06-9.25-35.33-19.56-48.65-35.33q-8.09-9.58-16.27-19.08c-13.73-16-24.35-34.15-29.23-54.27-6-24.63-13-49.42-11-75.38.24-3.17-1.29-15.2-2.43-17.68H257c1.09,4.76,1.11,9.52,3.23,13a25.36,25.36,0,0,1,3.58,16.33c-1.19,10.64-1.59,21.69-4.93,31.71-5.89,17.66-10.62,35.85-20.72,52-6.38,10.18-10.77,21.62-17.29,31.69-7,10.81-13.64,21.92-23.12,31.07-11.47,11.07-23.21,21.79-35,32.5-11.12,10.1-26.92,12.49-36.84,24.28-1.51,1.8-7.38,1.47-10.35.15-3.88-1.73-1.49-5.91-.94-9.09a11.61,11.61,0,0,1,.66-1.89c3.67-10.23,7.46-20.41,11-30.69,7.35-21.44,2.16-40.24-12.91-56.49-4.78-5.15-10.65-9.3-18.08-10.29-8.65-1.15-17.3-2.26-25.93-3.53-16.21-2.39-33-2.69-47.34-12.27-1.72-1.14-4.18-1.17-6.92-1.88v115c15.34,8,30.47,15.86,45.6,23.75,14.3,7.46,29.61,13.45,41.11,25.25,14.78,15.17,29.1,30.77,43.62,46.19,1.28,1.36,2.52,2.74,4.47,4.86,1-2.13,1.61-3.23,2-4.4.79-2.21,1.47-4.45,2.18-6.68,6.77-21.34,17.55-40.29,33.45-56.24,5.88-5.9,11.79-11.8,17.26-18.07,35.11-40.27,79.56-54.19,131.58-46.35,12,1.81,23.83,3.57,35.83-.1,2.78-.85,6.07-.46,9,0a5.72,5.72,0,0,1,3.64,2.87c2.72,5.56.22,13-5.69,14.77-11,3.3-18.08,12.27-27.36,18-1.32.82-1.95,3.38-2.17,5.23a11.87,11.87,0,0,0,5,11.63c2.86-.91,5.71-1.79,8.55-2.71,11.91-3.87,24.11-7,36.64-5.6,8.21.93,17.27,2.24,24,6.47,11.1,7,19.85,17,23,30.56,2,8.84,8.19,12.63,16.64,13.59,10.11,1.15-3.73,19.36-10.64,23.23.53,5.17,1.34,10.12,1.49,15.09.34,10.74,3.79,21.06-1.78,32.31-3.85,7.77-7.93,13.53-15.33,17.33-3.43,1.76-6.88,3.49-10.12,5.13,2.89,6.44,5.77,11.81,7.73,17.49a31.64,31.64,0,0,0,13.53,17,51.81,51.81,0,0,1,8.19,5.91c15,14.29,34.39,19.19,53.26,25,11.51,3.55,23.59,5.23,35.18,8.55,19.46,5.58,39.16,9,59.35,6.44,27.74-3.52,54.73-10.71,81.47-18.61a104.28,104.28,0,0,0,21.95-9.88c7.54-4.33,14.43-9.79,21.61-14.74s14-10.55,21.65-14.71C769.64,406.21,797.14,405.78,819.63,413.24ZM497.41,847.75c-.82-3.34-14.68-7.5-21-19.58a160.12,160.12,0,0,1-10.32-70.28c1.28-16.66,5.43-32.26,17.25-45.87,18.11-20.87,42.46-31.21,66.21-42.63,6-2.89,9.32-6.09,12.33-11.76,10.12-19.11,20.77-31.48,43.47-48.89,30-18.84,63.44-19.44,68.43-19.17a94.31,94.31,0,0,1,28.79,5.89c23.86,9.19,44.72,23.79,60.71,43.89,16.72,21,33.62,42,46.37,65.85.85,1.59,3.58,2.17,5.44,3.22.83-2,2.82-4.33,2.31-5.83a249.5,249.5,0,0,0-9.59-24.3c-3.25-7-7.67-13.45-11-20.41a109.48,109.48,0,0,0-27-34.89C755,610.12,740,597.79,720.95,589.2l13.47-18.56c4.89,3.29,8.68,7.42,13.24,8.61,14.3,3.74,27.24-1.12,39.3-8.6,1.09-.67,2.1-3.42,1.59-4.27-.87-1.44-2.88-2.45-4.62-3-1.11-.36-2.6.35-3.9.67-20.94,5-32.29,0-45.1-20.31-4.74-7.51-9.13-9.77-17.41-6.75-9.15,3.33-18.13,7.34-27.51,9.75-21.43,5.49-43.2,2.68-64-2.2-31.75-7.46-62.26-19.22-89.86-37.1-10.71-6.94-20.42-15.38-30.83-22.81-12.83-9.16-26.52-16-43.08-14.38-8.3.8-9.61,2.87-8.59,10.78,1.1,8.56,2.25,17.48,1,25.89-1.39,9.55,8.94,38.26,5.42,46-3.46-.56-7.39-.79-11.07-1.87-9.48-2.78-16.58-.46-22.2,8.07-10.06,15.24-24.89,21.7-42.41,23.7-11.3,1.29-22.54,3.07-33,4.52a17,17,0,0,0-1.22,1.65c-7.45,15.91-11.63,31.76.86,47.31.21.26.51.58.49.86-.31,4.53.91,10.23-1.39,13.29-3.27,4.35-37.46-14.58-49.84-21.34-6.19-3.37-11.92-8.08-18.5-10.12-17.33-5.37-34.91-10-52.57-14.2-22-5.2-41.48-14.09-54.28-33.61-6.25-9.54-11.63-19.64-17.45-29.46-.9-1.52-2.05-2.89-4.65-6.5.45,12.06-9.37,18-8.47,27.93-8.28,14.91-14.5,31-25.58,44.32s-20.82,28.29-35.94,37.81c-11.07,7-22.43,13.55-34.12,19.41-9.42,4.72-18.89,9.8-29.82,10.67-1.43.11-2.75,1.6-3.78,2.24-2,30.48-1.08,87,1.86,94.52,5.73-7.56,11.51-14.48,16.5-21.92,7.95-11.83,18.37-21.14,29.48-29.71,5.26-4.05,10.86-8.09,17-10.51A58.5,58.5,0,0,0,97.7,698.8a38.64,38.64,0,0,1,9.35-5.67c4.82-2.28,10-3.85,14.76-6.23,16.8-8.41,34.72-11.25,53.13-9.39,12.63,1.27,25,4.76,37.62,6.61,11.85,1.74,21.63,7.37,30.32,14.95,15.23,13.28,24.64,30.82,33.18,48.61,8.41,17.52,15.9,35.5,23.1,53.55,3.05,7.66,4.59,16,6.33,24.08A206.23,206.23,0,0,1,309.21,856c1.07,17.35,5.92,34.4,5.07,52,0,.88.71,1.81,1,2.62,14.4,1.86,129.94,1.17,137.11-.81-3-3.1-6.31-5.89-8.78-9.3-6.61-9.16-7.58-20-7.26-30.73.39-13.17,7.29-22.14,20.25-25.68C464,842.13,491.38,841.54,497.41,847.75ZM15.29,316.88V611.4c11.47-1.13,22.94-7.29,32.45-17.13C62.9,578.59,77.59,562.58,90,544.51c12.18-17.76,21.09-36.74,22.78-58.29,1-12.35.28-24.85-.18-37.26-.27-7.33-.64-14.88-2.61-21.87-2.61-9.25-5.06-18.58-10.8-26.91A66.69,66.69,0,0,1,89,377.53c-3.24-14.5-13.2-22.84-24.21-30.77-4-2.92-8.44-5.45-12.1-8.79C42.05,328.29,29.7,322,15.29,316.88Zm719.78-13.56c3.87-1,7.16-1.48,10.13-2.73,25.54-10.71,49.75-23.73,70.43-42.43,14.41-13,29.15-25.78,42.65-39.71,15-15.44,28.83-31.93,42.86-48.24,7.6-8.84,12.87-18.58,11.46-31.16-1-8.65-.12-17.49-.22-26.25,0-2.54-.53-5.06-.81-7.6l-2.24-1.32a32.41,32.41,0,0,1-2.36,4.43c-7.73,10.4-14.45,21.38-23.08,31.35-14.28,16.52-30.41,31-45.76,46.28C827,197.06,813.91,206.2,804.9,219.4a9,9,0,0,1-1.28,1.56c-3.4,3.14-10.14,3.52-12.9.29-3-3.52-2.62-7.29.44-10.91a80,80,0,0,0,6.57-8.89c11.46-18.16,22.31-36.65,30.95-56.36,2.55-5.81,5.31-11.55,8.28-17.16,6.28-11.85,13.14-23.41,19.08-35.43Q869,66.35,880.84,39.69c3.31-7.4,5.44-15.33,8.41-23.87-9.52,0-17.7.8-25.66-.18-12.49-1.54-20.38,4.8-27.49,13.49-5.31,6.5-10.34,13.29-16.17,19.3C807.6,61.11,798.18,75.58,790.23,91.3s-13,32.32-16.67,49.34c-3.37,15.72-5.29,31.74-8.29,47.54-3.26,17.17-7.68,34.14-10.42,51.39-3.34,21-6.38,41.91-19,59.95C735.42,300.2,735.49,301.27,735.07,303.33ZM383.4,434.73C378.18,423.2,373.21,413,369,402.59a29.36,29.36,0,0,0-11.09-14c-9.48-6.34-19.13-12.44-28.58-18.84-13.31-9-27.59-8.63-42.48-5.23-11.32,2.59-22.4,5.36-33,10.42-11.88,5.65-24.08,10.75-33.1,20.52-8.52,9.24-16,19.41-24.27,29.56,13.22,10,25.56,19.24,40.5,24.25,9.21,3.09,18.27,6.7,27.6,9.35,12,3.4,24.12,5.7,36.77,4.36,17.8-1.88,33.78-9.22,49.15-17.29C360.48,440.48,370.75,437.34,383.4,434.73ZM912,786.26c-10.69,10-20.83,19.6-33.31,26.46-21.82,12-45.11,16.89-70,15.22-15.67-1-29.55-5.77-41.28-16.39-12.22-11.06-24.72-21.82-36.72-33.12a198,198,0,0,1-20.7-22c-10.47-13.43-20.15-27.49-26.68-44l-12.47,2.4a279.8,279.8,0,0,0,32.19,47.95,347,347,0,0,0,49,49.28c6.73,5.5,12.48,12.25,18.27,18.8,2.1,2.37,3.37,5.68,4.35,8.77,3.87,12.14,3,24.6,1.85,37-1.15,12.68-5.43,23.44-18.17,29-2.25,1-4.23,2.54-8,4.82,14.15,2.55,24.94.81,34.37-8,5.39-5,11.59-9.17,17.34-13.82,6.44-5.21,14-8.47,21-12.71,11.73-7.17,23.17-14.57,36.13-19.47,4.61-1.75,8.9-4.48,13.11-7.14,4.76-3,9.46-4.94,14.58-2.6l22.32,64.66c1.38-1.07,2.76-1.64,2.77-2.22Q912.11,847.73,912,786.26Zm-740.94-671c1.1-.61,2-.81,2.16-1.25,5.48-16.83,17.18-30.89,21.49-48.25,1.44-5.79,3.43-11.45,4.89-17.23,1.68-6.7-.1-10.52-6-14.47-2.6-1.75-5-3.81-8-6.11l6.24-5.87c-5.37-6.16-5.37-6.22-12-6.25-10.45-.05-20.9,0-31.35,0H132.65c1.8,5.34,2.46,9.45,4.45,12.76,4.47,7.43,9.38,14.62,14.54,21.59,3.73,5,6.17,10.14,5,16.44-6.15,3.6-11.82,2.25-16.22-1.72-16.59-15-36-26.72-50.48-44.06-3.45-4.14-7.12-5.15-12.11-5.09-17.53.22-35.06.07-52.59.11-2.52,0-5,.3-8.83.54,2.1,2.74,3,4.54,4.46,5.73,5.77,4.83,7.31,11.58,9,18.38a21.23,21.23,0,0,0,3,7.23c12.91,18.07,31.3,26.74,52.76,29.47,12,1.53,24.1,2.66,36.18,3.05,14.22.46,24.9,7.11,34,17.17C161,103.31,166,109.4,171.11,115.28ZM189.75,477l-2.43,2c1.46,9.51,2.82,19,4.39,28.52,1.73,10.4,5.45,19.92,13,27.66,1.61,1.66,3,3.58,4.64,5.19,5.24,5.07,10,11,16,14.82,8.46,5.33,18,8.89,27,13.47,16.13,8.25,32.85,14.78,50.78,18.21,2.49-6.91,4.58-13.92,7.52-20.56,3.89-8.79,8.57-17.23,12.65-25.94,4.26-9.07,4-18.09-1-27-23.15-2.26-46.75.41-68.95-7.48C231.37,498,209.23,490.52,189.75,477Zm3.1-128.72a2.23,2.23,0,0,0,.84-.08,17.39,17.39,0,0,0,2.58-1.55c22.66-18,48.13-27.43,77.43-26a157,157,0,0,0,24.2-1c10.13-1.07,15-5.68,15.88-15.8a35.88,35.88,0,0,0-2.49-15.55c-3.69-9.41-8.27-18.4-7.22-29,.42-4.23.07-8.54.07-12.76C268,245.65,200.53,306.3,192.85,348.26Zm217.72-36.67c-3.83-3.19-7.73-5.53-10.39-8.85-6.54-8.19-15.33-11.49-25.14-13.09-8.44-1.37-12.66.71-15,9-2.78,9.82-7.43,18.51-13.06,26.88-2.56,3.8-4.56,8-7.06,12.44,3.22,1.15,5.89,2.62,8.72,3,17.88,2.56,32.93,11.08,47.07,21.66,1.48,1.11,3.34,1.72,5.67,2.89,2.45-7.07,8.14-12.59,5.47-20.06C402.68,333.72,406,323,410.57,311.58ZM404.17,476c-4,1-7.76,2.45-11.67,2.89-9.94,1.11-15.58,8.39-21.7,14.79-1.49,1.56-2.37,5.24-1.6,7.18a60.86,60.86,0,0,1,3.36,32.52c-.26,1.73.84,3.66,1.39,5.78,8.58,0,16.46,0,22.41-7,4.89-5.75,10.06-11.27,15.3-17.11-5.38-11-5.34-11-4.55-24.28C407.42,485.79,407.54,480.77,404.17,476ZM646.72,853.47c-11.06-7.78-32.46-21-43.33-28.69,0,14,.07,26.74,0,39.45-.06,7.83-1.74,15.19-6.33,21.82-5.59,8.08-10.87,16.38-16.4,24.75,10.23,0,46.63-.67,55.61-.67-22.28-5.37-26.57-23.44-24.76-34.78C613.54,862.53,636,853.47,646.72,853.47ZM861.8,597.75c-1,.82-3.25,1.78-3.28,2.8-.06,2.06.42,5,1.83,6.09,7.52,5.59,15.09,11.24,25.34,10.81,7.85-.33,11.11,2.72,13.55,10.05a216.48,216.48,0,0,0,9.24,23.29c.78,1.67,4.55,3.32,6.37,2.84,3.18-.85,2.88-4.11,1.58-6.73a38.58,38.58,0,0,1-3.78-20.52c.25-3.43-13.13-21-16.24-21.85a3.34,3.34,0,0,0-2-.12c-5.61,2.28-10.48-.68-15.58-2.07C873.37,600.82,867.86,599.37,861.8,597.75ZM165.09,865.17l-1.27-.25-24.74,45.77h26Zm722-317.06c-.11-6.76-4.09-9.85-12.45-9.64-6.35.16-10,3.35-10,8.85,0,5.08,8.64,12.22,14.35,11.83C883.76,558.81,887.17,554.17,887.07,548.12Zm-89.44-19.7c.27-6.26,6.17-12.35-.88-17.75-3.53-2.71-7.84-4.26-12.18-1.44-3.2,2.08-5.25,10.25-3.78,13.82C782.83,528,787.22,529.56,797.63,528.42Z"/><rect class="cls-3" x="367.13" y="16.26" width="316.05" height="316.05"/><rect class="cls-3" x="733.46" y="298.96" width="178.74" height="178.74"/><rect class="cls-3" x="123.28" y="423.52" width="316.05" height="484.53"/><text class="cls-4" transform="matrix(0, -1, 1, 0, 418.27, 889.93)">HongCun</text></g><g id="embodiment"><text class="cls-5" transform="translate(130.76 409.9)">Images <tspan class="cls-6" x="419.73" y="0">that</tspan><tspan x="263.16" y="146.4" xml:space="preserve">  Place</tspan></text></g></g></svg>