<svg xmlns="http://www.w3.org/2000/svg" viewBox="0 0 923.13 923.13"><defs><style>.cls-1{fill:#ce242b;}.cls-2{font-size:122px;font-family:Georgia, Georgia;}.cls-2,.cls-3{fill:#fff;}.cls-4{fill:#fdd9bf;opacity:0.41;}</style></defs><title>lawnmowing_1</title><g id="Layer_2" data-name="Layer 2"><g id="Layer_1-2" data-name="Layer 1"><rect class="cls-1" width="923.13" height="923.13"/><text class="cls-2" transform="translate(113.99 485.88)">Lawnmowing</text><path class="cls-3" d="M116.49,754.46a209.34,209.34,0,0,0-59-126.55c-2.26-2.3-5.8,1.24-3.54,3.54a203.9,203.9,0,0,1,57.52,123c.3,3.17,5.31,3.21,5,0Z"/><path class="cls-3" d="M147.71,682.89a231.3,231.3,0,0,1,42.91-105c1.91-2.59-2.43-5.09-4.32-2.52a234.37,234.37,0,0,0-43.41,106.2c-.44,3.15,4.37,4.51,4.82,1.33Z"/><path class="cls-3" d="M82.93,591.37a251.92,251.92,0,0,0-59.84-45c-2.83-1.53-5.36,2.78-2.52,4.32A247.34,247.34,0,0,1,79.4,594.91c2.26,2.3,5.79-1.24,3.54-3.54Z"/><path class="cls-3" d="M201.08,721.3c2.5-41.65,28.86-76.46,53.49-108.21,1.95-2.51-1.56-6.08-3.54-3.54-25.53,32.9-52.37,68.6-55,111.75-.19,3.21,4.81,3.2,5,0Z"/><path class="cls-3" d="M299.65,656.34a90.29,90.29,0,0,0-38.45-73.21c-2.64-1.85-5.15,2.49-2.52,4.32a85.07,85.07,0,0,1,36,68.89c0,3.22,5,3.22,5,0Z"/><path class="cls-3" d="M297.09,734.16a225.15,225.15,0,0,1,11.47-97.1c2.6-7.44,6.61-23.65,17-22.82,3.21.26,3.19-4.75,0-5-8.92-.71-14.31,7.6-17.39,14.83a211.9,211.9,0,0,0-11.28,35.26,231.72,231.72,0,0,0-4.81,74.83c.31,3.17,5.31,3.21,5,0Z"/><path class="cls-3" d="M373.77,687.76a206.66,206.66,0,0,0-12.6-101.3c-1.16-3-6-1.67-4.82,1.33a203.51,203.51,0,0,1,12.42,100c-.4,3.18,4.6,3.15,5,0Z"/><path class="cls-3" d="M422.25,632.86A56.63,56.63,0,0,1,449.2,593.5c2.76-1.64.25-6-2.52-4.32a61.47,61.47,0,0,0-29.24,42.34c-.54,3.15,4.28,4.5,4.82,1.33Z"/><path class="cls-3" d="M468.87,713.8a301.19,301.19,0,0,0-4.9-74.92c-.61-3.16-5.43-1.82-4.82,1.33a295.8,295.8,0,0,1,4.72,73.59c-.19,3.21,4.81,3.2,5,0Z"/><path class="cls-3" d="M519,634.1a126.14,126.14,0,0,0-5.54-48.87c-1-3.05-5.8-1.75-4.82,1.33A122.39,122.39,0,0,1,514,634.1c-.27,3.21,4.73,3.19,5,0Z"/><path class="cls-3" d="M536,723.29a163,163,0,0,1,63.49-86.91c2.64-1.81.14-6.14-2.52-4.32A168.47,168.47,0,0,0,531.18,722c-.93,3.09,3.89,4.41,4.82,1.33Z"/><path class="cls-3" d="M565.37,602.58a42.63,42.63,0,0,0-7.57-29.14c-1.83-2.61-6.17-.12-4.32,2.52a38.37,38.37,0,0,1,6.89,26.62c-.33,3.2,4.67,3.17,5,0Z"/><path class="cls-3" d="M629.8,695.8a183.69,183.69,0,0,1,71.58-92.88c2.66-1.78.16-6.11-2.52-4.32A189.28,189.28,0,0,0,625,694.47c-1,3.05,3.78,4.36,4.82,1.33Z"/><path class="cls-3" d="M634.19,607.43a186,186,0,0,0-22.68-56.19c-1.67-2.74-6-.23-4.32,2.52a181.75,181.75,0,0,1,22.18,55c.7,3.14,5.52,1.81,4.82-1.33Z"/><path class="cls-3" d="M714.7,715.61c2.51-34.52,23.16-66.29,53.53-82.81,2.83-1.54.31-5.86-2.52-4.32a109.07,109.07,0,0,0-56,87.13c-.23,3.21,4.77,3.2,5,0Z"/><path class="cls-3" d="M838.38,723.1a148.36,148.36,0,0,0-31.67-95.66c-2-2.53-5.5,1-3.54,3.54a143.06,143.06,0,0,1,30.21,92.12c-.09,3.22,4.91,3.22,5,0Z"/><path class="cls-3" d="M768.1,681.46a128.89,128.89,0,0,0-58.5-78.72c-2.77-1.66-5.28,2.66-2.52,4.32a123.79,123.79,0,0,1,56.2,75.73c.78,3.12,5.61,1.8,4.82-1.33Z"/><path class="cls-3" d="M787.22,598.93a153.37,153.37,0,0,0-8.57-39.69c-1.08-3-5.92-1.71-4.82,1.33a148.33,148.33,0,0,1,8.39,38.36c.26,3.18,5.26,3.21,5,0Z"/><path class="cls-3" d="M820,589.9a150,150,0,0,1,57.71-77.55c2.64-1.81.14-6.14-2.52-4.32a155.56,155.56,0,0,0-60,80.54c-1,3.07,3.84,4.39,4.82,1.33Z"/><path class="cls-3" d="M33.2,598.88a128,128,0,0,1,39.89-89.47c2.34-2.22-1.2-5.75-3.54-3.54a133.07,133.07,0,0,0-41.35,93c-.08,3.22,4.92,3.22,5,0Z"/><path class="cls-3" d="M415.24,731.17c4.74-30.41,27.45-56.28,57.12-64.63,3.09-.87,1.78-5.7-1.33-4.82-31.2,8.78-55.62,36.06-60.61,68.13-.49,3.15,4.33,4.5,4.82,1.33Z"/><path class="cls-3" d="M472.1,668.12c3.22,0,3.22-5,0-5s-3.22,5,0,5Z"/><path class="cls-3" d="M468.4,664.41h26c3.22,0,3.22-5,0-5h-26c-3.22,0-3.22,5,0,5Z"/><path class="cls-3" d="M322.59,719.92A580.7,580.7,0,0,0,249.37,674c-2.84-1.5-5.37,2.81-2.52,4.32a580.7,580.7,0,0,1,73.22,45.91c2.59,1.91,5.09-2.43,2.52-4.32Z"/><path class="cls-3" d="M47.08,725.08A139.3,139.3,0,0,0,15.86,680.7c-2.33-2.22-5.87,1.31-3.54,3.54a135.65,135.65,0,0,1,30.44,43.38c1.3,2.94,5.61.4,4.32-2.52Z"/><path class="cls-3" d="M861.64,674.32c-2.54-18.82-4.55-48.15,18.92-54.77,3.09-.87,1.78-5.7-1.33-4.82-10.14,2.86-17.39,10.92-21.16,20.56-5,12.85-3.05,27.07-1.26,40.36.43,3.17,5.25,1.82,4.82-1.33Z"/><path class="cls-3" d="M174.46,678.54a229.67,229.67,0,0,0-6.35-85.73,1.25,1.25,0,0,0-2.41.66A227.76,227.76,0,0,1,172,678.54c-.18,1.6,2.32,1.58,2.5,0Z"/><path class="cls-3" d="M127.2,620.64q-3,3.37-4.42-2.81a20.19,20.19,0,0,1,.2-2.95c.22-2.11.59-4.26.95-6.36q1-5.84,2.39-11.6a168.33,168.33,0,0,1,30.45-63.27c1-1.28-1.19-2.52-2.16-1.26a172.15,172.15,0,0,0-29,57.33q-2.21,7.73-3.68,15.64c-.79,4.25-2.28,9.58-1.55,13.92.78,4.62,7.36,7.48,9.19,2,.51-1.53-1.9-2.18-2.41-.66Z"/><path class="cls-3" d="M85.83,634.11a148.33,148.33,0,0,0-25.65-75c-.9-1.32-3.07-.07-2.16,1.26a145.83,145.83,0,0,1,25.31,73.77c.1,1.6,2.6,1.61,2.5,0Z"/><path class="cls-3" d="M63.15,728.69c-2.71-35.55,16-70.89,46.93-88.6a1.25,1.25,0,0,0-1.26-2.16C77.16,656,57.88,692.3,60.65,728.69c.12,1.59,2.62,1.61,2.5,0Z"/><path class="cls-3" d="M230.52,710.11l0-55.49c0-12.81,1.32-27.68-8-37.84-1.09-1.19-2.86.58-1.77,1.77,9.9,10.78,7.29,28.57,7.28,42l0,49.55a1.25,1.25,0,0,0,2.5,0Z"/><path class="cls-3" d="M267.68,641.52a140.8,140.8,0,0,1,32.48-94c1-1.23-.74-3-1.77-1.77a143.45,143.45,0,0,0-33.21,95.79c0,1.61,2.55,1.61,2.5,0Z"/><path class="cls-3" d="M337.4,663.92a208.22,208.22,0,0,1,62.39-96.7c1.21-1.06-.56-2.82-1.77-1.77a210.64,210.64,0,0,0-63,97.81,1.25,1.25,0,0,0,2.41.66Z"/><path class="cls-3" d="M336.91,734.22c7.12-25.29-3.48-53.45-25.43-67.85-1.35-.88-2.6,1.28-1.26,2.16,21,13.79,31.09,40.85,24.28,65a1.25,1.25,0,0,0,2.41.66Z"/><path class="cls-3" d="M370.24,741.65c-3.22-39.43,37.16-59.57,67.47-72.87,1.47-.64.2-2.8-1.26-2.16-31.1,13.65-72,34.68-68.7,75,.13,1.59,2.63,1.61,2.5,0Z"/><path class="cls-3" d="M444.31,618.7a141.41,141.41,0,0,0-40-57.66c-1.21-1-3,.71-1.77,1.77a138.88,138.88,0,0,1,39.36,56.56c.56,1.49,3,.85,2.41-.66Z"/><path class="cls-3" d="M488,621.13a173.94,173.94,0,0,1,23.49-94.25,1.25,1.25,0,0,0-2.16-1.26,176.42,176.42,0,0,0-23.83,95.51c.06,1.6,2.56,1.61,2.5,0Z"/><path class="cls-3" d="M536.12,717.95c5.79-27.38-22.26-42.52-43-51.54-1.46-.63-2.74,1.52-1.26,2.16,19.56,8.49,47.41,22.61,41.89,48.72-.33,1.57,2.08,2.24,2.41.66Z"/><path class="cls-3" d="M585.53,719.13c2-17.66,3.9-36.59-3.3-53.39-6.91-16.12-21.61-26.54-35.91-35.68-1.36-.87-2.61,1.29-1.26,2.16,14.14,9,28.71,19.31,35.26,35.41,6.61,16.27,4.61,34.5,2.72,51.5-.18,1.6,2.32,1.58,2.5,0Z"/><path class="cls-3" d="M575.89,615.45a149.94,149.94,0,0,1,51.22-98.8c1.22-1.05-.55-2.81-1.77-1.77a152.46,152.46,0,0,0-51.95,100.56c-.15,1.6,2.35,1.59,2.5,0Z"/><path class="cls-3" d="M628.5,621.46c2.17-15.94,18-28.1,29.32-38.09a304.66,304.66,0,0,1,40.79-30.18c1.36-.85.11-3-1.26-2.16a308.32,308.32,0,0,0-42.63,31.76c-11.25,10-26.45,22.06-28.62,38-.21,1.57,2.19,2.25,2.41.66Z"/><path class="cls-3" d="M689.43,684.18A54.93,54.93,0,0,0,654.33,636c-1.5-.57-2.16,1.84-.66,2.41a52.34,52.34,0,0,1,33.26,45.81c.08,1.6,2.58,1.61,2.5,0Z"/><path class="cls-3" d="M650.93,717c-6.19-19,1-39.45,13.45-54.28s29.38-24.95,45.82-34.79a1.25,1.25,0,0,0-1.26-2.16c-17.76,10.62-36.26,21.69-49,38.46-11.41,15.08-17.47,35-11.47,53.43.5,1.52,2.91.87,2.41-.66Z"/><path class="cls-3" d="M773.63,695.27a166.11,166.11,0,0,0-22.1-93.49,1.25,1.25,0,0,0-2.16,1.26,163.69,163.69,0,0,1,21.76,92.23c-.1,1.61,2.4,1.6,2.5,0Z"/><path class="cls-3" d="M784.85,626.68a201,201,0,0,1,42.27-139.92c1-1.25-.77-3-1.77-1.77a203.53,203.53,0,0,0-43,141.69c.13,1.59,2.63,1.61,2.5,0Z"/><path class="cls-3" d="M807.35,587.36a67.15,67.15,0,0,1,15.86-56.29c1.07-1.2-.7-3-1.77-1.77A69.81,69.81,0,0,0,804.94,588c.28,1.58,2.69.91,2.41-.66Z"/><path class="cls-3" d="M841.37,602.73a68.57,68.57,0,0,1,37.27-45.5c1.45-.69.19-2.84-1.26-2.16a71,71,0,0,0-38.42,47c-.39,1.56,2,2.23,2.41.66Z"/><path class="cls-3" d="M885.7,671.4c-.72-31.64-29.49-49.95-54-64.07a1.25,1.25,0,0,0-1.26,2.16c23.62,13.64,52,31.26,52.71,61.91a1.25,1.25,0,0,0,2.5,0Z"/><path class="cls-3" d="M811,708.28c-1.17-25.17-1-56.42,23.22-71.36,1.37-.84.11-3-1.26-2.16-25.09,15.45-25.67,47.37-24.45,73.52.07,1.6,2.57,1.61,2.5,0Z"/><path class="cls-3" d="M33.44,646.7Q21.6,627.41,8,609.28c-1-1.27-3.12,0-2.16,1.26Q19.44,628.67,31.28,648c.84,1.37,3,.11,2.16-1.26Z"/><path class="cls-3" d="M860.95,757.92a38.36,38.36,0,0,1,35.65-46.6c1.6-.08,1.61-2.58,0-2.5a40.9,40.9,0,0,0-38.06,49.77c.34,1.57,2.75.91,2.41-.66Z"/><path class="cls-3" d="M180.6,802.43A147.52,147.52,0,0,0,145.38,731c-1.08-1.2-2.84.57-1.77,1.77a145.11,145.11,0,0,1,34.58,70.3c.29,1.58,2.7.91,2.41-.66Z"/><path class="cls-3" d="M179.34,801.06c3.15-25.43,26-40.32,46.71-51.42,1.42-.76.16-2.92-1.26-2.16-21.64,11.61-44.67,27.14-47.95,53.58-.2,1.59,2.3,1.58,2.5,0Z"/><path class="cls-3" d="M433.34,891.45c-11.07-28.14-24.48-59.64-55.21-70.69-1.52-.55-2.17,1.87-.66,2.41,29.77,10.7,42.77,41.74,53.46,68.94.58,1.48,3,.84,2.41-.66Z"/><path class="cls-3" d="M437.84,899.17a33.21,33.21,0,0,1,28.72-30.06c1.58-.19,1.6-2.69,0-2.5a35.78,35.78,0,0,0-31.22,32.56c-.12,1.6,2.38,1.6,2.5,0Z"/><path class="cls-3" d="M134.9,888a73.49,73.49,0,0,1,37.55-41.5c1.45-.69.18-2.85-1.26-2.16a76,76,0,0,0-38.7,43c-.54,1.52,1.87,2.17,2.41.66Z"/><path class="cls-3" d="M529.53,791.62c-1.66-13.19-15-22.49-28-19.22a1.25,1.25,0,0,0,.66,2.41C513.47,772,525.57,780,527,791.62c.2,1.57,2.7,1.59,2.5,0Z"/><path class="cls-3" d="M273.63,854.24c-4.8-23.15,7.24-47.7,28.35-58.24,1.44-.72.17-2.88-1.26-2.16-22.15,11.06-34.52,36.87-29.5,61.06.33,1.57,2.74.91,2.41-.66Z"/><path class="cls-3" d="M621.84,869.39a247.68,247.68,0,0,0-8.2-84,1.25,1.25,0,0,0-2.41.66,245.58,245.58,0,0,1,8.11,83.32c-.12,1.6,2.38,1.6,2.5,0Z"/><path class="cls-3" d="M655.71,802.78c-1.88-15.64-3.32-38.48,15.22-44.87,1.51-.52.86-2.94-.66-2.41-19.76,6.81-19.09,30.32-17.05,47.28.19,1.58,2.69,1.6,2.5,0Z"/><path class="cls-3" d="M731.85,854.68c2.44-27.12,4.2-58.21-14.93-80.14-1.06-1.21-2.82.56-1.77,1.77,18.62,21.35,16.57,52,14.2,78.38-.14,1.6,2.36,1.59,2.5,0Z"/><path class="cls-3" d="M756,797c-1.39-7.39-2.95-15.32-.82-22.73s8.8-14.05,17-12.79c1.57.24,2.25-2.16.66-2.41-7.75-1.2-14.64,3.29-18.26,10.05-4.68,8.76-2.72,19.27-1,28.54.3,1.58,2.71.91,2.41-.66Z"/><path class="cls-3" d="M829.37,852.83a90.09,90.09,0,0,0-18.21-47.44c-1-1.26-3.14,0-2.16,1.26a87.81,87.81,0,0,1,17.87,46.18c.13,1.59,2.63,1.61,2.5,0Z"/><path class="cls-3" d="M813.15,913.15c1.82-21,2-50.07-22.29-58.46-1.52-.53-2.18,1.89-.66,2.41,23,8,22.17,36.31,20.46,56-.14,1.6,2.36,1.59,2.5,0Z"/><path class="cls-3" d="M813.36,902.24a28.91,28.91,0,0,1,21.88-19.09c1.58-.32.91-2.73-.66-2.41a31.4,31.4,0,0,0-23.63,20.84c-.52,1.53,1.89,2.18,2.41.66Z"/><path class="cls-3" d="M58.66,802.36A30.59,30.59,0,0,0,27.27,778c-1.6.09-1.61,2.59,0,2.5a28.1,28.1,0,0,1,29,22.48c.31,1.58,2.72.91,2.41-.66Z"/><path class="cls-3" d="M621,359H302.12A159.45,159.45,0,0,1,621,359Z"/><path class="cls-4" d="M.44.79H921.08c2.35,7.6,2.86,908.36.58,919.52H1c-.18-4.12-.5-8-.5-11.8,0-82.4.07-164.79-.19-247.19,0-6.41-.49-33.2-.12-34.88.7-3.16.29-6.57.29-9.88q0-300.3,0-600.6Zm297.05,451c-5.65-.84-7-4.26-7.15-9.07-.14-5.6-.1-11.31-1.2-16.76-4.21-20.9,3.49-38.61,15.95-54.08,13.41-16.66,28.07-32.37,46.16-44.49,7.79-5.22,14.37-12.24,22.2-17.39,7.1-4.67,15.13-7.95,22.79-11.76,8.87-4.42,17.23-9.16,23.46-17.46,3.94-5.24,2.38-9.87,1.38-14.83s-5.35-4.07-8.87-4.4c-12.5-1.18-25-3-37.51-3.3-17.77-.46-32.3-7-45.22-19a211,211,0,0,0-27.39-20.93c-12.36-8.16-25.75-14.81-37.95-23.2-11.92-8.19-19.81-20.15-20-34.72a215.36,215.36,0,0,1,3.8-44.26c4.21-21.17.24-40.32-12.3-57C224,43.75,210.23,29.94,198.2,16.32H73.94c-5.21,16.46-7.86,33.51-20.45,46.5-4.61,4.76-3.61,12.67.78,17.73,3.42,3.94,7.71,7.12,11.35,10.9,2.17,2.26,4.78,4.77,5.54,7.6,3.78,14.13,5.53,28.49,3.31,43.15-.78,5.17-.93,10.43-1.34,15.34,7.33,6.51,15.66,8.8,24.21,9.87,19.31,2.4,39,1.55,57.89,7.71,12.94,4.22,26.25,7.66,33.32,20.68,2.77,5.09,4.34,10.9,5.94,16.52,2.24,7.85,3.93,15.86,6,23.76,1,3.77,3.9,5.39,7.55,4.91,8.44-1.1,16.93-2.11,25.23-3.91a40.86,40.86,0,0,1,29.78,4.6c8,4.69,15.68,11.1,15.66,22.21,0,1.44,1.49,2.82,1.95,4.33,1.22,4,2.91,8,3.21,12.13.49,6.77,1.22,13.82-3.6,19.73.89,12.6-9.52,24.36-2.57,37.58,1.37,2.61-.87,6.06-4.3,6.71s-6.64-.43-7.52-4.45a61,61,0,0,1-1.36-8.78c-1.11-15.71-6.08-30.24-13.44-44a59.22,59.22,0,0,0-5.16-7.19c-2.92-3.91-6.86-5-11.46-3.76-8.28,2.14-16.62,4.07-24.78,6.58-18.31,5.65-33.85-.68-42.33-18-3.88-7.94-6.76-16.38-10.65-24.32a64.93,64.93,0,0,0-8.28-12,6.9,6.9,0,0,0-5.14-2.19c-6.84.59-13.64,1.69-20.21,2.56-2.82,10,2,16.18,8.58,22,12.18,10.67,19.66,24.2,21.18,40.29.95,10.08,1.31,20.47-.1,30.44a123.75,123.75,0,0,1-8.51,30.23c-3.13,7.46-8.87,13.83-13.45,20.68a45.87,45.87,0,0,0-7.9,25.14c-.17,9.39,2.85,17.22,11.48,22.15,7.72,4.4,15.26,9.16,23.21,13.1,3.39,1.68,7.6,1.76,11.46,2.44,2.22.39,4.78-.06,6.69.87,5.9,2.85,11.57,6.18,17.32,9.33,3.51,1.92,5.58,4.37,4.39,8.81-2.89,10.8.58,19.8,7.18,28.6,8.68,11.57,8.55,24.56,3.05,37.57-4.37,10.32-8.91,20.58-13.47,30.82-5.18,11.67-10.3,23.25-19,33.07s-19.91,16-30.65,23.09c-12.59,8.28-27.1,10.81-41.16,13.19-15.52,2.63-31.64,1.91-47.5,2.42-14.25.46-28.45-.05-43.12-5.27,0,4,0,7.17,0,10.37,0,48.65.12,97.3-.14,145.95,0,6.23,1.75,11.4,4.61,16.63,4.37,8,9.32,15.81,12.42,24.28S36.34,831.74,37,841.3c1,13.61-4.43,25.13-9.37,36.75-3.53,8.29-5.92,17.63-13.86,23.63-1,.74-.46,3.47-.69,5.89H228.32c1.51-4.71,2.15-9.88,4.65-13.9,7.2-11.56,7.48-25,11.26-37.43,3-9.74-.09-18.89-3.12-27.72-4-11.75-9.62-23-13.95-34.62s-8.39-23.48-11.74-35.46c-4.41-15.77-3.94-32.08-3.52-48.27.38-14.84.95-29.68,1.81-44.49,1.53-26.38,12.78-50.3,19.84-75.26,3.46-12.24,8.79-24,13.42-35.87,3.45-8.89,7.08-17.71,10.71-26.53,5.38-13.09,11-26.1,16.16-39.26,2.39-6,8.34-14.73,13.53-17.79a45.73,45.73,0,0,1-1.59,6c-4.44,10.42-7.54,21.18-8,32.53-.23,5.2-1,44.7-.89,59.22.15,17.17,3.12,81.55,10.07,95.43,1.33,2.65,2.23,5.51,3.41,8.23,7.1,16.29,15.85,31.37,31.54,41.08,3.74,2.31,8,3.86,12,5.76a11.28,11.28,0,0,0-1.2-6.45c-2.58-6.42-5.68-12.71-7.49-19.35-2-7.49-1.46-15,3.28-21.8,7-10.11,21.45-17.43,35.82-17.43,22.46,0,27.74,19.4,29.06,29.59,1.45,20.65-7.22,30.09-5.67,30.78s29.31-28.1,35.51-44.84c5.27-14.23,9.87-28.73,14.19-43.28a105.64,105.64,0,0,0,4-33.31c-.7-23.8-.34-47.64-1.63-71.39-.58-10.75-3.71-21.42-6.29-32-1.94-8-5-15.64-7.29-23.51-1.67-5.66-2.5-11.6-4.6-17.08a131.15,131.15,0,0,0-9.91-21.28c-5.28-8.69-12.06-16.47-17.44-25.11-6.78-10.91-10.12-22.72-6.27-35.68.68-2.3.64-4.8,1.12-8.8-5.13,3.19-8.87,5.87-12.93,7.92-2.43,1.23-5.81,2.72-8,1.95-5.18-1.85-9.35,0-13.14,2.45-10.27,6.64-21.57,12.43-30,21-15.17,15.32-29.19,32.08-27,56.1A21.46,21.46,0,0,1,297.49,451.8Zm186-169.88c0,3.76.29,6.43-.05,9-1.28,9.73-.6,19.9-5.57,28.87-3.35,6-7.17,11.81-10.59,17.8a24.55,24.55,0,0,1-5.94,7.21c-8.83,7.29-14.37,17.13-17.88,27.91a23.52,23.52,0,0,0-.45,10.66c.73,4.52,2.41,8.89,3.79,13.3,4.3,13.82,9.4,27.55,5,42.36-2.12,7.21-4.66,14.31-6.71,21.54a63.68,63.68,0,0,0-1.7,10.27c-1.41,12.53,4.88,23,9.81,33.63a292,292,0,0,1,16.34,45.42c4.65,16.77,8.58,33.74,12.53,50.69,2.22,9.54,4.09,19.17,5.63,28.84,1,6.06.61,12.32,1.58,18.37,1.54,9.55,4.38,18.93,5.45,28.52,1.58,14.09,4.1,27.88,2.25,42.57-1.8,14.3-5.32,28.19-7.29,42.39a38.89,38.89,0,0,1-2.88,9.31c-7.09,17.13-18.13,31.94-29.07,46.64-4.11,5.52-5.47,11-6.15,17.16-.66,6-1.12,12-1.69,18.2-14.94,3.21-28.34,9.65-44.26,5.83l.54,11.12c15.23,1.11,29-2.26,43.37-5.45l11.3,44H729.14a36.34,36.34,0,0,0,7-.19c2.05-.41,3.95-1.6,6.71-2.79-1.82-3-3.22-5.16-4.44-7.4-1.72-3.18-4.39-6.31-4.77-9.67a67,67,0,0,1,8.82-40.91c3.31-5.79,6.76-11.68,10.15-17.53a24,24,0,0,1,6.13-7.34c10.92-8,22.06-15.72,33.21-23.41a35.06,35.06,0,0,1,8.61-4.69q22.44-7.4,45.06-14.27c3.59-1.09,7.44-1.32,12-2.08-13.49-26.77-27.3-52-49.7-71.63a11.82,11.82,0,0,0-1.71,2.15c-5.06,10.67-9.66,21.58-15.24,32-2.9,5.39-7.11,10.25-11.44,14.65a129.31,129.31,0,0,1-15.82,13.41c-10,7.32-18.47,16.64-30.77,21-11.45,4-21.75,10.74-34.07,13.14-8.87,1.73-17.24,6.08-25.8,9.34-9.21,3.51-18.4,7-27.55,10.69q-16,6.36-31.89,12.95c-10.91,4.52-21.51,10-32.74,13.43-5,1.55-44.76,35-42.44,29,2.11-5.5,4.29-11.32,7.91-15.83,9.78-12.15,13.69-26.73,14.92-41.2,2.15-25.42-.32-50.78-9.48-75.08a130.36,130.36,0,0,1-4.54-16.11c-3.3-14-6.38-28-9.62-42.06-.66-2.88-2.15-5.65-2.35-8.54-1.25-17.61-2.31-35.24-3.28-52.87a140.78,140.78,0,0,1-.09-16.55c.48-7.55.85-15.2,2.45-22.55s5-14.07,7-21.26c3.22-11.91,7.81-23.12,14.95-33.24,3.37-4.78,7.36-9.28,9.84-14.49,4.55-9.59,11.68-16.64,19.11-24,10.94-10.81,23.9-18,37.33-24.78a55.28,55.28,0,0,0,5.08-2.72c9.25-6,21.08-6.9,29.21-15,7.3.73,11.31-3.48,14.5-9.27.89-1.62,2.86-2.64,4.25-4,3.47-3.41,7.25-6.58,10.26-10.36s5.14-8.35,7.91-12.39c4.81-7,4.9-8.07-1.54-14.13-8.6-8.08-16.87-16.63-26.23-23.75-13.92-10.59-23.81-24.45-34.38-37.92-12.35-15.74-23.89-31.76-42.17-42.48a98,98,0,0,0-43.83-13.7c-18.75-1.31-37.59-1.47-56.39-2.09C487.53,281.49,485.93,281.75,483.47,281.92Zm424.72-36.67c-8.36-6.5-18.53-10.94-21.73-22.27-.32-1.14-1.57-2-2.46-3-7.38-7.76-16.56-12.94-26-17.67-14-7-29.25-7.61-44.53-7.79-26.51-.32-36.16-13-37.45-40.25-.49-10.3-6.85-22.57-16.55-26.58-5.46-2.26-11.31-3.6-16.74-5.9-12.45-5.28-24.7-11-37.13-16.34a53.1,53.1,0,0,0-22.17-4.39,139.42,139.42,0,0,1-22.71-1.77c-24.61-3.68-49.12-6.59-74.09-2.62-6.94,1.1-14.53-.37-21.57-1.85a18.64,18.64,0,0,1-14.24-15.1c-1.27-8.85-4.64-16.92-6.71-25.37-1.47-6-6-11.67-10.18-16.55-4.7-5.43-11.13-9.36-15.91-14.73-6.64-7.46-14.52-8-23.43-6.43a27.78,27.78,0,0,1-9.65.37c-13.67-2.46-27.28-.62-42.5-1.22,3.41,6.16,5.43,11,8.48,15.11,8.77,11.76,9.3,24.26,3.88,37.24-2.6,6.22-6.26,12-9.28,18.05-7.69,15.47-5.73,33.56,6.21,45.63,3.41,3.45,7.33,6.5,10.19,10.34,5.72,7.69,13.21,13,22.22,15.06,6.14,1.42,12.87.23,19.32.42,8.19.25,16.53,1.85,24.53.8a104.7,104.7,0,0,1,29.53.65c24.14,3.58,47,10.31,68.25,22.62,17.55,10.18,36.26,17.69,56.78,19.3,13.53,1.06,27.23.51,40.64,2.28,19.5,2.58,39.62,4.31,54.6,19.78,7.34,7.58,16.83,13.8,22,22.58a447.83,447.83,0,0,1,31,63.23c3,7.62,7.43,14,14.12,18.59,13.41,9.23,28.4,13.86,44.66,14.67,6.05.3,12.08,1,18.61,1.57ZM276.3,16.2c2.28,4.15,4.22,7.83,6.29,11.44Q301.65,61,291,97.78a21.71,21.71,0,0,0-.44,5.79c-.08,10.83,3.89,20.27,9,29.74,4.44,8.29,7.31,17.44,13.53,24.74,11.83,13.91,22,28.86,39.05,38.3,19.52,10.79,39.88,17.71,61.55,20.19,11,1.26,21.42,3.73,32,6.33,8,2,16,5,24,5.21,19.32.52,38.09,4.12,56.9,7.81,10.7,2.09,21.3,5.23,32.09,6.1,13.2,1.07,26.34,1.56,39.36,4.54,27.24,6.23,51.53,17.15,70.67,38.37C680,297.43,687,312,692.45,327.5c2.94,8.3,4.36,17.12,7.31,25.42a33.58,33.58,0,0,0,15.6,18.5c5.77,3.25,9.62,8.25,12.55,14.48,3.41,7.26,3.67,16.15,10.95,21.66,1.25.95,1.77,5.37.83,6.23-4.24,3.87-2.24,8.67-3,13-1.11,6.79-1.4,14-4,20.2-7.07,16.86-5.53,34.06-.64,50.32,6.43,21.37,17.23,40.82,33.32,57.21,13.88,14.15,29.48,24.13,49.41,26.5,2.38.28,5.86.37,7.12-1,2.35-2.57,0-5.16-1.76-7.78-3.78-5.72-8.15-11.46-10.16-17.85-6.23-19.85,5.18-37.59,25.76-40.56a119.88,119.88,0,0,1,22.81-.73c3.37.16,7,2,9.87,3.95,10.87,7.35,12.4,18,9.81,29.87-.63,2.9-1.87,5.73-2,8.64-.31,5.31,3.18,7.49,7.59,4.58,8.44-5.58,16.57-11.6,24.9-17.49,0-26.36-.25-52.5.14-78.63.13-8.68-.66-17.61,3.13-26,1.87-4.13.19-7.33-4.46-7.93-9.77-1.27-19.59-3.1-29.39-3.11-20.08,0-40.06,2.8-60.24,2.15-11.47-.37-21.2-3.83-30.81-9.48-7.76-4.56-10.63-11-10.77-19.49-.22-14-3.32-27.45-11.51-39.07-4.09-5.8-6.19-12.05-8.49-18.58-1.74-4.94-5.82-9.53-9.91-13.07a113.92,113.92,0,0,0-18.07-12.27c-5.57-3.19-8.74-8.16-11.09-13.51-3.17-7.23-5.47-14.86-7.94-22.39-2.55-7.78-7.3-13.8-13.49-19.1-10.28-8.81-23.05-11-35.52-14-8.82-2.15-18.18-.62-26.71-5.67-8.07-4.78-18.24-5.48-25.56-12.25-1.59-1.47-4.12-2-6.27-2.81-12.07-4.47-24.21-8.76-36.22-13.38-10.15-3.9-20-8.48-30.27-12.18-12.48-4.52-25.39-8.66-38.75-7.07-14.66,1.75-29.1,5.26-43.65,8a69.22,69.22,0,0,1-8.78,1.18c-22.21,1.21-42.33-5.72-61.45-16.11a119.24,119.24,0,0,1-17.54-11.16c-6.65-5.31-9.71-13.28-12.36-21-5.3-15.52-5.85-31.62-5.11-47.89.51-11.19-.07-22.43-.12-33.65a14.38,14.38,0,0,0-5.35-11.22c-4.44-3.89-8.65-8.05-13.14-11.89a24.86,24.86,0,0,1-9.15-20.88c.15-4.5-.62-9-1-13.87ZM682.84,596.37c-2.44-3.69-4.36-8.12-7.58-11.18-12-11.46-14.76-26.68-17.7-41.75a93.48,93.48,0,0,1-1.44-20.54c.24-8.11-2.59-10.74-10.59-8.23-2.83.89-5.54,3-8.32,3.07-13.71.22-21.56,9-28.7,18.82-5.07,6.95-9.79,14.16-14.3,21.49a66.61,66.61,0,0,0-6.49,13.33c-5,14.67-9.95,29.28-12.69,44.66a122.09,122.09,0,0,0-1,36.47c3.23,26.61,10.09,52.48,17.47,78.18,3.57,12.45,6.43,24.91,6.46,37.93a68.05,68.05,0,0,0,1.06,9.83c.93,6.21,3.31,7.14,8.49,3.73,4.12-2.71,8.25-5.56,12.74-7.54,11-4.86,22.72-7,34.73-7.65,8.59-.45,17.24-.5,25.75-1.59,15-1.93,28.67-8.3,41.77-15.32,12-6.41,23.75-13.83,31.26-25.55,6.4-10,11.44-20.84,17.23-31.23,3.27-5.86,1.81-10.84-2.51-15.26-6.88-7-13.81-14.05-21-20.83a69.43,69.43,0,0,0-10.24-7.82c-8.69-5.59-9.86-5.71-17.18,1.28-10.3,9.84-20.51,19.82-30.07,30.36-5.28,5.82-9.45,12.72-13.61,19.45-7.23,11.71-14.07,23.66-21.77,36.69-.84-3-1.84-5-1.91-7-.2-6.25.18-12.53-.08-18.78-1.17-28.41-.23-56.58,9.3-83.78a43.74,43.74,0,0,1,5.24-10.56C672.13,610.09,677.48,603.43,682.84,596.37ZM21.53,533.91c9.22,2.68,43.83,27,54.11,31.45,7.17,3.14,15.06,5.74,22.79,6.33,37,2.8,65.76-14.25,90.47-39.59,2.42-2.48,3.47-7.14,3.58-10.83.69-22.77-11.88-40.75-35.23-48.38-18.47-6-37.36-10.8-56.91-12.69C87,458.9,74,454.89,66.57,442.6c-8-13.19-15.51-26.72-19.61-41.83-3-11.12-1.13-22.17-.85-33.33.35-14.17,7.19-23.49,18.92-30.22A100.8,100.8,0,0,0,76,330.49c14.84-11.26,10.54-20.7-.12-30.7-8.62-8.09-17.92-15.52-26-24.12-6.35-6.77-8.71-15.24-5.12-24.71a188.73,188.73,0,0,0,6.38-20.67,13.85,13.85,0,0,0-.35-8.4C43.37,205.14,28.7,196,13.09,186.67c-.14,2.88-.32,4.8-.32,6.72q0,126,0,252a98.33,98.33,0,0,0,.76,11.86c.73,6,.38,7.83.76,14.42,2.66-8.32,14.89-7.58,18.38-6.82,26.52,5.78,30,27,18.75,47.88C45.19,524.31,33.41,528.75,21.53,533.91Zm718.1-516.2L623.74,16.13c-1.24,10.87-1.54,20.7,3.73,31,10.72-1.47,21.78-3.19,32.89-4.43a111.35,111.35,0,0,1,15.89-.29c7.26.23,14.5.89,21.76,1.23,6.63.31,13.3,0,19.87.78a21.4,21.4,0,0,1,9.87,3.91,78.55,78.55,0,0,1,13.1,12c3.33,3.93,7.11,5.44,12,5.74,8.58.53,17.18,1,25.69,2.12,8.08,1,16.06,2.81,22.25,3.93,2.42,5.73,3.91,9.88,5.89,13.79,2.38,4.69,6.48,8.88,7.52,13.78,2.29,10.76,9.58,18.08,16.3,25.57,5.89,6.56,13.26,11.8,22.56,13.52,5,.92,5-2.41,5.43-5.3l50.19,5.75c0-10.44.27-20.3-.14-30.14-.16-3.84-1.45-7.55-6.83-8.16-2.63-.3-5.54-2.26-7.43-4.29-5.75-6.2-11.61-12.43-16.41-19.34a54.07,54.07,0,0,0-28-20.9c-14.67-4.77-30-7.93-45.21-10.55a107,107,0,0,1-29.15-8.94c-7.08-3.44-14.41-6.8-22-8.63C747.13,26.74,742.66,24,739.63,17.71Zm-346.3-.43v-.53c-4.62,0-9.28-.43-13.83.1-7.33.85-8.92,5.17-4.12,10.78a113.51,113.51,0,0,0,9,9.23c9.23,8.59,11.08,19.13,8.4,30.87A114.21,114.21,0,0,1,389,82.07c-2.7,7.29-3.05,14.73-3.35,22.38-1,25.62,16,39.11,34.5,51.57,1.55,1,4.79-.41,7.24-.7-.35-2.4.1-5.42-1.21-7.07-2.42-3-6-5.14-8.86-7.89-9.1-8.8-15-19-15.31-32.17-.38-15.93,5.32-29.66,13.68-42.71,2.31-3.61,4.29-7.43,6.48-11.12,6.71-11.32,1.36-21.13-4.22-30.63-4.44-7.54-12.33-6.48-19.59-6.46Zm-161.09,741,.77,2.41c5.5-.33,11-.92,16.51-.85,2.35,0,5.63.78,6.75,2.4s.45,5-.69,6.88c-2.72,4.5-6.28,8.49-9.29,12.84-1.17,1.69-1.76,3.77-3.37,7.39l17.75-2.74c-3.85,5.66-7.24,10.47-10.46,15.4-1.71,2.63-1,5.08,1.42,7,3,2.27,5,.38,6.67-1.81,5.18-6.87,10.35-13.74,15.21-20.83A9.32,9.32,0,0,0,275,780c-1.09-5.35-2.89-10.56-4.42-15.83-2.13-7.28-4-14.64-6.5-21.8-2.43-7-7.88-8.35-12.79-3.17-3.16,3.34-5.24,7.71-8.46,11S235.83,755.63,232.25,758.31Zm572.3-108.44,1.84.9c-.59,3.87-1.66,7.74-1.58,11.59,0,2.21,1.54,5.67,3.18,6.22s5.27-1,6.52-2.71A112.68,112.68,0,0,0,824.81,649c1.1-2.25,1.19-6.43-.21-8.2-6.09-7.66-12.89-14.74-20.36-23.07-9.19,8-17.43,15-25.31,22.31-1.13,1.06-1.4,4.81-.45,5.84,1.11,1.2,4.24,1.52,6,.92,3.15-1,5.05-5,11-4.68-2.38,3.93-4.56,6.65-5.71,9.75-.67,1.79-.38,5.47.68,6,1.84,1,5.25,1.06,6.86-.08C800.2,655.8,802.2,652.59,804.55,649.87ZM447.08,767.73c3.27,1.24,4.45,1.63,5.58,2.13a36.51,36.51,0,0,0,4.47,2.11c4.7,1.36,8-1.68,6.64-6.44-.69-2.44-2.43-4.59-3.76-6.84s-2.8-4.58-4.2-6.87c4.61,1,7.88,3.07,11.19,5.07,2.63,1.58,5.49,1.54,6.81-1.25.77-1.63.53-5-.65-6a128.32,128.32,0,0,0-16.15-13c-5.25-3.44-8-2.12-11.39,3-3.61,5.43-7.83,10.46-11.45,15.89a42.92,42.92,0,0,0-5.76,11.11c-.55,1.85.86,5.31,2.51,6.6a111.85,111.85,0,0,0,14.91,9.56,5.68,5.68,0,0,0,5.2-.43,5.84,5.84,0,0,0,1.52-5.12C451.67,774.52,449.72,772.13,447.08,767.73ZM311.36,872.46v-.14c8.27,0,16.55.27,24.81-.1,5.22-.23,6.58-2.52,6-8s-2.77-8.14-7.08-7.53c-13,1.85-25.54-.18-38.24-2.74-10.5-2.11-13,.34-14.3,10.67-.69,5.66.36,7.45,6,7.73C296.13,872.75,303.75,872.46,311.36,872.46ZM896,690c.1-5.92-2.32-8.65-7.89-8.9-6.91-.31-11.09,3.71-11.06,10.65,0,6.2,1.79,7.88,8.4,8C892.76,699.85,895.86,697,896,690Zm11.94,179.72L882.07,876l.18,2.59c5.07.61,10.16,1.13,15.22,1.86C907.22,881.91,908.52,880.73,907.92,869.76ZM321.34,804.37c0-3.53-4.07-8.31-7-8.23-3.19.09-6.68,4.64-6.29,8.63.37,3.81,2.09,7,6.3,7.47C318,812.67,321.36,808.65,321.34,804.37Zm87.9.17c-4.52,3.61-4.24,7.21-.76,10.29,4.22,3.73,7.5,1.08,10.35-1.61C418.56,806.57,414.38,805.22,409.24,804.54Z"/></g></g></svg>