<svg xmlns="http://www.w3.org/2000/svg" viewBox="0 0 909.83 909.84"><defs><style>.cls-1{fill:#ce242b;}.cls-2,.cls-5{fill:#fed6af;}.cls-2{opacity:0.41;}.cls-3,.cls-4{fill:#fff;}.cls-4{font-size:111.37px;font-family:Georgia, Georgia;}</style></defs><title>lawnCover_2</title><g id="Layer_2" data-name="Layer 2"><g id="Layer_8" data-name="Layer 8"><rect class="cls-1" x="37.58" y="34.65" width="833.99" height="842.69"/><path class="cls-2" d="M37.58,877.34V37.07c3.93-.17,6.91-.41,9.88-.42,15.6,0,31.2.12,46.79-.09,5.75-.08,11.48-1,17.23-1.49,1.82-.16,3.8-.72,5.46-.22,10.8,3.25,21.84,1.65,32.75,1.7,45.57.2,91.14,0,136.7.09q286.24.25,572.47.53h11.06V49q0,124.6,0,249.2c0,14.47,1,29,.94,43.42-.17,43.11-.75,86.21-.91,129.32-.05,13.54,1.11,27.09,1.07,40.63q-.43,139.36-1.13,278.73c-.1,25.24,0,50.49,0,75.73,0,3.35,0,6.71,0,11.32H37.58ZM459.33,47.19c-12.62,0-24.91,1-36.95-.26-14.32-1.52-21.93,7.36-28.76,16.92-5.07,7.1-8.43,15.57-11.8,23.75-7,16.94-10.42,34.66-7.51,52.94,2,12.4,5.27,24.58,8,36.85,2.54,11.26,2.85,22.8-1,33.48-4.94,13.75-9.84,27.6-18.17,40-6.89,10.26-15.85,14.81-27.57,13.53-10.13-1.11-18.12-6.11-22.81-15.76a112.91,112.91,0,0,1-10.23-30.4,67.49,67.49,0,0,0-4.54-15c-6.24-14.59-17.82-22.69-32.79-26.33-13.34-3.24-24.16,3.68-32.4,11.87-7.13,7.09-14,81.69-14,89.47a172.52,172.52,0,0,0,2.43,29.26c1.17,6.93,2.19,14.06,1.82,21-.89,16.73-1.93,33.52-4.3,50.09a149.92,149.92,0,0,1-8.69,32.62c-4.81,12.41-11.46,24.08-17.15,36.15-3.29,7-12.67,14-19.18,13.4-10.52-1-19.18-5.55-25.22-14.54-7.21-10.71-8-22.71-7.9-35.28.19-17.77-.8-35.55-1.26-53.32-.18-7-3.64-12-10-14-6.52-2.09-13.81.85-17.63,4.77a47.62,47.62,0,0,0-13.69,32.14c-.33,14.52.7,29.09,1.57,43.62.56,9.36,2.14,18.66,2.8,28a130.77,130.77,0,0,1-.12,18.27c-.62,8.8-1.06,17.71-2.86,26.3-1.55,7.36-3.88,15-7.69,21.33-6.35,10.64-14.88,19.46-27.65,22.54a28.56,28.56,0,0,0-5,2.13c-11.3,5.2-11.3,5.21-11.3,18.07,0,8.86,0,17.73,0,26.65a54.34,54.34,0,0,0,6.35,1.63c16.34,1.86,28,11,36.75,24.37,12.41,18.89,16.75,40.87,22.82,62.16,3.87,13.59,7.43,27.26,11.22,40.87,3.47,12.47,11.5,22.68,16.91,34.2,5.52,11.76,14.23,20.85,24.9,28.29s20.63,15.29,30.76,23.18c8.91,6.93,17.06,15,26.54,21,14.72,9.33,27.28,20.12,33.81,36.87a64.44,64.44,0,0,0,3.32,6.39h150.6c1.59-3.87,2.63-7.74,4.65-11,3-4.83,6.13-9.86,10.24-13.68,8.24-7.66,17.53-14.17,25.74-21.87,12.9-12.11,44-73.34,45.28-74.43,9.44-8.3,42.7-35.13,51.88-36.36,6.6-.88,6.89-1.81,4.48-9.25-4.7.86-10.17.52-14,2.86-8.13,4.91-28.48,19.24-30.83,19.08-2.94-.2-3.68-3.21-4.24-6.22-1.47-7.83-2.25-16.18-5.63-23.17-6.12-12.65-14-24.44-21-36.64-1.42-2.47,5.78-9.53,9.1-13.65,5.27-6.56,10.27-13.29,16.35-19.22,6.92-6.76,13.13-14.26,19.55-21.53a51.07,51.07,0,0,0,4.87-6.64q9.21-14.66,18.27-29.43c4.28-7,8.55-14,12.51-21.18,1.28-2.33,2.31-5.84-1.16-7-1.45-.5-4.12,1.54-5.78,3-3.88,3.32-3.61,9.1-8.14,12.69-5.22,4.14-8.74,10.44-13.13,15.69s-8.82,10.09-13.11,15.24c-9.85,11.8-20.5,23.05-29.15,35.69-7.5,11-16.28,20.43-25.53,29.66-2.78,2.77-5.93,5.16-8.77,7.87-7.2,6.89-13.84,14.46-21.57,20.66-12.32,9.88-25.25,19-38.1,28.17-4.45,3.18-9.42,5.62-14.22,8.28-11.38,6.3-22.62,12.87-34.24,18.67-10.25,5.11-20.67,10.14-31.51,13.69a186,186,0,0,1-32.58,7.12c-5.48.75-11.48-.64-17-2.1-4.63-1.23-8.69-4.89-13.33-5.85-8.91-1.84-14.66-7.9-20.87-13.61-7.54-6.94-12.78-15.42-17.49-24.51a123.36,123.36,0,0,1-11.91-37.32,219.89,219.89,0,0,1-2.87-23.75c-.48-9.18-1.17-18.58.17-27.59,2.38-16,6-31.8,9.54-47.59a101.14,101.14,0,0,1,11.92-30.07c3.9-6.5,7.71-13.06,11.8-19.44,8.37-13,16.33-26.4,25.54-38.81,8.5-11.46,18.36-21.91,27.73-32.71,5.55-6.4,5.52-8.27-1.35-12.95-2.68-1.82-6.77-2.39-8.37-4.78-4.86-7.29-10.55-14.72-12.77-23-5.06-18.79-2.4-37.16,8.27-53.84,9.87-15.44,25.1-23.59,41.5-29.45A102.08,102.08,0,0,1,338,321c9.27-.79,18.86-.95,28,.63,6.53,1.13,12.5,5.56,19.39,8.84,1.49-2.78,3.23-6.2,5.14-9.52,13.61-23.71,27.11-47.5,41-71.08,9.39-16,16.74-33.16,27.86-48.14,4.21-5.66,24.27-33.07,28.4-38.93,4.71-6.66,8.11-14.26,12.8-20.94,3.09-4.41,2.85-7.72-.48-11.36-16.93,1.43-30.16-5.5-40.66-18.2-6.72-8.13-9.3-18.08-11.76-28.2C445.83,76.78,455.24,53.28,459.33,47.19Zm363.9,819.09c-3.17-10-5.41-19.91-9.38-29-9.47-21.8-27-35.92-47-47.26-6.33-3.59-13.23-6.44-18.87-10.91-7.76-6.15-17.31-11.1-19.95-22a141.25,141.25,0,0,1-2.29-14.5c-2.08-15.55,3.73-28.2,16.16-36.62,6.85-4.64,14.72-8.25,24.68-4.58a85.38,85.38,0,0,1,20.56,11.1c5.2,3.72,11.52,6.37,17,2.91,5.74-3.63,10.27-9.36,14.88-14.57a8.35,8.35,0,0,0,1.39-6.58,148.53,148.53,0,0,0-22.68-48.85c-9.64-13.71-19.56-27.24-28.67-41.3-7.82-12.08-14.25-25-14.73-39.92-.24-7.69-1-16.29,4.68-21.82,8.73-8.54,22.25-15.77,36-8.68,6,3.08,12.53,4.43,19.13,2.74,7.82-14.92,9.34-19.45,6.9-29-1.65-6.45-3.75-13.3-7.54-18.58-9-12.58-19-24.54-29-36.36-7.49-8.85-15.5-17.27-23.6-25.58-11.07-11.36-22.76-22.11-33.56-33.71-9.52-10.23-18.42-21-22-35.3-1.75-7-1.09-13.19,1-19.82,2.38-7.59,7.65-13,13.73-16.76,15-9.26,28.39-10.43,42.65,2.28a44.56,44.56,0,0,0,31.67,11.64c8-.19,13.75-5.33,13.95-13.51a33.07,33.07,0,0,0-2.89-14.17c-6-12.92-16.88-20.7-29.62-25.68-12.13-4.74-24.49-9-37-12.73-10.39-3.12-17.27-9.42-21.38-19.36-4.63-11.2-4.65-23.3,1.4-32.72a39.94,39.94,0,0,1,28.83-18.57c8-1.07,16.07-1.73,24-2.9a176.65,176.65,0,0,1,31.6-1.31c11.17.35,19.58-5.88,23.92-16.32,6.24-15,3.57-28.18-6.38-40.52-13.89-17.21-18.68-37.2-16.11-58.92,1.34-11.31,1.82-23.45,14.7-30-11-2.13-189.67-1.71-196.66.38a88.87,88.87,0,0,1,7.52,5.38c4.33,3.82,9,7.43,12.55,11.94,10,12.85,14.58,28.27,16.87,44,1.6,11,1,22.56.1,33.77-1,13.31-3.08,26.57-5.31,39.75-1.66,9.78-4.07,19.46-6.59,29.06-2.39,9.08-6.24,17.83-7.89,27-3.72,20.7-15.37,37.45-25.62,54.86-6.47,11-14.06,21.33-21.33,31.83-4.86,7-6.57,16.12-14.14,21.5-1,.72.12,4.51.17,5.44,11.61,1.41,49,14.49,55.93,18.17A171.34,171.34,0,0,1,681.31,408c9.41,10.32,23.48,37.21,23.91,38.69,2.13,7.22,4.31,14.42,6.4,21.66,1.09,3.79,1.34,8,3.19,11.37,3.57,6.44,2.3,30,2.56,34.77.84,15.53-.35,30.88-2.31,46.26-.84,6.57-9.33,51.71-10.06,57.58a197.27,197.27,0,0,1-3.68,19.63c-2,8.87-5.7,17.13-7.92,26-3.07,12.2-8.11,23.89-12.35,35.93-.38.14-1,.57-1.51.52-8.62-.76-31.24-11.29-34.41-11-7.07.58-14.1,1.68-21.19,2.57,1.29,7.85,1.26,8.07,6.67,8.79,3.83.51,7.74.26,11.62.45a104.78,104.78,0,0,1,29.43,6c6.64,2.31,7.81,4.42,6.07,11.07-2.55,9.74-5.21,19.6-6.18,29.58-2,20.23,2.79,39.74,8.91,58.8,6.25,19.46,14.82,38.26,15,59.73Zm-775-549.07,2,.31c3.79-8.36,3-17.35,2.73-26.15-.34-12.1,4.34-22.48,11.24-31.54,7-9.23,15.29-17.57,23.48-25.82,5.89-5.93,11.59-6.32,17.31-3.09s9.68,7.48,11.36,13.77a121.92,121.92,0,0,1,2.93,13.54c1.06,7.19,5.3,11.52,11.56,14.31,7.2,3.21,18.86,2,21.76-3.33,4.52-8.3,9-16.91,11.59-25.94,3.42-11.82,4.26-24.24,3.72-36.67a85,85,0,0,1,.72-11.06c1-11.62,2.35-23.22,3.09-34.86,1.15-18.16,8.14-33.76,21.75-45.29,13.18-11.17,28.1-18.86,46.29-19.87,18.45-1,31.92,5.27,40.8,21.46,2.5,4.56,4.19,9.57,6.68,14.14,3.66,6.7,7.46,13.33,11.65,19.7a14.21,14.21,0,0,0,13.52,6.4c4.79-.45,9.45-2.34,14.16-3.63,3.83-1,5.59-3.64,5.09-7.58-.81-6.4-1.2-12.93-2.8-19.13a102.25,102.25,0,0,0-21.87-42c-8.91-10.29-9.57-20.55-2.89-32A32.49,32.49,0,0,0,305.92,48a10.88,10.88,0,0,0-2.32-.67q-47.7-.1-95.39-.08a13.65,13.65,0,0,0-6.11,1.46c-8.36,4.39-16.62,9-24.88,13.57-12,6.67-23.92,13.51-36,20.08-15.49,8.44-31.3,16.38-44.77,28-15,13-31.84,24.18-41.92,42.18a4.07,4.07,0,0,1-1.28,1.31c-4.93,3.28-5.61,8-5.59,13.64.17,46.93.09,93.86.12,140.78C47.8,311.3,48.07,314.25,48.22,317.21Zm80.8,549h62c-5.59-4.73-9.83-8-13.77-11.7-9.37-8.67-18.81-17.27-27.79-26.33a171,171,0,0,1-16.08-18.72,225.27,225.27,0,0,1-13.86-21.6c-7-12.14-15.05-24-20-36.93C92.24,731.85,80,717,66,703.16a41.87,41.87,0,0,0-18.19-10.74c1.53,14.75-3.2,28.16,6.58,41.91C68.09,753.56,76.36,776.24,84,798.6c6.19,18.06,14.68,34.2,27.51,48.12C117.49,853.17,123.28,859.77,129,866.16ZM402.23,377.61c4.91,8.55,6.78,17.14,3.3,26.11-4.25,10.94-6.72,22.75-15.29,31.64-1.58,1.64-5,11.52-6.52,13.58-3.78,5.14-51.56,52-57.64,63.05-7,12.64-15.12,24.65-22.17,37.26-3.53,6.31-5.76,13.36-8.6,20.06-1.28,3-2.72,6-3.93,9-1.81,4.51-2.79,9.54-5.37,13.52a52.4,52.4,0,0,0-8.89,27.95L288,626.44c3.17-10.26,5.21-19.61,8.91-28.23,5.94-13.87,12.66-27.43,19.63-40.81,6.62-12.7,13.26-25.51,21.22-37.35,8.49-12.61,20.56-22.24,29.49-34.86,7.2-10.19,17.93-18.07,27.86-26,19.93-15.92,40.71-30.77,60.52-46.83,15.48-12.55,33.23-20.91,50.52-30.16,3.58-1.92,8.12-2.29,12.29-2.74s8.34-.1,13.28-.1l2-19.29c-4.17.57-7.72.23-10.45,1.59-7.1,3.52-15.21,3.88-21.92,9.29-5.85,4.72-13.9,6.6-20.83,10-16.33,8.09-32.51,16.47-48.88,24.45-3.56,1.74-7.67,2.32-12.91,3.83,10.61-14.89,7.63-36.17-5-44.65ZM859.45,707.69l-1.78-1.22c-2.49,3.26-5.06,6.46-7.45,9.79-3.68,5.13-14.59,15.16-15.5,15.88-2.26,1.79-23.07,18.83-30.24,20.46-6.34,1.44-6.56,7.5-.92,11.62,5,3.67,9.82,7.6,15.53,10.47,13,6.53,25.56,13.91,38.33,20.88.38.21,1.09-.22,2-.44ZM787.27,377.84a28.62,28.62,0,0,0,4.13,16.65c7.9,13.71,21.16,20.38,33.75,28.11,8.5,5.22,17,10.4,25.2,16.1,3.25,2.27,5.57,5.9,8.87,9.51V380.38c-2,1.63-3.17,2.52-4.29,3.43-10.34,8.48-22,8.84-33.22,1.51-7.47-4.87-16.14-6.58-24.74-8.1C794.13,376.72,791,377.56,787.27,377.84ZM859.38,234.1c-11.14-2.85-35-5.12-44.78-2.92-5.42,1.21-10.64,4.47-15.27,7.77-2.76,2-3.19,6-.65,9.13a28,28,0,0,0,6,5.62c9.38,6.24,19,12.09,28.32,18.43a170.93,170.93,0,0,1,14.28,11.32c4,3.38,7.71,7.07,12.12,11.15ZM811.21,570.69c2.15,6.47,33.14,45.53,47.2,60.38,2.3-9.71,1.93-79.26-.44-85.13C845.61,559.36,828.56,564.07,811.21,570.69ZM94.45,47.88H48c-.32,12.14-.42,23.58.06,36.34Zm535.32,718c-1.43-5.11-2.23-9-3.63-12.7-1.52-4-5-5.27-8.93-4.65-3.72.58-7,2.09-8.26,6.2-2.13,6.73,3.36,18.32,10,20.53a4.76,4.76,0,0,0,4.15-.77C625.67,771.73,627.78,768.55,629.76,765.91Zm-557,100.49.53-2.14c-9.71-4.75-15.18-14.87-25-20.85v23.36c6.48,0,12.49,0,18.51,0C68.76,866.74,70.74,866.53,72.72,866.41ZM529.17,761c3.23,4.53,7.36,4.77,12.71,1.1,5.57-3.83,7.57-8.81,5-13.1-1.61-2.66-3.57-4.23-7.41-3.76C533.47,745.93,527.78,759,529.17,761Z"/><path class="cls-3" d="M154.92,720.35a192.28,192.28,0,0,0-53.36-115.68c-2.25-2.31-5.78,1.23-3.54,3.54a186.81,186.81,0,0,1,51.89,112.14c.3,3.18,5.31,3.21,5,0Z"/><path class="cls-3" d="M183.11,655.08a212.41,212.41,0,0,1,38.74-95.8c1.9-2.6-2.44-5.1-4.32-2.52a215.49,215.49,0,0,0-39.25,97c-.44,3.15,4.38,4.51,4.82,1.33Z"/><path class="cls-3" d="M124.53,571.33A228.53,228.53,0,0,0,70.42,530.2c-2.82-1.54-5.35,2.77-2.52,4.32A224,224,0,0,1,121,574.86c2.25,2.31,5.78-1.23,3.54-3.54Z"/><path class="cls-3" d="M231.33,690.09c2.29-38.12,26.24-70,48.65-99.13,2-2.55-2.38-5-4.32-2.52-23,30-47,62.51-49.33,101.66-.19,3.21,4.81,3.2,5,0Z"/><path class="cls-3" d="M320.39,630.79a82.93,82.93,0,0,0-34.86-67c-2.63-1.86-5.13,2.47-2.52,4.32a77.7,77.7,0,0,1,32.38,62.7c0,3.22,5,3.22,5,0Z"/><path class="cls-3" d="M318.08,701.83a207.32,207.32,0,0,1,10-87.67c2.32-6.82,5.95-22.27,15.45-21.59,3.21.23,3.2-4.77,0-5-8.21-.59-13.08,7-15.92,13.65a193.27,193.27,0,0,0-10.27,32.49,214.22,214.22,0,0,0-4.3,68.12c.31,3.17,5.31,3.21,5,0Z"/><path class="cls-3" d="M387.36,659.48A190.81,190.81,0,0,0,376,566.95c-1.15-3-6-1.68-4.82,1.33a187.64,187.64,0,0,1,11.22,91.2c-.4,3.18,4.61,3.16,5,0Z"/><path class="cls-3" d="M431.14,609.41a51.58,51.58,0,0,1,24.23-35.79c2.75-1.66.24-6-2.52-4.32a56.4,56.4,0,0,0-26.53,38.78c-.54,3.15,4.28,4.5,4.82,1.33Z"/><path class="cls-3" d="M473.27,683.24a278.74,278.74,0,0,0-4.43-68.45c-.6-3.16-5.42-1.82-4.82,1.33a273.28,273.28,0,0,1,4.25,67.12c-.19,3.21,4.81,3.2,5,0Z"/><path class="cls-3" d="M518.58,610.49a116.76,116.76,0,0,0-5-44.67c-1-3.06-5.79-1.75-4.82,1.33a112.94,112.94,0,0,1,4.83,43.34c-.26,3.21,4.74,3.19,5,0Z"/><path class="cls-3" d="M533.91,692a148.55,148.55,0,0,1,57.25-79.2c2.63-1.82.13-6.16-2.52-4.32a154,154,0,0,0-59.55,82.19c-.93,3.09,3.9,4.41,4.82,1.33Z"/><path class="cls-3" d="M560.45,581.72A39.46,39.46,0,0,0,553.57,555c-1.82-2.63-6.16-.13-4.32,2.52a35.13,35.13,0,0,1,6.19,24.19c-.33,3.2,4.68,3.18,5,0Z"/><path class="cls-3" d="M618.65,666.87a167.33,167.33,0,0,1,64.56-84.65c2.65-1.79.15-6.12-2.52-4.32a172.93,172.93,0,0,0-66.86,87.64c-1,3.05,3.79,4.36,4.82,1.33Z"/><path class="cls-3" d="M622.61,586.08a171.4,171.4,0,0,0-20.52-51.35c-1.66-2.75-6-.24-4.32,2.52a167.09,167.09,0,0,1,20,50.15c.7,3.14,5.52,1.81,4.82-1.33Z"/><path class="cls-3" d="M695.36,684.89a94.75,94.75,0,0,1,48.24-75.41c2.82-1.55.3-5.87-2.52-4.32-29.11,16-48.31,46.66-50.72,79.72-.23,3.21,4.77,3.2,5,0Z"/><path class="cls-3" d="M807.09,691.73a136.68,136.68,0,0,0-28.69-87.48c-2-2.54-5.48,1-3.54,3.54a131.35,131.35,0,0,1,27.22,83.94c-.09,3.22,4.91,3.22,5,0Z"/><path class="cls-3" d="M743.6,653.66a117.85,117.85,0,0,0-53-72c-2.76-1.67-5.27,2.65-2.52,4.32a112.76,112.76,0,0,1,50.66,69c.78,3.12,5.6,1.8,4.82-1.33Z"/><path class="cls-3" d="M760.88,578.38a142.12,142.12,0,0,0-7.75-36.29c-1.07-3-5.91-1.71-4.82,1.33a137,137,0,0,1,7.57,35c.26,3.18,5.26,3.21,5,0Z"/><path class="cls-3" d="M778.59,573.21a136.69,136.69,0,0,1,52-70.66c2.62-1.82.13-6.16-2.52-4.32a142.25,142.25,0,0,0-54.32,73.65c-1,3.07,3.85,4.39,4.82,1.33Z"/><path class="cls-3" d="M73.69,682.25a117.21,117.21,0,0,1,36-81.52c2.33-2.23-1.21-5.76-3.54-3.54a122.33,122.33,0,0,0-37.43,85.05c-.08,3.22,4.92,3.22,5,0Z"/><path class="cls-3" d="M424.81,699.15c4.28-27.54,24.53-51.17,51.44-58.85,3.09-.88,1.78-5.71-1.33-4.82-28.45,8.12-50.39,33.12-54.93,62.34-.49,3.15,4.33,4.5,4.82,1.33Z"/><path class="cls-3" d="M475.95,641.76c3.22,0,3.22-5,0-5s-3.22,5,0,5Z"/><path class="cls-3" d="M472.6,638.37H496c3.22,0,3.22-5,0-5H472.6c-3.22,0-3.22,5,0,5Z"/><path class="cls-3" d="M341,688.64a525.15,525.15,0,0,0-66.15-41.91c-2.84-1.51-5.37,2.8-2.52,4.32A525.15,525.15,0,0,1,338.47,693c2.58,1.92,5.08-2.42,2.52-4.32Z"/><path class="cls-3" d="M86.19,797.34a127.63,127.63,0,0,0-28.24-40.56c-2.31-2.24-5.85,1.29-3.54,3.54a124.07,124.07,0,0,1,27.46,39.55c1.29,2.94,5.6.4,4.32-2.52Z"/><path class="cls-3" d="M816.34,650.81c-2.28-17.11-4.58-44.23,16.84-50.39,3.09-.89,1.77-5.71-1.33-4.82-23.95,6.89-23.14,35.52-20.51,55.21.42,3.14,5.43,3.18,5,0Z"/><path class="cls-3" d="M207.17,651.05a212.18,212.18,0,0,0-5.74-78.28,1.25,1.25,0,0,0-2.41.66,210.26,210.26,0,0,1,5.65,77.62c-.18,1.6,2.32,1.58,2.5,0Z"/><path class="cls-3" d="M164.23,598.17c-1.19,3.57-3.51-2.18-3.71-3.89-.26-2.17.6-4.74,1-6.91q.84-5,2-10a154.18,154.18,0,0,1,27.67-58.5c1-1.28-1.2-2.53-2.16-1.26a158,158,0,0,0-26.67,54.14q-2,7.4-3.27,15c-.57,3.43-1.8,7.77-.75,11.2,1.2,3.9,6.82,5.44,8.32.93.51-1.53-1.9-2.19-2.41-.66Z"/><path class="cls-3" d="M127.1,610.5a136.61,136.61,0,0,0-23.19-68.55c-.9-1.33-3.06-.08-2.16,1.26A134.1,134.1,0,0,1,124.6,610.5c.1,1.6,2.6,1.61,2.5,0Z"/><path class="cls-3" d="M106.61,696.83c-2.4-32.3,14.25-64.51,42.34-80.78a1.25,1.25,0,0,0-1.26-2.16c-28.8,16.68-46,49.8-43.58,82.94.12,1.59,2.62,1.61,2.5,0Z"/><path class="cls-3" d="M257.81,679.87l0-50.91c0-11.67,1.12-25.06-7.28-34.37-1.08-1.2-2.84.58-1.77,1.77,9,9.93,6.55,26.27,6.54,38.59l0,44.92a1.25,1.25,0,0,0,2.5,0Z"/><path class="cls-3" d="M291.39,617.26a129.35,129.35,0,0,1,29.31-85.75c1-1.23-.74-3-1.77-1.77a132,132,0,0,0-30,87.52,1.25,1.25,0,0,0,2.5,0Z"/><path class="cls-3" d="M354.37,637.74a190.31,190.31,0,0,1,56.34-88.23c1.21-1.07-.57-2.83-1.77-1.77a192.76,192.76,0,0,0-57,89.33,1.25,1.25,0,0,0,2.41.66Z"/><path class="cls-3" d="M353.93,701.91c6.4-23.09-3.05-48.78-23-62.06-1.34-.89-2.6,1.27-1.26,2.16,19,12.66,28,37.26,21.88,59.24a1.25,1.25,0,0,0,2.41.66Z"/><path class="cls-3" d="M384,708.67c-2.83-35.83,33.29-54.19,60.89-66.42,1.47-.65.2-2.81-1.26-2.16-28.41,12.6-65,31.84-62.13,68.58.13,1.59,2.63,1.61,2.5,0Z"/><path class="cls-3" d="M451,596.4a129.45,129.45,0,0,0-36.17-52.69c-1.21-1.06-3,.71-1.77,1.77a126.89,126.89,0,0,1,35.53,51.58c.55,1.5,3,.85,2.41-.66Z"/><path class="cls-3" d="M490.47,598.65a160.13,160.13,0,0,1,21.2-86,1.25,1.25,0,0,0-2.16-1.26A162.63,162.63,0,0,0,488,598.65c.06,1.6,2.56,1.61,2.5,0Z"/><path class="cls-3" d="M533.9,687.06c5.15-25-19.9-38.82-38.94-47.17-1.46-.64-2.73,1.51-1.26,2.16,17.82,7.82,42.68,20.65,37.79,44.35-.32,1.57,2.09,2.24,2.41.66Z"/><path class="cls-3" d="M578.54,688.11c1.79-16.28,3.57-33.77-3.17-49.22-6.31-14.46-19.47-23.88-32.31-32.18-1.36-.88-2.61,1.29-1.26,2.16,12.83,8.29,26.13,17.77,31.92,32.53s4,31.3,2.32,46.71c-.18,1.6,2.33,1.58,2.5,0Z"/><path class="cls-3" d="M569.83,593.46a137.28,137.28,0,0,1,46.23-90.11c1.22-1.06-.56-2.82-1.77-1.77a139.83,139.83,0,0,0-47,91.88c-.15,1.6,2.35,1.59,2.5,0Z"/><path class="cls-3" d="M617.36,599c2-14.44,16-25.43,26.28-34.56a275.64,275.64,0,0,1,37-27.69c1.36-.85.11-3-1.26-2.16a279.3,279.3,0,0,0-38.82,29.26c-10.17,9.18-23.63,20-25.61,34.49-.22,1.57,2.19,2.25,2.41.66Z"/><path class="cls-3" d="M672.41,656.2a50.24,50.24,0,0,0-31.8-44.13c-1.5-.58-2.15,1.84-.66,2.41a47.65,47.65,0,0,1,30,41.72c.08,1.6,2.58,1.61,2.5,0Z"/><path class="cls-3" d="M637.62,686.13c-5.56-17.36.85-35.9,12.16-49.49s26.49-22.71,41.33-31.69a1.25,1.25,0,0,0-1.26-2.16c-16,9.66-32.57,19.72-44,34.84-10.52,13.88-16.05,32.16-10.61,49.17.49,1.53,2.9.87,2.41-.66Z"/><path class="cls-3" d="M748.48,666.33a153.11,153.11,0,0,0-20-85.4,1.25,1.25,0,0,0-2.16,1.26A150.69,150.69,0,0,1,746,666.33c-.1,1.61,2.4,1.6,2.5,0Z"/><path class="cls-3" d="M758.62,603.72a184.76,184.76,0,0,1,38.15-127.65c1-1.25-.78-3-1.77-1.77a187.28,187.28,0,0,0-38.88,129.42c.13,1.59,2.63,1.61,2.5,0Z"/><path class="cls-3" d="M778.94,567.79a61.65,61.65,0,0,1,14.29-51.28c1.06-1.21-.7-3-1.77-1.77a64.35,64.35,0,0,0-14.94,53.71c.28,1.58,2.69.91,2.41-.66Z"/><path class="cls-3" d="M797.82,584.89a62.41,62.41,0,0,1,33.62-41.47c1.45-.69.18-2.85-1.26-2.16a64.81,64.81,0,0,0-34.76,43c-.38,1.56,2,2.23,2.41.66Z"/><path class="cls-3" d="M837.87,647.54c-.69-28.82-26.51-45.57-48.8-58.58a1.25,1.25,0,0,0-1.26,2.16c21.45,12.52,46.9,28.58,47.56,56.43a1.25,1.25,0,0,0,2.5,0Z"/><path class="cls-3" d="M782.21,678.2c-1-22.9-1-51.32,20.92-65,1.36-.85.11-3-1.26-2.16-22.78,14.25-23.25,43.33-22.15,67.2.07,1.6,2.57,1.61,2.5,0Z"/><path class="cls-3" d="M73.77,725.85q-10.7-17.6-23-34.16c-.95-1.28-3.12,0-2.16,1.26q12.26,16.55,23,34.16a1.25,1.25,0,0,0,2.16-1.26Z"/><path class="cls-3" d="M815.51,726.49c-4.49-21.06,10.44-41.28,32.09-42.41,1.6-.08,1.61-2.58,0-2.5-23.33,1.22-39.34,22.87-34.5,45.57.34,1.57,2.75.91,2.41-.66Z"/><path class="cls-3" d="M212.71,764.12a135.48,135.48,0,0,0-31.85-65.23c-1.07-1.21-2.83.57-1.77,1.77a133.07,133.07,0,0,1,31.21,64.13c.29,1.58,2.7.91,2.41-.66Z"/><path class="cls-3" d="M211.58,762.9c2.87-23.08,23.35-36.66,42.14-46.85,1.41-.77.15-2.93-1.26-2.16-19.73,10.7-40.38,24.91-43.38,49-.2,1.59,2.3,1.58,2.5,0Z"/><path class="cls-3" d="M441,845.38c-10-25.64-22-54.43-50-64.6-1.51-.55-2.17,1.86-.66,2.41,27,9.83,38.61,38.17,48.22,62.86.58,1.48,3,.84,2.41-.66Z"/><path class="cls-3" d="M445.11,852.45c1.06-13.81,12-25.63,25.83-27.33,1.58-.19,1.6-2.7,0-2.5a32.66,32.66,0,0,0-28.33,29.83c-.12,1.6,2.38,1.6,2.5,0Z"/><path class="cls-3" d="M171.43,842.32a66.81,66.81,0,0,1,33.87-37.81c1.45-.7.18-2.86-1.26-2.16a69.33,69.33,0,0,0-35,39.31c-.54,1.52,1.87,2.17,2.41.66Z"/><path class="cls-3" d="M528,754.28c-1.51-12-13.53-20.67-25.42-17.65a1.25,1.25,0,0,0,.66,2.41c10.17-2.58,20.94,4.83,22.25,15.24.2,1.57,2.7,1.59,2.5,0Z"/><path class="cls-3" d="M296.76,811.42c-4.29-21,6.42-43.35,25.56-53,1.44-.73.17-2.88-1.26-2.16-20.18,10.21-31.21,33.8-26.71,55.86.32,1.58,2.73.91,2.41-.66Z"/><path class="cls-3" d="M611.35,825.28a228.86,228.86,0,0,0-7.41-76.69,1.25,1.25,0,0,0-2.41.66,226.75,226.75,0,0,1,7.32,76c-.12,1.61,2.38,1.6,2.5,0Z"/><path class="cls-3" d="M641.95,764.47c-1.69-14.19-3.08-34.94,13.66-40.86,1.51-.53.86-2.95-.66-2.41-18,6.35-17.34,27.74-15.49,43.27.19,1.58,2.69,1.6,2.5,0Z"/><path class="cls-3" d="M710.73,811.84c2.21-24.79,3.8-53.1-13.52-73.24-1.05-1.22-2.81.55-1.77,1.77,16.82,19.54,14.93,47.46,12.79,71.47-.14,1.6,2.36,1.59,2.5,0Z"/><path class="cls-3" d="M732.58,759.14c-1.3-7-2.75-14.5-.53-21.46,2-6.32,8-11.9,15-10.83,1.57.24,2.25-2.17.66-2.41-6.77-1-12.76,2.63-16.19,8.42-4.81,8.11-3,18.2-1.33,26.94.29,1.58,2.7.91,2.41-.66Z"/><path class="cls-3" d="M798.84,810.16a83,83,0,0,0-16.47-43.36c-1-1.27-3.13,0-2.16,1.26a80.68,80.68,0,0,1,16.13,42.1c.13,1.59,2.63,1.61,2.5,0Z"/><path class="cls-3" d="M784.18,865.22C785.83,846,786,819.52,764,811.75c-1.52-.54-2.17,1.88-.66,2.41,20.83,7.34,19.93,33.17,18.4,51.06-.14,1.6,2.36,1.59,2.5,0Z"/><path class="cls-3" d="M784.37,855.29a26.07,26.07,0,0,1,19.69-17.35c1.58-.32.91-2.73-.66-2.41A28.57,28.57,0,0,0,782,854.63c-.51,1.53,1.9,2.18,2.41.66Z"/><path class="cls-3" d="M96.56,868a27.82,27.82,0,0,0-28.48-22.27c-1.6.09-1.61,2.59,0,2.5a25.35,25.35,0,0,1,26.06,20.44c.31,1.58,2.72.91,2.41-.66Z"/><text class="cls-4" transform="translate(152.42 475.18) scale(0.99 1)">Lawnmowing</text></g><g id="newGrid"><path class="cls-5" d="M0,0V909.84H909.83V0ZM871.1,790.06c-.1,25.31,0,50.61,0,75.92v11.36H37.58V34.93c3.94-.17,6.92-.41,9.9-.42,15.62,0,31.24.12,46.86-.09,5.76-.08,11.49-1,17.25-1.49,1.82-.16,3.81-.72,5.46-.23,10.82,3.26,21.87,1.66,32.8,1.7,45.63.2,91.26,0,136.89.1Q573.37,34.74,860,35h11.08V46.87q0,124.92,0,249.84c0,14.51,1,29,.94,43.54-.16,43.21-.75,86.43-.91,129.64,0,13.58,1.11,27.16,1.07,40.74Q871.8,650.34,871.1,790.06Z"/></g></g></svg>