<svg xmlns="http://www.w3.org/2000/svg" viewBox="0 0 923.13 923.13"><defs><style>.cls-1{fill:#ce242b;}.cls-2{font-size:122px;font-family:Georgia, Georgia;}.cls-2,.cls-3{fill:#fff;}.cls-4{fill:#feffff;opacity:0.41;}</style></defs><title>lawnmowing_3</title><g id="Layer_2" data-name="Layer 2"><g id="Layer_1-2" data-name="Layer 1"><rect class="cls-1" width="923.13" height="923.13"/><text class="cls-2" transform="translate(113.99 485.88)">Lawnmowing</text><path class="cls-3" d="M116.49,754.46a209.34,209.34,0,0,0-59-126.55c-2.26-2.3-5.8,1.24-3.54,3.54a203.9,203.9,0,0,1,57.52,123c.3,3.17,5.31,3.21,5,0Z"/><path class="cls-3" d="M147.71,682.89a231.3,231.3,0,0,1,42.91-105c1.91-2.59-2.43-5.09-4.32-2.52a234.37,234.37,0,0,0-43.41,106.2c-.44,3.15,4.37,4.51,4.82,1.33Z"/><path class="cls-3" d="M82.93,591.37a251.92,251.92,0,0,0-59.84-45c-2.83-1.53-5.36,2.78-2.52,4.32A247.34,247.34,0,0,1,79.4,594.91c2.26,2.3,5.79-1.24,3.54-3.54Z"/><path class="cls-3" d="M201.08,721.3c2.5-41.65,28.86-76.46,53.49-108.21,1.95-2.51-1.56-6.08-3.54-3.54-25.53,32.9-52.37,68.6-55,111.75-.19,3.21,4.81,3.2,5,0Z"/><path class="cls-3" d="M299.65,656.34a90.29,90.29,0,0,0-38.45-73.21c-2.64-1.85-5.15,2.49-2.52,4.32a85.07,85.07,0,0,1,36,68.89c0,3.22,5,3.22,5,0Z"/><path class="cls-3" d="M297.09,734.16a225.15,225.15,0,0,1,11.47-97.1c2.6-7.44,6.61-23.65,17-22.82,3.21.26,3.19-4.75,0-5-8.92-.71-14.31,7.6-17.39,14.83a211.9,211.9,0,0,0-11.28,35.26,231.72,231.72,0,0,0-4.81,74.83c.31,3.17,5.31,3.21,5,0Z"/><path class="cls-3" d="M373.77,687.76a206.66,206.66,0,0,0-12.6-101.3c-1.16-3-6-1.67-4.82,1.33a203.51,203.51,0,0,1,12.42,100c-.4,3.18,4.6,3.15,5,0Z"/><path class="cls-3" d="M422.25,632.86A56.63,56.63,0,0,1,449.2,593.5c2.76-1.64.25-6-2.52-4.32a61.47,61.47,0,0,0-29.24,42.34c-.54,3.15,4.28,4.5,4.82,1.33Z"/><path class="cls-3" d="M468.87,713.8a301.19,301.19,0,0,0-4.9-74.92c-.61-3.16-5.43-1.82-4.82,1.33a295.8,295.8,0,0,1,4.72,73.59c-.19,3.21,4.81,3.2,5,0Z"/><path class="cls-3" d="M519,634.1a126.14,126.14,0,0,0-5.54-48.87c-1-3.05-5.8-1.75-4.82,1.33A122.39,122.39,0,0,1,514,634.1c-.27,3.21,4.73,3.19,5,0Z"/><path class="cls-3" d="M536,723.29a163,163,0,0,1,63.49-86.91c2.64-1.81.14-6.14-2.52-4.32A168.47,168.47,0,0,0,531.18,722c-.93,3.09,3.89,4.41,4.82,1.33Z"/><path class="cls-3" d="M565.37,602.58a42.63,42.63,0,0,0-7.57-29.14c-1.83-2.61-6.17-.12-4.32,2.52a38.37,38.37,0,0,1,6.89,26.62c-.33,3.2,4.67,3.17,5,0Z"/><path class="cls-3" d="M629.8,695.8a183.69,183.69,0,0,1,71.58-92.88c2.66-1.78.16-6.11-2.52-4.32A189.28,189.28,0,0,0,625,694.47c-1,3.05,3.78,4.36,4.82,1.33Z"/><path class="cls-3" d="M634.19,607.43a186,186,0,0,0-22.68-56.19c-1.67-2.74-6-.23-4.32,2.52a181.75,181.75,0,0,1,22.18,55c.7,3.14,5.52,1.81,4.82-1.33Z"/><path class="cls-3" d="M714.7,715.61c2.51-34.52,23.16-66.29,53.53-82.81,2.83-1.54.31-5.86-2.52-4.32a109.07,109.07,0,0,0-56,87.13c-.23,3.21,4.77,3.2,5,0Z"/><path class="cls-3" d="M838.38,723.1a148.36,148.36,0,0,0-31.67-95.66c-2-2.53-5.5,1-3.54,3.54a143.06,143.06,0,0,1,30.21,92.12c-.09,3.22,4.91,3.22,5,0Z"/><path class="cls-3" d="M768.1,681.46a128.89,128.89,0,0,0-58.5-78.72c-2.77-1.66-5.28,2.66-2.52,4.32a123.79,123.79,0,0,1,56.2,75.73c.78,3.12,5.61,1.8,4.82-1.33Z"/><path class="cls-3" d="M787.22,598.93a153.37,153.37,0,0,0-8.57-39.69c-1.08-3-5.92-1.71-4.82,1.33a148.33,148.33,0,0,1,8.39,38.36c.26,3.18,5.26,3.21,5,0Z"/><path class="cls-3" d="M820,589.9a150,150,0,0,1,57.71-77.55c2.64-1.81.14-6.14-2.52-4.32a155.56,155.56,0,0,0-60,80.54c-1,3.07,3.84,4.39,4.82,1.33Z"/><path class="cls-3" d="M33.2,598.88a128,128,0,0,1,39.89-89.47c2.34-2.22-1.2-5.75-3.54-3.54a133.07,133.07,0,0,0-41.35,93c-.08,3.22,4.92,3.22,5,0Z"/><path class="cls-3" d="M415.24,731.17c4.74-30.41,27.45-56.28,57.12-64.63,3.09-.87,1.78-5.7-1.33-4.82-31.2,8.78-55.62,36.06-60.61,68.13-.49,3.15,4.33,4.5,4.82,1.33Z"/><path class="cls-3" d="M472.1,668.12c3.22,0,3.22-5,0-5s-3.22,5,0,5Z"/><path class="cls-3" d="M468.4,664.41h26c3.22,0,3.22-5,0-5h-26c-3.22,0-3.22,5,0,5Z"/><path class="cls-3" d="M322.59,719.92A580.7,580.7,0,0,0,249.37,674c-2.84-1.5-5.37,2.81-2.52,4.32a580.7,580.7,0,0,1,73.22,45.91c2.59,1.91,5.09-2.43,2.52-4.32Z"/><path class="cls-3" d="M47.08,725.08A139.3,139.3,0,0,0,15.86,680.7c-2.33-2.22-5.87,1.31-3.54,3.54a135.65,135.65,0,0,1,30.44,43.38c1.3,2.94,5.61.4,4.32-2.52Z"/><path class="cls-3" d="M861.64,674.32c-2.54-18.82-4.55-48.15,18.92-54.77,3.09-.87,1.78-5.7-1.33-4.82-10.14,2.86-17.39,10.92-21.16,20.56-5,12.85-3.05,27.07-1.26,40.36.43,3.17,5.25,1.82,4.82-1.33Z"/><path class="cls-3" d="M174.46,678.54a229.67,229.67,0,0,0-6.35-85.73,1.25,1.25,0,0,0-2.41.66A227.76,227.76,0,0,1,172,678.54c-.18,1.6,2.32,1.58,2.5,0Z"/><path class="cls-3" d="M127.2,620.64q-3,3.37-4.42-2.81a20.19,20.19,0,0,1,.2-2.95c.22-2.11.59-4.26.95-6.36q1-5.84,2.39-11.6a168.33,168.33,0,0,1,30.45-63.27c1-1.28-1.19-2.52-2.16-1.26a172.15,172.15,0,0,0-29,57.33q-2.21,7.73-3.68,15.64c-.79,4.25-2.28,9.58-1.55,13.92.78,4.62,7.36,7.48,9.19,2,.51-1.53-1.9-2.18-2.41-.66Z"/><path class="cls-3" d="M85.83,634.11a148.33,148.33,0,0,0-25.65-75c-.9-1.32-3.07-.07-2.16,1.26a145.83,145.83,0,0,1,25.31,73.77c.1,1.6,2.6,1.61,2.5,0Z"/><path class="cls-3" d="M63.15,728.69c-2.71-35.55,16-70.89,46.93-88.6a1.25,1.25,0,0,0-1.26-2.16C77.16,656,57.88,692.3,60.65,728.69c.12,1.59,2.62,1.61,2.5,0Z"/><path class="cls-3" d="M230.52,710.11l0-55.49c0-12.81,1.32-27.68-8-37.84-1.09-1.19-2.86.58-1.77,1.77,9.9,10.78,7.29,28.57,7.28,42l0,49.55a1.25,1.25,0,0,0,2.5,0Z"/><path class="cls-3" d="M267.68,641.52a140.8,140.8,0,0,1,32.48-94c1-1.23-.74-3-1.77-1.77a143.45,143.45,0,0,0-33.21,95.79c0,1.61,2.55,1.61,2.5,0Z"/><path class="cls-3" d="M337.4,663.92a208.22,208.22,0,0,1,62.39-96.7c1.21-1.06-.56-2.82-1.77-1.77a210.64,210.64,0,0,0-63,97.81,1.25,1.25,0,0,0,2.41.66Z"/><path class="cls-3" d="M336.91,734.22c7.12-25.29-3.48-53.45-25.43-67.85-1.35-.88-2.6,1.28-1.26,2.16,21,13.79,31.09,40.85,24.28,65a1.25,1.25,0,0,0,2.41.66Z"/><path class="cls-3" d="M370.24,741.65c-3.22-39.43,37.16-59.57,67.47-72.87,1.47-.64.2-2.8-1.26-2.16-31.1,13.65-72,34.68-68.7,75,.13,1.59,2.63,1.61,2.5,0Z"/><path class="cls-3" d="M444.31,618.7a141.41,141.41,0,0,0-40-57.66c-1.21-1-3,.71-1.77,1.77a138.88,138.88,0,0,1,39.36,56.56c.56,1.49,3,.85,2.41-.66Z"/><path class="cls-3" d="M488,621.13a173.94,173.94,0,0,1,23.49-94.25,1.25,1.25,0,0,0-2.16-1.26,176.42,176.42,0,0,0-23.83,95.51c.06,1.6,2.56,1.61,2.5,0Z"/><path class="cls-3" d="M536.12,717.95c5.79-27.38-22.26-42.52-43-51.54-1.46-.63-2.74,1.52-1.26,2.16,19.56,8.49,47.41,22.61,41.89,48.72-.33,1.57,2.08,2.24,2.41.66Z"/><path class="cls-3" d="M585.53,719.13c2-17.66,3.9-36.59-3.3-53.39-6.91-16.12-21.61-26.54-35.91-35.68-1.36-.87-2.61,1.29-1.26,2.16,14.14,9,28.71,19.31,35.26,35.41,6.61,16.27,4.61,34.5,2.72,51.5-.18,1.6,2.32,1.58,2.5,0Z"/><path class="cls-3" d="M575.89,615.45a149.94,149.94,0,0,1,51.22-98.8c1.22-1.05-.55-2.81-1.77-1.77a152.46,152.46,0,0,0-51.95,100.56c-.15,1.6,2.35,1.59,2.5,0Z"/><path class="cls-3" d="M628.5,621.46c2.17-15.94,18-28.1,29.32-38.09a304.66,304.66,0,0,1,40.79-30.18c1.36-.85.11-3-1.26-2.16a308.32,308.32,0,0,0-42.63,31.76c-11.25,10-26.45,22.06-28.62,38-.21,1.57,2.19,2.25,2.41.66Z"/><path class="cls-3" d="M689.43,684.18A54.93,54.93,0,0,0,654.33,636c-1.5-.57-2.16,1.84-.66,2.41a52.34,52.34,0,0,1,33.26,45.81c.08,1.6,2.58,1.61,2.5,0Z"/><path class="cls-3" d="M650.93,717c-6.19-19,1-39.45,13.45-54.28s29.38-24.95,45.82-34.79a1.25,1.25,0,0,0-1.26-2.16c-17.76,10.62-36.26,21.69-49,38.46-11.41,15.08-17.47,35-11.47,53.43.5,1.52,2.91.87,2.41-.66Z"/><path class="cls-3" d="M773.63,695.27a166.11,166.11,0,0,0-22.1-93.49,1.25,1.25,0,0,0-2.16,1.26,163.69,163.69,0,0,1,21.76,92.23c-.1,1.61,2.4,1.6,2.5,0Z"/><path class="cls-3" d="M784.85,626.68a201,201,0,0,1,42.27-139.92c1-1.25-.77-3-1.77-1.77a203.53,203.53,0,0,0-43,141.69c.13,1.59,2.63,1.61,2.5,0Z"/><path class="cls-3" d="M807.35,587.36a67.15,67.15,0,0,1,15.86-56.29c1.07-1.2-.7-3-1.77-1.77A69.81,69.81,0,0,0,804.94,588c.28,1.58,2.69.91,2.41-.66Z"/><path class="cls-3" d="M841.37,602.73a68.57,68.57,0,0,1,37.27-45.5c1.45-.69.19-2.84-1.26-2.16a71,71,0,0,0-38.42,47c-.39,1.56,2,2.23,2.41.66Z"/><path class="cls-3" d="M885.7,671.4c-.72-31.64-29.49-49.95-54-64.07a1.25,1.25,0,0,0-1.26,2.16c23.62,13.64,52,31.26,52.71,61.91a1.25,1.25,0,0,0,2.5,0Z"/><path class="cls-3" d="M811,708.28c-1.17-25.17-1-56.42,23.22-71.36,1.37-.84.11-3-1.26-2.16-25.09,15.45-25.67,47.37-24.45,73.52.07,1.6,2.57,1.61,2.5,0Z"/><path class="cls-3" d="M33.44,646.7Q21.6,627.41,8,609.28c-1-1.27-3.12,0-2.16,1.26Q19.44,628.67,31.28,648c.84,1.37,3,.11,2.16-1.26Z"/><path class="cls-3" d="M860.95,757.92a38.36,38.36,0,0,1,35.65-46.6c1.6-.08,1.61-2.58,0-2.5a40.9,40.9,0,0,0-38.06,49.77c.34,1.57,2.75.91,2.41-.66Z"/><path class="cls-3" d="M180.6,802.43A147.52,147.52,0,0,0,145.38,731c-1.08-1.2-2.84.57-1.77,1.77a145.11,145.11,0,0,1,34.58,70.3c.29,1.58,2.7.91,2.41-.66Z"/><path class="cls-3" d="M179.34,801.06c3.15-25.43,26-40.32,46.71-51.42,1.42-.76.16-2.92-1.26-2.16-21.64,11.61-44.67,27.14-47.95,53.58-.2,1.59,2.3,1.58,2.5,0Z"/><path class="cls-3" d="M433.34,891.45c-11.07-28.14-24.48-59.64-55.21-70.69-1.52-.55-2.17,1.87-.66,2.41,29.77,10.7,42.77,41.74,53.46,68.94.58,1.48,3,.84,2.41-.66Z"/><path class="cls-3" d="M437.84,899.17a33.21,33.21,0,0,1,28.72-30.06c1.58-.19,1.6-2.69,0-2.5a35.78,35.78,0,0,0-31.22,32.56c-.12,1.6,2.38,1.6,2.5,0Z"/><path class="cls-3" d="M134.9,888a73.49,73.49,0,0,1,37.55-41.5c1.45-.69.18-2.85-1.26-2.16a76,76,0,0,0-38.7,43c-.54,1.52,1.87,2.17,2.41.66Z"/><path class="cls-3" d="M529.53,791.62c-1.66-13.19-15-22.49-28-19.22a1.25,1.25,0,0,0,.66,2.41C513.47,772,525.57,780,527,791.62c.2,1.57,2.7,1.59,2.5,0Z"/><path class="cls-3" d="M273.63,854.24c-4.8-23.15,7.24-47.7,28.35-58.24,1.44-.72.17-2.88-1.26-2.16-22.15,11.06-34.52,36.87-29.5,61.06.33,1.57,2.74.91,2.41-.66Z"/><path class="cls-3" d="M621.84,869.39a247.68,247.68,0,0,0-8.2-84,1.25,1.25,0,0,0-2.41.66,245.58,245.58,0,0,1,8.11,83.32c-.12,1.6,2.38,1.6,2.5,0Z"/><path class="cls-3" d="M655.71,802.78c-1.88-15.64-3.32-38.48,15.22-44.87,1.51-.52.86-2.94-.66-2.41-19.76,6.81-19.09,30.32-17.05,47.28.19,1.58,2.69,1.6,2.5,0Z"/><path class="cls-3" d="M731.85,854.68c2.44-27.12,4.2-58.21-14.93-80.14-1.06-1.21-2.82.56-1.77,1.77,18.62,21.35,16.57,52,14.2,78.38-.14,1.6,2.36,1.59,2.5,0Z"/><path class="cls-3" d="M756,797c-1.39-7.39-2.95-15.32-.82-22.73s8.8-14.05,17-12.79c1.57.24,2.25-2.16.66-2.41-7.75-1.2-14.64,3.29-18.26,10.05-4.68,8.76-2.72,19.27-1,28.54.3,1.58,2.71.91,2.41-.66Z"/><path class="cls-3" d="M829.37,852.83a90.09,90.09,0,0,0-18.21-47.44c-1-1.26-3.14,0-2.16,1.26a87.81,87.81,0,0,1,17.87,46.18c.13,1.59,2.63,1.61,2.5,0Z"/><path class="cls-3" d="M813.15,913.15c1.82-21,2-50.07-22.29-58.46-1.52-.53-2.18,1.89-.66,2.41,23,8,22.17,36.31,20.46,56-.14,1.6,2.36,1.59,2.5,0Z"/><path class="cls-3" d="M813.36,902.24a28.91,28.91,0,0,1,21.88-19.09c1.58-.32.91-2.73-.66-2.41a31.4,31.4,0,0,0-23.63,20.84c-.52,1.53,1.89,2.18,2.41.66Z"/><path class="cls-3" d="M58.66,802.36A30.59,30.59,0,0,0,27.27,778c-1.6.09-1.61,2.59,0,2.5a28.1,28.1,0,0,1,29,22.48c.31,1.58,2.72.91,2.41-.66Z"/><path class="cls-3" d="M621,359H302.12A159.45,159.45,0,0,1,621,359Z"/><path class="cls-4" d="M0,923.13V2.65c4.35-.19,7.64-.45,10.94-.46,17.26,0,34.53.13,51.79-.1C69.09,2,75.44,1,81.8.46c2-.17,4.21-.79,6-.24C99.79,3.78,112,2,124.09,2.08c50.44.22,100.88.05,151.31.1q316.83.27,633.66.58h12.25V15.7q0,136.5.05,273c0,15.86,1.1,31.71,1,47.57-.19,47.22-.83,94.44-1,141.67-.06,14.83,1.23,29.67,1.18,44.51q-.47,152.67-1.25,305.33c-.11,27.65,0,55.31,0,83,0,3.67,0,7.35,0,12.4H0ZM466.83,13.74c-14,0-27.57,1.11-40.9-.29C410.09,11.78,401.66,21.52,394.1,32,388.48,39.76,384.77,49,381,58c-7.74,18.55-11.54,38-8.31,58,2.19,13.58,5.83,26.93,8.89,40.36,2.81,12.34,3.16,25-1.09,36.68-5.46,15.06-10.89,30.24-20.11,43.81-7.63,11.24-17.55,16.23-30.52,14.82-11.21-1.22-20.06-6.7-25.25-17.27s-9.29-21.56-11.33-33.3a73.37,73.37,0,0,0-5-16.39c-6.9-16-19.73-24.86-36.29-28.84-14.76-3.55-26.75,4-35.87,13-7.89,7.77-15.53,89.49-15.55,98a187.08,187.08,0,0,0,2.69,32c1.29,7.59,2.43,15.41,2,23-1,18.33-2.13,36.72-4.76,54.87a162.88,162.88,0,0,1-9.62,35.73c-5.32,13.59-12.68,26.38-19,39.61-3.64,7.65-14,15.33-21.23,14.68-11.65-1-21.23-6.08-27.92-15.93-8-11.73-8.9-24.88-8.75-38.65.21-19.46-.89-38.94-1.39-58.42-.2-7.66-4-13.16-11-15.38-7.22-2.29-15.28.93-19.51,5.23A51.9,51.9,0,0,0,67,378.93c-.36,15.91.77,31.87,1.74,47.78.62,10.25,2.37,20.44,3.1,30.69a141.78,141.78,0,0,1-.13,20c-.69,9.64-1.17,19.4-3.17,28.81-1.71,8.06-4.3,16.38-8.51,23.37-7,11.66-16.47,21.32-30.61,24.69a31.8,31.8,0,0,0-5.58,2.33c-12.51,5.7-12.51,5.71-12.51,19.8,0,9.71,0,19.42,0,29.19,3.2.83,5.09,1.57,7,1.78,18.09,2,31,12.07,40.68,26.7,13.73,20.69,18.54,44.77,25.26,68.1C88.54,717.07,92.48,732,96.67,747c3.84,13.66,12.73,24.84,18.72,37.47,6.11,12.89,15.75,22.84,27.56,31,11.65,8,22.83,16.75,34.05,25.39,9.87,7.6,18.89,16.47,29.37,23,16.29,10.22,30.19,22,37.42,40.39a70.33,70.33,0,0,0,3.67,7h166.7c1.76-4.24,2.91-8.48,5.14-12,3.33-5.3,6.79-10.8,11.33-15,9.12-8.39,19.41-15.52,28.49-24,14.28-13.26,48.74-80.34,50.12-81.53,10.45-9.09,47.26-38.49,57.43-39.83,7.31-1,7.63-2,5-10.13-5.2.95-11.26.57-15.55,3.13-9,5.38-31.52,21.07-34.12,20.9-3.25-.22-4.07-3.52-4.69-6.81-1.63-8.58-2.49-17.72-6.23-25.38-6.77-13.85-15.46-26.77-23.24-40.14-1.58-2.71,6.4-10.44,10.07-14.95,5.84-7.19,11.37-14.56,18.1-21.05,7.66-7.4,14.53-15.63,21.64-23.59A56,56,0,0,0,543,613.6q10.2-16.06,20.22-32.24c4.74-7.66,9.47-15.34,13.85-23.21,1.42-2.55,2.56-6.4-1.28-7.71-1.6-.55-4.56,1.69-6.4,3.25-4.3,3.63-4,10-9,13.9-5.78,4.54-9.68,11.43-14.53,17.19s-9.76,11.06-14.51,16.69c-10.9,12.93-22.69,25.25-32.27,39.1-8.3,12-18,22.38-28.25,32.49-3.08,3-6.57,5.65-9.71,8.63-8,7.54-15.32,15.84-23.88,22.63-13.63,10.82-27.94,20.81-42.18,30.86-4.93,3.48-10.43,6.16-15.74,9.07-12.59,6.9-25,14.1-37.9,20.45-11.34,5.6-22.88,11.1-34.87,15a207.77,207.77,0,0,1-36.07,7.8c-6.07.83-12.71-.7-18.78-2.3-5.13-1.35-9.62-5.36-14.75-6.41-9.87-2-16.23-8.66-23.1-14.91-8.34-7.61-14.14-16.89-19.35-26.85a134.14,134.14,0,0,1-13.18-40.88,238.5,238.5,0,0,1-3.18-26c-.53-10.06-1.29-20.35.19-30.22,2.64-17.51,6.63-34.84,10.56-52.13a110.13,110.13,0,0,1,13.2-32.94c4.32-7.12,8.53-14.31,13.06-21.29,9.26-14.28,18.08-28.92,28.27-42.52,9.41-12.56,20.33-24,30.7-35.83,6.15-7,6.11-9.06-1.5-14.18-3-2-7.5-2.62-9.27-5.24-5.38-8-11.68-16.12-14.13-25.14-5.6-20.58-2.66-40.71,9.15-59,10.93-16.91,27.78-25.84,45.93-32.27a114,114,0,0,1,28.26-5.71c10.26-.86,20.87-1,31,.69,7.23,1.24,13.83,6.09,21.46,9.69,1.65-3,3.58-6.79,5.69-10.43,15.07-26,30-52,45.33-77.86,10.39-17.51,18.52-36.33,30.83-52.73,4.66-6.21,26.86-36.23,31.44-42.65,5.21-7.3,9-15.62,14.17-22.94,3.42-4.83,3.16-8.45-.54-12.44-18.74,1.57-33.38-6-45-19.94-7.44-8.91-10.29-19.81-13-30.9C451.88,46.15,462.3,20.41,466.83,13.74ZM869.63,911c-3.51-11-6-21.81-10.39-31.82-10.49-23.88-29.83-39.35-52-51.77-7-3.93-14.64-7.05-20.89-11.95-8.59-6.73-19.16-12.16-22.08-24.1a153.26,153.26,0,0,1-2.54-15.88c-2.3-17,4.13-30.89,17.88-40.11,7.59-5.09,16.29-9,27.32-5a94.82,94.82,0,0,1,22.76,12.15c5.75,4.08,12.75,7,18.81,3.19,6.36-4,11.37-10.25,16.47-16a9.07,9.07,0,0,0,1.54-7.21A162,162,0,0,0,841.44,669c-10.67-15-21.65-29.83-31.74-45.24-8.66-13.23-15.78-27.35-16.3-43.74-.27-8.42-1.08-17.84,5.18-23.9,9.66-9.35,24.63-17.28,39.84-9.51,6.6,3.37,13.87,4.85,21.17,3,8.66-16.34,10.34-21.31,7.63-31.8-1.83-7.07-4.15-14.57-8.35-20.36-10-13.78-21-26.88-32.08-39.84-8.29-9.69-17.16-18.92-26.12-28-12.25-12.44-25.2-24.22-37.15-36.93-10.54-11.21-20.38-23-24.35-38.67-1.93-7.66-1.21-14.45,1.09-21.71,2.64-8.31,8.47-14.24,15.2-18.36,16.58-10.14,31.42-11.42,47.2,2.5a49.63,49.63,0,0,0,35.05,12.75c8.86-.21,15.22-5.84,15.44-14.8a35.9,35.9,0,0,0-3.2-15.53c-6.6-14.15-18.69-22.68-32.78-28.13-13.43-5.19-27.11-9.84-40.92-13.94-11.5-3.41-19.12-10.32-23.66-21.21-5.12-12.27-5.14-25.53,1.55-35.84a44.24,44.24,0,0,1,31.92-20.34c8.87-1.17,17.78-1.9,26.54-3.17,11.74-1.71,23.28-1.8,35-1.43,12.37.39,21.68-6.45,26.47-17.88,6.91-16.45,4-30.87-7.07-44.38C851.61,93.73,846.3,71.83,849.16,48c1.49-12.39,2-25.69,16.27-32.85-12.14-2.33-209.94-1.87-217.68.41a98.36,98.36,0,0,1,8.32,5.89c4.8,4.19,10,8.14,13.9,13.08,11.06,14.07,16.14,31,18.67,48.18,1.78,12.09,1.08,24.71.11,37-1.15,14.58-3.41,29.11-5.88,43.54-1.83,10.72-4.5,21.32-7.3,31.84-2.64,9.94-6.91,19.54-8.74,29.6-4.12,22.68-17,41-28.36,60.1-7.16,12-15.56,23.37-23.61,34.87-5.38,7.7-7.27,17.66-15.65,23.55-1.12.79.13,4.94.19,6,12.85,1.55,54.26,15.87,61.9,19.91A189.38,189.38,0,0,1,712.54,409c10.42,11.31,26,40.76,26.47,42.38,2.36,7.91,4.77,15.8,7.08,23.72,1.21,4.16,1.48,8.79,3.53,12.45,4,7.06,2.55,32.85,2.83,38.09.93,17-.38,33.83-2.55,50.68-.93,7.19-10.33,56.65-11.14,63.08a214.1,214.1,0,0,1-4.08,21.5c-2.23,9.71-6.31,18.77-8.76,28.43-3.39,13.36-9,26.17-13.67,39.36a4.14,4.14,0,0,1-1.67.57c-9.54-.83-34.58-12.37-38.09-12.09-7.83.63-15.61,1.84-23.46,2.82,1.43,8.6,1.4,8.84,7.38,9.63,4.23.56,8.57.29,12.86.5a117,117,0,0,1,32.57,6.56c7.35,2.53,8.65,4.85,6.72,12.12-2.82,10.67-5.76,21.47-6.84,32.4-2.18,22.16,3.09,43.53,9.86,64.41C718.49,866.9,728,887.5,728.14,911ZM11.78,309.53l2.18.34c4.2-9.16,3.3-19,3-28.65-.38-13.25,4.81-24.63,12.44-34.55,7.78-10.11,16.92-19.24,26-28.28,6.51-6.5,12.83-6.92,19.16-3.38s10.71,8.2,12.57,15.09a132.37,132.37,0,0,1,3.24,14.83c1.18,7.87,5.87,12.62,12.8,15.68,8,3.51,20.88,2.18,24.08-3.65,5-9.09,9.94-18.52,12.83-28.41,3.79-13,4.71-26.55,4.11-40.17-.18-4,.44-8.08.8-12.12,1.14-12.73,2.61-25.43,3.42-38.18,1.27-19.9,9-37,24.07-49.61,14.59-12.24,31.11-20.66,51.24-21.77,20.42-1.12,35.33,5.77,45.16,23.51,2.77,5,4.64,10.49,7.4,15.49,4,7.34,8.26,14.61,12.9,21.58a15.78,15.78,0,0,0,15,7c5.3-.5,10.46-2.56,15.67-4,4.24-1.15,6.19-4,5.63-8.31-.9-7-1.33-14.16-3.09-21A111.61,111.61,0,0,0,298.15,55c-9.86-11.27-10.6-22.51-3.2-35.07A35.37,35.37,0,0,0,297,14.66a12.14,12.14,0,0,0-2.56-.74q-52.79-.1-105.59-.08a15.23,15.23,0,0,0-6.76,1.6c-9.26,4.81-18.4,9.84-27.54,14.86-13.29,7.31-26.48,14.8-39.83,22C97.6,61.54,80.09,70.24,65.19,83c-16.61,14.23-35.24,26.48-46.4,46.21a4.48,4.48,0,0,1-1.42,1.44c-5.45,3.6-6.22,8.8-6.19,14.94.19,51.41.1,102.82.13,154.22C11.31,303.06,11.61,306.29,11.78,309.53Zm89.43,601.35h68.64c-6.19-5.18-10.88-8.82-15.24-12.81-10.37-9.49-20.82-18.92-30.77-28.84A187.92,187.92,0,0,1,106,848.73,246.47,246.47,0,0,1,90.7,825.06C83,811.76,74,798.82,68.55,784.6c-8-20.85-21.57-37.16-37.06-52.28a46.44,46.44,0,0,0-20.13-11.76c1.7,16.16-3.54,30.85,7.28,45.91,15.14,21.07,24.29,45.91,32.78,70.41,6.85,19.78,16.24,37.46,30.45,52.71C88.45,896.66,94.86,903.88,101.21,910.89ZM403.62,375.7c5.44,9.37,7.51,18.77,3.65,28.61-4.7,12-7.44,24.92-16.93,34.66-1.75,1.8-5.54,12.62-7.22,14.88-4.18,5.63-57.07,57-63.81,69.07-7.74,13.85-16.73,27-24.54,40.81-3.91,6.91-6.37,14.64-9.52,22-1.42,3.3-3,6.53-4.35,9.86-2,4.94-3.09,10.45-5.94,14.81A57,57,0,0,0,265.12,641l12,7.28c3.51-11.24,5.77-21.48,9.86-30.93,6.58-15.19,14-30,21.73-44.7,7.33-13.91,14.67-27.94,23.49-40.91,9.39-13.81,22.76-24.36,32.64-38.19,8-11.16,19.85-19.8,30.84-28.49,22.06-17.44,45.06-33.7,67-51.3,17.14-13.75,36.78-22.9,55.92-33,4-2.1,9-2.5,13.6-3s9.24-.11,14.7-.11l2.21-21.14c-4.62.62-8.55.26-11.57,1.74-7.86,3.86-16.83,4.25-24.26,10.18-6.48,5.17-15.38,7.23-23.06,11-18.07,8.86-36,18-54.11,26.79-3.94,1.9-8.49,2.54-14.29,4.19,11.75-16.31,8.45-39.62-5.59-48.91ZM909.71,737.29l-2-1.34c-2.75,3.57-5.6,7.08-8.24,10.73-4.08,5.62-16.15,16.61-17.15,17.4-2.5,2-25.54,20.63-33.47,22.41-7,1.58-7.27,8.22-1,12.73,5.58,4,10.87,8.33,17.2,11.47,14.38,7.15,28.29,15.23,42.42,22.88.42.23,1.21-.24,2.24-.48ZM829.82,376a31.1,31.1,0,0,0,4.57,18.24c8.74,15,23.42,22.32,37.36,30.79,9.4,5.71,18.85,11.39,27.9,17.64,3.6,2.49,6.17,6.46,9.82,10.42V378.73c-2.25,1.78-3.51,2.76-4.75,3.76-11.45,9.29-24.33,9.69-36.77,1.66-8.26-5.34-17.87-7.21-27.38-8.87C837.42,374.72,834,375.64,829.82,376Zm79.82-157.46c-12.33-3.12-38.7-5.6-49.56-3.2-6,1.33-11.78,4.89-16.9,8.51-3.05,2.16-3.54,6.59-.72,10a30.85,30.85,0,0,0,6.62,6.16c10.38,6.83,21,13.25,31.35,20.19a188.9,188.9,0,0,1,15.81,12.4c4.41,3.71,8.53,7.75,13.41,12.22ZM856.32,587.21c2.38,7.09,36.69,49.88,52.25,66.15,2.55-10.63,2.13-86.82-.49-93.26C894.39,574.8,875.52,580,856.32,587.21ZM62.94,14.49H11.55c-.36,13.3-.47,25.83.07,39.81ZM655.48,801.07c-1.58-5.6-2.47-9.89-4-13.91-1.68-4.36-5.49-5.78-9.88-5.1-4.12.64-7.7,2.29-9.14,6.79-2.36,7.38,3.72,20.07,11.1,22.49,1.34.44,3.72.09,4.59-.85C650.95,807.44,653.28,804,655.48,801.07ZM38.9,911.16l.58-2.35c-10.75-5.2-16.8-16.28-27.64-22.84v25.59c7.17,0,13.83,0,20.49,0C34.52,911.53,36.71,911.29,38.9,911.16ZM544.13,795.64c3.58,5,8.15,5.23,14.07,1.2,6.17-4.19,8.38-9.65,5.51-14.35-1.79-2.92-3.95-4.64-8.2-4.12C548.89,779.18,542.59,793.5,544.13,795.64Z"/></g></g></svg>