<svg xmlns="http://www.w3.org/2000/svg" viewBox="0 0 923.13 924.94"><defs><style>.cls-1{fill:#ce242b;}.cls-2,.cls-4{fill:#fed6af;}.cls-2{opacity:0.41;}.cls-3,.cls-6{font-size:122px;}.cls-3,.cls-5{fill:#fff;font-family:Georgia, Georgia;}.cls-5{font-size:60px;}.cls-7{font-size:80px;}</style></defs><title>pinecone</title><g id="Layer_2" data-name="Layer 2"><g id="Layer_9" data-name="Layer 9"><rect class="cls-1" y="1.81" width="923.13" height="923.13"/><path class="cls-2" d="M.75,0V41l0,.31c.34,3.52,1.09,7.43,0,10.59,0,0,0,0,0,0V311.61c.07,3.1.11,6.2.08,9.3,0,1.49,0,3-.08,4.46V547.3c-1.2,1.33-.77,2.78,0,4.3v371H923.13V753.39c-.11-1.73-.18-3.45-.23-5.18-.11-3.76,0-7.53.23-11.3V0ZM884.49,26.75a96.7,96.7,0,0,1,3.73-10.51c.56-1.51,1.16-3,1.76-4.47h20.69V36.4a14.9,14.9,0,0,1-6.91,2.73c-1.89.29-3.8.54-5.65,1C889.35,42.37,882.3,35.56,884.49,26.75ZM751.6,251.53a65.13,65.13,0,0,1,7.27-11.19c2.42-2.82,5.88-4.7,8.68-7.21,10.17-9.15,20.25-18.52,25.78-31.39,2.08-4.85,2.94-10.32,3.76-15.6s-1.13-10.06-3.95-14.88c-5.37-9.15-10-18.79-14.43-28.44-1.34-2.9-1.42-6.52-1.5-9.83-.25-10.42.25-20.9-.48-31.28-.5-7.12-2.91-14.09-3.86-21.19-1.87-14-3.84-28.29-.52-42.21,2-8.38,6.09-16.32,9.89-24.15A7.76,7.76,0,0,1,784,11.76c2.25-2,5.56-2.53,8.9-2,2.62.44,5.17,1.32,7.53,2,.31,2.49,1.08,4.88.79,7.14-.47,3.73-.7,8-2.64,11-7.06,10.85-6.94,22.76-5.69,34.69C794,74.88,796.28,85.07,798,95.34c.37,2.27.27,4.61.62,6.89.61,4,1.56,7.92,2.06,11.91a65.73,65.73,0,0,1,.48,9.79c-.07,2.93-1.08,5.91-.75,8.76.17,1.44,2.29,3.64,3.7,3.78,6.53.66,9.83-.93,10.5-8.41,1.18-13,6.8-23.91,13.25-34.65,1.94-3.23,4.56-6.06,6.91-9,2.61-3.28,2.15-7.11,1.65-10.75a57.49,57.49,0,0,0-2.77-11.1c-1.39-4-.16-7.61,1.27-11.13,3.21-7.93,8.06-14.2,16.57-17.34,3-1.1,5.3-4.14,7.92-6.29l.64.56c-.57,2.73-.81,5.59-1.76,8.19-2.69,7.42-1.66,14.88-1,22.44.32,3.55-.76,7.24-1.35,10.84-.51,3.09-1.34,6.13-1.77,9.23a3,3,0,0,0,1.27,2.5,47.12,47.12,0,0,0,6.5,1.69c2.83.64,4.06-1.07,5.2-3.33,3.42-6.8,9.52-10.39,16.43-12.38,4-1.15,8.35-1.23,12.56-1.43,3.87-.18,7.8.25,10.49-4.6.51,5.09.81,9.08,1.37,13a36.83,36.83,0,0,0,1.51,4.68c.38,1.33.92,2.7,1.2,4a7.11,7.11,0,0,1,.16,1.9c0,.66-.1,1.33-.16,2a116.09,116.09,0,0,1-1.74,12.12,12.06,12.06,0,0,1-2.76,5.83c-3.59,3.76-5.51,8.25-7.41,13-3,7.62-6.65,15-10.2,22.41-4.4,9.14-9.38,18-13.33,27.35a107.5,107.5,0,0,0-6.51,21.28c-2.27,11.7-3.37,23.63-5.41,35.38-2.83,16.34-6.85,32.28-14.41,47.31-5.5,10.95-9.36,22.72-14,34.09-6,14.75-12,29.53-18.23,44.19-4.1,9.67-8.62,19.16-12.93,28.74a22.35,22.35,0,0,0-.71,2.8c5.9-4.06,11.18-7.32,16-11.13,5.5-4.32,11.18-8.64,15.8-13.85a227,227,0,0,0,18.27-23.59c6-8.86,11.13-18.31,16.69-27.48,4.26-7,8.88-13.9,12.84-21.12,5.09-9.26,9.64-18.81,14.46-28.22,3.78-7.36,7.61-14.69,11.93-23,.57,6.08,1.23,11.48,1.63,16.73.13,1.63.23,3.23.3,4.85.29,7,0,14-.07,21.05a3.24,3.24,0,0,1-.16,1.53l-.07.11c-2.89,4.52-5.95,9-8.71,13.57a51.15,51.15,0,0,0-3.18,7.35c-.69,1.74-1.11,3.58-1.84,5.3-2.94,6.9-5.71,13.92-9.08,20.61-1.73,3.43-4.61,6.29-7,9.4a6.19,6.19,0,0,0-1.15,1.53c-1.94,6.06-7.24,9.84-10.19,15.23a65.6,65.6,0,0,1-6.25,9.92c-4.09,5-8.7,9.61-12.93,14.53-2.39,2.76-4.34,5.9-6.7,8.68-3.22,3.79-6.1,8.25-10.13,10.87-5.8,3.78-12.37,6.49-18.84,9.05-6.12,2.42-12.44.86-18.76-.09a156.16,156.16,0,0,0-22.18-1.54c-3.55,0-7.11,1.47-10.67,2.28l-.72-.89c3.27-4.58,6.58-9.11,9.78-13.74,4.52-6.54,10.3-12.25,11.52-20.85.62-4.31,3.37-8.29,4.71-12.55,3.35-10.69,5.38-21.62,3.94-32.86-1-7.69-6.48-12.58-12-17.2-6.09-5.08-12-9.8-16-17.34-5.45-10.36-8.62-21.5-13.18-32.13A6.68,6.68,0,0,1,751.6,251.53ZM13.2,11.76h716c-2.4,6-4.62,11.48-6.71,17a80.22,80.22,0,0,0-2.18,7.74c-2.88,10.92-3.25,22.08-2.52,33.23.26,4.06,2,8,3.24,12,1.93,6.21,3.79,12.47,6.12,18.53.88,2.27,3.14,4,4.55,6.06,2.81,4.22,5.37,8.62,8.23,12.79,4.75,6.92,6.24,14.89,7.21,22.93.51,4.23,0,8.64-.37,12.94-.43,5.24-.56,10.61-1.88,15.64-2.51,9.57-5.65,19-8.8,28.36a19.83,19.83,0,0,1-4,6.31c-4.35,5-8.88,9.9-13.38,14.81a7.32,7.32,0,0,1-2.11,1.63,39.53,39.53,0,0,0-17,15.39c-2.85,4.59-6.61,8.58-9.83,12.93-4.79,6.52-4.44,14-4.27,21.63.21,10.72,8.29,16.39,13.59,23.91,3,4.22,5.53,8.74,8.55,12.93,2.81,3.9,6.25,7.35,8.91,11.34,4.12,6.16,8.52,12.3,8.77,20.21.35,10.82-2.05,21.11-5.17,31.41a116.44,116.44,0,0,1-11.83,26.75c-3.45,5.7-7.21,11.21-10.76,16.85-.92,1.46-1.6,3.09-2.44,4.73-3.28-7.51-6.42-14.82-9.64-22.08-3.73-8.43-7.58-16.81-11.26-25.25-2.28-5.23-3.92-10.78-6.6-15.77-5.61-10.45-11.68-20.67-17.66-30.92-7.2-12.35-14.52-24.61-21.73-36.94-3.16-5.41-6.19-10.89-9-15.81,8.13-2.32,16.2-3.43,23.11-6.9,8.27-4.15,14.39-11.16,15.26-21.27,1-11.48,1.12-23.08-3.54-33.74a243.56,243.56,0,0,0-15.36-28.67,204.17,204.17,0,0,0-15.24-21.15c-2.59-3.23-6.15-5.75-9.49-8.31-9.4-7.2-18.53-14.89-28.51-21.2a135,135,0,0,0-33.28-15.11,116.39,116.39,0,0,0-43.59-4.7c-4.43.38-8.69,2.42-13.06,3.57-2.19.57-4.73.37-6.65,1.38a55.58,55.58,0,0,0-11.13,7.2c-4.93,4.38-10,8.94-13.72,14.31-3.85,5.56-6.15,12.19-9.19,18.33-1.3,2.64-3,5.11-4.06,7.84-3.72,9.75-6.72,19.8-4.2,30.26a93.85,93.85,0,0,0,6.68,17.55c5.37,11.51,10.56,23.15,16.85,34.14,11,19.15,23,37.68,34,56.82,7.9,13.79,14.79,28.15,22.09,42.28,3.28,6.34,6.83,12.59,9.58,19.16,3.49,8.37,6.26,17,9.4,25.55q8.19,22.26,16.46,44.49,3.61,9.71,7.2,19.42c1.52,4.15-3.34,9.36-7.78,9.29-5.46-14.41-10.51-28.64-16.23-42.57s-11.94-27.88-18.44-41.58c-5.79-12.21-12.09-24.18-18.49-36.08-5.43-10.13-11.46-19.93-16.94-30-4.62-8.52-8.64-17.36-13.25-25.88-10.61-19.63-21.54-39.08-32.1-58.73-4.18-7.8-7.44-16.09-11.63-23.89-2-3.64-21.82-39-51.47-51.3-35.42-14.73-97.75-7.13-129,8.44-35.41,17.65-28.25,21.65-56.86,42.39-19.22,13.94-15.36,5.69-35.2,15.75-2.35,1.19-30.84,10.38-33.73,11.5-6.89,2.69-27.13,13.68-27.75,13.8-6.19,1.28-39.63,12.49-48.92,13.8-3,.42-32.1,6.09-34.5,5.37,0-4.28,1.7-104.59,1.8-109.73,0-.81,50.35,6,54.35-14,3.79-18.94,67.11-63.39,89.83-75.86,42.5-23.32,83-47.6,84.67-56.09C249.37-1.94,205.1,6.51,205.1,5.5c0-5.65-79.19,3-89.17,34.28C101.8,84,18.64,101.84,18.55,97.34c-.1-5.24-.83-10.47-1.36-15.69-.67-6.74,86.92-63.17,86.1-69.89C102.7,6.89,13.2,11.76,13.2,11.76ZM246,564.9a30.33,30.33,0,0,1-2.88-1.91c-4.9-3.73-9.79-7.47-15.24-11.65,5.87-.85,11.87-1.79,17.89-2.5.9-.11,2.57.61,2.77,1.28A61.49,61.49,0,0,1,251.44,562C251.77,565.51,249.11,566.7,246,564.9Zm6.66,43.2c3.81,2.51,7.44,5.3,11.38,7.58,5,2.9,5.42,8.07,6.88,12.76,1.28,4.09,2.45,8.22,3.92,13.19-7.84-2.93-14.65-5.92-21.74-8-5-1.45-10.31-1.73-15.5-2.29-4.17-.46-8.48-1.23-12.56-.69-5.36.72-10.5,3.12-15.86,3.83-7.22,1-12,6.42-18.32,8.93-10.52,4.16-20.59,9.56-31.25,13.29s-21.86,5.44-33.27,1.34S105,648.09,95,641.49c-12.06-8-21.67-19.2-34.54-26.1a17.31,17.31,0,0,1-5.07-4.64c-4.16-5.28-10.11-7.55-16-10-6.81-2.83-13.76-5.38-20.56-8.26a4.26,4.26,0,0,1-2.22-3c-.22-5.47-.1-11-.1-16.88,4.39-.49,8.89-1.09,13.41-1.48,5.08-.44,10.16-.78,15.25-1a10,10,0,0,1,4.68.87c7.49,3.72,15.64,6.17,22,12,5.09,4.67,10.2,9.44,15.94,13.2a199.89,199.89,0,0,0,26.24,15.06c12.17,5.56,25.09,3.32,37.77,1.28a50.85,50.85,0,0,1,6.76-1.13c9-.2,16.5-5,24.61-8,3.18-1.16,6.63-1.59,10-2.25,3.73-.74,7.73-.77,11.18-2.19,5.82-2.41,11.57-2.06,17.25-.59,9.5,2.47,18.85,5.52,28.26,8.36A10.43,10.43,0,0,1,252.7,608.1Zm-25.06-98c-8.67-.3-17.34-.5-26-.9-16.17-.75-30.16,5.2-43.45,13.73-5.48,3.53-11.11,7.14-17.16,9.41-6.54,2.45-13.58,3.66-20.51,4.87-8.51,1.5-17.13,3.4-25.69,3.32s-17.12-2.24-25.63-3.8c-9.6-1.77-19.15-3.89-28.72-5.87-1.11-.23-2.21-.52-3.32-.74-3.86-.78-7.72-1.53-11.56-2.3L14,525.52V472.38c5.45-4,10.78-3.61,16.45-2.76,10.82,1.62,21.74,2.63,32.59,4.07,3.76.5,7.41,1.71,11.15,2.34,5.9,1,11.83,1.8,17.75,2.63a37,37,0,0,0,4.22.26c12,.32,24,.16,36,1.08,9.61.75,19.13,2.84,28.69,4.26,3,.44,6.1.5,9.11,1,11.45,2,22.87,3.9,34.58,2.93,1.72-.14,3.61,1.1,5.25.77,4.59-.92,9.08-2.33,13.91-3.61,2.27,6,4.87,12.92,7.48,19.83C232.92,509.85,232.64,510.23,227.64,510.06ZM84,330.85c3.68-2,7.85-3.06,11.82-4.54,3.69,1.28,7,1.84,9.57,3.58,1.45,1,2.52,4.23,2,5.95s-3,3.08-4.93,4a120.89,120.89,0,0,1-11.23,4.56c-3.35,1.21-9.87-1.66-11.35-4.82C78.84,337.43,80.59,332.66,84,330.85ZM34.27,874c-3.42,3.21-7.29,5.59-12.39,5A5.4,5.4,0,0,0,18,880.08a7,7,0,0,1-4.77,2.15v-34c.32.2.65.4,1,.61,4.25,2.82,7.77,6.78,12.08,9.48,4.54,2.84,6.88,7.1,9.11,11.52C35.85,870.87,35.19,873.16,34.27,874ZM307,776.66c-4.65,1.2-9.21,2.48-13,5.86s-8.16,5.83-11.88,9.17a39.28,39.28,0,0,0-6.83,8.41c-3.23,5.21-6.7,10.38-7.3,16.79-.17,1.78-.79,3.52-.84,5.29-.21,7.41-.45,14.84-.36,22.25.09,8.7,3.34,16.47,8,23.61,2.71,4.13,6,7.88,9,11.83.67.88,1.18,1.89,2.07,3.36-11.28,1.93-22,3.92-32.86,5.56a107.65,107.65,0,0,0-29.43,9.08c-4.32,2-7.45,6.46-11.41,9.41a21.21,21.21,0,0,1-6.08,3.46,7.17,7.17,0,0,1-1.75.31c-9.82.45-19.66.18-29.49.18-7.15,0-14.3.08-21.44-.06a52.83,52.83,0,0,1-6.42-.43c-1-.14-2.06-.32-3.08-.55a7.32,7.32,0,0,1-3.78-3.09c-4.1-6.17-8.42-11.76-16.23-13.77-4-1-7.54-3.51-11.3-5.34C104,883.81,95.34,879.85,87,875.3c-2-1.08-3.27-3.94-4.34-6.24-2.39-5.18-4.18-10.64-6.67-15.75-3.39-7-7.08-13.81-10.88-20.56-5-8.93-11.39-16.68-20-22.48-3.43-2.33-6.48-5.22-9.91-7.53-1.62-1.09-3.8-1.31-5.61-2.18-5.49-2.61-10.92-5.36-16.41-8V663.13c5.2-.58,9.67-.15,14,4.18,3.91,3.93,9.65,6,14.17,9.36,5.08,3.83,9.58,8.4,14.54,12.39,5.76,4.64,11.53,9.37,19,11.06,7.24,1.64,14.47,3.41,21.78,4.61,4,.65,8.15.26,12.23.26,7.83,0,15.68.32,23.47-.15,10.44-.63,20.83-1.92,31.25-2.88,13-1.2,24.15-7.78,36.1-12.08,7.45-2.69,15.55-3.62,23.39-5.21,7.16-1.44,14.28-.52,21.32.9,2.23.45,4.32,1.55,6.51,2.23a121.58,121.58,0,0,1,29.46,13.44c7.53,4.78,14.79,10,22.48,14.53,3.85,2.26,7.31,6.27,12.8,4.44,6.45,16.53,12.78,32.77,19.28,49.4C325.81,771.91,316.37,774.22,307,776.66Zm216.35,95.12a8.14,8.14,0,0,1-1.8,2c-3.47,2.94-7.15,5.68-10.45,8.81-5.38,5.1-12.44,5.73-19,6.86-7,1.2-6.93.5-8.2-6.66a7.76,7.76,0,0,0-3-4.49c-1.85-1.29-4.23-1.82-7.09-2.94,3.33-3,6.36-5.36,8.82-8.17a102.4,102.4,0,0,0,8.26-10.91,112.74,112.74,0,0,0,16.06-39c2.16-10,2-20.76,1.58-31.11-.39-9.66-2.08-19.34-3.94-28.87-3.13-16-6.69-32-10.38-47.93-1.61-7-4-13.73-6-20.6-1.45-5-2.65-10.1-4.29-15.06-3.22-9.65-6.77-19.19-10-28.84-2.91-8.72-5.28-17.62-8.43-26.25-2.59-7.11-6-13.92-9-20.91-1.6-3.81-2.79-7.82-4.49-11.59-5.33-11.84-11.45-23.27-22.71-30.53-9.74-6.28-19.93-11.86-29.85-17.86-6.55-4-13-8.1-19.46-12.17-9.68-6.09-19.33-12.23-29-18.3-7.77-4.87-15.52-9.78-23.4-14.48s-16-9.15-24-13.73c-3-1.72-6.08-3.27-8.9-5.23-6.27-4.35-12.49-8.81-18.57-13.43-5.24-4-10.07-8.52-15.42-12.32-3.53-2.51-7.62-4.23-11.52-6.19-3.6-1.82-7.3-3.45-10.93-5.2-8-3.82-16.17-4-24.71-2.24-4.46.91-9.13.81-13.56,1.16-2.45-5.75-4.71-11.1-7-16.37,10.85-2.86,21.15-2.62,31.28,2,2.79,1.28,6.33.85,9.34,1.79a135.58,135.58,0,0,1,41.7,21.77c11,8.3,22.68,15.8,33.51,24.36,8,6.35,17.53,9.59,26.19,14.55,8.9,5.11,17.52,10.72,26.42,15.82,5.39,3.1,11.1,5.64,16.62,8.49s11.16,6.19,16.94,8.86c12.11,5.62,24.37,10.94,36.55,16.4,10.7,4.8,21.46,9.45,32,14.52,4.8,2.3,9.11,5.62,13.81,8.14,7.17,3.85,14.36,7.69,21.77,11,10,4.5,20,9.21,30.42,12.53,7.32,2.33,15.34,2.44,23,3.66,6.79,1.08,13.56,2.33,20.35,3.5a11.84,11.84,0,0,0,2.26.38c14.3-.18,28.6-.14,42.89-.74,4.42-.18,8.75-2.17,13.15-3.24,1.59-.39,3.33-.3,4.88-.8,5.07-1.64,10.08-3.45,15.13-5.16a5.21,5.21,0,0,1,3.49,0c-2.64,3.83-5.53,7.52-7.86,11.54a166.45,166.45,0,0,0-9.07,17.64c-.79,1.86.12,4.75.88,6.93,2.64,7.55,7.8,13.42,13.65,18.58s7.68,12,9.14,19.33c1.88,9.46,6.13,17.67,15,22.85,4,2.35,7.25,6.15,11.38,8.18a13.15,13.15,0,0,0,11.94.2c4.34-2,9.37-3.61,14.07-3.56,3,0,6.07,3.29,9,5.32.36.26,0,2-.44,2.85-3.84,8.15-10.28,13.24-18.43,16.89-4.78,2.14-9.08,5.5-13.3,8.68a51.64,51.64,0,0,0-6.89,7,29.39,29.39,0,0,0-7.91,22.37c.26,5-1.14,10.18-2.71,15-.76,2.32-3.49,4.14-5.64,5.78-2.48,1.88-5.35,3.23-8,4.94-1.46,1-2.69,2.27-4.12,3.29-5.35,3.82-10.74,7.58-16.09,11.39a3,3,0,0,0-1.14,1.52c-1,3.85-4.2,5.83-6.88,8.25s-5.47,5-8.32,7.34a8.18,8.18,0,0,1-3,1.25c-1.95.54-4.19.52-5.86,1.51-4.47,2.67-9.14,2-14,2-7.08.05-14.15,1.13-21.23,1.83a28.62,28.62,0,0,1-3.36.63c-7.77-.18-12.81,4.59-17.26,9.94a175.84,175.84,0,0,0-11.82,16.12c-4.47,6.81-8.56,13.86-12.7,20.87C530.19,859.63,526.81,865.73,523.32,871.77Zm387.35,39h-3.48c-8.63.72-17.29,1.28-26.06,1.91v3.13h-4.48l2.75-2.15-.18-.88c-6.87,0-13.74.07-20.61,0q-27.58-.33-55.16-.8a13.41,13.41,0,0,1-5.53-1.19,15.47,15.47,0,0,1-4-2.71c-5.91-5.44-11.17-11.17-14.74-18.41-.4-.8-1.5-1.28-2.34-1.84s-2.16-.81-2.59-1.59c-3.17-5.82-9.37-8.13-14.05-12.15-3.8-3.28-8.51-5.51-12.81-8.2a69,69,0,0,0-7.78-4.74,7.14,7.14,0,0,0-5.15-.19c-1.06.44-2,2.5-2,3.86-.21,7.44.37,14.94-.29,22.32-.49,5.49-2.46,10.85-3.72,16.26-.56,2.44-1.06,4.88-1.58,7.36h-60.8c2.35-1.9,4.11-4.59,6-7.23,1.16-1.66,3.33-2.59,5.07-3.81.89-.64,1.93-1.1,2.78-1.79,3.85-3.06,7.86-5.93,11.4-9.3,4.13-3.94,7.91-8.27,11.72-12.54,4.79-5.37,9.32-11,14.23-16.24,6-6.39,12.14-12.65,18.5-18.68a20.68,20.68,0,0,1,7.55-4.4c12.78-4.22,25.71-6.73,39-1.85a22.49,22.49,0,0,0,6.79.91c5.26.2,9.78,2.27,14.44,4.56,2.79,1.36,6.49.61,8.92,3.52,2.61,3.1,5.93,5.67,8.15,9,2.08,3.11,3,7,4.7,10.39a4.82,4.82,0,0,0,3.15,2.26c7.09,1,14.19,1.91,21.32,2.48,1.85.14,3.78-1.12,5.71-1.63A70.6,70.6,0,0,1,875.32,864a82.16,82.16,0,0,0,17.17-1.37c4.93-.88,8.36-4.45,11.43-8.44,1.78-2.32,4.36-4.05,6.74-5.84ZM839.26,796.48c3.24-8.86,10.25-13.28,18.2-16.89,2.77-1.25,5.34-3,8.14-4.17,1.39-.59,3.65-1.16,4.59-.48a165.49,165.49,0,0,1,15.09,12.2c1,.94.78,3.79.4,5.61-1.82,8.51-8.56,13.1-14.9,17.81-1.7,1.26-4.3,1.29-6.37,1.86-7.81-2.59-15.64-4.45-22.76-7.81C837.46,802.64,837.56,801.13,839.26,796.48Zm71.84-331.2a9.34,9.34,0,0,1-.44,7.27c-1.64,3.12-5.16,5-8.38,6.75-5.58,3-11.88,4.59-17.92,6.63a9.72,9.72,0,0,1-4.17.08c-5.7-.68-11.36-1.87-17.07-2.1a175,175,0,0,0-18.77.57c-7.89.52-15.53,2.3-23.21,4.26-10.16,2.59-18.85,8-27.85,12.84-9.9,5.38-20,10.55-29.47,16.55a21.16,21.16,0,0,0-8,9.86c-5.42,14.61-7.47,30.06-9,45.48-1.17,11.6,5.29,20.18,13,27.81,1.53,1.52,3.93,2.29,6.05,3.05,3.36,1.19,6.91,1.88,10.23,3.17a20.49,20.49,0,0,1,11.13,9.94c4.13,7.8,10.43,13.52,19.43,14.89,8.79,1.34,19,0,23.61-8.54,4.1-7.55,4.26-15.6,1.86-23.42-1-3.18-4.71-5.47-7-8.28-4.5-5.41-8.88-10.9-13.31-16.34-.24-.3-.41-.66-.64-1-5.59-7.48-4.66-13.06,3.15-18.91,1.89-1.41,3.55-3.21,5.59-4.35,6-3.34,12.14-3.82,19.07-2.65,11.39,1.92,23,2.29,34-2.68a28.79,28.79,0,0,0,8.24-5.34c4.9-4.85,10.52-5.61,16.93-4.52,3.9.67,7.86.87,12.64,1.32l1,.09v20.78a7.61,7.61,0,0,0-1,0c-5.28.15-7.46,4.81-10.58,7.7-5.32,4.93-10,10.59-14.78,16.08-3.08,3.54-3.61,8-4.22,12.54-1,7.73-2.11,15.51-4.2,23-1.09,3.87-4.23,7.23-6.71,10.63-5.06,6.9-9.2,14.77-17,19.06-6.77,3.7-13.53,7.94-20.83,10.05-11,3.18-18.82,9.85-24.74,18.88-6.8,10.36-12.78,21.27-18.95,32-2.07,3.61-3.7,7.5-5.41,11.32a4.91,4.91,0,0,0,0,3.81c1.91-1.69,3.79-3.42,5.74-5.06,9.12-7.67,18.8-13.79,31.34-14.17,5.69-.17,11.3-2.09,17-2.69,9.63-1,19.13-2.4,29-1,8.59,1.22,17-.7,22.86-8.61a109.61,109.61,0,0,1,11-12.29c3.27-3.22,6.8-6.17,10.5-9.34v52.7a25.76,25.76,0,0,1-3.23,2.65c-8.36,6.11-17.9,8.3-27.8,10a56,56,0,0,1-21.2-.65c-2.81-.58-5.81-.24-8.69-.54-1.68-.18-3.29-.93-5-1.2-3.88-.64-8.28-.2-11.55-1.94-4.87-2.59-9.72-1.64-14.6-1.94-6.6-.41-12.09,1.51-16.67,6.69-8.07,9.15-18.76,14.58-29.62,19.58-7.16,3.29-15,5.4-21.62,9.47A143.62,143.62,0,0,0,729.33,782c-5.31,4.85-9.77,10.68-14.38,16.26-6,7.24-11.51,14.86-17.67,21.94-2,2.28-5.15,3.69-8,5-5.42,2.38-11.92,3.21-16.35,6.74-10.52,8.35-22.78,14.5-31.63,25a89.89,89.89,0,0,1-8.85,8.9c-.91.82-2.63.75-4,1.06-6.47,1.46-12.87,3.32-19.41,4.28a27.67,27.67,0,0,0-20.79,13.95c-2.11,3.51-4,7.19-6.38,10.49-1.86,2.56-4.48,4.54-6.52,7-1.35,1.6-2.07,3.76-3.47,5.31-.82.9-1.73,2-2.68,2.86a5.31,5.31,0,0,1-2.8,1.56,37.45,37.45,0,0,1-16.32-1.56,27.82,27.82,0,0,1-3-1.21c-1.54-2,1.31-5.43-3.34-6.59,4.41-5.95,8.46-11.77,12.87-17.3,5.87-7.33,12-14.48,18.05-21.64A34.57,34.57,0,0,1,589.2,853.8c7.38-2.85,14.75-3.51,22.46-3.87,3.6-.16,7.14-2.56,10.66-4.06,7.12-3,14.55-5.54,21.18-9.42,5.68-3.32,10.59-7.86,12.86-14.86,1.49-4.59,4.42-8.86,7.35-12.78a42.74,42.74,0,0,1,9.32-9.22c4.1-2.89,8.86-4.85,13.35-7.19.22-.12.58-.07.72-.23,6-7.22,15.91-8.57,22.55-14.82a16.11,16.11,0,0,0,2.92-4.61c4.39-8.72,11.34-14.51,20.09-18.54a32,32,0,0,0,9-6.18c4.69-4.65,9.48-9.4,13.09-14.88,4.11-6.24,7.45-13.11,7.37-21.06-.07-6.77-.07-13.55.2-20.31.22-5.39.71-10.78,1.41-16.11.78-6-2.73-10-5.93-14.27-4.12-5.48-8.05-11.09-12.26-16.48-3.44-4.41-7.19-8.58-10.79-12.86-4.93-5.87-9.71-11.89-14.85-17.57a47,47,0,0,1-7.52-10.26c-2.9-5.65-3-11.69-3.54-17.56a79.21,79.21,0,0,1,2.32-29c4.18-14.74,8.47-29.48,11.92-44.4,2.39-10.34,7.85-17.73,15.33-25.2,6.89-6.87,15.3-10.79,22.76-16.31,8.52-6.32,18.95-7.76,29.19-4.13,5.55,2,10.72,5.17,15.85,8.16,5.89,3.42,12.08,3,18.3,2,6.44-1.12,12.5-3.22,17.77-7.51,1.76-1.43,4.8-1.17,7.17-2,6.87-2.37,10-8.52,13.28-14.22,2.33-4,3.81-8.52,5.51-12.48,8.28,2.89,16.75,3.51,25,.66,8.52-2.94,12.3-11,17.43-18.59.07-.12.15-.23.23-.35a42,42,0,0,1,.79,5.8c-.14,11.44-.4,22.89-.61,34.33A6.44,6.44,0,0,0,911.1,465.28Z"/></g><g id="Layer_10" data-name="Layer 10"><text class="cls-3" transform="translate(47.53 374.9)">Conversations</text><path class="cls-4" d="M628.71,789.66c-16.59,4.13-34.38-2.32-47.85-12.85-24.3-19-36.58-49.25-45.89-78.64S517.88,638,499.28,613.39c45.65-4,94,12.9,122.79,48.54s34.33,90.14,8.54,128"/><path class="cls-4" d="M638.92,776.34c14.88,1.1,27.69-8.57,34.9-21,9-15.51,7.94-34.18,5.52-51.3-2.73-19.3-7.89-39.64-2.16-58.9,4.53-15.22,16.53-25.9,27.37-36.8,10.47-10.53,20.42-22,21.68-37.47.19-2.31-2.79-3.1-4.27-1.77a79.46,79.46,0,0,1-37.68,19c-14.18,2.8-28.88,1.42-43,4.83a52.06,52.06,0,0,0-39.6,50c0,3.22,5,3.22,5,0a47.08,47.08,0,0,1,13-32.14c9.7-10.2,22.52-13.87,36.19-15.05,12.93-1.12,25.91-1.09,38.4-5.05a85.35,85.35,0,0,0,31.21-18l-4.27-1.77c-1.12,13.72-10.5,24.12-19.76,33.47-9.1,9.19-19.17,18.13-25.2,29.77-17.34,33.46,5.63,70-1.54,104.74-3.48,16.83-17.16,33.84-35.81,32.47-3.21-.24-3.19,4.76,0,5Z"/><path class="cls-4" d="M527.28,680.6c-17.84-2.45-38.7-4.51-52.75,9.22-6.75,6.59-10.7,15.3-16.25,22.81A54.26,54.26,0,0,1,431,732a2.5,2.5,0,0,0,1.33,4.82c19.83-4.22,38.86,4.8,55.63,14.48s33.41,20.28,50.2,30.26c26.87,16,62.88,31.5,91.68,10.62,2.58-1.87.09-6.21-2.52-4.32-31.58,22.89-69.69-.34-97.76-17.33-16.36-9.9-32.49-20.65-49.57-29.27-15.27-7.71-31.85-12.92-49-9.27l1.33,4.82a60,60,0,0,0,23.07-13.45c6.83-6.46,11.15-14.67,16.38-22.35,5.84-8.58,13.34-14.38,23.67-16.36,10-1.92,20.47-.64,30.47.74,3.15.43,4.51-4.38,1.33-4.82Z"/><path class="cls-4" d="M512.37,646.4A79.09,79.09,0,0,0,471,653.14a2.51,2.51,0,0,0-.9,3.42,72.63,72.63,0,0,1,12.26,28.31c.63,3.15,5.45,1.82,4.82-1.33A76,76,0,0,0,474.41,654l-.9,3.42a74.29,74.29,0,0,1,38.86-6.06c3.19.35,3.17-4.66,0-5Z"/><path class="cls-4" d="M620.91,604.17a57.41,57.41,0,0,0-55-16.76,2.52,2.52,0,0,0-1.49,3.67,46.21,46.21,0,0,1,7,32.7c-.51,3.15,4.31,4.5,4.82,1.33a51.43,51.43,0,0,0-7.49-36.55l-1.49,3.67a52.33,52.33,0,0,1,50.14,15.48c2.19,2.37,5.72-1.17,3.54-3.54Z"/><path class="cls-1" d="M559,673.84c-4.37-19.53-27-21.2-42.95-24.81-3.13-.71-4.47,4.11-1.33,4.82,13.94,3.17,35.58,4,39.46,21.32.7,3.14,5.52,1.81,4.82-1.33Z"/><path class="cls-1" d="M573.47,663.08a72.57,72.57,0,0,1-4.73-52.42c.89-3.1-3.94-4.42-4.82-1.33a77.89,77.89,0,0,0,5.23,56.27c1.43,2.88,5.75.35,4.32-2.52Z"/><path class="cls-1" d="M566,710.11c-7.84-3.09-11.11-12-11.09-19.88,0-9.83,4.23-19.27,6.56-28.69L557.8,663c6.51,4.47,14.08,5.33,21.58,7.06,7.21,1.67,15.36,5.08,16.84,13.18.58,3.16,5.4,1.82,4.82-1.33-3.5-19.05-28.44-14.81-40.73-23.23a2.52,2.52,0,0,0-3.67,1.49c-2.79,11.3-8.07,22.79-6.4,34.67,1.24,8.82,5.93,16.7,14.42,20,3,1.18,4.29-3.65,1.33-4.82Z"/><path class="cls-1" d="M601.88,685.26a65.14,65.14,0,0,1,12.74-41c1.9-2.6-2.43-5.1-4.32-2.52a69.53,69.53,0,0,0-13.42,43.5c.1,3.21,5.1,3.22,5,0Z"/><path class="cls-1" d="M565.72,710.09c-11.93-9.74-24.66-37-44.21-25.22-2.75,1.66-.24,6,2.52,4.32,16.1-9.7,28.35,16.44,38.15,24.44,2.47,2,6-1.5,3.54-3.54Z"/><path class="cls-1" d="M563.81,754.59c-3.64-15.67,8.64-31,1.17-46.41l-3.93,3c5.88,5.44,13.57,6.37,21.27,6.69,8.32.35,18.24-.51,24.09,6.58,2.05,2.49,5.54-1.06,3.54-3.54a38.71,38.71,0,0,1-6.42-36.77l-3.67,1.49a40.23,40.23,0,0,0,17.41,6.86c6.71.92,20.2-.38,21,9.31.26,3.19,5.26,3.21,5,0-.59-7.28-6.49-11.73-13.36-13-4.64-.88-9.4-.65-14-1.55a35.93,35.93,0,0,1-13.48-5.89,2.53,2.53,0,0,0-3.67,1.49,43.78,43.78,0,0,0,7.71,41.64l3.54-3.54c-11.54-14-32.94-1.8-45.36-13.27a2.51,2.51,0,0,0-3.93,3c3.76,7.73,1.22,16.26-.56,24.18-1.58,7-2.76,13.94-1.11,21,.73,3.13,5.55,1.81,4.82-1.33Z"/><path class="cls-1" d="M606.36,769.72c-3.52-15.36,10.31-28.92,6.55-44.61l-3.67,2.82,20.7,8.85c5,2.12,15.52,4.9,15.1,11.72-.2,3.21,4.8,3.2,5,0,.41-6.62-5.23-10.58-10.64-13.06-9.1-4.18-18.43-7.9-27.63-11.83-2-.84-4.22.54-3.67,2.82,3.67,15.32-10.14,28.94-6.55,44.61.72,3.13,5.54,1.81,4.82-1.33Z"/><path class="cls-1" d="M605.62,778.91c.89-10.39-7.22-18.19-16-22.23-11.59-5.3-25.17-4.05-36-11.42-2.66-1.82-5.17,2.51-2.52,4.32,8.93,6.1,19.6,6.77,29.79,9.37,9.33,2.38,20.68,8.87,19.72,20-.28,3.21,4.73,3.19,5,0Z"/><path class="cls-1" d="M603.5,793.81l-.08-23.22L600.25,773a68.88,68.88,0,0,0,34.17,3.74c3.17-.43,1.82-5.25-1.33-4.82a63.89,63.89,0,0,1-31.51-3.74,2.52,2.52,0,0,0-3.16,2.41l.08,23.22c0,3.22,5,3.22,5,0Z"/><text class="cls-5" transform="translate(214.68 514.99)">with a<tspan class="cls-6" x="162.16" y="0"> </tspan><tspan class="cls-7" x="191.59" y="0">Pinecone</tspan></text></g></g></svg>