<svg xmlns="http://www.w3.org/2000/svg" viewBox="0 0 909.83 909.84"><defs><style>.cls-1{fill:#ce242b;}.cls-2,.cls-4{fill:#fed6af;}.cls-2{opacity:0.41;}.cls-3,.cls-5{fill:#fff;}.cls-5,.cls-7{font-size:112.57px;}.cls-5{font-family:Georgia, Georgia;}.cls-6,.cls-8{font-size:55.36px;}.cls-8{letter-spacing:0em;}</style></defs><title>quiltCover_1</title><g id="Layer_2" data-name="Layer 2"><g id="Layer_8" data-name="Layer 8"><rect class="cls-1" x="38.17" y="25.53" width="832.99" height="851.81"/><path class="cls-2" d="M38.17,27.17V875.7h551a69.22,69.22,0,0,1,18.7-1.05q5.91.61,11.85,1.05H871.16V27.17ZM700.5,88.53q4.64-6.53,9.18-13.12a22.21,22.21,0,0,0,2-3.36,61.6,61.6,0,0,0,3.41-8c1.29-4.3,2.17-8.74,3.3-13.08.62-2.39,1-4.62-2-6.19,2.06.68,3.58,1.24,4.06-1.62a4.1,4.1,0,0,1,2.93-2.63c5.39-.28,10.8-.13,15.63-.13-.46,10.09-1,20.3-1.37,30.51-.53,15.5-.66,31-3.79,46.29-.77,3.76-2.38,7.35-3.3,11.1a31,31,0,0,0-.71,7c-.06,10.25,0,20.51,2.72,30.51a47.88,47.88,0,0,0,1.82,4.73l1-.18c.16-.71.38-1.42.47-2.14.94-7.68,1.27-15.5,3-23,1.25-5.41,4.05-10.54,6.68-15.51,7-13.17,14.73-25.95,21.2-39.37,3.64-7.54,5.91-15.92,7.78-24.16,1.82-8,2.38-16.28,3.57-25h16.84a60.83,60.83,0,0,1,4.25,4.68c6.31,8.52,13.77,16.4,17.17,26.69a76.74,76.74,0,0,1,3.83,20.22c.35,7.65-7.51,15.6-16.29,17.59-6.46,1.46-13.13,2-19.59,3.49-8.64,2-16.86,5.13-22.63,12.46a44.78,44.78,0,0,0-6.52,10.86c-3.37,8.43-6,17.07-4.33,26.53.65,3.58-.11,7.42.27,11.08.3,2.9.79,6.05,2.19,8.5,3.69,6.4,7.71,12.64,12,18.65,4.08,5.73,8.58,11.17,13.07,16.59,2.9,3.51,7,6.29,8.95,10.22,3.16,6.3,7.45,12.29,7.37,20.06-.06,6.08-2.08,11.37-4.54,16.84-4.36-.69-8.06-1.85-10.54-6A122.5,122.5,0,0,0,770.63,247c-2.06-2.62-4.51-1-6.5.44-6,4.4-9.52,10.7-12.55,17.32-1.75,3.8-3.22,7.75-4.76,11.66-.92,2.32-3.47,15.07-4.22,20.05-1.62,10.69-2.88,21.44-4.23,32.18-1,8-2,16-2.82,24-.63,6.12-.83,12.28-1.49,18.4q-1.64,15.07-3.62,30.12c-2,15.18-7.47,29.3-13,43.38-.76,1.94-2.24,3.57-3.45,5.44-4.61-2.4-5.25-7.17-5.64-11-.72-7.16-.21-14.49.18-21.72.15-2.64,1.35-5.25,2.2-7.82a28.78,28.78,0,0,0,1.43-13.24c-.39-2.79-1.76-4.3-4.81-4.6-8.66-.87-15.46,3-22.2,7.86-3.41,2.47-7.67,3.89-11.71,5.26a3.45,3.45,0,0,1-4.52-4.12c.73-3.24,1.77-6.69,3.66-9.31a93.51,93.51,0,0,1,10.36-11.57c1.58-1.58,3.89-2.36,5.73-3.68,4.08-2.92,8.83-5.31,11.86-9.12a27.29,27.29,0,0,0,5.22-13,95.38,95.38,0,0,1,8.62-28.44c3.66-7.82,5.79-16.42,8.44-24.71,3.53-11.06,7.42-22.05,10.17-33.33,1.44-5.89,1.31-12.35.87-18.47-.26-3.56-2.45-7-3.93-10.45a3.19,3.19,0,0,0-2-1.29c-10.86-2.58-20.78-1.79-29.63,6.47-6.5,6.07-13.81,11.29-21,16.55-4,2.93-8.89,2.63-13.52,2.23-1-.09-2.37-2-2.64-3.33a87.34,87.34,0,0,1-1.59-11.65A41.78,41.78,0,0,1,670,216.78c3.3-3.86,7.41-7,11.28-10.35,4.6-4,9.55-7.51,13.95-11.69s8.45-9,12.56-13.63a48.19,48.19,0,0,0,4-5.33c5.06-7.57,4.59-13.82-2.73-19.11-5.21-3.76-11.42-7.12-17.6-8.17-7.78-1.32-16-.16-24,0-3.38.08-6.76.56-10.14.65-5,.12-8.44-4.06-7-8.91,2.55-8.72,7.49-15.94,13.74-22.78l-3.52,1.57-.43-.81c1.56-.64,3.14-1.83,4.69-1.78,3.35.09,4.58-.62,4.82-3.28a25.8,25.8,0,0,0,4.47-1.35c8.4-4.29,15-11,21.9-17.29C697.77,92.88,699,90.59,700.5,88.53ZM627.56,33.79,468.2,74.57a66.81,66.81,0,0,1,22.36-20.71c4.17-2.33,5.91-1.43,7.06,3.27a16.1,16.1,0,0,1-2.09,13.32C492.14,75.52,489.1,81,485,85.34c-2.83,3-7.07,5.07-11,6.32-5,1.58-8.74-3.14-9-9.93C466,79.34,466.73,76.68,468.2,74.57ZM240.87,38c1.32,1,2.67,2,3.88,3.11,1.88,1.74,33.28,21,39.65,22.65,6.1,1.57,12.29,2.72,18.42,4.1,1.49.34,3.05,1.45,4.4,1.2,3.53-.66,7.21-1.37,10.35-3,2.81-1.47,4.92-4.31,7.51-6.31,2.74-2.11,8.5-1.9,11.08.43.83.76,2.27,4.27,2.51,4.79.51,1.16,2.55,6.27,3.59,7a74.65,74.65,0,0,0,8,5,13.08,13.08,0,0,0,12.54.53c6.12-2.87,11.86-6,15.33-12.36,2.2-4,4.3-8.3,7.33-11.64a66.28,66.28,0,0,1,12.08-10c2.85-1.91,5.78-3.7,8.74-5.43h30.29c-2.82,1.26-5.53,2.81-8.31,4.19a61.15,61.15,0,0,1-6,2.75c-10,3.62-16.31,11.19-20.72,20.48C398.89,71,397.44,77.2,395,82.94c-1,2.28-2.62,4.94-4.66,5.92-6.47,3.11-9.63,8.5-12,14.94a44.51,44.51,0,0,1-5.52,10.14,68.75,68.75,0,0,1-7.95,9c-3.28,3.23-7.19,3-11.08,1.15-5-2.32-10.11-4.4-14.83-7.2a18.26,18.26,0,0,1-6.1-6.43c-3.75-6.47-8.28-10.59-16.15-12-8.35-1.49-16.63-1.79-25-2.45-5.5-.43-10.82-2.88-16.32-3.8q-17.22-2.91-34.55-5.1c-5.6-.71-10.1-3.48-14.5-6.64a8.2,8.2,0,0,1-1.78-2.6,123.93,123.93,0,0,1-11.92-29.16,18.15,18.15,0,0,0-4-7Q207,39.79,205.2,38ZM49.42,53.92a19.15,19.15,0,0,0,7.26,2.65,4.74,4.74,0,0,1,1.38.28c5.45,2.69,10.49.28,15.5-1.41,2.89-1,4.73-.91,6,2.45a48.06,48.06,0,0,0,4,7.5C88.69,74.23,93.8,83.11,99.09,91.9a249.42,249.42,0,0,0,26.59,36.76c3.71,4.22,8.25,7.18,12.18,10.94,4.87,4.69,10.57,7.79,16.34,11,4.62,2.56,8.85,5.82,13.32,8.66.94.6,7.22,5.89,10.74,6.18.71.06,5.79,4.36,8.17,5.47.82.38,7.18,4.36,9.46,4.17,7.9-.62,13.87,3.33,19.81,7.58,2.55,1.84,4.84,4.05,7.88,5.69a37.62,37.62,0,0,0-2.12-4.85c-2.83-4.62-5.24-9.72-8.88-13.58-5.11-5.42-11.13-9.94-16.83-14.76-3.59-3-7.6-5.6-10.88-8.93-5.57-5.65-10.77-11.69-16-17.66-3.69-4.2-7.08-8.66-10.81-12.81-5.21-5.8-8.55-12.7-11.69-19.74-3-6.75-6.14-13.45-9-20.27C134.07,68.08,131,60.33,128,52.58a15.73,15.73,0,0,1-.48-3.52c5.57,0,9.12,3.19,12.88,6a36.62,36.62,0,0,0,5.21,3.52c5.85,3,8.36,9.1,12.26,13.83,1.93,2.33,1.89,6.36,2.73,9.62.11.42,0,1,.25,1.29,2.2,3,4.47,6,6.68,9s4.21,5.83,8,6.67c.36.07.94.7.88,1-.74,3.24,1.83,3.45,3.67,4a102.6,102.6,0,0,0,10.11,2.55c5.18,1,10.29,2,13.93,6.53,1.29,1.62,3.28,2.65,4.81,4.1,1.84,1.75,3.51,3.69,5.31,5.5,1.24,1.26,2,4.17,4.48,1.05.3,4.09,1.89,5.56,6,5.38,3.87-.18,7.74-.64,11.58-1.15,2.86-.39,3.88,1,4.55,3.62,1.42,5.46,3.59,10.77,4.61,16.3,1.83,9.83,5,19.51,3.73,29.8-.39,3.26,0,6.63.25,10,.93,14.85-1.76,29.39-3.46,44-.86,7.43-1,14.95-1.49,22.43-.06.9-.17,1.8-.36,3.65-1.16-1.73-1.9-2.7-2.5-3.75-6.74-11.7-16.2-20.77-26.45-29.19-8.82-7.23-19.2-11.33-29.7-14.55-8.05-2.47-16.74-3-25.21-3.74a189.5,189.5,0,0,0-20.87-.24c-8.8.2-16.38-4.88-24.8-5.79-7.93-.86-10-6.07-12.22-12.68a260.45,260.45,0,0,0-12.79-30.82c-2.53-5.15-6.69-9.59-10.6-13.89-5.83-6.4-12-12.54-18.2-18.53a36.76,36.76,0,0,0-11.36-7.7Zm0,113.28c1.26,2,2.42,4.13,3.75,6.1,5.1,7.49,7.11,16.15,9.76,24.52,1.55,4.88,2,10.21,2.38,15.38.72,8.77,1.25,17.56,1.46,26.35.38,15.48-2.75,30.12-11,43.34A14.82,14.82,0,0,1,54,285.55c-1.51,1.5-3,3-4.56,4.49Zm79.73,650.5q-8.25,12.84-16.72,25.55c-1.71,2.56-3.74,4.87-5.59,7.33-3.55,4.72-7.05,9.48-10.64,14.16H70.61c7.52-5.21,13-12.47,18.42-19.7,4.37-5.85,7.72-12.49,11.64-18.71a11.83,11.83,0,0,1,3.36-3.47c3-2,4.58-6.61,2.92-9.88-2.88-5.68-6.06-11.19-8.74-17-3.32-7.15-9.64-11-15.32-15.68-1.6-1.31-3-2.88-4.65-4.1s-3.82-2.12-5.48-3.5c-1.17-1-1.88-2.53-3-3.33-2.09-1.3-4.29-2.44-6.25-3.91a38.37,38.37,0,0,0-14.06-7V747.32c3.2,0,6.38.21,9,1.45,11.54,5.34,23,11.07,33.72,18,6.13,4,10.34,10.91,16,15.8,8.94,7.71,14.26,18.15,21.08,27.45C131.17,812.55,130.73,815.26,129.15,817.7Zm11.9-53.24c-18.38-.27-30-11-37.36-26.66a27.57,27.57,0,0,1,.94-25.52c2.67-4.75,5.35-9.52,8.39-14a23.66,23.66,0,0,1,6.28-6.54c3.51-2.31,6-6.29,10.6-6.91s9-1.53,13.56-2.31c.78-.14,1.58-.18,3.17-.36-.7-5.45-1-10.81-2.14-15.94-2.23-9.84-4.68-19.65-7.61-29.28-1.49-4.85.17-8,3.43-10.79,2.22-1.92,4.68-3.54,7.09-5.35-.25,10.62,2.86,20.61,5.18,30.79,2,8.54,2.75,17.37,4.19,26,.94,5.66.23,11.65,3.73,16.84.75,1.11.3,4.07-.67,5.13a6.47,6.47,0,0,1-5.21,1.64c-8.56-1.69-16.83-1.52-25.08,1.8-8.6,3.47-13.29,9.85-13.45,19.3-.06,3.7.21,7.42-.06,11.1-.35,4.59,1.35,8,4.71,10.9,6.15,5.33,12.34,10.11,21.19,9.36,4.07-.35,6.49,2.26,6.39,5.5S145.26,764.52,141.05,764.46Zm106.45,64.61c-3.48,4-7.32,7.21-13.06,7.29-3.45,0-5.24-.84-4.48-4.82l-.89-.34c1.14-1.6,2-3.46,3.45-4.75,3.43-3.15,7.1-6,10.65-9a7.42,7.42,0,0,0,1.38-1.61c4.2-6.54,10.28-7.45,17.18-6.1a75.76,75.76,0,0,0,7.62,1.08,21.61,21.61,0,0,0,10.88-1.57c5.07-2.19,10.47-1.55,15.72.09,1.27.39,2.84.81,4,.4a14.14,14.14,0,0,1,12.35,1c.91.51,2.07,1.89,1.93,2.67a3.77,3.77,0,0,1-2.52,2.21c-1.29.32-2.75-.18-4.14-.19-3.94-.07-7.93-.51-11.81,0-9.5,1.13-18.91,2.58-28.43,0-5.51-1.49-9.11,2.82-12.88,5.69C251.71,823.15,249.83,826.39,247.51,829.07Zm15.8,35.67a99.28,99.28,0,0,0,13.63-14.27c4.14-5.14,9.84-6,16-5.13a29.54,29.54,0,0,1,18.52,10.25c2.83,3.21,6.76,5.42,10.2,8l1.39,1.1Zm596.6-94.8a122.75,122.75,0,0,1-15-6.2,112.92,112.92,0,0,1-21.24-14.12c-4.87-4.15-8.36-10-12.24-15.33-3.24-4.41-6.24-9-9.16-13.65a31.07,31.07,0,0,1-3.57-7.27c-2.7-8.79-5.79-17.55-7.43-26.57-1.29-7.08-1.21-14.56-.75-21.79.56-8.9,3.47-17.35,6.88-25.59,1.48-3.56,2.07-7.51,3.66-11,2.6-5.77,5.56-11.38,8.59-16.92,4.48-8.18,12.06-13.39,18.78-19.28,8.87-7.77,18.56-14.46,29.88-18.16.51-.17,1-.32,1.57-.45Zm0-330.18q-6.4,5.09-12.86,10.13c-10.08,7.91-20.46,15.46-30.16,23.83-5.48,4.72-10,10.7-14.73,16.26-5.75,6.68-11.53,13.35-16.92,20.34a94.12,94.12,0,0,0-8.09,13.15c-.83,1.54-.56,3.69-.79,5.56l1,.34c2.93-2.64,5.76-5.42,8.82-7.89A74.72,74.72,0,0,1,812,508.16c4.37-1.33,8.34-4,12.67-5.51,6.79-2.42,13.62-5,20.64-6.41a108,108,0,0,1,14.62-1.55v18.65c-6.07.91-11.22,4.26-16.4,7.75-2.7,1.82-6,2.73-9,4.12-1.75.82-3.44,1.77-5.13,2.69-6.46,3.46-13,6.75-19.32,10.48-3.26,1.94-5.79,5.33-9.19,6.85-4.85,2.16-7,7.14-11.6,9.73-4.93,2.76-8.66,7.88-12.67,12.22A89.41,89.41,0,0,0,767,578.92c-4.76,7.39-9.24,15-13.35,22.79a142.35,142.35,0,0,0-8.25,18.72,152.39,152.39,0,0,0-4.77,18.14c-3.13,14.14-2.76,28.59-2.11,42.85.53,11.51,3,22.9,5.87,34.2,3.58,14.2,10.87,26.15,19.23,37.64,4.38,6,9.07,11.86,13.85,17.58,2.47,3,5.46,5.43,8.15,8.19,4.28,4.37,8.19,9.19,12.84,13.1s10.1,7.08,15.22,10.53c3,2,6.08,3.88,9,6C829.33,813.41,836,818,844,820.19c5.32,1.48,10.59,3.09,15.87,4.69v39.86H777.29a43.29,43.29,0,0,1-3.16-3.48c-5.66-6.84-12.23-12.2-20.78-14.65a16.63,16.63,0,0,0-5.51-.63c-8,.45-15.92-1-24,.36-7.24,1.23-15,1.13-22.14-1.49a28.16,28.16,0,0,1-8.46-4.84c-6.06-5.13-13-7.5-20.62-9.15-9.84-2.14-18.68,0-27.52,3.89a59.1,59.1,0,0,1-9.42,3.56,20.69,20.69,0,0,0-12.61,9c-4.3,6.34-10.28,10.09-17.27,12.6a8.77,8.77,0,0,0-4.6,3.39,7.9,7.9,0,0,1-1,1.47H523.82c-1.46-1-3.28-1.56-4.89-2.49-3.08-1.79-6.33-2.92-9-5.91a92,92,0,0,0-18.33-15.72c-3-1.88-9-1.83-12,0a37.71,37.71,0,0,0-17.71,24.08H435a29.06,29.06,0,0,0,3.39-2.66c3.56-3,7.2-5.89,10.47-9.17,2.49-2.5,5.07-5.25,6.54-8.42,2.42-5.22,6.74-8.45,10.76-11.88a139.8,139.8,0,0,1,16.32-11.85c6.92-4.35,14.61-3.25,22.07-1.74,4.52.92,8.66,2.51,12,6.54,2.82,3.42,7.48,5.24,10.46,8.57,6,6.73,14,10,21.91,12.7,7.35,2.51,15.41,2.78,23.11-.83,9.75-4.57,19.7-8.68,29.57-13,4.15-1.8,8.45-3.29,12.46-5.38a36.21,36.21,0,0,0,7.56-5.55q8.2-7.56,16.08-15.47c8.64-8.67,17-17.6,25.78-26.14,2.18-2.13,5.31-3.31,8.11-4.73,8.22-4.16,16.26-8.87,24.81-12.16,9.27-3.57,19.06-4.43,28.75-.8,2.15.8,4.36,1.48,6.68,2.26.86-3,.24-5-2.13-6.39-4.21-2.42-8.45-4.77-12.69-7.15-.2-.11-.48-.18-.61-.34-4.73-6.23-11.71-6.84-18.52-7.37-8.73-.67-17.49-1-26.25-1.22-6.92-.21-13,3-19.25,5.43-7.79,3.05-15.64,6-23.42,9a50.32,50.32,0,0,0-7,3.56c-11.16,6.58-22.31,13.18-33.38,19.9-2,1.2-3.53,3.09-5.36,4.56-6.13,4.9-13.39,7.46-20.61,10a35,35,0,0,1-7.39,2.14c-2.92.35-5.93,0-8.9,0-8.1.11-13.55-5.33-19-10.08-5.19-4.52-10.83-7.49-17.39-8.31-9.89-1.24-19.83-2.41-29.77-2.68-5.57-.15-11.24,1.32-16.75,2.57a70,70,0,0,0-14.18,4.52c-4.34,2-8,5.61-12.28,7.72-3.92,1.92-8.33,2.85-12.56,4.11-5.78,1.72-11.27,3.65-14,9.95-.39.9-2.54.85-3.7,1.55-8.33,5-16.35,2.7-24.12-1.26-6.1-3.11-12.62-5.9-17.72-10.31-4.56-3.94-9.29-5.54-14.77-6.26-3.59-.47-7.23-.78-10.76-1.55-11.42-2.47-22.92-2.62-34.51-2-11.75.61-23.53.85-35.29,1.38a30.33,30.33,0,0,0-6.08,1.17c-6.18,1.56-12.26,3.78-18.53,4.66-8.18,1.13-15.41,4.69-22,9-4.91,3.18-8.59,8.53-12.41,13.25-6.36,7.88-12.58,15.88-18.5,24.1-3.77,5.24-6.88,11-10.3,16.49a7.84,7.84,0,0,1-1.43,1.95,26.84,26.84,0,0,0-6,7.57H150.42c.69-2.65,1.38-5.31,2.18-7.93,1.06-3.48,2.26-6.92,3.6-10.29,1.69-4.26,3.5-8.47,5.39-12.63s4-8.28,6-12.43c5-10.52,13.15-18.43,21.15-26.37,3.91-3.88,8.61-6.92,12.92-10.38,3.36-2.69,6.49-5.76,10.07-8.11,5.83-3.82,11.73-7.71,18-10.57,4.27-1.94,9.27-2.22,14-3.16a32.13,32.13,0,0,1,20.67,3.05c5.94,3,12,1.89,18,3.29a18.19,18.19,0,0,0,6.81,0,7.3,7.3,0,0,0,6.07-4.69c1.51-3.78,4-6,8.39-6.4a36.27,36.27,0,0,1,21.91,5c4,2.25,7.67,4.94,11.56,7.28,4.45,2.69,9.14.69,13.74.53,8.43-.3,15.62-3.8,22.23-8.85,3.22-2.45,6.64-1.35,9,.67,5.16,4.43,9.76,9.55,14.59,14.39.5.49,1,1.28,1.55,1.37,12.11,1.7,24.06,2.41,34.37-6.3,6.56-5.54,13-11.28,19.84-16.4,2.59-1.94,6.16-2.67,9.41-3.45,5.75-1.38,11.56-3,17.4-3.34,4.35-.25,8.86,1.12,13.16,2.3,4.91,1.34,9.55,4,14.49,4.73,4.64.71,9.55-.13,14.3-.6,4.51-.45,9-1.19,13.47-2.07a10.32,10.32,0,0,0,3.91-2.13c6.45-4.89,12.67-9.85,15.28-18.26a109.45,109.45,0,0,1,6.7-16.42,62.62,62.62,0,0,1,7.08-10.5c3.91-5,7.65-10.2,12.28-14.37,5-4.49,11.09-7.72,16.43-11.86,2.36-1.82,5-4,4.43-8-10-.53-19.7-.43-29.08,3.26-7.48,3-14.81,6-20.52,12.21-5.53,6-10.91,12.32-17.29,17.22-6.06,4.65-13.28,7.79-20.14,11.28-2.39,1.22-4.67.9-7.56-.82-7.33-4.36-15-8.69-24.1-7.58a13.57,13.57,0,0,1-2.88-.22c1.93-4.08,5.8-6.09,8.47-9.52,4.24-5.45,5.41-12,8.83-17.5,1.76-2.85,4.27-5.23,5.91-8.14,5.58-9.93,9.19-20.37,8.81-32.16-.35-10.78.56-21.6.24-32.39-.36-12.11-2.52-23.86-7.67-35-2.73-5.92-3.84-12.6-6.29-18.69-2.71-6.78-6.25-13.21-9.18-19.91-2.23-5.1-4.11-10.37-6-15.61-1-2.66-1.83-5.38-2.58-8.13s-1.14-5.55-1.87-8.29c-.54-2-1.79-3.88-2-5.9-.66-6.67-.24-13.55-1.62-20-1.71-8-.88-15.94-1.32-23.91-.17-3-3.56-5-5.84-2.91-5.79,5.44-13.93,5.26-20.08,9.63-2.72,1.94-5.79,3.37-9.36,5.41-.73-5.48-1.51-10.51-2-15.58a3.62,3.62,0,0,1,2-2.69c5.67-2,11.59-3.46,17.08-5.88,3.86-1.71,7.13-4.76,10.76-7.08,8.17-5.23,12.57-13,15.2-22.26a15.55,15.55,0,0,1,6.77-9.14,7.54,7.54,0,0,0,1.69-1.16c5.5-6.06,10.93-12.19,16.47-18.21,1.18-1.28,2.93-2,4.06-3.35,6.3-7.36,12.14-15,14.65-24.76.91-3.55,3.2-6.73,4.37-10.23,2.86-8.51,5.64-17.05,8.05-25.7a249.78,249.78,0,0,0,6.21-25.74,179.06,179.06,0,0,0,1.93-23.8c.23-6.87-.11-13.76-.47-20.62-.45-8.54-.64-17.14-1.93-25.56-1-6.74-3.49-13.24-5.39-19.83-2.69-9.3-5.47-18.57-8.14-27.88-1.4-4.87-2.5-9.83-4-14.66a65.39,65.39,0,0,0-3.25-7.47,88.81,88.81,0,0,0-6-11.47,19.06,19.06,0,0,0-.63,4.3c2,25.94,2.34,51.67-5.35,77-2,6.62-1.92,13.88-3,20.8-.94,6-1.44,12.21-3.55,17.76-3.3,8.68-7.65,17-11.83,25.28a151.14,151.14,0,0,1-9.28,16.33c-4.06,6.06-9,11.4-15.61,14.76a46.07,46.07,0,0,0-8,4.88c-6.38,5.1-13.41,8.06-21.05,7.59,6.7-7,14.64-23.13,7.57-39.55-8.12-18.84-20.25-21.35-27.33-24.33-6.46-2.71-22.16-2-28.82,1.5-10.39,5.39-16.4,11.25-23.37,20.75-5.83,8-4.65,17-4.93,27.17-.11,4,2.05,8,3.3,12,.52,1.68,5.84,13,7.94,17,1.34,2.53.92,3.63-1.82,4.66-7.64,2.87-15.26,5.82-22.63,9.32-3.24,1.53-5.81,4.52-8.77,6.72-5.93,4.4-11.64,9.25-18,12.91-5.24,3-8.47,7.74-12.07,12-11.61,13.88-22.69,28.21-34,42.39-.8,1-1.4,2.18-2.13,3.25-1.12,1.64-1.59,3.61-4,4.45-1.42.5-3.59,2.4-1.72,4.26-1.79,1.94-3.42,3.76-5.09,5.53-3,3.2-8.24,2.68-11.73.07-2.81-2.11-6.49-3.28-10-4.15A122.65,122.65,0,0,0,224.62,443c-2.26-.28-4.61.48-6.93.61-6.34.35-12.48,1.38-18,4.84-7.59,4.76-15.63,8.9-22.62,14.45-5.12,4.07-8.85,10-13.18,15-10.38,12.21-14.07,27.73-19.59,42.27-2.26,6-2.59,12.71-3.72,19.11-.83,4.64-1.94,9.26-2.22,13.94-.35,5.78-.9,11.81.35,17.34,1.65,7.29-.38,12.71-4.62,18.19-6,7.82-11.64,16-17.51,23.93-6.2,8.39-12.6,16.62-18.71,25.08-2.25,3.11-3.89,6.67-5.88,10-4,6.77-8.18,13.49-12.19,20.28-2.52,4.27-4.75,8.74-7.37,12.95-2.74,4.37-5.82,8.52-8.71,12.8-.59.87-.86,2-1.49,2.81-1,1.33-2.2,2.51-3.81,4.32,1.12,2-.84,3.55-2.68,5.69a100,100,0,0,0-6.3,8.86V348.14c.78-.83,1.53-1.68,2.29-2.49,9-9.49,18-18.94,26.44-28.95,5.71-6.79,10.38-14.51,15.59-21.76,1.65-2.3,3.49-4.48,5.35-6.62,5.47-6.29,6.82-14.11,8.41-22,1-4.87,1.91-9.4,8-12.22,5-2.33,10.44-3.77,15.37-6.42,1.82-1,4.69-.86,6.79-.23,4.77,1.42,9.35,3.48,14,5.24.7.27,1.78.74,2.16.43,2.57-2,26.61,11.74,36.1,17.95,8.51,5.56,16.5,12,24.52,18.31s23.72,20.55,23.85,21.11c.9-.24,18.91,16.12,24.59,20.18,6.22,4.46,8.62,11.3,11.16,17.89,2.66,6.92,4.26,14.25,6.44,21.74,2.25-1.29,3-3.56,2.72-6.4-.94-9-2.05-18-2.81-27a144.88,144.88,0,0,1-.69-18.16c.4-9.73,1.64-19.42,2.06-29.16.43-9.94,2.51-19.5,5-29,.71-2.68.43-5.62,1.13-8.3,3.11-12.05,6.49-24,9.56-36.09.78-3.06.72-6.34,1.12-9.5.48-3.75,1.47-7.47,1.45-11.21,0-6.27-.86-12.52-1.05-18.8-.16-5.55-.9-10.85-3.83-15.7-1-1.67-1.53-3.64-2.64-6.37,2.78,0,43.22,11,48.28,12.07,5.83,1.25,11.79,2.86,17.93,1.46,12.53-2.87,25.2-5.21,37.56-8.67,4.48-1.26,8.19-5.24,12.4-7.72,6.39-3.79,12.87-7.44,19.38-11,8.56-4.7,17.86-2,26.84-2.5,1.74-.08,3.58.93,5.29,1.63,10.58,4.31,20.41,3.4,28.52-5.22,6.24-6.64,12.52-13.66,14.93-22.75,2.09-7.86,6.94-12.6,13.2-16.8,2.92-2,5.09-5.12,7.59-7.74,2.67-2.81,12.52-12.95,13.35-13.89,5.63-6.38,20.52-22.58,22.35-24.3s10.41-8,12.77-11.12H676.24c1.65.37,1.91,1.38,1.29,4-.7,3-1.93,5.79-2.89,8.68a8.23,8.23,0,0,0-.3,1.71c-.27,2.31.08,4.95-.91,6.87-2.4,4.66-5.41,9-8.21,13.45a77,77,0,0,0-4.38,6.84c-1.1,2.22-5.45,6.58-6.1,8.42-.45-.12-9.13,7.38-13.38,11.4-5.29,5-10.65,10-16.21,14.68-2.47,2.09-5.72,3.19-8.23,5.23-8.3,6.71-16.64,13.39-24.51,20.6a25.76,25.76,0,0,0-8.33,17.52c-.06,1-.65,5.67-.4,6.78,1.68,7.44,3.75,14.93,9.12,20.47,6.36,6.56,14.91,9.17,23.29,12.13a21.11,21.11,0,0,1,9.41,7.41c4.68,6.53,7.21,14.1,4.11,22.18-.94,2.46-7.23,7.07-7.69,7.74-5.54,8-11,16.15-16.49,24.19-2.83,4.13-5.94,8.07-8.62,12.31-1.33,2.1-1.82,4.73-2.93,7-2.59,5.19-5.63,10.16-7.88,15.49-1.49,3.51-2,7.46-2.8,11.24-.53,2.38,1.66,23.94,4.07,28.68a20.93,20.93,0,0,0,5.05,6.34,29.49,29.49,0,0,0,7.6,4.43c8.54,3.52,14.53-1.84,20-7,6.15-5.74,11.58-12.3,17.37-18.45,3-3.15,5.69-6.71,9.17-9.1,2.35-1.61,5.8-1.61,8.79-2.12,2-.32,4-.16,5.94-.41,4.86-.64,7.07.63,9.66,4.86,6.14,10.09,6.43,20,1,30.71-3.26,6.46-5.46,13.41-11,18.43-5.27,4.8-10.68,8.82-18.13,10-5.45.86-10.69,3.13-16.39,2.93a5.44,5.44,0,0,0-2.7.67c-11,6.06-23.23,9.54-33.79,16.89-7.82,5.44-15.79,10.57-22.06,17.8C562,415.74,556,422.6,551.6,430.32c-4,6.95-6.8,14.87-6.56,23.36,0,.7-2.39,14.18,5.2,19.45,8.5,5.91,17.83,10.43,28.4,10.38,4.65,0,9.27-2,14-2.44,5.46-.53,9.54-4,14.27-6,7.16-3.14,12-9.31,18-14,4.67-3.64,8.31-8.63,12.68-12.71a47.27,47.27,0,0,1,19.93-11.21,18.65,18.65,0,0,1,18.27,4.21c5.27,4.7,7.74,10.23,6.23,17.08-1.84,8.33-4,16.54-10.23,23-9.48,9.95-53.05,45.47-59.17,53.71-3.36,4.54-5.59,10.16-7.49,15.59a167.11,167.11,0,0,0-5.54,20.62c-1,4.55.47,20.32,2.2,22.2a139.78,139.78,0,0,0,12,11.05c2.51,2.18,5.24,4.11,7.85,6.16,4.68,3.68,10.14,5,15.87,5.49a53.52,53.52,0,0,0,6.65.35c1.15-.06,2.26-.81,3.77-1.4,1.17,1.37,6.46,1.35,9.93-.39,4.8-2.42,9.76-4.53,14.59-6.89,6-2.92,11.34-6.63,15.41-12.18,1.39-1.9,3.72-3,5.35-4.79,3.74-4,7.4-8.07,10.92-12.27,6-7.13,11.82-14.38,17.71-21.57,8.51-10.39,17.71-20.27,25.32-31.31,6.88-10,12.1-21.19,17.86-32,8.22-15.36,9.82-32.19,9.66-49.26-.26-27.59-1.06-55.18-1.2-82.77,0-8.07,1.3-16.17,2.21-24.23a6.9,6.9,0,0,1,6.66-6.11c4.81-.12,9.7-1.4,14.39,1.37a16.35,16.35,0,0,1,7.49,9.44c1.41,4.24,3.92,8.16,5,12.47a123.35,123.35,0,0,1,2.63,17.63A66.41,66.41,0,0,0,817.91,395c2.1,4.45,11.67,11.22,18,10.54a8,8,0,0,0,2.57-1c6.62-3.27,11.52-8.73,16.61-13.89,1.38-1.4,1.83-3.78,2.68-5.73.62-1.45,1.18-2.93,1.77-4.4l.37,0ZM271.25,660.63c-.94-6.34-2.93-12.5-4.21-18.8-.94-4.62-1.2-9.39-2.23-14-.79-3.56-2.32-7-3.47-10.45a31.76,31.76,0,0,1-1.83-8.72c1.72,2,3.86,3.85,5,6.17.67,1.33.81,2.12,2.4,1.88.39-.06,1.05.48,1.33.92,2.83,4.48,5.58,9,8.44,13.5,1.37,2.15,3.05,4.09,4.32,6.29s2,4.36,3.31,7.23c3.73.32,4.16,4.79,6.13,7.54,4.44,6.15,8.37,12.68,12.52,19.05,2.09,3.22,4.14,6.46,6.26,9.67a14.83,14.83,0,0,0,2.34,3.06c2.44,2.15,5.15,4,7.5,6.24,5.92,5.65,12.83,10.68,17.19,17.4,4,6.17,10.54,7.82,15.08,12.53,1.35,1.4,2.81,2.69,4.37,4.19a9,9,0,0,1-1.71,1.44c-7.12,3.65-14.11,7.66-21.48,10.69-2.92,1.19-6.72.47-10.08.13-12.08-1.25-21.87-7.93-31.92-14.09-3.93-2.41-8.33-4-12.53-6-6.18-2.85-12.8-2.65-19.88-2.68,2.5-5,4.62-9.83,7.22-14.33a47.9,47.9,0,0,0,6.53-22.9A91.6,91.6,0,0,0,271.25,660.63ZM345.32,505c9.71,9.25,19,19,28.35,28.61,6.53,6.68,12.95,13.47,19.37,20.24,2.05,2.17,3,5,1.1,7.39a6.57,6.57,0,0,1-5.46,1.86c-1.83-.36-3.55-2.18-5-3.67-13.36-13.85-26.42-28-40-41.57-7.34-7.3-15.66-13.55-23.43-20.41-3.61-3.18-7-6.69-10.47-10-1-1-2.14-1.76-4.07-3.34,5.41-3.58,10.43-7.11,15.64-10.32,4.87-3,9.85-5.82,15-8.37,5.7-2.85,9.84-.26,9.19,6.18a58.13,58.13,0,0,1-3.87,15.81C337.38,497.82,337.36,497.42,345.32,505Zm31.76-82c2.53-2.39,6.82-1.32,8.33,2.3a47.46,47.46,0,0,1,1.69,6.21,99.24,99.24,0,0,1-1.6,10.19,5.23,5.23,0,0,1-5.29,3.85c-2.15,0-4.24,0-5.67-2.75C372,437.8,373,426.85,377.08,423Zm58.62-14.48c.22-7,3.88-11.53,9.33-11.44s8.54,3.6,8.4,9.18c-.16,6.52-4.39,10.76-10.6,10.62C438.47,416.8,435.55,413.37,435.7,408.54ZM859.9,178.6c-.44,13.7-.88,27.35-1.32,41.28-3.26-3.75-5.88-6.95-8.69-10-2.42-2.57-4.8-5.35-7.67-7.3-6.92-4.69-14.41-8.54-21.13-13.51-5.1-3.76-9.4-8.67-14-13.17a7.53,7.53,0,0,1-1.26-2.83,17.16,17.16,0,0,0-2.4-5.06c.6-4.6.94-9.26,1.86-13.8a94.48,94.48,0,0,1,3.39-11.18,3.3,3.3,0,0,1,1.66-1.71c6-2.66,11.75-5.55,18.18-.42,5.27,4.22,11.17,7.6,16.76,11.4a6.88,6.88,0,0,1,2,1.93c2.82,4.67,5.91,8.92,12.54,9.38l.48,0Q860.14,171.17,859.9,178.6Z"/><path class="cls-3" d="M354.09,650.92a79.47,79.47,0,0,1-12.3-24.14c-.95-3.06-5.78-1.76-4.82,1.33a83.6,83.6,0,0,0,12.8,25.34c1.9,2.55,6.24.06,4.32-2.52Z"/><path class="cls-3" d="M318.65,632.73c-1.36-11.26-8-21.14-18.49-25.81-2.91-1.3-5.46,3-2.52,4.32a27.06,27.06,0,0,1,16,21.5c.38,3.15,5.38,3.19,5,0Z"/><path class="cls-3" d="M375.86,596.6l-1.73-13.75c-.4-3.15-5.4-3.19-5,0l1.73,13.75c.4,3.15,5.4,3.19,5,0Z"/><path class="cls-3" d="M319.78,516.42a18.89,18.89,0,0,0-9.2-20.31c-2.82-1.56-5.34,2.76-2.52,4.32a13.76,13.76,0,0,1,6.9,14.67c-.61,3.14,4.21,4.49,4.82,1.33Z"/><path class="cls-3" d="M273.83,496.1H253.65c-3.22,0-3.22,5,0,5h20.18c3.22,0,3.22-5,0-5Z"/><path class="cls-3" d="M291.82,560.15a83.43,83.43,0,0,0-24.08-7.28c-3.15-.44-4.51,4.37-1.33,4.82a79.2,79.2,0,0,1,22.89,6.78c2.89,1.36,5.44-2.94,2.52-4.32Z"/><path class="cls-3" d="M248.95,509.74a81.89,81.89,0,0,1-29.75-10c-2.8-1.59-5.32,2.72-2.52,4.32a85.42,85.42,0,0,0,30.95,10.54c3.15.43,4.51-4.39,1.33-4.82Z"/><path class="cls-3" d="M222.63,475.13l-18.45,3.71c-3.15.63-1.82,5.45,1.33,4.82L224,479.95c3.15-.63,1.82-5.45-1.33-4.82Z"/><path class="cls-3" d="M185.55,510.64v29.24c0,3.22,5,3.22,5,0V510.64c0-3.22-5-3.22-5,0Z"/><path class="cls-3" d="M158.74,560.52a89.21,89.21,0,0,1-7.93,33.25c-1.32,2.91,3,5.45,4.32,2.52a95.78,95.78,0,0,0,8.62-35.77c.14-3.22-4.86-3.21-5,0Z"/><path class="cls-3" d="M178.82,579.44V588c0,3.22,5,3.22,5,0v-8.6c0-3.22-5-3.22-5,0Z"/><path class="cls-3" d="M209.1,541.6v17.2c0,3.22,5,3.22,5,0V541.6c0-3.22-5-3.22-5,0Z"/><path class="cls-3" d="M219.6,597.79a25.34,25.34,0,0,0,8.64,26.55c2.51,2,6.07-1.56,3.54-3.54a20.47,20.47,0,0,1-7.35-21.68c.83-3.11-4-4.44-4.82-1.33Z"/><path class="cls-3" d="M195.64,612.12V650c0,3.22,5,3.22,5,0V612.12c0-3.22-5-3.22-5,0Z"/><path class="cls-3" d="M171.79,641.46c1.51,2,.72,6.1-2.23,6.32-3.19.24-3.22,5.24,0,5,6.34-.47,10.57-8.56,6.55-13.85-1.92-2.53-6.27,0-4.32,2.52Z"/><path class="cls-3" d="M217,686.67l3.36,1.73a2.5,2.5,0,1,0,2.52-4.32l-3.36-1.73a2.5,2.5,0,0,0-2.52,4.32Z"/><path class="cls-3" d="M228.05,651.14A22.47,22.47,0,0,0,231,670.4c1.8,2.64,6.14.14,4.32-2.52a17.59,17.59,0,0,1-2.4-15.42c.93-3.09-3.89-4.41-4.82-1.33Z"/><path class="cls-3" d="M182,686.09a58.74,58.74,0,0,1-.93,20.07c-.7,3.13,4.12,4.47,4.82,1.33a62.69,62.69,0,0,0,1.11-21.4c-.38-3.15-5.39-3.19-5,0Z"/><path class="cls-3" d="M215.83,710.15v3.44a2.5,2.5,0,0,0,5,0v-3.44a2.5,2.5,0,0,0-5,0Z"/><path class="cls-3" d="M486.15,394.53l1.41-24.73-4.66,1.26a38.41,38.41,0,0,0,12.69,11.07,2.53,2.53,0,0,0,3.67-2.82c-1.62-5.33,4-9.08,8.23-5,2.3,2.25,5.84-1.28,3.54-3.54-7.64-7.45-19.77-.61-16.59,9.84l3.67-2.82a32.77,32.77,0,0,1-10.89-9.27,2.52,2.52,0,0,0-4.66,1.26l-1.41,24.73c-.18,3.21,4.82,3.2,5,0Z"/><path class="cls-3" d="M489.12,666.37h-18.5c-3.22,0-3.22,5,0,5h18.5c3.22,0,3.22-5,0-5Z"/><path class="cls-3" d="M453.29,694.23c-14.87,3-16.53-17.55-16.63-27.28,0-3.22-5-3.22-5,0,.08,8.31.26,17.5,5.31,24.52,4.12,5.74,10.62,9,17.65,7.58,3.15-.64,1.82-5.46-1.33-4.82Z"/><path class="cls-3" d="M446.42,648.14a35.57,35.57,0,0,0-25.23-5.7c-3.17.43-1.82,5.25,1.33,4.82a30.39,30.39,0,0,1,21.38,5.2c2.68,1.8,5.18-2.53,2.52-4.32Z"/><path class="cls-3" d="M390.7,660.27v-25.8c0-3.22-5-3.22-5,0v25.8c0,3.22,5,3.22,5,0Z"/><path class="cls-3" d="M373.67,682.35l-35.33-5.1c-3.15-.45-4.51,4.36-1.33,4.82l35.33,5.1c3.15.45,4.51-4.36,1.33-4.82Z"/><path class="cls-3" d="M400.6,697.72a23.7,23.7,0,0,0,1.71-14c-.55-3.16-5.37-1.82-4.82,1.33a17.68,17.68,0,0,1-1.2,10.17c-1.28,2.92,3,5.47,4.32,2.52Z"/><path class="cls-3" d="M443.57,625a10.18,10.18,0,0,0-2.18-9.34,2.52,2.52,0,0,0-3.54,0,2.55,2.55,0,0,0,0,3.54,4.92,4.92,0,0,1,.89,4.47c-.83,3.11,4,4.44,4.82,1.33Z"/><path class="cls-3" d="M491.11,616.1l-1.69-3.44a2.51,2.51,0,0,0-3.42-.9,2.56,2.56,0,0,0-.9,3.42l1.69,3.44a2.51,2.51,0,0,0,3.42.9,2.56,2.56,0,0,0,.9-3.42Z"/><path class="cls-4" d="M483.5,574.34c.59-7.68.11-15.54-3.34-22.57s-9.57-12.39-13.47-19.19a54.89,54.89,0,0,1-3.25-46.89c1.16-3-3.67-4.3-4.82-1.33a59.77,59.77,0,0,0,.55,44.19c3,7.27,7.71,12.95,12.42,19.14,6.13,8.05,7.67,16.72,6.91,26.66-.25,3.21,4.76,3.19,5,0Z"/><path class="cls-4" d="M438,496.28a109.76,109.76,0,0,0-5.36,36.34c.09,9.72.67,21.38-7.72,28-2.52,2,1,5.51,3.54,3.54,7.88-6.24,9.06-16.48,9.2-25.9.21-14.05.64-27.17,5.17-40.68,1-3.06-3.8-4.37-4.82-1.33Z"/><text class="cls-5" transform="translate(245.75 330.12) scale(0.98 1)">Body <tspan class="cls-6" x="281.49" y="0">Armour</tspan><tspan class="cls-6"><tspan x="28.5" y="135.09">Dancing </tspan><tspan class="cls-7" x="246.2" y="135.09">Suit</tspan></tspan><tspan x="-15.54" y="270.18">Living </tspan><tspan class="cls-8" x="325.26" y="270.18">Quilt </tspan><tspan x="462.84" y="270.18"> </tspan></text><path class="cls-4" d="M65.38,825.66a74.75,74.75,0,0,1-6.09,33.44c-1.27,2.92,3,5.47,4.32,2.52a80.24,80.24,0,0,0,6.77-36c-.14-3.2-5.14-3.22-5,0Z"/><path class="cls-4" d="M73.84,828.33v33.34c0,3.22,5,3.22,5,0V828.33c0-3.22-5-3.22-5,0Z"/><path class="cls-4" d="M96,827v36c0,3.22,5,3.22,5,0V827c0-3.22-5-3.22-5,0Z"/><path class="cls-4" d="M118.18,831v26.67c0,3.22,5,3.22,5,0V831c0-3.22-5-3.22-5,0Z"/><path class="cls-4" d="M133.83,831v26.67c0,3.22,5,3.22,5,0V831c0-3.22-5-3.22-5,0Z"/><path class="cls-4" d="M153.4,827v40c0,3.22,5,3.22,5,0V827c0-3.22-5-3.22-5,0Z"/><path class="cls-4" d="M175.57,828.33v32c0,3.22,5,3.22,5,0v-32c0-3.22-5-3.22-5,0Z"/><path class="cls-4" d="M202.15,832.48A88,88,0,0,0,195,860.32c-.29,3.2,4.71,3.18,5,0A80.34,80.34,0,0,1,206.47,835c1.29-2.92-3-5.46-4.32-2.52Z"/><path class="cls-4" d="M214.42,831A226.14,226.14,0,0,0,219,859.6c.71,3.14,5.53,1.81,4.82-1.33A215.54,215.54,0,0,1,219.42,831c-.3-3.18-5.3-3.21-5,0Z"/><path class="cls-4" d="M227.69,833.66a75.67,75.67,0,0,0,4.08,26c1,3,5.87,1.73,4.82-1.33a71.62,71.62,0,0,1-3.91-24.66c.05-3.22-4.95-3.22-5,0Z"/><path class="cls-4" d="M242.08,840.33v24c0,3.22,5,3.22,5,0v-24c0-3.22-5-3.22-5,0Z"/><path class="cls-4" d="M268.16,836.33V859c0,3.22,5,3.22,5,0V836.33c0-3.22-5-3.22-5,0Z"/><path class="cls-4" d="M251.16,832.33,252.74,855c.22,3.19,5.22,3.22,5,0l-1.58-22.65c-.22-3.19-5.22-3.22-5,0Z"/><path class="cls-4" d="M283.5,831l.34,21.33c.05,3.21,5.05,3.22,5,0L288.5,831c-.05-3.21-5.05-3.22-5,0Z"/><path class="cls-4" d="M294.24,831v22.67c0,3.22,5,3.22,5,0V831c0-3.22-5-3.22-5,0Z"/><path class="cls-4" d="M309.68,834.41a97.73,97.73,0,0,1,2.79,29.92c-.19,3.21,4.81,3.2,5,0a102.36,102.36,0,0,0-3-31.25c-.79-3.12-5.61-1.8-4.82,1.33Z"/><path class="cls-4" d="M300.55,863V849.66c0-3.22-5-3.22-5,0V863c0,3.22,5,3.22,5,0Z"/><path class="cls-4" d="M335.2,826.33a74.37,74.37,0,0,1-6.13,33.44c-1.28,2.92,3,5.47,4.32,2.52a79.85,79.85,0,0,0,6.81-36c-.14-3.2-5.14-3.22-5,0Z"/><path class="cls-4" d="M348.24,829v33.34c0,3.22,5,3.22,5,0V829c0-3.22-5-3.22-5,0Z"/><path class="cls-4" d="M370.41,827.66v36c0,3.22,5,3.22,5,0v-36c0-3.22-5-3.22-5,0Z"/><path class="cls-4" d="M392.58,831.66v26.67c0,3.22,5,3.22,5,0V831.66c0-3.22-5-3.22-5,0Z"/><path class="cls-4" d="M408.23,831.66v26.67c0,3.22,5,3.22,5,0V831.66c0-3.22-5-3.22-5,0Z"/><path class="cls-4" d="M427.79,827.66v40c0,3.22,5,3.22,5,0v-40c0-3.22-5-3.22-5,0Z"/><path class="cls-4" d="M450,829v32c0,3.22,5,3.22,5,0V829c0-3.22-5-3.22-5,0Z"/><path class="cls-4" d="M476.55,833.14A88,88,0,0,0,469.36,861c-.29,3.2,4.71,3.18,5,0a80.34,80.34,0,0,1,6.51-25.32c1.29-2.92-3-5.46-4.32-2.52Z"/><path class="cls-4" d="M488.82,831.69a226.14,226.14,0,0,0,4.53,28.58c.71,3.14,5.53,1.81,4.82-1.33a215.54,215.54,0,0,1-4.35-27.25c-.3-3.18-5.3-3.21-5,0Z"/><path class="cls-4" d="M502.09,834.33a75.67,75.67,0,0,0,4.08,26c1,3,5.87,1.73,4.82-1.33a71.62,71.62,0,0,1-3.91-24.66c.05-3.22-4.95-3.22-5,0Z"/><path class="cls-4" d="M516.48,841v24c0,3.22,5,3.22,5,0V841c0-3.22-5-3.22-5,0Z"/><path class="cls-4" d="M542.56,837v22.67c0,3.22,5,3.22,5,0V837c0-3.22-5-3.22-5,0Z"/><path class="cls-4" d="M525.56,833l1.58,22.65c.22,3.19,5.22,3.22,5,0L530.56,833c-.22-3.19-5.22-3.22-5,0Z"/><path class="cls-4" d="M557.9,831.67l.34,21.33c.05,3.21,5.05,3.22,5,0l-.34-21.33c-.05-3.21-5.05-3.22-5,0Z"/><path class="cls-4" d="M568.64,831.66v22.67c0,3.22,5,3.22,5,0V831.66c0-3.22-5-3.22-5,0Z"/><path class="cls-4" d="M584.08,835.08A97.73,97.73,0,0,1,586.87,865c-.19,3.21,4.81,3.2,5,0a102.36,102.36,0,0,0-3-31.25c-.79-3.12-5.61-1.8-4.82,1.33Z"/><path class="cls-4" d="M574.95,863.67V850.33c0-3.22-5-3.22-5,0v13.34c0,3.22,5,3.22,5,0Z"/><path class="cls-4" d="M605.89,829.66a74.37,74.37,0,0,1-6.13,33.44c-1.28,2.92,3,5.47,4.32,2.52a79.85,79.85,0,0,0,6.81-36c-.14-3.2-5.14-3.22-5,0Z"/><path class="cls-4" d="M618.94,832.33v33.34c0,3.22,5,3.22,5,0V832.33c0-3.22-5-3.22-5,0Z"/><path class="cls-4" d="M641.11,831v36c0,3.22,5,3.22,5,0V831c0-3.22-5-3.22-5,0Z"/><path class="cls-4" d="M663.28,835v26.67c0,3.22,5,3.22,5,0V835c0-3.22-5-3.22-5,0Z"/><path class="cls-4" d="M678.93,835v26.67c0,3.22,5,3.22,5,0V835c0-3.22-5-3.22-5,0Z"/><path class="cls-4" d="M698.49,831v40c0,3.22,5,3.22,5,0V831c0-3.22-5-3.22-5,0Z"/><path class="cls-4" d="M720.66,832.33v32c0,3.22,5,3.22,5,0v-32c0-3.22-5-3.22-5,0Z"/><path class="cls-4" d="M747.24,836.48a88,88,0,0,0-7.19,27.84c-.29,3.2,4.71,3.18,5,0A80.34,80.34,0,0,1,751.56,839c1.29-2.92-3-5.46-4.32-2.52Z"/><path class="cls-4" d="M759.51,835A226.14,226.14,0,0,0,764,863.6c.71,3.14,5.53,1.81,4.82-1.33A215.54,215.54,0,0,1,764.51,835c-.3-3.18-5.3-3.21-5,0Z"/><path class="cls-4" d="M772.78,837.66a75.67,75.67,0,0,0,4.08,26c1,3,5.87,1.73,4.82-1.33a71.62,71.62,0,0,1-3.91-24.66c.05-3.22-4.95-3.22-5,0Z"/><path class="cls-4" d="M787.17,844.33v24c0,3.22,5,3.22,5,0v-24c0-3.22-5-3.22-5,0Z"/><path class="cls-4" d="M813.25,840.33V863c0,3.22,5,3.22,5,0V840.33c0-3.22-5-3.22-5,0Z"/><path class="cls-4" d="M796.25,836.33,797.83,859c.22,3.19,5.22,3.22,5,0l-1.58-22.65c-.22-3.19-5.22-3.22-5,0Z"/><path class="cls-4" d="M828.59,835l.34,21.33c.05,3.21,5.05,3.22,5,0L833.59,835c-.05-3.21-5.05-3.22-5,0Z"/><path class="cls-4" d="M839.34,835v22.67c0,3.22,5,3.22,5,0V835c0-3.22-5-3.22-5,0Z"/><path class="cls-4" d="M854.77,838.41a97.73,97.73,0,0,1,2.79,29.92c-.19,3.21,4.81,3.2,5,0a102.36,102.36,0,0,0-3-31.25c-.79-3.12-5.61-1.8-4.82,1.33Z"/><path class="cls-4" d="M845.64,867V853.67c0-3.22-5-3.22-5,0V867c0,3.22,5,3.22,5,0Z"/><path class="cls-4" d="M59.32,36.36A74.75,74.75,0,0,1,53.23,69.8c-1.27,2.92,3,5.47,4.32,2.52a80.24,80.24,0,0,0,6.77-36c-.14-3.2-5.14-3.22-5,0Z"/><path class="cls-4" d="M72.29,39V72.37c0,3.22,5,3.22,5,0V39c0-3.22-5-3.22-5,0Z"/><path class="cls-4" d="M94.33,37.7v36c0,3.22,5,3.22,5,0v-36c0-3.22-5-3.22-5,0Z"/><path class="cls-4" d="M116.38,41.7V68.37c0,3.22,5,3.22,5,0V41.7c0-3.22-5-3.22-5,0Z"/><path class="cls-4" d="M131.94,41.7V68.37c0,3.22,5,3.22,5,0V41.7c0-3.22-5-3.22-5,0Z"/><path class="cls-4" d="M151.39,37.7v40c0,3.22,5,3.22,5,0v-40c0-3.22-5-3.22-5,0Z"/><path class="cls-4" d="M173.43,39V71c0,3.22,5,3.22,5,0V39c0-3.22-5-3.22-5,0Z"/><path class="cls-4" d="M199.87,43.18A88.36,88.36,0,0,0,192.72,71c-.29,3.2,4.71,3.18,5,0a80.71,80.71,0,0,1,6.47-25.32c1.28-2.92-3-5.47-4.32-2.52Z"/><path class="cls-4" d="M212.07,41.72a227.33,227.33,0,0,0,4.51,28.58c.7,3.14,5.53,1.81,4.82-1.33a216.67,216.67,0,0,1-4.33-27.25c-.3-3.18-5.3-3.21-5,0Z"/><path class="cls-4" d="M225.26,44.36a76.06,76.06,0,0,0,4.06,26c1,3,5.86,1.73,4.82-1.33a72,72,0,0,1-3.88-24.66c.05-3.22-4.95-3.22-5,0Z"/><path class="cls-4" d="M239.57,51V75c0,3.22,5,3.22,5,0V51c0-3.22-5-3.22-5,0Z"/><path class="cls-4" d="M265.5,47V69.7c0,3.22,5,3.22,5,0V47c0-3.22-5-3.22-5,0Z"/><path class="cls-4" d="M248.6,43l1.57,22.65c.22,3.19,5.22,3.22,5,0L253.6,43c-.22-3.19-5.22-3.22-5,0Z"/><path class="cls-4" d="M280.76,41.7,281.1,63c.05,3.21,5.05,3.22,5,0l-.34-21.33c-.05-3.21-5.05-3.22-5,0Z"/><path class="cls-4" d="M291.44,41.7V64.37c0,3.22,5,3.22,5,0V41.7c0-3.22-5-3.22-5,0Z"/><path class="cls-4" d="M306.79,45.11A98.27,98.27,0,0,1,309.56,75c-.19,3.21,4.81,3.2,5,0a102.92,102.92,0,0,0-3-31.25c-.78-3.12-5.61-1.8-4.82,1.33Z"/><path class="cls-4" d="M297.74,73.7V60.37c0-3.22-5-3.22-5,0V73.7c0,3.22,5,3.22,5,0Z"/><path class="cls-4" d="M332.16,37a74.75,74.75,0,0,1-6.09,33.44c-1.27,2.92,3,5.47,4.32,2.52a80.24,80.24,0,0,0,6.77-36c-.14-3.2-5.14-3.22-5,0Z"/><path class="cls-4" d="M345.13,39.7V73c0,3.22,5,3.22,5,0V39.7c0-3.22-5-3.22-5,0Z"/><path class="cls-4" d="M367.18,38.36v36c0,3.22,5,3.22,5,0v-36c0-3.22-5-3.22-5,0Z"/><path class="cls-4" d="M389.22,42.36V69c0,3.22,5,3.22,5,0V42.36c0-3.22-5-3.22-5,0Z"/><path class="cls-4" d="M404.78,42.36V69c0,3.22,5,3.22,5,0V42.36c0-3.22-5-3.22-5,0Z"/><path class="cls-4" d="M424.23,38.36v40c0,3.22,5,3.22,5,0v-40c0-3.22-5-3.22-5,0Z"/><path class="cls-4" d="M446.28,39.7v32c0,3.22,5,3.22,5,0v-32c0-3.22-5-3.22-5,0Z"/><path class="cls-4" d="M472.71,43.84a88.36,88.36,0,0,0-7.15,27.84c-.29,3.2,4.71,3.18,5,0A80.71,80.71,0,0,1,477,46.37c1.28-2.92-3-5.47-4.32-2.52Z"/><path class="cls-4" d="M484.91,42.39A227.33,227.33,0,0,0,489.42,71c.7,3.14,5.53,1.81,4.82-1.33a216.67,216.67,0,0,1-4.33-27.25c-.3-3.18-5.3-3.21-5,0Z"/><path class="cls-4" d="M498.1,45a76.06,76.06,0,0,0,4.06,26c1,3,5.86,1.73,4.82-1.33A72,72,0,0,1,503.1,45c.05-3.22-4.95-3.22-5,0Z"/><path class="cls-4" d="M512.41,51.7v24c0,3.22,5,3.22,5,0v-24c0-3.22-5-3.22-5,0Z"/><path class="cls-4" d="M538.35,47.7V70.37c0,3.22,5,3.22,5,0V47.7c0-3.22-5-3.22-5,0Z"/><path class="cls-4" d="M521.45,43.7,523,66.35c.22,3.19,5.22,3.22,5,0L526.45,43.7c-.22-3.19-5.22-3.22-5,0Z"/><path class="cls-4" d="M553.6,42.37l.34,21.33c.05,3.21,5.05,3.22,5,0l-.34-21.33c-.05-3.21-5.05-3.22-5,0Z"/><path class="cls-4" d="M564.28,42.36V65c0,3.22,5,3.22,5,0V42.36c0-3.22-5-3.22-5,0Z"/><path class="cls-4" d="M579.63,45.78A98.27,98.27,0,0,1,582.4,75.7c-.19,3.21,4.81,3.2,5,0a102.92,102.92,0,0,0-3-31.25c-.78-3.12-5.61-1.8-4.82,1.33Z"/><path class="cls-4" d="M570.58,74.37V61c0-3.22-5-3.22-5,0V74.37c0,3.22,5,3.22,5,0Z"/><path class="cls-4" d="M601.32,40.36a74.75,74.75,0,0,1-6.09,33.44c-1.27,2.92,3,5.47,4.32,2.52a80.24,80.24,0,0,0,6.77-36c-.14-3.2-5.14-3.22-5,0Z"/><path class="cls-4" d="M614.29,43V76.37c0,3.22,5,3.22,5,0V43c0-3.22-5-3.22-5,0Z"/><path class="cls-4" d="M636.34,41.7v36c0,3.22,5,3.22,5,0v-36c0-3.22-5-3.22-5,0Z"/><path class="cls-4" d="M658.38,45.7V72.37c0,3.22,5,3.22,5,0V45.7c0-3.22-5-3.22-5,0Z"/><path class="cls-4" d="M673.94,45.7V72.37c0,3.22,5,3.22,5,0V45.7c0-3.22-5-3.22-5,0Z"/><path class="cls-4" d="M693.39,41.7v40c0,3.22,5,3.22,5,0v-40c0-3.22-5-3.22-5,0Z"/><path class="cls-4" d="M715.44,43V75c0,3.22,5,3.22,5,0V43c0-3.22-5-3.22-5,0Z"/><path class="cls-4" d="M741.87,47.18A88.36,88.36,0,0,0,734.72,75c-.29,3.2,4.71,3.18,5,0a80.71,80.71,0,0,1,6.47-25.32c1.28-2.92-3-5.47-4.32-2.52Z"/><path class="cls-4" d="M754.07,45.72a227.33,227.33,0,0,0,4.51,28.58c.7,3.14,5.53,1.81,4.82-1.33a216.67,216.67,0,0,1-4.33-27.25c-.3-3.18-5.3-3.21-5,0Z"/><path class="cls-4" d="M767.26,48.36a76.06,76.06,0,0,0,4.06,26c1,3,5.86,1.73,4.82-1.33a72,72,0,0,1-3.88-24.66c.05-3.22-4.95-3.22-5,0Z"/><path class="cls-4" d="M781.57,55V79c0,3.22,5,3.22,5,0V55c0-3.22-5-3.22-5,0Z"/><path class="cls-4" d="M807.51,51V73.7c0,3.22,5,3.22,5,0V51c0-3.22-5-3.22-5,0Z"/><path class="cls-4" d="M790.61,47l1.57,22.65c.22,3.19,5.22,3.22,5,0L795.61,47c-.22-3.19-5.22-3.22-5,0Z"/><path class="cls-4" d="M822.76,45.7,823.1,67c.05,3.21,5.05,3.22,5,0l-.34-21.33c-.05-3.21-5.05-3.22-5,0Z"/><path class="cls-4" d="M833.44,45.7V68.37c0,3.22,5,3.22,5,0V45.7c0-3.22-5-3.22-5,0Z"/><path class="cls-4" d="M848.79,49.11A98.27,98.27,0,0,1,851.56,79c-.19,3.21,4.81,3.2,5,0a102.92,102.92,0,0,0-3-31.25c-.78-3.12-5.61-1.8-4.82,1.33Z"/><path class="cls-4" d="M839.74,77.7V64.37c0-3.22-5-3.22-5,0V77.7c0,3.22,5,3.22,5,0Z"/></g><g id="newGrid"><path class="cls-4" d="M0,0V909.84H909.83V0ZM871.1,790.06c-.1,25.31,0,50.61,0,75.92v11.36H37.58V34.93c3.94-.17,6.92-.41,9.9-.42,15.62,0,31.24.12,46.86-.09,5.76-.08,11.49-1,17.25-1.49,1.82-.16,3.81-.72,5.46-.23,10.82,3.26,21.87,1.66,32.8,1.7,45.63.2,91.26,0,136.89.1Q573.37,34.74,860,35h11.08V46.87q0,124.92,0,249.84c0,14.51,1,29,.94,43.54-.16,43.21-.75,86.43-.91,129.64,0,13.58,1.11,27.16,1.07,40.74Q871.8,650.34,871.1,790.06Z"/></g></g></svg>