<svg xmlns="http://www.w3.org/2000/svg" viewBox="0 0 909.83 909.84"><defs><style>.cls-1{fill:#ce242b;}.cls-2{fill:#fed6af;}</style></defs><title>1_2_frame2</title><g id="Layer_2" data-name="Layer 2"><g id="Layer_8" data-name="Layer 8"><path class="cls-1" d="M39.45,880.71V32.5c3.17-.17,6.11-.47,9.06-.48q64.67-.15,129.34-.22,342.59.07,685.18.2h11.76c2,7,2.76,834.21.77,848.7ZM635.67,441.94c-12.61-2.12-23.35-7.25-29.92-19.66-2.71-5.13-7.57-8.56-13.35-10.85a148,148,0,0,1-21.16-10.71c-7.89-4.7-15.38-10.08-23-15.22C536,377.28,523.3,369.79,514.87,357c-2.17-3.3-5.77-5.61-8.2-8.77-2.95-3.83-6.67-7.77-7.75-12.23a106.08,106.08,0,0,0-15-33.71c-6-9.16-13-17.27-22-23.45-10.32-7.15-20.7-14.29-31.48-20.7-13.6-8.09-21.49-20-24.43-35.29-2.69-14-5-28.07-7-42.18-2-13.83-2.87-27.84-5.35-41.57-2.42-13.42-5.79-26.75-14.83-37.65C370,90.79,362.22,79.14,352.33,69.7c-9.34-8.91-18.71-18.88-32.6-21.16-1.72-.28-4.08-1-4.8-2.32-2.55-4.61-6.64-3.76-10.54-3.76q-122.87,0-245.74,0c-3,0-6,.27-9.41.43V166.34a126.34,126.34,0,0,1,42-29.33c18.89-8,39.25-9.53,59.64-6.11,9,1.51,17.93,4,27,5.47,19.4,3.18,36.93,10.8,53.08,21.94,11.62,8,23,16.36,34.82,24.1,7.14,4.69,14.73,8.7,22.29,12.67,9.9,5.2,20.24,8.55,31.71,7.07,12.89-1.66,25.21-4.58,35.89-12.7a22.76,22.76,0,0,1,8.3-3.84c3.89-.93,7.28,3.52,5.53,7.13-.73,1.51-2.43,2.67-3.92,3.64-5.41,3.54-11.12,6.64-16.33,10.45-9.64,7.06-12.42,18.83-18,28.59A49.74,49.74,0,0,0,325.43,252c-2.7,16.75-3.35,33.83-9.42,50-1.69,4.51-3.53,8.4-6.9,11.79-10,10.07-19.82,20.32-29.69,30.52-1.5,1.55-2.85,3.24-4.52,5.15,1.85,2.6,3.7,5.05,5.4,7.61,6.82,10.27,14.24,20.21,20.22,31,7.63,13.71,14.51,27.9,21,42.24,7.93,17.64,18.21,33.48,32,46.91a17.06,17.06,0,0,0,3.75,2.34c3.74,2.07,7.69,3.81,11.22,6.19,10.23,6.9,20.55,13.53,32.49,17.09,9.38,2.8,18.82,5.05,28.93,3.83.52,2,1,3.47,1.23,5,.08.49-.42,1.07-1.07,2.54-2.47.26-5.45.45-8.39.94-2,.33-4.33.57-5.91,1.71-13.22,9.52-26.9,18.53-39.27,29.1-13.71,11.71-28.8,21.2-44.16,30.09-10.25,5.93-21.86,11-33.41,12.75-19,2.86-38.35,5.1-57.76,3.49-4.29-.35-8.62-.93-12.89-.67-11.23.69-21.57-3.28-32.09-6-6.06-1.57-11.51-5.85-17.59-7A60.81,60.81,0,0,1,155.95,569c-14-9.34-29.42-16.63-41.33-29.07-8.1-8.46-16.36-16.77-24.6-25.1-13.16-13.29-25-27.74-36.48-42.49-1-1.25-2.56-2-4.25-3.26-2.1,21.61-1.16,206,1.17,213.05,1.94-.74,3.88-1.45,5.79-2.23,4-1.6,7.77-3.78,11.86-4.78,15.52-3.78,31.44-6.17,46.6-11,14-4.5,27.2-2.24,40.94-.21,22.49,3.32,43.43,13.73,66.44,14.42a3,3,0,0,1,.9.19c11,3.91,22.32,5.82,33.81,7.64a444.93,444.93,0,0,0,59.46,5.05c6.95.16,13.78.77,20.55,4.61-2.57,3.14-4.22,5.69-8.33,5.88-24.27,1.08-43.2,12.54-58.05,31.48-3.43,4.38-6.34,9.17-9.57,13.72-11.59,16.28-20.6,33.81-25.51,53.37-3.11,12.37-6.43,24.69-9.39,37.1-2.16,9-6,17-13.13,23-2.94,2.49-4.94,5.45-3.79,9.78h58.72c7.62-9,13.27-17.78,20.93-24.08,8.17-6.72,11.58-13.69,9.55-24a12.8,12.8,0,0,1,1.91-8.68c4.16-6.16,10.19-10.24,17.72-10.25a80.43,80.43,0,0,1,18.19,2.11c19.76,4.62,37.9.84,54.22-10.82,13.9-9.93,28.08-9.5,42.51-2.62,6.31,3,11.71,7.91,17.78,11.52,7.42,4.41,10.33,11.23,11.07,19.35a52.23,52.23,0,0,1-.06,9.34c-.51,5.71,1.11,10.21,5.72,13.89,5.24,4.18,8.68,9.51,8.43,16.79-.09,2.58.91,5.2,1.3,7.22h23.17c-.93-7.37-2.54-14.1-2.47-20.82.17-17-5.85-31.28-16-44.47-3.83-5-6-11.32-8.66-17.15-3.18-6.88.49-13.32,1.57-19.92,2-12.53,1.64-24-9.89-32.65-7.85-5.92-15-12.94-21.86-20-7.73-7.91-7.62-11.91-1.27-21.13,7.71-11.19,15.54-22.31,22.93-33.72,12.6-19.47,30.37-28,53.09-27,9.83.43,19.7.71,29.51.16,5.06-.28,10.19-2.08,15-4,4.23-1.72,8-4.56,12-7,11.16-6.73,22.73-8.87,35-3.25,10.91,5,21.44,3.45,32-1.44a54.39,54.39,0,0,1,11.28-3.29c13.5-3,17.11-5.35,17.34-21.42,0-2.49-.65-5.07-.2-7.45.91-4.79,1.07-10.55,3.85-14,8.1-10,16.48-20.08,26.4-28,8.16-6.53,18.3-11.08,28.22-14.69,19.78-7.2,34.47-20.72,47.71-36.36a14.12,14.12,0,0,0,1.65-16.59c-4.27-7.47-9.59-14.35-14.81-21.21-2.92-3.84-7.06-5.69-12.08-5.79s-10.48-.13-15.4-1.46c-9.88-2.67-19.44-.06-29.11.77a13.14,13.14,0,0,0-6.77,2.69c-4.28,3.46-8.14,7.45-12.21,11.18-2.72,2.49-5.22,6.44-8.31,7-4.67.86-6.64,4-9.38,6.8-2.38,2.41-4.58,5.1-7.3,7.05-8.46,6.06-17.21,11.71-25.7,17.74-10.48,7.44-21.91,12.07-34.75,12.6-6.12.26-12.28-.27-18.38.1-7.49.45-12.77-3.18-17.86-8.11-6.85-6.63-13.66-13.43-21.25-19.12-7.86-5.9-16.34-10.6-27.17-9.11-7.84,1.08-15.94.57-23.9.24-5.63-.23-12.72-2.28-13.5-7.47-1-6.4-5-11.21-5.83-17.24-1.13-8-2.26-16-2.88-24-.45-5.91-2.36-10.74-6.82-14.67q-10-8.83-19.72-18c-5.92-5.58-12-10.5-20.75-10.5-2,0-4-1.14-6-1.83-12.33-4.26-24.64-8.61-37-12.78-4.29-1.45-5.73-3.55-3.6-7.6,1.18-2.23,3.4-4.71,5.65-5.39,5.21-1.57,10.43-2.14,16.07.16,11.24,4.58,22.82,6.56,34.73,1.46,10.6-4.55,21.79-4.44,32.58-1.25,6.94,2.05,14.73,4.59,19.58,9.5,5.11,5.17,7.74,13.2,10.4,20.38,2.54,6.87,3.74,14.25,5.52,21.41,2.4,9.65,10.9,17.84,19.78,17.68a86.28,86.28,0,0,1,32.35,5.38c10.3,3.84,19,8.55,21.08,20.71.57,3.29,1.76,6.47,2.56,9.73,1.6,6.5,6.31,10.64,11.5,13.76,2.07,1.25,6.31.68,8.59-.7a102.91,102.91,0,0,0,15.46-11.64C620.5,457,628,449.41,635.67,441.94ZM501.59,43.1c3,11.32,5.38,21.82,8.71,32,2.2,6.7,4.58,14,9.05,19.13,11.21,12.72,22.55,25.48,36.57,35.32,7.58,5.32,15.11,10.76,22.3,16.6,14,11.4,26.6,24,32.62,41.93,1.47,4.37,3.35,9.08,6.39,12.36,10.23,11,13,24.07,12.6,38.59-.27,9,1.31,18.07.45,26.95a115.88,115.88,0,0,1-5.85,25.24c-3.82,11.42-.56,20.56,6.46,29.4,2.54,3.19,5.36,4.33,8.78,3.41,13-3.52,25.91-7.36,38.87-11,3.44-1,4.63-3,5.22-6.62a45,45,0,0,1,4.37-13,81.4,81.4,0,0,1,19.38-24.56c5-4.36,7.87-9.95,9.43-16.62,2.31-9.89,2.08-19.67,1.26-29.65-1.85-22.27.76-44.68-3.15-67-1.91-10.93-4.16-21.76-9.6-30.85-11.36-19-8.69-38.14-2.81-57.33,2.44-8,2.51-15.63,3.07-24.23Zm44.31,827H698.44c0-6.93-.9-13.53.2-19.78,2-11.17-2.41-20.12-8.67-28.11-7.06-9-11.76-18.11-7.5-29.7,2.24-6.08.76-11.33-1.74-17-2.59-5.87-5.06-12.17-5.69-18.47-1.22-12.16-6-22.73-11.75-33-4-7-9.17-11.35-18-8.92-2.85.79-6.07.12-9.12.23-10.14.36-18,3.73-22.66,14C610,737.22,610,745,610.78,753c1.21,12-3.28,21.16-12,28.55-4.89,4.13-10.93,7.13-15,11.9-8.6,10-15.13,21.2-12.35,35.4.9,4.58-.78,7-4.73,8.16-3.15-5.86-6.17-11.42-9.1-17a14.84,14.84,0,0,1-1.17-3.51c-3.25-14-4-27.61,3.63-40.68a67.21,67.21,0,0,0,6.25-14.53c3.12-10.4,5.54-20.75,1.08-31.77-2.39-5.9-2.81-12.68-3.68-19.12-.71-5.32,3-8.72,6.53-11.71,4.92-4.2,10.24-7.92,15.44-11.78a10.84,10.84,0,0,1,3.25-1.62c8.73-2.66,17.48-5.23,26.21-7.85,11.15-3.35,22.3-6.7,34.18-5.25,3.2.39,6.41.71,9.25,1l4.19-23.75c-4.43,1.08-9,3.5-13,2.85-5.69-.91-10.11,1.43-15,2.86s-9.88,3.59-15,4.09c-8.74.86-17.64.1-26.35,1.1-12.14,1.4-24.16,3.86-36.25,5.75-9.12,1.43-13.93,6.4-15.5,15.71a52.47,52.47,0,0,1-3.22,11.57c-3.22,7.63-6.89,15.05-10.45,22.7,1.17,2.41,1.83,5.46,3.68,7.3,6.72,6.68,6.73,15,6,23.36-.87,9.72-4.36,18.66-9.13,27.09-3.13,5.53-5.12,11.18-3.35,17.71a64.73,64.73,0,0,1,1.15,8.21c1.5,11.05,2.7,22.16,4.58,33.14C533.17,846.12,539.37,857.87,545.91,870.08ZM330.78,531c-4.41-1.22-8.57-1.09-10.42-3.11a265.23,265.23,0,0,1-20.3-24.79c-12.56-17.6-25.67-34.86-33.94-55.26-5.11-12.59-11-24.86-16.88-37.1-6.93-14.41-17.17-26.3-28.3-37.57a103,103,0,0,0-40-25.21c-13.86-4.83-27.66-9.89-41.76-13.89-12.65-3.59-25.76-3.62-40.15-2.42,2.31,2.52,3.65,4.1,5.1,5.56,5.35,5.38,11,10.47,16,16.14,7.3,8.23,14,17,21.24,25.28,2.39,2.77,6.15,4.48,8.08,7.47,7.13,11.07,13.76,22.48,20.59,33.75,2.38,3.93,4.78,7.86,7.22,11.74,4.42,7,9.58,13.68,13.13,21.12,2.95,6.19,6.51,11.08,12.59,14,8.55,4.06,17.08,8.19,25.76,12,5,2.19,9.39,4.49,9,12.1-2.52.25-4.95,1.13-7,.57-6.48-1.78-12.88-3.9-19.18-6.24-9.76-3.62-19.79-6.78-29-11.53s-17.68-11-26.26-17c-5.29-3.65-10.65-7.43-15.16-12-7.59-7.66-14.6-15.92-21.72-24.05-9.53-10.88-17.87-22.9-30.44-30.76a141,141,0,0,1-14.81-10.89c-7.42-6.12-16.12-9.35-25.58-13.81,0,6.23.59,11-.13,15.52-1.27,8,3.15,13.73,8.4,17.41,11.72,8.21,20.5,19.26,30.4,29.23,4.1,4.13,8.59,7.88,12.44,12.22,4.7,5.3,8.5,11.48,13.45,16.5,9.06,9.19,19.38,17.2,27.9,26.84,9.33,10.56,20.94,17.79,32.25,25.4,17.91,12.06,38.55,17.74,59.27,22,18.91,3.88,38.25,5.7,57.41,8.32a34.73,34.73,0,0,0,9.15.35c9.65-1.28,19.26-2.87,28.85-4.52C328.8,534.26,329.38,532.75,330.78,531ZM446.67,47.89c-7.12-4.3-14-3.17-20.88-3-7.24.13-14.47,0-22.33,0,1.43,6.14,5.43,9.36,10.91,11.17C425.93,59.87,432.64,69,438,79.15c3.57,6.83,6.28,14.15,9.06,21.37,2.3,6,4.08,12.18,6.21,18.23S457.42,131,460,136.92c4.39,10.06,13.73,15.93,22.54,19.7,7.71,3.3,13.45,8,19.38,13l8.52-2c2.25,3.4,3.55,6.9,6,8.79,4.09,3.09,8.71,6,13.56,7.44,11.56,3.46,20.11,10.75,28.92,18.75,12.7,11.55,16.88,35,12.21,48.59-2.31,6.7-4.61,13.4-6.78,20.15-1.14,3.53-1.53,7.37-3.05,10.7a108.05,108.05,0,0,0-8.4,29.85c-2.37,16.14,1.63,30.21,10.37,43.17a23,23,0,0,0,9.85,7.75c6.68,2.78,14,4,20.73,6.64a242.53,242.53,0,0,1,22.39,10.41c2.93,1.51,5,4.73,8,6.05,9.78,4.37,19.73,8.36,29.72,12.2,4,1.53,8.65,1.5,12.28,3.53,17.27,9.63,35.33,8.76,52.47,1.9a91.34,91.34,0,0,1,58.5-3.7,36.79,36.79,0,0,1,15.31,7.82c6.29,5.77,11.48,12.83,16.71,19.68a45.88,45.88,0,0,1,5.5,10.64c1.73,4.26,3,8.7,4.36,13.11,1.13,3.73,2.21,7.49,3,11.31.88,4.31,2.76,5.9,7,4.9,2.68-.63,5.24-1.77,7.89-2.56,9.54-2.85,19.1-5.66,29-8.6v-10a94.12,94.12,0,0,0-9.31-2c-12.77-1.45-20.88-8.64-26.73-20s-12.75-21.95-19.43-32.74c-7.37-11.9-18.28-15.61-31.94-15.93-12.08-.28-24.61.49-36.31-4.5-2.76-1.18-6.12-2.32-8.89-1.78-11.93,2.3-24.2,2.91-35.31,9.27-6.89,3.94-14.87,4.76-23.16,3.48-10.81-1.67-20.29-6.48-30-11-5-2.31-10.48-4.29-14.44-7.9-8.13-7.4-15.35-15.82-23-23.77a69.77,69.77,0,0,0-7.28-7c-18-13.92-18.14-41.78-5.92-55.77,7.51-8.6,7.37-16.66,2-26.33-4.89-8.85-9.76-18.21-12-28a92.68,92.68,0,0,0-14.56-32.82c-4.47-6.45-9.43-12.17-18.15-14.5-6.73-1.8-13.39-6.62-18.37-11.79-10.47-10.87-22.57-19.06-35.78-25.71-14.19-7.15-26.11-16.32-32.07-31.87a37.42,37.42,0,0,0-4.32-8.22c-4.41-6.2-6.06-13.25-7.52-20.59C451.7,66.8,448.93,57,446.67,47.89Zm-398,763.84,2,1.26c2.84-2.23,5.8-4.32,8.51-6.71,10.63-9.39,21-19.09,31.79-28.29,22.62-19.31,49.35-31.06,76.6-41.67a95.08,95.08,0,0,1,15.11-4.07c1.77-.37,3.8.51,5.75.82-.63,5.31-2.89,8.43-7.21,9.53-12.78,3.24-22.9,11.6-34,18.13a47.06,47.06,0,0,0-11.93,9.82c-7.26,8.59-14.08,17.59-20.66,26.74a124.56,124.56,0,0,0-10.3,17.2c-2.71,5.44-4.28,11.46-6.77,17-5.53,12.37-11.11,24.66-7.07,39.08,11.06,0,21.85.44,32.58-.17a62.67,62.67,0,0,0,18.82-3.8c19.75-7.63,34.86-21,43.06-40.91a472.82,472.82,0,0,0,16.67-47.46c6-20.58,10.85-41.5,25.94-59.4-9.59-1.73-17.88-2.56-25.78-4.8-17.43-4.95-35.19-4.87-53-4.4a130,130,0,0,0-24.69,2.67c-22.52,5-42.77,15.2-60.88,29.66-7.49,6-13.51,13.83-14.26,23.19C47.78,780.61,48.68,796.21,48.68,811.73ZM823.56,43A119,119,0,0,0,813.22,89.3c-.07,4.28.79,8.57.83,12.87.06,6.75-1.09,13.63-.16,20.23,1.94,13.75,4.59,27.41,10,40.37,2,4.79,3.72,10.12,3.83,15.24.3,13.25.68,26.65-.94,39.73-1.59,12.82-1.57,26.17-7.53,38.22a16.3,16.3,0,0,0-1.47,6.25c-.66,12.76-7.91,23.11-12.44,34.41a33.22,33.22,0,0,0-2.55,9.46c-1,9.86,2.35,18.4,7.17,26.55A29.31,29.31,0,0,0,832,347.15c10.46,1.07,16.71,5.88,22.3,13.94,3.12,4.51,5.74,9.9,11.64,13.32V43ZM221.1,315.68c2.6-4.74,4.06-8.19,6.19-11.16A52.36,52.36,0,0,0,237,266.75c-.21-1.85,0-3.77-.33-5.6a14.84,14.84,0,0,1,5.06-14.29c5.17-4.52,10.81-8.49,16.49-12.89-4.25-4-9.8-4.61-15.17-5.52-11.69-2-21-7.1-27-18.12-7.71-14.08-21.12-22.11-35.38-26.32-22.39-6.61-45.66-9.43-69.15-6.11-5.45.77-10.79,2.36-16.24,3-14.81,1.71-26.52,8-34,21.62a70.93,70.93,0,0,1-8.42,12.24,16.67,16.67,0,0,0-4.27,11.88c.15,11.84,0,23.69.08,35.53A68.1,68.1,0,0,0,49.4,269c14.54-8.68,28.21-16.66,41.7-24.95,12.44-7.64,26.66-10.33,40.05-15.3,7.94-2.94,16.22-2,24.32-2.93,16.73-1.84,33-.05,48.13,8,2.29,1.23,4.91,4.58,4.85,6.89-.09,3.44-3.35,4.09-7,3.73-4.47-.45-9.34-.62-13.53.72-10,3.2-19.78,6.27-29.25,11.83-11.39,6.68-21.77,14.79-34.37,21.48,17.39,5.35,34,9.49,49.85,15.6S205.2,308.25,221.1,315.68ZM774.77,870.17c0-10.79-1-20.85.27-30.61,1.33-10.23-2.79-18.42-7.33-26.26-4.12-7.1-9.83-13.43-15.58-19.36-9.49-9.79-14.78-21.19-15.38-34.85-.31-7.12-1-14.25-.77-21.35.52-14.38-6.31-24.65-16.85-33.11-3.36-2.7-6.78-5.32-10.13-8-9.8-7.95-12-18-9.21-30.59,2.59-11.47,9.46-20.76,13.79-31.3,6.66-16.19,16.64-31,25.32-46.32,4.64-8.18,11.67-12.21,21.1-12.6,11.63-.49,23.3-1.09,34.84-2.57,4.56-.59,10.74-2.49,12.79-5.89,4.62-7.67,11.85-10.27,18.87-13.82,13.34-6.74,26.82-13.2,36.2-25.77,3-4,5.43-15.8,3.19-19.93-.4-.73-1.7-1.81-1.88-1.68-3.88,2.72-5-4-7.81-2.76-6.84,6.64-13.08,13-19.69,19a35.55,35.55,0,0,1-10,6.44c-9.26,3.83-16.45,10.5-24.33,16.38-11.47,8.56-23.88,14.7-39.23,11.81-11.56-2.18-23.38-2.52-32.69,7.18-5.05,5.26-10.12,10.51-15.1,15.85-6.5,7-9.65,15.59-11.65,24.76-2.31,10.64-4.79,21.24-7,31.9-.92,4.54-2.14,9.32-1.61,13.79.82,6.86-.75,12.9-3.12,19.06a54.69,54.69,0,0,0-3.44,11.61c-1.6,11.15.77,21.37,10.16,28.22s14.68,15.76,16.06,27.06a47.47,47.47,0,0,0,8.31,21.4c5,7.38,7.35,15.63,4.07,24.71-4.13,11.44-1.66,22.13,4.41,32.1,5.88,9.66,10.28,19.7,10.66,31.28.26,8,.87,15.92,1.34,24.27ZM752.67,43c-1.6,9.44-3.33,18.44-4.6,27.51-.76,5.43-.88,11-1.16,16.45-.68,13.24-1.78,26.49,1.37,39.62,1.23,5.14,3.15,10.42,2.9,15.55-.62,12.88,6.82,22.57,11.38,33.43,2.73,6.51,6.58,13.13,7.06,19.91.81,11.66,0,23.55-1.27,35.21a81.65,81.65,0,0,1-17,42.42c-7.15,9-12.46,18.41-13.47,30.35-1.06,12.59,5,21.37,17.14,22.41,2.4.21,4.83,0,8.56,0,0-4.23,0-8.18,0-12.14-.11-11.14,4.62-20.3,11.63-28.38,4.95-5.71,8.56-11.66,9.58-19.55,1.83-14.15,4.67-28.16,7-42.25.8-4.89,1.81-9.83,1.87-14.76.17-13.75-2.82-27.07-6.14-40.31-3.66-14.62-12.4-26.75-18.95-40-5.29-10.68-8.12-22.25-5.59-34,2.33-10.82,6.46-21.27,10.1-31.78C775.35,56,775.64,49.6,772.5,43ZM865.88,731.51c-3.52,2.92-6.27,4.79-8.53,7.15-5.2,5.43-10.74,9.75-18.43,11.43-4.3.94-8.58,3.64-12,6.57-6.39,5.47-10.52,12.13-6.75,21.24,2.78,6.7,1.12,13.45-.48,20.09a66,66,0,0,1-3.47,11.54c-4,9-.48,14.6,6.87,19.58,11.36,7.71,15.86,19.35,16.78,32.73.19,2.72.4,5.44.6,8.15h25.43ZM329.66,870H416.5c0-9.5.34-18.4-.11-27.26-.36-6.94-7.49-13.23-14.52-12.3-8.74,1.16-17.31,3.59-25.94,5.5-4.16.92-8.28,2.47-12.47,2.69-8.44.43-14.66,3.71-18.15,11.74-2.32,5.35-5.77,9.34-11.82,10.62C328.62,862,328.38,865.58,329.66,870ZM771.38,626.56c-9.18,5.24-16.9,9.43-24.37,14-1.87,1.15-4.16,3.61-4.17,5.48-.06,8.25-1.23,16.74,5.19,23.84,10.93,12.08,21.31,24.67,32.19,36.8,3,3.37,7.24,2.25,9.85-.64,5.61-6.23,10.68-13,11.26-21.94.36-5.63-1-11.06-6.82-13-7.18-2.35-11.59-7.91-16.87-12.58-3.55-3.14-4.88-6.79-4.94-11.47C772.61,641,771.94,634.81,771.38,626.56Zm94.48,42.59V585.95c-6.44.73-11.43,1.53-16.07,6.31-8,8.23-12.87,18.11-17,28.43-2.49,6.22-4,13-2.59,20.14C843.83,648.09,856.54,656.4,865.86,669.16Z"/></g><g id="newGrid"><path class="cls-2" d="M0,0V909.84H909.83V0ZM871.1,790.06c-.1,25.31,0,50.61,0,75.92v11.36H37.58V34.93c3.94-.17,6.92-.41,9.9-.42,15.62,0,31.24.12,46.86-.09,5.76-.08,11.49-1,17.25-1.49,1.82-.16,3.81-.72,5.46-.23,10.82,3.26,21.87,1.66,32.8,1.7,45.63.2,91.26,0,136.89.1Q573.37,34.74,860,35h11.08V46.87q0,124.92,0,249.84c0,14.51,1,29,.94,43.54-.16,43.21-.75,86.43-.91,129.64,0,13.58,1.11,27.16,1.07,40.74Q871.8,650.34,871.1,790.06Z"/></g></g></svg>