<svg xmlns="http://www.w3.org/2000/svg" viewBox="0 0 909.83 909.84"><defs><style>.cls-1{fill:#ce242b;}.cls-2{fill:#fed6af;}</style></defs><title>1_3_frame2</title><g id="Layer_2" data-name="Layer 2"><g id="Layer_8" data-name="Layer 8"><path class="cls-1" d="M873,823.74c-.89,4.81-1.9,7.93-2,11.07-.26,11.69-.2,23.39-.31,35.08,0,2.09-.32,4.18-.59,7.45H38.71c-.4-9-1.06-17.17-1.07-25.36q-.12-113.59,0-227.17V32.5H871V43.73q0,88.19.07,176.38c0,4.51,1.07,9,1.61,13.52a17.51,17.51,0,0,1,.19,3.61c-.58,6.35-1.78,12.68-1.79,19q-.16,218.4-.07,436.79c0,16.26,0,32.53.26,48.79,0,2.8,1.88,5.53,2.24,8.37a21.81,21.81,0,0,1-.31,8.69c-1.39,4.69-2.91,9-1,14.07.86,2.26-1.1,5.48-1.14,8.28-.17,11.69-.24,23.39,0,35.08C871.15,819.23,872.58,822.07,873,823.74ZM222,795c7.49-4.38,14.41-8.72,21.6-12.54,6.89-3.67,14.09-6.75,21.09-10.23a30.31,30.31,0,0,0,5.18-3.6c7-5.58,9.67-13.9,12.59-21.8,4.67-12.68,13.91-22.13,21.47-32.75a28.39,28.39,0,0,1,10.29-8.89c16-7.72,32.34-15.25,50.11-17.27,6.77-.77,12.8-3.14,19.22-4.59,14.52-3.27,21.69-13.12,24.44-27.46,2.59-13.52,8.44-25.45,18.46-35.15a54.7,54.7,0,0,0,14.88-24.81,28.1,28.1,0,0,1,2.06-5c5.64-11.18,11.51-22.25,17-33.53,7.89-16.35,21.84-23.16,38.38-27.22,11.8-2.89,23.37-2.2,35.14-1.25,4.16.33,8.7-1,12.49.3,15.12,5,30,10.75,45,16.26,6.69,2.47,13.16,5.82,20,7.43,12.4,2.9,24.71-.43,36.71-3.07,10.82-2.38,21.2-6.74,31.85-10,19-5.79,38.31-10.26,56.84-17.88,15.46-6.37,32-9.09,48.84-4.44a97.19,97.19,0,0,0,42.22,2.24c5.18-.85,11.26-.55,16,1.48,5.77,2.48,11,2,16.63,1.52a12.47,12.47,0,0,0,.85-2.94c.08-15.39.16-30.79,0-46.18,0-2-.66-4.58-2-5.75-7.9-6.94-16.87-12.45-27.51-12.65-10.87-.21-22,0-32.6,1.94-27.66,5.17-55.12,11.45-82.67,17.25-23.4,4.93-46.54,11.38-70.88,9.79-11.49-.75-57.87-7.16-59.53-9.61,35.77-3,66.09-17.69,96.59-31.76,25-11.53,71.29-49.87,77.42-63.78-11-4.55-22.88-7.67-31.11-17-6-6.86-10.35-14.73-7.9-25,2.91-12.11,11.51-19,20.89-25.32,7.54-5,15.75-3.68,24.21-2.17,4.23.75,8.6,5,14.32.61-5.19-14.86-10.31-29.83-15.71-44.69-.91-2.5-2.82-4.73-4.63-6.75-6.83-7.63-13.68-15.26-20.79-22.63-4.58-4.75-9-10.25-14.59-13.28C713,216.51,705,206,696.07,196.72a178.77,178.77,0,0,0-24-20.5c-9.29-6.69-19.51-12.08-29.42-17.86-7-4.06-46.37-11-48.73-13.19,5.7-1.71,10.06-3.53,14.59-4.25,4.92-.79,10-.5,15-.8,5.73-.34,39.88,1.87,51.28,3,10.35,1,36.92,11.8,40.28,14.09,5.19,3.54,40.48,23.26,49.74,28.93,2.3,1.41,36.84,29.8,45.64,48.26,1.41,3,20.71,20.9,28.46,26.78C844,265,849.72,268,855.35,271c4.41,2.34,7.08.74,7.24-4.36.15-4.59-.64-9.2-.68-13.8-.22-24.93-.35-49.86-.5-74.79,0-3,0-5.93,0-8.32C851,167.26,842,165.17,832.93,163c-3.23-.79-6.59-1.44-9.56-2.87-10.81-5.19-21.44-10.8-32.23-16-10.06-4.88-20.28-9.86-31.4-11.09a79.12,79.12,0,0,1-25.11-7.15,11.21,11.21,0,0,1-4-3.05c-4.58-5.88-9.27-11.71-13.35-17.94-3.68-5.62-8.25-10.54-14-13.11-13.49-6-27.59-8.78-42.35-4.26-3.32,1-7.49,1.82-10.52.68-9.08-3.43-18.45-6.52-26.24-12.78-4.06-3.26-7.67-6.61-9.31-12.07-2.11-7-5.2-13.66-7.79-20.27-12.56-1.66-131.7-1.07-139.4,1,4.19,5,8.06,9.52,11.79,14.15,3,3.73,6.87,7.2,8.55,11.5,4.66,11.9,23.21,42.73,20.11,47.94-4.51,1.48-29.43-20.4-39.59-28.45-7.07-5.6-15-10.13-22.39-15.3C435.74,66.66,425.67,59,413.26,55.55c-4.28-1.2-8.37-3.14-12.53-4.77-13-5.09-26.2-8.83-40.41-8.67-27,.31-54,0-81,0a67.75,67.75,0,0,0-23.12,3.76c-11.27,4-22.9,6.9-34.3,10.53-1.66.53-2.89,2.47-4.09,3.55,2.58,4.82,5.08,8.69,6.77,12.89a26.53,26.53,0,0,1,2.3,10.59,67.7,67.7,0,0,1-8.74,30.75c-4.18,7.38-10.78,12-18.89,13a63,63,0,0,1-30.43-3.61c-12.2-4.69-16.26-31.92-15.85-35.26.33-2.74,1-5.52.8-8.22-.11-1.45-1.55-3.68-2.73-3.93s-3.28,1.06-4.3,2.28c-1.73,2.07-2.67,4.8-4.39,6.89-17.26,21-20.59,46.21-19.55,71.87.91,22.59,10.09,43.48,19.8,63.51,8.24,17,18.21,33.17,28.05,49.31,12.86,21.1,28.94,39.14,50.72,51.31,3.11,1.74,5.81,4.27,8.55,6.62s-72.36-6.09-82.33-15.06c-7.19-6.47-14.53-12.76-21.88-19-12-10.25-24.52-19.92-35.93-30.8A148,148,0,0,1,67.3,236.66c-6.22-9.64-10.09-20.83-15-31.31-1-2.19-2.31-4.26-4.38-8v213c4.26,2.33,8.82,4.19,12.62,7.07,5.33,4,10.79,4.65,17.11,3.45,11.55-2.19,23.2-3.87,36.29-6,1.42-4.92,3.71-10.91,4.82-17.11,2.46-13.72,10-24.34,20.21-32.63,6.72-5.46,11.77-10.37,9.83-19.79-.27-1.33.93-3.85,2.09-4.37s3.59.11,4.86,1.06,1.88,3.1,3,4.49c6.17,7.51,11.87,15.51,18.75,22.28,11.86,11.67,25.93,21,35.9,34.73.53.73,2,.77,3.47,1.29,1.32-9.26,5.47-16.49,10.66-23.49a120.34,120.34,0,0,0,11.39-19.64c2.48-5.17,4-10.85,5.59-16.41.83-2.93,1.6-5.33,5.22-5,4.5.45,4.26,3.79,3.74,6.86-1.49,8.9,1.52,17,4.36,25,1.95,5.54,4.19,11,6.23,16.26l19.05-17.21c-.43-3-.91-7.12-1.64-11.24-2.51-14.18-6.1-28.24-7.43-42.52-2.19-23.63,3.17-46,13-67.63A165.38,165.38,0,0,1,315.75,206c11.24-12.24,25.1-21.69,40.1-29.07,1.54-.75,2.86-1.95,4.36-2.78,12.13-6.68,23.14-15.71,37.36-18A56.45,56.45,0,0,0,409,153.43a105.39,105.39,0,0,1,40.82-6.83c8.68.19,17.28.84,25.93-1.38,3.22-.83,7.18.54,10.64,1.53,11.28,3.24,22.33,7.45,33.74,10,13,2.88,22.89,10.54,32.5,18.8,6.11,5.25,11.19,11.73,17,17.33,18.57,17.83,28.86,40.3,35.18,64.85,5,19.34,7.6,39,5.58,59.09-1,9.74-.94,19.59-2,29.32-1.73,15.94-7.13,30.95-12.6,45.85-1.53,4.16-5.5,7.47-6.72,11.66C586.69,412,580,417.1,575,423.1c-8.44,10.22-19.31,18.22-30.73,25.3-12.58,7.79-25.1,15.49-39.43,19.63-6.35,1.84-13.25,2.95-18.72,6.35-4.77,3-9.21,3.69-14.39,4-17.61,1.08-34.88-1.71-51.34-4.5-2.39,3.5-4.38,6.18-6.12,9-2.67,4.36-6.16,8.55-7.48,13.33a69,69,0,0,0-2.06,19.12c.22,14.78-4.81,27.72-12.83,39.52-8.68,12.76-19.88,23-32.68,31.48-3.22,2.14-6,4.89-9.27,7.54,8.58,5.73,16.47,11.35,19,21.61,2,8,4.2,16,5.49,24.16,1.1,7,1.21,14,6.34,19.64,2.32,2.55,1.08,5-1.4,7.35-2.22-.58-5.15-.48-6.7-1.91-9.26-8.55-20-5.27-30.32-4.12-15.69,1.75-31.23,2.71-46.51-2.38-3.39-1.13-6.64-2.66-10.33-4.16-3.39,8.23-5.75,16.64-10.09,23.82-6.28,10.41-14,19.89-21.09,29.83-5.89,8.32-11.16,16.78-8.45,27.94.63,2.57-.43,5.57-.75,8.67-5.64-.83-8.23-2.73-9.43-7.43S233,727.1,230,723.66c-6.81-7.71-13.53-15.54-22.2-21.54-10.18-7-19.67-15.17-29.17-23.19-3.42-2.89-6-6.84-9.25-10.66-14.78,12.16-29.73,21.33-46.78,25.78,4.08,8.53,7.68,15.93,11.18,23.38,1.95,4.15,4.68,6.58,9.54,7.3,7.72,1.15,15.58,2.47,22.9,5.11,11,4,22.64,7.52,29.78,18,3.73,5.46,6.66,11.51,9.69,17.43C210.65,775,213.76,785.72,222,795Zm99.17-439c3.33,11.83,11.93,20,20.9,27.74a43.87,43.87,0,0,1,5.41,6c6.37,8,10,17.35,13.33,26.9,2.46,7,3.48,7.49,10.71,5.9,13.78-3,26.49-1,39.24,5.67,9,4.67,19.31,6.68,29.07,9.77a8,8,0,0,0,3.6-.17c9.44-1.71,29.87-9,31-9,8.45.14,15.36-4.79,22.88-7.45,9.37-3.32,16.32-10.13,23.29-17.7,9.92-10.77,19.35-21.52,26.57-34.36,5.56-9.88,14.89-17.79,14.91-30.45,8-20.62,6.49-41.05.09-61.88-4.65-15.12-12.74-28.27-20.78-41.38-8.83-14.38-22.94-23.36-36.78-32.24-11-7.08-23.74-5.79-35.9-6.5-11-.64-22.08-1.14-32.93.1-9.44,1.08-19.29-.41-28.4,4.29-4.21,2.17-39.64,16.11-50.72,25.93C337.05,244.63,326.13,266.6,322,292,319.69,306.21,319.28,349.37,321.16,356Zm67.5,512.07H765.41c-8.16-11.79-19.78-16.81-29.66-23.61-.59-2.43-.38-6-2-7.3-8.14-6.57-12.08-16.39-18.74-24.1-3.23-3.73-6.36-7.19-10.52-9.52-6.56-3.66-13.62-6.49-19.95-10.5-7.12-4.52-14.95-8.89-20.14-15.27-6.22-7.64-9.92-17.38-14.84-26.13-3.61-6.42-8.31-10.78-15.93-13.07-8.85-2.66-16.52.35-23.74,3.18A378.71,378.71,0,0,1,569,755.32c-14.68,3.92-28.25,12.16-42.27,18.6a15.12,15.12,0,0,0-3.55,2.8c-13.5,12.32-26.62,25.1-40.58,36.86-10,8.46-21.12,15.17-35.32,14.64-7.74-.29-15.61,1.3-23.32,2.68a25.71,25.71,0,0,0-9.9,4.39A68.21,68.21,0,0,0,388.66,868.09ZM859.33,571.38c-2.45.81-4.34,1.07-5.84,2-9.3,5.71-19.58,4.24-29.17,2.69a70.89,70.89,0,0,0-20.6-.39c-12.59,1.59-25.16,3.56-37.8,4.59-17.37,1.41-34.71,2.88-51.51,7.76-7.52,2.18-14.54,6.4-22.13,8-11.89,2.53-21.1,8.71-28.92,17.69-5.8,6.66-11.13,13.89-17.68,19.7A338.43,338.43,0,0,1,615.57,657c-15.25,10.7-32.81,16.56-50.1,22.84-7.16,2.6-14.16,4.58-21.77.42-4.39-2.4-9.7-3.06-14.6-4.49-7.27-2.13-14.37-3.38-22.22-2.27-8.53,1.21-16.12,4.6-24.14,7-12.45,3.71-22,12.21-33,18.1s-20.08,15.3-29.28,24.17c-7.34,7.07-15.56,13.57-27,13.08a43.48,43.48,0,0,0-13.42,2c-5.18,1.47-11,2.7-15,6-7.69,6.32-14.43,13.88-21.31,21.17-8.27,8.77-14.57,19.43-26.38,24.6C300.46,797,290,811,281.82,827.25c-6.5,12.89-10.37,26.53-13.51,41h37.75a69.27,69.27,0,0,0,17.34-28.89c3.88-13.25,12.27-23.14,21.49-32.41,3.71-3.74,8.79-6.32,13.62-8.63,11.69-5.59,23.64-10.6,35.39-16.05a123.17,123.17,0,0,0,13.46-7.3c10.46-6.54,21-13,31.11-20.07,9.74-6.76,19.66-13,30.84-17,8.3-3,16.51-5.86,20.78-14.79,1-2.1,3.23-3.6,4.92-5.35,9.36-9.72,22.09-13.48,33.62-19.27,10.71-5.37,22.48-3.84,33.85-3.62a64.21,64.21,0,0,0,28-6,297.71,297.71,0,0,0,60.31-37.2c3.09-2.44,6.54-4.41,9.75-6.71,14.55-10.45,29.55-20.35,43.39-31.7,6.1-5,12-6.23,19-5.91,1.49.07,3,.67,4.46.55,19.83-1.56,39.61-3.61,59.57-2.33a51.86,51.86,0,0,0,16.24-1.36c15.21-4,30.37-8.3,45.32-13.2C860.69,587,861.54,584.81,859.33,571.38ZM860.9,752V639.81c-6,1.46-11.46,3.1-17,4-2.9.48-6.19-1.06-9-.34-13.12,3.4-25.88.71-38.17-3-19.31-5.82-36.4-1.87-50.45,11.57-12.9,12.34-28.49,18.91-44.52,23.68-11.94,3.55-20.57,9-27.1,19.46-5.83,9.31-3.5,18.45,6.85,21.68,5.72,1.79,11.75,2.63,17.68,3.62,11.11,1.86,21.54,5.43,30.89,12,3.88,2.71,6.47,6,7,11A140,140,0,0,0,740,760.68c.38,1.6,2.84,4.05,4,3.88,8.34-1.19,16.11,1.9,24,3.31,10.55,1.9,19-1.11,26.88-7.52,3.78-3.07,7.52-6.22,11.5-9,6.17-4.34,12.93-6.28,20.56-4.92C837.86,748.39,848.82,750,860.9,752ZM190,867c-.92-7-5.58-12.8-9-19.12-5.28-9.63-11.76-18.79-11.58-30.5.23-14.22-5.44-26.16-13.9-36.94-3.22-4.11-7.42-6.48-12.62-8.26-9.33-3.19-19.85-2.49-28.18-8.89-4.06-3.12-8.07-6.44-12.52-8.9-5.35-3-6.87-7.18-6.12-12.88,1.22-9.38-2.36-17.4-9.52-22.45-9.65-6.8-11.41-16.41-10.74-26.51,1.23-18.32-.88-35.34-13.34-49.67-4.24-4.88-8.67-9.59-14.3-15.8V868.55ZM233.7,444.83c-2,3.74-3.86,7.44-5.91,11-3.63,6.37-7.2,12.79-11.1,19-2.58,4.11-5.69,7.87-8.55,11.79-2.68,3.67-4.92,7.82-8.16,10.89-3.59,3.39-3.72,8.16-6,12.07-5.17,9-8.87,18.81-9.33,29.44a140.7,140.7,0,0,0,5.63,44.5c3.21,11.4,10,19.22,20.78,23.9,6.18,2.69,6.26,2.86,10.58-2.37,6-7.3,12.23-14.45,18.4-21.63,15.14-17.63,20.24-38.77,20.79-61.45a17.16,17.16,0,0,0-1.38-6.25c-5.43-14.34-11.1-28.58-16.4-43C239.8,463.91,237,454.85,233.7,444.83Zm154,13.53c-4.61.38-7.48.45-10.31.88-14.23,2.14-28.47,4.24-42.66,6.6-14.59,2.42-28.56,6.67-41,15.24-8.32,5.75-8.74,9.81-5.5,19.41,3.77,11.18,7.71,22.78,8.5,34.41,1,14.81-3,29.36-10.5,43.7,4.19-.89,7.91-1,11-2.44C314.11,568,331.13,560,347.57,551c12.8-7,23.21-17.06,25.57-32.6a105.77,105.77,0,0,0,.47-23c-.64-9.22.65-17.53,6.43-25C382.57,467.21,384.5,463.45,387.67,458.36Zm-317.53,2c4.74,12.09,10,23.18,13.41,34.83,3.33,11.32,9.26,20.31,17.43,28.4,9.92,9.83,19.34,20.18,29,30.29,3.06,3.21,6.16,6.37,9.25,9.55-6.21-35.8,3.95-66,28.49-92.83-6.61-3.05-12.09-5.14-17.14-8-14.26-8.11-29.39-9.16-45.16-6.8C94.16,457.47,82.84,458.74,70.13,460.37ZM541.2,575.55c-9.71,2.54-19.1,4.66-28.26,7.52a122.11,122.11,0,0,0-18,7.52,13.53,13.53,0,0,0-7.53,11.79c-.33,5.14,2,9.24,6.44,11.2,6.6,2.88,13.35,6.23,20.33,7.22a155.72,155.72,0,0,0,55.77-1.91c11.51-2.56,19-11.75,11.68-23-3.35-5.16-8.06-10.58-13.42-13C559.82,579.18,550.36,577.91,541.2,575.55ZM861.06,100c-11-3.84-21.58-8-32.43-11.26-14.46-4.4-28.76-9.11-42-16.68A21.39,21.39,0,0,1,776.4,59.7c-.81-2.54-1.95-5.58-3.91-7C764.64,46.78,757.16,40,745.91,42c-5.58,1-11.48.1-17.24.21-2.28,0-4.56.49-6.8.76.87,14,7.44,23.29,18.83,26.21,3.91,1,8.19.5,12.29.75,10.1.64,19.84,2.06,25.26,12.46,2.32,4.44,4.62,8.89,6.78,13.07,3,.66,5.86.78,8.23,1.88a39.54,39.54,0,0,0,16.65,3.43c10.53.13,20.89,1.6,30.63,6.42,6.36,3.15,13.17,5.37,20.51,8.31ZM108.94,598.16a53.66,53.66,0,0,0-16.43-22.3,129.75,129.75,0,0,1-23.8-26.12c-6.54-9.33-13.45-18.4-20.9-28.53,0,17.73-.07,34.5.09,51.27,0,2,1.1,4.13,2.1,6,5.47,10,12.83,17.27,24.69,19.42,6.84,1.24,14.49,2,18.08,9.3Zm90.77,37c-.08,17.29,4.63,27.13,16.63,33.67,4.36,2.38,9.71,6,13.72,5s6.84-6.83,10.2-10.53a18.34,18.34,0,0,0,2.51-2.63c7.47-12.73,10.24-26.07,5.59-40.84-10.65,6-16.17,15.36-21.28,25.86ZM154.54,391.75C141,406.88,143,423.1,158.72,433.29c5.3,3.43,10.44,7.11,15.7,10.61,5.75,3.84,9.73,2.95,13.41-2.95,1.29-2.06,2.42-4.23,3.81-6.21,4.44-6.35,3.2-10.8-3.66-14.69a71,71,0,0,1-11.73-8.16C169,405.51,162,398.73,154.54,391.75ZM288.31,613.51c6.4,5.29,12.79,8.62,16.23,13.93,3.92,6,9,8.17,15,10.45,11,4.2,22.59,3.27,33.83,5.2,4.82.83,6.86-2.1,4.59-6.62a36.36,36.36,0,0,0-6.21-9c-4.64-4.77-9.86-9-14.61-13.64-3-3-6.33-4.74-10.53-4.26-5.93.67-11.84,1.65-17.78,2.26C302.33,612.52,295.8,612.92,288.31,613.51ZM817.07,809.44c3.75,7.08,9.14,11.46,17.7,11.28,3.92-.08,7.84.69,11.77.73,4.72,0,9.45-.27,14-.42,1.6-12,1.27-23.6-.7-29.86C841.15,789.08,827.12,794.48,817.07,809.44ZM308.6,407c-15.77,3.71-26.33,13.25-36.55,23.17a8.32,8.32,0,0,0-1.89,6.62c1.22,5.52,3.29,10.86,5,16.22,2.12-.48,3.21-.4,3.83-.91,7.41-6.19,14.68-12.46,23.87-16.07,3.19-1.25,6.72-3.35,6.57-7.92C309.21,421.21,308.89,414.31,308.6,407ZM121.67,658.27c8.64-2.32,16.56-4,24.1-6.69a15.75,15.75,0,0,0,8.09-6.94c2.83-5.57,4.36-11.82,6.38-17.64l-17.18-10.37C130.86,627.75,119.57,638.87,121.67,658.27ZM827.23,398c-7.53.1-9.45,1.89-9.44,8.78,0,6.59,2.94,9.77,9,9.82s10.2-4.85,9.86-11.5C836.44,400.19,833.44,397.94,827.23,398ZM854,332.21c4.39.19,8.21-4,8.27-9a6.37,6.37,0,0,0-6.76-6.81c-4.52,0-7.87,3.27-8.28,8S849.47,332,854,332.21Z"/></g><g id="newGrid"><path class="cls-2" d="M0,0V909.84H909.83V0ZM871.1,790.06c-.1,25.31,0,50.61,0,75.92v11.36H37.58V34.93c3.94-.17,6.92-.41,9.9-.42,15.62,0,31.24.12,46.86-.09,5.76-.08,11.49-1,17.25-1.49,1.82-.16,3.81-.72,5.46-.23,10.82,3.26,21.87,1.66,32.8,1.7,45.63.2,91.26,0,136.89.1Q573.37,34.74,860,35h11.08V46.87q0,124.92,0,249.84c0,14.51,1,29,.94,43.54-.16,43.21-.75,86.43-.91,129.64,0,13.58,1.11,27.16,1.07,40.74Q871.8,650.34,871.1,790.06Z"/></g></g></svg>