<svg xmlns="http://www.w3.org/2000/svg" viewBox="0 0 909.83 909.84"><defs><style>.cls-1{fill:#ce242b;}.cls-2{fill:#fed6af;}</style></defs><title>2_2_frame2</title><g id="Layer_2" data-name="Layer 2"><g id="Layer_8" data-name="Layer 8"><path class="cls-1" d="M37.38,34.19H872.63V878.25c-6.37,1.82-822.5,2.41-834.74.58C36.19,872.24,35.55,48.43,37.38,34.19Zm827,458.3c-2.67-2.41-5-3.89-6.45-6a159,159,0,0,1-10-15.3c-6.62-11.83-15.38-20.53-29.48-21.8-8.73-.79-17.48-1.43-26.23-1.74-17.46-.62-33.37-4.33-46.16-17.91-5.62-6-6-11.51-3.5-18.28,3.53-9.63,8.11-18.76,10.07-29.09,1.71-9,1.78-16.86-4.7-23.94-1.6-1.74-3.42-4.11-3.52-6.28-.51-10.54-3-20.92,1.12-31.68,3.19-8.36,4.12-17.73,5.21-26.76,1.58-13.06,2.5-26.2,3.47-39.33a167.73,167.73,0,0,0,.65-20.25c-.47-10.08-3.82-13.08-13.67-12.7a51.49,51.49,0,0,0-11.52,2.14c-6.67,1.84-13.22,4.15-19.89,6-6,1.68-11.28.57-15.7-4.36-2-2.23-5-3.56-7.14-5.68-5-4.92-10.52-4.91-16.73-2.7-10.26,3.65-18.3,10.36-25.38,18.33-6.56,7.38-14.56,10.4-24.26,10.26-13.42-.18-24.78-5.24-34.62-14-8.57-7.67-18.92-10.49-29.82-12.18-18.83-2.93-37.77-5.36-56.45-9.08-14-2.79-19.8-10.89-20.6-25.13-.63-11.22.52-13,10.23-17.95,2.65-1.34,6.12-2.85,7.18-5.22,3.74-8.34,7.3-17.12,1.22-26-3.24-4.73-6-10.37-10.46-13.58-10.25-7.42-20.17-15.66-32.62-19.5-6.8-2.09-13.38-4.93-20.2-6.94a23.3,23.3,0,0,1-16.33-18c-2.22-11.62-4.83-23.14-2.45-35.49h-9.33c-28.91,0-57.84-.31-86.74.26-9.54.19-20.28.51-23.22,13.5-.22,1-1.71,1.64-2.57,2.5C277,75.3,256.46,84.47,234.05,90c-13.08,3.21-25.72,2.46-37.95-4.06-7.31-3.89-12-9-12.81-17.6-.25-2.51-1.8-4.94-3-7.29-1.48-2.93-3.41-5.65-4.79-8.63-3.05-6.61-7-10.91-15.27-10.16-11.46,1-23,1.31-34.53,1.45-18,.22-35.91,0-53.87.08-2.65,0-5.3.32-6.44.4-4.79,10.08,1.79,17,5.23,23.93,4.82,9.73,12.74,17.83,18.53,27.15,8.58,13.8,22.1,19.87,36.41,24.08s28.86,6.84,43.38,9.85a139,139,0,0,0,17.92,2.3c16,1.18,32.23-2.9,47.94,2.87.74.27,1.78-.47,2.66-.43,11,.57,21.95,1.12,29.64,10.89.71.9,2.11,1.2,3.08,1.93,9.75,7.34,19.23,14.61,22.19,27.84,2.31,10.34,1.89,20.44,0,30.55-.64,3.34-2.43,7.5-5,9.23-10.54,7-21.13,14.28-32.59,19.45-14.66,6.61-30.31,5.07-45.57,1a24.4,24.4,0,0,0-18.58,2c-12.76,7.09-13.73,19.19-2.28,29,7,5.94,15.74,9,25.14,9.64,5.73.36,11.49,1.74,17.16,1.37,4.61-.3,9.18-2,13.66-3.5a133.46,133.46,0,0,0,13.38-5.41c6.46-3,13.46-5.35,19.24-9.42,12-8.45,24.49-14.33,39.59-12.6,8.74,1,17.28,2,25.23,6.65,7.3,4.24,15.39,6.94,21.92,12.73,10.83,9.61,16.43,21.33,17,36,.46,11.32-3.78,21.46-8.44,30.72-5.72,11.36-12.11,23.17-24.23,29.73a8.63,8.63,0,0,0-3.39,3.93c-1.86,4.2-5.23,6.28-9.09,8.35-7.66,4.11-15.44,4.36-23.79,3-15.66-2.54-29.26,1.46-39.91,14.42,1.9,3,3,7,5.54,8.35a220.23,220.23,0,0,0,28.5,13.5c6.43,2.39,14,1.75,20.43,4.08,10.77,3.88,21.86,7,31.77,13.37,6.39,4.09,11.53,8.9,15,15.55,1.86,3.52,3.34,7.27,5.42,10.64a39.35,39.35,0,0,1,6,22.8c-.72,15.14-3.51,30-11.42,43.14a50.83,50.83,0,0,1-25.22,21.53c-16.72,6.57-33.36,4.46-48.35-3.93a509.39,509.39,0,0,1-50.33-32.76c-15.83-11.49-37.33-11.88-53.06,1.26,1.31,10.68,5.11,19.94,15.68,25.35a89.86,89.86,0,0,1,11.56,7.29c5.25,3.8,7.6,9,7.21,15.69-.49,8.33-6,13-11.48,17.87-3,2.62-6.33,4.83-9,7.7-11.13,11.82-22,14-36.6,7.41-15.72-7.1-26-20.33-34.57-34.18-16.55-26.64-12.7-55.07-3.61-83.29,3.64-11.3,8-22.4,11.07-33.84A56.74,56.74,0,0,0,144,401.17c-2.86-6.74-6.07-8-13-6.14-9,2.42-15.57,11.47-16.75,22.91C113.51,424.63,112,431.3,112,438c0,7.48-3.59,12.52-9.45,15.55a193.06,193.06,0,0,1-25,10.58c-2.38.83-6.34-.25-8.47-1.9-6.7-5.18-12.87-11.06-19.26-16.66-1.23-1.08-2.48-2.12-5-4.28,0,4.66,0,7.64,0,10.62,0,25.53.55,51.07-.23,76.57-.39,12.67,4.84,22.43,11.54,31.94C65.67,574,77.61,585,91.32,594.57c18.55,13,36.92,25.61,59.64,29.91,5.21,1,6.17,3.21,6.23,11-4.49,1-9.12,2.35-13.85,2.91q-19.37,2.27-38.81,3.95c-18.95,1.6-38,4-56.7-1.82-.66-.2-1.59.53-2.3.79-1.39,11.76.45,49.85,2.71,54.46,3-3.14,5.48-6.75,8.83-9.19,16.53-12,35-17.45,55.44-15.81a110,110,0,0,1,11.7,1.57c10.41,2,20.83,4.11,29.1,11.53,3.37,3,6.19,6.71,9.68,9.57a46.56,46.56,0,0,1,12.59,15.5c5.72,11.5,15.52,16.34,27.91,16.89a22.77,22.77,0,0,0,18-7.21c10.57-10.65,12.44-19.17,5.12-32.06-6.84-12.05-8.56-24.7-7.06-38.1,1.79-16.06,5.75-31.27,16.87-43.71,8.61-9.64,18.7-16.4,31.79-17.74,8.79-.9,16.66.48,23.69,6.86,5.51,5,9.92,10.34,12.9,17.23,9.92,22.95,14,46.62,10.92,71.66-1,8.08-.43,16.48.36,24.64.64,6.63,2.73,13.11,4.12,19.66a85.58,85.58,0,0,0,22,41.54,116.84,116.84,0,0,0,10.92,10.8c8.49,6.92,18.28,7.56,27.19,2,8.63-5.39,9.28-14.78,8.78-24.53a219.47,219.47,0,0,1,.5-34.51c1.65-15.41,16.88-28.39,32.18-28.4,8.52,0,16.82,1.28,23.78,7.28,4.83,4.16,10.4,7.44,15.2,11.64a28.78,28.78,0,0,1,6.45,8.65c5.54,11,8.15,23.05,10.08,35.1,2.42,15.08,4,30.3,5.69,45.49a60.12,60.12,0,0,0,16.59,35.68c3.72,3.93,6.51,8.74,9.8,13.09a75.25,75.25,0,0,0,5.53,6.72c2.86,3,5.91,5.82,8.94,8.64,1.74,1.62,3.56,4.35,5.43,4.42,10.72.41,21.49.93,33.36-.34-2.53-2.71-4.08-4.54-5.8-6.17-8.57-8.13-13.45-17.88-13.79-29.84A79.58,79.58,0,0,0,542,822.45c-2.35-13-.83-25.69,1.75-38.54,2.31-11.5,8.19-21,14.48-30.24,5.11-7.5,11.35-14.31,17.7-20.82,4.58-4.69,10.15-8.39,15.45-12.66-4-7.34-8-14.16-11.56-21.24-7.24-14.53-5.93-30.33-3.1-45.13,2.63-13.75,1.83-26.71-.85-39.88-2.73-13.37-9.17-24.38-21.45-31.39-4.21-2.4-7.87-3.87-12.79-2.11-8.24,3-16.81,4.95-25,7.93-18.47,6.7-36.81,13.75-55.2,20.68-5.07,1.91-10,4.37-15.2,5.76q-19.69,5.24-39.59,9.68c-22.54,5.08-75.44.37-76.75-6.92,15.47-5.87,32.22-8.59,46.12-18.52.71-.51,1.78-.48,2.57-.91,12-6.39,24-12.73,35.92-19.27,10.8-5.93,21.5-12.05,32.2-18.15a66.85,66.85,0,0,0,8.49-5.35c9-7.08,48.78-39.15,58.66-49.34,3.34-3.44,7.45-6.25,10.26-10.06,5.52-7.46,13.72-19.86,18.72-27.4-10.33.75-19.21-3.06-26.31-9.19-2.51-2.17-8.85-7.45-9.59-24.1.3-9.53-.24-13.47,3.2-21.12,7.13-15.9,14.71-19.72,21.39-22.36,14.12-5.58,25.21-1.25,38.46,5.15,9.59,4.63,16,12,17,23.28a23,23,0,0,0,1.34,4.31,17.13,17.13,0,0,0,2.88-1.66q13.9-13.14,27.73-26.34c9-8.57,18.26-16.9,26.94-25.8,5.89-6,11-13,16-19.75,4.32-5.83,8.47-11.79,12.52-17.82,7.27-10.81,15.15-21.25,22-32.35,8-13,15.34-26.35,23-39.52,1-1.75,2.32-3.32,3.51-5-.19,9.88-.47,45-2.2,52.33-4.87,20.47-9.08,41.09-14.41,61.49a491.2,491.2,0,0,1-23.64,70c-5.68,13.21-8.36,26.91-3.75,41.12,4,12.41,8.23,24.77,12.41,37.3-4.85,5.27-10.53,10.48-15,16.58-5.62,7.61-10.27,15.95-15.35,24-10.38,16.38-16.42,34.07-15.74,53.72.06,1.83,1,4.62,2.27,5.22,2.63,1.21,4.5-.66,5.19-3.47,1-4.13,2.11-8.24,3-12.39,2.49-11,9.56-19.71,14.55-29.46A256.77,256.77,0,0,1,708.47,518a58.76,58.76,0,0,1,23.33-15.53c17.86-6.76,36.13-12.38,55.11-15.29,3.55-.54,7-2.67,10.47-2.67,14.61,0,28.78,2,41.57,10.24,8,5.11,16.48,9.41,25.38,14.42ZM70.51,381c2.34,0,4.24-.38,5.93.06,8.14,2.15,13.39-2.28,17.53-8.2a90.83,90.83,0,0,0,8.4-15.22A26.35,26.35,0,0,1,116.22,344c10.44-4.38,21.44-4.88,32.47,0a89.58,89.58,0,0,1,29.44,21.09c7.66,8.26,13.71,17.87,14.06,30,.34,11.64,1.16,23.27,1.67,34.9.54,12.21,9.74,24.54,20.47,27.77,13.85,4.16,28.2,3.89,42.36,4.83,9.15.61,13.44-7.38,9.23-15.52-3.88-7.51-9.65-12.94-17.65-15.66a110.23,110.23,0,0,0-12.22-3.38c-7.28-1.57-12.61-5.79-16.61-11.9s-8-12.21-11.75-18.49c-4.76-8-6.71-17.26-3.21-25.58,6.13-14.54,16.37-25.89,32.72-28.82,8.88-1.59,18-1.54,27.07-2.31,8.61-.74,16.76-2.88,23.2-9.15,4.93-4.8,5.1-19.52-.26-21.45-7.52-2.7-15-7.32-23.54-5.3-7.34,1.73-14.48,4.48-21.88,5.8-8,1.43-14.84,5-21.41,9.52a21.07,21.07,0,0,1-7.25,3.59c-8.59,1.77-17.23,3.53-25.94,4.47-11.66,1.25-22.91-.1-32.13-8.61-5.6-5.16-11.08-10.45-16.79-15.48-17.33-15.24-29.91-32.66-33.31-56.85-3.67-26.08,16.19-46.41,37.53-49.39,12-1.67,24.16-1.89,36.27-2.52,5.59-.29,10.78-1,14.38-5.61-1.25-10.35-7.15-16-16.58-16.94-10.2-1.07-20.64-2.22-30.76-1.19-12.34,1.25-24.06-.83-35.94-2.93-14.19-2.51-26.86-8.85-39.49-15.51-7.61-4-14.55-8.58-20.11-15.24-1.21-1.45-3-2.4-4.68-3.67-3.85,20.42,3,38.29,9.65,56,4.39,11.67,10,22.89,15.38,34.17,9.45,19.9,18.78,39.86,28.85,59.44a110.12,110.12,0,0,0,15.39,22.49c4.48,5,5.75,9.58,3.59,16.09-1.9-.43-3.73-.52-5.24-1.26-5.46-2.68-11-5.3-16.18-8.45-8.82-5.33-17.68-10.62-24.79-18.4s-14.58-15.45-22-23c-1.08-1.1-2.82-1.53-5.45-2.89,0,14.81,0,28.26,0,41.72-.05,17.79,6,34.25,10.82,51,.48,1.67,1.82,3.15,2.94,4.57C62.44,371,66.43,375.88,70.51,381ZM234.78,809.51c2.85,1.15,4.79,1.67,6.45,2.66,3.12,1.86,5.93,4.3,9.14,6,12.9,6.71,25.93,13.17,38.86,19.83,5.92,3.05,11.52,6.82,17.62,9.44,9.47,4.07,19.22,7.46,28.87,11.1,8.18,3.09,16.62,5.61,24.46,9.41,3.66,1.77,6.9,3.18,11,3.17,28-.12,56-.05,84-.08,2,0,4-.27,6.45-.45-2.06-5.58-3.88-10.41-5.63-15.28-3.83-10.66-7.74-21.29-11.41-32-2.69-7.84-8.25-13.54-13.76-19.19-4.14-4.24-6.44-4.51-11-.35a67.84,67.84,0,0,0-11.56,13.88c-5.62,8.87-13.1,15.8-20.91,22.48a7.66,7.66,0,0,1-3.36,1.25c-12.81,2.67-25.7,4.34-38.84,3.87a46.88,46.88,0,0,1-19.21-5c-27.62-13.49-37.61-38.07-40.07-66.63-.93-10.76-1.77-21-5.77-31.27-3.15-8.13-7.59-12.72-16.11-15.13-1.52,2-3.61,3.94-4.67,6.33-3,6.89-5.77,13.93-8.44,21-3.49,9.22-6.85,18.47-16.3,23.45-.81.43-2.07.73-2.31,1.39-3.54,9.81-10.91,6.09-17.49,5.17l-18.25-2.53c0,6.14.9,11.44-.17,16.3-3.11,14.17-9.21,26.62-22.55,34.08-2.91,1.63-5.41,4-8.37,5.56a52.18,52.18,0,0,1-10,3.82c-5.84,1.6-11.86,2.55-17.65,4.3-5.4,1.63-7.21,6-7.23,11.47,0,5.34,2.37,9,7.2,10.49,4.56,1.42,9.34,2.89,14,2.92,39.57.23,79.14.13,118.71.13h8.73C261.55,851.52,241.62,836.29,234.78,809.51ZM864.25,279.39c-13.68-3.23-16.49-13.44-16.84-25.24-.05-1.84,0-3.69,0-5.53.1-5.53.5-11.07.25-16.59-.15-3.27-.27-7.62-2.25-9.53a71.77,71.77,0,0,0-16.58-12.23c-9.54-4.88-17.6-10-20-21.86-2.28-11.11-9.51-18.92-20-23.35-7-2.94-13.81-6.28-20.93-8.79-8.19-2.89-16.57-5.27-25-7.43-3.37-.86-7.11-.17-10.57-.8-14.36-2.62-28.71-3.62-43.22-1.21-10.15,1.69-20.36,3.19-30.59,4.23-8.13.83-13.19-2.59-16.55-10.1-1.36-3-2.55-6.18-4.23-10.29-3.17-.1-6.64-.38-10.11-.28-6.89.2-13.56,3.31-20.69.82-5.42-1.9-11.3-2.46-16.66-4.48-6.53-2.47-12.39-5.73-15.75-13-2.77-6-7.36-11.13-11.42-16.44C558.43,91.28,552.55,86,548.91,79.4c-4.69-8.46-11.47-13.81-19.19-18.92s-14.53-11.34-22.51-17.7H475.72c-1.42,6.21,1.2,11.06,3.66,15.94,2.06,4.09,4.65,8,6.05,12.32,4.69,14.45,16.18,20.51,29.34,22.67a50.07,50.07,0,0,1,21.62,8.65c14.58,10.32,25.88,23.84,37,37.71,3.68,4.6,9,7.88,13.85,11.49,4.09,3.08,8.8,5.36,12.62,8.72,5.34,4.7,10.72,5.11,16.74,2,2.15-1.1,4.25-2.28,6.43-3.31,8.11-3.8,16.28-4.65,24.37,0,3.94,2.24,7.8,4.66,11.59,7.16,12,7.89,13.14,8,24.91-.27,4.38-3.09,8.55-4.11,13.44-1.53,4,2.11,8.22,3.83,12.18,6,6.29,3.51,12.74,5.15,20,3.67a134.55,134.55,0,0,1,14.44-1.85c2.08-.19,5.19-.68,6.14.44,4.13,4.87,9.13,1.62,13.64,2.06,3.26.32,6.63-.34,9.94-.7,5.76-.64,9.35,2.23,11.23,7.34s3.93,10.38,4.91,15.75c2.08,11.43,3.64,23,5.18,34.49,1,7.25,2,14.55,2.12,21.84.1,10.3-3.87,19.73-7.67,29.12-4,10-4,20.3-2,30.65,1,5.26,4.12,7.84,9.33,8.37,2.41.25,4.86,0,7.3.1,11.69.33,22,5.29,30.64,12.31,15.41,12.5,17.47,29.75,12.93,48C844.3,395.1,851,407.68,864,411.39a8.72,8.72,0,0,0,.38-1.79q.07-27.21.08-54.41c0-12.07.53-12.46-6.33-21.87-6.66-9.14-14.74-16.56-27.51-16.2-11.72.33-18.16-5-20.3-16.62-1-5.61-.58-11.57-.28-17.34.56-10.64,1.56-21.25,2.24-31.88a8.46,8.46,0,0,0-.94-4.47c-3.16-5.6-2.62-11.51-2.37-18.56,6.39,2.36,9.35,6.4,11.28,11.82,2.22,6.24,3.5,13,9.7,17.16,1.29.85,1.92,3.09,2.36,4.82,3.11,12.1,10.67,21,19.64,29.14,3.67,3.33,7.24,4.9,12.24,3.91ZM750,793.65c-9.4-.65-15.48,5.2-22.25,9.71-9.81,6.55-20,12.1-32.34,12.31-11.8.2-23.6.75-35.37,1.53-2,.13-3.79,2.2-5.67,3.38,1.31,1.84,2.25,4.28,4,5.4,3.57,2.26,7.66,3.68,11.42,5.67a19.78,19.78,0,0,1,7.57,28.12c-2.28,3.68-5.08,7-7.86,10.82,30,1.84,187.57,1,194.59-1,1.63-25.55.86-74-1.28-80.18-3.07,3.61-6.32,7.07-9.16,10.84-14.66,19.41-33.1,31.32-58.15,29.57-7.77-.54-15.94-.56-22.52-6-7.58-6.22-14.84-12.69-18.51-22.3C753.45,798.74,751.56,796.27,750,793.65ZM45.36,870.39H67.29c-.5-7.57-1.11-14.53-1.37-21.49-.16-4.18,1.75-7.3,5-10.27,12.25-11.3,26.9-16.32,43-17,9.36-.37,16.07-4.18,21.22-11.79s4.68-12.9-1.73-19.57c-13.94-14.53-31.63-18.78-50.51-17-12.62,1.19-24.88,3.54-37.53-3.4ZM674.75,43H580.7c1.88,2.64,2.93,4.4,4.25,5.92C591.21,56.2,598,63,603.7,70.71c4.27,5.81,7.13,12.7,10.51,19.15,1.95,3.71,4.65,5.21,8.91,4.46,6.53-1.15,13.48-.84,19.62-3,10.39-3.64,19.5-.48,27.19,5.14,6.35,4.64,13.19,5.68,20.09,7.08,9.77,2,13.76-3,10.67-12.62a48.33,48.33,0,0,0-4.37-9c-2.72-4.76-6.6-9.07-8.28-14.14C685.81,61,681.43,56,676.78,51.49,673.83,48.64,675,46.25,674.75,43Zm72.72,708.31c-1.35-5.54-2.66-9.93-3.45-14.4-2.62-14.83-4.64-29.57,6.68-42.27,2.19-2.46,3.52-5.71,5.22-8.61,9.27-15.83,19.08-31.36,27.65-47.57,9.85-18.64,18.81-37.77,27.71-56.9,3.51-7.54,8.32-14.86,7.86-24.5-4.85.77-10.22-2-12.79,4.49-3.93,9.86-7.46,19.9-11.85,29.54-6.44,14.14-12.29,28.78-20.58,41.79-12.43,19.51-26.38,38.08-40.43,56.48a170.26,170.26,0,0,1-22.66,23.7c-5.37,4.75-11.83,9-18.54,11.3-17,5.73-34.36,9.87-52.62,7.06-6.43-1-8.45,1-10.24,8.21,36.54,7.86,69.46.5,99.2-24.88-.11,16.18-2.76,31.4,8.32,44.81Zm116.68-123-2.38-.49c-1,3-2.63,5.91-2.9,9a51.13,51.13,0,0,1-3.24,13c-10.79,30.05-28.05,56.51-44.17,83.63-.31.52-1.06,1-1.07,1.45,0,2-.28,4.19.55,5.78.37.7,3.32.6,4.77,0,2.22-.89,4.13-2.55,6.23-3.79,9.72-5.73,19.92-3.94,30.13-1.92,6.51,1.28,7,8,10.51,11.9.24.26,1,0,1.57,0Zm0-586.49-38.57,2.38c0,7.73-.11,14.44,0,21.14.1,4.18-.43,8.8,1.12,12.43,3,7,7.12,13.45,11.05,20,6,9.88,14.76,17.87,19,29,1.13,3,3.06,5.94,7.37,6.33Zm-70.69,76c-13.33-23.5-15.87-48.78-16.08-75H735.3c2.2,2.43,4.4,3.6,3.28,7.45-1.06,3.65.42,8.42,1.81,12.32a126.36,126.36,0,0,0,8.19,18.35,184,184,0,0,0,13.07,20.83C769.35,112.15,781,115.41,793.45,117.83ZM146.35,739.76c0-1.8.42-3.21-.06-4.13-4.89-9.31-10.85-17.89-19.94-23.4-11.49-7-23.82-6.58-36-2.05-3.15,1.18-6,4.22-8.06,7.12-4.12,5.94-2.59,12.28,2.84,17.13a22.17,22.17,0,0,0,20.39,5.29c8.25-1.85,16.19-1,24.35-.07C135.21,740.27,140.63,739.76,146.35,739.76ZM552.54,187.66c-2.69-8.77-10.28-12.84-16.11-18.23-1.84-1.7-6.06-.93-9.19-1-1.6,0-3.8,1.6-4.71,1-4.45-3.06-6.22.54-7.67,3.19-3.84,7-1.06,16.7,5.61,21C531,200.46,543.61,198.33,552.54,187.66ZM795.21,362.59c-5.38,6.24-10.11,22.31-8.72,31.87.7,4.83.8,10.48,6.14,13.35,9.27-9.68,13-25.94,10-43.05Zm-212,186.11c-2.59,4.77-.31,8.83,4.06,10.33,6.51,2.23,14.77-.36,18.05-5.67C610.9,544.24,587,541.66,583.16,548.7Zm60.71-50.06c-.17,8.33,2.78,13.1,8,13,4.14-.11,7.27-5.16,7.32-11.81,0-5.23-3.36-8.86-8.27-8.83C646.56,491,644,493.78,643.87,498.63Z"/></g><g id="newGrid"><path class="cls-2" d="M0,0V909.84H909.83V0ZM871.1,790.06c-.1,25.31,0,50.61,0,75.92v11.36H37.58V34.93c3.94-.17,6.92-.41,9.9-.42,15.62,0,31.24.12,46.86-.09,5.76-.08,11.49-1,17.25-1.49,1.82-.16,3.81-.72,5.46-.23,10.82,3.26,21.87,1.66,32.8,1.7,45.63.2,91.26,0,136.89.1Q573.37,34.74,860,35h11.08V46.87q0,124.92,0,249.84c0,14.51,1,29,.94,43.54-.16,43.21-.75,86.43-.91,129.64,0,13.58,1.11,27.16,1.07,40.74Q871.8,650.34,871.1,790.06Z"/></g></g></svg>