<svg xmlns="http://www.w3.org/2000/svg" viewBox="0 0 909.83 909.84"><defs><style>.cls-1{fill:#ce242b;}.cls-2,.cls-4{fill:#fed6af;}.cls-2{opacity:0.41;}.cls-3{font-size:111.15px;fill:#fff;font-family:Georgia, Georgia;}</style></defs><title>burlapCover_1</title><g id="Layer_2" data-name="Layer 2"><g id="Layer_8" data-name="Layer 8"><rect class="cls-1" x="38.47" y="34.65" width="833.76" height="841.05"/><path class="cls-2" d="M38.47,877.34V37c3.16-.17,6.09-.46,9-.47q64.4-.15,128.79-.21,341.15.07,682.3.19H870.3c2,6.91,2.75,826.5.76,840.85ZM632.19,442.63c-12.56-2.1-23.25-7.18-29.79-19.48-2.7-5.08-7.54-8.48-13.3-10.75A147.65,147.65,0,0,1,568,401.8c-7.85-4.66-15.31-10-22.91-15.08-12.14-8.14-24.82-15.56-33.22-28.26-2.16-3.27-5.74-5.56-8.17-8.69-2.94-3.8-6.64-7.69-7.72-12.12a104.83,104.83,0,0,0-14.92-33.4c-6-9.08-13-17.11-21.86-23.24-10.28-7.09-20.61-14.16-31.34-20.51-13.54-8-21.4-19.79-24.33-35-2.68-13.86-5-27.81-7-41.79-2-13.7-2.86-27.58-5.32-41.19-2.41-13.3-5.76-26.5-14.77-37.31C367.68,94.74,359.89,83.19,350,73.84c-9.3-8.82-18.63-18.71-32.46-21-1.71-.28-4.06-1-4.78-2.3-2.54-4.57-6.61-3.72-10.5-3.72q-122.35,0-244.71,0c-3,0-6,.27-9.37.43v122.3a125.82,125.82,0,0,1,41.86-29.06c18.81-8,39.08-9.44,59.39-6.06,9,1.5,17.85,3.95,26.86,5.42,19.32,3.15,36.78,10.7,52.85,21.74,11.57,7.94,22.93,16.2,34.67,23.87,7.11,4.64,14.66,8.62,22.2,12.55,9.86,5.15,20.16,8.47,31.58,7,12.83-1.64,25.11-4.54,35.74-12.58a22.71,22.71,0,0,1,8.27-3.81c3.88-.92,7.24,3.49,5.5,7.07-.73,1.49-2.42,2.64-3.9,3.6-5.39,3.51-11.08,6.58-16.26,10.35-9.6,7-12.36,18.66-18,28.33a49.12,49.12,0,0,0-5.76,16.47c-2.69,16.6-3.34,33.52-9.38,49.54-1.68,4.46-3.51,8.32-6.87,11.68-10,10-19.74,20.13-29.56,30.24-1.49,1.53-2.84,3.21-4.5,5.1,1.84,2.58,3.69,5,5.38,7.54,6.79,10.18,14.18,20,20.14,30.68,7.6,13.59,14.45,27.64,20.87,41.85,7.9,17.48,18.13,33.17,31.88,46.47a17,17,0,0,0,3.74,2.32c3.72,2.05,7.66,3.78,11.17,6.13,10.19,6.83,20.47,13.4,32.36,16.93,9.34,2.77,18.74,5,28.81,3.79.52,2,1,3.43,1.22,4.91.08.48-.42,1.06-1.06,2.51-2.46.26-5.43.45-8.35.93-2,.33-4.31.57-5.88,1.69-13.17,9.44-26.78,18.36-39.1,28.83-13.65,11.6-28.68,21-44,29.81-10.21,5.88-21.77,10.92-33.27,12.64-18.93,2.83-38.18,5-57.52,3.46-4.27-.35-8.59-.92-12.84-.66-11.18.69-21.48-3.25-32-6-6-1.56-11.46-5.8-17.51-7a60.72,60.72,0,0,1-22.56-9.44c-14-9.26-29.3-16.47-41.16-28.8-8.07-8.39-16.29-16.62-24.5-24.87-13.1-13.16-24.89-27.48-36.33-42.1-1-1.23-2.55-2-4.23-3.23-2.1,21.41-1.16,204.1,1.16,211.08,1.94-.74,3.87-1.44,5.77-2.21,3.94-1.59,7.74-3.74,11.81-4.73,15.45-3.75,31.31-6.11,46.4-10.94,13.94-4.46,27.09-2.22,40.76-.21,22.39,3.28,43.25,13.6,66.16,14.29a3,3,0,0,1,.9.19c10.93,3.87,22.23,5.77,33.67,7.57a445.26,445.26,0,0,0,59.21,5c6.92.16,13.72.76,20.46,4.57-2.56,3.11-4.2,5.64-8.29,5.82-24.17,1.07-43,12.43-57.81,31.19-3.42,4.34-6.31,9.09-9.53,13.59-11.54,16.13-20.51,33.5-25.41,52.88-3.1,12.26-6.4,24.46-9.35,36.75-2.15,9-5.94,16.82-13.07,22.83-2.93,2.47-4.91,5.4-3.77,9.69h58.47C273.4,858,279,849.28,286.65,843c8.14-6.66,11.53-13.57,9.51-23.82a12.63,12.63,0,0,1,1.91-8.6c4.14-6.1,10.14-10.15,17.65-10.15a80.48,80.48,0,0,1,18.11,2.09c19.67,4.57,37.74.84,54-10.72,13.84-9.84,28-9.41,42.33-2.6,6.28,3,11.66,7.84,17.71,11.41,7.39,4.37,10.28,11.13,11,19.18a51.49,51.49,0,0,1-.06,9.25c-.5,5.66,1.1,10.11,5.69,13.76,5.22,4.15,8.64,9.42,8.39,16.63-.09,2.55.9,5.15,1.29,7.15h23.08c-.92-7.31-2.52-14-2.46-20.62.17-16.84-5.83-31-16-44.06-3.82-4.92-5.94-11.22-8.62-17-3.16-6.81.49-13.2,1.56-19.74,2-12.41,1.63-23.74-9.85-32.35C454.13,727,447.05,720,440.18,713c-7.69-7.84-7.59-11.8-1.27-20.93,7.68-11.09,15.47-22.11,22.83-33.41C474.3,639.41,492,631,514.61,632c9.78.43,19.62.7,29.38.16,5-.28,10.15-2.06,14.9-4,4.21-1.7,8-4.52,11.91-6.89,11.11-6.67,22.63-8.79,34.84-3.22,10.87,5,21.35,3.42,31.85-1.42a54.37,54.37,0,0,1,11.23-3.26c13.44-2.92,17-5.3,17.27-21.23,0-2.46-.65-5-.2-7.38.9-4.74,1.06-10.46,3.84-13.85,8.06-9.87,16.41-19.89,26.29-27.76,8.12-6.47,18.23-11,28.1-14.56,19.7-7.14,34.32-20.53,47.51-36a13.93,13.93,0,0,0,1.65-16.44c-4.25-7.4-9.55-14.22-14.75-21-2.91-3.81-7-5.64-12-5.74s-10.44-.13-15.33-1.45c-9.84-2.65-19.36-.06-29,.76a13.12,13.12,0,0,0-6.74,2.66c-4.26,3.43-8.11,7.38-12.16,11.08-2.7,2.47-5.2,6.38-8.27,6.94-4.65.86-6.61,4-9.35,6.74-2.37,2.39-4.56,5.06-7.27,7-8.43,6-17.14,11.6-25.59,17.57-10.43,7.37-21.82,12-34.6,12.49-6.09.25-12.22-.27-18.31.1-7.46.45-12.72-3.16-17.78-8-6.82-6.57-13.6-13.3-21.16-18.94-7.83-5.84-16.27-10.5-27.05-9-7.81,1.07-15.87.56-23.8.24-5.6-.23-12.67-2.26-13.45-7.4-1-6.34-5-11.11-5.81-17.08-1.12-7.92-2.25-15.85-2.87-23.82-.45-5.86-2.35-10.64-6.79-14.54q-10-8.75-19.64-17.83c-5.9-5.52-12-10.4-20.66-10.41-2,0-4-1.13-6-1.81-12.28-4.22-24.54-8.53-36.85-12.66-4.27-1.43-5.71-3.52-3.58-7.52,1.17-2.21,3.39-4.67,5.63-5.34,5.19-1.55,10.39-2.12,16,.16,11.19,4.54,22.72,6.5,34.58,1.44,10.56-4.5,21.7-4.4,32.44-1.24,6.91,2,14.67,4.55,19.5,9.42,5.08,5.12,7.71,13.08,10.35,20.2,2.53,6.81,3.72,14.12,5.5,21.22,2.39,9.56,10.86,17.68,19.69,17.51a86.31,86.31,0,0,1,32.21,5.33c10.26,3.81,18.91,8.47,21,20.52.56,3.26,1.75,6.41,2.55,9.64,1.6,6.44,6.29,10.54,11.45,13.64,2.06,1.23,6.29.68,8.56-.7a102.43,102.43,0,0,0,15.39-11.53C617.08,457.59,624.53,450,632.19,442.63ZM498.67,47.49c3,11.22,5.35,21.62,8.68,31.68,2.19,6.64,4.56,13.91,9,18.95,11.16,12.6,22.46,25.24,36.42,35,7.55,5.27,15,10.66,22.21,16.45,14,11.29,26.49,23.78,32.49,41.54,1.46,4.33,3.34,9,6.36,12.24,10.19,10.92,13,23.85,12.55,38.23-.27,8.89,1.3,17.9.45,26.7a114.32,114.32,0,0,1-5.83,25c-3.8,11.31-.55,20.37,6.43,29.12,2.52,3.16,5.34,4.29,8.75,3.37,12.94-3.49,25.8-7.29,38.71-10.89,3.43-1,4.61-3,5.2-6.55a44.43,44.43,0,0,1,4.35-12.92,80.72,80.72,0,0,1,19.3-24.33c5-4.32,7.84-9.86,9.39-16.46,2.3-9.8,2.07-19.49,1.25-29.38-1.84-22.06.76-44.26-3.13-66.38-1.9-10.83-4.14-21.56-9.56-30.57-11.32-18.82-8.66-37.79-2.8-56.8,2.43-7.88,2.5-15.48,3.06-24ZM542.8,866.82H694.7c0-6.86-.89-13.41.2-19.59,1.95-11.06-2.4-19.93-8.63-27.85-7-8.93-11.71-17.95-7.47-29.43,2.23-6,.75-11.23-1.73-16.84-2.58-5.81-5-12.05-5.66-18.3-1.21-12-5.93-22.52-11.7-32.74-3.94-7-9.14-11.24-17.88-8.83-2.84.78-6,.12-9.08.23-10.09.36-17.89,3.7-22.57,13.9-3.59,7.82-3.56,15.56-2.76,23.47,1.21,11.84-3.26,21-12,28.29-4.87,4.09-10.89,7.07-15,11.79-8.56,9.87-15.07,21-12.3,35.07.89,4.54-.78,7-4.71,8.09-3.13-5.81-6.14-11.32-9.06-16.87a14.65,14.65,0,0,1-1.17-3.48c-3.24-13.83-4-27.36,3.61-40.3A66.41,66.41,0,0,0,563,759c3.11-10.31,5.51-20.56,1.08-31.47-2.38-5.84-2.8-12.56-3.66-18.94-.71-5.27,3-8.64,6.51-11.6,4.9-4.17,10.2-7.85,15.38-11.67a10.81,10.81,0,0,1,3.23-1.6c8.69-2.63,17.4-5.18,26.1-7.78,11.11-3.32,22.21-6.63,34-5.2,3.19.39,6.39.7,9.21,1l4.17-23.53c-4.41,1.07-8.91,3.47-12.94,2.82-5.67-.91-10.06,1.42-14.93,2.83s-9.84,3.55-14.89,4.05c-8.7.86-17.56.09-26.24,1.09C578,660.39,566,662.83,554,664.7c-9.08,1.41-13.87,6.34-15.44,15.57a51.78,51.78,0,0,1-3.21,11.47c-3.2,7.56-6.87,14.92-10.4,22.49,1.16,2.38,1.83,5.41,3.66,7.23,6.69,6.62,6.7,14.83,6,23.15-.86,9.63-4.35,18.49-9.09,26.84-3.11,5.48-5.1,11.08-3.34,17.55a63.82,63.82,0,0,1,1.14,8.13c1.49,11,2.69,22,4.56,32.84C530.11,843.07,536.29,854.71,542.8,866.82ZM328.57,530.88c-4.39-1.21-8.53-1.08-10.37-3.08A263.06,263.06,0,0,1,298,503.23c-12.5-17.44-25.56-34.54-33.8-54.75-5.09-12.47-10.95-24.63-16.81-36.76-6.9-14.28-17.1-26.05-28.18-37.23a102.62,102.62,0,0,0-39.84-25c-13.8-4.79-27.55-9.8-41.59-13.76-12.6-3.55-25.65-3.59-40-2.39,2.3,2.5,3.63,4.06,5.08,5.5,5.33,5.33,11,10.37,16,16,7.27,8.15,14,16.8,21.15,25,2.38,2.74,6.12,4.44,8,7.4,7.1,11,13.7,22.27,20.5,33.44,2.37,3.89,4.76,7.78,7.19,11.63,4.41,7,9.54,13.55,13.07,20.93,2.93,6.13,6.48,11,12.54,13.84,8.52,4,17,8.11,25.65,11.86,5,2.17,9.36,4.45,8.94,12-2.51.25-4.93,1.12-7,.56-6.45-1.76-12.82-3.86-19.1-6.18-9.72-3.59-19.71-6.72-28.89-11.42s-17.6-10.93-26.15-16.8c-5.27-3.62-10.6-7.36-15.09-11.88-7.56-7.59-14.54-15.77-21.63-23.83-9.49-10.78-17.8-22.69-30.32-30.47A140.37,140.37,0,0,1,73,380.2c-7.39-6.06-16.05-9.26-25.47-13.68,0,6.17.58,10.88-.13,15.38-1.26,8,3.13,13.6,8.37,17.25,11.67,8.13,20.41,19.08,30.27,29,4.08,4.09,8.55,7.81,12.39,12.11,4.68,5.25,8.46,11.38,13.39,16.35,9,9.11,19.29,17,27.79,26.59,9.29,10.46,20.85,17.62,32.11,25.17,17.83,12,38.38,17.57,59,21.79,18.84,3.85,38.08,5.64,57.17,8.24a34.76,34.76,0,0,0,9.11.34c9.61-1.27,19.18-2.84,28.73-4.47C326.6,534.1,327.19,532.61,328.57,530.88ZM444,52.22c-7.09-4.26-14-3.14-20.8-3-7.2.13-14.41,0-22.23,0,1.42,6.08,5.41,9.27,10.86,11.07,11.52,3.79,18.2,12.8,23.5,22.89,3.55,6.77,6.25,14,9,21.17,2.29,5.93,4.06,12.06,6.19,18.06s4.17,12.14,6.74,18c4.37,10,13.67,15.79,22.45,19.52,7.68,3.27,13.39,8,19.3,12.91l8.48-2c2.24,3.37,3.53,6.84,6,8.71,4.08,3.06,8.68,5.94,13.5,7.37,11.52,3.43,20,10.65,28.79,18.58,12.65,11.44,16.81,34.69,12.16,48.14-2.3,6.64-4.59,13.28-6.75,20-1.13,3.5-1.52,7.3-3,10.6a106.64,106.64,0,0,0-8.37,29.57c-2.36,16,1.62,29.93,10.32,42.77a22.91,22.91,0,0,0,9.81,7.68c6.65,2.76,13.92,4,20.64,6.58a242.08,242.08,0,0,1,22.29,10.32c2.91,1.49,5,4.69,8,6,9.74,4.33,19.65,8.28,29.6,12.09,4,1.51,8.62,1.49,12.23,3.49,17.2,9.54,35.19,8.68,52.25,1.88A91.39,91.39,0,0,1,773.16,401a36.7,36.7,0,0,1,15.25,7.75c6.26,5.71,11.44,12.71,16.64,19.5a45.37,45.37,0,0,1,5.48,10.54c1.72,4.22,3,8.62,4.34,13,1.12,3.7,2.2,7.42,3,11.2.88,4.27,2.75,5.85,7,4.85,2.67-.63,5.22-1.75,7.86-2.54,9.5-2.83,19-5.61,28.91-8.52v-9.93a94.14,94.14,0,0,0-9.27-2c-12.72-1.44-20.79-8.56-26.62-19.82S813,403.27,806.35,392.58c-7.34-11.79-18.2-15.46-31.81-15.78-12-.28-24.51.48-36.16-4.46-2.74-1.16-6.1-2.3-8.85-1.77-11.88,2.28-24.1,2.89-35.16,9.18-6.86,3.9-14.81,4.72-23.07,3.45-10.76-1.66-20.2-6.42-29.83-10.86-5-2.29-10.44-4.26-14.38-7.83-8.09-7.33-15.28-15.67-22.89-23.55A69.32,69.32,0,0,0,597,334c-17.89-13.8-18.06-41.39-5.89-55.26,7.47-8.52,7.34-16.5,2-26.09-4.87-8.77-9.72-18-11.91-27.71a91.6,91.6,0,0,0-14.5-32.52c-4.45-6.39-9.39-12.06-18.07-14.37-6.7-1.78-13.33-6.56-18.29-11.68-10.42-10.77-22.48-18.89-35.62-25.48-14.13-7.08-26-16.17-31.94-31.58a37,37,0,0,0-4.3-8.14c-4.39-6.15-6-13.13-7.49-20.4C449,71,446.23,61.28,444,52.22ZM47.66,809l2,1.25c2.83-2.21,5.78-4.28,8.47-6.65,10.58-9.31,20.91-18.91,31.65-28,22.53-19.13,49.14-30.77,76.28-41.28a95.06,95.06,0,0,1,15-4c1.76-.37,3.78.5,5.72.81-.63,5.26-2.87,8.36-7.18,9.44-12.73,3.21-22.81,11.5-33.81,18a46.81,46.81,0,0,0-11.88,9.73c-7.23,8.51-14,17.43-20.58,26.49a123.28,123.28,0,0,0-10.25,17c-2.7,5.39-4.26,11.35-6.74,16.87-5.51,12.26-11.07,24.43-7,38.72,11,0,21.76.44,32.44-.17a62.69,62.69,0,0,0,18.75-3.77c19.66-7.56,34.71-20.81,42.88-40.53a466.86,466.86,0,0,0,16.6-47c6-20.39,10.81-41.12,25.83-58.85-9.55-1.72-17.8-2.53-25.67-4.75-17.36-4.9-35-4.83-52.74-4.36a130,130,0,0,0-24.59,2.65c-22.43,5-42.59,15.06-60.63,29.39-7.46,5.93-13.45,13.7-14.2,23C46.77,778.17,47.66,793.62,47.66,809ZM819.29,47.42A117.36,117.36,0,0,0,809,93.26c-.07,4.24.79,8.49.83,12.75.06,6.69-1.08,13.5-.16,20,1.93,13.63,4.57,27.15,10,40,2,4.75,3.7,10,3.82,15.1.3,13.12.67,26.4-.94,39.37-1.58,12.7-1.56,25.93-7.5,37.86a16.09,16.09,0,0,0-1.47,6.19c-.66,12.64-7.88,22.89-12.38,34.09a32.79,32.79,0,0,0-2.54,9.38c-1,9.77,2.34,18.23,7.14,26.31a29.2,29.2,0,0,0,22,14.4c10.41,1.06,16.64,5.82,22.2,13.82,3.11,4.47,5.72,9.81,11.59,13.2V47.42ZM219.35,317.54c2.59-4.69,4-8.11,6.16-11.05a51.68,51.68,0,0,0,9.62-37.43c-.21-1.84,0-3.73-.32-5.54a14.66,14.66,0,0,1,5-14.16c5.15-4.48,10.76-8.41,16.42-12.77-4.23-4-9.76-4.57-15.11-5.47-11.64-2-20.88-7-26.9-18-7.68-13.95-21-21.91-35.23-26.08-22.3-6.55-45.47-9.35-68.86-6.05-5.42.76-10.74,2.34-16.17,3-14.74,1.7-26.4,8-33.84,21.42a70.27,70.27,0,0,1-8.39,12.12,16.46,16.46,0,0,0-4.25,11.77c.15,11.73,0,23.47.08,35.2a67.14,67.14,0,0,0,.77,6.73c14.47-8.6,28.09-16.51,41.52-24.71,12.39-7.57,26.54-10.23,39.89-15.16,7.91-2.92,16.15-2,24.22-2.9,16.66-1.82,32.9-.05,47.92,8,2.28,1.21,4.89,4.54,4.83,6.82-.09,3.41-3.34,4-6.95,3.69-4.45-.44-9.31-.62-13.47.71-9.94,3.17-19.7,6.21-29.13,11.72C145.88,266,135.55,274,123,280.65c17.32,5.3,33.85,9.4,49.64,15.45S203.52,310.18,219.35,317.54ZM770.7,866.9c0-10.69-1-20.65.27-30.32,1.32-10.14-2.77-18.24-7.3-26-4.1-7-9.79-13.3-15.51-19.18-9.45-9.7-14.72-21-15.31-34.53-.31-7.05-1-14.12-.77-21.15.51-14.25-6.29-24.43-16.78-32.81-3.35-2.67-6.76-5.27-10.09-8-9.76-7.87-12-17.84-9.17-30.31,2.58-11.37,9.42-20.57,13.74-31,6.63-16,16.57-30.71,25.22-45.89,4.62-8.11,11.62-12.09,21-12.48,11.59-.48,23.21-1.08,34.69-2.55,4.54-.58,10.7-2.47,12.74-5.84,4.6-7.6,11.8-10.18,18.79-13.69,13.28-6.68,26.71-13.08,36.05-25.53,2.95-3.93,5.41-15.65,3.17-19.74-.4-.72-1.69-1.79-1.87-1.67-3.86,2.7-4.94-4-7.78-2.73-6.81,6.58-13,12.9-19.61,18.8a35.42,35.42,0,0,1-9.92,6.38c-9.22,3.79-16.38,10.41-24.23,16.23-11.43,8.48-23.78,14.57-39.06,11.7-11.51-2.16-23.28-2.5-32.55,7.11-5,5.22-10.08,10.41-15,15.7-6.47,6.91-9.61,15.45-11.6,24.53-2.3,10.54-4.77,21-6.93,31.61-.92,4.5-2.13,9.23-1.6,13.66.82,6.79-.75,12.78-3.11,18.89a54,54,0,0,0-3.42,11.5c-1.59,11,.77,21.17,10.11,28s14.62,15.61,16,26.81a46.89,46.89,0,0,0,8.28,21.2c5,7.31,7.32,15.49,4.06,24.48-4.12,11.34-1.65,21.92,4.39,31.81,5.85,9.57,10.24,19.52,10.62,31,.26,7.89.86,15.77,1.33,24Zm-22-819.56c-1.6,9.35-3.31,18.27-4.58,27.25-.76,5.38-.87,10.86-1.15,16.29-.67,13.12-1.77,26.25,1.36,39.25,1.23,5.09,3.13,10.32,2.89,15.4-.61,12.77,6.79,22.36,11.33,33.13,2.72,6.45,6.56,13,7,19.72.81,11.55,0,23.33-1.26,34.88a80.67,80.67,0,0,1-17,42c-7.12,8.94-12.41,18.24-13.41,30.07-1.06,12.48,5,21.18,17.07,22.2,2.39.2,4.81,0,8.52,0,0-4.19,0-8.11,0-12-.11-11,4.6-20.11,11.58-28.12,4.93-5.65,8.52-11.55,9.54-19.37,1.82-14,4.65-27.9,7-41.86.8-4.85,1.8-9.74,1.86-14.62.17-13.62-2.81-26.82-6.11-39.94-3.65-14.48-12.35-26.51-18.87-39.6-5.27-10.58-8.09-22-5.57-33.66,2.32-10.72,6.43-21.08,10.05-31.48,2.32-6.66,2.61-13-.52-19.59ZM861.43,729.53c-3.5,2.89-6.24,4.75-8.5,7.09-5.18,5.38-10.7,9.66-18.36,11.32-4.28.93-8.55,3.61-12,6.51-6.37,5.41-10.48,12-6.72,21,2.76,6.64,1.11,13.32-.48,19.9A65.14,65.14,0,0,1,812,806.83c-4,8.87-.47,14.46,6.84,19.4,11.31,7.64,15.8,19.17,16.7,32.42.18,2.7.4,5.39.6,8.08h25.32Zm-534,137.19h86.48c0-9.41.34-18.23-.11-27-.35-6.88-7.46-13.11-14.46-12.18-8.7,1.15-17.23,3.56-25.83,5.44-4.14.91-8.24,2.45-12.41,2.66-8.4.43-14.6,3.67-18.07,11.63-2.31,5.3-5.75,9.26-11.77,10.52C326.42,858.8,326.18,862.36,327.46,866.71ZM767.33,625.55c-9.14,5.19-16.83,9.35-24.27,13.91-1.86,1.14-4.14,3.57-4.15,5.43-.06,8.17-1.22,16.58,5.17,23.62,10.88,12,21.22,24.44,32.05,36.46,3,3.34,7.21,2.23,9.8-.64,5.59-6.17,10.64-12.9,11.21-21.74.36-5.58-1-11-6.79-12.84-7.15-2.33-11.54-7.83-16.8-12.46-3.53-3.11-4.85-6.73-4.92-11.36C768.55,639.82,767.88,633.72,767.33,625.55Zm94.08,42.2V585.31c-6.41.72-11.38,1.52-16,6.25-8,8.16-12.81,17.94-16.92,28.17-2.48,6.17-4,12.86-2.58,20C839.47,646.88,852.12,655.11,861.41,667.75Z"/><text class="cls-3" transform="translate(283.62 414.74) scale(0.99 1)">Burlap<tspan x="-57.94" y="133.38">Histories</tspan></text><path class="cls-4" d="M561.3,293.38H349.4a121.83,121.83,0,0,1,211.9,0Z"/><path class="cls-4" d="M561.3,595.78H349.4a121.83,121.83,0,0,0,211.9,0Z"/></g><g id="newGrid"><path class="cls-4" d="M0,0V909.84H909.83V0ZM871.1,790.06c-.1,25.31,0,50.61,0,75.92v11.36H37.58V34.93c3.94-.17,6.92-.41,9.9-.42,15.62,0,31.24.12,46.86-.09,5.76-.08,11.49-1,17.25-1.49,1.82-.16,3.81-.72,5.46-.23,10.82,3.26,21.87,1.66,32.8,1.7,45.63.2,91.26,0,136.89.1Q573.37,34.74,860,35h11.08V46.87q0,124.92,0,249.84c0,14.51,1,29,.94,43.54-.16,43.21-.75,86.43-.91,129.64,0,13.58,1.11,27.16,1.07,40.74Q871.8,650.34,871.1,790.06Z"/></g></g></svg>