<svg xmlns="http://www.w3.org/2000/svg" viewBox="0 0 909.83 909.84"><defs><style>.cls-1{fill:#ce242b;}.cls-2,.cls-3{fill:#fed6af;}.cls-2{opacity:0.41;}.cls-4{font-size:111.52px;fill:#fff;font-family:Georgia, Georgia;}</style></defs><title>dataCover_1</title><g id="Layer_2" data-name="Layer 2"><g id="Layer_8" data-name="Layer 8"><rect class="cls-1" x="37.42" y="33.53" width="833.29" height="843.81"/><path class="cls-2" d="M871.33,823.7c-.89,4.81-1.9,7.93-2,11.08-.26,11.7-.2,23.41-.31,35.11,0,2.09-.32,4.19-.59,7.46H37.19c-.4-9-1.06-17.19-1.07-25.38q-.12-113.67,0-227.34V31.88H869.26V43.12q0,88.26.07,176.51c0,4.51,1.07,9,1.61,13.53a17.54,17.54,0,0,1,.19,3.61c-.58,6.35-1.78,12.69-1.79,19q-.16,218.56-.07,437.12c0,16.28,0,32.56.26,48.83,0,2.8,1.88,5.53,2.24,8.38a21.85,21.85,0,0,1-.31,8.7c-1.39,4.69-2.91,9-1,14.08.86,2.26-1.1,5.49-1.14,8.28-.17,11.7-.24,23.41,0,35.11C869.44,819.19,870.87,822,871.33,823.7ZM220.43,795c7.49-4.38,14.41-8.72,21.59-12.55,6.89-3.67,14.09-6.75,21.09-10.24a30.3,30.3,0,0,0,5.18-3.61c7-5.58,9.67-13.91,12.58-21.82,4.67-12.69,13.91-22.15,21.46-32.77a28.39,28.39,0,0,1,10.28-8.89c16-7.72,32.34-15.26,50.1-17.28,6.77-.77,12.8-3.15,19.21-4.59,14.52-3.27,21.68-13.13,24.43-27.48,2.59-13.53,8.44-25.47,18.45-35.17a54.75,54.75,0,0,0,14.88-24.83,28.14,28.14,0,0,1,2.06-5c5.64-11.19,11.51-22.27,16.95-33.55,7.89-16.36,21.84-23.18,38.37-27.24,11.8-2.9,23.36-2.2,35.13-1.25,4.16.34,8.7-1,12.49.3,15.12,5,30,10.75,45,16.27,6.69,2.47,13.16,5.82,20,7.43,12.39,2.9,24.7-.43,36.71-3.08,10.82-2.38,21.2-6.75,31.84-10,19-5.8,38.3-10.26,56.82-17.9,15.46-6.37,32-9.09,48.83-4.44a97.08,97.08,0,0,0,42.21,2.25c5.18-.85,11.26-.55,16,1.48,5.77,2.48,11,2,16.62,1.52a12.49,12.49,0,0,0,.85-2.95c.08-15.4.16-30.81,0-46.21,0-2-.66-4.59-2-5.76-7.9-6.94-16.87-12.46-27.51-12.66-10.86-.21-22,0-32.59,1.94-27.66,5.17-55.11,11.45-82.65,17.26-23.39,4.93-46.53,11.39-70.86,9.79-11.48-.75-57.85-7.17-59.51-9.61,35.76-3,66.07-17.71,96.57-31.78,25-11.54,71.27-49.91,77.4-63.82-11-4.55-22.88-7.68-31.1-17-6-6.86-10.35-14.74-7.9-25,2.91-12.12,11.51-19.06,20.88-25.34,7.54-5,15.74-3.68,24.2-2.18,4.23.75,8.6,5,14.31.61C773.66,295,768.54,280,763.14,265.13c-.91-2.5-2.82-4.73-4.63-6.76-6.83-7.64-13.68-15.28-20.78-22.65-4.58-4.75-9-10.26-14.59-13.29-11.83-6.41-19.76-17-28.73-26.21a178.77,178.77,0,0,0-24-20.52c-9.29-6.7-19.5-12.09-29.42-17.87-7-4.06-46.36-11-48.71-13.2,5.7-1.72,10.05-3.53,14.58-4.26,4.92-.79,10-.5,15-.8,5.73-.34,39.87,1.87,51.26,3,10.34,1,36.92,11.81,40.27,14.1,5.19,3.55,40.47,23.28,49.73,29,2.3,1.41,36.83,29.82,45.63,48.3,1.41,3,20.71,20.92,28.46,26.8,5.06,3.84,10.79,6.85,16.42,9.84,4.41,2.34,7.08.74,7.24-4.36.15-4.59-.64-9.2-.68-13.81-.22-24.95-.35-49.9-.5-74.85,0-3,0-5.94,0-8.33-10.38-2.46-19.44-4.56-28.48-6.77-3.23-.79-6.59-1.45-9.56-2.87-10.81-5.2-21.43-10.8-32.22-16-10.05-4.88-20.28-9.87-31.39-11.1A79,79,0,0,1,733,125.26a11.21,11.21,0,0,1-4-3.05c-4.58-5.89-9.27-11.72-13.35-18-3.68-5.62-8.25-10.55-14-13.12-13.49-6-27.58-8.78-42.34-4.26-3.32,1-7.49,1.82-10.52.68-9.08-3.43-18.44-6.52-26.23-12.79-4.05-3.26-7.66-6.62-9.31-12.07-2.11-7-5.2-13.67-7.78-20.28-12.56-1.66-131.67-1.07-139.37,1,4.19,5,8.06,9.53,11.79,14.16,3,3.74,6.86,7.2,8.55,11.51,4.66,11.91,23.2,42.76,20.11,48-4.51,1.48-29.42-20.41-39.58-28.47-7.07-5.61-15-10.14-22.38-15.31-10.35-7.22-20.41-14.86-32.82-18.34-4.28-1.2-8.37-3.14-12.53-4.77-13-5.1-26.19-8.84-40.4-8.68-27,.31-54,0-81,0a67.68,67.68,0,0,0-23.11,3.76c-11.26,4-22.89,6.91-34.29,10.54-1.66.53-2.89,2.47-4.09,3.55,2.58,4.82,5.08,8.69,6.77,12.9a26.57,26.57,0,0,1,2.3,10.59,67.8,67.8,0,0,1-8.74,30.77c-4.18,7.38-10.77,12-18.88,13A62.91,62.91,0,0,1,167.25,123C155,118.33,151,91.08,151.4,87.73c.33-2.74,1-5.52.79-8.23-.11-1.45-1.55-3.68-2.73-3.93s-3.28,1.06-4.3,2.28c-1.73,2.07-2.67,4.81-4.39,6.89-17.25,21-20.58,46.24-19.55,71.93.91,22.61,10.08,43.51,19.79,63.56,8.24,17,18.21,33.19,28,49.34,12.86,21.12,28.93,39.17,50.71,51.35,3.11,1.74,5.81,4.27,8.54,6.63S156,321.45,146,312.47c-7.18-6.48-14.53-12.77-21.88-19.06-12-10.26-24.52-19.94-35.93-30.82a148.06,148.06,0,0,1-22.43-26.4c-6.21-9.65-10.09-20.84-15-31.33-1-2.19-2.31-4.26-4.38-8V409.94c4.26,2.34,8.81,4.19,12.62,7.07,5.33,4,10.79,4.66,17.1,3.46,11.55-2.19,23.19-3.88,36.28-6,1.42-4.92,3.7-10.91,4.82-17.13,2.46-13.73,10-24.36,20.21-32.65,6.72-5.46,11.77-10.38,9.83-19.8-.27-1.33.93-3.86,2.09-4.37s3.58.11,4.86,1.06,1.88,3.1,3,4.5c6.16,7.51,11.87,15.52,18.75,22.3,11.86,11.68,25.93,21,35.89,34.76.53.73,2,.77,3.47,1.29,1.32-9.26,5.47-16.5,10.66-23.51a120.46,120.46,0,0,0,11.39-19.66c2.48-5.17,4-10.86,5.59-16.42.83-2.93,1.6-5.33,5.22-5,4.5.45,4.25,3.79,3.74,6.86-1.49,8.91,1.52,17,4.36,25,1.95,5.54,4.19,11,6.23,16.27l19-17.23c-.43-3-.91-7.13-1.64-11.25-2.5-14.19-6.1-28.26-7.43-42.55-2.19-23.65,3.17-46,13-67.68a165.52,165.52,0,0,1,28.73-43.8c11.24-12.24,25.09-21.71,40.1-29.09,1.53-.76,2.86-1.95,4.36-2.78,12.12-6.69,23.14-15.72,37.35-18a56.39,56.39,0,0,0,11.43-2.74,105.27,105.27,0,0,1,40.81-6.83c8.68.19,17.28.84,25.93-1.39,3.22-.83,7.18.54,10.63,1.53,11.28,3.24,22.32,7.46,33.74,10,13,2.88,22.88,10.55,32.49,18.81,6.11,5.26,11.19,11.73,17,17.35,18.57,17.84,28.85,40.33,35.18,64.9,5,19.35,7.6,39,5.58,59.13-1,9.75-.94,19.61-2,29.34-1.73,15.95-7.12,31-12.6,45.88-1.53,4.16-5.5,7.47-6.72,11.66-2.43,8.35-9.15,13.47-14.11,19.49-8.44,10.23-19.3,18.24-30.72,25.32-12.58,7.8-25.1,15.5-39.42,19.65-6.35,1.84-13.25,2.95-18.71,6.35-4.76,3-9.21,3.69-14.38,4-17.6,1.08-34.88-1.72-51.33-4.5-2.39,3.5-4.38,6.18-6.12,9-2.67,4.36-6.16,8.56-7.48,13.34a69.11,69.11,0,0,0-2.06,19.13c.22,14.79-4.81,27.74-12.83,39.55-8.67,12.77-19.88,23-32.67,31.5-3.22,2.14-6,4.89-9.27,7.54,8.57,5.74,16.47,11.36,19,21.63,2,8,4.2,16,5.49,24.18,1.1,7,1.21,14,6.34,19.65,2.32,2.55,1.08,5-1.4,7.36-2.22-.58-5.14-.48-6.69-1.91-9.26-8.55-20-5.28-30.31-4.12-15.68,1.75-31.23,2.72-46.5-2.38-3.39-1.13-6.64-2.67-10.33-4.17-3.39,8.24-5.75,16.65-10.09,23.84-6.28,10.41-14,19.9-21.08,29.85-5.89,8.32-11.16,16.8-8.45,28,.63,2.58-.43,5.57-.75,8.68-5.64-.84-8.23-2.73-9.42-7.43s-2.74-9.82-5.78-13.27c-6.81-7.71-13.53-15.55-22.2-21.56-10.18-7.05-19.67-15.18-29.16-23.21-3.42-2.89-6-6.84-9.24-10.67-14.77,12.17-29.72,21.34-46.77,25.79,4.08,8.53,7.68,15.94,11.17,23.4,1.95,4.16,4.68,6.58,9.53,7.3,7.72,1.15,15.58,2.47,22.89,5.12,11,4,22.63,7.53,29.77,18,3.73,5.47,6.65,11.52,9.69,17.44C209.1,774.89,212.2,785.65,220.43,795Zm99.14-439.33c3.33,11.84,11.93,20,20.9,27.76a43.89,43.89,0,0,1,5.41,6c6.37,8,10,17.37,13.33,26.92,2.46,7,3.48,7.49,10.71,5.91,13.77-3,26.49-1,39.23,5.68,9,4.67,19.3,6.69,29.06,9.77a8,8,0,0,0,3.6-.17c9.44-1.71,29.86-9,31-9,8.45.14,15.35-4.79,22.88-7.46,9.36-3.32,16.31-10.14,23.29-17.72,9.92-10.78,19.35-21.54,26.57-34.38,5.56-9.89,14.89-17.8,14.91-30.47,8-20.64,6.49-41.08.09-61.93-4.65-15.13-12.74-28.29-20.78-41.41C531,220.78,516.85,211.8,503,202.91c-11-7.09-23.73-5.8-35.9-6.51-11-.64-22.07-1.14-32.92.11-9.43,1.08-19.29-.41-28.4,4.3-4.21,2.18-39.63,16.12-50.71,26-19.63,17.41-30.54,39.4-34.68,64.85C318.11,305.79,317.7,349,319.58,355.64Zm67.48,512.44H763.72c-8.15-11.8-19.78-16.82-29.65-23.63-.59-2.43-.38-6-2-7.3C724,830.58,720,820.76,713.37,813c-3.23-3.74-6.35-7.2-10.52-9.52-6.56-3.67-13.61-6.49-19.94-10.51-7.12-4.52-14.94-8.9-20.14-15.29-6.22-7.64-9.91-17.39-14.84-26.15-3.61-6.42-8.31-10.78-15.93-13.08-8.85-2.66-16.52.35-23.73,3.18a378.37,378.37,0,0,1-40.94,13.55c-14.68,3.93-28.25,12.17-42.26,18.62a15.12,15.12,0,0,0-3.55,2.8C508,789,494.92,801.76,481,813.53c-10,8.47-21.11,15.18-35.31,14.65-7.74-.29-15.61,1.3-23.31,2.69a25.69,25.69,0,0,0-9.89,4.4A68.25,68.25,0,0,0,387.06,868.08ZM857.63,571.16c-2.45.81-4.34,1.07-5.84,2-9.3,5.72-19.58,4.24-29.17,2.69a70.81,70.81,0,0,0-20.59-.39C789.44,577,776.87,579,764.24,580c-17.36,1.41-34.7,2.88-51.5,7.76-7.52,2.18-14.54,6.4-22.13,8-11.89,2.54-21.09,8.72-28.91,17.71-5.8,6.67-11.13,13.9-17.68,19.71a338.4,338.4,0,0,1-30.11,23.62c-15.25,10.71-32.8,16.57-50.08,22.85-7.15,2.6-14.15,4.59-21.76.42-4.39-2.4-9.7-3.06-14.6-4.5-7.26-2.14-14.37-3.38-22.21-2.27-8.53,1.21-16.11,4.6-24.14,7-12.44,3.71-22,12.22-33,18.11s-20.08,15.31-29.27,24.18c-7.34,7.08-15.56,13.58-27,13.09a43.43,43.43,0,0,0-13.41,2c-5.18,1.47-11,2.7-15,6-7.69,6.33-14.43,13.89-21.3,21.18-8.27,8.78-14.57,19.45-26.37,24.61-16.92,7.41-27.35,21.43-35.55,37.69-6.5,12.9-10.37,26.55-13.51,41h37.74a69.34,69.34,0,0,0,17.34-28.92c3.88-13.26,12.27-23.15,21.49-32.43,3.71-3.74,8.79-6.33,13.61-8.64,11.68-5.59,23.63-10.61,35.38-16.06a123.1,123.1,0,0,0,13.45-7.31c10.46-6.55,21-13,31.1-20.09,9.73-6.77,19.65-13,30.83-17,8.3-3,16.51-5.86,20.77-14.8,1-2.1,3.23-3.6,4.92-5.35,9.36-9.73,22.08-13.49,33.62-19.29,10.71-5.38,22.48-3.84,33.85-3.62a64.14,64.14,0,0,0,28-6,297.59,297.59,0,0,0,60.29-37.23c3.09-2.44,6.54-4.41,9.74-6.72,14.55-10.46,29.54-20.36,43.38-31.72,6.1-5,12-6.24,19-5.92,1.49.07,3,.67,4.45.55,19.82-1.56,39.6-3.61,59.56-2.34A51.8,51.8,0,0,0,801.52,604c15.21-4,30.37-8.3,45.31-13.21C859,586.81,859.83,584.6,857.63,571.16Zm1.56,180.76V639.64c-6,1.46-11.45,3.1-17,4-2.9.48-6.19-1.06-9-.34-13.11,3.4-25.88.71-38.16-3-19.3-5.82-36.39-1.87-50.43,11.58-12.9,12.35-28.49,18.92-44.51,23.7-11.94,3.56-20.57,9-27.1,19.47-5.83,9.32-3.5,18.46,6.85,21.7,5.72,1.79,11.74,2.63,17.68,3.63,11.11,1.86,21.53,5.43,30.88,12,3.88,2.71,6.47,6,7,11a140.27,140.27,0,0,0,2.91,17.21c.38,1.6,2.84,4.06,4,3.89,8.34-1.19,16.11,1.9,24,3.32,10.55,1.9,19-1.11,26.87-7.53,3.78-3.07,7.52-6.22,11.49-9,6.17-4.34,12.93-6.29,20.56-4.92C836.16,748.29,847.11,749.95,859.19,751.92ZM188.43,867c-.92-7-5.58-12.81-9-19.14-5.28-9.63-11.76-18.8-11.58-30.52.23-14.23-5.44-26.17-13.9-37-3.22-4.11-7.42-6.49-12.62-8.27-9.33-3.19-19.85-2.49-28.17-8.89-4.06-3.13-8.07-6.44-12.52-8.91-5.35-3-6.87-7.18-6.12-12.89C95.7,732,92.12,724,85,718.94c-9.65-6.81-11.41-16.42-10.74-26.53,1.23-18.33-.88-35.37-13.33-49.71-4.24-4.88-8.67-9.6-14.3-15.81V868.55Zm43.72-422.48c-2,3.74-3.86,7.44-5.91,11-3.62,6.38-7.2,12.8-11.1,19-2.58,4.11-5.68,7.88-8.55,11.8-2.68,3.67-4.92,7.83-8.15,10.9-3.59,3.39-3.72,8.16-6,12.08-5.17,9-8.87,18.82-9.33,29.46a140.93,140.93,0,0,0,5.63,44.53c3.21,11.41,10,19.23,20.77,23.92,6.18,2.69,6.26,2.86,10.57-2.37,6-7.3,12.23-14.46,18.39-21.65,15.13-17.64,20.23-38.79,20.79-61.49a17.19,17.19,0,0,0-1.38-6.25c-5.42-14.35-11.1-28.6-16.4-43C238.24,463.61,235.48,454.54,232.14,444.51Zm153.93,13.54c-4.6.38-7.48.45-10.31.88-14.23,2.14-28.46,4.25-42.65,6.6-14.58,2.42-28.55,6.68-40.94,15.25-8.31,5.75-8.74,9.82-5.5,19.43,3.77,11.19,7.71,22.8,8.5,34.44,1,14.82-3,29.38-10.5,43.73,4.19-.89,7.9-1,11-2.44,16.9-8.15,33.91-16.13,50.35-25.16,12.79-7,23.21-17.08,25.56-32.63a106,106,0,0,0,.47-23c-.64-9.23.65-17.55,6.43-25C381,466.91,382.9,463.15,386.07,458.05Zm-317.46,2c4.74,12.1,10,23.2,13.41,34.85,3.33,11.33,9.26,20.32,17.42,28.42,9.92,9.84,19.34,20.19,29,30.31,3.06,3.21,6.16,6.37,9.24,9.56-6.21-35.82,3.95-66.05,28.48-92.9-6.6-3.06-12.09-5.14-17.14-8-14.26-8.12-29.38-9.17-45.15-6.81C92.62,457.17,81.32,458.43,68.61,460.06Zm471,115.27c-9.71,2.54-19.09,4.66-28.26,7.53a122,122,0,0,0-18,7.53,13.54,13.54,0,0,0-7.53,11.8c-.33,5.14,2,9.24,6.44,11.21,6.6,2.88,13.35,6.23,20.33,7.22a155.54,155.54,0,0,0,55.76-1.91c11.51-2.56,19-11.76,11.68-23-3.35-5.17-8.06-10.59-13.41-13C558.18,579,548.72,577.69,539.57,575.33ZM859.35,99.47c-11-3.84-21.57-8-32.43-11.27-14.46-4.4-28.75-9.12-42-16.69a21.4,21.4,0,0,1-10.25-12.4c-.81-2.55-1.95-5.58-3.91-7.05-7.85-5.88-15.33-12.64-26.57-10.63-5.58,1-11.48.1-17.24.21-2.28,0-4.56.5-6.8.76.87,14,7.44,23.31,18.82,26.23,3.91,1,8.18.5,12.29.76,10.09.64,19.83,2.06,25.25,12.47,2.32,4.45,4.62,8.9,6.78,13.08,3,.66,5.85.78,8.23,1.88a39.49,39.49,0,0,0,16.65,3.43c10.53.13,20.88,1.6,30.63,6.42C845.2,109.81,852,112,859.35,115ZM107.4,598A53.69,53.69,0,0,0,91,575.64a129.8,129.8,0,0,1-23.79-26.14c-6.54-9.33-13.45-18.41-20.89-28.55,0,17.74-.07,34.53.09,51.31,0,2,1.1,4.13,2.1,6,5.47,10,12.83,17.28,24.68,19.43,6.84,1.24,14.48,2,18.07,9.31Zm90.75,37c-.08,17.3,4.63,27.15,16.63,33.7,4.36,2.38,9.71,6,13.71,5s6.83-6.83,10.2-10.54a18.35,18.35,0,0,0,2.51-2.64c7.47-12.74,10.24-26.09,5.58-40.87-10.64,6-16.16,15.37-21.27,25.88ZM153,391.39c-13.54,15.14-11.53,31.38,4.18,41.57,5.3,3.44,10.44,7.11,15.69,10.62,5.75,3.84,9.72,2.95,13.41-3,1.29-2.06,2.42-4.23,3.81-6.22,4.44-6.35,3.2-10.8-3.65-14.7a71,71,0,0,1-11.73-8.17C167.42,405.17,160.47,398.38,153,391.39ZM286.74,613.32c6.4,5.29,12.79,8.63,16.23,13.94,3.92,6.05,9,8.17,15,10.46,11,4.2,22.58,3.28,33.82,5.21,4.81.83,6.86-2.1,4.59-6.62a36.39,36.39,0,0,0-6.21-9c-4.64-4.78-9.86-9-14.6-13.65-3-3-6.33-4.74-10.53-4.26-5.93.67-11.83,1.65-17.77,2.26C300.75,612.33,294.22,612.73,286.74,613.32ZM815.37,809.39c3.75,7.09,9.14,11.46,17.69,11.28,3.91-.08,7.84.69,11.76.73,4.72,0,9.45-.27,14-.42,1.6-12,1.27-23.62-.7-29.88C839.44,789,825.42,794.42,815.37,809.39ZM307,406.66c-15.77,3.71-26.32,13.26-36.54,23.19a8.33,8.33,0,0,0-1.89,6.62c1.22,5.53,3.29,10.86,5,16.24,2.12-.48,3.21-.4,3.82-.91,7.41-6.19,14.68-12.47,23.86-16.08,3.18-1.25,6.72-3.35,6.57-7.92C307.62,420.88,307.31,414,307,406.66ZM120.13,658.11c8.64-2.32,16.55-4,24.1-6.7a15.75,15.75,0,0,0,8.09-6.95c2.83-5.57,4.36-11.83,6.38-17.65l-17.17-10.38C129.32,627.57,118,638.69,120.13,658.11Zm705.4-260.43c-7.53.1-9.45,1.89-9.43,8.79,0,6.6,2.94,9.78,9,9.83s10.2-4.85,9.86-11.5C834.74,399.84,831.74,397.58,825.53,397.67Zm26.75-65.86c4.39.19,8.21-4,8.27-9a6.37,6.37,0,0,0-6.76-6.82c-4.51,0-7.87,3.27-8.28,8S847.77,331.62,852.28,331.81Z"/><path class="cls-3" d="M35.54,190.41c29.8,32,75.71,46.58,118.1,51,22.42,2.32,44.26.95,66.38-3,24.72-4.47,62.74-7.72,73.88,21.88,1.94,5.17,2.89,10.6,7.34,14.31a19.73,19.73,0,0,0,11.67,4.3c11.87.56,17.15-8.27,21.92-17.72,2.94-5.82,5.48-11.9,9.32-17.21a82.4,82.4,0,0,1,13.24-14.07c9.73-8.33,21.1-14.65,32.81-19.74s24.17-9.79,36.76-11.65a103.76,103.76,0,0,1,21.08-.86c6.4.37,13,.94,18.59,4.31,10.21,6.12,17.88,19.2,15.66,31.28-1.95,10.61-9.79,19.24-15.17,28.25-5.76,9.65-9.19,20.64-4.77,31.55,4.21,10.4,13.76,17.76,23.84,22,25.35,10.72,53.81.27,80.14,5l-1.49-3.67c-4.43,8.87-5.27,21.78,3.22,28.67,9.57,7.77,23.89,1.34,31.48-6.16,11.26-11.14,14-27.18,14-42.4,0-18.89-1.59-37.88-2.5-56.75l-1.36-28.29c-.42-8.62-2-18.58,1.86-26.64,5.39-11.29,19.85-16.47,31.57-16.85,15.28-.5,27,9.16,37.7,19,12.48,11.5,24.77,23.35,37,35.15,7.33,7.1,14.54,14.32,21.92,21.37,6.49,6.2,13.23,12.05,18.89,19,10.6,13.09,20.76,31.2,16.56,48.59l3.08-1.75c-16.83-2.27-38.67-6.42-50.85,8.83C718.5,329.23,716,348,723.91,360.27c8.51,13.15,28.12,17,42.41,18.9,16.92,2.3,33.3.93,50.23.53,18.54-.45,43.69,4.22,49.15,25.07.81,3.11,5.64,1.79,4.82-1.33-3.84-14.65-16.72-22.89-30.73-26.36-15.27-3.78-30.35-1.39-45.81-1.25-16.47.14-33.84-1-49.37-6.91-6.68-2.54-14-6.36-17.42-13-3.61-7-3.58-15.89-1.52-23.36,2.6-9.48,8.87-17,18.64-19.38,10.58-2.59,22-.47,32.57,1a2.56,2.56,0,0,0,3.08-1.75c7.16-29.64-18.19-54.74-37.42-73.16-13.1-12.55-26.1-25.17-39.31-37.61-11.24-10.58-21.65-22.29-34.57-30.9-10.15-6.77-20.94-9.17-33-7-10.68,1.89-22,7.41-27.65,17.08-3.58,6.13-4,13.33-3.81,20.27.29,9.63.91,19.26,1.37,28.88.9,18.78,1.9,37.57,2.71,56.36s.34,41.7-17.28,53.1c-5.88,3.8-15.76,6.64-21.1.46-4.94-5.71-3.82-14.74-.7-21,.66-1.32.2-3.37-1.49-3.67-11.82-2.13-23.9-1.45-35.84-.92s-24.7,1.7-36.44-1.38c-10.83-2.85-22.05-9.31-27.38-19.54-5.7-10.94-1.26-22,4.84-31.69,5.2-8.24,11.71-16.25,14-25.93,2.41-10.21-1-20.68-7.34-28.81-6.88-8.87-15.65-12.78-26.59-13.94a100.42,100.42,0,0,0-38.17,3c-22.63,6.55-45.63,16.28-63.2,32.34-9.63,8.8-15.24,18.78-21,30.26-2.63,5.19-5.41,12.12-11.23,14.34-5.25,2-12.44.91-16.18-3.53s-4.16-11.28-7.08-16.34a41,41,0,0,0-11.42-12.45c-9-6.63-20.05-9.79-31.15-10.45-14.7-.87-29.15,2.49-43.54,4.94a190.69,190.69,0,0,1-32.36,2.55A236.1,236.1,0,0,1,102.2,225.2c-23.43-8-46.1-20.06-63.12-38.32-2.2-2.36-5.73,1.18-3.54,3.54Z"/><path class="cls-3" d="M498.8,313c-10.72-4.81-22.82-1.26-31.76,5.71-10.71,8.34-13.76,21.5-18.15,33.69-2.64,7.33-5.91,14.53-11.5,20.11-5.26,5.25-12,8.77-19,11.12-12.91,4.35-27,5.63-40.57,6.47-13.1.81-28.64,1.41-38.77-8.38-9-8.7-12.31-21.7-18.18-32.41-10.82-19.73-39.44-44.67-63-29.91-4.42,2.76-6.58,6.85-8.52,11.53a214.05,214.05,0,0,1-11.9,23.58c-9.06,15.93-19,31.61-24.54,49.21l4.18-1.1c-5.51-4.69-10.76-9.69-16.14-14.52S190.27,378,184.19,374.39c-12.77-7.62-27.49,7-34,16.71-4.14,6.18-6.8,13.22-10.76,19.51-5.15,8.17-11.79,11.22-21.45,11.3-9.07.07-18.12-1.9-27.19-.71-9.88,1.3-17.33,7.51-26.48,10.77-4.4,1.57-9.52,2.19-13.95.39-5.15-2.09-6.05-6.12-5.27-11.1.69-4.38.31-9.55-5.63-7.12-2.94,1.2-1.65,6,1.33,4.82,2.63-1.07-.76-.45-.14-1.57-.2.36-.06,1.18-.21,1.62a17.6,17.6,0,0,0-.57,3.6,13.91,13.91,0,0,0,1,7.67c2.81,5.77,9.54,8.17,15.59,8.15,7.81,0,14.52-3.9,21.25-7.41,9.66-5,18.51-5.53,29.18-4.69,8.32.65,17.39,1.56,25.26-1.91,5.52-2.44,9.3-7.34,12.33-12.39,7.47-12.43,13.57-30.6,29.65-34.33,8.22-1.91,16.09,7.53,21.66,12.48,6,5.3,11.72,10.83,17.8,16a2.53,2.53,0,0,0,4.18-1.1c4.77-15.14,13-28.83,20.88-42.5,4.07-7.05,8.16-14.13,11.73-21.46,2.22-4.57,3.54-10.06,6.57-14.18,8.75-11.9,27.52-5.9,37.42.66,11.55,7.65,19.82,18.56,25.64,31,4.7,10,8.71,21.1,17.48,28.39,9,7.48,20.82,8.58,32.1,8.48a214.83,214.83,0,0,0,37.81-3.78c12.18-2.32,24.64-6.65,33.61-15.59,10.87-10.84,13.24-26.27,19.13-39.82,5.59-12.87,21.57-25.49,36.23-18.91,2.91,1.31,5.46-3,2.52-4.32Z"/><path class="cls-3" d="M216.66,393.42c-4.13,15.86-16.86,28.19-27.65,39.86a383.11,383.11,0,0,0-29.94,37.56c-9.32,13-17.84,27.05-21.81,42.72-3.89,15.36-3,31.56,1.12,46.78a99.75,99.75,0,0,0,20.41,38.88,82.12,82.12,0,0,0,16.44,14.6c6.13,4.11,12.85,6.33,19.35,9.66,3.9,2,8.23,5,6.9,10.06-1.15,4.36-5.15,8.41-8.22,11.5-6.18,6.21-13.64,10.93-21.3,15.08-13.15,7.13-28.11,15.11-43.48,15-9-.08-16.1-4-20.17-12.23-4.15-8.35-7.29-15.17-15.52-20.25-8-5-17.5-7.74-26.3-11L33.8,619.4c-3-1.13-4.32,3.7-1.33,4.82l30,11.18c8.86,3.31,18.33,6.07,26.57,10.79a28.49,28.49,0,0,1,9.84,8.67c2.63,4,3.93,8.64,6.33,12.74A24.47,24.47,0,0,0,119.83,679c13.5,3.76,28.56-1.79,40.67-7.51,14.76-7,30.31-14.78,40.65-27.83,4.13-5.21,7.84-11.84,3.75-18.17-3.75-5.82-11.29-7.67-17.2-10.38-14.7-6.74-26.52-18.55-34.62-32.43a98.12,98.12,0,0,1-13.36-47.82c-.22-18.24,6.48-35,16.06-50.25a322.91,322.91,0,0,1,35.73-46.67c11.69-12.67,25.48-26,30-43.19.81-3.12-4-4.45-4.82-1.33Z"/><path class="cls-3" d="M867.49,516c-8.26,7.38-20.42,4.11-30.17,2.3a131.15,131.15,0,0,0-15.7-2.25c-5.52-.35-10.64.73-16.1,1.18-11.21.94-22.42-2.3-33.37-4.19-10.49-1.81-20.14-2.2-30.46.7-24.63,6.92-47.05,19.77-71.27,27.85-25.32,8.45-52.69,8.5-78.72,3.26-24.7-5-47-18.08-72.39-19.71-11-.71-22.35.56-32.67,4.68-9.91,4-19,10.73-27.83,16.73-9.46,6.46-16.67,15.57-25.92,22.36a117,117,0,0,1-31.45,16.48,105.45,105.45,0,0,1-34.67,5.76c-12.8-.1-25.13-3.21-37.44-6.42-13.36-3.48-27.18-7.31-41.13-6.47-11.89.71-23,5.41-32.75,12.09-8.88,6.09-16.29,13.9-23.86,21.48a168.66,168.66,0,0,1-31.76,25.6c-2.75,1.67-.24,6,2.52,4.32a161.28,161.28,0,0,0,28.31-22c7-6.76,13.53-14,21-20.3,8.74-7.31,19.32-13.5,30.65-15.53,13-2.34,26.29.67,38.85,3.85,12,3,23.9,6.59,36.23,7.85a105.53,105.53,0,0,0,33.3-2,121.26,121.26,0,0,0,58.47-32c4.23-4.16,8.3-8.15,13.28-11.45,4.59-3,9.28-5.87,13.81-9A63.57,63.57,0,0,1,509.88,530c12-.54,24,1.61,35.45,5.24,12.73,4,24.78,9.58,37.81,12.78,24.49,6,51.75,7.89,76.42,1.9,25.1-6.1,47.79-19.09,72-27.71,6.11-2.18,12.55-4.53,19-5.49,6.19-.93,12.62-.14,18.74.86,11.88,1.94,24.07,5.65,36.21,4.62,6-.5,11.56-1.58,17.62-1.07,6.77.58,13.39,2.18,20.08,3.27,9.85,1.61,19.9,2.16,27.81-4.89,2.41-2.15-1.14-5.67-3.54-3.54Z"/><path class="cls-3" d="M195,632.37c4.41,6.85-4.72,12.82-9.37,16.66-6.24,5.16-13.52,10.61-16.87,18.25-6.18,14.07,20.84,19.68,28.94,24.3,19,10.83,29.76,33.32,39.86,51.74a14,14,0,0,0,3.13,4.38c1.77,1.48,4.06,1.77,5.95,3,4.74,3.07,5.07,9.62,5.83,14.7.68,4.62,1.53,9.33,4.39,13.15,3.21,4.28,8.18,6.07,12.32,9.2,10.56,8,9.11,23,6.61,34.47-3.39,15.49-8.55,30.72-12.92,46-.89,3.1,3.93,4.42,4.82,1.33,4.12-14.36,8.73-28.68,12.28-43.19,2.34-9.57,4.08-20.36,1-30a25.25,25.25,0,0,0-6.63-10.77c-4.23-4-10.65-5.69-13.93-10.62-5.47-8.23-1.26-20.8-9.73-27.55-1.81-1.44-4.08-1.77-6-3-2.06-1.34-2.94-3.77-4.08-5.85-2.69-4.93-5.38-9.86-8.24-14.69-5.7-9.63-12.08-19.07-20.06-27-6.83-6.77-14.14-10.78-22.87-14.47-5-2.11-19.67-6.51-15.67-14,4.67-8.76,14-14,21-20.66,5.15-4.92,8.84-11.12,4.51-17.84-1.74-2.7-6.07-.19-4.32,2.52Z"/><path class="cls-3" d="M568.28,313.19c.68-17.49-2.08-33.08-13.75-46.67-11.9-13.87-30.44-28.88-26.29-49.44,3.41-16.91,18.94-28.71,28.37-42.27,2.27-3.26,3.88-7,6.39-10.11A49.57,49.57,0,0,1,573,156c6.64-4.7,13.68-9,20.61-13.22s16.29-4.59,24.26-4.79a242.73,242.73,0,0,1,26.85,1.27c17.41,1.51,34.73,4.43,51.28,10.17,32.42,11.25,61.51,31.28,84.95,56.08,13.46,14.24,26.14,29.32,40.83,42.35,12.72,11.29,27.36,21.36,44.47,24.12,3.15.51,4.5-4.31,1.33-4.82-16.75-2.7-30.92-12.6-43.28-23.74-13.38-12.06-25.15-25.76-37.43-38.91C775.11,192,762.93,180.49,748.55,171c-15-9.87-30.74-18.81-47.63-25.1-15.89-5.92-32.54-9.17-49.36-11-17.26-1.87-37.09-4.43-54.06.68-6.95,2.09-13.16,7.06-19.25,10.89-7,4.39-14.62,9.12-19.69,15.78-2.38,3.12-4,6.75-6.26,10-2.83,4.07-6,7.86-9.24,11.64-5.45,6.43-11.18,12.86-15.24,20.3-4.48,8.22-6.36,17.48-4.21,26.7,2.24,9.57,8.33,17.71,14.64,25,7.12,8.23,15.66,15.66,20.42,25.62s5,20.9,4.61,31.63c-.12,3.22,4.88,3.21,5,0Z"/><path class="cls-3" d="M748.58,511.48c-24.59,9.36-45.33,28.59-61.9,48.55-17.23,20.75-27.79,45.57-43.44,67.35-16,22.26-40.83,38.77-67.33,45.67a111.9,111.9,0,0,1-21.48,3.41,47.6,47.6,0,0,1-21.71-3.73,57.35,57.35,0,0,0-40.13-1.34c-16,5.1-30.34,14.65-43.81,24.4a319.61,319.61,0,0,0-39.42,33.79c-2.27,2.29,1.26,5.82,3.54,3.54a312,312,0,0,1,35.5-30.88c12.34-9.15,25.44-18.22,39.77-24a66.24,66.24,0,0,1,21.94-5.09c7.92-.3,14.78,1.8,22.06,4.67,6.31,2.49,12.13,4,18.94,3.76a120.75,120.75,0,0,0,20-2.32c24.58-5,49.13-18.42,66.26-36.81,18.12-19.45,28.11-44.57,43.14-66.19A204.92,204.92,0,0,1,711,541.77c11.45-10.4,24.33-19.92,38.88-25.46,3-1.13,1.69-6-1.33-4.82Z"/><text class="cls-4" transform="translate(336.96 413.22) scale(0.99 1)">Data<tspan x="-128.07" y="133.82">Mappings</tspan></text></g><g id="newGrid"><path class="cls-3" d="M0,0V909.84H909.83V0ZM871.1,790.06c-.1,25.31,0,50.61,0,75.92v11.36H37.58V34.93c3.94-.17,6.92-.41,9.9-.42,15.62,0,31.24.12,46.86-.09,5.76-.08,11.49-1,17.25-1.49,1.82-.16,3.81-.72,5.46-.23,10.82,3.26,21.87,1.66,32.8,1.7,45.63.2,91.26,0,136.89.1Q573.37,34.74,860,35h11.08V46.87q0,124.92,0,249.84c0,14.51,1,29,.94,43.54-.16,43.21-.75,86.43-.91,129.64,0,13.58,1.11,27.16,1.07,40.74Q871.8,650.34,871.1,790.06Z"/></g></g></svg>