<svg xmlns="http://www.w3.org/2000/svg" viewBox="0 0 909.83 909.84"><defs><style>.cls-1{fill:#ce242b;}.cls-2,.cls-5,.cls-6{fill:#fed6af;}.cls-2{opacity:0.41;}.cls-3{font-size:111.5px;fill:#fff;font-family:Georgia, Georgia;}.cls-4{font-size:54.84px;}.cls-5{font-size:127.95px;font-family:AdobeSongStd-Light-GBpc-EUC-H, Adobe Song Std;}</style></defs><title>fuCover_1</title><g id="Layer_2" data-name="Layer 2"><g id="Layer_8" data-name="Layer 8"><rect class="cls-1" x="36.59" y="33.14" width="834.57" height="843.7"/><path class="cls-2" d="M38.78,33c-.52,3.72-.84,69-1,161.85,0,17-.05,34.84-.07,53.43-.24,248.43.49,623.61,1.81,628.33q138.73,0,277.77,0c92,.12,184-1,276-.2,92.53.81,185.07.18,277.88.18V33Zm824,147.12c.06,4.9-3.83,7.16-6.37,9.82-4.31,4.53-6.73,9.71-9.14,15.31-5.43,12.6-8,26-10.41,39.26-3.06,16.9-2.53,34.39,3,50.33,4.47,12.89,9.74,26.27,19.4,36.83,1.53,1.67,3.23,4,3.28,6.08.33,11.16.15,22.33.15,35.49-11.84-12.48-22.22-23.54-32.76-34.46-5.81-6-12.54-11.26-17.71-17.79-6.12-7.73-10.93-16.52-16.46-24.75s-4.39-17.59-4.43-26.92a90.9,90.9,0,0,1,10.15-42.92,151.3,151.3,0,0,1,12.34-20c12.14-16.52,25-32.54,37-49.17,4.44-6.16,7.31-13.47,11.94-22.23C862.73,151.48,862.62,165.8,862.79,180.12Zm-1.51-136c.91,5.14,1.88,10.31-1.49,16.58-5.93-5.09-14-6.32-15.33-14.9C850.17,42.86,850.17,42.86,861.28,44.08ZM668.16,63.3c5.14-4,27.13-17.5,32.23-18.88,9.83-1.14,10.44-1.22,19.46-.59A19.59,19.59,0,0,0,723,43.7c3.09-.28,6.83,1.28,11.21,2-2.26,2.14-3.57,3.65-5.13,4.82-13.44,10.12-23.75,23.1-32.92,37.06-5.91,9-11.51,18.21-16.9,27.53a65.81,65.81,0,0,0-5.3,12.47c-1.4,4.29-2.22,8.78-3.23,13.2-.92,4.09-1,7.91,4.64,10.25,1.75-2,4.4-3.79,5.5-6.32,6.72-15.45,19.29-25.72,32-35.21a140.62,140.62,0,0,1,44.9-22.78c12.05-3.51,24.17-6.35,37-5.51,6,.4,10.2,3.06,12.06,7.76,3.4,8.55,8.47,15.06,17.2,19.21-6.39,14-16.37,22.46-28.57,29.24a88.73,88.73,0,0,1-25.18,9.14c-16.08,3.47-31.9,7.64-48.35,10-17.07,2.44-33.68,8.92-50.16,14.6-8.83,3-13.48,11.74-19.12,18.78-.54.68-.94,1.47-2,3.1-7.95-13.85-18.37-25.63-20.88-41.69-2.75-17.62-2.44-34.36,7.3-50.57C645.71,86.54,655.06,73.39,668.16,63.3ZM391.3,41.62h37.33c.3.67.83,1.29.7,1.66-6.08,16.89-4.49,34.25-2.32,51.41,2.31,18.38,5.73,36.62,12.6,54,4.07,10.27,9.47,19.23,18.29,26.45,10,8.17,18.78,17.77,28.1,26.75,5.61,5.41,11,11.12,16.89,16.16,10.32,8.77,18.3,19.09,23.06,31.91,2.73,7.31,5.9,14.47,8.38,21.86,3.72,11.07,4.12,21.92-4.78,32.93,0-4.94-.28-8.66.05-12.31a31.06,31.06,0,0,0-7-22.93,28.58,28.58,0,0,1-3.17-4.25c-7.25-13.77-27.65-16.68-41.58-9-12.2,6.76-18.61,23.55-15.53,37.62.44,2,.74,4.14,1.1,6.21L462,301.26c-7.91-8.66-17.19-16.42-23.41-26.18-9.48-14.86-20.08-29-25.8-46.48-6-18.35-13.31-36.29-17.39-55.25-1.4-6.49-1.78-13.23-2.26-19.88-1.65-22.69-3.13-45.4-4.65-68.1C387.57,70.8,389,56.4,391.3,41.62Zm128,378.82c.83,9.18-3.2,12-10,13.4-5.84,1.2-11.59,2.93-17.6.84-.52-3.29-1-6.45-1.53-9.72Zm-21.7-42.9L505,365.65c8.25,4.19,9.76,7.34,8.55,13.94-.64,3.48-2.47,5.54-5.53,6.43-3.36,1-5.74-.55-7.23-3.76A39.89,39.89,0,0,0,497.59,377.54Zm-434.71-244a29.4,29.4,0,0,0-16.34-12.14V44.85c44-7,87.85,2.39,132.21-4.34,0,7.39.43,13.43-.09,19.38-.94,10.78-.26,21.3,3.1,31.58,1.26,3.86,2.32,7.75,3.25,11.68,2.83,12,4.28,24.3,5.68,36.59.41,3.62.48,7.29,1.16,10.86,1.62,8.44-2.82,15.58-5.47,22.73-3.77,10.14-2.31,19.88-.3,29.47,2.72,13,4.76,26.33,11.36,38.21.84,1.51.94,3.42,1.51,5.65-1.47.52-2.81,1.36-4,1.63a2.47,2.47,0,0,1-1.12,0l-.15,0c-3.52-.81-6.77-1.28-10.25,0-.33.12-.66.25-1,.4-1.55.7-3.84.11-5.75-.4l-.34-.09c-27.89-7.48-50.76-22.65-69.86-44.59-8.57-9.85-17.41-19.27-23.23-31.08-2.52-5.14-4.29-10.67-7-15.71Q73.23,151,70,145.27,66.57,139.3,62.89,133.52Zm2,102.38c-.73-2.78-3.18-5.09-4.85-7.61-.2.83-.4,1.66-.74,3.14-3-2.36-5.76-4.27-5.4-8.4-.34-5.06-4.43-7.38-7.56-10.32V189.64c2.82,2.92,4.7,4.51,6.17,6.44,14.65,19.07,29.67,37.86,48.85,52.2q5.32,4,11.09,7.46a498.53,498.53,0,0,0,47.63,25c12.05,5.58,22.19,12.22,29.68,23.81,8,12.38,17.11,24.34,30.86,31.16a110.71,110.71,0,0,0,10.79,4.37c13.42,5,27.21,9.06,39.29,17.15a36,36,0,0,1,3.61,2.69,6.78,6.78,0,0,1,2.12,3.36c-7.64-4.11-16.63-2.6-24.28-8.46-5-3.81-13-4.11-19.84-4.87-13.91-1.54-26.89-5.95-39.65-11.41C186.62,336,183,331,179,326c-6.25-7.91-13-15.44-19.69-22.94-1.33-1.49-3.57-2.17-5.42-3.17-5.54-3-11.13-6-16.65-9-11.93-6.62-24.09-12.9-35.69-20.08a246.51,246.51,0,0,1-24.28-17.79,51.25,51.25,0,0,1-5.14-4.67A28.19,28.19,0,0,1,64.93,235.9ZM319.39,448.8c-6.53-8.8-14.61-11.95-24.74-11.47-3.62.17-6.46-.38-8.25-3.94-2.57-5.1-5.28-10.12-8.25-15.79,8.81-8.41,19-9.14,29.24-7.57,15.86,2.44,27.1,10.84,30.34,27.73,1.48,7.75,2.69,15.55,4.25,23.28,1.74,8.61,3.28,17.3,5.76,25.7,1.75,5.94,1.68,11.14-.92,16.74-2.95,6.32-5.36,12.9-7.85,19.45-4.74,12.46-14.09,20.15-25.58,25.75-2.41,1.18-5.68,1.92-7,3.91-3.77,5.89-8.67,5-14.25,4.17a229.92,229.92,0,0,1-56.89-16.43c-9.76-4.24-19.89-9.2-26.07-18.63-7.69-11.73-12.85-24.51-13.38-38.94-.64-17.39,3.33-33.74,10.21-49.45,4.08-9.31,11-15.4,20.83-18.67,16-5.31,18.57-4.19,23.7,11.43,1,3,2.86,6.23,5.29,8,10.66,7.72,7.31,12.73,4.38,21.2a20.57,20.57,0,0,1-4.49,6.8c-11.09,12-9.68,33.48,4.34,46.81.88.83,2,1.41,2.82,2.28,10.52,11.14,19.1,9.93,34.53,2.75,6.71-3.13,12.66-8.29,18.29-13.28C328.25,489.54,329.37,462.29,319.39,448.8ZM61.58,808.09c-1.7,2-2.59,4.77-3.49,7.33-2.51,7.24-2.44,7.27-11.54,10.48-.16-2.45-.42-4.73-.43-7,0-10.67.14-21.33-.08-32-.11-4.87,1.61-8.14,6-10.13,12.46-5.65,24.31-11.94,38.29-14.62a130.67,130.67,0,0,0,52.39-22.86c1.92-1.4,3.38-3.42,5.11-5.08,2.76-2.65,5.57-5.26,8.36-7.88l1.72,1.21c-.25,7-2,13.05-7.15,18.72-5.56,6.18-11.6,11.42-18.87,15-6.08,3-12.77,4.67-19.11,7.17-10.89,4.3-22,8.44-30.59,16.83C74.87,792.42,68.25,800.29,61.58,808.09Zm-15-58.3V572.42l1.36-.45c1.74,4.17,3.77,8.23,5.13,12.52,2.53,8,4.42,16.3,7.07,24.3,1.78,5.36,3.49,11.14,6.83,15.46a148,148,0,0,0,33.27,31.66C111.1,663.41,121.31,672,127,684.67c3.28,7.32,2.32,13.35-2.64,20.17C115.51,717,104,722.65,89.73,725.2c-6.48,1.16-12.45,5.77-18.41,9.23C63.42,739,55.75,744.06,46.56,749.79ZM100,866.19c.94-3.56,1.77-5.84,2.13-8.21,1.85-11.8,9.78-19.41,21.59-19.81,5.33-.17,10.7,1.22,16,1.05a191.84,191.84,0,0,0,21.44-2c7.74-1.11,14.12,1.22,18.94,7.16,6,7.45,7.75,12,9.07,21.69C159.67,866.32,130.37,866.12,100,866.19Zm217.49-8c-5.69,5.11-10.75,8-18.7,8.32-11.34.44-20.49-1.59-27.43-11.32-8.49-11.89-21.82-17.89-32.84-26.71a30.09,30.09,0,0,1-7.08-8c-5-8.54-9.82-17.21-14.23-26.07-3.24-6.49-.89-13,1.36-19.3,1.19-3.38,2.37-6.77,3.3-10.22,2.52-9.29,5.63-18.48,7.2-27.93,4.3-26.1,3.91-51.33-16.6-71.7-3.61-3.59-6.83-7.59-10.32-11.31-12.24-13.06-28.53-20-43.44-29-2.73-1.65-6.18-2.22-9.38-2.91a110.5,110.5,0,0,1-36-14.1c-10.37-6.46-14.68-16.38-15.2-27.49-.44-9.53,1.91-19.2,3-28.82.36-3.27,1.3-6.74.66-9.82a207.59,207.59,0,0,0-6.45-24.53,78.3,78.3,0,0,1-4.53-30.44c.41-6.68.42-13.39.35-20.09a58,58,0,0,0-3.06-18.72c-2.24-6.53-3-13.58-4.22-20.45s-2.12-13.81-9.08-17.69a8.2,8.2,0,0,1-2.33-2.73c-7.88-11.83-15.84-23.61-23.51-35.58a17.49,17.49,0,0,1-2.69-8.36c-.34-8.82-.13-17.66-.13-27.45,19.79,5.9,36.52,14.92,50.1,29.14,9.24,9.67,15.8,21.29,21.64,33.27a172.72,172.72,0,0,1,8.3,19c1.13,3.28,1,7.21.65,10.78-.77,8.11-1.75,16.22-3.15,24.24-.87,5-2.57,9.84-4,14.71-.87,2.88-2.68,5.62-2.91,8.52-.81,10.29-1.15,20.61-1.61,30.93-.19,4.23-.7,8.52-.26,12.7.59,5.66,2.06,11.21,2.93,16.85,2.19,14.06,7.79,26.07,16,38,12,17.37,28.07,27,47,33.42,14.89,5,26.66,14,37.73,25.38,15.44,15.88,23.26,35.65,31.92,55.14A38.47,38.47,0,0,1,253.3,703c0,14.88-.67,29.75-.95,44.63a102.1,102.1,0,0,0,.44,14.6c.8,6.31,3.69,11.4,9.79,14.32,5.16,2.48,10.18,5.3,15.09,8.25,9.66,5.8,18.31,12.73,24.79,22.26,5.6,8.23,11.57,16.21,17.53,24.19C327.05,840.7,327.3,849.38,317.44,858.22Zm297,5.69A26.56,26.56,0,0,1,602.25,859c-5.76-4.09-12.73-6.75-19.51-9-3.8-1.26-5.9-3.43-8.25-6.32-7.09-8.74-14.3-17.41-22-25.55-3-3.11-7.28-5.17-11.33-6.85-6.87-2.86-14.28-4.46-21-7.64a186.22,186.22,0,0,1-24.9-14.15c-2.4-1.65-3.12-6.25-4-9.66-3.91-14.87.8-14.5,11.55-13.36,16.17,1.71,32.38,4.62,44.4,17.3a173.29,173.29,0,0,1,15.11,19c3.14,4.41,7.08,6.79,12,8.87a202.18,202.18,0,0,0,35.87,11.79c12.08,2.65,19.79,9.4,24.29,21.54,2.68,7.25,8.93,13.14,14.94,21.54C636.55,865.61,625.46,865.25,614.48,863.91Zm140.91,1.6c-3.08-6.17-8.48-9.91-14.33-12.94-8.27-4.3-16.83-8.05-25.05-12.45-10.84-5.79-22-11.12-30.74-20.29-3.86-4-6.62-8.31-7.77-13.94a80.2,80.2,0,0,0-5.13-16.17c-.9-2-3.82-3.68-6.15-4.43-6-1.91-12.13-3.33-18.26-4.75a119.69,119.69,0,0,0-15-2.93A67.89,67.89,0,0,1,608,770.49c-7.7-4-15.64-7.53-23.64-10.86-9.67-4-14.63-12.06-18.48-21.08-5.58-13.06-10.42-26.47-16.48-39.29-7.36-15.58-20.61-24-36.95-27.66a198.1,198.1,0,0,0-22.11-4,83.12,83.12,0,0,0-17.84.15c-9.41,1-18.74,1.12-27.77-1.65s-15.5-9.44-19.55-17.7a107.12,107.12,0,0,1-7.58-22.33,22.58,22.58,0,0,1,.85-12.4c6-15.86,12.95-31.33,18.79-47.23,8.44-23,12.56-46.3.71-69.65-2.06-4.06-3.89-8.23-5.78-12.37a50.52,50.52,0,0,0-11.83-17c-3.51-3.19-6-7.49-9-11.32-1.48-1.92-2.63-4.21-4.43-5.75a47.37,47.37,0,0,1-15.81-25.46c-.44-1.85-2.52-3.28-4.67-5.91-2.73,6.08-3.38,10.36-2.06,15.29,1.23,4.61.88,9.66,2.24,14.19A96.58,96.58,0,0,0,404,481c5.51,6.9,11.64,13.2,10.13,23.16-.15,1.06.73,2.27,1.09,3.41,3.51,10.88,1.1,21.44-1.8,31.92q-2.69,9.64-6,19.1c-4.6,13.15-8.58,26.69-22.57,33.58-4.83,2.39-9,6.15-13.61,9-7.49,4.6-12.62,11.09-16.28,19-6.89,14.9-1.17,31.81,13.43,42.06,7.52,5.29,14.13,11.93,21,18.11a12,12,0,0,1,3.66,5.09c2.22,7.87,8,12.29,14,17.09,4.82,3.86,8.84,9,12.3,14.25,6,9.08,12.1,18.3,16.85,28.09,6.58,13.55,13.93,27.18,12.72,43.11-1,13.16,4.38,24.94,7.45,37.21.55,2.19,2.38,4.09,3.74,6,3.28,4.68,6.9,9.14,9.88,14a27.39,27.39,0,0,0,12,10.48,57.14,57.14,0,0,1,13.31,9c-8.12,1.92-16.06,1.42-23.94,1.5-8.13.09-16.26,0-24.08,0-2.19-4.3-4-8.06-6-11.74-5.43-10.17-10.27-20.75-16.57-30.33a276.83,276.83,0,0,0-22.73-29.43c-3.3-3.79-5-7-4.33-12,.78-6.31.54-12.74.89-19.11.19-3.64-.14-7.59,1.18-10.83,3.38-8.29,2.27-16.82,2.39-25.29a18.74,18.74,0,0,0-7.37-15.1c-8.72-7-17.48-14.07-27-19.89-14.33-8.78-25.48-20-32.65-35.42-3.29-7.07-8.54-13.22-9.18-21.45-.12-1.5-1.08-3.34-.52-4.42,6.17-12,9.2-25.9,20.51-34.79,8.79-6.9,17.45-14,26.38-20.7,11.56-8.66,18.55-20.37,23-33.9.86-2.6,1.56-5.26,2.64-7.77,5.2-12.09,6.91-24.16,2.41-37.11-4.1-11.84-9.19-22.54-18.8-31.07-6.85-6.09-11.1-13.74-9.06-24.22,2.59-13.31-.75-26.68-3.64-39.5a34.66,34.66,0,0,0-13.92-20.63c-8.91-6-16.78-13.75-27.1-17.58-10.5-3.91-16.79-11.18-18.15-22.75-1.72-14.53-10.95-23.89-22.29-31.6a21.52,21.52,0,0,0-2.36-1.33C272,301.7,269.42,290,268,276.47c-1-9.38-1.55-18.79-2.3-28.2-.94-12-2.16-24.07-4.83-36-3-13.3-4.11-27-8.81-40a103.93,103.93,0,0,1-5-18.39c-1.81-10.88-3.06-21.83-4.57-32.77-.26-2-.55-4-.84-5.93-2.69-18-5.6-36-8.38-54a40.25,40.25,0,0,1-.5-5.41c-.08-3.73,0-7.46,0-12.05,14.56-3.12,30-3,45.9-1-1.36.93-2.66,1.94-4.06,2.77C262.35,52.89,256.4,64.19,256.1,78a99.48,99.48,0,0,0,8.7,43.3c3.26,7.25,6.38,14.39,7.49,22.31.14.9.24,1.8.31,2.72,1.14,14.24,2.52,28.48,4.28,42.65,1,7.81,3.39,15.45,4.29,23.27,1.35,11.76,1.24,23.72,3,35.4,0,.19.06.38.1.58,1.9,11.54,7.82,22.37,6.22,34.61,3.59,6.67,6.5,13.89,13.22,18.21,14,9,21.59,23.34,30.24,36.85a92.31,92.31,0,0,0,11.73,14.68c1.74,1.77,5.72,3.08,7.86,2.29,3.33-1.22,3.92-5.15,2.77-8.63-1.79-5.42-2.88-11.42-6-16-12.41-18.46-16.29-40-21.87-60.81-2.08-7.8-1.46-16.31-2.2-24.49-1.22-13.62-2.62-27.22-3.77-40.84-.38-4.5.53-9.22-.47-13.53-2.68-11.48-6.11-22.78-9.2-34.15-2.78-10.18-5.92-20.29-8.11-30.6-1.65-7.77,1.4-15.05,4.79-21.93,7.94-16.08,16.16-32,27.5-46,2.5-3.09,2-6,2-9.32-.05-5.71,1.34-7.37,6.64-7.44,13.24-.16,26.51-.05,41.16-.05-2.12,4.44-3.86,7.78-5.31,11.25s-1.79,7.33-3.79,10.21c-8.06,11.55-10.53,25.1-13.49,38.32-3.85,17.2-6.22,34.63-5.55,52.45.44,11.72-1.44,23.55-.64,35.22.88,12.94,3.55,25.76,5.55,38.61,2.72,17.49,8.16,34.25,14.66,50.6a107.15,107.15,0,0,0,12.65,22.85,384.79,384.79,0,0,0,27.21,34c7.21,7.9,16,14.25,24,21.45,6.74,6.09,12,13.44,16.5,21.32a72.56,72.56,0,0,0,5.77,9.2c5,6.22,7.31,13.71,9.67,21,8.53,26.44,11.59,53.19,2.82,80.35-3.82,11.79-7.51,23.63-10.71,35.61a104.58,104.58,0,0,0-3.45,20.5c-.73,12.41-1.75,25-.63,37.29,1.29,14.21,5,28.26,15.19,39.13,7.21,7.69,14.33,15.82,22.81,21.83,6.92,4.91,15.74,7.17,23.87,10.19,3.33,1.24,7.1,1.21,10.57,2.13,8.7,2.31,17.29.92,25.77-.87,11.15-2.36,22.18-5.27,33.27-7.9.47-.12,1.08.35,1.45.48-.94,12.94-2.56,25.83-2.65,38.73-.13,17.7,5.66,33.39,16.65,47.65,8.43,10.95,18,20.62,29.17,27.9,17.94,11.74,37.79,19.3,59.77,13.2,7.28-2,13.93-6.33,21.5-9.89a10,10,0,0,1,1.85,2.7c1.29,3.58,2,7.39,3.5,10.88,3.45,8,6.63,16.26,11,23.72a158.94,158.94,0,0,0,16.38,22.67c5.87,6.81,13,12.53,19.26,19,6.7,6.87,13.09,14,19.78,21.25C785.14,866.57,769.27,867.09,755.39,865.51Zm-173-505.87c-1.48,2.25-5.69,4.37-8.16,3.89-4.75-.9-5.95-5.22-5-9.8l9.33-4.27C581.08,352.36,585.5,355,582.42,359.64Zm4.6,28,.06-.12.39,0c3.5-2.55,7-5.11,10.48-7.67l1.25,2c-3.9,1.89-6.68,5.78-11.73,5.62l-.23.16-.23-.06c-2.36,4.54-6.21,6.11-11,5.88C579,390.09,581.73,386.24,587,387.66Zm-5.17,50.16a38.37,38.37,0,0,0,5.67-5.85c7.58-9,18-14,27.57-20.17.87-.57,2.24-.36,4.09-.6L546.8,480c1.07-3.16,1.24-5,2.17-6.25C558.8,460.75,568.75,447.83,581.85,437.81Zm151.4,230.52c1.74,3.24,4.53,5.71,8,4.83,11.47-3,15.51,4.89,19.55,13,5.48,10.93,6.57,21.93.22,32.94-3.09,5.35-5,11.08-11.53,14.39-4.19,2.12-6.3,8.45-9.94,13.76l-5.79-7c10.36-9.28,11.74-22.35,14.23-34.64.83-4.06-1.71-9.5-4.17-13.36-2.2-3.45-5.14-7-10.88-6.39-5.54.64-11.28-.7-17-.87-3.55-.1-6.62-.82-8.4-4.18-2-3.72-.87-7.31,1.59-10.15a129.06,129.06,0,0,1,9.76-9.4c9.28-8.65,18.52-17.34,27.9-25.86,4-3.62,8.25-6.88,13.27-11,1.4,3.24,2.11,4.87,3,7-6.73,6.52-13.4,13-20.05,19.44a104.3,104.3,0,0,0-8.32,8.34C732.59,661.66,731.37,664.81,733.26,668.33ZM696,513.38c-13.21,21.34-26,43-40.6,63.38-10.8,15.14-24.16,28.41-36.16,42.69-2.31,2.74-4.36,4-9.31,1.4,12.82-18.09,25.3-35.46,37.52-53,8.79-12.63,17.25-25.49,25.87-38.24a44.28,44.28,0,0,1,4.11-5.75c8.37-8.9,12.77-20.4,19.58-30.31a48.47,48.47,0,0,1,7.71-8.85c1.47-1.31,4-1.37,6.11-2l1.26,1.61C706.79,494,701.87,504,696,513.38ZM862.72,730.3c0,2.07-.19,4.16-.39,8.19-10.84-16.71-21-31.73-30.48-47.17C823.53,677.78,816.18,663.64,808,650c-5.52-9.19-11.45-18.19-17.76-26.85-7.1-9.74-11-19.41-3.86-30.91a35.09,35.09,0,0,0,3.55-9.32c3.06-11.34,7.85-22.64,8.44-34.14a343.81,343.81,0,0,0-1.68-57.07c-2.21-19.26-11.42-35.75-23.75-51-8.65-10.73-19.56-18.53-28.94-28.17-2.59-2.66-6.83-3.73-10.39-5.37-13.42-6.2-27-11.47-42.28-9.84-4.75.5-9.65,0-14.45-.44-15.37-1.27-29.73,3.65-44.52,7.38-14.76-13.92-22.54-31.17-22.57-51.47,0-8.72,1.72-17.56,3.62-26.13,2.78-12.53,1.91-25-1-37-3.45-14.11-8.26-27.9-12.82-41.73-1.3-3.94-3.83-7.45-5.68-11.22-10.88-22.3-25.73-41.79-45.09-56.78-12.46-9.63-23.47-21.75-39.3-26.92-6.37-2.07-12-6.84-17.58-11-8-6-15.6-12.48-23.37-18.76-8.68-7-15.41-15.45-18.49-26.44-2.39-8.49-4.91-16.94-6.86-25.54-.93-4.09-1.67-8.72-.71-12.66,1.34-5.48,3.41-11.39,7-15.46,2.07-2.36,7.76-2,11.82-1.95,33.2,0,66.39.33,99.59.37,21.72,0,43.46-.29,65.18-.45a20.22,20.22,0,0,1,9.53,1.71c-3.69,3.77-7.21,7.73-11.12,11.27a69.53,69.53,0,0,0-19.06,27.39c-3.2,8.55-7,16.86-10.11,25.44-5,14-6.65,28.32-2.75,42.87a72.29,72.29,0,0,0,5.36,13.36c9.29,18.63,17.64,37.74,30.86,54.22,9.12,11.36,15.84,24.4,18.6,39a75.15,75.15,0,0,1,1.21,14.38c0,4.7.12,9.07,4,12.61,5.68-1.33,7.38-5.4,7.6-10.69.33-7.9.31-15.85,1.27-23.66,2.81-22.89,15.23-39.14,35.36-49.32A29.28,29.28,0,0,1,709.89,197c14.58.22,28.66-2.9,42.81-5.67,7.3-1.43,14.56-3.17,22.21-4.85,2.29,2.34.68,4.8-1.45,6.49-5.59,4.43-8,10.33-11,16.81-8.73,19.22-8.19,39.64-10.15,59.75A46.93,46.93,0,0,0,755.13,292c1.5,3.75-.09,8.7,1.21,12.6,5.08,15.2,10.35,30.07,21.48,42.57,9.26,10.41,20.89,17.05,31.49,25.34,16.57,13,32.26,27,47.75,41.21,4.06,3.73,5.8,7.86,5.79,13.58Q862.61,578.79,862.72,730.3Z"/><text class="cls-3" transform="translate(217.94 454.99) scale(0.99 1)">Upside<tspan class="cls-4" x="346.81" y="0">down</tspan><tspan x="480.69" y="0"> </tspan><tspan class="cls-5"><tspan x="253.79" y="153.54">福</tspan></tspan></text><path class="cls-6" d="M199,246.65c-1.47.52-2.81,1.36-4,1.63h-1.27c-3.52-.81-6.77-1.28-10.25,0h-6.74l-.34-.09c-27.89-7.48-50.76-22.65-69.86-44.59-8.57-9.85-17.41-19.27-23.23-31.08-2.52-5.14-4.29-10.67-7-15.71Q73.23,151,70,145.27a142.93,142.93,0,0,1,102-42.72c4.4,0,8.77.2,13.07.59,2.83,12,4.28,24.3,5.68,36.59.41,3.62.48,7.29,1.16,10.86,1.62,8.44-2.82,15.58-5.47,22.73-3.77,10.14-2.31,19.88-.3,29.47,2.72,13,4.76,26.33,11.36,38.21C198.29,242.51,198.39,244.42,199,246.65Z"/><path class="cls-6" d="M193.71,248.28H183.46C186.94,247,190.2,247.47,193.71,248.28Z"/></g><g id="newGrid"><path class="cls-6" d="M0,0V909.84H909.83V0ZM871.1,790.06c-.1,25.31,0,50.61,0,75.92v11.36H37.58V34.93c3.94-.17,6.92-.41,9.9-.42,15.62,0,31.24.12,46.86-.09,5.76-.08,11.49-1,17.25-1.49,1.82-.16,3.81-.72,5.46-.23,10.82,3.26,21.87,1.66,32.8,1.7,45.63.2,91.26,0,136.89.1Q573.37,34.74,860,35h11.08V46.87q0,124.92,0,249.84c0,14.51,1,29,.94,43.54-.16,43.21-.75,86.43-.91,129.64,0,13.58,1.11,27.16,1.07,40.74Q871.8,650.34,871.1,790.06Z"/></g></g></svg>